<svg width="597" height="487" viewBox="0 0 597 487" fill="none" xmlns="http://www.w3.org/2000/svg">
<path d="M48.3878 464.902C48.3878 464.902 102.198 400.514 72.5078 341.135C42.8178 281.756 11.3819 186.575 128.394 139.421C245.406 92.2667 291.524 197.661 329.18 196.695C366.836 195.729 403.527 140.695 475.944 150.349C548.361 160.003 568.636 263.318 525.187 304.838C481.738 346.358 612.087 398.496 535.808 470.913L48.3878 464.902Z" fill="#D4F2FF"/>
<path d="M66.325 428.022C64.0241 425.033 62.7496 421.38 62.6911 417.608C62.6325 413.836 63.793 410.146 66 407.086C73.724 395.776 84.481 394.747 87.583 390.274C87.583 390.274 93.267 406.223 87.125 415.53C78.36 428.809 66.325 428.022 66.325 428.022Z" fill="#06628D"/>
<path d="M51.7178 443.688C50.5658 439.143 48.1849 435.004 44.8361 431.723C41.4873 428.442 37.2999 426.146 32.7328 425.088C16.6258 421.113 3.01882 436.606 0.111816 436.581C3.79183 439.478 8.43539 440.868 13.1018 440.469C20.8448 439.751 26.6248 450.339 34.3678 450.969C45.2298 451.838 51.7178 443.688 51.7178 443.688Z" fill="#06628D"/>
<path d="M40.3448 409.138C40.3448 409.138 38.6938 400.925 25.3098 403.018C17.158 404.363 9.57451 408.054 3.48584 413.638C9.68813 413.88 15.8272 414.978 21.7289 416.901C31.2439 420.059 38.8958 413.562 40.5398 409.891" fill="#06628D"/>
<path d="M45.3506 385.7C41.5248 380.625 35.8898 377.22 29.6176 376.193C18.8856 374.316 12.8687 376.252 12.8687 376.252C15.9862 380.459 18.7344 384.927 21.0826 389.607C24.7226 396.984 44.8866 397.638 45.3506 385.7Z" fill="#06628D"/>
<path d="M84.9067 395.697L84.4357 395.243C64.2877 416.177 63.9957 434.799 64.8417 441.976C62.3087 437.765 60.2559 433.283 58.7217 428.615C55.5212 419.582 53.0486 410.307 51.3277 400.88C50.7893 397.529 50.03 394.218 49.0547 390.968C48.3817 388.803 46.9417 385.921 46.1727 383.777C43.7727 377.092 39.8727 373.701 42.1277 367.461L41.4967 367.996C39.5427 372.339 42.4117 377.496 44.9357 384.533C45.2147 385.31 45.4947 386.103 45.7727 386.893C44.4007 387.053 33.6417 388.133 28.6577 383.584L28.2167 384.066C33.7227 389.091 45.4167 387.601 45.9967 387.523C46.3967 388.684 46.7967 389.844 47.1477 390.984C48.1543 394.343 48.9502 397.761 49.5307 401.219C50.2107 404.836 50.9977 409.006 52.6487 415.089C33.9757 402.104 13.4397 409.025 13.2267 409.095L13.4427 409.711C13.6497 409.641 34.3527 402.674 52.9257 416.094C53.9317 419.718 55.2327 423.989 56.9887 429.194C58.9714 435.359 61.8788 441.188 65.6117 446.48C62.2437 446.772 52.3777 446.658 42.4707 437.21C30.0507 425.366 10.3937 432.71 10.2007 432.792L10.4337 433.402C10.6287 433.329 29.8957 426.122 42.0187 437.682C52.4917 447.669 62.9847 447.423 66.0637 447.09C72.3907 455.529 78.4067 457.745 78.7807 457.875L79.3807 456.149C79.2867 456.116 72.3887 453.572 65.6867 443.316C64.7267 437.712 63.3557 418.087 84.9067 395.697Z" fill="#273137"/>
<path d="M61.65 454.712H557.274C568.574 457.696 576.894 461.229 579.58 464.883C580.48 466.107 580.799 467.408 578.044 468.525C574.144 470.106 564.805 470.964 555.744 471.138C546.683 471.312 537.621 470.929 528.615 470.669C518.825 470.387 508.615 470.256 499.206 470.847C489.797 471.438 481.313 472.891 479.671 474.766C478.137 476.518 482.62 478.274 482.185 480.049C481.692 482.062 474.685 483.876 465.685 484.91C455.635 485.917 445.538 486.381 435.438 486.3C401.392 486.346 369.627 483.195 336.228 481.925C314.018 481.08 290.949 481.077 268.733 481.915C243.568 482.865 219.755 484.869 194.652 485.877C171.327 486.814 146.315 486.844 124.418 485.038C102.521 483.232 84.402 479.353 81.893 474.802C81.443 473.986 81.475 473.152 80.299 472.363C73.711 467.948 36.833 467.863 27.205 463.663C22.61 461.656 26.054 459.236 33.011 457.498C39.968 455.76 51.819 455.826 61.65 454.712Z" fill="#90C0D4"/>
<path d="M285.13 294.078C283.014 295.151 279.048 297.502 278.669 298.627C278.349 299.972 278.212 301.354 278.261 302.736C278.261 302.736 274.979 301.09 276.369 297.972C277.238 296.02 280.193 294.262 282.288 293.209C282.288 293.209 282.299 293.219 282.299 293.209C282.806 293.572 283.378 293.836 283.985 293.986C284.357 294.088 284.745 294.119 285.13 294.078V294.078Z" fill="#693C37"/>
<path d="M214.947 31.9375H144.217C142.968 31.9375 141.732 32.1835 140.578 32.6614C139.424 33.1393 138.376 33.8398 137.492 34.7229C136.609 35.606 135.909 36.6544 135.431 37.8082C134.953 38.962 134.707 40.1986 134.707 41.4475V82.7555C134.707 85.2777 135.709 87.6966 137.492 89.4801C139.276 91.2636 141.695 92.2655 144.217 92.2655H173.706C175.378 97.4965 178.043 106.013 188.475 111.721C188.475 111.721 183.304 101.012 185.936 92.2655H214.947C216.196 92.2655 217.432 92.0195 218.586 91.5416C219.74 91.0636 220.788 90.3631 221.671 89.48C222.554 88.5969 223.255 87.5485 223.732 86.3947C224.21 85.2409 224.456 84.0043 224.456 82.7555V41.4455C224.456 38.9237 223.454 36.5053 221.671 34.7223C219.887 32.9392 217.469 31.9375 214.947 31.9375V31.9375Z" fill="#B2C7D6"/>
<path d="M211.5 29.9639H140.767C138.245 29.9639 135.826 30.9658 134.042 32.7493C132.259 34.5328 131.257 36.9517 131.257 39.4739V80.7829C131.257 82.0317 131.503 83.2683 131.981 84.422C132.459 85.5758 133.159 86.6241 134.042 87.5071C134.925 88.3901 135.974 89.0905 137.128 89.5683C138.281 90.0461 139.518 90.292 140.767 90.2919H170.256C171.928 95.5239 174.593 104.04 185.025 109.748C185.025 109.748 179.854 99.0379 182.485 90.2919H211.5C212.749 90.292 213.985 90.0461 215.139 89.5683C216.293 89.0905 217.341 88.3901 218.224 87.5071C219.107 86.6241 219.808 85.5758 220.286 84.422C220.764 83.2683 221.01 82.0317 221.01 80.7829V39.4739C221.01 36.9517 220.008 34.5328 218.224 32.7493C216.441 30.9658 214.022 29.9639 211.5 29.9639Z" fill="#E8F4FC"/>
<path d="M204.356 58.1055H150.323V61.9785H204.356V58.1055Z" fill="#9AD3FC"/>
<path d="M199.774 67.0137H154.904V70.8867H199.774V67.0137Z" fill="#9AD3FC"/>
<path d="M194.408 75.9229H160.27V79.7959H194.408V75.9229Z" fill="#9AD3FC"/>
<path d="M163.826 38.2861V48.9801H161.669V41.5191L158.911 48.9801H157.031L154.273 41.5501V48.9801H152.1V38.2861H154.734L158 46.3291L161.2 38.2861H163.826Z" fill="#9AD3FC"/>
<path d="M174.564 38.1641L170.882 45.1961V48.9801H168.694V45.1961L165 38.1641H167.5L169.8 42.8981L172.111 38.1641H174.564Z" fill="#9AD3FC"/>
<path d="M186.743 44.3296C187.136 44.8109 187.346 45.4161 187.336 46.0376C187.355 46.4423 187.282 46.8461 187.123 47.2189C186.964 47.5917 186.724 47.9238 186.419 48.1906C185.657 48.765 184.713 49.0451 183.761 48.9796H179.093V38.1636H183.669C184.571 38.1047 185.467 38.359 186.204 38.8836C186.499 39.1284 186.732 39.4386 186.886 39.7897C187.04 40.1407 187.11 40.5229 187.09 40.9056C187.115 41.5029 186.926 42.0895 186.557 42.5596C186.201 42.9904 185.71 43.2877 185.164 43.4026C185.784 43.5139 186.344 43.8426 186.743 44.3296V44.3296ZM181.265 42.6976H183.222C183.665 42.7284 184.105 42.6009 184.463 42.3376C184.607 42.2084 184.72 42.0482 184.793 41.8691C184.866 41.69 184.898 41.4967 184.886 41.3036C184.897 41.11 184.866 40.9162 184.794 40.7361C184.722 40.556 184.612 40.394 184.47 40.2616C184.102 39.9884 183.648 39.858 183.191 39.8946H181.265V42.6976ZM184.655 46.8416C184.812 46.7077 184.935 46.5389 185.015 46.3488C185.096 46.1587 185.13 45.9525 185.117 45.7466C185.129 45.5378 185.093 45.3289 185.011 45.1363C184.93 44.9436 184.805 44.7723 184.647 44.6356C184.262 44.3532 183.79 44.2151 183.314 44.2456H181.265V47.2176H183.33C183.802 47.2475 184.27 47.1133 184.655 46.8376V46.8416Z" fill="#9AD3FC"/>
<path d="M191.032 38.1641V48.9801H188.86V38.1641H191.032Z" fill="#9AD3FC"/>
<path d="M200.871 38.7147C201.691 39.1789 202.368 39.8602 202.827 40.6837C203.298 41.5639 203.544 42.5466 203.544 43.5447C203.544 44.5428 203.298 45.5255 202.827 46.4057C202.37 47.2323 201.693 47.9162 200.871 48.3817C200.023 48.8443 199.072 49.0867 198.105 49.0867C197.139 49.0867 196.188 48.8443 195.34 48.3817C194.517 47.9171 193.84 47.233 193.383 46.4057C192.913 45.5253 192.667 44.5427 192.667 43.5447C192.667 42.5467 192.913 41.5641 193.383 40.6837C193.841 39.8595 194.519 39.178 195.34 38.7147C196.188 38.2521 197.139 38.0098 198.105 38.0098C199.072 38.0098 200.023 38.2521 200.871 38.7147V38.7147ZM196.426 40.4307C195.937 40.723 195.544 41.1514 195.294 41.6637C195.024 42.2526 194.884 42.8928 194.884 43.5407C194.884 44.1886 195.024 44.8289 195.294 45.4177C195.544 45.93 195.937 46.3584 196.426 46.6507C196.941 46.9322 197.518 47.0797 198.105 47.0797C198.692 47.0797 199.269 46.9322 199.784 46.6507C200.273 46.358 200.667 45.9296 200.917 45.4177C201.186 44.8285 201.325 44.1884 201.325 43.5407C201.325 42.893 201.186 42.2529 200.917 41.6637C200.667 41.1518 200.273 40.7235 199.784 40.4307C199.269 40.1492 198.692 40.0017 198.105 40.0017C197.518 40.0017 196.941 40.1492 196.426 40.4307V40.4307Z" fill="#9AD3FC"/>
<path d="M252.325 464.459C252.289 465.03 252.214 465.598 252.101 466.159H213.632L215.493 452.175L217.129 451.04L218.417 450.151L218.989 449.834L229.253 448.668C230.889 452.4 241.377 454.268 247.674 456.131C252.152 457.457 252.5 461.965 252.325 464.459Z" fill="#EDECEA"/>
<path d="M239.956 285.153L237.728 371.893L231.768 440.017L220.594 439.217L216.137 438.9C216.137 438.9 214.645 424 213.898 404.275C213.151 384.55 215.013 377.475 215.013 377.475L212.406 308.238L192.306 373.755L170.716 445.979L168.516 445.744L156.933 444.486C156.933 444.486 157.312 438.537 159.172 412.101C160.211 396.491 163.338 381.091 168.472 366.313L177.407 286.648H178.531C202.735 273.612 239.956 285.153 239.956 285.153Z" fill="#042440"/>
<path d="M158.369 444.938L156.97 456.596L168.395 457.529L170.716 445.975L158.369 444.938Z" fill="#824B45"/>
<path d="M217.826 440.275L216.894 451C216.894 451 225.288 452.865 229.485 450.3L230.417 440.274L217.826 440.275Z" fill="#824B45"/>
<path d="M172.588 465.225L171.832 470.491L171.423 473.384C165.179 475.491 158.381 475.244 152.307 472.689C152.263 471.196 152.335 469.702 152.521 468.22C152.859 464.72 153.472 460.789 153.472 460.789L157.295 455.989L159.769 455.672L168.162 455.437L172.588 465.225Z" fill="#EDECEA"/>
<path d="M219.276 334.897C218.233 365.739 218.754 377.239 218.754 377.239C218.754 377.239 217.854 419.539 220.594 439.22L216.137 438.903C216.137 438.903 214.645 424.003 213.898 404.278C213.151 384.553 215.013 377.478 215.013 377.478L212.406 308.238L192.306 373.755L170.716 445.979L168.516 445.744L188.941 370.965L210.91 303.525L224.496 300.387C224.496 300.387 220.318 304.045 219.276 334.897Z" fill="#00172B"/>
<path d="M155.956 439.343L173.858 440.86L171.734 447.687L156.108 446.473L155.956 439.343Z" fill="#3E6080"/>
<path d="M215.124 433.881L234.544 434.033L232.723 441.922L215.731 441.163L215.124 433.881Z" fill="#3E6080"/>
<path d="M252.325 464.459C252.289 465.03 252.214 465.598 252.101 466.159H213.632L215.493 452.175L217.129 451.04L217.988 450.805C217.988 450.805 215.064 461.559 218.345 463.021C220.942 464.173 243.145 464.419 252.325 464.459Z" fill="#ABAAA9"/>
<path d="M171.832 470.491L171.423 473.384C165.179 475.491 158.381 475.244 152.307 472.689C152.263 471.196 152.335 469.702 152.521 468.221C153.36 469.717 154.566 470.975 156.025 471.877C157.484 472.778 159.149 473.293 160.863 473.374C164.741 473.698 168.614 472.68 171.832 470.491V470.491Z" fill="#ABAAA9"/>
<path d="M259.512 289.048C259.164 289.672 258.817 290.275 258.48 290.837C257.799 291.974 256.708 292.806 255.431 293.162C254.155 293.517 252.79 293.37 251.62 292.749L243.555 288.465L244.382 281.371L246.56 262.632C246.56 262.632 262.36 272.671 263.366 277.68C263.9 280.379 261.679 285.184 259.512 289.048Z" fill="#00315C"/>
<path d="M259.512 289.048C259.164 289.672 258.817 290.275 258.48 290.837C257.799 291.974 256.708 292.806 255.431 293.162C254.155 293.518 252.79 293.37 251.62 292.749L243.555 288.465L244.382 281.371C248.726 285.122 253.919 287.757 259.512 289.048V289.048Z" fill="#042440"/>
<path d="M261.8 280.064L267.442 282.885L261.988 295.299L256.91 291.725C256.91 291.725 257.47 283.261 261.8 280.064Z" fill="#FFBE01"/>
<path d="M287.378 301.508L278.157 305.27L267.812 300.57L262.547 293.608C262.547 293.608 260.847 287.208 265.931 283.447C265.931 283.447 272.514 282.322 276.839 284.387C279.277 285.622 282.033 286.082 284.739 285.706L285.495 289.284L280.036 290.225C280.468 291.425 281.252 292.465 282.285 293.21C282.285 293.21 282.296 293.22 282.296 293.21C282.804 293.574 283.376 293.837 283.982 293.987C284.355 294.089 284.743 294.121 285.127 294.08C287.09 293.844 287.458 291.514 289.063 292.485C290.946 293.607 287.378 301.508 287.378 301.508Z" fill="#824B45"/>
<path d="M238.247 210.297C236.037 227.497 233.097 284.477 233.097 284.477C233.097 284.477 235.548 290.377 219.337 286.197C203.126 282.017 195.417 291.627 195.417 291.627C195.417 291.627 198.798 188.787 208.787 167.087C209.066 166.472 209.384 165.874 209.737 165.297C210.203 164.445 210.852 163.708 211.637 163.137C212.977 162.257 227.937 161.177 232.607 166.587C233.992 168.452 235.01 170.563 235.607 172.807C236.037 174.127 236.427 175.577 236.777 177.147C239.055 188.045 239.551 199.24 238.247 210.297V210.297Z" fill="#F26835"/>
<path d="M235.606 172.808L235.453 173.022C234.384 174.482 233.001 175.683 231.406 176.539C229.811 177.394 228.046 177.882 226.238 177.967C224.43 178.051 222.627 177.729 220.959 177.026C219.292 176.323 217.803 175.255 216.602 173.901C213.777 170.738 211.266 167.411 209.736 165.301C210.202 164.449 210.851 163.712 211.636 163.141C212.976 162.261 227.936 161.181 232.606 166.591C233.991 168.455 235.009 170.565 235.606 172.808V172.808Z" fill="white"/>
<path d="M211.639 163.138L203.523 284.008L202.684 296.49C192.308 303.012 180.818 302.818 173.723 301.79C171.402 301.468 169.111 300.955 166.874 300.257L168.663 288.47L176.381 237.653L186.195 173.035C191.848 167.377 211.639 163.138 211.639 163.138Z" fill="#00315C"/>
<path d="M217.599 157.175C216.714 156.875 203.959 159.292 201.299 171.688C198.639 184.084 201.889 188.805 201.889 188.805C201.889 188.805 204.25 181.427 210.448 185.264C210.448 185.264 210.148 158.702 221.663 159.883L217.599 157.175Z" fill="#FFBE01"/>
<path d="M203.523 284.008L202.684 296.49C186.195 306.856 166.874 300.252 166.874 300.252L168.663 288.465C177.72 288.905 192.063 288.638 203.523 284.008Z" fill="#FFBE01"/>
<path d="M245.833 286.563C245.476 292.563 245.159 296.223 244.964 296.274C244.003 296.51 235.631 298.053 230.601 296.724C230.148 296.609 229.703 296.458 229.272 296.274C229.272 296.274 229.814 291.879 230.601 284.702C233.791 255.568 241.09 180.564 233.147 167.366C238.433 170.302 242.79 174.662 245.721 179.95C245.874 180.236 246.028 180.533 246.17 180.829C249.83 188.337 247.418 260.127 245.833 286.563Z" fill="#00315C"/>
<path d="M245.833 286.564C245.476 292.564 245.159 296.224 244.964 296.275C244.003 296.511 235.631 298.054 230.601 296.725C230.148 296.609 229.703 296.459 229.272 296.275C229.272 296.275 229.814 291.88 230.601 284.703C235.592 285.9 240.702 286.524 245.833 286.564V286.564Z" fill="#FFBE01"/>
<path d="M226.993 159.381C226.993 159.381 240.369 162.76 242.064 174.117C243.759 185.474 242.77 191.34 242.77 191.34C242.77 191.34 241.407 185.294 236.322 185.124C236.322 185.124 235.638 164.466 226.993 159.381Z" fill="#FFBE01"/>
<g style="mix-blend-mode:multiply" opacity="0.42">
<path d="M184.171 239.129C184.171 240.223 180.828 285.729 173.723 301.784C171.402 301.463 169.111 300.95 166.874 300.251L168.663 288.464L176.381 237.647L184.171 239.129Z" fill="#00315C"/>
</g>
<path d="M219.687 234.343C219.687 234.343 222.487 229.176 227.007 228.743C230.553 228.406 234.363 225.95 235.842 224.905C236.045 224.762 236.279 224.672 236.526 224.641C236.772 224.61 237.022 224.64 237.254 224.728V224.728C237.506 224.822 237.729 224.981 237.899 225.189C238.07 225.397 238.183 225.647 238.226 225.912C238.27 226.178 238.242 226.45 238.146 226.702C238.05 226.954 237.89 227.175 237.681 227.345C235.327 229.278 232.406 232.559 235.834 234.987C241.001 238.647 253.489 239.939 253.489 239.939L254.135 245.539C254.135 245.539 240.57 243.816 235.618 245.324C230.666 246.832 219.687 242.524 219.687 242.524V234.343Z" fill="#824B45"/>
<path d="M214.809 230.737H221.909C221.909 230.737 223.416 241.286 219.756 244.085L211.575 243.87" fill="#FFBE01"/>
<path d="M215.555 243.065C215.142 244.062 214.572 244.987 213.868 245.805C211.516 248.146 174.009 251.274 174.009 251.274L168.438 247.103C167.266 246.222 166.341 245.054 165.752 243.711C165.163 242.368 164.93 240.896 165.075 239.436C165.964 230.624 168.162 211.549 171.658 198.126C176.35 180.155 186.195 173.026 186.195 173.026C186.362 173.027 186.529 173.037 186.695 173.057C195.527 173.926 192.368 200.863 192.368 200.863L188.852 227.82C188.852 227.82 209.952 225.868 215.032 228.996C218.979 231.437 217.507 238.792 215.555 243.065Z" fill="#00315C"/>
<path d="M215.555 243.065C215.142 244.062 214.572 244.987 213.868 245.805C211.516 248.146 174.009 251.274 174.009 251.274L168.438 247.103C167.266 246.222 166.341 245.054 165.752 243.711C165.163 242.368 164.93 240.896 165.075 239.436C165.964 230.624 168.162 211.549 171.658 198.126C176.35 180.155 186.195 173.026 186.195 173.026C186.362 173.027 186.529 173.037 186.695 173.057C179.956 185.942 175.171 199.758 172.495 214.05C167.711 239.05 170.635 241.979 170.635 241.979L179.416 247.826L215.555 243.065Z" fill="#042440"/>
<path d="M218.8 149.997C217.575 150.679 216.875 151.325 215.486 151.097C214.097 150.869 212.474 149.04 212.664 147.581C211.546 148.081 210.603 147.423 209.748 146.472C209.314 146.104 209.01 145.606 208.881 145.051C208.753 144.497 208.806 143.916 209.034 143.395C208.472 143.446 207.91 143.299 207.445 142.98C206.98 142.661 206.64 142.189 206.486 141.647C206.283 141.144 206.266 140.585 206.439 140.072C206.612 139.558 206.964 139.123 207.43 138.847C205.698 137.296 204.973 134.416 206.364 132.598C205.936 132.174 205.601 131.666 205.378 131.106C205.156 130.546 205.052 129.946 205.073 129.344C205.094 128.742 205.238 128.151 205.498 127.607C205.759 127.064 206.128 126.58 206.584 126.187C205.573 125.699 205.462 123.92 205.573 122.766C205.63 122.258 205.818 121.774 206.118 121.361C206.419 120.947 206.822 120.619 207.287 120.409C207.573 120.24 207.633 119.351 207.587 119.073C207.524 118.638 207.551 118.196 207.666 117.773C207.782 117.349 207.984 116.955 208.26 116.614C208.536 116.272 208.879 115.992 209.269 115.789C209.658 115.587 210.085 115.468 210.523 115.439C210.654 113.681 212.339 111.939 213.954 112.439C214.506 110.421 216.902 108.872 218.782 109.655C219.335 108.718 220.2 108.006 221.226 107.644C222.252 107.281 223.372 107.292 224.391 107.674C225.761 106.141 228.061 106.206 229.867 107.218C231.241 106.411 233.278 105.937 234.356 107.201C234.536 107.474 234.748 107.726 234.988 107.95C235.572 108.367 236.325 107.99 237.007 107.858C237.79 107.761 238.58 107.966 239.218 108.43C239.856 108.894 240.294 109.583 240.443 110.358C241.425 110.211 242.428 110.325 243.352 110.689C243.821 110.902 244.201 111.271 244.429 111.733C244.658 112.194 244.719 112.721 244.604 113.223C245.025 113.017 245.499 112.945 245.963 113.017C246.426 113.088 246.856 113.3 247.196 113.623C247.542 113.967 247.785 114.401 247.899 114.876C248.013 115.35 247.994 115.847 247.843 116.312C248.228 116.48 248.57 116.735 248.839 117.058C249.109 117.38 249.3 117.761 249.397 118.17C249.494 118.579 249.495 119.005 249.398 119.415C249.302 119.824 249.112 120.205 248.843 120.529C249.199 120.765 249.498 121.078 249.716 121.445C249.935 121.812 250.068 122.224 250.106 122.649C250.143 123.075 250.085 123.504 249.934 123.903C249.783 124.303 249.544 124.664 249.235 124.959C249.571 125.283 249.83 125.68 249.991 126.119C250.152 126.558 250.212 127.027 250.166 127.492C250.12 127.958 249.97 128.407 249.726 128.805C249.482 129.204 249.151 129.543 248.758 129.796C250.052 130.96 249.538 133.568 247.926 134.015C248.114 134.305 248.237 134.633 248.287 134.975C248.337 135.317 248.313 135.666 248.216 135.998C248.119 136.331 247.952 136.638 247.725 136.9C247.499 137.161 247.219 137.371 246.904 137.515C247.059 138.088 246.99 138.699 246.711 139.224C246.432 139.748 245.963 140.147 245.4 140.338C244.292 140.628 243.17 140.861 242.038 141.038C240.739 141.542 239.54 142.27 238.494 143.191C234.361 146.286 229.57 148.388 224.494 149.334C224.188 149.429 223.867 149.46 223.549 149.426C223.231 149.391 222.923 149.292 222.645 149.134" fill="#1F1A1A"/>
<path d="M208.579 136.761C209.304 128.487 219.355 132.106 219.355 132.106C219.355 132.106 223.555 131.692 225.402 125.497C225.402 125.497 228.517 120.465 237.732 121.273C246.947 122.081 246.286 128.673 246.286 128.673C246.093 133.582 245.743 142.958 245.293 146.022C244.575 150.905 241.831 159.663 234.147 160.359L233.383 165.035L232.926 167.819C232.926 167.819 232.248 173.798 221.499 170.313C214.409 168.013 215.238 163.689 215.238 163.689L216.984 147.009C216.984 147.009 207.856 145.01 208.579 136.761Z" fill="#824B45"/>
<path d="M225.514 158.756C225.514 158.756 225.549 163.049 233.382 165.034L234.15 160.36C234.15 160.36 233.985 160.401 233.711 160.472C232.301 160.782 230.841 160.79 229.428 160.494C228.015 160.198 226.681 159.606 225.514 158.756V158.756Z" fill="#452518"/>
<path d="M231.166 138.465L231.028 138.554C230.882 138.687 230.704 138.782 230.512 138.829C230.363 138.867 230.209 138.88 230.056 138.865L229.748 138.838L228.36 138.731L224.481 138.431C224.222 138.409 223.974 138.314 223.767 138.156C223.562 138.006 223.408 137.795 223.329 137.553C223.249 137.311 223.246 137.051 223.321 136.807C223.614 135.792 224.27 134.919 225.164 134.355C226.058 133.79 227.128 133.574 228.171 133.746H228.181C228.281 133.763 228.389 133.79 228.498 133.817C228.607 133.844 228.687 133.888 228.776 133.905C229.298 134.061 229.783 134.321 230.202 134.669C230.621 135.016 230.966 135.445 231.216 135.928C231.391 136.276 231.518 136.646 231.593 137.028C231.619 137.126 231.633 137.227 231.633 137.328C231.663 137.542 231.636 137.76 231.553 137.96C231.471 138.16 231.338 138.334 231.166 138.465V138.465Z" fill="white"/>
<path d="M244.983 139.549L244.864 139.638C244.731 139.77 244.567 139.867 244.387 139.922C244.256 139.959 244.118 139.971 243.981 139.957L243.376 139.913H243.356L242.671 139.859L239.041 139.575C238.808 139.552 238.587 139.459 238.406 139.309C238.221 139.144 238.086 138.929 238.017 138.69C237.949 138.451 237.95 138.198 238.02 137.96C238.42 136.56 239.894 134.509 242.067 134.801C242.266 134.822 242.462 134.864 242.652 134.926C242.752 134.943 242.82 134.997 242.91 135.006C243.458 135.201 243.952 135.523 244.352 135.945C244.752 136.368 245.046 136.879 245.21 137.437C245.284 137.656 245.337 137.882 245.369 138.111C245.39 138.209 245.403 138.31 245.408 138.411C245.434 138.62 245.409 138.833 245.335 139.031C245.261 139.229 245.14 139.407 244.983 139.549V139.549Z" fill="white"/>
<path d="M234.49 146C234.69 145.991 239.466 145.739 239.813 142.623C239.888 142.249 239.873 141.862 239.77 141.495C239.667 141.128 239.478 140.791 239.219 140.511C238.954 140.29 238.647 140.125 238.316 140.025C237.986 139.925 237.639 139.892 237.296 139.928V134.551L236.405 134.56V141.028L236.938 140.911C237.223 140.84 237.521 140.83 237.81 140.881C238.1 140.933 238.376 141.045 238.619 141.211C238.768 141.391 238.873 141.604 238.927 141.831C238.98 142.059 238.981 142.296 238.928 142.524C238.67 144.844 234.502 145.065 234.46 145.067L234.49 146Z" fill="#451A16"/>
<path d="M214.392 140.337L215.019 139.668C214.478 138.839 214.065 137.934 213.794 136.981C213.903 136.61 214.087 136.265 214.336 135.968C214.584 135.672 214.891 135.429 215.237 135.256L214.875 134.403C214.393 134.64 213.969 134.978 213.631 135.395C213.293 135.812 213.051 136.298 212.92 136.818C212.864 137.48 212.969 138.145 213.225 138.758C213.481 139.371 213.882 139.912 214.392 140.337Z" fill="#451A16"/>
<path d="M231.539 131.304C231.539 131.304 227.347 129.273 224.056 131.441C224.247 130.582 224.701 129.804 225.355 129.215C226.008 128.627 226.83 128.256 227.704 128.156C230.729 127.894 231.539 131.304 231.539 131.304Z" fill="#1F1A1A"/>
<path d="M245.888 133.45C245.888 133.45 242.088 130.758 238.488 132.356C238.818 131.54 239.393 130.847 240.135 130.374C240.877 129.9 241.747 129.67 242.626 129.714C245.649 129.953 245.888 133.45 245.888 133.45Z" fill="#1F1A1A"/>
<path d="M221.335 130.537C220.094 133.529 219.545 136.762 219.729 139.995L217.622 138.662L216.476 131.213L221.335 130.537Z" fill="#1F1A1A"/>
<path d="M237.709 150.237C237.724 150.342 237.724 150.449 237.709 150.554C237.354 151.744 236.605 152.779 235.586 153.489C235.544 153.512 235.503 153.536 235.467 153.553C234.623 153.905 233.704 154.038 232.795 153.94C231.886 153.843 231.017 153.518 230.267 152.995C229.742 152.549 229.328 151.986 229.06 151.352C228.721 150.581 228.603 149.732 228.719 148.898C228.734 148.798 228.748 148.698 228.769 148.598C228.781 148.54 228.795 148.488 228.807 148.43C228.812 148.384 228.827 148.339 228.851 148.299C228.875 148.259 228.907 148.225 228.946 148.199C229.018 148.17 229.097 148.166 229.172 148.187C231.746 148.642 234.427 148.921 236.966 149.526C237.151 149.546 237.324 149.626 237.459 149.755C237.593 149.883 237.681 150.053 237.709 150.237V150.237Z" fill="#3D0C1A"/>
<path d="M235.583 153.488C235.541 153.511 235.5 153.535 235.464 153.552C234.62 153.904 233.701 154.037 232.792 153.939C231.883 153.842 231.014 153.517 230.264 152.994C229.739 152.548 229.325 151.986 229.057 151.351C229.429 151.055 229.869 150.855 230.338 150.77C230.806 150.685 231.289 150.717 231.742 150.864C232.139 151.006 232.493 151.247 232.77 151.566C233.046 151.884 233.237 152.268 233.322 152.681C233.377 152.46 233.376 152.229 233.321 152.008C233.266 151.787 233.157 151.583 233.004 151.414C233.004 151.414 234.884 151.111 235.583 153.488Z" fill="#CF6580"/>
<path d="M237.709 150.237C236.765 150.423 235.801 150.49 234.841 150.437C232.691 150.364 230.598 149.73 228.769 148.598C228.781 148.54 228.795 148.488 228.807 148.43C228.812 148.384 228.827 148.339 228.851 148.299C228.875 148.259 228.907 148.225 228.946 148.199C229.017 148.17 229.097 148.166 229.172 148.187C231.746 148.642 234.427 148.921 236.966 149.526C237.151 149.546 237.324 149.626 237.458 149.755C237.593 149.883 237.681 150.053 237.709 150.237V150.237Z" fill="white"/>
<path d="M224.799 124.63C224.75 124.887 224.758 125.152 224.823 125.405C224.887 125.659 225.007 125.895 225.172 126.097C225.338 126.299 225.546 126.462 225.782 126.575C226.018 126.688 226.276 126.747 226.538 126.749C227.068 126.704 227.575 126.51 228 126.19C228.426 125.87 228.753 125.436 228.944 124.939C229.006 125.322 229.209 125.668 229.511 125.911C229.814 126.153 230.196 126.274 230.584 126.251C230.969 126.208 231.341 126.08 231.671 125.875C232 125.671 232.281 125.395 232.492 125.069C232.577 125.544 232.813 125.978 233.165 126.307C233.517 126.636 233.967 126.843 234.446 126.896C234.925 126.948 235.408 126.845 235.824 126.601C236.239 126.357 236.565 125.985 236.752 125.54C238.093 128.214 239.909 126.859 240.79 125.509C240.809 125.896 240.93 126.271 241.143 126.595C241.355 126.918 241.651 127.179 241.999 127.349C242.175 127.421 242.364 127.456 242.554 127.453C242.744 127.449 242.931 127.406 243.104 127.328C243.278 127.249 243.433 127.136 243.561 126.996C243.689 126.855 243.787 126.69 243.85 126.51C244.013 126.795 244.233 127.042 244.496 127.239C244.758 127.435 245.058 127.576 245.377 127.652C245.696 127.729 246.027 127.739 246.35 127.683C246.673 127.628 246.982 127.506 247.257 127.327C247.432 127.212 247.583 127.063 247.7 126.888C247.817 126.713 247.898 126.517 247.939 126.31C247.962 125.964 247.907 125.617 247.778 125.295C247.472 124.169 247.005 123.093 246.392 122.1C244.776 119.731 241.808 118.786 239.014 118.309C236.51 117.841 233.951 117.744 231.42 118.021C229.912 118.171 228.449 118.613 227.111 119.321C225.754 120.05 224.692 121.226 224.104 122.648" fill="#1F1A1A"/>
<path d="M231.226 136.177C231.264 136.716 231.144 137.255 230.882 137.727C230.619 138.2 230.226 138.586 229.748 138.839L228.36 138.732C227.946 138.452 227.612 138.069 227.389 137.622C227.167 137.174 227.064 136.676 227.09 136.177C227.071 135.716 227.159 135.257 227.346 134.835C227.534 134.414 227.816 134.041 228.171 133.746H228.181C228.281 133.763 228.389 133.79 228.498 133.817C228.607 133.844 228.687 133.888 228.776 133.905C229.298 134.061 229.783 134.321 230.202 134.669C230.621 135.016 230.966 135.444 231.216 135.928C231.224 136.011 231.228 136.094 231.226 136.177Z" fill="#1F1A1A"/>
<path d="M245.212 137.438C245.222 137.995 245.048 138.54 244.716 138.988C244.384 139.436 243.913 139.762 243.377 139.914H243.357C243.288 139.924 243.218 139.93 243.149 139.931C242.987 139.929 242.827 139.905 242.672 139.86C242.162 139.625 241.737 139.24 241.453 138.756C241.169 138.272 241.041 137.713 241.085 137.154C241.066 136.714 241.145 136.275 241.315 135.868C241.485 135.462 241.742 135.098 242.068 134.802C242.266 134.823 242.463 134.865 242.653 134.927C242.753 134.944 242.821 134.998 242.911 135.007C243.459 135.202 243.953 135.524 244.353 135.946C244.753 136.369 245.047 136.88 245.212 137.438V137.438Z" fill="#1F1A1A"/>
<path d="M452.517 4.18066H379.909C377.32 4.18066 374.837 5.20912 373.006 7.03983C371.176 8.87053 370.147 11.3535 370.146 13.9427V56.3477C370.146 58.937 371.175 61.4202 373.006 63.2511C374.837 65.0821 377.32 66.1107 379.909 66.1107H410.182C411.898 71.4807 414.634 80.2237 425.343 86.0827C425.343 86.0827 420.034 75.0887 422.736 66.1107H452.517C455.106 66.1107 457.589 65.0821 459.42 63.2511C461.251 61.4202 462.28 58.937 462.28 56.3477V13.9477C462.28 12.6652 462.028 11.3953 461.537 10.2103C461.047 9.02533 460.328 7.9486 459.421 7.0416C458.515 6.13459 457.438 5.4151 456.254 4.92421C455.069 4.43332 453.799 4.18066 452.517 4.18066V4.18066Z" fill="#B2C7D6"/>
<path d="M448.769 0.837891H376.162C373.574 0.837891 371.091 1.86608 369.26 3.69635C367.429 5.52662 366.4 8.0091 366.399 10.5979V53.0039C366.4 55.593 367.428 58.076 369.259 59.9067C371.09 61.7374 373.573 62.7659 376.162 62.7659H406.434C408.15 68.1359 410.885 76.8789 421.595 82.7379C421.595 82.7379 416.286 71.7439 418.988 62.7659H448.769C451.358 62.7656 453.841 61.737 455.672 59.9064C457.503 58.0757 458.531 55.5929 458.531 53.0039V10.5979C458.531 8.00928 457.502 5.52694 455.671 3.6967C453.841 1.86646 451.358 0.838156 448.769 0.837891V0.837891Z" fill="#E8F4FC"/>
<path d="M379.336 452.029C379.336 452.029 359.02 452.513 355.392 456.866C354.319 458.215 353.53 459.768 353.072 461.431C352.615 463.094 352.499 464.832 352.732 466.54H394.09L393.364 451.062L379.336 452.029Z" fill="#1F272B"/>
<path d="M432.3 452.513L425.528 458.076L424.561 471.861H451.161C451.161 471.861 453.821 462.187 446.324 457.108L443.905 453.238L432.3 452.513Z" fill="#1F272B"/>
<path d="M451.507 271.923L447.141 451.95C441.296 455.644 436.332 455.15 433.131 454.028C431.735 453.57 430.428 452.874 429.269 451.971L418.069 306.889L395.646 451.971C393.453 453.728 390.754 454.736 387.946 454.847C383.999 454.894 380.108 453.903 376.665 451.971L393.959 265.871L451.507 271.923Z" fill="#324047"/>
<path d="M433.131 454.028C431.735 453.57 430.429 452.874 429.269 451.971L418.019 306.193L395.646 451.971C393.453 453.728 390.754 454.736 387.946 454.847C390.455 441.547 410.191 311.01 408.946 297.315C408.946 297.315 404.56 292.915 405.872 283.704C410.228 288.978 416.201 292.669 422.866 294.204L433.131 454.028Z" fill="#1F272B"/>
<path d="M410.183 166.091L384.351 204.064L393.65 224.472L409.925 205.356L410.183 166.091Z" fill="#02587A"/>
<path d="M461.077 166.604L457.163 206.704L456.848 209.894L456.428 214.218L455.306 253.298L454.948 265.734L454.854 269.018L454.717 273.772C454.717 273.772 453.595 274.003 451.617 274.339C450.557 274.517 449.256 274.727 447.745 274.958C439.412 276.196 424.888 277.802 411.414 276.585C411.046 276.553 410.69 276.511 410.322 276.48C402.095 275.64 394.33 273.699 388.722 269.921C388.722 269.921 391.222 261.998 393.948 251.273C394.327 249.825 394.694 248.313 395.061 246.773C397.109 238.551 398.734 230.228 399.93 221.839C404.548 187.166 410.173 166.094 410.173 166.094C410.173 166.094 412.691 164.824 416.333 163.156H416.343C417.351 162.694 418.443 162.211 419.586 161.718C424.564 159.474 429.73 157.669 435.023 156.324C435.096 156.313 435.159 156.292 435.233 156.282C437.76 155.871 440.35 156.065 442.788 156.849C444.943 157.468 447.039 158.275 449.053 159.262C450.733 160.062 452.348 160.931 453.818 161.791C456.328 163.254 458.752 164.861 461.077 166.604Z" fill="#03658C"/>
<path d="M486.116 233.997C486.116 233.997 463.459 274.138 462.641 274.138C462.179 274.138 458.905 270.402 456.061 267.044C455.683 266.603 455.306 266.162 454.948 265.732C453.133 263.58 451.716 261.849 451.716 261.849L455.306 253.296L464.551 231.269L456.851 209.892L455.036 204.845C455.036 204.845 454.93 204.045 454.794 202.683C454.007 195.054 452.108 169.658 461.08 166.604C461.08 166.604 461.259 167.024 461.594 167.78C464.991 175.419 483.881 218.361 486.116 233.997Z" fill="#03658C"/>
<path d="M443 183.163L446.18 189.344L415.9 218.623L407.137 190.737L412.72 181.964L408.134 178.385L416.341 163.148H416.351C417.359 162.686 418.451 162.203 419.594 161.71C424.572 159.466 429.738 157.661 435.031 156.316C437.627 156.346 440.219 156.521 442.796 156.841C444.951 157.46 447.047 158.267 449.061 159.254C450.741 160.054 452.356 160.923 453.826 161.783L454.948 173.999L443 183.163Z" fill="#00315C"/>
<path d="M449.06 159.258C447.004 172.271 435.901 188.317 427.26 199.147C421.415 206.503 416.693 211.456 416.693 211.456C415.857 207.374 415.397 203.223 415.318 199.056C414.877 183.609 418.278 167.343 419.59 161.718C424.568 159.474 429.733 157.669 435.026 156.324C435.099 156.313 435.163 156.292 435.237 156.282C437.764 155.871 440.353 156.065 442.791 156.849C444.948 157.466 447.046 158.272 449.06 159.258V159.258Z" fill="#E3E3E3"/>
<path d="M411.419 276.583C411.051 276.551 410.695 276.509 410.327 276.478C408.486 266.727 407.775 256.797 408.208 246.884C409.208 229.422 415.984 217.868 416.047 217.753L416.947 218.298C416.884 218.403 410.231 229.758 409.255 246.937C408.816 256.87 409.542 266.819 411.419 276.583V276.583Z" fill="#00315C"/>
<path d="M426.116 154.265L419.108 161.738L418.017 177.624L428.141 169.837L437.952 178.714L449.477 159.402L443.248 153.016C443.248 153.016 429.542 151.616 425.493 154.107" fill="white"/>
<path d="M428.141 169.84L423.936 173.733L425.805 179.028L432.346 173.577L428.608 169.84H428.141Z" fill="#03658C"/>
<path d="M427.832 175.755C427.832 175.755 427.821 176.355 427.79 177.371C427.685 181.716 427.39 193.69 427.265 199.147C421.42 206.503 416.698 211.456 416.698 211.456C415.862 207.373 415.402 203.222 415.323 199.056L425.2 177.298L425.966 175.598L427.832 175.755Z" fill="#03658C"/>
<path d="M396.677 97.7435H380.577V81.6445H373.078V97.7435H356.979V105.242H373.078V121.342H380.577V105.242H396.677V97.7435Z" fill="white"/>
<path d="M387.731 146.825H377.732V136.825H373.074L371.996 147.903L363.075 146.825V151.482H373.074V161.482H377.732V151.482H387.731V146.825Z" fill="white"/>
<path d="M359.933 123.673L351.247 124.751L352.325 116.065H348.781V123.673H341.173V127.217H348.781V134.825H352.325V127.217H359.933V123.673Z" fill="white"/>
<path d="M500.315 73.4167H484.496V57.5977H477.129V73.4167H461.31V80.7847H477.129V96.6037H484.496V80.7847H500.315V73.4167Z" fill="#9AD3FC"/>
<path d="M514.502 111.954H504.993V102.445H500.564V111.954H491.055V116.383H500.564V125.891H504.993V116.383H514.502V111.954Z" fill="#9AD3FC"/>
<path d="M524.29 151.484H515.98V143.173H512.109V151.484H503.798V155.355H512.109V163.665H515.98V155.355H524.29V151.484Z" fill="#9AD3FC"/>
<path d="M496.638 160.471H486.958V150.79H482.449V160.471H472.769V164.979L481.371 166.057L482.449 174.66H486.958V164.979H496.638V160.471Z" fill="#9AD3FC"/>
<path d="M419.871 26.4753C417.688 24.7208 415.6 22.8515 413.615 20.8753C409.335 16.7603 409.335 8.69329 409.335 8.69329C409.335 8.69329 403.902 8.19929 403.573 11.4933C403.455 15.0084 403.565 18.5275 403.902 22.0283H389.745C389.745 22.0283 384.145 38.3283 396.165 47.3803C396.165 47.3803 413.615 48.0393 418.225 43.5943L419.871 26.4753Z" fill="#9AD3FC"/>
<path d="M423.12 26.5996C422.461 26.9286 421.968 43.8846 421.968 43.8846L437.442 44.2146L438.594 26.4346L423.12 26.5996Z" fill="#9AD3FC"/>
<path d="M422.243 24.5537L421.505 46.3327L427.903 45.9627L428.888 24.6767L421.997 25.0457" fill="#9AD3FC"/>
<path d="M409.469 140.653L422.094 137.009L422.578 141.604L409.469 140.653Z" fill="#FFB0A6"/>
<path d="M457.163 206.702L454.854 202.032L454.791 202.683L447.75 274.956C449.261 274.725 450.562 274.515 451.622 274.337L454.854 269.016L454.948 265.732C455.306 266.162 455.683 266.603 456.061 267.044L456.961 265.553L470.029 232.738L457.163 206.702ZM455.306 253.296L456.428 214.216L456.848 209.892L464.548 231.269L455.306 253.296Z" fill="#03587A"/>
<path d="M451.133 270.238L447.307 276.227L438.491 283.379C438.491 283.379 441.319 297.685 447.973 301.511L453.795 286.706L458.12 277.724L451.133 270.238Z" fill="#FFCBC4"/>
<path d="M453.795 262.091L449.802 269.577L458.951 280.888L463.443 270.741L453.795 262.091Z" fill="white"/>
<path d="M444.605 145.052C444.605 145.052 458.021 144.731 460.768 131.175C463.515 117.619 456.934 115.633 456.934 115.633C456.934 115.633 462.26 104.554 442.009 98.0622C421.758 91.5702 412.332 108.486 422.929 114.976C425.934 116.882 429.292 118.165 432.802 118.749C436.313 119.333 439.905 119.207 443.366 118.376C443.366 118.376 442.926 122.399 445.447 123.905L444.605 145.052Z" fill="#949494"/>
<path d="M456.848 133.449C455.261 141.275 446.692 139.949 446.692 139.949L444.474 153.809C444.474 153.809 442.51 163.436 435.061 163.568C423.761 163.762 424.861 155.285 424.861 155.285L425.187 152.585L425.746 148.057C424.968 147.756 424.233 147.356 423.558 146.866C421.414 145.199 419.857 142.893 419.111 140.282C418.1 137.301 417.942 134.098 418.654 131.032C419.905 126.991 423.64 112.175 423.64 112.175C430.672 115.575 439.393 114.027 439.393 114.027C439.82 116.937 443.779 118.321 443.779 118.321C443.85 124.569 447.768 126.116 447.768 126.116C447.768 126.116 458.436 125.613 456.848 133.449Z" fill="#FFCBC4"/>
<path d="M434.491 149.005C434.491 149.005 433.271 152.959 425.191 152.593L425.745 148.062L426.136 148.288C427.406 148.971 428.803 149.387 430.24 149.51C431.677 149.633 433.123 149.461 434.491 149.005V149.005Z" fill="#F79085"/>
<path d="M434.716 128.525L434.816 128.652C434.947 128.872 435.142 129.047 435.374 129.152C435.467 129.193 435.564 129.224 435.663 129.242L441.147 130.353C441.41 130.397 441.679 130.373 441.929 130.281C442.175 130.172 442.384 129.994 442.533 129.771C442.681 129.547 442.763 129.285 442.769 129.016C442.786 127.301 441.682 124.422 438.718 124.466C438.621 124.477 438.523 124.48 438.425 124.475C437.649 124.511 436.898 124.757 436.251 125.187C435.604 125.617 435.087 126.215 434.753 126.916C434.699 127.011 434.651 127.109 434.609 127.209C434.515 127.42 434.476 127.651 434.495 127.881C434.513 128.111 434.59 128.332 434.716 128.525V128.525Z" fill="white"/>
<path d="M421.1 125.764L421.19 125.89C421.248 126.009 421.331 126.115 421.434 126.2C421.569 126.333 421.74 126.423 421.926 126.461L426.805 127.45C427.04 127.49 427.282 127.459 427.499 127.36C427.73 127.235 427.924 127.051 428.061 126.826C428.198 126.602 428.274 126.346 428.28 126.083C428.334 124.376 427.406 121.532 424.767 121.642C424.667 121.642 424.578 121.665 424.503 121.658C423.773 121.739 423.079 122.015 422.493 122.457C421.907 122.898 421.45 123.489 421.17 124.167C421.116 124.262 421.073 124.363 421.041 124.467C420.953 124.674 420.912 124.897 420.922 125.122C420.933 125.346 420.993 125.566 421.1 125.764V125.764Z" fill="white"/>
<path d="M429.387 134.709C429.194 134.644 424.674 133.071 425.202 130.097C425.235 129.728 425.357 129.373 425.558 129.062C425.759 128.751 426.033 128.494 426.356 128.314C427.001 128.052 427.722 128.052 428.366 128.314L429.851 123.35L430.705 123.607L428.919 129.58L428.44 129.322C428.185 129.175 427.903 129.081 427.611 129.047C427.318 129.012 427.022 129.038 426.74 129.122C426.549 129.244 426.389 129.41 426.275 129.605C426.16 129.801 426.093 130.021 426.08 130.248C425.687 132.461 429.633 133.836 429.673 133.848L429.387 134.709Z" fill="#F79085"/>
<path d="M431.184 141.392C430.176 141.184 429.191 140.875 428.244 140.471L428.607 139.645C428.033 139.412 434.494 142.356 436.161 139.294L436.941 139.726C435.806 141.814 433.238 141.808 431.184 141.392Z" fill="#F79085"/>
<path d="M450.274 135.123L449.855 134.329C450.602 133.719 451.249 132.998 451.776 132.192C451.772 131.814 451.688 131.44 451.531 131.096C451.375 130.752 451.148 130.444 450.865 130.192L451.449 129.506C451.843 129.852 452.155 130.28 452.365 130.76C452.574 131.24 452.675 131.76 452.661 132.284C452.543 133.373 451.74 134.327 450.274 135.123Z" fill="#F79085"/>
<path d="M436.177 121.939C436.177 121.939 440.693 120.896 443.484 123.623C443.461 122.756 443.167 121.919 442.644 121.228C442.121 120.537 441.394 120.027 440.567 119.77C437.655 118.891 436.177 121.939 436.177 121.939Z" fill="#949494"/>
<path d="M421.858 119.122C421.858 119.122 426.374 118.079 429.164 120.806C429.142 119.94 428.848 119.102 428.325 118.411C427.802 117.72 427.076 117.21 426.248 116.953C423.336 116.077 421.858 119.122 421.858 119.122Z" fill="#949494"/>
<path d="M435.268 127.624C435.161 128.134 435.195 128.664 435.368 129.157C435.461 129.198 435.558 129.228 435.657 129.247L439.32 129.989C439.694 129.603 439.947 129.116 440.048 128.589C440.148 128.262 440.178 127.917 440.137 127.578C440.096 127.239 439.984 126.912 439.809 126.618C439.634 126.324 439.4 126.07 439.121 125.873C438.842 125.675 438.525 125.538 438.19 125.47C437.855 125.402 437.51 125.405 437.176 125.478C436.842 125.552 436.527 125.694 436.252 125.897C435.976 126.099 435.746 126.357 435.576 126.653C435.406 126.95 435.3 127.279 435.264 127.619L435.268 127.624Z" fill="#3F5B73"/>
<path d="M421.413 124.955C421.33 125.366 421.335 125.791 421.429 126.201C421.564 126.334 421.735 126.424 421.921 126.462L425.592 127.206C425.903 126.839 426.114 126.398 426.204 125.926C426.303 125.599 426.332 125.254 426.291 124.915C426.249 124.576 426.137 124.249 425.962 123.956C425.786 123.662 425.552 123.409 425.273 123.211C424.994 123.014 424.677 122.877 424.342 122.809C424.007 122.741 423.661 122.744 423.327 122.817C422.994 122.89 422.679 123.032 422.403 123.234C422.127 123.436 421.897 123.694 421.726 123.99C421.556 124.286 421.449 124.615 421.413 124.955V124.955Z" fill="#3F5B73"/>
<path d="M448.872 124.57L446.953 132.316L443.783 134.739L445.12 122.394L448.872 124.57Z" fill="#949494"/>
<path d="M430.588 135.971C430.34 136.014 430.341 138.291 430.341 138.291L437.223 138.381C437.223 138.381 434.28 135.326 430.588 135.971Z" fill="#949494"/>
<path d="M428.159 135.568C428.359 135.702 427.496 137.803 427.496 137.803L421.506 135.285C421.506 135.285 425.207 133.577 428.159 135.568Z" fill="#949494"/>
<path d="M422.982 115.381C429.696 117.544 436.731 118.542 443.782 118.332L441.949 110.862L426.167 108.139L421.888 108.811C421.888 108.811 420.952 109.923 421.246 110.811L422.982 115.381Z" fill="#949494"/>
<path d="M423.56 146.872C421.417 145.205 419.859 142.899 419.113 140.288C420.864 140.451 429.071 141.04 429.071 141.04C429.071 141.04 431.291 146.393 423.56 146.872Z" fill="#FFB0A6"/>
<path d="M394.205 161.947C394.205 161.947 397.032 148.19 409.469 140.647H427.811C427.946 140.647 428.078 140.676 428.201 140.731C428.324 140.786 428.434 140.866 428.523 140.966C428.613 141.066 428.681 141.184 428.722 141.312C428.762 141.441 428.776 141.576 428.761 141.709L428.7 142.256C428.643 142.777 428.424 143.267 428.075 143.657C427.725 144.048 427.263 144.319 426.752 144.434L422.66 145.358C422.66 145.358 421.341 154.215 417.572 157.419L407.4 159.497L402.689 166.846L394.205 161.947Z" fill="#FFCBC4"/>
<path d="M392.132 166.282L393.828 159.121L404.381 165.717L402.497 172.501L392.132 166.282Z" fill="white"/>
<path d="M391.564 163.275C391.564 163.275 379.34 198.559 377.399 211.337C377.399 211.337 384.899 225.937 393.653 224.469C397.44 216.776 399.838 208.474 400.736 199.946C402.125 186.055 404.625 171.052 404.625 171.052L391.564 163.275Z" fill="#03658C"/>
<path d="M564.999 373.428C564.999 373.428 574.387 364.134 585.027 371.044C595.667 377.954 596.359 397.576 596.359 397.576C596.359 397.576 590.419 393.015 584.199 392.738C577.979 392.461 557.963 381.755 564.999 373.428Z" fill="#88BDD1"/>
<path d="M555.609 424.394C555.609 424.394 554.214 414.711 560.156 410.427C566.098 406.143 577.479 404.485 579.941 402.136C579.941 402.136 581.16 413.191 575.08 418.995C569 424.799 558.524 426.477 555.609 424.394Z" fill="#88BDD1"/>
<path d="M541.121 406.913C541.121 406.913 539.843 411.394 532.657 410.289C525.471 409.184 516.627 402.965 513.725 403.103C513.725 403.103 520.358 397.99 528.235 398.958C536.112 399.926 540.879 403.675 541.121 406.913Z" fill="#88BDD1"/>
<path d="M545.64 394.694C545.64 394.694 538.023 396.885 533.601 393.015C529.179 389.145 526.173 378.229 525.742 377.953C525.311 377.677 541.659 380.253 545.642 387.764C549.625 395.275 545.64 394.694 545.64 394.694Z" fill="#63AAC6"/>
<path d="M535.931 360.697C535.931 360.697 535.282 363.581 528.787 363.443C522.292 363.305 516.35 367.727 512.343 369.8C508.336 371.873 495.069 369.938 494.931 369.8C494.793 369.662 495.484 366.76 501.011 364C506.538 361.24 510.823 351.839 519.252 351.978C527.681 352.117 535.474 356.569 535.931 360.697Z" fill="#63AAC6"/>
<path d="M539.484 426.954C538.96 423.45 537.26 420.229 534.663 417.82C532.066 415.41 528.727 413.955 525.194 413.694C512.204 412.224 507.23 419.271 507.23 419.271C507.23 419.271 514.001 425.102 520.772 426.954C527.543 428.806 535.809 428.557 539.484 426.954Z" fill="#63AAC6"/>
<path d="M590.062 387.02C581.689 377.02 573.578 372.209 566.622 373.101C561.236 373.791 556.632 377.936 552.922 385.401C553.194 381.478 553.384 378.874 556.032 374.99C559.478 369.935 560.432 360.924 560.446 360.833L560.107 360.798C560.098 360.888 559.149 369.814 555.751 374.798C553.5 377.908 552.249 381.63 552.165 385.469C552.089 386.578 552.001 387.836 551.846 389.232C551.717 390.399 551.62 391.537 551.527 392.637C551.137 397.23 551.169 398.897 548.901 400.313C548.223 379.713 547.251 361.5 545.707 355.113L544.381 355.434C545.073 358.293 545.663 364.083 546.165 371.503C538.822 361.267 531.356 355.754 523.957 355.136C521.79 354.954 519.609 355.22 517.55 355.918C515.491 356.617 513.597 357.732 511.988 359.195L512.232 359.432C513.808 358.006 515.659 356.919 517.672 356.239C519.684 355.558 521.815 355.298 523.932 355.475C531.332 356.093 538.825 361.712 546.211 372.15C546.6 378.032 546.935 384.886 547.222 392.096C543.641 389.594 539.928 387.285 536.099 385.18L535.936 385.48C539.83 387.62 543.603 389.975 547.236 392.533C547.504 399.322 547.73 406.407 547.918 413.275C543.053 403.843 523.586 401.527 523.372 401.503L523.334 401.842C523.551 401.866 543.805 404.272 547.941 414.115C548.17 422.561 548.341 430.635 548.467 437.375C545.348 429.93 537.779 425.429 531.823 422.939C526.658 420.749 521.189 419.359 515.605 418.818C515.014 418.806 514.88 418.867 514.828 418.997L515.144 419.123C515.134 419.149 515.115 419.172 515.091 419.187C515.597 418.971 524.061 419.874 532.626 423.655C538.376 426.194 545.756 430.8 548.485 438.348C548.668 448.373 548.745 455.208 548.747 455.448L550.111 455.433C550.1 454.4 550.011 446.509 549.805 435.533C554.652 420.546 575.41 405.692 576.235 405.533L576.168 405.199C575.488 405.334 569.582 409.581 563.49 415.54C558.532 420.389 552.415 427.41 549.79 434.569C549.612 425.269 549.352 413.914 548.983 402.654C551.548 401.224 551.877 397.421 552.283 392.625C552.376 391.525 552.473 390.391 552.602 389.225C552.719 388.169 552.802 387.193 552.862 386.3C556.58 378.464 561.224 374.137 566.667 373.44C573.503 372.558 581.507 377.335 589.802 387.24C590.27 387.799 590.296 387.827 590.369 387.851L590.438 387.645L590.518 387.55C590.474 387.512 590.283 387.283 590.062 387.02Z" fill="#273137"/>
</svg>
