<svg width="496" height="297" viewBox="0 0 496 297" fill="none" xmlns="http://www.w3.org/2000/svg">
<path d="M450.95 277.277C449.854 278.931 448.637 280.502 447.31 281.977C447.04 282.267 446.78 282.547 446.51 282.827C445.196 284.19 443.771 285.441 442.25 286.567C441.65 287.017 441.03 287.447 440.4 287.847C440.09 288.047 439.76 288.247 439.44 288.437C438.8 288.817 438.14 289.177 437.47 289.517C431.623 292.352 425.186 293.754 418.69 293.607C417.66 293.607 416.61 293.577 415.54 293.517H415.04C408.37 293.405 401.711 292.944 395.09 292.137C393.9 292.007 392.67 291.867 391.42 291.717C390.17 291.567 388.87 291.407 387.54 291.237C385.33 290.957 383.023 290.651 380.62 290.317L328.09 289.827L313.91 289.987L62.69 292.777C36.78 288.511 21.0766 280.744 15.58 269.477C12.76 265.147 9.30329 257.804 5.20996 247.447C5.22996 240.347 5.56996 235.217 6.19996 232.057C6.80679 228.326 8.09128 224.737 9.98996 221.467C23.2 205.007 29.72 195.144 29.55 191.877C30.6964 187.79 31.1925 183.549 31.02 179.307C27.57 157.977 26.61 145.834 28.14 142.877C29.99 132.627 34.7366 122.561 42.38 112.677C47.6257 106.033 53.9749 100.34 61.15 95.8474C63.07 94.0174 76.42 87.1641 101.2 75.2874C106.048 72.6291 110.694 69.6176 115.1 66.2774C118.42 64.7374 131.473 52.1207 154.26 28.4274C159.463 23.6571 165.105 19.3882 171.11 15.6774C188.08 5.56741 207.023 0.374079 227.94 0.0974121H228.04C241.36 0.0974121 255.417 2.73741 270.21 8.01741C275.576 9.95653 280.822 12.2139 285.92 14.7774C298.57 22.4874 307.8 27.8541 313.61 30.8774H313.62C314.37 31.2674 315.07 31.6174 315.7 31.9274C316.05 32.0974 316.38 32.2574 316.7 32.4074C317.541 32.8108 318.402 33.1712 319.28 33.4874C319.42 33.5274 319.56 33.5774 319.68 33.6174C319.911 33.692 320.149 33.7422 320.39 33.7674C320.565 33.8082 320.749 33.787 320.91 33.7074C324.056 34.5496 327.279 35.0689 330.53 35.2574C347.42 35.4274 357.047 35.7941 359.41 36.3574C365.733 37.137 371.934 38.7024 377.87 41.0174C392.46 46.6674 404.717 57.2941 414.64 72.8974C419.358 80.0679 423.041 87.8681 425.58 96.0674C426.97 99.1274 427.987 108.234 428.63 123.387C429.079 126.315 430.005 129.149 431.37 131.777C431.38 131.827 431.39 131.887 431.41 131.957C431.544 132.483 431.764 132.983 432.06 133.437C432.1 133.507 432.14 133.587 432.19 133.667C436.48 141.897 456.25 171.867 456.25 171.867C456.41 171.867 467.55 186.207 468.36 215.557C469.32 236.107 463.517 256.681 450.95 277.277Z" fill="#D4F2FF"/>
<path d="M204.568 2.62341C192.768 5.08706 181.461 9.49839 171.111 15.6764C165.109 19.3907 159.468 23.659 154.262 28.4254C150.715 32.1121 147.404 35.5307 144.329 38.6814V38.6444C142.329 40.7011 140.427 42.6447 138.623 44.4754V44.4954C125.408 57.8701 117.567 65.1321 115.1 66.2814C110.692 69.6162 106.046 72.6242 101.2 75.2814C87.6879 81.7607 77.5739 86.7444 70.8579 90.2324L74.7009 128.332L200.74 124.687L204.57 2.62341H204.568Z" fill="#F0FAFF"/>
<path d="M206.139 2.31738C204.211 2.71272 202.316 3.14405 200.454 3.61138L200.282 122.391L75.645 128.026L73.687 88.7834C71.519 89.8881 69.637 90.8684 68.041 91.7244L69.964 131.024C70.22 132.891 71.1767 133.865 72.834 133.945L203.152 128.057C203.559 128.067 203.964 127.992 204.341 127.838C204.718 127.683 205.059 127.451 205.341 127.157C205.833 126.644 206.117 125.968 206.141 125.257L206.241 2.91838C206.222 2.71627 206.188 2.51577 206.141 2.31838L206.139 2.31738Z" fill="#98CBE0"/>
<path d="M144.327 38.6444C142.327 40.7011 140.425 42.6447 138.621 44.4754L139.738 125.128L139.818 130.915L145.6 130.657L145.52 124.87L144.326 38.6474L144.327 38.6444Z" fill="#98CBE0"/>
<path d="M450.95 277.277C449.854 278.931 448.637 280.502 447.31 281.977C447.04 282.267 446.78 282.547 446.51 282.827C445.196 284.19 443.771 285.441 442.25 286.567C441.65 287.017 441.03 287.437 440.4 287.847C440.09 288.047 439.76 288.247 439.44 288.437C438.79 288.817 438.14 289.177 437.47 289.517C431.623 292.352 425.186 293.754 418.69 293.607C417.66 293.607 416.61 293.577 415.54 293.517H415.04C408.37 293.405 401.711 292.944 395.09 292.137C393.9 292.007 392.68 291.857 391.42 291.717C390.16 291.557 388.87 291.407 387.54 291.237C385.33 290.957 383.023 290.651 380.62 290.317L328.09 289.827L313.91 289.987L313.61 30.8774H313.62C314.37 31.2674 315.07 31.6174 315.7 31.9274C316.05 32.0974 316.38 32.2574 316.7 32.4074C317.541 32.8108 318.402 33.1713 319.28 33.4874C319.42 33.5274 319.56 33.5774 319.68 33.6174C319.912 33.6872 320.149 33.7374 320.39 33.7674C320.47 33.7762 320.551 33.7782 320.631 33.7734C320.67 33.7734 320.706 33.7734 320.739 33.7644C320.799 33.7571 320.857 33.7377 320.91 33.7074C324.056 34.5496 327.279 35.069 330.53 35.2574C347.42 35.4274 357.047 35.7941 359.41 36.3574C365.733 37.137 371.934 38.7025 377.87 41.0174C392.46 46.6674 404.717 57.2941 414.64 72.8974C419.358 80.068 423.041 87.8681 425.58 96.0674C426.97 99.1274 427.987 108.234 428.63 123.387C429.079 126.315 430.005 129.149 431.37 131.777C431.38 131.827 431.39 131.887 431.41 131.957C431.586 132.468 431.803 132.963 432.06 133.437C432.1 133.507 432.14 133.587 432.19 133.667C436.48 141.897 456.25 171.867 456.25 171.867C456.41 171.867 467.55 186.207 468.36 215.557C469.32 236.107 463.517 256.681 450.95 277.277Z" fill="#BBE7FA"/>
<path d="M67.1068 148.932C67.1068 148.932 75.4778 141.459 84.2008 147.787C92.9238 154.115 92.6508 170.787 92.6508 170.787C92.6508 170.787 87.8098 166.658 82.5508 166.151C77.2918 165.644 60.7708 155.688 67.1068 148.932Z" fill="#88BDD1"/>
<path d="M56.9051 191.757C56.9051 191.757 56.1461 183.481 61.3741 180.107C66.6021 176.733 76.3301 175.826 78.5221 173.941C78.5221 173.941 79.0721 183.373 73.6591 188.03C68.2461 192.687 59.2871 193.651 56.9051 191.757Z" fill="#88BDD1"/>
<path d="M45.3801 176.292C45.3801 176.292 44.0992 180.038 38.0522 178.785C32.0052 177.532 24.7742 171.869 22.3062 171.859C22.3062 171.859 28.1571 167.813 34.7971 168.978C41.4371 170.143 45.3161 173.534 45.3801 176.292Z" fill="#88BDD1"/>
<path d="M49.7489 166.124C49.7489 166.124 43.1909 167.649 39.6099 164.173C36.0289 160.697 33.9559 151.304 33.6019 151.05C33.2479 150.796 47.0019 153.695 50.0529 160.25C53.1039 166.805 49.7489 166.124 49.7489 166.124Z" fill="#63AAC6"/>
<path d="M43 136.857C43 136.857 42.323 139.276 36.819 138.874C31.315 138.472 26.081 141.963 22.59 143.546C19.099 145.129 7.93096 142.906 7.81996 142.783C7.70896 142.66 8.41997 140.228 13.232 138.125C18.044 136.022 22.088 128.239 29.232 128.725C36.376 129.211 42.8 133.337 43 136.857Z" fill="#63AAC6"/>
<path d="M43.1129 193.222C42.8217 190.227 41.5206 187.42 39.4234 185.262C37.3262 183.104 34.5575 181.723 31.5719 181.346C20.6169 179.53 16.0879 185.291 16.0879 185.291C16.0879 185.291 21.5769 190.534 27.2399 192.402C32.9029 194.27 39.9259 194.42 43.1129 193.222Z" fill="#63AAC6"/>
<path d="M87.7701 161.557C81.1051 152.708 74.4361 148.27 68.4961 148.722C63.8961 149.071 59.8091 152.385 56.3351 158.558C56.7351 155.242 57.0131 153.041 59.4351 149.858C62.5801 145.721 63.7881 138.118 63.8001 138.042L63.5141 137.997C63.5021 138.073 62.3061 145.604 59.2051 149.683C57.1583 152.225 55.9339 155.329 55.6951 158.583C55.5821 159.52 55.4531 160.583 55.2601 161.76C55.0991 162.745 54.9671 163.706 54.8401 164.635C54.3081 168.514 54.2621 169.93 52.2761 171.035C52.6031 153.535 52.5761 138.035 51.5471 132.553L50.4081 132.767C50.9847 137.314 51.255 141.894 51.2171 146.477C45.4361 137.477 39.3441 132.467 33.0951 131.619C31.2648 131.37 29.4027 131.501 27.6251 132.003C25.8474 132.505 24.1924 133.368 22.7631 134.538L22.9631 134.75C24.3619 133.61 25.9802 132.768 27.7177 132.279C29.4551 131.79 31.2746 131.663 33.0631 131.906C39.3151 132.754 45.4241 137.849 51.2321 147.028C51.3041 152.035 51.2881 157.864 51.2161 163.993C48.2872 161.714 45.2385 159.592 42.0831 157.638L41.9321 157.885C45.1424 159.872 48.2401 162.034 51.2111 164.363C51.1411 170.135 51.0221 176.155 50.8811 181.99C47.1671 173.775 30.7541 170.957 30.5731 170.928L30.5261 171.213C30.7091 171.243 47.7861 174.172 50.8631 182.703C50.6871 189.879 50.4791 196.736 50.2901 202.458C47.9701 196.006 41.7471 191.858 36.8041 189.483C32.5182 187.399 27.9396 185.98 23.2261 185.276C22.7261 185.24 22.6081 185.285 22.5591 185.393L22.8211 185.514C22.812 185.537 22.7949 185.555 22.7731 185.566C23.2121 185.405 30.3531 186.542 37.4531 190.125C42.2201 192.531 48.2781 196.762 50.2631 203.285C49.9791 211.797 49.7441 217.599 49.7361 217.803L50.8931 217.85C50.9291 216.973 51.2001 210.275 51.5061 200.95C56.2751 188.45 74.5361 176.757 75.2421 176.65L75.2011 176.363C74.6181 176.449 69.4211 179.793 63.9921 184.58C59.5741 188.48 54.0771 194.165 51.5331 200.123C51.7891 192.23 52.0661 182.581 52.2471 173.013C54.4851 171.913 54.9311 168.701 55.4861 164.65C55.6131 163.722 55.7451 162.763 55.9061 161.782C56.0511 160.891 56.1611 160.067 56.2551 159.312C59.7551 152.828 63.8821 149.36 68.5301 149.012C74.3681 148.563 80.9481 152.966 87.5511 161.732C87.9231 162.226 87.9441 162.251 88.0051 162.275L88.0721 162.103L88.1451 162.026C88.1001 161.996 87.9461 161.794 87.7701 161.557Z" fill="#273137"/>
<path d="M55.4689 228.702L44.4999 228.557C43.5061 228.545 42.5497 228.176 41.8042 227.519C41.0587 226.861 40.5732 225.959 40.4359 224.974L38.2549 209.345L62.2019 209.653L59.6199 225.221C59.458 226.202 58.9503 227.092 58.1889 227.731C57.4274 228.369 56.4626 228.714 55.4689 228.702Z" fill="#4B96B5"/>
<path d="M63.1132 204.851L37.4723 204.522C36.65 204.511 35.9748 205.169 35.9642 205.991L35.9312 208.562C35.9206 209.384 36.5786 210.06 37.4009 210.07L63.0418 210.4C63.8641 210.411 64.5392 209.753 64.5498 208.93L64.5829 206.359C64.5935 205.537 63.9354 204.862 63.1132 204.851Z" fill="#2C7796"/>
<path d="M142.3 233.71L5.92094 233.717C5.26236 237.74 4.89972 241.806 4.83594 245.881C5.67194 260.155 11.9663 271.527 23.7189 279.997C34.7629 287.927 42.5963 292.564 47.2189 293.91C51.1383 295.444 59.2743 295.845 71.6269 295.115L142.527 288.661L142.3 233.797" fill="#48A0C7"/>
<path d="M101.789 232.601L1.08887 234.211C1.4317 234.655 1.8692 235.017 2.3695 235.27C2.8698 235.523 3.42029 235.662 3.98087 235.675L5.65287 235.657C5.14729 239.042 4.87531 242.457 4.83887 245.879C5.67487 260.153 11.9692 271.525 23.7219 279.995C34.7659 287.925 42.5992 292.562 47.2219 293.908C49.8739 294.948 54.4665 295.467 60.9999 295.467C64.1045 295.467 67.6469 295.35 71.6269 295.115L103.089 292.251L101.789 232.626V232.601Z" fill="#62B5D9"/>
<path d="M143.3 227.101L3.68796 228.401C2.75329 228.48 1.88517 228.917 1.26446 229.62C0.643757 230.324 0.318324 231.239 0.355963 232.177C0.393603 233.114 0.791411 234 1.46651 234.652C2.14162 235.303 3.04196 235.668 3.97996 235.672L143.594 234.372C144.528 234.297 145.398 233.864 146.021 233.164C146.644 232.464 146.974 231.55 146.94 230.613C146.907 229.676 146.514 228.788 145.843 228.134C145.171 227.48 144.273 227.109 143.336 227.1" fill="#3A82A1"/>
<path d="M389.279 207.242C386.174 207.25 383.073 207.458 379.995 207.863L373.666 288.763L397.687 289.492C401.896 262.869 405.335 241.674 408.006 225.906C408.615 222.713 408.853 219.46 408.714 216.212C408.667 214.796 408.199 213.426 407.371 212.276C406.542 211.127 405.391 210.25 404.062 209.756C400.378 208.141 395.469 207.303 389.335 207.242H389.279Z" fill="#37474F"/>
<path d="M406.593 216.348C406.519 215.478 406.23 214.64 405.753 213.909C405.276 213.178 404.625 212.576 403.859 212.157C403.093 211.738 402.235 211.516 401.362 211.509C400.488 211.503 399.627 211.713 398.855 212.121C398.704 212.197 398.556 212.277 398.41 212.361C397.393 212.992 396.647 214.48 396.174 216.824C395.159 221.844 394.402 226.913 393.907 232.01C393.541 234.784 393.063 241.78 392.473 252.998C392.449 253.648 392.139 256.073 391.544 260.274C391.031 266.497 390.582 270.853 390.196 273.341C389.788 276.619 388.766 281.835 387.129 288.988L398.27 289.488C402.025 258.222 404.604 237.143 406.007 226.251C406.473 222.997 406.669 219.71 406.592 216.423L406.593 216.348Z" fill="#101517" fill-opacity="0.557"/>
<path d="M255.326 69.5875L254.666 145.437V145.537L254.647 147.607L254.566 157.117L126.377 158.327C126.136 158.497 126.056 158.317 126.127 157.807L125.916 148.207L125.877 146.127L125.866 145.437L124.216 69.4175H124.456L255.316 69.4275L255.326 69.5875Z" fill="#61A8BD"/>
<path d="M253.32 69.5875L252.66 145.437V145.537L252.64 147.607L252.56 157.117L124.37 158.327C124.13 158.497 124.05 158.317 124.12 157.807L123.91 148.207L123.87 146.127L123.86 145.437L122.21 69.4175H122.45L253.31 69.4275L253.32 69.5875Z" fill="#B8EEFF"/>
<path d="M122.208 69.4144L122.413 78.9354L253.245 78.6764L253.325 69.5924V69.4274L122.208 69.4144Z" fill="#7FC6DB"/>
<path d="M233.437 71.8925C232.976 71.8933 232.535 72.0769 232.21 72.4031C231.884 72.7293 231.702 73.1713 231.702 73.632C231.703 74.0926 231.886 74.5343 232.212 74.8599C232.538 75.1856 232.979 75.3685 233.44 75.3685C233.901 75.3685 234.343 75.1856 234.669 74.8599C234.994 74.5343 235.178 74.0926 235.178 73.632C235.179 73.1713 234.996 72.7293 234.671 72.4031C234.345 72.0769 233.904 71.8933 233.443 71.8925" fill="#6DAEC2"/>
<path d="M241.039 71.9934C240.579 71.9942 240.137 72.1779 239.812 72.504C239.486 72.8302 239.304 73.2722 239.304 73.7329C239.305 74.1936 239.488 74.6353 239.814 74.9609C240.14 75.2865 240.582 75.4694 241.042 75.4694C241.503 75.4694 241.945 75.2865 242.271 74.9609C242.597 74.6353 242.78 74.1936 242.78 73.7329C242.781 73.2722 242.598 72.8302 242.273 72.504C241.947 72.1779 241.506 71.9942 241.045 71.9934" fill="#6DAEC2"/>
<path d="M248.333 72.3624C247.872 72.3632 247.431 72.5469 247.106 72.8731C246.78 73.1992 246.598 73.6412 246.598 74.1019C246.599 74.5626 246.782 75.0043 247.108 75.3299C247.434 75.6555 247.875 75.8384 248.336 75.8384C248.797 75.8384 249.239 75.6555 249.565 75.3299C249.89 75.0043 250.074 74.5626 250.074 74.1019C250.075 73.6412 249.892 73.1992 249.567 72.8731C249.241 72.5469 248.8 72.3632 248.339 72.3624" fill="#6DAEC2"/>
<path d="M167.276 119.982C157.743 120.399 151.2 120.976 147.647 121.712C143.478 122.508 140.37 123.78 138.323 125.526C136.343 127.242 135.054 129.619 134.697 132.214C134.184 134.802 133.984 140.047 134.097 147.95L150.865 147.095L167.282 119.983" fill="#37474F"/>
<path d="M109.193 212.512C108.928 212.513 108.67 212.597 108.456 212.754C108.242 212.911 108.084 213.132 108.004 213.384L87.8299 273.341C87.7312 273.65 87.7562 273.984 87.8998 274.274C88.0434 274.565 88.2943 274.787 88.5993 274.896C88.9043 275.004 89.2395 274.99 89.534 274.855C89.8285 274.721 90.059 274.477 90.1769 274.175L110.377 214.136C110.436 213.953 110.451 213.758 110.421 213.567C110.391 213.376 110.318 213.195 110.206 213.037C110.095 212.88 109.948 212.751 109.778 212.659C109.608 212.568 109.419 212.518 109.226 212.512" fill="#37474F"/>
<path d="M106.834 206.692C106.579 206.692 106.33 206.771 106.121 206.916C105.912 207.062 105.753 207.268 105.665 207.507L83.2998 271.98C83.1949 272.288 83.214 272.624 83.3531 272.917C83.4922 273.211 83.7404 273.438 84.0448 273.551C84.3491 273.664 84.6856 273.654 84.9826 273.523C85.2796 273.392 85.5136 273.15 85.6348 272.848L108 208.379C108.07 208.193 108.095 207.992 108.072 207.795C108.049 207.597 107.979 207.407 107.867 207.242C107.756 207.077 107.607 206.941 107.432 206.845C107.257 206.75 107.062 206.697 106.863 206.692" fill="#37474F"/>
<path d="M161.646 174.573C161.41 174.573 161.18 174.64 160.98 174.765L108.318 204.765C108.041 204.942 107.845 205.22 107.773 205.54C107.7 205.86 107.756 206.196 107.93 206.474C108.103 206.753 108.379 206.952 108.698 207.028C109.017 207.104 109.354 207.052 109.634 206.881L162.299 176.881C162.525 176.743 162.7 176.535 162.8 176.29C162.9 176.045 162.919 175.774 162.855 175.517C162.79 175.26 162.646 175.03 162.442 174.861C162.238 174.692 161.985 174.592 161.721 174.576" fill="#37474F"/>
<path d="M163.456 178.101C163.227 178.101 163.002 178.164 162.807 178.284L111.971 207.678C111.831 207.764 111.71 207.876 111.613 208.008C111.517 208.141 111.447 208.291 111.409 208.45C111.37 208.609 111.364 208.774 111.389 208.936C111.415 209.098 111.472 209.253 111.557 209.392C111.642 209.532 111.754 209.654 111.887 209.75C112.019 209.847 112.169 209.916 112.328 209.954C112.487 209.993 112.652 210 112.814 209.974C112.976 209.949 113.131 209.892 113.271 209.806L164.109 180.411C164.336 180.273 164.512 180.067 164.613 179.821C164.714 179.575 164.734 179.304 164.67 179.047C164.606 178.789 164.461 178.558 164.257 178.389C164.053 178.219 163.8 178.119 163.535 178.103" fill="#37474F"/>
<path d="M164.986 171.615C163.718 171.617 162.503 172.122 161.607 173.019C160.711 173.916 160.209 175.132 160.209 176.4C160.21 177.668 160.714 178.884 161.611 179.78C162.508 180.676 163.724 181.179 164.991 181.179C166.259 181.179 167.475 180.676 168.372 179.78C169.269 178.884 169.773 177.668 169.773 176.4C169.774 175.132 169.271 173.916 168.376 173.019C167.48 172.122 166.265 171.617 164.997 171.615" fill="#37474F"/>
<path d="M171.628 173.917C163.438 180.305 163.128 185.085 170.699 188.259L177.69 176.483C176.992 175.678 176.13 175.031 175.162 174.585C174.194 174.139 173.142 173.904 172.076 173.896L171.628 173.917Z" fill="#37474F"/>
<path d="M108.665 204.641C107.336 204.644 106.063 205.174 105.125 206.114C104.186 207.055 103.66 208.33 103.661 209.659C103.662 210.988 104.191 212.262 105.131 213.201C106.071 214.14 107.345 214.667 108.674 214.667C110.003 214.667 111.277 214.14 112.217 213.201C113.157 212.262 113.686 210.988 113.687 209.659C113.688 208.33 113.162 207.055 112.224 206.114C111.285 205.174 110.012 204.644 108.683 204.641" fill="#37474F"/>
<path d="M108.6 207.457C108.071 207.458 107.559 207.641 107.15 207.977C106.742 208.312 106.462 208.779 106.359 209.297C106.256 209.816 106.335 210.354 106.584 210.82C106.833 211.286 107.236 211.652 107.724 211.855C108.213 212.057 108.756 212.085 109.262 211.932C109.768 211.779 110.205 211.455 110.5 211.016C110.794 210.577 110.927 210.05 110.876 209.523C110.825 208.997 110.594 208.505 110.221 208.13C110.009 207.917 109.756 207.747 109.478 207.631C109.2 207.516 108.901 207.457 108.6 207.457Z" fill="#14191C"/>
<path d="M165.008 174.257C164.543 174.258 164.093 174.419 163.734 174.714C163.375 175.009 163.129 175.419 163.039 175.875C162.948 176.33 163.018 176.803 163.237 177.213C163.456 177.623 163.81 177.944 164.24 178.122C164.669 178.3 165.146 178.324 165.591 178.189C166.036 178.055 166.42 177.77 166.679 177.384C166.937 176.998 167.054 176.534 167.009 176.071C166.963 175.609 166.759 175.176 166.431 174.847C166.053 174.47 165.542 174.258 165.008 174.257Z" fill="#14191C"/>
<path d="M86.0518 269.679C84.104 269.683 82.2375 270.46 80.8623 271.84C79.4871 273.219 78.7158 275.088 78.7178 277.036C78.7198 278.984 79.4949 280.851 80.8729 282.228C82.2509 283.604 84.119 284.377 86.0668 284.377C88.0146 284.377 89.8827 283.604 91.2607 282.228C92.6386 280.851 93.4138 278.984 93.4158 277.036C93.4178 275.088 92.6464 273.219 91.2712 271.84C89.8961 270.46 88.0295 269.683 86.0818 269.679" fill="#37474F"/>
<path d="M85.8809 273.194C84.918 273.196 83.995 273.579 83.3148 274.261C82.6346 274.942 82.2528 275.866 82.2534 276.829C82.254 277.791 82.6369 278.715 83.318 279.395C83.9991 280.076 84.9225 280.458 85.8854 280.458C86.8483 280.458 87.7718 280.076 88.4528 279.395C89.1339 278.715 89.5168 277.791 89.5174 276.829C89.518 275.866 89.1362 274.942 88.456 274.261C87.7758 273.579 86.8528 273.196 85.8899 273.194" fill="#14191C"/>
<path d="M102.848 280.038L68.0807 280.286C66.874 280.293 65.7193 280.779 64.8706 281.636C64.0219 282.494 63.5487 283.654 63.5552 284.861C63.5617 286.068 64.0473 287.222 64.9052 288.071C65.7631 288.92 66.923 289.393 68.1298 289.386L102.897 289.138C104.103 289.138 105.261 288.659 106.114 287.806C106.967 286.952 107.447 285.795 107.447 284.588C107.447 283.382 106.967 282.224 106.114 281.371C105.261 280.518 104.103 280.038 102.897 280.038" fill="#37474F"/>
<path d="M93.0092 279.775H92.9002L79.2352 279.793C79.2912 279.932 79.3512 280.07 79.4162 280.207L68.2032 280.285C68.0085 280.283 67.8139 280.292 67.6202 280.312C67.0036 280.38 66.4072 280.572 65.8679 280.879C65.3286 281.185 64.8578 281.599 64.4844 282.094C64.1111 282.59 63.8431 283.156 63.6971 283.759C63.551 284.362 63.53 284.988 63.6352 285.599L93.0182 285.562C93.196 285.562 93.3733 285.545 93.5482 285.513C94.0747 285.414 94.5633 285.171 94.9598 284.811C95.3563 284.451 95.6451 283.988 95.7939 283.473C95.9428 282.959 95.9459 282.413 95.803 281.897C95.66 281.38 95.3765 280.914 94.9842 280.549C94.7916 280.375 94.5783 280.225 94.3492 280.103V280.103C93.9482 279.892 93.5025 279.78 93.0492 279.775H93.0092Z" fill="#57707D"/>
<path d="M177.062 97.9784C176.469 100.979 175.716 103.946 174.804 106.865C174.211 108.594 173.373 110.229 172.315 111.719L176.85 118.711L187.026 123.688L191.726 121.468L193.88 118.256L191.604 113.794L187.187 110.467L177.087 98.0074" fill="#FFBBB3"/>
<path d="M173.877 108.263C170.767 112.455 168.571 115.005 167.288 115.913C166.473 116.553 165.617 117.138 164.725 117.664C158.138 121.331 154.167 123.677 152.81 124.703C150.61 126.143 148.64 127.907 146.967 129.935C143.724 133.651 142.49 139.276 143.267 146.81L218.946 146.416C218.947 144.458 218.533 142.522 217.731 140.735L212.822 132.896L209.922 127.368C207.643 125.121 205.243 123 202.733 121.014C202.293 120.674 201.817 120.384 201.313 120.149C200.761 119.926 200.172 119.81 199.576 119.807C199.338 119.729 199.123 119.591 198.952 119.407C198.538 118.954 198.174 118.457 197.866 117.925L194.38 112.125C193.929 111.414 193.386 110.766 192.764 110.197C192.237 109.714 191.573 109.407 190.864 109.318C190.534 113.447 190.476 117.594 190.692 121.73C190.305 121.253 189.821 120.863 189.271 120.588C188.408 120.268 187.504 120.071 186.586 120.003C186.24 119.915 185.901 119.803 185.571 119.666C184.598 119.231 183.692 118.662 182.877 117.975C180.756 116.333 177.764 113.107 173.9 108.295" fill="#4192CE"/>
<path d="M173.869 108.274C172.475 110.154 171.265 111.703 170.238 112.92C171.415 115.6 172.389 117.67 173.16 119.129C174.146 121.057 175.719 123.726 177.879 127.136C180.838 124.601 183.953 122.254 187.205 120.107V120.107C187.028 120.077 186.84 120.047 186.641 120.015C186.292 119.929 185.949 119.818 185.615 119.682C184.637 119.254 183.726 118.687 182.908 118C180.887 116.466 177.874 113.224 173.869 108.274Z" fill="#72BCF3"/>
<path d="M156.092 130.943C159.097 134.363 160.839 137.157 161.317 139.325C161.623 140.584 161.758 141.878 161.717 143.172C161.693 144.361 161.599 145.547 161.435 146.724V146.724L163.323 146.714C163.409 146.446 163.49 146.171 163.568 145.888C164.143 144.078 164.256 142.153 163.898 140.288C163.749 139.663 163.462 139.079 163.056 138.579L156.093 130.941L156.092 130.943Z" fill="#3184C1"/>
<path d="M208.254 126.057C209.492 130.138 210.401 133.225 210.981 135.317C211.472 137.108 211.833 138.661 212.064 139.977C212.31 141.356 212.457 142.749 212.505 144.148C212.533 144.766 212.541 145.533 212.529 146.448L214.798 146.436C214.252 143.094 213.525 139.785 212.62 136.521C211.378 132.947 209.92 129.452 208.254 126.055V126.057Z" fill="#3184C1"/>
<path d="M189.444 120.67L192.401 125.084C192.601 126.92 192.734 128.328 192.801 129.308C192.954 130.805 192.948 132.313 192.781 133.808C192.721 134.2 192.629 134.586 192.506 134.962C192.256 135.663 191.966 136.349 191.638 137.016C191.533 137.287 191.472 137.572 191.459 137.861C191.455 138.216 191.523 138.568 191.659 138.896C191.963 139.594 192.316 140.269 192.717 140.915C192.818 141.106 192.872 141.319 192.874 141.534C192.868 141.694 192.845 141.853 192.806 142.007C192.567 142.9 192.416 143.508 192.353 143.832C192.273 144.21 192.198 144.631 192.128 145.095C192.065 145.517 192.004 146.005 191.944 146.559H192.866C192.956 145.737 193.056 145.037 193.166 144.459C193.244 143.997 193.425 143.237 193.71 142.179C193.75 142.009 193.776 141.837 193.789 141.662C193.809 141.356 193.761 141.048 193.648 140.762L192.591 138.746C192.46 138.486 192.386 138.2 192.376 137.908C192.385 137.702 192.431 137.499 192.511 137.308C192.837 136.65 193.123 135.973 193.369 135.28C193.514 134.84 193.622 134.388 193.692 133.929C193.867 132.362 193.874 130.78 193.714 129.211C193.553 127.226 193.401 125.734 193.258 124.734L190.616 120.787C190.638 121.15 190.666 121.461 190.7 121.723C190.339 121.309 189.915 120.955 189.444 120.674V120.67Z" fill="#3184C1"/>
<path d="M190.867 109.284C190.525 115.79 190.47 119.935 190.703 121.719C190.557 121.562 190.415 121.419 190.279 121.293L191.498 122.935C192.372 121.009 193.255 120.009 194.148 119.935C194.26 119.918 194.372 119.909 194.485 119.909C195 119.928 195.508 120.037 195.985 120.23C197.028 120.652 198.039 121.149 199.009 121.717C198.704 120.715 198.485 119.688 198.352 118.648V118.648C198.202 118.43 198.033 118.173 197.845 117.876L194.311 112.009C193.836 111.259 193.245 110.588 192.56 110.021C192.066 109.639 191.484 109.385 190.867 109.284V109.284Z" fill="#72BCF3"/>
<path d="M190.244 130.481C190.253 130.481 190.261 130.484 190.268 130.488C190.275 130.493 190.281 130.499 190.284 130.507C190.288 130.515 190.289 130.523 190.288 130.531C190.286 130.54 190.282 130.548 190.277 130.554C190.271 130.56 190.263 130.564 190.255 130.566C190.247 130.568 190.238 130.568 190.23 130.565C190.222 130.562 190.216 130.557 190.211 130.55C190.206 130.543 190.203 130.535 190.202 130.526C190.202 130.521 190.203 130.515 190.205 130.51C190.207 130.504 190.21 130.499 190.214 130.495C190.218 130.491 190.222 130.487 190.228 130.485C190.233 130.483 190.239 130.482 190.244 130.481V130.481ZM190.244 129.562C190.022 129.563 189.807 129.64 189.635 129.781C189.463 129.922 189.346 130.119 189.302 130.337C189.259 130.555 189.293 130.781 189.398 130.977C189.503 131.173 189.673 131.327 189.878 131.412C190.084 131.496 190.312 131.507 190.525 131.443C190.738 131.378 190.921 131.242 191.045 131.057C191.168 130.872 191.223 130.65 191.201 130.428C191.18 130.207 191.082 130 190.924 129.843C190.744 129.664 190.499 129.563 190.244 129.562" fill="#3184C1"/>
<path d="M193.916 61.2194C193.6 61.2288 193.288 61.2903 192.992 61.4014C190.917 62.3874 189.729 62.8377 189.429 62.7524C189.057 62.7854 188.683 62.7763 188.313 62.7254L185.939 62.2744C185.521 62.2089 185.101 62.1652 184.679 62.1434C183.737 62.0778 182.791 62.1407 181.866 62.3304C181.595 62.3936 181.334 62.4921 181.089 62.6234L179.729 63.5594L177.529 64.6924C177.133 64.9154 176.776 65.2003 176.47 65.5364C175.852 66.3434 175.443 67.2898 175.277 68.2924C174.772 68.3574 174.292 68.5543 173.887 68.8635C173.482 69.1726 173.166 69.583 172.97 70.0534C172.242 71.4639 171.704 72.9646 171.37 74.5164C170.564 77.4497 170.599 81.6414 171.475 87.0914L179.975 83.4114L188.927 75.6954L202.091 82.8534L201.965 83.3894C203.019 83.2648 204.042 82.9483 204.983 82.4554C205.183 82.322 205.359 82.1568 205.506 81.9664L206.374 80.6784L207.696 79.6514C207.886 79.443 207.995 79.1734 208.004 78.8914C207.861 78.086 207.834 77.2644 207.923 76.4514C208.104 75.85 208.387 75.2841 208.76 74.7784C208.834 74.6226 208.869 74.4507 208.86 74.2784C208.838 74.0875 208.775 73.9036 208.676 73.7394L207.786 72.3454C207.835 71.7188 207.747 71.089 207.527 70.5004C207.287 69.987 206.989 69.5028 206.639 69.0574C205.663 67.7003 204.465 66.5172 203.097 65.5574C202.508 65.2035 201.871 64.9374 201.205 64.7674C200.58 64.208 199.872 63.7502 199.105 63.4104C198.35 63.1743 197.551 63.1164 196.77 63.2414C195.659 61.8567 194.724 61.1834 193.964 61.2214" fill="#253336"/>
<path d="M192.876 73.1474C190.759 73.0266 188.644 73.4148 186.708 74.2794C185.906 74.7109 185.221 75.3323 184.714 76.0894C183.888 77.4316 183.198 78.853 182.655 80.3324C182.508 80.6322 182.289 80.8916 182.019 81.0884C181.617 81.3274 181.156 81.4525 180.688 81.4504L175.795 81.2364C174.971 81.236 174.151 81.3621 173.365 81.6104C172.638 81.8672 172.001 82.3307 171.533 82.944C171.064 83.5573 170.785 84.2938 170.729 85.0634C170.36 87.2535 170.768 89.5039 171.884 91.4244C172.728 92.8157 174.474 93.9737 177.122 94.8984C176.41 100.965 176.027 104.889 175.971 106.669C175.861 108.913 176.004 110.385 176.401 111.084C176.626 111.531 176.97 111.906 177.394 112.169C178.427 112.798 179.496 113.368 180.594 113.874C182.088 114.708 183.747 115.205 185.453 115.33C187.223 115.254 188.951 114.769 190.503 113.914L191.86 106.306C195.184 105.173 197.418 103.932 198.56 102.583C199.822 101.277 200.713 99.1227 201.234 96.1194C201.789 92.2585 202.086 88.3648 202.121 84.4644C202.304 79.9977 202.189 77.4491 201.776 76.8184C201.028 74.4184 198.076 73.1947 192.922 73.1474" fill="#FFBBB3"/>
<path d="M184.355 105.067C185.205 105.408 186.076 105.696 186.962 105.928C187.586 106.084 188.221 106.19 188.862 106.245C188.972 106.254 189.082 106.262 189.193 106.268C190.087 106.311 190.983 106.294 191.875 106.218L192.282 106.186C192.136 106.234 191.989 106.286 191.839 106.329L191.25 109.672C190.475 109.519 189.727 109.254 189.029 108.885C187.296 107.847 185.723 106.562 184.359 105.071V105.071L184.355 105.067Z" fill="#F48072"/>
<path d="M194.6 83.7983C194.595 83.8329 194.585 83.8665 194.571 83.8983C194.575 83.8636 194.584 83.8298 194.599 83.7983H194.6ZM194.153 83.7843H194.146H194.139H194.133L193.69 83.9193V83.9343L193.668 83.8753L193.688 83.9193L194.144 83.7793L194.153 83.7843ZM195.301 92.4793C195.295 92.4923 195.293 92.4943 195.295 92.4863Z" fill="#F48072"/>
<path d="M174.821 83.9663L173.582 86.1053L174.418 86.5903L175.657 84.4543L174.824 83.9683" fill="#F48072"/>
<path d="M188.635 65.3983L195.808 69.6573L201.17 73.1503L205.286 80.5783L204.253 82.8193C203.841 82.9646 203.421 83.0852 202.994 83.1803C202.983 82.6392 202.943 82.099 202.872 81.5623C202.8 80.7845 202.573 80.0291 202.202 79.3413C201.682 78.3193 200.271 77.5233 197.971 76.9533C197.218 77.1312 196.445 77.2129 195.671 77.1963C195.573 77.1886 195.475 77.1736 195.379 77.1513C195.356 77.154 195.333 77.154 195.309 77.1513C194.102 76.8557 192.916 76.4751 191.762 76.0123C191.569 75.9527 191.37 75.9121 191.168 75.8913C191.089 75.8848 191.01 75.8848 190.931 75.8913L189.374 76.3643L186.097 76.8843C185.538 76.9869 184.99 77.1416 184.46 77.3463C184.09 77.4946 183.741 77.691 183.421 77.9303C182.809 78.4254 182.237 78.9685 181.711 79.5543C181.516 79.7302 181.282 79.8561 181.027 79.9213C180.873 79.9625 180.712 79.9754 180.552 79.9593C179.661 79.791 178.815 79.4348 178.071 78.9143L178.293 75.9743L188.605 65.4323L188.635 65.3983Z" fill="#253336"/>
<path d="M180.71 80.1464L176.71 80.7464L177.888 88.5464L180.067 89.2834C180.021 88.2043 180.039 87.1234 180.12 86.0464C180.187 85.0324 180.384 83.0657 180.713 80.1464" fill="#253336"/>
<path d="M176.4 79.1514C176.145 79.1519 175.899 79.2407 175.703 79.4025C175.506 79.5643 175.372 79.7892 175.323 80.0389C175.274 80.2886 175.313 80.5476 175.433 80.7718C175.554 80.9959 175.748 81.1715 175.983 81.2684C176.218 81.3654 176.48 81.3777 176.723 81.3034C176.967 81.2291 177.177 81.0728 177.318 80.861C177.459 80.6492 177.522 80.395 177.497 80.1418C177.471 79.8886 177.359 79.652 177.179 79.4724C177.077 79.3703 176.955 79.2894 176.821 79.2343C176.688 79.1793 176.544 79.1511 176.4 79.1514" fill="#253336"/>
<path d="M174.493 79.8694C174.265 79.8705 174.045 79.9506 173.87 80.0959C173.694 80.2412 173.575 80.4428 173.531 80.6664C173.488 80.89 173.523 81.1217 173.631 81.3221C173.74 81.5226 173.914 81.6794 174.125 81.7658C174.335 81.8522 174.569 81.8628 174.787 81.796C175.005 81.7292 175.193 81.589 175.319 81.3993C175.445 81.2095 175.501 80.982 175.478 80.7554C175.455 80.5288 175.355 80.3171 175.193 80.1564C175.101 80.0649 174.992 79.9924 174.872 79.9432C174.752 79.8939 174.623 79.8688 174.493 79.8694" fill="#253336"/>
<path d="M175.8 80.0984C175.714 80.0985 175.629 80.1156 175.55 80.1486C175.47 80.1815 175.398 80.2298 175.338 80.2906C175.277 80.3515 175.229 80.4236 175.196 80.503C175.164 80.5824 175.147 80.6675 175.147 80.7534C175.148 80.8824 175.186 81.0084 175.258 81.1155C175.33 81.2226 175.432 81.306 175.552 81.3551C175.671 81.4043 175.802 81.4171 175.929 81.3919C176.055 81.3667 176.172 81.3046 176.263 81.2134C176.385 81.0901 176.453 80.9238 176.454 80.7504C176.453 80.5776 176.384 80.4123 176.261 80.2902C176.139 80.1681 175.974 80.0992 175.801 80.0984" fill="#253336"/>
<path d="M173.66 79.8424C173.403 79.8422 173.153 79.9311 172.954 80.0941C172.755 80.2572 172.618 80.4842 172.568 80.7365C172.517 80.9888 172.555 81.2509 172.676 81.4781C172.797 81.7053 172.993 81.8836 173.231 81.9827C173.468 82.0817 173.733 82.0954 173.979 82.0214C174.226 81.9473 174.439 81.7902 174.582 81.5766C174.726 81.3631 174.791 81.1063 174.767 80.8501C174.743 80.5939 174.63 80.3541 174.449 80.1714C174.24 79.9618 173.956 79.8436 173.66 79.8424" fill="#253336"/>
<path d="M172.568 73.3813C172.177 73.3816 171.798 73.5175 171.496 73.766C171.193 74.0144 170.987 74.36 170.911 74.7438C170.835 75.1275 170.895 75.5257 171.08 75.8704C171.265 76.2151 171.564 76.485 171.925 76.634C172.287 76.783 172.689 76.8019 173.063 76.6874C173.437 76.573 173.76 76.3324 173.977 76.0065C174.193 75.6807 174.29 75.2898 174.25 74.9007C174.211 74.5115 174.037 74.148 173.76 73.8723C173.443 73.5575 173.015 73.381 172.568 73.3813" fill="#253336"/>
<path d="M173.114 70.2573C172.45 70.2581 171.813 70.5227 171.344 70.9929C170.874 71.4631 170.611 72.1004 170.611 72.7648C170.612 73.4292 170.876 74.0662 171.346 74.5359C171.816 75.0055 172.453 75.2693 173.117 75.2693C173.782 75.2693 174.419 75.0055 174.889 74.5359C175.359 74.0662 175.623 73.4292 175.623 72.7648C175.624 72.1004 175.36 71.4631 174.891 70.9929C174.422 70.5227 173.785 70.2581 173.12 70.2573" fill="#253336"/>
<path d="M180.1 78.6943C179.687 78.6941 179.287 78.837 178.968 79.0986C178.649 79.3602 178.43 79.7244 178.349 80.1291C178.269 80.5338 178.331 80.954 178.525 81.3181C178.719 81.6822 179.034 81.9677 179.415 82.1259C179.796 82.2842 180.22 82.3054 180.615 82.186C181.01 82.0666 181.352 81.8139 181.581 81.471C181.811 81.1281 181.915 80.7162 181.875 80.3054C181.835 79.8947 181.653 79.5105 181.362 79.2183C181.027 78.8837 180.573 78.6952 180.1 78.6943" fill="#253336"/>
<path d="M179.828 81.5483C179.6 81.5485 179.378 81.6279 179.202 81.7729C179.025 81.918 178.904 82.1198 178.86 82.3439C178.815 82.5681 178.85 82.8007 178.958 83.0022C179.065 83.2037 179.24 83.3616 179.451 83.4491C179.662 83.5366 179.897 83.5481 180.115 83.4819C180.334 83.4156 180.523 83.2756 180.65 83.0856C180.777 82.8957 180.834 82.6676 180.812 82.4402C180.79 82.2127 180.689 82.0001 180.528 81.8383C180.436 81.7463 180.327 81.6733 180.207 81.6236C180.087 81.5738 179.958 81.5482 179.828 81.5483Z" fill="#253336"/>
<path d="M182.222 74.3093C181.636 74.3103 181.073 74.5441 180.659 74.9594C180.245 75.3747 180.012 75.9375 180.013 76.5241C180.013 77.1107 180.247 77.6731 180.661 78.0878C181.076 78.5024 181.639 78.7353 182.226 78.7353C182.812 78.7353 183.375 78.5024 183.79 78.0878C184.205 77.6731 184.438 77.1107 184.439 76.5241C184.439 75.9375 184.207 75.3747 183.792 74.9594C183.378 74.5441 182.816 74.3103 182.229 74.3093" fill="#253336"/>
<path d="M175.165 80.5935C174.344 80.5936 173.54 80.8243 172.844 81.2594C172.148 81.6946 171.588 82.3166 171.228 83.0545C170.984 83.5527 170.838 84.0932 170.798 84.6465L170.735 89.7195C170.725 90.8592 171.159 91.958 171.946 92.7827C172.732 93.6073 173.809 94.0929 174.948 94.1362C176.087 94.1796 177.198 93.7773 178.045 93.0148C178.892 92.2523 179.409 91.1897 179.485 90.0525L179.547 85.0055C179.551 84.4285 179.441 83.8564 179.224 83.322C179.006 82.7876 178.685 82.3015 178.279 81.8915C177.873 81.4816 177.39 81.1558 176.857 80.9331C176.325 80.7103 175.754 80.5949 175.177 80.5935" fill="#536873"/>
<path d="M186.611 62.6635C184.564 63.4595 182.646 64.5514 180.916 65.9044C179.229 67.3363 177.769 69.0157 176.586 70.8855C175.452 72.5896 174.588 74.4586 174.025 76.4265C173.774 77.3497 173.587 78.2893 173.466 79.2384C173.333 80.2224 173.225 81.6225 173.143 83.4385L173.064 83.6485L176.19 82.2365C176.755 80.0881 177.458 77.9787 178.296 75.9215C179.015 74.2474 179.895 72.6474 180.925 71.1445C183.14 67.8012 186.01 64.941 189.36 62.7365L186.636 62.6665" fill="#536873"/>
<path d="M174.753 80.5215C174.45 80.5215 174.15 80.5813 173.87 80.6976C173.591 80.8139 173.337 80.9843 173.123 81.199C172.909 81.4138 172.74 81.6686 172.625 81.9489C172.51 82.2292 172.452 82.5295 172.453 82.8325L172.51 85.9785C172.567 86.5605 172.844 87.0988 173.284 87.4839C173.724 87.8691 174.295 88.0721 174.879 88.0517C175.464 88.0313 176.018 87.7891 176.431 87.3742C176.843 86.9594 177.082 86.4031 177.098 85.8185L177.042 82.6725C177.006 82.0897 176.748 81.5428 176.323 81.1431C175.897 80.7434 175.335 80.5211 174.751 80.5215" fill="#8AADBF"/>
<path d="M252.66 145.537L252.64 147.607L250.87 147.617L126.46 148.187L123.91 148.207L123.87 146.127L126.41 146.117L250.91 145.547L252.66 145.537Z" fill="#A2CEDB"/>
<path d="M244.172 193.257L201.926 200.257L209.746 259.689L305.846 258.272L293.788 196.079L244.336 193.269" fill="#388AE0"/>
<path d="M360.743 193.843C356.379 198.353 353.206 200.557 351.225 200.455C349.013 200.817 346.805 198.984 344.6 194.955C342.056 197.151 339.905 199.764 338.24 202.683L328.726 284.189C334.818 284.093 338.8 284.337 340.671 284.921C342.959 285.564 344.954 286.977 346.32 288.921L364 290.445L364.523 199.964L360.761 193.875" fill="#F16834"/>
<path d="M340.947 201.67L325.331 214.697C324.007 220.615 323.048 225.482 322.454 229.297C321.454 235.759 320.687 242.704 320.154 250.134C320.057 250.941 319.775 251.715 319.332 252.395C318.876 253.293 314.89 258.552 307.373 268.17C305.141 270.792 303.452 272.688 302.304 273.856C299.566 276.87 296.781 278.377 293.948 278.375C296.348 281.621 297.736 283.901 298.112 285.216L304.959 283.964C311.051 279.964 319.23 274.864 324.92 270.291L320.112 286.634C321.861 286.067 327.572 284.334 328.13 284.351L333.346 284.993C332.669 273.51 334.646 265.638 335.231 260.667C335.189 259.859 335.531 251.646 337.664 236.543L339.286 220.933C339.686 217.991 339.27 214.113 340.444 209.633L340.944 201.687" fill="#00315C"/>
<path d="M329.342 211.351L325.331 214.697C324.008 220.615 323.049 225.482 322.454 229.297C321.454 235.759 320.688 242.704 320.154 250.134C320.057 250.941 319.776 251.715 319.332 252.395C318.877 253.293 314.891 258.552 307.373 268.17C305.142 270.792 303.452 272.688 302.304 273.856C299.567 276.869 296.782 278.375 293.95 278.375C295.628 280.482 297.054 282.777 298.201 285.213L305.05 283.926C311.278 279.802 317.139 275.529 322.635 271.107L322.764 271.686C322.848 270.942 322.928 270.266 323.003 269.657C323.133 268.232 323.804 263.647 325.016 255.901L325.587 251.157C325.684 251.065 326.115 244.679 326.88 232C327.071 229.43 327.304 226.905 327.58 224.425C327.942 221.081 328.53 216.723 329.344 211.351H329.342Z" fill="#00315C"/>
<path d="M364.26 197.708C363.215 204.031 365.472 202.872 364.667 204.661C364.224 205.804 363.724 206.922 363.167 208.013L361.9 207.057L359.716 221.108C359.368 223.891 359.18 226.691 359.154 229.494L358.898 258.631C356.115 261.955 351.338 267.197 344.566 274.355C346.472 275.449 348.266 276.726 349.922 278.169C350.968 279.231 351.763 280.515 352.247 281.925C353.303 282.425 356.187 280.869 360.898 277.259L360.971 289.221L383.282 289.352C383.375 286.687 378.059 275.524 380.056 258.163C382.556 255.343 392.838 224.906 390.447 214.235C389.723 210.761 388.263 209.321 385.479 207.244C384.173 206.225 381.4 205.233 379.408 204.116C372.189 200.467 367.341 198.698 365.057 197.309" fill="#00315C"/>
<path d="M347.578 271.157C346.621 272.178 345.616 273.245 344.563 274.357C346.469 275.451 348.263 276.728 349.919 278.171C350.966 279.234 351.76 280.517 352.244 281.927C352.391 281.992 352.55 282.023 352.71 282.018C353.972 281.813 355.168 281.313 356.2 280.557V280.557C355.251 278.194 353.928 275.999 352.281 274.057C350.989 272.704 349.37 271.706 347.581 271.157H347.578Z" fill="#FFBE01"/>
<path d="M375.7 211.335C372.823 223.698 370.757 233.312 369.5 240.177C369.146 241.818 368.648 243.424 368.012 244.977C366.987 247.309 365.669 249.5 364.091 251.498C362.994 252.984 361.266 255.07 358.906 257.754L358.898 258.638L358.806 258.748C361.896 255.474 364.153 252.953 365.576 251.185C367.605 248.878 369.274 246.278 370.527 243.472C371.648 240.529 372.409 237.461 372.791 234.334C373.471 230.217 374.441 222.562 375.701 211.368V211.34L375.7 211.335Z" fill="#00172B"/>
<path d="M372.641 240.692C371.747 240.721 370.858 240.849 369.991 241.072L370.036 242.49C370.929 242.367 371.827 242.297 372.728 242.281C373.355 242.274 373.979 242.347 374.587 242.498C376.056 242.98 377.421 243.735 378.608 244.724C377.653 243.524 376.55 242.449 375.326 241.524C374.547 240.97 373.611 240.679 372.654 240.695" fill="#00172B"/>
<path d="M381.775 255.707C379.792 258.355 377.665 260.892 375.403 263.307C375.359 263.445 372.586 266.102 367.084 271.277C365.836 272.483 363.778 274.513 360.908 277.365L360.968 282.089C366.976 275.203 371.104 270.318 373.352 267.436C375.838 264.313 378.642 260.41 381.765 255.728" fill="#00172B"/>
<path d="M320.473 246.057C320.359 247.399 320.253 248.756 320.155 250.129C320.058 250.936 319.777 251.71 319.333 252.39C319.12 252.758 318.886 253.113 318.633 253.454V253.454C318.905 254.115 319.179 254.868 319.455 255.713C319.59 256.123 319.727 256.563 319.869 257.032L320.588 259.472C321.012 257.998 321.325 256.494 321.524 254.972C321.671 253.707 321.676 252.428 321.539 251.161C321.333 249.433 320.976 247.727 320.472 246.061L320.473 246.057Z" fill="#00172B"/>
<path d="M248.1 198.191C247.877 198.191 247.66 198.269 247.487 198.41C247.315 198.552 247.196 198.749 247.153 198.968C247.109 199.187 247.143 199.415 247.248 199.612C247.354 199.809 247.524 199.963 247.731 200.048C247.937 200.134 248.167 200.145 248.381 200.079C248.594 200.014 248.779 199.877 248.903 199.691C249.026 199.505 249.082 199.282 249.059 199.06C249.037 198.838 248.938 198.63 248.78 198.472C248.599 198.293 248.355 198.192 248.1 198.191" fill="#E8F5FD"/>
<path d="M251.662 198.137C251.439 198.138 251.223 198.215 251.051 198.357C250.879 198.498 250.762 198.695 250.718 198.914C250.675 199.132 250.709 199.359 250.815 199.556C250.92 199.752 251.09 199.906 251.296 199.991C251.502 200.076 251.731 200.087 251.944 200.022C252.157 199.957 252.341 199.82 252.465 199.634C252.588 199.449 252.644 199.226 252.621 199.005C252.599 198.783 252.501 198.576 252.343 198.418C252.162 198.238 251.917 198.137 251.662 198.137Z" fill="#E8F5FD"/>
<path d="M293.756 191.957C301.192 237.043 305.261 261.357 305.964 264.901C306.058 265.249 306.183 265.587 306.339 265.911C307.971 265.217 308.794 263.808 308.809 261.682C306.065 239.415 301.722 217.544 297.552 193.904C297.187 193.347 296.697 192.881 296.121 192.546C295.545 192.211 294.899 192.014 294.234 191.972L293.759 191.957H293.756Z" fill="#303E45"/>
<path d="M254.989 244.122C254.87 244.122 254.751 244.127 254.631 244.137L244.811 244.932C243.753 245.094 242.795 245.648 242.127 246.485C241.459 247.322 241.131 248.379 241.208 249.447C241.285 250.514 241.761 251.514 242.542 252.246C243.323 252.978 244.351 253.389 245.421 253.397C245.528 253.397 245.659 253.397 245.815 253.382L255.635 252.588C256.693 252.427 257.652 251.872 258.319 251.035C258.987 250.198 259.315 249.141 259.238 248.073C259.16 247.005 258.684 246.006 257.902 245.274C257.121 244.542 256.093 244.131 255.022 244.123" fill="#142A49"/>
<path d="M245.316 243.775C244.231 243.774 243.188 244.187 242.397 244.929C241.607 245.671 241.129 246.687 241.062 247.769C240.995 248.851 241.343 249.918 242.036 250.752C242.729 251.586 243.714 252.125 244.79 252.257C244.905 252.272 245.02 252.281 245.137 252.286L254.65 252.653C255.732 252.653 256.773 252.242 257.563 251.501C258.352 250.761 258.83 249.748 258.899 248.668C258.969 247.589 258.624 246.523 257.936 245.688C257.248 244.853 256.268 244.311 255.195 244.172L254.813 244.141L245.335 243.775" fill="#142A49"/>
<path d="M257.505 280.38C256.433 280.382 255.402 280.788 254.616 281.517C253.83 282.246 253.348 283.244 253.266 284.312C253.184 285.381 253.508 286.441 254.173 287.281C254.839 288.121 255.796 288.68 256.855 288.845L257.296 288.889L342.177 293.435C343.25 293.445 344.288 293.049 345.081 292.326C345.875 291.603 346.367 290.608 346.457 289.538C346.548 288.469 346.232 287.404 345.572 286.558C344.911 285.712 343.955 285.146 342.896 284.974C342.697 284.943 342.497 284.925 342.296 284.918L257.586 280.381" fill="#303E45"/>
<path d="M283.562 276.68C282.503 276.679 281.473 277.025 280.629 277.665C279.191 278.749 277.877 279.987 276.709 281.356L285.979 281.905C286.851 281.958 287.508 282.004 287.951 282.044C289.044 282.104 290.126 282.3 291.172 282.625C291.553 282.732 291.909 282.913 292.22 283.159C292.53 283.404 292.789 283.708 292.982 284.053C293.143 284.358 293.264 284.681 293.344 285.016C293.496 285.709 293.604 286.41 293.669 287.116C293.703 287.329 293.785 287.531 293.908 287.707C294.007 287.836 294.149 287.925 294.308 287.958C294.627 288.008 294.95 288.026 295.272 288.012C295.43 288.025 295.589 288.002 295.736 287.945C295.884 287.888 296.017 287.799 296.126 287.683C296.229 287.569 296.319 287.444 296.395 287.309C296.614 286.868 296.856 286.438 297.119 286.02C297.252 285.812 297.421 285.629 297.619 285.48C298.138 285.168 298.735 285.011 299.34 285.028L296.705 278.611C293.471 278.23 291.314 277.957 290.233 277.791C289.015 277.629 287.262 277.302 284.974 276.812C284.517 276.73 284.054 276.684 283.59 276.676" fill="#824B45"/>
<path d="M297.731 277.467C296.557 278.055 295.264 278.366 293.951 278.375C295.629 280.482 297.055 282.777 298.202 285.213L302.082 284.484L302.042 284.367C301.614 283.095 301.051 281.873 300.364 280.719C299.629 279.528 298.745 278.435 297.733 277.467H297.731Z" fill="#FFBE01"/>
<path d="M328.648 272.657C328.072 272.689 327.522 272.907 327.081 273.278L326.417 273.831C325.097 275.174 323.903 276.29 322.834 277.18C321.287 278.117 319.789 279.134 318.347 280.225C317.532 280.879 317.166 281.452 317.247 281.945C317.288 282.289 317.463 282.602 317.734 282.816C318.005 283.03 318.351 283.128 318.694 283.088C319.834 282.802 320.894 282.261 321.794 281.504C321.664 282.182 321.695 282.881 321.885 283.544C321.977 283.735 322.128 283.89 322.316 283.986C322.504 284.083 322.718 284.115 322.926 284.078C323.878 284.078 324.816 283.183 325.739 281.393C325.3 282.769 325.264 283.563 325.629 283.774C325.86 283.906 326.118 283.981 326.383 283.993C326.649 284.005 326.913 283.955 327.155 283.845C327.502 283.727 327.687 283.413 327.708 282.903C327.718 284.112 328.443 284.75 329.883 284.816C330.326 284.838 330.762 284.695 331.108 284.416C331.696 283.805 332.194 283.113 332.588 282.361C332.763 282.128 332.954 281.906 333.159 281.698C333.585 281.22 334.144 280.878 334.764 280.716C335.131 280.648 335.51 280.711 335.835 280.894L338.618 282.731C339.326 283.131 340.067 283.468 340.833 283.74C342.45 284.342 344.156 284.674 345.881 284.721C347.136 284.756 348.378 284.459 349.481 283.86C350.846 283.046 352.076 282.024 353.126 280.83L348.018 274.313L338.418 274.274C336.991 274.254 335.808 274.204 334.871 274.122C334.052 274.063 333.239 273.944 332.437 273.767C332.053 273.676 331.695 273.576 331.362 273.467L329.462 272.799C329.201 272.719 328.93 272.674 328.657 272.665" fill="#824B45"/>
<path d="M333.205 276.252C332.849 276.238 332.497 276.327 332.19 276.506C331.911 276.678 331.67 276.904 331.48 277.172C331.085 277.748 330.727 278.349 330.41 278.972L330.005 279.584C329.88 279.792 329.214 280.626 328.005 282.084C327.79 282.358 327.592 282.624 327.413 282.884C327.202 283.185 326.975 283.544 326.732 283.96C326.872 283.934 327.009 283.896 327.142 283.848C327.313 283.779 327.459 283.658 327.559 283.503C327.659 283.348 327.708 283.165 327.699 282.981V282.981C327.698 283.205 327.73 283.429 327.794 283.645L328.164 283.245C328.471 282.898 328.75 282.568 328.999 282.256C329.332 281.836 329.637 281.419 329.914 281.005C330.998 279.211 331.559 278.314 331.597 278.314C331.86 277.92 332.2 277.584 332.597 277.326C332.956 277.117 333.366 277.013 333.781 277.026C333.987 277.026 334.193 277.044 334.396 277.078C334.733 277.133 335.067 277.207 335.396 277.301L338.871 278.285C337.444 277.542 335.954 276.926 334.42 276.443C334.025 276.325 333.617 276.261 333.205 276.252V276.252Z" fill="#452518"/>
<path d="M332.085 274.387C331.77 274.383 331.456 274.42 331.15 274.497C330.237 274.751 329.412 275.251 328.766 275.944C326.576 278.295 324.801 281 323.515 283.944V283.944C324.529 283.385 325.313 282.486 325.728 281.404C325.516 281.979 325.397 282.584 325.375 283.196C326.361 280.621 327.83 278.258 329.704 276.234C330.243 275.679 330.899 275.251 331.625 274.982C332.372 274.747 333.155 274.642 333.938 274.672H334.126C333.459 274.498 332.774 274.402 332.085 274.387V274.387Z" fill="#452518"/>
<path d="M325.912 274.849L325.498 275.267C325.328 275.429 325.157 275.58 324.987 275.724L323.479 277.785L320.753 282.186C321.069 281.99 321.413 281.762 321.784 281.504C321.773 281.624 321.763 281.739 321.755 281.849L321.834 281.792V281.809L325.912 274.849Z" fill="#452518"/>
<path d="M349.228 97.2374C349.719 97.2417 350.204 97.3494 350.65 97.5536C351.097 97.7578 351.495 98.0538 351.819 98.4224C352.506 99.2088 352.885 100.218 352.885 101.262C352.885 102.306 352.506 103.315 351.819 104.101C351.498 104.474 351.101 104.773 350.655 104.978C350.208 105.184 349.723 105.291 349.231 105.292C348.74 105.294 348.254 105.19 347.806 104.987C347.358 104.784 346.959 104.488 346.636 104.117C345.946 103.334 345.564 102.327 345.559 101.282C345.555 100.238 345.929 99.2279 346.612 98.4384C346.935 98.0679 347.331 97.7695 347.777 97.5627C348.222 97.356 348.706 97.2454 349.197 97.2384L349.228 97.2374ZM349.226 92.8124C348.198 92.8194 347.182 93.0431 346.245 93.4688C345.309 93.8946 344.473 94.5129 343.791 95.2834C342.34 96.9347 341.539 99.057 341.536 101.255C341.534 103.453 342.33 105.578 343.777 107.232C344.452 108.011 345.285 108.636 346.222 109.065C347.158 109.494 348.176 109.717 349.206 109.719C350.236 109.721 351.255 109.502 352.193 109.076C353.131 108.651 353.967 108.029 354.644 107.253C356.097 105.604 356.901 103.482 356.905 101.284C356.91 99.0853 356.115 96.9603 354.669 95.3044C353.99 94.5316 353.156 93.9103 352.221 93.481C351.286 93.0517 350.271 92.8239 349.242 92.8124" fill="#03658C"/>
<path d="M345.993 99.3634L341.725 99.4114L318.009 99.6774C317.942 99.6791 317.875 99.6848 317.809 99.6944C317.349 99.7849 316.94 100.044 316.661 100.42C316.382 100.796 316.253 101.263 316.3 101.729C316.309 102.193 316.494 102.636 316.817 102.968C317.141 103.3 317.579 103.496 318.042 103.516L341.757 103.25L346.012 103.202C345.719 102.605 345.565 101.95 345.562 101.285C345.559 100.62 345.707 99.9631 345.994 99.3634H345.993Z" fill="#03658C"/>
<path d="M315.8 98.5754L306.971 98.6834C306.434 98.7167 305.918 98.9084 305.489 99.2344C304.962 99.6509 304.571 100.215 304.366 100.855C304.161 101.494 304.152 102.18 304.338 102.825C304.512 103.47 304.881 104.044 305.395 104.47C305.881 104.873 306.49 105.095 307.12 105.099L315.977 104.99C316.506 104.954 317.013 104.764 317.436 104.444C317.965 104.03 318.358 103.467 318.565 102.828C318.772 102.189 318.785 101.503 318.6 100.857C318.427 100.213 318.059 99.6386 317.546 99.2124C317.063 98.8101 316.455 98.5866 315.826 98.5794" fill="#03658C"/>
<path d="M306.722 101.637C306.414 101.639 306.117 101.753 305.887 101.958C305.642 102.176 305.476 102.469 305.413 102.79C305.394 102.881 305.384 102.972 305.381 103.064L305.196 108.951C305.184 109.343 305.321 109.724 305.578 110.019C305.697 110.158 305.844 110.269 306.01 110.346C306.175 110.423 306.356 110.463 306.538 110.464C306.846 110.464 307.143 110.35 307.373 110.145C307.617 109.928 307.784 109.638 307.848 109.317C307.866 109.227 307.878 109.135 307.881 109.043L308.066 103.156C308.079 102.764 307.943 102.382 307.686 102.085C307.567 101.947 307.42 101.835 307.254 101.758C307.089 101.681 306.909 101.64 306.726 101.637" fill="#03658C"/>
<path d="M312.736 99.3294C312.404 99.3421 312.087 99.4727 311.842 99.6977C311.597 99.9227 311.441 100.227 311.4 100.557C311.388 100.635 311.382 100.713 311.381 100.791L311.275 108.482C311.269 108.871 311.409 109.248 311.666 109.539C311.786 109.677 311.933 109.787 312.098 109.863C312.263 109.939 312.442 109.98 312.624 109.981C312.954 109.968 313.269 109.839 313.513 109.616C313.757 109.393 313.915 109.09 313.957 108.762C313.971 108.679 313.978 108.594 313.979 108.509L314.084 100.839C314.094 100.447 313.955 100.066 313.697 99.7704C313.577 99.6323 313.429 99.5213 313.263 99.4445C313.097 99.3678 312.917 99.3272 312.734 99.3254" fill="#03658C"/>
<path d="M269.932 145.829C269.742 145.83 269.555 145.868 269.381 145.942C269.206 146.016 269.049 146.125 268.918 146.261C268.786 146.397 268.684 146.559 268.616 146.736C268.548 146.913 268.517 147.101 268.524 147.29L268.471 183.565C268.473 183.753 268.513 183.938 268.588 184.11C268.662 184.281 268.771 184.436 268.906 184.566C269.041 184.695 269.201 184.796 269.376 184.863C269.551 184.93 269.738 184.962 269.925 184.956C270.112 184.949 270.296 184.906 270.467 184.828C270.637 184.75 270.79 184.639 270.917 184.501C271.044 184.363 271.142 184.201 271.205 184.025C271.269 183.849 271.296 183.662 271.287 183.474L271.34 147.2C271.33 146.835 271.178 146.488 270.917 146.232C270.656 145.976 270.305 145.832 269.94 145.829" fill="#63B2D1"/>
<path d="M269.964 186.279C269.638 186.28 269.323 186.394 269.072 186.601C268.821 186.808 268.649 187.096 268.586 187.415C268.523 187.735 268.573 188.066 268.727 188.353C268.881 188.64 269.129 188.865 269.43 188.989C269.731 189.113 270.066 189.129 270.377 189.035C270.689 188.94 270.958 188.74 271.138 188.469C271.319 188.199 271.401 187.874 271.369 187.55C271.337 187.226 271.194 186.923 270.964 186.692C270.833 186.561 270.677 186.456 270.505 186.385C270.334 186.315 270.15 186.278 269.964 186.279" fill="#63B2D1"/>
<path d="M307.845 118.539C307.582 118.539 307.324 118.613 307.102 118.752L271.65 141.044C271.357 141.263 271.16 141.587 271.101 141.948C271.042 142.308 271.126 142.678 271.334 142.978C271.543 143.279 271.86 143.486 272.219 143.557C272.578 143.627 272.95 143.556 273.257 143.357L308.657 121.1C308.897 120.932 309.079 120.692 309.176 120.416C309.274 120.139 309.282 119.839 309.201 119.557C309.119 119.275 308.952 119.025 308.721 118.843C308.491 118.661 308.21 118.556 307.917 118.541" fill="#63B2D1"/>
<path d="M312.679 116.398C312.357 116.399 312.048 116.524 311.816 116.748C311.585 116.971 311.45 117.276 311.439 117.598C311.428 117.92 311.542 118.233 311.757 118.472C311.973 118.711 312.273 118.857 312.594 118.879L354.868 118.904C355.196 118.923 355.518 118.812 355.764 118.594C356.01 118.376 356.159 118.07 356.18 117.742C356.201 117.414 356.091 117.091 355.874 116.844C355.658 116.597 355.352 116.446 355.025 116.423L312.75 116.399" fill="#63B2D1"/>
<path d="M348.873 121.075L321.605 121.259C321.304 121.284 321.024 121.424 320.826 121.651C320.627 121.878 320.524 122.173 320.54 122.474C320.555 122.776 320.687 123.059 320.909 123.264C321.13 123.469 321.422 123.58 321.724 123.573L348.663 123.393C348.863 123.393 348.963 123.393 348.987 123.386C349.283 123.359 349.558 123.218 349.753 122.993C349.949 122.768 350.05 122.476 350.036 122.178C350.022 121.881 349.893 121.6 349.677 121.395C349.461 121.189 349.175 121.075 348.877 121.075" fill="#63B2D1"/>
<path d="M352.908 121.016C352.621 121.017 352.344 121.117 352.123 121.299C351.901 121.481 351.75 121.735 351.695 122.016C351.639 122.297 351.683 122.589 351.818 122.841C351.954 123.094 352.173 123.291 352.437 123.401C352.702 123.51 352.997 123.524 353.271 123.441C353.545 123.357 353.782 123.182 353.941 122.943C354.1 122.705 354.172 122.419 354.143 122.134C354.115 121.849 353.989 121.582 353.787 121.379C353.671 121.264 353.534 121.173 353.383 121.11C353.232 121.048 353.071 121.016 352.908 121.016" fill="#63B2D1"/>
<path d="M352.022 126.081C351.755 126.082 351.496 126.175 351.289 126.344C351.082 126.514 350.94 126.751 350.888 127.013C350.836 127.276 350.877 127.548 351.003 127.784C351.129 128.02 351.333 128.205 351.581 128.307C351.828 128.41 352.103 128.423 352.359 128.346C352.615 128.268 352.837 128.104 352.985 127.881C353.134 127.659 353.201 127.391 353.175 127.125C353.148 126.859 353.031 126.61 352.841 126.42C352.734 126.313 352.606 126.228 352.466 126.169C352.325 126.111 352.175 126.081 352.022 126.081Z" fill="#63B2D1"/>
<path d="M347.787 126.11L326.86 126.281C326.807 126.281 326.755 126.283 326.703 126.289C326.431 126.321 326.181 126.454 326.004 126.663C325.827 126.872 325.737 127.141 325.752 127.415C325.766 127.688 325.884 127.946 326.082 128.135C326.28 128.324 326.543 128.43 326.817 128.432L347.7 128.257C347.769 128.259 347.839 128.257 347.908 128.249C348.179 128.219 348.428 128.086 348.605 127.879C348.782 127.671 348.874 127.404 348.861 127.131C348.848 126.859 348.732 126.601 348.537 126.411C348.341 126.221 348.081 126.112 347.808 126.106" fill="#63B2D1"/>
<path d="M345.76 132.564L333.339 132.818C333.286 132.82 333.234 132.825 333.182 132.834C332.948 132.876 332.739 133.004 332.595 133.193C332.451 133.382 332.382 133.618 332.404 133.854C332.425 134.091 332.534 134.311 332.709 134.471C332.884 134.631 333.113 134.72 333.351 134.719L345.772 134.464C345.825 134.464 345.878 134.459 345.93 134.449C346.163 134.408 346.372 134.28 346.516 134.091C346.66 133.903 346.729 133.668 346.708 133.432C346.687 133.195 346.579 132.976 346.405 132.815C346.23 132.655 346.002 132.565 345.765 132.564" fill="#63B2D1"/>
<path d="M293.759 191.958H199.322L210.644 264.86L306.339 265.912L293.759 191.958Z" fill="#37474F"/>
<path d="M267.287 287.477L261.027 292.277C259.174 292.213 257.332 291.969 255.527 291.547C252.887 290.877 251.227 290.307 249.837 288.027C249.837 288.027 248.417 279.697 246.947 270.757C245.827 263.977 244.667 256.857 244.057 252.757H261.327L267.287 287.477Z" fill="#303E45"/>
<path d="M264.87 287.477L258.61 292.277C256.757 292.213 254.915 291.969 253.11 291.547C250.47 290.877 248.81 290.307 247.42 288.027C247.42 288.027 246 279.697 244.53 270.757C243.41 263.977 242.25 256.857 241.64 252.757H258.91L264.87 287.477Z" fill="#455963"/>
<path d="M252.66 145.437V145.537L252.64 147.607L252.56 157.117L124.37 158.327C124.13 158.497 124.05 158.317 124.12 157.807L123.91 148.207L123.87 146.127L123.86 145.437H252.66Z" fill="#7FC6DB"/>
<path d="M197.085 183.132C197.085 183.132 201.479 187.926 197.885 197.113C194.291 206.3 182.507 201.307 182.507 201.307L192.293 183.732" fill="white"/>
<path d="M180.378 175.457C166.501 187.796 168.17 198.973 185.383 208.989L202.619 179.719C195.037 173.403 187.685 171.953 180.564 175.368L180.378 175.457Z" fill="#37474F"/>
<path d="M190.5 86.4474C190.517 86.6246 190.488 86.8031 190.416 86.9659C190.344 87.1287 190.232 87.2704 190.09 87.3775L189.99 87.4474C189.887 87.5376 189.766 87.6041 189.634 87.6421C189.503 87.6801 189.365 87.6888 189.23 87.6674L188.94 87.6275L186.25 87.2775L184.95 87.1075C184.747 87.0771 184.556 86.9905 184.4 86.8575C184.246 86.7178 184.137 86.537 184.083 86.3366C184.03 86.1362 184.036 85.9247 184.1 85.7275C184.52 84.4775 186.04 82.6575 188.19 83.4275C188.258 83.4585 188.328 83.4852 188.4 83.5075C188.958 83.7271 189.445 84.0944 189.81 84.5701C190.174 85.0458 190.403 85.6119 190.47 86.2075C190.49 86.2975 190.49 86.3774 190.5 86.4474Z" fill="white"/>
<path d="M201.08 87.8274C201.091 88.0017 201.064 88.1764 201 88.3389C200.936 88.5015 200.837 88.6478 200.71 88.7674L200.61 88.8374C200.522 88.9256 200.415 88.9922 200.297 89.0321C200.179 89.072 200.053 89.0841 199.93 89.0674L199.82 89.0474L196.92 88.6674L196.13 88.5674C195.947 88.5436 195.778 88.4591 195.65 88.3274C195.51 88.181 195.412 87.9999 195.367 87.8029C195.321 87.6059 195.329 87.4002 195.39 87.2074C195.78 85.9474 197.17 84.1074 199.06 84.8474C199.14 84.8774 199.19 84.9074 199.25 84.9274C199.762 85.1674 200.201 85.5411 200.52 86.0091C200.838 86.4772 201.025 87.0223 201.06 87.5874C201.071 87.667 201.077 87.7471 201.08 87.8274V87.8274Z" fill="white"/>
<path d="M192.434 93.2144C192.59 93.2144 196.276 93.1964 196.634 90.8974C196.701 90.6203 196.7 90.3309 196.63 90.0544C196.561 89.7779 196.425 89.5225 196.234 89.3104C195.829 88.9595 195.304 88.7801 194.769 88.8104L194.926 84.8224L194.239 84.7964L194.05 89.5964L194.464 89.5284C194.686 89.4854 194.915 89.4881 195.136 89.5362C195.358 89.5844 195.567 89.677 195.751 89.8084C195.86 89.9452 195.934 90.1057 195.969 90.2769C196.004 90.4481 195.998 90.6251 195.951 90.7934C195.685 92.5044 192.466 92.5214 192.434 92.5214V93.2144Z" fill="#F48072"/>
<path d="M191.116 98.4324C192.104 98.5585 193.101 98.585 194.094 98.5114L194.021 97.6424C194.621 97.6084 187.787 98.2774 187.221 94.9554L186.372 95.1054C186.757 97.3714 189.107 98.1704 191.116 98.4324Z" fill="#F48072"/>
<path d="M190.673 82.2124C190.673 82.2124 187.642 80.3264 184.928 81.6124C185.161 80.987 185.584 80.4503 186.138 80.0773C186.691 79.7044 187.348 79.5138 188.015 79.5324C190.356 79.6254 190.673 82.2124 190.673 82.2124Z" fill="#253336"/>
<path d="M201.808 83.7354C201.808 83.7354 198.777 81.8494 196.064 83.1354C196.297 82.5101 196.72 81.9734 197.274 81.6004C197.827 81.2274 198.484 81.0369 199.151 81.0554C201.491 81.1484 201.808 83.7354 201.808 83.7354Z" fill="#253336"/>
<path d="M189.64 86.2974C189.577 86.8115 189.328 87.2848 188.94 87.6274L186.25 87.2774C185.959 86.8462 185.838 86.3226 185.91 85.8074C185.92 85.5449 185.985 85.2874 186.1 85.0514C186.216 84.8154 186.379 84.606 186.58 84.4366C186.78 84.2672 187.014 84.1416 187.266 84.0677C187.518 83.9938 187.783 83.9733 188.044 84.0075C188.304 84.0418 188.555 84.1299 188.779 84.2664C189.003 84.4029 189.197 84.5847 189.347 84.8002C189.497 85.0156 189.601 85.2601 189.651 85.5179C189.702 85.7757 189.698 86.0412 189.64 86.2974V86.2974Z" fill="#253336"/>
<path d="M200.41 87.8074C200.349 88.2727 200.143 88.7067 199.82 89.0474L196.92 88.6674C196.689 88.2578 196.601 87.7827 196.67 87.3174C196.682 87.0554 196.747 86.7986 196.864 86.5633C196.98 86.3281 197.143 86.1195 197.344 85.9509C197.545 85.7823 197.779 85.6572 198.031 85.5837C198.283 85.5103 198.547 85.4899 198.807 85.524C199.067 85.5581 199.317 85.6458 199.542 85.7817C199.766 85.9176 199.96 86.0986 200.11 86.3133C200.261 86.528 200.366 86.7717 200.417 87.0289C200.469 87.2861 200.466 87.5512 200.41 87.8074V87.8074Z" fill="#253336"/>
<path d="M341.727 201.067C341.725 201.262 341.736 201.457 341.76 201.65C341.944 203.262 343.116 207.636 350.415 207.238C359.347 206.751 365.031 199.767 365.031 199.767L365.593 193.69L345.409 196.972" fill="white"/>
<path d="M345.572 194.039C345.572 194.039 334.906 193.057 331.3 211.757C331.3 211.757 338.849 206.506 340.161 210.608L345.572 194.039Z" fill="#FFBE01"/>
<path d="M361.326 209.3C361.326 209.3 366.084 204.705 367.726 213.566C367.726 213.566 374.618 194.203 365.757 190.757L361.326 209.3Z" fill="#FFBE01"/>
<path d="M365.756 190.757C365.756 190.757 346.665 193.168 344.927 194.23C343.189 195.292 341.644 200.217 341.644 200.217L347.437 196.065C347.437 196.065 364.529 194.616 364.722 195.003C364.915 195.39 366.653 192.103 366.653 192.103" fill="#FFBE01"/>
<path d="M359.117 184.334C360.117 185.015 360.667 185.625 361.873 185.534C362.565 185.418 363.2 185.08 363.683 184.572C364.167 184.063 364.473 183.412 364.555 182.715C365.476 183.228 366.333 182.734 367.137 181.979C367.537 181.693 367.835 181.286 367.986 180.818C368.138 180.35 368.136 179.846 367.98 179.379C368.458 179.465 368.952 179.381 369.375 179.141C369.798 178.9 370.123 178.52 370.294 178.064C370.507 177.646 370.564 177.165 370.454 176.709C370.344 176.252 370.074 175.85 369.694 175.574C371.294 174.368 372.132 171.938 371.076 170.266C371.475 169.931 371.8 169.518 372.033 169.052C372.265 168.586 372.399 168.077 372.427 167.557C372.454 167.037 372.374 166.517 372.192 166.029C372.01 165.541 371.73 165.096 371.369 164.72C372.269 164.375 372.501 162.849 372.492 161.845C372.482 161.404 372.358 160.973 372.131 160.594C371.905 160.215 371.584 159.902 371.201 159.683C370.968 159.516 370.983 158.744 371.042 158.508C371.129 158.14 371.139 157.758 371.071 157.386C371.004 157.014 370.861 156.659 370.65 156.345C370.44 156.03 370.167 155.763 369.849 155.558C369.53 155.354 369.173 155.218 368.8 155.157C368.82 153.632 367.508 152 366.086 152.314C365.765 150.531 363.828 149.014 362.158 149.547C361.758 148.699 361.071 148.02 360.219 147.63C359.367 147.24 358.404 147.164 357.501 147.415C356.934 146.768 356.163 146.335 355.315 146.188C354.467 146.042 353.595 146.19 352.844 146.608C351.727 145.808 350.017 145.246 348.998 146.254C348.822 146.478 348.621 146.679 348.398 146.854C347.866 147.169 347.249 146.788 346.675 146.622C346.009 146.481 345.315 146.6 344.733 146.952C344.151 147.305 343.725 147.867 343.543 148.522C342.713 148.322 341.844 148.345 341.026 148.588C340.607 148.739 340.253 149.029 340.023 149.41C339.793 149.79 339.701 150.239 339.763 150.679C339.418 150.47 339.016 150.372 338.614 150.399C338.211 150.426 337.826 150.576 337.512 150.829C337.189 151.102 336.948 151.458 336.815 151.858C336.681 152.259 336.661 152.688 336.755 153.099C336.412 153.218 336.101 153.414 335.847 153.672C335.592 153.93 335.401 154.244 335.288 154.588C335.175 154.933 335.143 155.299 335.194 155.658C335.246 156.017 335.38 156.359 335.586 156.657C335.262 156.836 334.983 157.084 334.768 157.385C334.553 157.685 334.409 158.03 334.344 158.393C334.28 158.757 334.298 159.131 334.397 159.486C334.496 159.842 334.674 160.171 334.917 160.449C334.603 160.705 334.352 161.028 334.18 161.394C334.009 161.76 333.922 162.16 333.926 162.564C333.931 162.968 334.026 163.366 334.206 163.729C334.385 164.091 334.644 164.408 334.963 164.656C334.689 164.898 334.478 165.201 334.346 165.541C334.214 165.881 334.166 166.247 334.205 166.61C334.244 166.972 334.37 167.32 334.571 167.624C334.773 167.928 335.044 168.179 335.363 168.356C335.179 168.593 335.048 168.866 334.979 169.158C334.91 169.449 334.905 169.752 334.963 170.046C335.021 170.34 335.141 170.618 335.316 170.861C335.491 171.105 335.716 171.308 335.976 171.456C335.802 171.938 335.817 172.466 336.017 172.937C336.217 173.408 336.588 173.786 337.055 173.994C337.982 174.329 338.926 174.617 339.883 174.855C340.958 175.39 341.932 176.109 342.758 176.98C346.061 179.96 350.009 182.135 354.292 183.336C354.546 183.442 354.82 183.494 355.095 183.488C355.37 183.483 355.642 183.421 355.892 183.306" fill="#1F1A1A"/>
<path d="M368.866 173.692C368.866 166.501 359.982 168.863 359.982 168.863C359.982 168.863 356.413 168.188 355.298 162.706C355.298 162.706 353.006 158.131 345.05 158.131C337.094 158.131 337.166 163.866 337.166 163.866C336.966 168.114 336.558 176.227 336.714 178.903C336.962 183.169 338.656 190.93 345.187 192.11L345.487 196.201L345.67 198.637C345.67 198.637 345.802 203.845 355.27 201.652C361.517 200.207 361.132 196.412 361.132 196.412L360.888 181.894C360.888 181.894 368.866 180.857 368.866 173.692Z" fill="#824B45"/>
<path d="M352.705 191.381C352.705 191.381 352.352 195.081 345.491 196.2L345.185 192.111L345.553 192.241C346.738 192.616 347.989 192.733 349.222 192.584C350.455 192.436 351.643 192.026 352.705 191.381V191.381Z" fill="#452518"/>
<path d="M349.4 173.3L349.512 173.4C349.627 173.534 349.773 173.637 349.937 173.7C350.061 173.748 350.192 173.773 350.324 173.773H355.13C355.359 173.769 355.581 173.696 355.767 173.563C355.962 173.421 356.112 173.227 356.2 173.003C356.289 172.779 356.312 172.534 356.267 172.297C355.992 170.791 354.567 168.452 352.078 169.02C351.986 169.029 351.915 169.072 351.836 169.08C351.177 169.261 350.58 169.618 350.108 170.112C349.636 170.606 349.308 171.22 349.158 171.886C349.13 171.98 349.109 172.076 349.096 172.173C349.051 172.372 349.056 172.578 349.109 172.774C349.162 172.971 349.262 173.151 349.4 173.3V173.3Z" fill="white"/>
<path d="M337.468 173.3L337.56 173.4C337.661 173.536 337.796 173.642 337.951 173.708C338.059 173.755 338.176 173.778 338.293 173.777H342.561C342.768 173.771 342.967 173.697 343.128 173.567C343.304 173.412 343.437 173.214 343.514 172.992C343.59 172.77 343.608 172.532 343.565 172.301C343.319 170.795 342.053 168.456 339.854 169.024C339.771 169.033 339.7 169.076 339.629 169.084C339.02 169.299 338.479 169.673 338.062 170.166C337.645 170.659 337.367 171.254 337.256 171.89C337.226 171.997 337.218 172.09 337.197 172.177C337.157 172.373 337.161 172.575 337.208 172.769C337.255 172.963 337.344 173.144 337.468 173.3V173.3Z" fill="white"/>
<path d="M345.972 179.701C345.799 179.678 341.727 179.101 341.665 176.386C341.628 176.059 341.669 175.727 341.785 175.418C341.901 175.11 342.089 174.833 342.332 174.61C342.575 174.44 342.85 174.321 343.141 174.259C343.431 174.198 343.731 174.195 344.023 174.252L344.423 169.615L345.185 169.689L344.701 175.268L344.254 175.127C344.015 175.044 343.761 175.013 343.509 175.035C343.256 175.057 343.012 175.133 342.791 175.256C342.65 175.401 342.543 175.576 342.48 175.769C342.417 175.961 342.399 176.165 342.427 176.365C342.474 178.385 346.027 178.891 346.065 178.896L345.972 179.701Z" fill="#451A16"/>
<path d="M348.624 185.267C347.74 185.264 346.858 185.168 345.993 184.981L346.157 184.189C345.635 184.089 351.573 185.525 352.457 182.531L353.187 182.772C352.584 184.814 350.423 185.267 348.624 185.267Z" fill="#451A16"/>
<path d="M363.617 176.339L363.129 175.714C363.656 175.04 364.078 174.29 364.381 173.489C364.317 173.161 364.185 172.849 363.995 172.574C363.805 172.299 363.56 172.066 363.275 171.889L363.648 171.181C364.044 171.422 364.383 171.746 364.642 172.131C364.9 172.516 365.071 172.953 365.143 173.411C365.142 173.986 365.002 174.552 364.737 175.061C364.471 175.571 364.087 176.009 363.617 176.339Z" fill="#451A16"/>
<path d="M349.507 167.24C349.507 167.24 353.129 165.516 355.942 167.419C355.786 166.676 355.403 166.001 354.845 165.486C354.288 164.971 353.584 164.642 352.831 164.546C350.232 164.295 349.507 167.24 349.507 167.24Z" fill="#1F1A1A"/>
<path d="M336.98 167.318C336.98 167.318 340.603 165.594 343.415 167.498C343.259 166.755 342.876 166.079 342.319 165.564C341.761 165.049 341.057 164.721 340.304 164.624C337.705 164.373 336.98 167.318 336.98 167.318Z" fill="#1F1A1A"/>
<path d="M358.4 167.357C359.239 170.032 359.467 172.861 359.066 175.635L360.971 174.644L362.513 168.307L358.4 167.357Z" fill="#1F1A1A"/>
<path d="M355.883 162.004C355.907 162.229 355.881 162.456 355.808 162.67C355.734 162.884 355.615 163.079 355.458 163.241C355.3 163.403 355.109 163.529 354.898 163.609C354.686 163.689 354.46 163.722 354.235 163.704C353.782 163.624 353.362 163.418 353.021 163.11C352.68 162.801 352.434 162.403 352.309 161.961C352.228 162.285 352.029 162.568 351.752 162.754C351.475 162.94 351.139 163.017 350.809 162.969C350.481 162.902 350.172 162.763 349.905 162.562C349.637 162.36 349.418 162.102 349.264 161.805C349.157 162.208 348.923 162.564 348.596 162.822C348.27 163.079 347.868 163.223 347.452 163.233C347.036 163.242 346.629 163.117 346.29 162.874C345.952 162.632 345.702 162.286 345.578 161.889C344.228 164.089 342.773 162.789 342.119 161.557C342.075 161.889 341.943 162.204 341.737 162.468C341.531 162.732 341.257 162.935 340.946 163.057C340.789 163.105 340.624 163.121 340.461 163.103C340.298 163.085 340.141 163.034 339.998 162.953C339.856 162.872 339.731 162.763 339.632 162.632C339.533 162.502 339.462 162.352 339.423 162.193C339.262 162.426 339.056 162.623 338.816 162.772C338.576 162.921 338.309 163.02 338.029 163.062C337.75 163.104 337.465 163.088 337.192 163.016C336.919 162.943 336.664 162.815 336.443 162.64C336.301 162.527 336.182 162.386 336.095 162.227C336.008 162.067 335.953 161.892 335.935 161.711C335.941 161.411 336.014 161.116 336.149 160.848C336.494 159.901 336.975 159.008 337.576 158.198C339.139 156.276 341.753 155.686 344.183 155.485C346.363 155.271 348.563 155.381 350.711 155.811C351.994 156.055 353.217 156.547 354.311 157.26C355.42 157.995 356.242 159.09 356.637 160.36" fill="#1F1A1A"/>
<path d="M349.591 172.23C349.586 172.741 349.703 173.246 349.932 173.702C350.055 173.75 350.187 173.775 350.319 173.775H353.139C353.395 173.301 353.527 172.77 353.522 172.23C353.522 170.785 352.643 169.608 351.556 169.608C350.469 169.608 349.591 170.785 349.591 172.23Z" fill="#1F1A1A"/>
<path d="M337.647 172.312C337.641 172.794 337.744 173.27 337.947 173.706C338.055 173.753 338.171 173.776 338.289 173.775H341.233C341.457 173.321 341.573 172.82 341.57 172.312C341.57 170.866 340.691 169.694 339.605 169.694C338.519 169.694 337.647 170.866 337.647 172.312Z" fill="#1F1A1A"/>
<path d="M243.034 91.9655H219.208C218.187 91.9655 217.36 92.7928 217.36 93.8135V125.411C217.36 126.432 218.187 127.259 219.208 127.259H243.034C244.054 127.259 244.882 126.432 244.882 125.411V93.8135C244.882 92.7928 244.054 91.9655 243.034 91.9655Z" fill="#D6D6D6"/>
<path d="M242.234 91.9655H218.408C217.387 91.9655 216.56 92.7928 216.56 93.8135V125.411C216.56 126.432 217.387 127.259 218.408 127.259H242.234C243.255 127.259 244.082 126.432 244.082 125.411V93.8135C244.082 92.7928 243.255 91.9655 242.234 91.9655Z" fill="white"/>
<path d="M239.939 95.8104H220.47C219.954 95.8104 219.535 96.229 219.535 96.7454C219.535 97.2618 219.954 97.6804 220.47 97.6804H239.939C240.456 97.6804 240.874 97.2618 240.874 96.7454C240.874 96.229 240.456 95.8104 239.939 95.8104Z" fill="#E3E3E3"/>
<path d="M239.939 100.429H220.47C219.954 100.429 219.535 100.848 219.535 101.364C219.535 101.881 219.954 102.299 220.47 102.299H239.939C240.456 102.299 240.874 101.881 240.874 101.364C240.874 100.848 240.456 100.429 239.939 100.429Z" fill="#E3E3E3"/>
<path d="M239.939 105.047H220.47C219.954 105.047 219.535 105.466 219.535 105.982C219.535 106.499 219.954 106.917 220.47 106.917H239.939C240.456 106.917 240.874 106.499 240.874 105.982C240.874 105.466 240.456 105.047 239.939 105.047Z" fill="#E3E3E3"/>
<path d="M239.939 109.665H220.47C219.954 109.665 219.535 110.084 219.535 110.6C219.535 111.117 219.954 111.535 220.47 111.535H239.939C240.456 111.535 240.874 111.117 240.874 110.6C240.874 110.084 240.456 109.665 239.939 109.665Z" fill="#E3E3E3"/>
<path d="M239.939 114.284H220.47C219.954 114.284 219.535 114.703 219.535 115.219C219.535 115.736 219.954 116.154 220.47 116.154H239.939C240.456 116.154 240.874 115.736 240.874 115.219C240.874 114.703 240.456 114.284 239.939 114.284Z" fill="#E3E3E3"/>
<path d="M435.1 266.357C435.1 266.357 442.452 258.38 435.485 248.426C428.518 238.472 418.751 237.226 415.952 233.286C415.952 233.286 410.723 246.762 416.263 254.946C424.165 266.621 435.1 266.357 435.1 266.357Z" fill="#06628D"/>
<path d="M448.3 280.276C448.3 280.276 450.976 267.839 465.622 264.976C480.268 262.113 492.562 275.855 495.202 275.932C491.757 278.326 487.547 279.356 483.387 278.824C476.357 277.946 471.064 286.824 464.028 287.098C461.069 287.164 458.131 286.588 455.416 285.41C452.701 284.233 450.274 282.481 448.3 280.276V280.276Z" fill="#06628D"/>
<path d="M458.774 251.057C458.774 251.057 460.308 244.074 472.455 246.322C479.824 247.728 486.666 251.131 492.234 256.159C486.634 256.154 481.058 256.886 475.65 258.337C466.995 260.72 460.072 254.893 458.594 251.691" fill="#06628D"/>
<path d="M454.325 230.796C454.325 230.796 458.899 224.427 468.655 223.182C478.411 221.937 483.867 223.8 483.867 223.8C481.027 227.287 478.512 231.024 476.351 234.967C473.014 241.166 454.7 241.042 454.325 230.796Z" fill="#06628D"/>
<path d="M418.356 238.022L418.785 237.649C436.998 256.273 437.185 272.242 436.385 278.365C438.697 274.854 440.582 271.079 442 267.121C444.945 259.491 447.231 251.623 448.832 243.602C449.335 240.751 450.039 237.938 450.938 235.185C451.558 233.352 452.879 230.931 453.586 229.12C455.786 223.472 459.352 220.699 457.328 215.275L457.899 215.754C459.655 219.542 457.028 223.86 454.706 229.809C454.449 230.467 454.192 231.136 453.936 231.809C455.181 231.992 464.949 233.283 469.495 229.553L469.895 229.982C464.873 234.102 454.258 232.428 453.732 232.342C453.36 233.322 452.999 234.303 452.672 235.269C451.744 238.114 451.006 241.017 450.465 243.959C449.832 247.036 449.1 250.583 447.575 255.74C464.589 245.245 483.213 251.873 483.406 251.94L483.206 252.461C483.019 252.394 464.243 245.72 447.318 256.592C446.389 259.664 445.19 263.28 443.574 267.685C441.737 272.919 439.067 277.822 435.669 282.206C438.726 282.571 447.688 282.806 456.726 275.046C468.056 265.317 485.879 272.281 486.054 272.355L485.84 272.869C485.664 272.8 468.193 265.969 457.134 275.469C447.58 283.669 438.051 283.107 435.256 282.717C429.474 289.734 424 291.43 423.656 291.528L423.116 290.028C423.201 290.003 429.477 288.057 435.607 279.494C436.509 274.713 437.837 257.942 418.356 238.022Z" fill="#273137"/>
<path d="M61.9262 287.729C60.8056 287.731 59.7307 288.174 58.9348 288.963C58.1388 289.751 57.686 290.822 57.6745 291.943C57.6631 293.063 58.0939 294.143 58.8736 294.948C59.6533 295.753 60.7188 296.218 61.8392 296.242L423.62 296.704C424.749 296.739 425.846 296.323 426.669 295.549C427.492 294.775 427.974 293.706 428.008 292.576C427.875 290.012 426.505 288.551 423.897 288.192L62.1972 287.729" fill="#536873"/>
</svg>
