<svg xmlns="http://www.w3.org/2000/svg" width="25" height="25" xmlns:v="https://vecta.io/nano"><path d="M12.5 0C5.605 0 0 5.605 0 12.5S5.605 25 12.5 25 25 19.395 25 12.5 19.395 0 12.5 0zm0 23.438c-6.03 0-10.937-4.907-10.937-10.937S6.47 1.563 12.5 1.563 23.438 6.47 23.438 12.5 18.53 23.438 12.5 23.438zm7.168-15.166l-8.105 9.473a.78.78 0 0 1-.542.274h-.054c-.19 0-.376-.068-.518-.195l-5.044-4.468c-.322-.288-.352-.781-.068-1.104s.781-.352 1.104-.068l4.448 3.94 7.588-8.872c.278-.327.771-.366 1.104-.088a.79.79 0 0 1 .088 1.108z" fill="#38ae9b"/></svg>