<svg width="11" height="11" viewBox="0 0 11 11" fill="none" xmlns="http://www.w3.org/2000/svg">
<path d="M1.30078 2.5H2.30078H10.3008" stroke="#03658C" stroke-linecap="round" stroke-linejoin="round"/>
<path d="M3.80078 2.5V1.5C3.80078 1.23478 3.90614 0.98043 4.09367 0.792893C4.28121 0.605357 4.53556 0.5 4.80078 0.5H6.80078C7.066 0.5 7.32035 0.605357 7.50789 0.792893C7.69542 0.98043 7.80078 1.23478 7.80078 1.5V2.5M9.30078 2.5V9.5C9.30078 9.76522 9.19542 10.0196 9.00789 10.2071C8.82035 10.3946 8.566 10.5 8.30078 10.5H3.30078C3.03556 10.5 2.78121 10.3946 2.59367 10.2071C2.40614 10.0196 2.30078 9.76522 2.30078 9.5V2.5H9.30078Z" stroke="#03658C" stroke-linecap="round" stroke-linejoin="round"/>
</svg>
