<svg width="17" height="18" viewBox="0 0 17 18" fill="none" xmlns="http://www.w3.org/2000/svg">
<path d="M13.8 15.4C13.8 15.8243 13.6314 16.2313 13.3314 16.5314C13.0313 16.8314 12.6243 17 12.2 17H2.6C2.17565 17 1.76869 16.8314 1.46863 16.5314C1.16857 16.2313 1 15.8243 1 15.4V9V2.6C1 2.17565 1.16857 1.76869 1.46863 1.46863C1.76869 1.16857 2.17565 1 2.6 1H8.2L13.8 6.6V9" stroke="black" stroke-width="0.7" stroke-linecap="round" stroke-linejoin="round"/>
<path d="M8.19995 1V6.6H13.8" stroke="black" stroke-width="0.7" stroke-linecap="round" stroke-linejoin="round"/>
<path d="M7.79515 12.2692C7.79515 12.566 7.74568 12.8385 7.64675 13.0868C7.54782 13.3351 7.40875 13.5488 7.22955 13.728C7.05035 13.9072 6.83475 14.0463 6.58275 14.1452C6.33075 14.2441 6.05168 14.2936 5.74555 14.2936H4.19995V10.2448H5.74555C6.05168 10.2448 6.33075 10.2952 6.58275 10.396C6.83475 10.4949 7.05035 10.634 7.22955 10.8132C7.40875 10.9905 7.54782 11.2033 7.64675 11.4516C7.74568 11.6999 7.79515 11.9724 7.79515 12.2692ZM7.02515 12.2692C7.02515 12.0471 6.99528 11.8483 6.93555 11.6728C6.87582 11.4955 6.79088 11.3461 6.68075 11.2248C6.57062 11.1016 6.43622 11.0073 6.27755 10.942C6.12075 10.8767 5.94342 10.844 5.74555 10.844H4.95875V13.6944H5.74555C5.94342 13.6944 6.12075 13.6617 6.27755 13.5964C6.43622 13.5311 6.57062 13.4377 6.68075 13.3164C6.79088 13.1932 6.87582 13.0439 6.93555 12.8684C6.99528 12.6911 7.02515 12.4913 7.02515 12.2692Z" fill="black"/>
<path d="M12.4351 12.2692C12.4351 12.566 12.3857 12.8413 12.2867 13.0952C12.1878 13.3472 12.0487 13.5656 11.8695 13.7504C11.6903 13.9352 11.4747 14.0799 11.2227 14.1844C10.9707 14.2871 10.6917 14.3384 10.3855 14.3384C10.0794 14.3384 9.79941 14.2871 9.54554 14.1844C9.29354 14.0799 9.07701 13.9352 8.89594 13.7504C8.71674 13.5656 8.57768 13.3472 8.47874 13.0952C8.37981 12.8413 8.33034 12.566 8.33034 12.2692C8.33034 11.9724 8.37981 11.698 8.47874 11.446C8.57768 11.1921 8.71674 10.9728 8.89594 10.788C9.07701 10.6032 9.29354 10.4595 9.54554 10.3568C9.79941 10.2523 10.0794 10.2 10.3855 10.2C10.6917 10.2 10.9707 10.2523 11.2227 10.3568C11.4747 10.4613 11.6903 10.606 11.8695 10.7908C12.0487 10.9737 12.1878 11.1921 12.2867 11.446C12.3857 11.698 12.4351 11.9724 12.4351 12.2692ZM11.6623 12.2692C11.6623 12.0471 11.6325 11.8483 11.5727 11.6728C11.5149 11.4955 11.4309 11.3452 11.3207 11.222C11.2106 11.0988 11.0762 11.0045 10.9175 10.9392C10.7607 10.8739 10.5834 10.8412 10.3855 10.8412C10.1877 10.8412 10.0094 10.8739 9.85074 10.9392C9.69208 11.0045 9.55674 11.0988 9.44474 11.222C9.33461 11.3452 9.24968 11.4955 9.18994 11.6728C9.13021 11.8483 9.10034 12.0471 9.10034 12.2692C9.10034 12.4913 9.13021 12.6911 9.18994 12.8684C9.24968 13.0439 9.33461 13.1932 9.44474 13.3164C9.55674 13.4377 9.69208 13.5311 9.85074 13.5964C10.0094 13.6617 10.1877 13.6944 10.3855 13.6944C10.5834 13.6944 10.7607 13.6617 10.9175 13.5964C11.0762 13.5311 11.2106 13.4377 11.3207 13.3164C11.4309 13.1932 11.5149 13.0439 11.5727 12.8684C11.6325 12.6911 11.6623 12.4913 11.6623 12.2692Z" fill="black"/>
<path d="M15.9817 13.3388C16.0227 13.3388 16.0582 13.3547 16.0881 13.3864L16.3849 13.7084C16.2206 13.9119 16.0181 14.0677 15.7773 14.176C15.5383 14.2843 15.2509 14.3384 14.9149 14.3384C14.6143 14.3384 14.3437 14.2871 14.1029 14.1844C13.8639 14.0817 13.6595 13.9389 13.4897 13.756C13.3198 13.5731 13.1891 13.3547 13.0977 13.1008C13.0081 12.8469 12.9633 12.5697 12.9633 12.2692C12.9633 11.9649 13.0137 11.6868 13.1145 11.4348C13.2153 11.1809 13.3571 10.9625 13.5401 10.7796C13.723 10.5967 13.9414 10.4548 14.1953 10.354C14.451 10.2513 14.7329 10.2 15.0409 10.2C15.3414 10.2 15.6037 10.2485 15.8277 10.3456C16.0535 10.4408 16.2467 10.5677 16.4073 10.7264L16.1553 11.0764C16.1403 11.0988 16.1207 11.1184 16.0965 11.1352C16.0741 11.152 16.0423 11.1604 16.0013 11.1604C15.9583 11.1604 15.9145 11.1436 15.8697 11.11C15.8249 11.0764 15.7679 11.04 15.6989 11.0008C15.6298 10.9616 15.5421 10.9252 15.4357 10.8916C15.3311 10.858 15.1977 10.8412 15.0353 10.8412C14.8449 10.8412 14.6694 10.8748 14.5089 10.942C14.3502 11.0073 14.213 11.1016 14.0973 11.2248C13.9834 11.348 13.8938 11.4983 13.8285 11.6756C13.765 11.8511 13.7333 12.0489 13.7333 12.2692C13.7333 12.4969 13.765 12.6995 13.8285 12.8768C13.8938 13.0541 13.9815 13.2035 14.0917 13.3248C14.2018 13.4461 14.3315 13.5395 14.4809 13.6048C14.6302 13.6683 14.7907 13.7 14.9625 13.7C15.0651 13.7 15.1575 13.6944 15.2397 13.6832C15.3237 13.672 15.4002 13.6543 15.4693 13.63C15.5402 13.6057 15.6065 13.5749 15.6681 13.5376C15.7315 13.4984 15.7941 13.4508 15.8557 13.3948C15.8743 13.378 15.8939 13.3649 15.9145 13.3556C15.935 13.3444 15.9574 13.3388 15.9817 13.3388Z" fill="black"/>
</svg>
