<svg width="18" height="18" viewBox="0 0 18 18" fill="none" xmlns="http://www.w3.org/2000/svg">
<path d="M8.15667 2.68652H2.59037C2.16858 2.68652 1.76406 2.85408 1.46581 3.15233C1.16756 3.45058 1 3.8551 1 4.27689V15.4095C1 15.8313 1.16756 16.2358 1.46581 16.5341C1.76406 16.8323 2.16858 16.9999 2.59037 16.9999H13.723C14.1448 16.9999 14.5493 16.8323 14.8475 16.5341C15.1458 16.2358 15.3133 15.8313 15.3133 15.4095V9.84319" stroke="black" stroke-linecap="round" stroke-linejoin="round"/>
<path d="M14.1206 1.49406C14.4369 1.17772 14.866 1 15.3133 1C15.7607 1 16.1898 1.17772 16.5061 1.49406C16.8225 1.81041 17.0002 2.23946 17.0002 2.68684C17.0002 3.13422 16.8225 3.56328 16.5061 3.87962L8.95186 11.4339L5.77112 12.2291L6.5663 9.04833L14.1206 1.49406Z" stroke="black" stroke-linecap="round" stroke-linejoin="round"/>
</svg>
