<svg width="485" height="365" viewBox="0 0 485 365" fill="none" xmlns="http://www.w3.org/2000/svg">
<path d="M46.9707 322.607C46.9707 322.607 83.8337 364.579 234.34 364.579C384.846 364.579 424.679 320.931 424.679 320.931L46.9707 322.607Z" fill="#90C0D4"/>
<path d="M428.177 322.17H46.9706C46.9706 322.17 -17.4204 277.057 10.2996 221.528C38.0196 165.999 41.5996 139.37 29.9746 105.898C18.3496 72.4264 78.2676 11.5684 158.756 56.4514C239.244 101.334 276.809 13.0894 374.29 26.0224C471.771 38.9554 535.723 183.185 428.177 322.17Z" fill="#D4F2FF"/>
<path d="M214.542 98.0255C228.541 98.0255 239.89 86.6768 239.89 72.6775C239.89 58.6782 228.541 47.3295 214.542 47.3295C200.543 47.3295 189.194 58.6782 189.194 72.6775C189.194 86.6768 200.543 98.0255 214.542 98.0255Z" fill="#024661"/>
<path d="M216.173 98.0255C230.172 98.0255 241.521 86.6768 241.521 72.6775C241.521 58.6782 230.172 47.3295 216.173 47.3295C202.173 47.3295 190.825 58.6782 190.825 72.6775C190.825 86.6768 202.173 98.0255 216.173 98.0255Z" fill="#03658C"/>
<path d="M216.173 94.9774C228.489 94.9774 238.473 84.9934 238.473 72.6774C238.473 60.3615 228.489 50.3774 216.173 50.3774C203.857 50.3774 193.873 60.3615 193.873 72.6774C193.873 84.9934 203.857 94.9774 216.173 94.9774Z" fill="#9ED2E8"/>
<path d="M423.368 221.79H302.012V321.827H423.368V221.79Z" fill="#035A7D"/>
<path d="M429.683 218.63H294.458V229.171H429.683V218.63Z" fill="#03658C"/>
<path d="M361.92 236.399H309.215V309.884H361.92V236.399Z" fill="#023E57"/>
<path d="M354.232 268.732H353.947C352.279 268.732 350.927 270.085 350.927 271.752V274.53C350.927 276.198 352.279 277.55 353.947 277.55H354.232C355.9 277.55 357.252 276.198 357.252 274.53V271.752C357.252 270.085 355.9 268.732 354.232 268.732Z" fill="#035A7D"/>
<path d="M417.034 236.399H364.329V309.884H417.034V236.399Z" fill="#023E57"/>
<path d="M372.302 268.732H372.017C370.349 268.732 368.997 270.085 368.997 271.752V274.53C368.997 276.198 370.349 277.55 372.017 277.55H372.302C373.97 277.55 375.322 276.198 375.322 274.53V271.752C375.322 270.085 373.97 268.732 372.302 268.732Z" fill="#035A7D"/>
<path d="M142.155 205.535H116.029V211.488H142.155V205.535Z" fill="#1B4970"/>
<path d="M254.887 190.902C254.887 190.902 264.827 190.488 265.241 190.488C265.558 190.488 271.214 193.888 273.849 195.479C274.246 195.719 274.567 196.069 274.771 196.486C274.975 196.903 275.054 197.37 275 197.831L274.709 200.307C274.667 200.669 274.544 201.017 274.348 201.324C274.153 201.632 273.891 201.891 273.582 202.083C273.273 202.276 272.924 202.396 272.562 202.434C272.2 202.473 271.834 202.43 271.491 202.307L262.758 199.188H261.2C261.112 199.188 261.026 199.213 260.951 199.258C260.876 199.304 260.815 199.37 260.775 199.448C260.734 199.526 260.717 199.614 260.723 199.701C260.729 199.789 260.76 199.873 260.811 199.944L262.341 202.087L264.756 203.239C265.007 203.359 265.209 203.56 265.332 203.81C265.454 204.059 265.489 204.343 265.43 204.614V204.614C265.364 204.918 265.186 205.185 264.932 205.363C264.677 205.54 264.365 205.616 264.058 205.573C262.469 205.355 259.734 204.986 259.442 204.986C259.028 204.986 252.401 200.016 252.401 200.016L254.887 190.902Z" fill="#824B45"/>
<path d="M202.831 309.506L201.269 321.217L211.732 321.53L213.762 312.785L202.831 309.506Z" fill="#824B45"/>
<path d="M264.927 308.799L270.055 323.279L279.808 320.208L273.675 302.162L264.927 308.799Z" fill="#824B45"/>
<path d="M159.396 250.729L158.29 256.526L145.315 334.056H142.83L151.705 256.526L152.356 251.557L159.396 250.729Z" fill="#111517"/>
<path d="M197.497 250.729L196.391 256.526L183.416 334.056H180.931L189.806 256.526L190.456 251.557L197.497 250.729Z" fill="#111517"/>
<path d="M152.356 251.557L159.396 250.729L158.29 256.526H151.705L152.356 251.557Z" fill="#111517"/>
<path d="M197.497 250.729L196.391 256.526H189.806L190.456 251.557L197.497 250.729Z" fill="#111517"/>
<path d="M152.503 251.409H146.706L150.815 174.113H156.613L152.503 251.409Z" fill="#111517"/>
<path d="M156.497 174.113H197.911L201.224 251.143L152.356 251.557L156.497 174.113Z" fill="#323E45"/>
<path d="M146.558 251.557L147.34 244.318H236.426V251.557H146.558Z" fill="#111517"/>
<path d="M183.967 217.403L184.717 228.392L185.939 246.168L236.839 251.402L253.304 289.302L264.71 314.602L267.11 313.759L277.179 310.111L274.729 303.135L257.877 244.081C255.067 234.602 246.951 233.23 246.951 233.23L209.029 217.424L205.967 216.696L183.967 217.403Z" fill="#042440"/>
<path d="M184.717 228.392L186.201 245.776L236.711 252.056L264.58 314.603L266.844 313.671L242.094 248.41C242.283 245.473 241.829 242.531 240.765 239.789C238.945 234.61 197.389 218.517 197.389 218.517L180.989 218.417C180.989 218.417 185.369 227.447 184.717 228.392Z" fill="#00172B"/>
<path d="M237.284 246.705C237.274 248.328 236.934 249.931 236.284 251.417L216.852 305.417L213.762 314.641L201.789 309.807L213.883 252.474L178.9 247.033C178.9 247.033 168.884 243.3 167.364 234.94L166.441 213.096L174.178 213.944L192.465 215.934L194.33 220.623L231.141 235.557C233.744 237.375 235.699 239.976 236.72 242.981C237.104 244.185 237.295 245.442 237.284 246.705V246.705Z" fill="#042440"/>
<path d="M216.857 305.414L213.767 314.638L201.794 309.804L213.888 252.471L178.9 247.033C178.9 247.033 168.884 243.3 167.364 234.94L166.441 213.096L174.178 213.944C172.716 218.844 167.899 238.007 181.53 239.918C197.167 242.105 216.498 243.838 217.769 248.702C218.952 253.23 202.2 295.721 216.857 305.414Z" fill="#00172B"/>
<path d="M200.809 310.12L201.517 302.151L218.266 308.625L214.079 314.773L200.809 310.12Z" fill="#3E6080"/>
<path d="M264.665 314.742L260.087 308.182L277.033 301.365L277.823 309.783L264.665 314.742Z" fill="#3E6080"/>
<path d="M199.805 319.527L198.359 334.792L229.019 334.131L229.119 332.691C229.189 331.7 228.98 330.708 228.515 329.829C228.05 328.95 227.348 328.219 226.489 327.718L212.549 319.596L199.805 319.527Z" fill="#EDECEA"/>
<path d="M266.95 318.621L265.505 333.885L296.164 333.224L296.264 331.785C296.334 330.794 296.125 329.802 295.66 328.923C295.195 328.044 294.493 327.313 293.634 326.812L279.694 318.69L266.95 318.621Z" fill="#EDECEA"/>
<path d="M148.214 217.391L146.052 227.259L140.524 252.484L137.032 268.422L118.81 347.324H115.911L133.541 252.484L137.032 232.854L138.043 227.181L139.931 216.562L148.214 217.391Z" fill="#37474F"/>
<path d="M148.213 217.391L146.051 227.259C143.732 227.23 140.912 227.201 138.042 227.181L139.93 216.562L148.213 217.391Z" fill="#1A2226"/>
<path d="M351.557 346.703H348.658L331.355 271.999L330.436 267.799L326.944 251.863L325.942 247.291L321.395 226.534L319.254 216.769L327.537 215.941L329.425 226.543L329.79 228.597L330.436 232.233L333.927 251.863L335.033 258.079L351.557 346.703Z" fill="#37474F"/>
<path d="M327.537 215.941L329.425 226.541C326.518 226.524 323.681 226.516 321.395 226.532L319.254 216.767L327.537 215.941Z" fill="#1A2226"/>
<path d="M253.243 194.291C253.158 195.265 252.875 196.211 252.411 197.072C251.947 197.932 251.313 198.689 250.546 199.296C249.78 199.903 248.898 200.346 247.954 200.6C247.01 200.853 246.024 200.911 245.057 200.77L218.824 196.685L209.192 178.647C209.192 178.647 207.202 200.766 210.673 216.393L166.823 216.354C166.823 216.354 163.631 190.295 169.808 163.362C170.247 161.439 171.089 159.63 172.279 158.055C173.468 156.481 174.977 155.176 176.708 154.227L187.735 148.191L188.799 147.607C188.799 147.607 197.126 147.886 200.599 147.984C201.371 148.011 201.899 148.02 202.051 148.02C202.506 148.161 202.943 148.358 203.351 148.605C211.118 152.725 217.205 159.426 220.561 167.552L226.898 182.811L247.389 186.591C249.148 186.916 250.722 187.885 251.805 189.309C252.887 190.733 253.4 192.51 253.243 194.291V194.291Z" fill="#00315C"/>
<path d="M249.542 199.958C248.175 200.71 246.6 200.995 245.057 200.77L218.824 196.685L209.192 178.647C208.907 179.117 209.56 171.906 209.56 171.906C209.56 171.906 217.92 189.772 223.985 192.724C230.05 195.676 249.066 197.312 249.559 197.476C249.887 197.589 249.7 199.024 249.542 199.958Z" fill="#042440"/>
<path d="M255.062 189.852L253.148 198.469L252.576 201.033L249.444 200.031L249.963 197.549L251.749 189.021L255.062 189.852Z" fill="#FFBE01"/>
<path d="M204.021 212.885L191.699 212.628C192.15 199.095 191.874 185.546 190.871 172.042C190.109 160.773 189.255 154.615 188.56 151.248C188.365 150.21 188.09 149.188 187.736 148.192L188.8 147.608C188.8 147.608 197.128 147.885 200.6 147.985C201.345 149.541 201.899 151.182 202.248 152.871C206.343 170.7 204.021 212.885 204.021 212.885Z" fill="#F26835"/>
<path d="M189.421 144.502C189.421 144.502 182.588 143.466 182.588 154.648C182.588 154.648 186.522 149.471 189.109 154.121C189.109 154.121 188.179 149.471 188.8 147.608L189.421 144.502Z" fill="#FFBE01"/>
<path d="M199.982 148.022V144.295C199.982 144.295 206.194 144.709 207.022 155.062C207.022 155.062 204.285 151.062 203.088 156.512C203.088 156.512 201.638 148.436 199.982 148.022Z" fill="#FFBE01"/>
<path d="M202.251 152.871L199.568 157.294C199.438 157.509 199.264 157.693 199.058 157.835C198.852 157.978 198.618 158.075 198.372 158.121C198.125 158.167 197.872 158.16 197.629 158.101C197.385 158.042 197.157 157.933 196.959 157.779C194.933 156.209 191.359 153.435 188.696 151.356C188.506 150.111 188.54 148.842 188.796 147.608C188.796 147.608 197.124 147.885 200.596 147.985C201.344 149.541 201.899 151.182 202.251 152.871V152.871Z" fill="white"/>
<path d="M190.5 137.812C189.631 138.405 189.151 138.936 188.1 138.857C187.498 138.756 186.945 138.462 186.524 138.02C186.103 137.577 185.837 137.011 185.766 136.404C184.966 136.85 184.219 136.421 183.52 135.764C183.171 135.516 182.912 135.162 182.78 134.754C182.648 134.347 182.65 133.908 182.786 133.502C182.369 133.577 181.94 133.503 181.572 133.294C181.204 133.085 180.921 132.754 180.773 132.357C180.587 131.994 180.537 131.576 180.632 131.178C180.728 130.781 180.962 130.431 181.293 130.191C179.901 129.141 179.172 127.027 180.093 125.571C179.746 125.28 179.463 124.92 179.26 124.515C179.058 124.109 178.942 123.667 178.918 123.214C178.894 122.762 178.963 122.309 179.121 121.885C179.28 121.46 179.523 121.073 179.838 120.746C179.052 120.446 178.853 119.118 178.861 118.246C178.869 117.863 178.978 117.487 179.175 117.158C179.372 116.828 179.651 116.555 179.985 116.365C180.185 116.219 180.174 115.548 180.123 115.343C180.047 115.023 180.038 114.69 180.096 114.365C180.155 114.041 180.28 113.732 180.463 113.458C180.646 113.184 180.884 112.951 181.161 112.772C181.438 112.594 181.749 112.475 182.075 112.422C182.058 111.095 183.2 109.675 184.437 109.948C184.717 108.397 186.402 107.077 187.855 107.541C188.202 106.804 188.8 106.212 189.541 105.873C190.283 105.533 191.121 105.467 191.907 105.685C192.4 105.123 193.072 104.747 193.809 104.62C194.547 104.492 195.306 104.621 195.96 104.985C196.932 104.285 198.42 103.8 199.306 104.677C199.458 104.871 199.632 105.046 199.826 105.198C200.289 105.472 200.826 105.14 201.326 104.998C201.905 104.876 202.509 104.979 203.015 105.286C203.521 105.593 203.892 106.08 204.052 106.65C204.774 106.476 205.53 106.496 206.242 106.708C206.606 106.839 206.914 107.092 207.114 107.423C207.315 107.754 207.395 108.144 207.342 108.527C207.642 108.345 207.991 108.26 208.341 108.284C208.692 108.307 209.026 108.438 209.3 108.658C209.58 108.895 209.79 109.205 209.906 109.553C210.023 109.902 210.041 110.275 209.959 110.633C210.258 110.736 210.529 110.906 210.751 111.131C210.974 111.356 211.141 111.629 211.24 111.93C211.338 112.23 211.366 112.549 211.321 112.862C211.276 113.175 211.159 113.473 210.979 113.733C211.26 113.888 211.504 114.104 211.691 114.366C211.878 114.627 212.004 114.927 212.06 115.244C212.116 115.561 212.1 115.886 212.014 116.195C211.927 116.505 211.772 116.792 211.561 117.033C211.833 117.256 212.052 117.537 212.202 117.855C212.351 118.174 212.426 118.522 212.422 118.874C212.419 119.225 212.335 119.572 212.179 119.887C212.023 120.202 211.798 120.478 211.521 120.694C211.759 120.904 211.944 121.168 212.059 121.464C212.174 121.759 212.217 122.079 212.183 122.394C212.149 122.71 212.04 123.013 211.865 123.278C211.689 123.542 211.453 123.761 211.176 123.915C211.336 124.121 211.45 124.359 211.511 124.613C211.571 124.867 211.576 125.131 211.525 125.387C211.475 125.643 211.37 125.885 211.218 126.097C211.065 126.309 210.869 126.486 210.643 126.615C210.794 127.034 210.781 127.494 210.607 127.904C210.432 128.313 210.11 128.642 209.704 128.823C208.897 129.115 208.075 129.366 207.243 129.573C206.307 130.038 205.461 130.664 204.743 131.422C201.868 134.015 198.433 135.907 194.706 136.952C194.485 137.044 194.247 137.09 194.007 137.085C193.768 137.081 193.532 137.027 193.315 136.927" fill="#1F1A1A"/>
<path d="M182.012 128.557C182.012 122.3 189.742 124.357 189.742 124.357C189.742 124.357 192.848 123.77 193.819 118.999C193.819 118.999 195.812 115.019 202.736 115.019C209.66 115.019 209.596 120.009 209.596 120.009C209.773 123.709 210.125 130.765 209.989 133.094C209.773 136.805 208.299 143.558 202.616 144.586L202.352 148.145L202.193 150.265C202.193 150.265 202.078 154.797 193.836 152.888C188.401 151.632 188.736 148.329 188.736 148.329L188.948 135.696C188.948 135.696 182.012 134.79 182.012 128.557Z" fill="#824B45"/>
<path d="M196.075 143.944C196.075 143.944 196.381 147.163 202.352 148.138L202.618 144.579L202.298 144.692C201.267 145.019 200.179 145.121 199.105 144.992C198.032 144.863 196.999 144.506 196.075 143.944Z" fill="#452518"/>
<path d="M198.955 128.211L198.855 128.296C198.756 128.414 198.629 128.505 198.486 128.561C198.378 128.602 198.263 128.624 198.148 128.624H193.967C193.768 128.621 193.574 128.557 193.412 128.441C193.243 128.318 193.113 128.149 193.036 127.954C192.959 127.759 192.939 127.547 192.978 127.341C193.217 126.031 194.46 123.995 196.623 124.49C196.703 124.497 196.764 124.534 196.833 124.542C197.406 124.699 197.926 125.01 198.336 125.44C198.747 125.87 199.033 126.403 199.163 126.983C199.188 127.065 199.206 127.149 199.218 127.233C199.256 127.406 199.252 127.584 199.206 127.755C199.161 127.925 199.074 128.082 198.955 128.211V128.211Z" fill="white"/>
<path d="M209.333 128.211L209.254 128.296C209.166 128.414 209.048 128.507 208.913 128.564C208.818 128.605 208.716 128.625 208.613 128.624H204.9C204.72 128.619 204.547 128.555 204.408 128.441C204.254 128.307 204.138 128.135 204.072 127.942C204.005 127.749 203.989 127.542 204.027 127.341C204.241 126.031 205.343 123.995 207.256 124.49C207.328 124.497 207.39 124.534 207.456 124.542C207.985 124.729 208.456 125.054 208.819 125.483C209.182 125.912 209.424 126.43 209.521 126.983C209.546 127.076 209.554 127.158 209.572 127.233C209.606 127.404 209.602 127.58 209.56 127.749C209.519 127.918 209.441 128.076 209.333 128.211Z" fill="white"/>
<path d="M201.933 133.781C202.084 133.761 205.627 133.258 205.681 130.896C205.713 130.611 205.677 130.323 205.576 130.054C205.475 129.786 205.312 129.545 205.101 129.351C204.889 129.203 204.649 129.099 204.396 129.046C204.143 128.992 203.882 128.991 203.629 129.04L203.279 125.004L202.615 125.069L203.037 129.923L203.426 129.801C203.634 129.729 203.855 129.701 204.074 129.72C204.294 129.74 204.507 129.805 204.699 129.913C204.822 130.039 204.914 130.192 204.969 130.359C205.024 130.526 205.039 130.704 205.015 130.878C204.975 132.636 201.881 133.078 201.85 133.078L201.933 133.781Z" fill="#451A16"/>
<path d="M199.626 138.624C200.395 138.621 201.162 138.538 201.915 138.375L201.772 137.686C202.227 137.596 197.06 138.849 196.293 136.244L195.658 136.453C196.18 138.23 198.06 138.624 199.626 138.624Z" fill="#451A16"/>
<path d="M186.58 130.857L187.004 130.314C186.546 129.727 186.179 129.075 185.915 128.378C185.971 128.093 186.086 127.822 186.251 127.583C186.417 127.344 186.63 127.141 186.878 126.988L186.552 126.372C186.207 126.582 185.912 126.864 185.688 127.2C185.463 127.535 185.315 127.915 185.252 128.313C185.254 128.813 185.375 129.305 185.606 129.747C185.837 130.19 186.171 130.571 186.58 130.857V130.857Z" fill="#451A16"/>
<path d="M198.857 122.938C198.857 122.938 195.705 121.438 193.257 123.094C193.392 122.448 193.726 121.86 194.211 121.412C194.696 120.964 195.309 120.678 195.964 120.594C198.227 120.375 198.857 122.938 198.857 122.938Z" fill="#1F1A1A"/>
<path d="M209.758 123.006C209.758 123.006 206.606 121.506 204.158 123.162C204.293 122.516 204.627 121.928 205.112 121.48C205.597 121.032 206.21 120.746 206.865 120.662C209.127 120.443 209.758 123.006 209.758 123.006Z" fill="#1F1A1A"/>
<path d="M191.116 123.04C190.386 125.367 190.187 127.827 190.536 130.24L188.878 129.378L187.537 123.864L191.116 123.04Z" fill="#1F1A1A"/>
<path d="M193.309 118.382C193.288 118.578 193.311 118.775 193.375 118.96C193.44 119.146 193.544 119.315 193.681 119.456C193.817 119.596 193.983 119.705 194.167 119.775C194.35 119.845 194.547 119.873 194.743 119.858C195.136 119.789 195.502 119.609 195.799 119.341C196.095 119.073 196.31 118.726 196.419 118.341C196.489 118.624 196.662 118.87 196.904 119.032C197.146 119.194 197.44 119.261 197.728 119.218C198.013 119.16 198.282 119.039 198.514 118.864C198.747 118.688 198.938 118.464 199.073 118.205C199.165 118.555 199.369 118.865 199.654 119.089C199.938 119.313 200.287 119.438 200.649 119.447C201.01 119.455 201.365 119.345 201.659 119.135C201.953 118.924 202.171 118.624 202.28 118.278C203.454 120.197 204.72 119.061 205.289 117.989C205.327 118.278 205.442 118.55 205.622 118.779C205.801 119.007 206.039 119.184 206.31 119.289C206.446 119.331 206.589 119.345 206.731 119.329C206.873 119.313 207.01 119.269 207.134 119.199C207.258 119.129 207.366 119.034 207.452 118.92C207.538 118.807 207.6 118.677 207.635 118.538C207.775 118.74 207.954 118.912 208.163 119.042C208.371 119.172 208.605 119.257 208.848 119.294C209.091 119.33 209.338 119.317 209.576 119.254C209.814 119.191 210.036 119.08 210.229 118.927C210.352 118.829 210.455 118.707 210.531 118.568C210.607 118.429 210.654 118.277 210.671 118.119C210.665 117.858 210.602 117.602 210.485 117.368C210.184 116.544 209.765 115.767 209.242 115.061C207.883 113.389 205.608 112.875 203.494 112.701C201.597 112.515 199.683 112.61 197.814 112.984C196.698 113.198 195.636 113.626 194.685 114.246C193.72 114.885 193.005 115.836 192.661 116.94" fill="#1F1A1A"/>
<path d="M198.784 127.281C198.788 127.725 198.685 128.164 198.484 128.562C198.376 128.602 198.262 128.624 198.146 128.625H195.699C195.476 128.212 195.362 127.749 195.366 127.281C195.366 126.023 196.131 125 197.076 125C198.021 125 198.784 126.023 198.784 127.281Z" fill="#1F1A1A"/>
<path d="M209.176 127.351C209.18 127.77 209.09 128.185 208.912 128.564C208.818 128.605 208.715 128.625 208.612 128.624H206.05C205.854 128.229 205.754 127.793 205.756 127.351C205.756 126.093 206.521 125.073 207.467 125.073C208.413 125.073 209.176 126.093 209.176 127.351Z" fill="#1F1A1A"/>
<path d="M190.978 220.79C190.783 221.612 190.534 222.419 190.232 223.207C189.807 224.34 189.25 225.418 188.571 226.418C188.566 226.425 188.562 226.431 188.559 226.438C188.238 226.91 187.887 227.359 187.507 227.784C187.44 227.86 187.371 227.935 187.302 228.008C185.559 229.857 183.303 231.143 180.824 231.699C175.639 232.802 170.352 233.352 165.051 233.34C163.567 233.323 162.085 233.225 160.611 233.048C160.611 233.048 161.795 231.163 163.118 228.461C163.346 227.998 163.576 227.515 163.804 227.009C165.383 223.542 166.904 219.194 166.675 215.709L191.553 215.916C191.559 217.558 191.366 219.195 190.978 220.79Z" fill="#00315C"/>
<path d="M190.978 220.79C190.783 221.612 190.534 222.419 190.232 223.207C189.807 224.34 189.25 225.417 188.571 226.418C188.566 226.425 188.562 226.431 188.559 226.438C188.238 226.91 187.887 227.359 187.507 227.784C187.44 227.86 187.371 227.935 187.302 228.008C185.667 229.489 183.708 230.565 181.582 231.15C176.17 232.493 170.625 233.227 165.051 233.34C163.567 233.323 162.085 233.225 160.611 233.048C160.611 233.048 161.795 231.163 163.118 228.461C163.346 227.998 163.576 227.515 163.804 227.009C170.515 227.357 181.958 226.865 190.978 220.79Z" fill="#FFBE01"/>
<path d="M205.069 214.579C205.069 214.579 205.244 223.302 220.946 222.953L222.488 223.001C222.488 223.001 212.767 219.37 210.834 215.915C210.834 215.915 204.534 214.675 204.803 214.627" fill="#00315C"/>
<path d="M166.437 209.107H113.634V218.632H166.437V209.107Z" fill="#042440"/>
<path d="M206.413 218.367C206.413 218.367 217.03 229.154 226.855 224.493L222.488 223.001C222.488 223.001 215.319 224.773 206.413 218.367Z" fill="#FFBE01"/>
<path d="M192.2 192.339H173.473L179.813 176.292C179.813 176.292 175.8 187.458 180.337 189.028C184.874 190.598 192.2 192.339 192.2 192.339Z" fill="#042440"/>
<path d="M253.148 198.468L252.576 201.032L249.444 200.031L249.963 197.548L253.148 198.468Z" fill="#FFA201"/>
<path d="M222.333 200.142C222.071 200.229 221.443 202.511 221.089 203.877C221.016 204.158 220.845 204.402 220.605 204.565C220.366 204.728 220.076 204.798 219.789 204.762V204.762C219.494 204.726 219.222 204.582 219.028 204.357C218.833 204.133 218.728 203.844 218.735 203.546L218.835 199.518L222.333 200.142Z" fill="#452518"/>
<path d="M201.864 197.396L211.225 194.896L223.331 194.147L225.331 195.52C225.331 195.52 224.331 202.634 225.705 204.256L223.958 204.756C223.958 204.756 221.587 202.135 221.712 199.889L217.468 201.012C217.468 201.012 216.595 204.512 209.855 203.883C206.542 203.635 203.249 203.176 199.995 202.51L200.744 198.641" fill="#824B45"/>
<path d="M173.891 157.547L171.82 158.375C171.82 158.375 155.774 186.682 157.32 200.618C157.32 200.618 157.32 209.318 175.542 208.486C182.551 208.214 189.53 207.407 196.417 206.071C198.259 205.697 199.877 204.608 200.917 203.042C201.957 201.477 202.334 199.562 201.965 197.719V197.719C201.64 196.091 200.754 194.628 199.462 193.585C198.17 192.542 196.553 191.985 194.893 192.01L173.472 192.335L182.172 172.042C182.172 172.042 183 160.442 173.889 157.542" fill="#00315C"/>
<path d="M200.381 194.336L200.235 203.877L203.295 203.931L203.709 194.405L200.381 194.336Z" fill="#FFBE01"/>
<path d="M258.267 205.466H215.424V210.08H258.267V205.466Z" fill="#2C3940"/>
<path d="M335.782 191.58H257.415L268.113 137.757H346.48L335.782 191.58Z" fill="#2C3940"/>
<path d="M338.796 191.58H260.429L271.127 137.757H349.494L338.796 191.58Z" fill="#37474F"/>
<path d="M305.263 208.86H290.457L296.789 177.006H311.594L305.263 208.86Z" fill="#2C3940"/>
<path d="M307.233 208.86H292.428L298.759 177.006H313.565L307.233 208.86Z" fill="#455963"/>
<path d="M320.233 206.605H276.881V210.218H320.233V206.605Z" fill="#455963"/>
<path d="M355.078 209.107H113.634V218.632H355.078V209.107Z" fill="#536873"/>
<path d="M160.825 140.238C162.14 141.453 163.039 143.05 163.395 144.804C163.752 146.558 163.547 148.379 162.81 150.01C160.21 155.81 153.344 152.758 153.344 152.758L160.825 140.238Z" fill="#90A9BD"/>
<path d="M127.254 205.078L112.134 169.727L115.115 168.023L130.874 204.013L127.254 205.078Z" fill="#1B4970"/>
<path d="M113.625 166.319L142.8 139.273L145.994 143.533L115.115 168.023L113.625 166.319Z" fill="#1B4970"/>
<path d="M140.883 136.505L138.328 144.384L153.448 157.162L164.522 136.505H140.883Z" fill="#1B4970"/>
<path d="M113.599 171.738C116.01 171.738 117.964 169.784 117.964 167.373C117.964 164.963 116.01 163.008 113.599 163.008C111.188 163.008 109.234 164.963 109.234 167.373C109.234 169.784 111.188 171.738 113.599 171.738Z" fill="#042440"/>
<path d="M113.599 169.842C114.962 169.842 116.068 168.737 116.068 167.373C116.068 166.01 114.962 164.904 113.599 164.904C112.235 164.904 111.13 166.01 111.13 167.373C111.13 168.737 112.235 169.842 113.599 169.842Z" fill="#1B4970"/>
<path d="M129.032 209.131C131.882 209.131 134.192 206.821 134.192 203.971C134.192 201.122 131.882 198.811 129.032 198.811C126.182 198.811 123.872 201.122 123.872 203.971C123.872 206.821 126.182 209.131 129.032 209.131Z" fill="#042440"/>
<path d="M129.032 206.89C130.644 206.89 131.951 205.583 131.951 203.971C131.951 202.359 130.644 201.052 129.032 201.052C127.42 201.052 126.113 202.359 126.113 203.971C126.113 205.583 127.42 206.89 129.032 206.89Z" fill="#1B4970"/>
<path d="M135.744 72.9774H70.7197V116.539H135.744V72.9774Z" fill="#024661"/>
<path d="M137.437 72.9774H72.4126V116.539H137.437V72.9774Z" fill="#11749C"/>
<path d="M133.295 76.0845H76.8169V113.928H133.295V76.0845Z" fill="#DBEEFF"/>
<path d="M133.806 107.641V114.057H76.3057V105.986C84.7287 103.034 95.2577 99.2384 95.2577 99.2384L110.427 109.124L125.151 104.065L133.806 107.641Z" fill="#11749C"/>
<path opacity="0.65" d="M92.4109 91.8805C88.8149 92.9846 85.1599 93.886 81.4629 94.5805C79.9301 94.8885 78.3777 95.089 76.8169 95.1805V84.0135C76.9709 83.9955 77.1169 83.9785 77.2699 83.9695C77.5906 83.9254 77.9168 83.943 78.2309 84.0215C78.7114 84.2465 79.1321 84.5815 79.4589 84.9995C80.8545 86.4346 82.7173 87.3235 84.7109 87.5055C85.6159 87.5845 86.5449 87.5055 87.4499 87.6365C88.5777 87.8435 89.6306 88.3451 90.5019 89.0904C91.3732 89.8358 92.0318 90.7984 92.4109 91.8805V91.8805Z" fill="white"/>
<path opacity="0.65" d="M133.3 85.5934V95.3644C133.217 95.3542 133.133 95.3486 133.049 95.3474C130.819 95.2474 128.606 95.7664 126.376 95.6964C122.934 95.5964 121.762 94.8664 120.526 92.8144C120.268 92.4198 120.129 91.959 120.126 91.4874C120.188 91.0296 120.399 90.605 120.726 90.2786C121.053 89.9522 121.478 89.742 121.936 89.6804C122.821 89.6106 123.71 89.6193 124.594 89.7064C127.188 89.6804 129.466 87.9424 131.704 86.5064C132.2 86.1874 132.746 85.8734 133.3 85.5934Z" fill="white"/>
<path d="M107.678 96.5374C109.592 96.5374 111.143 94.8607 111.143 92.7924C111.143 90.7241 109.592 89.0474 107.678 89.0474C105.764 89.0474 104.213 90.7241 104.213 92.7924C104.213 94.8607 105.764 96.5374 107.678 96.5374Z" fill="#FFBE01"/>
<path d="M385.072 151.97H352.533V150.057H383.158V124.291H385.072V151.97Z" fill="#61A3BF"/>
<g opacity="0.65">
<path opacity="0.65" d="M227.9 75.2285H216.124C215.935 75.2286 215.749 75.1916 215.575 75.1195C215.401 75.0474 215.242 74.9417 215.109 74.8085C214.976 74.6752 214.87 74.5169 214.798 74.3428C214.726 74.1686 214.689 73.9819 214.689 73.7935V58.4315C214.689 58.0509 214.84 57.6859 215.109 57.4168C215.378 57.1476 215.743 56.9965 216.124 56.9965V56.9965C216.504 56.9967 216.869 57.148 217.138 57.4171C217.407 57.6861 217.559 58.051 217.559 58.4315V70.9235C217.559 71.1119 217.596 71.2984 217.668 71.4725C217.74 71.6466 217.845 71.8048 217.979 71.9381C218.112 72.0714 218.27 72.1771 218.444 72.2492C218.618 72.3213 218.805 72.3585 218.993 72.3585H227.893C228.274 72.3585 228.639 72.5096 228.908 72.7788C229.177 73.0479 229.328 73.4129 229.328 73.7935V73.7935C229.328 74.1729 229.178 74.537 228.91 74.806C228.643 75.075 228.279 75.2269 227.9 75.2285V75.2285Z" fill="white"/>
</g>
<path d="M398.181 172.48C398.181 172.48 402.481 168.452 407.188 171.622C411.895 174.792 412.009 183.502 412.009 183.502C410.435 182.288 408.571 181.507 406.602 181.235C403.816 181.051 394.942 176.102 398.181 172.48Z" fill="#88BDD1"/>
<path d="M393.467 194.989C393.467 194.989 392.937 190.68 395.644 188.84C398.351 187 403.472 186.377 404.6 185.36C404.6 185.36 405.038 190.275 402.253 192.788C399.468 195.301 394.754 195.941 393.467 194.989Z" fill="#88BDD1"/>
<path d="M387.141 187.091C387.141 187.091 386.523 189.066 383.311 188.504C380.099 187.942 376.194 185.096 374.891 185.128C376.809 183.818 379.126 183.219 381.44 183.435C384.963 183.942 387.064 185.657 387.141 187.091Z" fill="#88BDD1"/>
<path d="M389.288 181.718C389.288 181.718 385.85 182.613 383.905 180.853C381.96 179.093 380.719 174.222 380.529 174.095C380.339 173.968 387.645 175.271 389.357 178.644C391.069 182.017 389.288 181.718 389.288 181.718Z" fill="#63AAC6"/>
<path d="M385.269 166.544C385.269 166.544 384.95 167.816 382.038 167.69C379.126 167.564 376.417 169.466 374.6 170.345C372.783 171.224 366.851 170.234 366.79 170.172C366.729 170.11 367.068 168.829 369.574 167.658C372.08 166.487 374.095 162.358 377.874 162.509C381.653 162.66 385.105 164.709 385.269 166.544Z" fill="#63AAC6"/>
<path d="M386.208 195.963C386.002 194.395 385.268 192.944 384.127 191.85C382.986 190.755 381.506 190.081 379.93 189.94C374.118 189.158 371.817 192.234 371.817 192.234C373.581 193.776 375.616 194.977 377.817 195.776C380.834 196.665 384.544 196.637 386.208 195.963Z" fill="#63AAC6"/>
<path d="M409.288 178.757C405.631 174.24 402.04 172.025 398.912 172.351C396.489 172.603 394.383 174.395 392.646 177.67C392.645 176.021 393.171 174.414 394.146 173.084C395.746 170.877 396.26 166.889 396.265 166.849L396.113 166.831C396.113 166.87 395.595 170.82 394.021 172.996C392.982 174.35 392.384 175.991 392.308 177.696C392.263 178.187 392.208 178.744 392.128 179.361C392.058 179.877 392.004 180.381 391.951 180.868C391.731 182.901 391.729 183.641 390.698 184.246C390.598 175.104 390.34 167.017 389.71 164.17L389.11 164.299C389.486 166.663 389.7 169.05 389.752 171.443C386.559 166.831 383.264 164.311 379.952 163.963C378.984 163.86 378.004 163.956 377.074 164.245C376.144 164.534 375.283 165.01 374.543 165.644L374.651 165.751C375.375 165.134 376.217 164.67 377.125 164.388C378.034 164.106 378.99 164.013 379.936 164.113C383.25 164.461 386.555 167.028 389.764 171.73C389.881 174.343 389.964 177.386 390.021 180.587C388.439 179.441 386.796 178.38 385.1 177.408L385.024 177.539C386.749 178.527 388.419 179.609 390.024 180.78C390.078 183.793 390.109 186.938 390.124 189.986C388.034 185.754 379.324 184.533 379.23 184.52L379.21 184.67C379.31 184.683 388.368 185.952 390.126 190.358C390.145 194.106 390.142 197.689 390.132 200.679C388.806 197.346 385.456 195.279 382.809 194.111C380.512 193.088 378.074 192.417 375.576 192.121C375.311 192.11 375.25 192.136 375.226 192.193L375.366 192.252C375.362 192.265 375.353 192.275 375.341 192.28C378.056 192.529 380.704 193.259 383.162 194.436C385.716 195.62 388.981 197.736 390.13 201.111C390.114 205.558 390.081 208.59 390.08 208.697L390.691 208.704C390.691 208.246 390.735 204.745 390.75 199.874C393.072 193.274 402.529 186.896 402.901 186.831L402.874 186.682C400.781 187.943 398.839 189.439 397.086 191.142C394.814 193.242 392.001 196.295 390.752 199.442C390.763 195.318 390.759 190.277 390.704 185.28C391.869 184.672 392.054 182.988 392.284 180.866C392.336 180.38 392.391 179.877 392.46 179.366C392.523 178.899 392.568 178.466 392.606 178.072C394.351 174.634 396.477 172.761 398.925 172.506C402 172.183 405.542 174.382 409.165 178.857C409.365 179.109 409.381 179.122 409.413 179.133L409.446 179.042L409.483 179.001C409.468 178.98 409.384 178.877 409.288 178.757Z" fill="#273137"/>
<path d="M393.265 218.676L385.93 218.582C385.265 218.573 384.625 218.326 384.127 217.886C383.628 217.446 383.304 216.841 383.212 216.182L381.753 205.728L397.771 205.934L396.044 216.347C395.936 217.004 395.597 217.6 395.087 218.027C394.577 218.454 393.931 218.685 393.265 218.676V218.676Z" fill="#4B96B5"/>
<path d="M397.886 202.717L381.72 202.509C380.898 202.499 380.223 203.157 380.212 203.979L380.203 204.713C380.192 205.535 380.85 206.21 381.673 206.221L397.838 206.429C398.661 206.439 399.336 205.781 399.346 204.959L399.356 204.225C399.366 203.403 398.708 202.728 397.886 202.717Z" fill="#2E506E"/>
<path d="M433.869 24.3915V116.957C433.869 117.492 433.764 118.02 433.56 118.514C433.356 119.007 433.056 119.456 432.679 119.833C432.301 120.211 431.853 120.511 431.359 120.715C430.866 120.919 430.337 121.024 429.803 121.023H287.714C287.18 121.023 286.652 120.917 286.16 120.712C285.668 120.508 285.22 120.208 284.844 119.83C284.467 119.453 284.168 119.005 283.965 118.512C283.761 118.019 283.657 117.491 283.658 116.957V24.3915C283.658 23.3159 284.086 22.2846 284.846 21.524C285.607 20.7635 286.638 20.336 287.714 20.3355H429.8C430.333 20.3343 430.862 20.4383 431.355 20.6415C431.849 20.8448 432.297 21.1433 432.675 21.52C433.053 21.8967 433.353 22.3442 433.558 22.8369C433.763 23.3296 433.868 23.8579 433.869 24.3915V24.3915Z" fill="#5AA3B8"/>
<path d="M431.286 24.3915V116.957C431.286 117.491 431.181 118.02 430.977 118.514C430.773 119.007 430.474 119.456 430.096 119.833C429.719 120.211 429.27 120.511 428.777 120.715C428.284 120.919 427.755 121.024 427.221 121.023H285.132C284.598 121.023 284.07 120.917 283.578 120.713C283.085 120.508 282.638 120.208 282.261 119.831C281.885 119.453 281.586 119.005 281.383 118.512C281.179 118.019 281.075 117.491 281.076 116.957V24.3915C281.076 23.3158 281.503 22.2843 282.264 21.5237C283.025 20.7631 284.056 20.3357 285.132 20.3355H427.221C427.754 20.3347 428.282 20.439 428.775 20.6424C429.268 20.8459 429.716 21.1444 430.094 21.5211C430.471 21.8978 430.771 22.3452 430.975 22.8377C431.18 23.3302 431.285 23.8582 431.286 24.3915V24.3915Z" fill="#B8EEFF"/>
<path d="M431.286 24.3915V31.2575H281.076V24.3915C281.076 23.3158 281.503 22.2843 282.264 21.5237C283.025 20.7631 284.056 20.3357 285.132 20.3355H427.221C427.754 20.3347 428.282 20.439 428.775 20.6424C429.268 20.8459 429.716 21.1444 430.094 21.5211C430.471 21.8978 430.771 22.3452 430.975 22.8377C431.18 23.3302 431.285 23.8582 431.286 24.3915V24.3915Z" fill="#7FC6DB"/>
<path d="M373.783 103.533L371.363 104.71C371.2 104.299 371.047 103.916 370.894 103.533H373.783Z" stroke="#023E57" stroke-miterlimit="10"/>
<path d="M406.671 28.4284C408.025 28.4284 409.123 27.3306 409.123 25.9764C409.123 24.6222 408.025 23.5244 406.671 23.5244C405.317 23.5244 404.219 24.6222 404.219 25.9764C404.219 27.3306 405.317 28.4284 406.671 28.4284Z" fill="#5593AD"/>
<path d="M414.405 28.4284C415.759 28.4284 416.857 27.3306 416.857 25.9764C416.857 24.6222 415.759 23.5244 414.405 23.5244C413.05 23.5244 411.953 24.6222 411.953 25.9764C411.953 27.3306 413.05 28.4284 414.405 28.4284Z" fill="#5593AD"/>
<path d="M422.139 28.4284C423.493 28.4284 424.591 27.3306 424.591 25.9764C424.591 24.6222 423.493 23.5244 422.139 23.5244C420.784 23.5244 419.687 24.6222 419.687 25.9764C419.687 27.3306 420.784 28.4284 422.139 28.4284Z" fill="#5593AD"/>
<path d="M387.177 16.1654C387.126 16.3951 387.04 16.6156 386.922 16.8194C386.445 17.7294 385.969 18.6464 385.492 19.5634C385.33 19.9378 385.091 20.2745 384.792 20.5524C384.545 20.7458 384.245 20.8595 383.932 20.8782C383.619 20.897 383.308 20.82 383.039 20.6574C382.841 20.9212 382.586 21.1373 382.293 21.2899C382.001 21.4425 381.677 21.5277 381.347 21.5394C381.21 21.5464 381.072 21.5394 380.935 21.5184C380.542 21.4505 380.174 21.2771 379.871 21.0167C379.568 20.7563 379.341 20.4185 379.214 20.0394C379.195 20.2776 379.096 20.5021 378.932 20.6763C378.769 20.8506 378.551 20.9641 378.314 20.9984C377.84 21.0617 377.357 20.9589 376.949 20.7074C376.287 20.3474 375.726 19.8266 375.317 19.1931C374.908 18.5595 374.665 17.8334 374.61 17.0814C374.196 17.1323 373.777 17.0344 373.428 16.8051C373.079 16.5758 372.822 16.2301 372.704 15.8294C372.501 15.0183 372.499 14.1694 372.699 13.3574L373.709 9.77444C373.524 9.40073 373.43 8.9883 373.434 8.57106C373.439 8.15383 373.543 7.74371 373.737 7.37444C373.83 7.19685 373.945 7.03185 374.079 6.88344C374.434 6.50701 374.891 6.24348 375.394 6.12589C375.897 6.00831 376.424 6.04189 376.908 6.22243C377.165 5.68282 377.583 5.23577 378.103 4.94244C378.368 4.80962 378.672 4.77977 378.957 4.85867C379.242 4.93758 379.488 5.11961 379.646 5.36944C379.76 4.74344 380.577 4.50144 381.196 4.63644C381.795 4.864 382.405 5.06092 383.023 5.22644C383.257 5.22959 383.488 5.27289 383.706 5.35443C384.011 5.50443 384.154 5.85444 384.338 6.13644C384.673 6.68444 385.192 7.10344 385.526 7.65144C385.721 7.90785 385.824 8.22174 385.821 8.54354C385.817 8.86533 385.706 9.17669 385.505 9.42844C385.797 9.5259 386.062 9.68996 386.28 9.90761C386.497 10.1253 386.661 10.3905 386.758 10.6824C386.855 10.9743 386.882 11.2847 386.839 11.5892C386.795 11.8936 386.681 12.1837 386.505 12.4364C386.877 12.7658 387.111 13.2235 387.16 13.7178C387.209 14.2122 387.069 14.7068 386.768 15.1024C386.923 15.2289 387.042 15.3934 387.114 15.5798C387.185 15.7662 387.207 15.968 387.177 16.1654V16.1654Z" fill="#263238"/>
<path d="M381.348 21.5404C381.21 21.5474 381.072 21.5403 380.936 21.5194C380.542 21.4515 380.174 21.2781 379.871 21.0176C379.568 20.7572 379.341 20.4195 379.215 20.0404C379.195 20.2785 379.096 20.5031 378.932 20.6773C378.769 20.8515 378.551 20.9651 378.315 20.9994C377.84 21.0627 377.357 20.9599 376.95 20.7084C376.287 20.3483 375.726 19.8276 375.317 19.194C374.908 18.5604 374.665 17.8343 374.611 17.0824C374.196 17.1333 373.777 17.0353 373.428 16.806C373.079 16.5768 372.823 16.231 372.705 15.8304C372.501 15.0189 372.499 14.1697 372.7 13.3574L373.71 9.77439C373.524 9.40069 373.43 8.98825 373.435 8.57102C373.439 8.15378 373.543 7.74366 373.738 7.37439C374.339 7.75574 374.824 8.2966 375.136 8.93677C375.449 9.57694 375.578 10.2913 375.509 11.0004C375.716 10.8659 375.949 10.7754 376.192 10.7344C376.436 10.6934 376.685 10.7029 376.925 10.7622C377.165 10.8216 377.39 10.9295 377.587 11.0794C377.783 11.2292 377.947 11.4178 378.068 11.6334C378.555 12.556 378.753 13.6037 378.637 14.6404C380.656 14.8534 381.766 17.8894 380.408 19.4754C380.917 20.0563 381.244 20.7746 381.348 21.5404V21.5404Z" fill="#182024"/>
<path d="M338.126 22.0844C337.972 22.6292 338.007 23.2097 338.225 23.732C338.443 24.2544 338.831 24.6879 339.326 24.9624C338.826 25.3545 338.458 25.889 338.27 26.4952C338.081 27.1014 338.082 27.7505 338.271 28.3565C338.46 28.9625 338.829 29.4966 339.328 29.8881C339.828 30.2796 340.435 30.5099 341.069 30.5484C340.676 30.8694 340.394 31.3047 340.26 31.7936C340.127 32.2826 340.149 32.801 340.324 33.2768C340.499 33.7525 340.817 34.162 341.236 34.4484C341.654 34.7347 342.151 34.8836 342.658 34.8744C342.607 35.498 342.725 36.1238 343.002 36.6853C343.278 37.2468 343.701 37.723 344.226 38.0634C344.758 38.3883 345.37 38.5617 345.994 38.5649C346.618 38.568 347.231 38.4009 347.767 38.0814C347.792 39.7174 349.917 40.2894 351.544 40.3814L356.529 40.6494C357.151 40.6649 357.77 40.7355 358.38 40.8604C358.918 41.036 359.47 41.1671 360.03 41.2524C361.78 41.3744 363.207 39.7654 364.946 39.5354C366.428 39.3354 368.16 40.1144 369.309 39.1544C370.032 38.5544 370.332 37.3624 371.258 37.1994C371.871 37.0904 372.491 37.5204 373.1 37.3884C373.87 37.2204 374.174 36.3004 374.734 35.7424C375.301 35.311 375.919 34.9513 376.574 34.6714C378.304 33.6434 378.974 31.5044 379.499 29.5554C379.817 28.3804 379.975 26.8034 378.899 26.2494C379.332 25.885 379.689 25.4379 379.949 24.9342C380.208 24.4305 380.365 23.8802 380.409 23.3154C380.454 22.7506 380.386 22.1826 380.209 21.6444C380.032 21.1062 379.75 20.6085 379.379 20.1804C379.687 19.7653 379.885 19.2792 379.955 18.767C380.025 18.2549 379.965 17.7333 379.78 17.2507C379.595 16.768 379.291 16.3399 378.896 16.0059C378.502 15.672 378.029 15.4431 377.523 15.3404C377.645 14.3028 377.437 13.2531 376.929 12.3404C376.795 12.1221 376.619 11.9324 376.411 11.7822C376.204 11.6321 375.968 11.5244 375.719 11.4654C375.47 11.4064 375.211 11.3972 374.958 11.4384C374.706 11.4796 374.463 11.5703 374.246 11.7054C374.446 10.0054 373.966 7.80542 372.335 7.31642C372.663 5.43542 370.635 3.86542 368.781 3.46642C368.755 2.84186 368.545 2.23886 368.178 1.73296C367.811 1.22705 367.302 0.840741 366.717 0.62242C365.54 0.20973 364.293 0.0396418 363.049 0.12242H355.792C355.27 0.0936295 354.747 0.151065 354.244 0.292418C353.838 0.436932 353.478 0.685845 353.2 1.01401C352.922 1.34217 352.735 1.73797 352.659 2.16142C352.238 2.0135 351.79 1.95823 351.345 1.9994C350.901 2.04056 350.471 2.17718 350.084 2.39992C349.697 2.62266 349.363 2.92627 349.105 3.29C348.846 3.65373 348.669 4.06899 348.586 4.50742C348.152 4.37646 347.695 4.33638 347.245 4.38967C346.794 4.44296 346.36 4.58848 345.968 4.81715C345.577 5.04582 345.237 5.35273 344.969 5.71873C344.701 6.08474 344.512 6.50197 344.413 6.94442C344.06 6.7385 343.651 6.65207 343.246 6.69803C342.84 6.744 342.461 6.91988 342.164 7.19942C341.879 7.493 341.695 7.87015 341.64 8.27559C341.585 8.68104 341.661 9.09346 341.858 9.45242C341.523 9.56852 341.224 9.77117 340.993 10.0398C340.762 10.3084 340.605 10.6335 340.54 10.982C340.475 11.3305 340.503 11.6901 340.622 12.0242C340.74 12.3583 340.945 12.6551 341.216 12.8844C340.476 13.4853 339.913 14.2753 339.587 15.1704C339.26 16.0656 339.182 17.0326 339.362 17.9684C339.579 19.0164 340.219 19.4344 339.856 20.3624C339.605 20.9984 338.407 21.1754 338.126 22.0844Z" fill="#263238"/>
<path d="M342.321 79.1734L339.715 86.5884L336.552 95.5784C336.039 97.0764 335.129 98.4071 333.919 99.4285C332.71 100.45 331.245 101.124 329.683 101.378L327.07 101.789C326.329 101.9 325.571 101.792 324.891 101.478C324.21 101.165 323.636 100.66 323.238 100.025L323.162 99.9144C322.722 99.2294 322.262 98.4584 321.808 97.6364C318.995 92.5085 316.808 87.0611 315.295 81.4114L310.457 61.0844L309.991 60.2114L307.91 56.2894L304.459 51.7004L302.911 41.7174C306.016 36.6744 313.849 38.9004 313.849 38.9004L316.349 48.2584C316.382 46.4226 317.097 44.6647 318.354 43.3264L320.469 44.8164C319.713 46.6799 319.635 48.7494 320.249 50.6644C320.349 51.1184 317.914 55.3644 317.914 55.3644L318.388 57.3504L318.659 58.4894H318.692L327.853 84.0474L329.181 80.5964L330.154 78.0794L330.179 78.0194L331.812 76.2194C332.434 75.5271 333.212 74.9918 334.081 74.6571C334.95 74.3224 335.885 74.1978 336.812 74.2934C337.814 74.4031 338.772 74.7644 339.597 75.3436C340.422 75.9228 341.088 76.7012 341.532 77.6064L342.321 79.1734Z" fill="#A6716B"/>
<path d="M321.808 97.6344C322.265 98.4554 322.722 99.2234 323.162 99.9124L323.238 100.025C323.637 100.659 324.211 101.163 324.892 101.476C325.572 101.789 326.329 101.898 327.07 101.788L329.683 101.378C331.245 101.124 332.71 100.45 333.919 99.4287C335.129 98.4072 336.039 97.0765 336.552 95.5784L342.321 79.1784L341.534 77.6164C341.089 76.7112 340.424 75.9327 339.599 75.3531C338.774 74.7734 337.816 74.4114 336.814 74.3004C335.887 74.2043 334.951 74.3289 334.082 74.664C333.213 74.9991 332.436 75.5352 331.814 76.2284L330.181 78.0284L330.156 78.0894C332.406 77.0774 337.532 75.3324 338.369 80.1744C339.452 86.3964 334.276 96.1744 329.319 97.7394C326.849 98.3667 324.258 98.3305 321.808 97.6344V97.6344Z" fill="#965E58"/>
<path d="M342.321 79.1734L339.715 86.5884C338.853 83.8994 336.349 79.5584 329.184 80.5944L330.157 78.0774L330.182 78.0174L331.815 76.2174C332.437 75.5251 333.215 74.9898 334.084 74.6551C334.953 74.3204 335.888 74.1958 336.815 74.2914C337.817 74.4011 338.775 74.7624 339.6 75.3416C340.425 75.9208 341.091 76.6991 341.535 77.6044L342.321 79.1734Z" fill="#965E58"/>
<path d="M350.217 45.7574L342.01 49.1624C342.01 49.1624 332.824 59.1854 328.291 78.6414C328.291 78.6414 349.791 81.3784 349.42 80.8184C349.049 80.2584 350.217 45.7574 350.217 45.7574Z" fill="#57B2D6"/>
<path d="M349.423 80.8155C349.501 80.9365 348.523 80.9005 346.955 80.7725C341.381 80.3105 328.292 78.6395 328.292 78.6395C328.519 77.6655 328.761 76.7054 329.01 75.7814C333.724 58.2054 342.01 49.1614 342.01 49.1614L350.219 45.7574C350.219 45.7574 349.053 80.2575 349.423 80.8155Z" fill="#E36131"/>
<path d="M347.482 78.0704C347.482 78.0704 347.254 79.3364 346.955 80.7704C341.381 80.3084 328.292 78.6374 328.292 78.6374C328.519 77.6634 328.761 76.7034 329.01 75.7794L347.482 78.0704Z" fill="white"/>
<path d="M339.354 103.533C339.997 101.66 341.012 99.9352 342.338 98.4634L360.323 98.8274L366.846 98.9604L368.77 98.9994H368.875L375.467 99.1424C376.149 99.9839 376.766 100.876 377.312 101.811C377.618 102.318 377.944 102.892 378.279 103.533H373.779L371.359 104.71C371.196 104.299 371.043 103.916 370.89 103.533H339.354Z" fill="#37474F"/>
<path d="M370.894 103.533C370.272 101.983 369.563 100.469 368.77 98.9994H368.875L375.467 99.1424C376.149 99.9839 376.766 100.876 377.313 101.811C377.619 102.318 377.944 102.892 378.279 103.533H373.779L371.359 104.71C371.2 104.299 371.047 103.916 370.894 103.533Z" fill="#2C3940"/>
<path d="M375.467 99.1374L366.85 98.9604L342.335 98.4604C342.335 98.4604 343.359 87.8524 343.359 83.7354C341.862 82.4846 340.456 81.1303 339.15 79.6824C338.087 78.4927 337.294 77.088 336.824 75.564C336.355 74.04 336.219 72.4326 336.427 70.8514C336.91 67.1044 337.827 63.8694 342.47 57.2934L346.224 50.1544L346.551 49.5354C347.292 48.1154 348.393 46.9146 349.743 46.0524C350.459 45.5887 351.255 45.2609 352.09 45.0854C354.665 44.5007 357.272 44.0613 359.897 43.7694C362.591 43.4924 366.324 44.3454 369.751 45.4194C371.216 45.8814 372.624 46.3794 373.868 46.8554C376.677 47.9224 378.674 48.8464 378.674 48.8464C378.674 48.8464 387.868 59.5044 388.87 74.4064C388.927 75.2604 388.956 76.1344 388.956 77.0164H375.247C375.247 77.0164 375.218 77.2164 375.161 77.5784C375.133 77.7554 375.098 77.9784 375.062 78.2324C374.458 82.2864 372.772 95.3334 375.467 99.1374Z" fill="#F26835"/>
<g style="mix-blend-mode:multiply" opacity="0.61">
<path d="M366.851 98.9574C369.38 93.9574 371.563 86.2254 369.93 81.2574C367.443 73.7234 372.612 65.7684 372.612 65.7684L373.855 77.1734L375.065 78.2264C374.456 82.2854 372.772 95.3264 375.471 99.1354L366.851 98.9574Z" fill="#ECD9CE"/>
</g>
<path d="M386.65 76.9874V77.0154L383.5 96.5694C383.357 97.5266 382.916 98.4141 382.238 99.1044C381.872 99.4907 381.437 99.8054 380.956 100.032L377.311 101.811L373.781 103.533L371.361 104.71C371.198 104.299 371.045 103.916 370.892 103.533H353.311L360.323 98.8274L369.258 92.8274L370.339 92.1004C371.35 91.4121 372.054 90.3563 372.3 89.1574L373.563 79.8684L373.917 77.2284L373.974 76.8164L386.65 76.9874Z" fill="#A6716B"/>
<path d="M386.648 76.9904L383.507 96.5714C383.356 97.5275 382.913 98.4133 382.238 99.1064C383.591 95.1844 384.057 87.1364 383.574 83.0434C383.058 78.6764 375.902 79.4814 373.559 79.8674L373.974 76.8104L386.648 76.9904Z" fill="#965E58"/>
<path d="M366.772 31.8924L366.972 43.6824C366.972 43.6824 367.293 46.7654 362.083 47.9384C354.183 49.7184 354.072 45.4894 354.072 45.4894L353.92 43.5114L353.666 40.1894C348.219 39.2304 345.952 32.1234 346.266 29.0414C346.486 26.8754 346.807 20.7014 346.976 17.2514L347.129 14.8794C347.151 15.2055 347.288 15.5131 347.515 15.748C347.742 15.9828 348.046 16.1296 348.371 16.1625C348.696 16.1953 349.022 16.112 349.292 15.9273C349.561 15.7426 349.757 15.4684 349.844 15.1534C349.692 15.7534 350.267 16.3094 350.85 16.5144C351.282 16.7116 351.774 16.7324 352.222 16.5723C352.669 16.4123 353.037 16.0841 353.246 15.6574C353.325 16.0451 353.54 16.3921 353.851 16.6367C354.162 16.8813 354.55 17.0076 354.946 16.9934C355.338 16.9612 355.719 16.8434 356.061 16.6481C356.403 16.4529 356.698 16.185 356.925 15.8634C356.874 16.5314 357.644 17.0194 358.295 16.9334C358.946 16.7804 359.536 16.4343 359.987 15.9404C360.024 16.2217 360.144 16.4854 360.333 16.6975C360.521 16.9097 360.769 17.0604 361.044 17.1304C361.319 17.1914 361.604 17.1972 361.881 17.1472C362.158 17.0972 362.423 16.9926 362.66 16.8394C362.574 17.1298 362.558 17.4364 362.614 17.734C362.67 18.0317 362.796 18.3118 362.981 18.5514C363.169 18.7852 363.412 18.9696 363.687 19.089C363.963 19.2083 364.263 19.2589 364.563 19.2364C364.381 19.7297 364.39 20.2733 364.588 20.7604C364.687 21.0014 364.86 21.2048 365.082 21.3416C365.304 21.4785 365.564 21.5417 365.824 21.5224C366.067 21.4809 366.292 21.3709 366.475 21.2054C368.099 20.9054 373.42 20.2814 373.42 25.2304C373.421 31.0574 366.772 31.8924 366.772 31.8924Z" fill="#A6716B"/>
<path d="M359.917 39.5854C359.917 39.5854 359.623 42.5855 353.9 43.4995L353.644 40.1785L353.951 40.2834C354.939 40.588 355.98 40.6832 357.007 40.563C358.034 40.4428 359.025 40.1099 359.917 39.5854V39.5854Z" fill="#965E58"/>
<path d="M362.773 23.9995C362.615 24.1072 362.43 24.167 362.24 24.1714H358.231C358.102 24.1723 357.975 24.145 357.858 24.0917C357.741 24.0383 357.637 23.9601 357.554 23.8624L357.461 23.7854C357.346 23.6655 357.263 23.5191 357.219 23.3593C357.174 23.1995 357.17 23.0312 357.207 22.8694C357.218 22.7913 357.235 22.7141 357.258 22.6385C357.387 22.0915 357.664 21.5903 358.057 21.1889C358.451 20.7875 358.946 20.501 359.491 20.3605C359.559 20.3525 359.618 20.3184 359.691 20.3094C361.764 19.8474 362.956 21.7474 363.185 22.9725C363.221 23.1651 363.202 23.3643 363.129 23.5463C363.056 23.7284 362.932 23.8856 362.773 23.9995V23.9995Z" fill="white"/>
<path d="M352.233 23.9995C352.097 24.105 351.931 24.1652 351.76 24.1714H348.2C348.081 24.1708 347.964 24.1425 347.859 24.0889C347.753 24.0352 347.661 23.9577 347.591 23.8624L347.514 23.7854C347.409 23.6595 347.335 23.5119 347.296 23.3533C347.256 23.1948 347.253 23.0295 347.286 22.8694C347.303 22.8014 347.311 22.7245 347.337 22.6385C347.432 22.1163 347.666 21.6295 348.014 21.2288C348.363 20.828 348.812 20.5282 349.316 20.3605C349.375 20.3525 349.435 20.3184 349.502 20.3094C351.338 19.8474 352.395 21.7474 352.602 22.9725C352.637 23.161 352.621 23.3555 352.556 23.536C352.491 23.7165 352.38 23.8764 352.233 23.9995V23.9995Z" fill="white"/>
<path d="M354.605 28.9824C354.461 28.9644 351.065 28.4944 351.012 26.2904C350.982 26.023 351.017 25.7523 351.114 25.5013C351.211 25.2503 351.367 25.0263 351.569 24.8484C351.982 24.5683 352.489 24.4636 352.98 24.5574L353.315 20.7914L353.952 20.8524L353.552 25.3824L353.179 25.2684C352.98 25.1998 352.768 25.1733 352.558 25.1905C352.348 25.2077 352.144 25.2683 351.959 25.3684C351.842 25.4846 351.754 25.6265 351.702 25.7828C351.65 25.9391 351.635 26.1054 351.659 26.2684C351.698 27.9094 354.659 28.3204 354.693 28.3244L354.605 28.9824Z" fill="#69423D"/>
<path d="M356.817 33.5034C356.079 33.5007 355.344 33.4226 354.623 33.2704L354.76 32.6274C354.324 32.5434 359.277 33.7124 360.012 31.2814L360.621 31.4814C360.121 33.1354 358.318 33.5034 356.817 33.5034Z" fill="#69423D"/>
<path d="M369.112 27.6815L368.705 27.1745C369.142 26.6286 369.494 26.0193 369.749 25.3675C369.693 25.0986 369.583 24.8442 369.424 24.6204C369.265 24.3967 369.061 24.2083 368.826 24.0675L369.138 23.4915C369.465 23.6841 369.746 23.9462 369.962 24.2592C370.177 24.5723 370.321 24.9287 370.384 25.3035C370.381 25.7734 370.264 26.2356 370.042 26.65C369.82 27.0644 369.501 27.4184 369.112 27.6815V27.6815Z" fill="#69423D"/>
<path d="M357.554 18.8624C357.554 18.8624 360.576 17.4624 362.922 19.0084C362.786 18.3968 362.463 17.8429 361.996 17.4245C361.53 17.0061 360.944 16.7441 360.322 16.6754C358.158 16.4704 357.554 18.8624 357.554 18.8624Z" fill="#263238"/>
<path d="M373.868 46.8574C373.806 47.0084 373.727 47.1517 373.633 47.2844C372.759 48.5284 370.903 48.8194 370.121 50.1284C369.439 51.2514 369.721 52.9154 368.685 53.7284C367.576 54.6284 365.841 53.8074 364.533 54.3834C363.687 54.9178 363.021 55.6926 362.62 56.6084C362.101 57.4544 361.305 58.3144 360.309 58.2434C359.209 58.1654 358.482 56.9564 357.401 56.7154C356.571 56.6435 355.738 56.8111 355.001 57.1984C354.632 57.3844 354.221 57.471 353.808 57.4498C353.396 57.4286 352.996 57.3002 352.648 57.0774C352.086 56.5774 351.965 55.6414 351.283 55.3504C350.5 55.0224 349.697 55.8124 348.851 55.8614C348.646 55.8622 348.444 55.8208 348.256 55.7397C348.068 55.6585 347.899 55.5395 347.76 55.39C347.62 55.2406 347.513 55.0638 347.445 54.871C347.377 54.6782 347.35 54.4734 347.365 54.2694C347.45 53.5934 348.012 52.9394 347.765 52.3064C347.58 51.8304 347.019 51.6244 346.665 51.2544C346.38 50.9594 346.221 50.5646 346.224 50.1544L346.551 49.5354C347.292 48.1154 348.393 46.9146 349.744 46.0524C350.46 45.5887 351.255 45.2609 352.09 45.0854C354.665 44.5007 357.272 44.0613 359.897 43.7694C362.591 43.4924 366.324 44.3454 369.751 45.4194C371.216 45.8834 372.624 46.3814 373.868 46.8574Z" fill="white"/>
<path d="M347.104 18.9264C347.104 18.9264 350.126 17.5264 352.472 19.0724C352.337 18.4606 352.014 17.9065 351.547 17.4879C351.081 17.0693 350.495 16.8072 349.872 16.7384C347.708 16.5344 347.104 18.9264 347.104 18.9264Z" fill="#263238"/>
<path d="M352.022 22.5575C352.021 22.8782 351.941 23.1939 351.789 23.4763C351.637 23.7588 351.418 23.9993 351.151 24.1765H349.051C348.704 23.9489 348.44 23.6157 348.297 23.2264C348.155 22.837 348.141 22.4121 348.259 22.0145C348.377 21.6169 348.619 21.2678 348.951 21.0187C349.282 20.7696 349.685 20.6338 350.1 20.6315C350.352 20.6313 350.603 20.6811 350.836 20.7779C351.07 20.8747 351.282 21.0166 351.46 21.1955C351.639 21.3745 351.78 21.5869 351.877 21.8206C351.973 22.0543 352.022 22.3047 352.022 22.5575V22.5575Z" fill="#263238"/>
<path d="M362.443 22.5575C362.442 22.8782 362.362 23.1939 362.21 23.4763C362.058 23.7588 361.839 23.9993 361.572 24.1765H359.472C359.125 23.9489 358.861 23.6157 358.718 23.2264C358.576 22.837 358.562 22.4121 358.68 22.0145C358.798 21.6169 359.04 21.2678 359.372 21.0187C359.703 20.7696 360.106 20.6338 360.521 20.6315C360.773 20.6313 361.024 20.6811 361.257 20.7779C361.491 20.8747 361.703 21.0166 361.881 21.1955C362.06 21.3745 362.201 21.5869 362.298 21.8206C362.394 22.0543 362.443 22.3047 362.443 22.5575Z" fill="#263238"/>
<path d="M354.463 53.9034L350.04 62.0454C350.04 62.0454 354.95 62.6174 357.981 54.4064L354.865 53.9064L354.463 53.9034Z" fill="white"/>
<path d="M369.751 45.2374C368.194 49.1864 364.18 55.9594 355.759 54.9684C349.136 54.1884 348.826 48.3604 349.744 45.8824C350.458 45.4115 351.253 45.0775 352.09 44.8974C354.665 44.3014 357.273 43.854 359.9 43.5574C362.591 43.2744 366.324 44.1434 369.751 45.2374Z" fill="#A6716B"/>
<path d="M354.878 57.2664C355.357 57.2664 355.746 56.8778 355.746 56.3984C355.746 55.919 355.357 55.5304 354.878 55.5304C354.398 55.5304 354.01 55.919 354.01 56.3984C354.01 56.8778 354.398 57.2664 354.878 57.2664Z" fill="#F26835"/>
<path d="M353.504 59.9414C353.983 59.9414 354.372 59.5528 354.372 59.0734C354.372 58.5941 353.983 58.2054 353.504 58.2054C353.024 58.2054 352.636 58.5941 352.636 59.0734C352.636 59.5528 353.024 59.9414 353.504 59.9414Z" fill="#F26835"/>
<path d="M388.956 77.0184H375.247L373.975 76.8124L373.562 74.6724L388.87 74.4084C388.927 75.2624 388.956 76.1364 388.956 77.0184Z" fill="white"/>
<g style="mix-blend-mode:multiply" opacity="0.26">
<path d="M431.286 98.8274V113.98C431.286 114.514 431.181 115.043 430.977 115.537C430.773 116.03 430.474 116.479 430.096 116.856C429.719 117.234 429.27 117.533 428.777 117.738C428.284 117.942 427.755 118.047 427.221 118.046H285.132C284.598 118.046 284.07 117.94 283.578 117.736C283.085 117.531 282.638 117.231 282.261 116.854C281.885 116.476 281.586 116.028 281.383 115.535C281.179 115.042 281.075 114.514 281.076 113.98V98.8274H431.286Z" fill="#3A7D99"/>
</g>
<path d="M431.286 101.802V116.957C431.286 117.492 431.181 118.02 430.977 118.514C430.773 119.007 430.474 119.456 430.096 119.833C429.719 120.211 429.27 120.511 428.777 120.715C428.284 120.919 427.755 121.024 427.221 121.023H285.132C284.598 121.023 284.07 120.917 283.578 120.713C283.085 120.508 282.638 120.208 282.261 119.831C281.885 119.453 281.586 119.005 281.383 118.512C281.179 118.019 281.075 117.491 281.076 116.957V101.802H431.286Z" fill="#7FC6DB"/>
<path d="M438.075 302.428C438.075 302.428 445.501 296.636 442.745 287.191C439.989 277.746 433.018 275.341 431.896 271.598C431.896 271.598 424.707 282.37 426.833 290.11C429.866 301.157 438.075 302.428 438.075 302.428Z" fill="#06628D"/>
<path d="M444.506 316.111C444.506 316.111 449.539 305.875 461.147 305.448C472.755 305.021 478.555 318.426 480.5 318.857C477.564 320.374 474.15 320.676 470.993 319.699C465.971 317.984 459.858 324.827 454.55 324.094C447.109 323.063 444.506 316.111 444.506 316.111Z" fill="#06628D"/>
<path d="M459.45 292.634C459.45 292.634 462.3 286.892 470.798 290.477C475.994 292.758 480.317 296.653 483.126 301.583C478.876 300.801 474.533 300.659 470.241 301.161C467.723 301.478 465.178 300.827 463.122 299.341C461.065 297.854 459.649 295.642 459.161 293.151" fill="#06628D"/>
<path d="M461.088 274.749C464.552 271.724 469.025 270.11 473.623 270.226C481.194 270.505 484.803 272.843 484.803 272.843C481.81 275.451 479.025 278.29 476.475 281.332C472.474 286.157 458.861 283.537 461.088 274.749Z" fill="#06628D"/>
<path d="M432.53 275.968L432.941 275.71C441.955 294.092 438.191 307.734 436.1 312.845C438.699 310.146 441.02 307.192 443.03 304.029C447.091 297.923 450.712 291.535 453.867 284.914C454.94 282.549 456.151 280.249 457.494 278.026C458.403 276.549 459.979 274.666 460.948 273.219C463.971 268.706 467.302 266.83 467.12 261.927L467.428 262.415C467.81 265.886 464.798 269.207 461.614 273.961C461.262 274.486 460.907 275.021 460.553 275.561C461.436 275.888 468.396 278.331 472.694 275.775L472.886 276.195C468.138 279.018 460.64 276.132 460.269 275.986C459.753 276.771 459.244 277.558 458.769 278.337C457.382 280.633 456.124 283.003 455 285.438C453.777 287.975 452.365 290.899 449.968 295.086C454.372 293.145 459.177 292.285 463.981 292.578C468.785 292.87 473.45 294.308 477.586 296.769L477.311 297.186C473.15 294.713 468.448 293.293 463.614 293.047C458.78 292.802 453.959 293.739 449.569 295.778C448.127 298.269 446.349 301.187 444.069 304.722C441.451 308.9 438.276 312.702 434.632 316.022C436.82 316.754 443.438 318.186 452.067 312.811C462.885 306.072 474.458 314.458 474.567 314.546L474.282 314.955C474.168 314.872 462.824 306.648 452.265 313.225C443.144 318.907 436.184 317.115 434.197 316.398C428.175 321.587 423.684 322.281 423.406 322.318L423.37 320.966C423.44 320.956 428.591 320.159 435.25 313.7C437.083 309.748 442.172 295.63 432.53 275.968Z" fill="#273137"/>
<path d="M60.934 252.457C60.934 252.457 68.962 244.51 78.061 250.418C87.16 256.326 87.751 273.107 87.751 273.107C87.751 273.107 82.67 269.207 77.351 268.971C72.032 268.735 54.915 259.576 60.934 252.457Z" fill="#88BDD1"/>
<path d="M52.8996 296.039C52.8996 296.039 51.7066 287.759 56.7876 284.095C61.8686 280.431 71.6016 279.014 73.7076 277.005C73.7076 277.005 74.7496 286.459 69.5506 291.422C64.3516 296.385 55.3996 297.82 52.8996 296.039Z" fill="#88BDD1"/>
<path d="M40.512 281.09C40.512 281.09 39.419 284.922 33.274 283.977C27.129 283.032 19.566 277.714 17.084 277.832C17.084 277.832 22.757 273.46 29.492 274.287C36.227 275.114 40.305 278.321 40.512 281.09Z" fill="#88BDD1"/>
<path d="M44.3757 270.641C44.3757 270.641 37.8627 272.514 34.0757 269.206C30.2887 265.898 27.7287 256.557 27.3597 256.325C26.9907 256.093 40.9717 258.287 44.3757 264.715C47.7797 271.143 44.3757 270.641 44.3757 270.641Z" fill="#63AAC6"/>
<path d="M36.0738 241.569C36.0738 241.569 35.5188 244.035 29.9648 243.917C24.4108 243.799 19.3298 247.58 15.8998 249.357C12.4698 251.134 1.12777 249.475 1.00977 249.357C0.891767 249.239 1.48276 246.757 6.20976 244.394C10.9368 242.031 14.5998 233.994 21.8098 234.113C29.0198 234.232 35.6838 238.039 36.0738 241.569Z" fill="#63AAC6"/>
<path d="M39.1128 298.228C38.6643 295.232 37.2104 292.478 34.9898 290.418C32.7692 288.357 29.9139 287.113 26.8928 286.889C15.7848 285.631 11.5298 291.657 11.5298 291.657C11.5298 291.657 17.3208 296.643 23.1108 298.227C28.9008 299.811 35.9698 299.599 39.1128 298.228Z" fill="#63AAC6"/>
<path d="M82.3636 264.078C75.2036 255.528 68.2636 251.413 62.3196 252.178C57.7136 252.768 53.7766 256.312 50.6046 262.698C50.8376 259.343 50.9996 257.116 53.2646 253.798C56.2116 249.475 57.0306 241.769 57.0386 241.691L56.7486 241.662C56.7416 241.738 55.9296 249.372 53.0236 253.634C51.0984 256.294 50.029 259.477 49.9576 262.759C49.8916 263.708 49.8176 264.783 49.6846 265.977C49.5736 266.977 49.4916 267.948 49.4116 268.889C49.0786 272.816 49.1056 274.242 47.1666 275.453C46.5866 257.838 45.7556 242.262 44.4346 236.803L43.3016 237.077C44.1166 241.619 44.6261 246.21 44.8266 250.819C38.5476 242.065 32.1626 237.351 25.8356 236.819C23.9827 236.663 22.1174 236.891 20.3563 237.488C18.5952 238.085 16.9759 239.038 15.5996 240.288L15.8086 240.488C17.155 239.27 18.7373 238.341 20.4574 237.759C22.1776 237.177 23.9989 236.954 25.8086 237.104C32.1386 237.633 38.5456 242.438 44.8606 251.364C45.1936 256.394 45.4806 262.255 45.7256 268.421C42.6627 266.282 39.4879 264.308 36.2146 262.506L36.0746 262.762C39.4053 264.593 42.6322 266.607 45.7406 268.793C45.9696 274.599 46.1626 280.658 46.3236 286.531C42.1626 278.466 25.5156 276.485 25.3336 276.465L25.3006 276.754C25.4856 276.775 42.8066 278.832 46.3436 287.254C46.5386 294.477 46.6856 301.382 46.7926 307.145C44.1256 300.779 37.6536 296.93 32.5606 294.8C28.1434 292.928 23.4668 291.74 18.6916 291.276C18.1856 291.266 18.0706 291.318 18.0266 291.429L18.2976 291.537C18.2888 291.56 18.2726 291.58 18.2516 291.592C18.6846 291.407 25.9226 292.179 33.2466 295.412C38.1636 297.583 44.4746 301.522 46.8086 307.977C46.9656 316.55 47.0306 322.395 47.0326 322.6L48.1986 322.588C48.1896 321.704 48.1136 314.956 47.9366 305.568C52.0826 292.752 69.8366 280.049 70.5366 279.908L70.4796 279.623C69.8986 279.739 64.8476 283.371 59.6376 288.466C55.3986 292.612 50.1676 298.616 47.9196 304.739C47.7676 296.79 47.5436 287.075 47.2296 277.446C49.4226 276.224 49.7036 272.971 50.0516 268.871C50.1316 267.931 50.2136 266.96 50.3246 265.971C50.4246 265.071 50.4916 264.233 50.5466 263.471C53.7266 256.771 57.6976 253.071 62.3526 252.471C68.1986 251.716 75.0426 255.802 82.1366 264.271C82.5366 264.749 82.5586 264.771 82.6206 264.794L82.6796 264.617L82.7486 264.536C82.7166 264.499 82.5526 264.304 82.3636 264.078Z" fill="#273137"/>
</svg>
