<svg width="622" height="496" viewBox="0 0 622 496" fill="none" xmlns="http://www.w3.org/2000/svg">
<path d="M620.589 1.39865V68.0387C620.589 68.0387 586.169 83.6287 549.609 69.6287C517.439 57.3087 502.199 73.7087 502.199 73.7087L501.729 61.6787L499.779 11.9487C499.779 11.9487 512.739 -8.79135 548.689 4.56865C584.639 17.9287 611.369 10.2087 620.589 1.39865Z" fill="#62CBFA"/>
<path d="M483.847 168.436H411.313V171.199H483.847V168.436Z" fill="white"/>
<path d="M482.14 165.675H411.308V168.437H482.14V165.675Z" fill="#E0E1E0"/>
<path d="M480.783 162.912H411.308V165.671H480.783V162.912Z" fill="white"/>
<path d="M480.783 160.199H411.308V162.961H480.783V160.199Z" fill="#E0E1E0"/>
<path d="M480.783 157.437H411.308V160.199H480.783V157.437Z" fill="white"/>
<path d="M482.14 154.675H411.308V157.434H482.14V154.675Z" fill="#E0E1E0"/>
<path d="M483.847 151.914H411.313V154.673H483.847V151.914Z" fill="white"/>
<g style="mix-blend-mode:multiply" opacity="0.21">
<path d="M411.312 154.671H413.178C412.816 153.786 412.566 152.859 412.434 151.912H411.312V154.671Z" fill="#1D374F"/>
</g>
<g style="mix-blend-mode:multiply" opacity="0.21">
<path d="M411.308 154.675V157.433H414.694C414.083 156.575 413.574 155.65 413.178 154.675H411.308Z" fill="#1D374F"/>
</g>
<g style="mix-blend-mode:multiply" opacity="0.21">
<path d="M483.847 168.524V171.199H415.821C415.829 170.286 415.878 169.365 415.926 168.436C415.978 167.523 416.026 166.598 416.051 165.673C416.08 164.769 416.062 163.864 415.998 162.962C415.998 162.946 415.998 162.93 415.998 162.914C415.954 162.359 415.89 161.8 415.793 161.241C415.733 160.891 415.685 160.541 415.644 160.199C415.544 159.282 415.507 158.358 415.532 157.436C415.557 156.513 415.634 155.591 415.765 154.677C415.91 153.652 416.095 152.718 416.272 151.918H433.996L434.213 152.035C434.396 152.963 434.729 153.855 435.199 154.677C435.735 155.669 436.385 156.595 437.137 157.436V157.436C438.053 158.463 439.077 159.389 440.19 160.199C441.655 161.262 443.224 162.172 444.875 162.914C444.908 162.933 444.943 162.949 444.98 162.962C447.697 164.166 450.535 165.075 453.446 165.673C455.002 166.007 456.687 166.3 458.505 166.534C467.775 167.734 474.375 168.247 478.94 168.434C480.951 168.516 482.572 168.539 483.847 168.524Z" fill="#1D374F"/>
</g>
<path d="M433.562 156.081V167.032C433.615 168.182 434.12 169.264 434.966 170.044C435.812 170.824 436.932 171.239 438.082 171.199H486.61C486.94 171.196 487.259 171.313 487.508 171.53C487.757 171.746 487.918 172.046 487.961 172.373C487.961 172.418 487.969 172.462 487.969 172.506V172.759C487.969 172.804 487.969 172.848 487.961 172.888C487.916 173.21 487.752 173.503 487.503 173.712C487.253 173.92 486.935 174.027 486.61 174.014H413.774C409.656 174.014 406.241 170.901 406.241 167.032V156.081C406.241 152.212 409.656 149.099 413.774 149.099H486.61C486.934 149.085 487.252 149.192 487.502 149.4C487.751 149.607 487.915 149.9 487.961 150.221C487.961 150.265 487.969 150.309 487.969 150.354V150.607C487.969 150.651 487.969 150.695 487.961 150.736C487.919 151.063 487.758 151.363 487.509 151.58C487.26 151.796 486.94 151.914 486.61 151.91H438.082C436.931 151.87 435.811 152.286 434.965 153.067C434.119 153.848 433.615 154.931 433.562 156.081V156.081Z" fill="#03658C"/>
<path d="M487.969 172.699V172.759C487.969 172.804 487.969 172.848 487.961 172.888C487.916 173.21 487.752 173.504 487.503 173.712C487.253 173.92 486.935 174.028 486.61 174.014H413.774C409.656 174.014 406.241 170.901 406.241 167.032V163.119C409.415 166.103 416.762 170.604 432.226 170.604C432.226 170.604 454.226 174.722 466.01 173.584C474.146 172.799 483.167 172.691 487.969 172.699Z" fill="#004B69"/>
<path d="M433.562 156.081V167.032C433.615 168.181 434.12 169.264 434.966 170.044C435.812 170.824 436.932 171.239 438.082 171.199H487.012C487.512 171.199 487.912 171.73 487.961 172.373C487.961 172.418 487.961 172.462 487.961 172.506V172.759C487.961 172.804 487.961 172.848 487.961 172.888C487.973 173.16 487.882 173.427 487.706 173.636C487.531 173.845 487.283 173.979 487.012 174.014H435.822C432.922 174.014 430.522 170.901 430.522 167.032V156.081C430.522 152.212 432.922 149.099 435.822 149.099H487.012C487.282 149.133 487.53 149.267 487.705 149.475C487.881 149.682 487.972 149.949 487.961 150.221C487.961 150.265 487.961 150.309 487.961 150.354V150.607C487.961 150.651 487.961 150.695 487.961 150.736C487.913 151.383 487.511 151.91 487.012 151.91H438.082C436.931 151.87 435.812 152.286 434.965 153.067C434.119 153.848 433.615 154.931 433.562 156.081V156.081Z" fill="#1A7DA3"/>
<path d="M478.111 144.996H416.866V147.329H478.111V144.996Z" fill="white"/>
<path d="M478.115 142.665H418.307V144.997H478.115V142.665Z" fill="#E0E1E0"/>
<path d="M478.115 140.332H419.453V142.661H478.115V140.332Z" fill="white"/>
<path d="M478.115 138.041H419.453V140.373H478.115V138.041Z" fill="#E0E1E0"/>
<path d="M478.115 135.709H419.453V138.041H478.115V135.709Z" fill="white"/>
<path d="M478.115 133.377H418.307V135.706H478.115V133.377Z" fill="#E0E1E0"/>
<path d="M478.111 131.046H416.866V133.376H478.111V131.046Z" fill="white"/>
<g style="mix-blend-mode:multiply" opacity="0.21">
<path d="M478.112 133.374H476.536C476.842 132.627 477.053 131.844 477.164 131.045H478.112V133.374Z" fill="#1D374F"/>
</g>
<g style="mix-blend-mode:multiply" opacity="0.21">
<path d="M478.115 133.377V135.706H475.256C475.772 134.982 476.201 134.2 476.536 133.377H478.115Z" fill="#1D374F"/>
</g>
<g style="mix-blend-mode:multiply" opacity="0.21">
<path d="M416.866 145.071V147.329H474.3C474.293 146.558 474.253 145.781 474.212 144.996C474.171 144.211 474.124 143.444 474.107 142.663C474.082 141.9 474.097 141.136 474.151 140.374C474.151 140.361 474.151 140.347 474.151 140.334C474.189 139.865 474.243 139.393 474.324 138.921C474.375 138.626 474.416 138.334 474.45 138.042C474.536 137.267 474.569 136.488 474.55 135.709V135.709C474.528 134.929 474.461 134.152 474.35 133.38C474.228 132.514 474.072 131.726 473.922 131.05H458.962L458.778 131.15C458.623 131.934 458.342 132.688 457.946 133.382C457.493 134.219 456.943 135.001 456.309 135.711C455.535 136.578 454.671 137.36 453.732 138.044C452.495 138.941 451.169 139.709 449.775 140.336C449.747 140.352 449.718 140.366 449.687 140.376C447.393 141.392 444.997 142.16 442.539 142.665C441.225 142.947 439.802 143.195 438.267 143.392C430.439 144.404 424.867 144.839 421.012 144.998C419.311 145.064 417.943 145.081 416.866 145.071Z" fill="#1D374F"/>
</g>
<path d="M459.325 134.564V143.811C459.28 144.781 458.854 145.695 458.139 146.354C457.425 147.012 456.479 147.363 455.508 147.329H414.533C414.254 147.326 413.985 147.426 413.774 147.608C413.564 147.791 413.428 148.045 413.392 148.321C413.392 148.358 413.386 148.395 413.386 148.433V148.647C413.386 148.684 413.386 148.721 413.392 148.755C413.43 149.027 413.568 149.274 413.779 149.45C413.99 149.626 414.259 149.717 414.533 149.706H476.033C477.657 149.761 479.237 149.172 480.429 148.066C481.62 146.961 482.326 145.43 482.393 143.806V134.559C482.325 132.936 481.618 131.406 480.427 130.301C479.236 129.197 477.656 128.608 476.033 128.664H414.533C414.259 128.652 413.991 128.743 413.78 128.918C413.569 129.093 413.431 129.34 413.392 129.611C413.392 129.649 413.386 129.686 413.386 129.723V129.937C413.386 129.975 413.386 130.012 413.392 130.046C413.428 130.322 413.563 130.576 413.774 130.759C413.984 130.942 414.254 131.041 414.533 131.038H455.508C456.48 131.004 457.427 131.356 458.141 132.016C458.856 132.676 459.281 133.592 459.325 134.564V134.564Z" fill="#00315C"/>
<path d="M413.386 148.596V148.647C413.386 148.684 413.386 148.721 413.392 148.755C413.43 149.027 413.568 149.275 413.779 149.45C413.99 149.626 414.259 149.717 414.533 149.706H476.033C477.657 149.761 479.237 149.172 480.429 148.067C481.62 146.961 482.326 145.43 482.393 143.806V140.506C479.714 143.026 473.51 146.826 460.452 146.826C460.452 146.826 441.874 150.303 431.927 149.342C425.057 148.681 417.44 148.589 413.386 148.596Z" fill="#001E38"/>
<path d="M459.325 134.564V143.811C459.28 144.782 458.854 145.696 458.139 146.354C457.425 147.013 456.479 147.363 455.508 147.329H414.194C413.773 147.329 413.433 147.777 413.394 148.321C413.394 148.358 413.394 148.395 413.394 148.433V148.647C413.394 148.684 413.394 148.721 413.394 148.755C413.384 148.985 413.46 149.21 413.609 149.387C413.757 149.563 413.966 149.677 414.194 149.706H457.416C459.862 149.706 461.889 147.078 461.889 143.806V134.559C461.889 131.292 459.862 128.664 457.416 128.664H414.194C413.966 128.693 413.758 128.807 413.61 128.982C413.462 129.157 413.385 129.382 413.394 129.611C413.394 129.649 413.394 129.686 413.394 129.723V129.937C413.394 129.975 413.394 130.012 413.394 130.046C413.435 130.593 413.775 131.038 414.194 131.038H455.508C456.48 131.005 457.427 131.356 458.141 132.016C458.856 132.677 459.281 133.592 459.325 134.564V134.564Z" fill="#245A8A"/>
<path d="M472.685 124.941H423.735V126.806H472.685V124.941Z" fill="white"/>
<path d="M471.533 123.078H423.731V124.942H471.533V123.078Z" fill="#E0E1E0"/>
<path d="M470.617 121.215H423.731V123.077H470.617V121.215Z" fill="white"/>
<path d="M470.617 119.383H423.731V121.247H470.617V119.383Z" fill="#E0E1E0"/>
<path d="M470.617 117.519H423.731V119.383H470.617V117.519Z" fill="white"/>
<path d="M471.533 115.654H423.731V117.516H471.533V115.654Z" fill="#E0E1E0"/>
<path d="M472.685 113.792H423.735V115.654H472.685V113.792Z" fill="white"/>
<g style="mix-blend-mode:multiply" opacity="0.21">
<path d="M423.734 115.653H424.993C424.749 115.056 424.581 114.43 424.493 113.791H423.736L423.734 115.653Z" fill="#1D374F"/>
</g>
<g style="mix-blend-mode:multiply" opacity="0.21">
<path d="M423.731 115.654V117.516H426.016C425.604 116.937 425.261 116.312 424.993 115.654H423.731Z" fill="#1D374F"/>
</g>
<g style="mix-blend-mode:multiply" opacity="0.21">
<path d="M472.685 125.002V126.807H426.777C426.783 126.191 426.815 125.569 426.848 124.942C426.881 124.315 426.918 123.702 426.932 123.078C426.951 122.468 426.939 121.857 426.897 121.248C426.897 121.237 426.897 121.226 426.897 121.216C426.867 120.841 426.824 120.464 426.758 120.087C426.718 119.85 426.685 119.617 426.658 119.387C426.59 118.768 426.565 118.145 426.582 117.522V117.522C426.599 116.899 426.651 116.277 426.739 115.66C426.839 114.968 426.962 114.338 427.081 113.798H439.04L439.186 113.877C439.31 114.503 439.534 115.105 439.851 115.66C440.213 116.33 440.652 116.954 441.16 117.522V117.522C441.778 118.215 442.469 118.84 443.22 119.387C444.209 120.104 445.268 120.718 446.382 121.219C446.405 121.232 446.428 121.242 446.453 121.251C448.286 122.063 450.202 122.677 452.166 123.081C453.217 123.306 454.354 123.504 455.581 123.661C461.837 124.47 466.291 124.818 469.371 124.945C470.731 124.996 471.824 125.01 472.685 125.002Z" fill="#1D374F"/>
</g>
<path d="M438.749 116.604V123.995C438.785 124.77 439.126 125.501 439.697 126.027C440.268 126.554 441.024 126.834 441.8 126.807H474.549C474.772 126.804 474.987 126.883 475.155 127.029C475.323 127.175 475.432 127.378 475.461 127.599C475.461 127.629 475.467 127.659 475.467 127.689V127.86C475.467 127.889 475.465 127.918 475.461 127.947C475.43 128.164 475.32 128.362 475.151 128.502C474.983 128.643 474.768 128.716 474.549 128.707H425.4C424.102 128.751 422.84 128.28 421.888 127.398C420.935 126.515 420.37 125.292 420.316 123.995V116.604C420.37 115.306 420.935 114.083 421.888 113.2C422.84 112.318 424.102 111.847 425.4 111.892H474.553C474.669 111.884 474.786 111.9 474.897 111.939C475.007 111.978 475.108 112.039 475.194 112.118C475.279 112.197 475.348 112.293 475.396 112.4C475.444 112.506 475.469 112.622 475.471 112.739V112.91C475.471 112.939 475.469 112.968 475.465 112.997C475.437 113.217 475.328 113.42 475.16 113.567C474.992 113.713 474.776 113.792 474.553 113.79H441.8C441.023 113.763 440.268 114.043 439.696 114.57C439.125 115.097 438.785 115.827 438.749 116.604V116.604Z" fill="#03658C"/>
<path d="M475.467 127.819V127.86C475.467 127.889 475.465 127.918 475.461 127.947C475.43 128.164 475.32 128.362 475.151 128.502C474.983 128.643 474.768 128.716 474.549 128.707H425.4C424.102 128.751 422.84 128.28 421.888 127.398C420.935 126.515 420.37 125.292 420.316 123.995V121.354C422.457 123.368 427.416 126.405 437.852 126.405C437.852 126.405 452.702 129.184 460.652 128.416C466.138 127.887 472.226 127.814 475.467 127.819Z" fill="#004B69"/>
<path d="M438.749 116.604V123.995C438.785 124.771 439.126 125.501 439.697 126.027C440.268 126.554 441.024 126.834 441.8 126.807H474.821C475.157 126.807 475.429 127.165 475.461 127.599C475.461 127.629 475.461 127.659 475.461 127.689V127.86C475.462 127.889 475.462 127.918 475.461 127.947C475.469 128.13 475.408 128.311 475.289 128.451C475.171 128.592 475.003 128.683 474.821 128.707H440.275C438.321 128.707 436.7 126.607 436.7 123.995V116.604C436.7 113.993 438.321 111.892 440.275 111.892H474.821C475.003 111.915 475.17 112.005 475.289 112.146C475.407 112.286 475.469 112.466 475.461 112.65C475.462 112.679 475.462 112.709 475.461 112.739V112.91C475.462 112.939 475.462 112.968 475.461 112.997C475.429 113.434 475.161 113.79 474.821 113.79H441.8C441.023 113.763 440.268 114.043 439.696 114.57C439.125 115.097 438.785 115.827 438.749 116.604V116.604Z" fill="#1A7DA3"/>
<path d="M57.422 487.144C47.2316 478.953 38.7722 468.817 32.5361 457.325C26.3 445.834 22.4117 433.217 21.0975 420.209C19.7833 407.2 21.0695 394.061 24.8812 381.554C28.6928 369.048 34.9539 357.424 43.3 347.36C55.93 332.131 73.207 320.589 82.7 303.232C97.187 276.755 90.06 244.346 90.679 214.171C90.844 206.177 91.595 198.132 93.903 190.477C97.066 179.985 103.056 170.545 109.916 162C135.084 130.649 172.309 110.38 211.36 100.824C248.482 91.7403 292.532 93.7243 318.624 121.652C331.394 135.32 338.329 153.662 351.272 167.167C372.945 189.782 407.16 194.721 438.472 193.867C469.784 193.013 501.634 187.755 532.083 195.106C577.256 206.006 613.683 246.644 619.598 292.737C622.255 313.429 619.259 334.493 614.043 354.693C601.129 404.392 575.117 449.716 538.72 485.938" fill="#D4F2FF"/>
<path d="M382.1 21.9502L382.062 22.4302C377.966 74.3142 371.945 115.388 364 145.651L339.463 129.882C325.827 146.782 297.042 174.238 207.793 258.441C187.184 274.727 158.453 294.782 121.598 318.604C117.877 321.198 111.58 324.998 102.709 330.004C100.623 330.558 97.3988 331.056 96.6378 329.092C95.6788 326.611 97.9538 324.234 98.7048 323.538C98.7215 323.52 98.7407 323.504 98.7618 323.491C119.568 307.628 136.562 293.128 149.744 279.991C171.65 259.591 189.244 237.88 247.827 168.667C272.533 139.459 289.508 117.663 298.752 103.278L275.552 86.6162C306.487 71.7622 344.745 51.3552 382.1 21.9502Z" fill="#87D6FA"/>
<path d="M499.625 1.39844H499.616C498.143 1.64777 497.388 2.93177 497.35 5.25044L497.65 246.884C497.799 249.018 498.557 250.179 499.924 250.368C501.391 250.118 502.15 248.86 502.201 246.596L501.901 4.92244C501.768 2.77177 501.01 1.5971 499.629 1.39844" fill="#37474F"/>
<g style="mix-blend-mode:multiply" opacity="0.16">
<path d="M517.549 493.315L478.549 494.215L81 489.415L81.536 467.369C321.429 463.779 479.045 384.594 516.617 363.657L517.549 493.315Z" fill="#0B78A3"/>
</g>
<path d="M428.793 70.417V89.317C428.872 90.5345 428.703 91.7554 428.296 92.9055C427.889 94.0557 427.252 95.1112 426.425 96.008C425.546 96.82 424.513 97.4465 423.387 97.8502C422.26 98.2538 421.064 98.4261 419.87 98.357C418.56 98.4259 417.249 98.2349 416.013 97.7948C414.778 97.3548 413.641 96.6744 412.67 95.793C410.894 94.085 410.007 91.626 410.009 88.416H416.623C416.623 90.9993 417.601 92.291 419.558 92.291C421.254 92.291 422.101 91.2997 422.101 89.317V70.417H428.793Z" fill="#48ADE0"/>
<path d="M453.468 71.8056C455.573 72.9985 457.312 74.7445 458.496 76.8546C459.707 79.1009 460.339 81.6136 460.336 84.1656C460.332 86.7176 459.693 89.2286 458.476 91.4716C457.286 93.5885 455.541 95.3407 453.429 96.5396C451.266 97.7334 448.835 98.3595 446.365 98.3595C443.894 98.3595 441.464 97.7334 439.301 96.5396C437.188 95.3411 435.442 93.5888 434.252 91.4716C433.032 89.2286 432.393 86.7161 432.393 84.1631C432.393 81.61 433.032 79.0975 434.252 76.8546C435.447 74.7459 437.192 73.0009 439.301 71.8056C441.471 70.6121 443.908 69.9863 446.384 69.9863C448.861 69.9863 451.298 70.6121 453.468 71.8056V71.8056ZM441.14 78.3386C439.883 80.0113 439.204 82.0466 439.204 84.1386C439.204 86.2305 439.883 88.2659 441.14 89.9386C442.525 91.3168 444.4 92.0904 446.354 92.0904C448.308 92.0904 450.183 91.3168 451.569 89.9386C452.835 88.274 453.522 86.2412 453.526 84.1499C453.529 82.0586 452.849 80.0234 451.589 78.3546C450.199 76.9787 448.324 76.2053 446.368 76.2016C444.413 76.1978 442.535 76.9641 441.14 78.3346V78.3386Z" fill="#48ADE0"/>
<path d="M484.657 86.2668C485.629 87.4735 486.148 88.9823 486.125 90.5318C486.18 91.5773 485.995 92.6215 485.584 93.5847C485.174 94.5479 484.55 95.4047 483.758 96.0898C482.178 97.4231 479.915 98.0898 476.968 98.0898H464.092V70.4168H476.654C478.978 70.2704 481.283 70.9193 483.19 72.2568C483.961 72.8869 484.572 73.6904 484.973 74.6018C485.375 75.5132 485.555 76.5065 485.499 77.5008C485.553 79.0026 485.083 80.4765 484.168 81.6688C483.291 82.7715 482.061 83.5385 480.685 83.8408C482.249 84.167 483.652 85.0241 484.657 86.2668V86.2668ZM470.784 81.7268H475.167C477.489 81.7268 478.65 80.7354 478.65 78.7528C478.65 76.7701 477.463 75.7788 475.089 75.7788H470.784V81.7268ZM479.276 89.5928C479.298 89.1562 479.222 88.7201 479.053 88.3171C478.883 87.914 478.625 87.5543 478.298 87.2648C477.503 86.6579 476.516 86.3591 475.519 86.4238H470.784V92.6458H475.558C478.037 92.6458 479.276 91.6281 479.276 89.5928V89.5928Z" fill="#48ADE0"/>
<path d="M437.329 165.478V180.796H461.907V165.478H437.329ZM460.078 179.078H439.158V167.193H460.078V179.078Z" fill="#00315C"/>
<path d="M491.734 173.995H405.468V223.248H491.734V173.995Z" fill="#235887"/>
<path d="M491.734 197.99H405.468V223.248H491.734V197.99Z" fill="#0F385C"/>
<path d="M458.029 193.973H442.462V201.757H458.029V193.973Z" fill="#468DC9"/>
<path d="M436.708 175.339V164.597H462.677V174.93C462.677 174.93 460.365 175.202 460.365 174.93V166.43H438.2V175.13H436.908" fill="#00315C"/>
<path d="M517.549 493.316L478.548 494.219L81.001 489.416L81.537 467.37L83.078 403.409L159.509 402.404V443.575L159.547 360.312L239.389 360.556L240.563 321.782L316.205 321.274L318.31 267.783L394.139 267.313L395.333 222.205H395.652L515.613 222.891L516.618 363.658L517.549 493.316Z" fill="#48ADE0"/>
<path d="M393.589 222.208L392.898 281.62L392.206 493.178L397.601 493.326L398.486 222.27L393.732 222.209L393.589 222.208Z" fill="#3087B3"/>
<path d="M322.147 267.708L316.928 267.783L316.402 296.61L315.732 492.254L321.379 492.401L322.147 267.708Z" fill="#3087B3"/>
<path d="M244.4 321.705L239.238 321.783L238.461 376.216L238.061 491.316L243.81 491.464L244.4 321.705Z" fill="#3087B3"/>
<path d="M158.691 360.316L158.391 385.77L158.065 490.348L163.209 490.496L163.609 360.386L158.691 360.316Z" fill="#3087B3"/>
<path d="M86.0369 403.377L81.1819 403.413L80.9289 428.79L80.7449 489.428L85.7749 489.575L86.0369 403.377Z" fill="#3087B3"/>
<path d="M184.545 232.539L178.205 237.92C177.621 239.024 177.112 240.167 176.682 241.34C176.28 242.457 176.044 243.627 175.982 244.812C175.958 245.312 175.96 245.884 175.989 246.527C176.225 249.624 176.325 251.345 176.289 251.69C176.289 252.209 176.265 252.689 176.217 253.13L175.868 256.004C175.829 256.443 175.849 256.886 175.929 257.32C176.066 257.867 176.358 258.363 176.77 258.749C177.182 259.134 177.697 259.392 178.252 259.492C179.939 259.99 181.719 260.092 183.452 259.792C184.789 259.621 186.053 259.082 187.103 258.237C188.152 257.391 188.948 256.271 189.4 255.001C189.819 253.804 189.88 252.511 189.577 251.279C189.458 250.752 189.31 250.231 189.134 249.72C188.221 247.205 187.725 245.802 187.648 245.511C187.412 244.778 187.174 243.964 186.934 243.07C186.36 240.984 185.564 237.481 184.545 232.56" fill="#824B46"/>
<path d="M298.006 184.894C297.621 185.714 297.175 186.503 296.672 187.255C295.663 188.759 294.459 190.122 293.091 191.308C291.433 192.543 289.471 193.305 287.415 193.513C286.879 193.601 286.315 193.679 285.715 193.737L280.077 198.955L277.304 189.189C279.001 188.546 280.494 187.459 281.627 186.041C282.053 185.43 282.407 184.772 282.68 184.078L284.343 179.569C284.534 179.119 284.79 178.7 285.104 178.325C285.649 177.741 286.373 177.354 287.162 177.225C287.523 176.381 288.081 175.635 288.788 175.049C289.229 174.736 289.76 174.572 290.301 174.582H290.311C291.63 174.699 292.898 175.151 293.994 175.894C295.313 176.673 296.477 177.69 297.424 178.894C298.095 179.729 298.507 180.742 298.61 181.808C298.714 182.873 298.504 183.946 298.006 184.894V184.894Z" fill="#824B46"/>
<path d="M176.61 334.597L167.338 352.956L180.938 354.81L187.538 340.317L176.612 334.603" fill="#814C46"/>
<path d="M200.61 359.999C200.612 360.149 200.599 360.299 200.572 360.446C200.372 361.758 198.672 362.795 195.472 363.556C193.035 364.144 190.522 364.357 188.02 364.188C187.409 364.139 186.77 364.061 186.112 363.954C182.794 363.303 180.824 362.963 180.201 362.934C179.449 362.827 176.855 362.652 172.42 362.434C171.72 362.385 171.076 362.317 170.484 362.239C169.322 362.13 168.194 361.79 167.166 361.239C165.55 360.277 164.92 358.439 165.249 355.729C165.45 354.306 165.872 352.922 166.499 351.629C167.068 350.437 167.698 349.276 168.388 348.15C168.521 347.941 168.724 347.785 168.961 347.713L169.008 347.703C169.156 347.674 169.31 347.684 169.453 347.731C169.597 347.779 169.725 347.864 169.826 347.976C169.892 348.121 169.957 348.248 170.026 348.376C170.206 348.808 170.433 349.218 170.703 349.6C171.028 349.999 171.423 350.334 171.868 350.591C173.068 351.314 174.413 351.762 175.806 351.903C176.927 351.98 178.051 351.804 179.095 351.388C180.738 350.703 182.317 349.873 183.813 348.91C191.584 352.477 195.978 354.599 196.997 355.275C198.097 355.882 199.038 356.741 199.741 357.782C200.235 358.424 200.536 359.193 200.61 359.999V359.999Z" fill="#F5F3F0"/>
<path d="M248.605 306.956C245.97 306.935 243.343 307.237 240.782 307.856C238.558 308.485 237.598 309.147 237.901 309.842C238.134 310.352 239.484 310.87 241.952 311.395C243.321 311.696 245.686 312.113 249.046 312.645C249.958 312.771 250.877 312.831 251.797 312.827C253.817 312.855 255.83 312.596 257.777 312.059C259.262 311.577 259.843 311.01 259.519 310.359C259.141 309.851 258.625 309.46 258.033 309.234C256.952 308.617 255.81 308.112 254.627 307.725C252.685 307.16 250.666 306.9 248.644 306.953" fill="#F5F3F0"/>
<path d="M254.911 298.154L242.054 299.808L240.014 309.596C241.732 310.508 243.528 311.265 245.381 311.857C246.913 312.255 248.49 312.448 250.072 312.429L254.904 298.174" fill="#814C46"/>
<path d="M229.465 226.588C227.843 226.696 226.275 227.212 224.906 228.088L213.256 235.244C211.428 236.105 209.498 236.732 207.513 237.11C205.87 237.464 204.164 237.397 202.553 236.915C202.273 237.04 199.791 235.74 195.108 233.015L193.84 232.822C193.305 236.507 193.128 240.235 193.312 243.954C193.179 244.472 193.837 248.821 195.286 257.002C195.535 258.959 195.673 260.929 195.7 262.902C195.733 267.157 195.29 271.402 194.379 275.559C193.281 283.352 185.656 304.768 171.504 339.806C178.437 342.433 183.566 343.677 186.891 343.539C194.032 329.167 202.124 311.749 211.168 291.285C214.687 284.452 217.158 279.392 218.579 276.107C220.689 271.566 223.015 264.712 225.556 255.543C235.316 256.465 241.536 257.32 244.217 258.108C247.031 258.809 248.667 260.059 249.126 261.856C249.464 263.572 249.396 265.343 248.926 267.027C243.866 284.197 240.952 296.786 240.185 304.794C248.545 305.531 253.515 305.627 255.095 305.083C260.325 294.904 264.961 284.43 268.979 273.715C271.589 266.571 273.05 261.125 273.362 257.376C273.593 255.852 273.498 254.297 273.081 252.813C272.665 251.329 271.938 249.951 270.948 248.77C266.881 243.637 253.081 236.241 229.548 226.584" fill="#052440"/>
<path d="M230.677 164.126L217.917 164.445L217.928 164.588L217.938 164.731L217.949 164.873L217.959 165.016C218.33 170.154 218.657 173.934 218.94 176.357C219.153 178.419 219.567 181.147 220.18 184.542L220.38 186.353C220.527 188.476 220.397 190.609 219.994 192.698C219.221 196.506 218.121 200.24 216.706 203.858C215.889 206.258 212.9 213.769 207.739 226.392C206.951 228.392 206.361 229.961 205.97 231.1C204.91 234.167 204.504 236.121 204.752 236.962C204.807 237.197 204.934 237.408 205.117 237.566C205.299 237.724 205.527 237.82 205.767 237.84C208.848 237.069 211.876 236.101 214.832 234.94C216.168 234.396 217.453 233.732 218.67 232.958L224.828 228.551C225.601 228.077 226.445 227.73 227.328 227.524C230.072 226.929 233.047 227.632 236.251 229.633L236.011 223.047L237.949 208.083L234.993 181.476L230.7 164.208" fill="#F26835"/>
<path d="M227.205 162.4L217.488 163.492L217.764 167.904C218.627 169.016 219.631 170.011 220.751 170.862C221.815 171.671 223.114 172.111 224.451 172.116C224.995 172.076 225.522 171.91 225.989 171.629C226.457 171.349 226.852 170.963 227.144 170.502C228.388 168.613 229.364 166.56 230.044 164.402L227.215 162.402" fill="#FFFAF2"/>
<path d="M282.951 198.548C263.038 215.164 248.471 214.416 241.123 204.611C240.212 203.39 239.431 202.078 238.792 200.695C238.893 202.13 238.865 203.57 238.707 205C238.36 210.588 237.448 220.616 236.583 229.439C232.947 227.855 230.071 227.185 227.983 227.408C233.593 205.039 233.612 180.766 228.039 154.587L228.49 154.879C230.943 156.331 233.037 158.317 234.617 160.69L251.326 195.118C252.276 195.998 253.444 196.608 254.709 196.886L279.575 186.654L282.951 198.548Z" fill="#00325B"/>
<path d="M228.039 154.58L226.739 158.174C227.172 160.074 228.53 160.074 228.131 162.174C229.205 163.474 230.417 164.406 230.707 165.074C232.19 165.991 234.304 167.12 237.049 168.461C236.987 168.414 236.925 168.367 236.861 168.32C236.283 164.729 235.516 162.15 234.561 160.584C233.605 158.824 231.463 156.845 228.135 154.646L228.039 154.58Z" fill="#FFBE01"/>
<path d="M221.059 184.128C220.78 179.475 220.117 174.853 219.076 170.31C219.068 170.251 219.055 170.192 219.038 170.135L219.029 170.076L217.422 164.615C214.386 159.057 214.931 155.53 215.007 154.024C214.9 153.045 215.176 152.063 215.777 151.283C213.344 151.849 211.218 153.319 209.828 155.394C209.688 155.894 209.556 156.472 209.406 157.123C209.274 157.162 209.142 157.211 209.011 157.259C200.158 160.219 192.267 165.51 186.165 172.574C181.045 177.89 176.289 183.546 171.928 189.501C170.058 192.377 167.003 195.351 167.135 199.18C166.769 203.737 169.795 217.872 176.213 241.585C179.505 240.527 182.934 239.958 186.391 239.895L186.372 236.406C191.695 242.845 198.003 248.401 205.064 252.867C205.036 246.924 205.843 241.007 207.464 235.289C209.682 226.844 213.657 214.795 219.39 199.141C220.059 197.056 220.531 194.914 220.8 192.741C221.126 189.882 221.213 187.001 221.059 184.128V184.128ZM198.11 186.928C196.944 193.857 192.781 217.246 188.51 224.398C187.852 226.215 187.063 228.133 186.142 230.15L184.788 199.55L193.641 189.619C193.65 189.609 193.66 189.599 193.66 189.59L193.707 189.551L193.716 189.541L198.424 184.974C198.424 184.974 198.316 185.682 198.11 186.926V186.928ZM217.751 147.505C217.741 147.505 217.732 147.515 217.723 147.515L217.751 147.564V147.505Z" fill="#00315C"/>
<path d="M219.076 170.31C218.374 169.523 217.471 168.942 216.463 168.629C214.189 167.89 211.097 168.376 210.392 171.573L210.317 171.66C209.521 168.382 209.058 165.031 208.936 161.66C208.851 160.766 208.86 159.629 208.86 158.473C208.86 158.104 209.002 157.657 209.011 157.258C209.019 157.239 209.022 157.22 209.02 157.2C209.029 157.178 209.036 157.155 209.039 157.132C209.208 156.514 209.475 155.927 209.828 155.393C211.218 153.317 213.344 151.848 215.777 151.282C216.145 151.172 216.518 151.081 216.895 151.01C216.467 152.015 216.34 153.122 216.529 154.198C216.463 155.698 214.884 158.881 217.92 164.439L219.029 170.075L219.038 170.134C219.055 170.191 219.068 170.25 219.076 170.31V170.31Z" fill="#FFBE01"/>
<path d="M187.012 234.721C184.72 235.076 182.45 235.559 180.212 236.169C179.012 236.497 177.338 237.031 175.191 237.769C175.518 239.005 175.855 240.271 176.203 241.569C179.498 240.532 182.923 239.969 186.376 239.898L186.354 236.398C186.787 236.909 187.22 237.411 187.654 237.904L187.004 234.731L187.012 234.721Z" fill="#FFBE01"/>
<path d="M188.557 224.286C187.89 226.127 187.089 228.074 186.152 230.128L186.115 229.298C186.186 232.511 186.269 234.949 186.363 236.611V236.4C191.664 242.863 197.998 248.404 205.108 252.8C205.03 247.757 205.605 242.725 206.819 237.829V237.829C202.521 236.891 199.388 235.773 197.419 234.473C194.569 232.861 191.616 229.465 188.559 224.284L188.557 224.286Z" fill="#FFBE01"/>
<path d="M279.692 186.633L276.329 188.095L281.801 200.751C283.958 201.817 283.318 197.201 279.88 186.901L279.692 186.633Z" fill="#FFBE01"/>
<path d="M188.517 224.396C187.859 226.204 187.071 228.114 186.152 230.128L186.011 227.02L185.991 227.12L186.378 239.22L186.36 236.398L186.378 239.22L186.368 237.596L186.36 236.396C188.193 238.558 190.051 240.571 191.935 242.436C191.917 242.086 191.898 241.759 191.878 241.455C190.823 239.697 189.731 237.658 188.6 235.338C188.409 232.326 188.382 228.678 188.517 224.392V224.396Z" fill="#D9A51E"/>
<path d="M198.11 186.926C198.316 185.682 198.429 184.973 198.429 184.973L193.721 189.54L193.712 189.55L193.646 189.618C193.655 189.608 193.665 189.598 193.665 189.589C194.125 188.976 194.539 188.442 194.905 187.995C197.145 185.203 199.657 182.641 202.405 180.348C200.77 182.757 199.338 184.95 198.11 186.926Z" fill="#052440"/>
<path d="M251.008 194.807L250.927 194.835C251.921 196.333 253.244 197.584 254.794 198.495C255.753 198.966 256.813 199.194 257.881 199.159C258.136 199.159 258.4 199.15 258.673 199.13C260.976 198.893 263.252 198.445 265.473 197.792V197.792C263.536 197.746 261.624 197.341 259.834 196.599C259.232 196.303 258.677 195.919 258.187 195.461V195.461L255.558 196.543C255.544 196.597 255.531 196.652 255.518 196.708C255.505 196.764 255.413 196.83 255.231 196.893C255.156 196.9 255.081 196.904 255.006 196.904C254.911 196.904 254.816 196.898 254.721 196.888L254.672 196.882C253.618 196.658 252.633 196.186 251.798 195.505C251.67 195.407 251.542 195.301 251.414 195.188L251.377 195.158L251.332 195.117C251.224 195.017 251.117 194.917 251.009 194.807H251.008Z" fill="#052440"/>
<path d="M238.792 200.695C238.893 202.13 238.865 203.57 238.707 205C238.613 201.813 238.588 196.939 238.632 190.376C238.867 194.929 239.621 199.441 240.878 203.824C240.953 204.077 241.028 204.339 241.123 204.611C240.212 203.39 239.431 202.078 238.792 200.695V200.695Z" fill="#052440"/>
<path d="M228.679 222.873L227.921 227.412L227.981 227.404V227.438C228.237 227.425 228.493 227.418 228.747 227.418C231.535 227.426 234.254 228.285 236.539 229.882C236.664 228.698 236.784 227.574 236.899 226.509C236.831 226.452 236.759 226.399 236.684 226.351C236.387 226.135 236.045 225.987 235.684 225.918C235.51 225.885 235.333 225.864 235.156 225.856C234.61 225.872 234.064 225.853 233.52 225.801C233.143 225.753 232.776 225.649 232.429 225.494C231.067 224.793 229.805 223.912 228.679 222.873V222.873Z" fill="#FFBE01"/>
<path d="M240.8 295.883C240.561 295.862 240.322 295.926 240.125 296.064C239.928 296.202 239.786 296.404 239.723 296.636C239.445 297.904 239.242 299.187 239.117 300.48C238.929 302.514 239.248 303.878 240.074 304.572C240.896 305.159 241.878 305.478 242.888 305.487C243.362 305.53 243.895 305.554 244.488 305.559L248.343 305.546L252.179 305.692C253.127 305.74 254.075 305.616 254.979 305.327C255.728 305.036 256.388 304.556 256.894 303.933C257.746 302.868 258.369 301.639 258.723 300.323C258.985 299.431 258.876 298.794 258.396 298.41C257.461 297.821 256.389 297.488 255.285 297.443C254.673 297.354 253.893 297.266 252.945 297.178C248.893 296.864 246.667 296.676 246.268 296.613C245.335 296.523 243.523 296.28 240.833 295.883" fill="#3D5F7E"/>
<path d="M174.6 333.052C173.916 333.034 173.059 334.316 172.029 336.897C171.363 338.668 171.342 339.794 171.967 340.277C172.24 340.487 172.555 340.636 172.89 340.713L179.605 342.55C182.218 343.21 184.867 343.715 187.539 344.061C187.747 344.084 187.956 344.051 188.147 343.966C188.337 343.881 188.502 343.747 188.623 343.577C189.416 342.611 190.085 341.55 190.614 340.419C190.87 339.96 190.959 339.427 190.868 338.909C190.777 338.392 190.511 337.921 190.114 337.577C189.297 336.983 188.369 336.559 187.385 336.332C186.756 336.147 185.987 335.958 185.08 335.763C180.813 334.947 178.649 334.508 178.587 334.445C178.087 334.317 177.634 334.177 177.213 334.028C176.863 333.914 176.174 333.63 175.147 333.176C174.985 333.108 174.813 333.066 174.638 333.052" fill="#3D5F7E"/>
<path d="M271.721 319.42C271.402 320.635 270.236 321.344 268.235 321.548C266.97 321.712 265.695 321.797 264.419 321.801L252.019 321.869C249.35 321.898 246.39 321.957 243.129 322.063L241.629 322.054C240.181 322.122 238.741 321.803 237.456 321.131C236.975 320.797 236.569 320.366 236.264 319.867C235.958 319.368 235.759 318.811 235.68 318.231C235.389 316.433 235.526 314.592 236.08 312.857C236.526 311.434 237.079 310.047 237.734 308.708C237.8 308.562 237.866 308.416 237.941 308.261C238.012 308.103 238.127 307.968 238.271 307.871C238.416 307.775 238.585 307.722 238.758 307.717H238.805C239.054 307.738 239.286 307.852 239.454 308.038C239.576 308.238 239.679 308.438 239.792 308.601C239.933 308.834 240.055 309.029 240.168 309.184C240.293 309.371 240.445 309.54 240.619 309.684C240.944 309.97 241.312 310.202 241.709 310.374C243.314 311.03 245.031 311.367 246.765 311.365C248.163 311.396 249.554 311.162 250.865 310.675C252.726 309.911 254.51 308.974 256.194 307.875C263.787 310.875 267.962 312.698 268.721 313.346C269.511 313.817 270.188 314.457 270.703 315.22C271.217 315.982 271.558 316.849 271.7 317.758C271.838 318.302 271.845 318.872 271.721 319.42V319.42Z" fill="#F5F3F0"/>
<path d="M282.851 187.448C283.708 189.357 284.313 191.368 284.651 193.432C284.684 193.836 284.657 194.242 284.572 194.638C284.558 194.704 284.542 194.773 284.521 194.844L285.721 193.735C286.536 193.629 287.27 193.516 287.921 193.398C287.276 193.008 286.671 192.555 286.115 192.045C284.772 190.712 283.671 189.155 282.861 187.445L282.851 187.448Z" fill="#693531"/>
<path d="M205.238 248.49C205.052 249.92 205.03 251.366 205.172 252.8L204.202 252.217L198.916 248.592C200.902 251.139 203.144 253.477 205.605 255.568C207.34 256.985 209.348 258.028 211.505 258.632C213.274 259.113 215.087 259.411 216.916 259.523C217.898 259.599 218.99 259.659 220.192 259.701L224.341 259.82C224.741 258.458 225.147 257.034 225.558 255.55C226.685 255.656 227.764 255.762 228.796 255.866C228.521 255.781 228.245 255.7 227.966 255.623C226.766 255.287 225.346 254.964 223.707 254.655C223.031 254.512 220.531 254.093 216.207 253.397L213.99 252.987C212.851 252.77 211.728 252.474 210.63 252.101C208.537 251.413 206.672 250.164 205.238 248.49V248.49Z" fill="#00162B"/>
<path d="M217.763 148.692C216.914 149.279 216.445 149.805 215.419 149.727C214.828 149.622 214.286 149.329 213.875 148.891C213.464 148.452 213.206 147.893 213.14 147.296C212.357 147.738 211.629 147.313 210.946 146.662C210.605 146.412 210.352 146.06 210.223 145.657C210.094 145.255 210.096 144.821 210.229 144.42C209.82 144.493 209.399 144.419 209.039 144.212C208.679 144.004 208.405 143.676 208.263 143.286C208.081 142.926 208.032 142.512 208.125 142.12C208.218 141.727 208.447 141.379 208.771 141.139C207.411 140.1 206.699 138.005 207.596 136.563C207.256 136.271 206.979 135.914 206.782 135.512C206.585 135.11 206.471 134.672 206.448 134.225C206.424 133.778 206.492 133.331 206.647 132.911C206.801 132.491 207.039 132.106 207.347 131.781C206.579 131.481 206.385 130.168 206.392 129.302C206.4 128.923 206.505 128.552 206.698 128.226C206.891 127.899 207.164 127.628 207.492 127.438C207.692 127.294 207.677 126.629 207.627 126.425C207.551 126.109 207.541 125.781 207.597 125.461C207.653 125.141 207.774 124.836 207.953 124.565C208.132 124.293 208.364 124.062 208.636 123.884C208.908 123.706 209.214 123.587 209.534 123.532C209.517 122.216 210.634 120.809 211.841 121.08C212.114 119.543 213.76 118.235 215.179 118.695C215.512 117.967 216.093 117.382 216.819 117.045C217.545 116.708 218.367 116.641 219.138 116.856C219.615 116.299 220.27 115.925 220.992 115.797C221.713 115.669 222.457 115.796 223.096 116.156C224.045 115.467 225.496 114.982 226.365 115.856C226.513 116.047 226.683 116.22 226.872 116.372C227.324 116.644 227.849 116.315 228.337 116.172C228.906 116.052 229.499 116.155 229.994 116.459C230.49 116.763 230.85 117.245 231 117.807C231.705 117.634 232.444 117.653 233.139 117.864C233.496 117.996 233.798 118.247 233.993 118.575C234.188 118.902 234.265 119.286 234.212 119.664C234.505 119.483 234.847 119.399 235.19 119.422C235.533 119.445 235.86 119.575 236.126 119.793C236.401 120.03 236.606 120.338 236.719 120.683C236.832 121.028 236.85 121.397 236.769 121.751C237.063 121.855 237.329 122.026 237.547 122.249C237.764 122.473 237.928 122.743 238.024 123.04C238.121 123.336 238.148 123.651 238.104 123.96C238.06 124.269 237.945 124.563 237.769 124.821C238.045 124.977 238.283 125.193 238.466 125.452C238.648 125.712 238.771 126.008 238.826 126.321C238.88 126.633 238.864 126.954 238.78 127.26C238.696 127.566 238.545 127.849 238.338 128.09C238.605 128.312 238.819 128.591 238.964 128.907C239.11 129.222 239.184 129.566 239.18 129.913C239.176 130.26 239.095 130.603 238.943 130.915C238.79 131.227 238.571 131.501 238.299 131.718C238.532 131.927 238.713 132.188 238.825 132.481C238.938 132.773 238.979 133.088 238.946 133.399C238.913 133.711 238.807 134.01 238.636 134.273C238.465 134.535 238.234 134.753 237.962 134.909C238.118 135.113 238.229 135.348 238.288 135.599C238.347 135.849 238.352 136.109 238.302 136.361C238.253 136.614 238.151 136.853 238.003 137.063C237.855 137.273 237.663 137.449 237.442 137.58C237.59 137.993 237.578 138.447 237.408 138.853C237.238 139.258 236.923 139.584 236.524 139.769C235.737 140.057 234.936 140.305 234.124 140.512C233.208 140.973 232.381 141.593 231.681 142.343C228.884 144.906 225.529 146.783 221.881 147.824C221.665 147.915 221.433 147.959 221.199 147.955C220.965 147.95 220.734 147.897 220.522 147.798" fill="#1F1A1A"/>
<path d="M209.476 139.516C209.476 133.316 217.027 135.352 217.027 135.352C217.027 135.352 220.06 134.77 221.009 130.044C221.009 130.044 222.956 126.099 229.718 126.099C236.48 126.099 236.418 131.044 236.418 131.044C236.59 134.707 236.934 141.702 236.801 144.009C236.59 147.687 235.151 154.378 229.601 155.396L229.342 158.923L229.187 161.023C229.187 161.023 229.075 165.514 221.025 163.623C215.715 162.378 216.043 159.105 216.043 159.105L216.25 146.588C216.25 146.588 209.476 145.697 209.476 139.516Z" fill="#824B45"/>
<path d="M223.212 154.767C223.212 154.767 223.512 157.957 229.343 158.922L229.604 155.397L229.291 155.509C228.284 155.831 227.22 155.932 226.17 155.804C225.121 155.676 224.112 155.322 223.212 154.767V154.767Z" fill="#452518"/>
<path d="M226.026 139.178L225.926 139.262C225.83 139.378 225.706 139.468 225.565 139.524C225.46 139.565 225.349 139.586 225.236 139.587H221.151C220.957 139.583 220.768 139.52 220.61 139.406C220.444 139.282 220.317 139.114 220.241 138.921C220.166 138.728 220.147 138.518 220.185 138.315C220.418 137.015 221.632 134.999 223.746 135.49C223.823 135.497 223.884 135.534 223.946 135.541C224.509 135.7 225.018 136.009 225.419 136.435C225.82 136.862 226.098 137.389 226.222 137.961C226.246 138.041 226.264 138.124 226.275 138.208C226.314 138.377 226.312 138.554 226.269 138.723C226.225 138.892 226.142 139.047 226.026 139.178V139.178Z" fill="white"/>
<path d="M236.163 139.178L236.085 139.262C235.999 139.378 235.885 139.47 235.752 139.528C235.661 139.567 235.562 139.587 235.462 139.587H231.834C231.658 139.581 231.488 139.517 231.352 139.406C231.202 139.271 231.089 139.099 231.024 138.908C230.959 138.717 230.944 138.513 230.981 138.315C231.19 137.015 232.266 134.999 234.135 135.49C234.205 135.497 234.265 135.534 234.326 135.541C234.846 135.729 235.307 136.053 235.662 136.478C236.016 136.903 236.251 137.415 236.343 137.961C236.368 138.053 236.375 138.134 236.393 138.208C236.427 138.376 236.424 138.55 236.384 138.718C236.345 138.885 236.269 139.042 236.163 139.178V139.178Z" fill="white"/>
<path d="M228.935 144.697C229.082 144.677 232.542 144.178 232.596 141.839C232.627 141.557 232.592 141.272 232.494 141.006C232.396 140.74 232.236 140.501 232.029 140.307C231.823 140.161 231.589 140.058 231.342 140.005C231.095 139.952 230.839 139.95 230.591 139.999L230.249 135.999L229.601 136.063L230.013 140.873L230.393 140.751C230.596 140.679 230.812 140.652 231.027 140.672C231.241 140.691 231.449 140.756 231.636 140.863C231.757 140.989 231.847 141.14 231.901 141.305C231.954 141.471 231.969 141.647 231.945 141.819C231.906 143.56 228.884 143.997 228.853 144.001L228.935 144.697Z" fill="#451A16"/>
<path d="M226.681 149.496C227.433 149.493 228.183 149.41 228.917 149.249L228.777 148.566C229.221 148.478 224.177 149.719 223.425 147.137L222.805 147.345C223.315 149.105 225.152 149.496 226.681 149.496Z" fill="#451A16"/>
<path d="M213.937 141.798L214.352 141.259C213.904 140.676 213.545 140.029 213.288 139.341C213.342 139.059 213.454 138.791 213.616 138.555C213.777 138.318 213.986 138.117 214.229 137.965L213.911 137.354C213.573 137.563 213.284 137.843 213.065 138.175C212.845 138.507 212.701 138.883 212.641 139.277C212.642 139.769 212.759 140.255 212.985 140.694C213.21 141.132 213.537 141.51 213.937 141.798V141.798Z" fill="#451A16"/>
<path d="M225.93 133.952C225.93 133.952 222.851 132.465 220.461 134.107C220.59 133.471 220.914 132.891 221.388 132.447C221.862 132.003 222.462 131.717 223.105 131.629C225.314 131.412 225.93 133.952 225.93 133.952Z" fill="#1F1A1A"/>
<path d="M236.577 134.02C236.577 134.02 233.498 132.534 231.108 134.175C231.237 133.538 231.561 132.958 232.035 132.514C232.509 132.07 233.109 131.784 233.752 131.697C235.961 131.481 236.577 134.02 236.577 134.02Z" fill="#1F1A1A"/>
<path d="M218.368 134.054C217.655 136.362 217.461 138.8 217.802 141.192L216.183 140.338L214.873 134.874L218.368 134.054Z" fill="#1F1A1A"/>
<path d="M220.511 129.438C220.49 129.63 220.511 129.825 220.573 130.008C220.635 130.19 220.736 130.358 220.869 130.497C221.003 130.637 221.165 130.745 221.345 130.815C221.525 130.885 221.718 130.914 221.911 130.901C222.297 130.83 222.656 130.652 222.945 130.387C223.235 130.122 223.444 129.78 223.548 129.401C223.615 129.68 223.782 129.923 224.019 130.084C224.255 130.244 224.543 130.311 224.826 130.27C225.106 130.212 225.369 130.092 225.596 129.919C225.823 129.746 226.009 129.524 226.139 129.27C226.226 129.616 226.423 129.923 226.701 130.145C226.979 130.368 227.322 130.492 227.678 130.501C228.034 130.509 228.383 130.4 228.671 130.191C228.959 129.981 229.17 129.683 229.272 129.342C230.419 131.242 231.656 130.117 232.212 129.056C232.249 129.341 232.361 129.611 232.536 129.838C232.712 130.065 232.946 130.24 233.212 130.346C233.346 130.387 233.487 130.4 233.626 130.384C233.765 130.368 233.899 130.324 234.021 130.254C234.142 130.185 234.248 130.091 234.331 129.978C234.415 129.866 234.474 129.738 234.506 129.601C234.641 129.801 234.815 129.971 235.019 130.1C235.222 130.229 235.45 130.314 235.688 130.35C235.926 130.386 236.169 130.373 236.402 130.311C236.634 130.248 236.851 130.138 237.039 129.987C237.16 129.889 237.261 129.768 237.335 129.63C237.409 129.493 237.455 129.343 237.471 129.187C237.466 128.929 237.404 128.675 237.289 128.443C236.996 127.627 236.588 126.857 236.076 126.157C234.748 124.5 232.526 123.991 230.461 123.819C228.608 123.635 226.738 123.729 224.913 124.099C223.822 124.311 222.784 124.736 221.857 125.349C220.911 125.986 220.213 126.929 219.88 128.019" fill="#1F1A1A"/>
<path d="M225.859 138.256C225.863 138.696 225.764 139.13 225.569 139.524C225.464 139.565 225.353 139.587 225.24 139.587H222.84C222.622 139.178 222.51 138.72 222.515 138.256C222.515 137.009 223.262 135.995 224.186 135.995C225.11 135.995 225.859 137.009 225.859 138.256Z" fill="#1F1A1A"/>
<path d="M236.01 138.325C236.013 138.74 235.925 139.149 235.752 139.525C235.661 139.565 235.562 139.585 235.462 139.584H232.962C232.771 139.192 232.673 138.76 232.676 138.323C232.676 137.076 233.423 136.066 234.346 136.066C235.269 136.066 236.01 137.078 236.01 138.325Z" fill="#1F1A1A"/>
<path d="M296.672 187.256C295.664 188.759 294.459 190.122 293.091 191.309C291.433 192.543 289.472 193.305 287.415 193.514C286.906 193.242 286.446 192.887 286.053 192.465C284.708 190.9 285.799 190.201 285.799 190.201C286.397 189.249 287.073 188.349 287.819 187.509C289.419 185.595 287.65 182.641 287.65 182.641C288.674 183.117 289.804 183.324 290.93 183.241C292.358 182.979 291.93 181.074 291.93 181.074L287.156 177.226L292.598 181.016C293.349 184.096 290.498 184.028 290.498 184.028C291.021 185.176 291.912 186.118 293.03 186.703C294.149 187.287 295.431 187.482 296.672 187.256V187.256Z" fill="#693531"/>
<path d="M217.751 147.503V147.562L217.723 147.513C217.732 147.513 217.741 147.503 217.751 147.503Z" fill="#37474F"/>
<path d="M200.61 359.999C200.612 360.149 200.599 360.299 200.572 360.446C200.372 361.758 198.672 362.795 195.472 363.556C193.035 364.144 190.522 364.357 188.02 364.188C187.409 364.139 186.77 364.061 186.112 363.954C182.794 363.303 180.824 362.963 180.201 362.934C179.449 362.827 176.855 362.652 172.42 362.434C171.72 362.385 171.076 362.317 170.484 362.239C169.322 362.13 168.194 361.79 167.166 361.239C165.55 360.277 164.92 358.439 165.249 355.729C165.45 354.306 165.872 352.922 166.499 351.629C167.068 350.437 167.698 349.276 168.388 348.15C168.521 347.941 168.724 347.785 168.961 347.713L169.008 347.703C169.156 347.674 169.31 347.684 169.453 347.731C169.597 347.779 169.725 347.864 169.826 347.976C169.892 348.121 169.957 348.248 170.026 348.376C168.899 350.047 166.84 353.954 167.085 356.723C167.414 360.338 179.442 359.211 183.267 361.135C186.889 362.944 197.471 363.245 200.61 359.999Z" fill="#C8C6C4"/>
<path d="M271.721 319.42C271.402 320.635 270.236 321.344 268.235 321.548C266.97 321.712 265.695 321.797 264.419 321.801L252.019 321.869C249.35 321.898 246.39 321.957 243.129 322.063L241.629 322.054C240.181 322.122 238.741 321.803 237.456 321.131C236.975 320.797 236.569 320.366 236.264 319.867C235.958 319.368 235.759 318.811 235.68 318.231C235.389 316.433 235.526 314.592 236.08 312.857C236.526 311.434 237.079 310.047 237.734 308.708C237.8 308.562 237.866 308.416 237.941 308.261C238.012 308.103 238.127 307.968 238.271 307.871C238.416 307.775 238.585 307.722 238.758 307.717H238.805C239.054 307.738 239.286 307.852 239.454 308.038C239.576 308.238 239.679 308.438 239.792 308.601C239.933 308.834 240.055 309.029 240.168 309.184C239.407 311.084 237.311 316.851 239.256 318.862C241.254 320.926 264.175 320.003 271.721 319.42Z" fill="#C8C6C4"/>
<path d="M587.512 490.357C587.19 489.957 586.775 489.643 586.303 489.442C585.831 489.24 585.317 489.158 584.806 489.203L17.2789 487.209C14.3969 487.961 13.6796 489.667 15.1269 492.326C15.4061 492.634 15.7453 492.881 16.1236 493.053C16.502 493.225 16.9114 493.318 17.3269 493.326L584.965 495.326C587.965 494.744 588.815 493.089 587.514 490.361" fill="#3087B3"/>
<path d="M310.003 300.979V281.12L292.805 271.191L275.607 281.12V300.979L292.805 310.908L310.003 300.979Z" fill="#2789BA"/>
<path d="M308.452 280.273V300.13L291.31 310.025L291.254 310.063L274.056 300.13V280.273L291.254 270.349L292.701 271.185L308.452 280.273Z" fill="#A3E0FF"/>
<path d="M308.452 280.273V300.13L291.31 310.025L275.56 300.929V281.071L292.701 271.185L308.452 280.273Z" fill="#48ADE0"/>
<path d="M383.075 247.002V227.143L365.877 217.214L348.679 227.143V247.002L365.877 256.931L383.075 247.002Z" fill="#2789BA"/>
<path d="M381.593 226.265V246.122L364.443 256.027L364.396 256.055L347.198 246.122V226.265L364.396 216.341L365.627 217.055L381.593 226.265Z" fill="#A3E0FF"/>
<path d="M381.593 226.265V246.122L364.443 256.027L348.485 246.808V226.951L365.627 217.055L381.593 226.265Z" fill="#48ADE0"/>
<path d="M364.656 227.247V240.247C364.656 240.247 359.439 232.747 354.645 236.805C349.851 240.863 355.137 248.605 367.06 244.672V231.638C367.06 231.638 370.502 234.838 373.82 232.499C377.138 230.16 377.02 228.319 377.02 228.319C377.02 228.319 374.808 231.392 372.841 228.688C370.874 225.984 366.677 224.818 364.656 227.247Z" fill="#C2EAFF"/>
<path d="M304.5 289.708C304.5 288.125 302.97 286.898 300.7 286.05C301.774 283.666 301.815 281.796 300.8 280.78C299.785 279.764 297.915 279.805 295.531 280.88C294.683 278.613 293.456 277.08 291.872 277.08C290.288 277.08 289.062 278.612 288.214 280.88C285.829 279.804 283.958 279.765 282.944 280.78C281.93 281.795 281.97 283.666 283.044 286.05C280.778 286.898 279.244 288.125 279.244 289.708C279.244 291.291 280.774 292.518 283.044 293.366C282.044 295.566 281.827 297.518 282.944 298.637C283.217 298.891 283.538 299.087 283.888 299.213C284.239 299.34 284.611 299.395 284.983 299.375C286.106 299.321 287.206 299.036 288.214 298.537C289.062 300.804 290.289 302.337 291.872 302.337C293.455 302.337 294.682 300.806 295.53 298.537C296.538 299.036 297.638 299.322 298.761 299.375C299.133 299.395 299.505 299.34 299.855 299.213C300.206 299.086 300.527 298.891 300.8 298.637C301.92 297.518 301.705 295.568 300.7 293.366C302.974 292.518 304.5 291.291 304.5 289.708ZM295.943 282.121C296.818 281.67 297.778 281.404 298.761 281.341C299.167 281.309 299.569 281.439 299.88 281.703C300.48 282.303 300.326 283.776 299.462 285.638C298.509 285.371 297.541 285.164 296.562 285.019C296.416 284.04 296.21 283.072 295.943 282.119V282.121ZM295.606 289.708C295.606 290.224 295.59 290.724 295.568 291.215C295.223 291.594 294.884 291.975 294.513 292.347C294.142 292.719 293.759 293.057 293.38 293.402C292.889 293.425 292.39 293.44 291.874 293.44C291.358 293.44 290.859 293.425 290.374 293.402C289.994 293.057 289.613 292.719 289.241 292.347C288.869 291.975 288.531 291.594 288.186 291.215C288.164 290.724 288.148 290.224 288.148 289.708C288.148 289.192 288.164 288.677 288.187 288.179C288.523 287.81 288.87 287.44 289.241 287.069C289.612 286.698 289.994 286.359 290.373 286.015C290.864 285.992 291.363 285.977 291.879 285.977C292.395 285.977 292.895 285.992 293.385 286.015C293.765 286.359 294.146 286.697 294.518 287.069C294.89 287.441 295.236 287.81 295.571 288.179C295.593 288.677 295.61 289.184 295.61 289.708H295.606ZM293.939 284.739C293.614 284.452 293.288 284.175 292.961 283.908C293.545 283.491 294.151 283.103 294.775 282.748C294.949 283.39 295.1 284.09 295.227 284.848C294.801 284.804 294.372 284.768 293.939 284.739ZM289.818 284.739C289.386 284.766 288.957 284.802 288.53 284.846C288.655 284.09 288.808 283.391 288.981 282.746C289.605 283.101 290.21 283.488 290.795 283.905C290.465 284.175 290.139 284.453 289.818 284.739V284.739ZM286.911 287.647C286.628 287.97 286.352 288.296 286.083 288.626C285.665 288.04 285.277 287.433 284.921 286.808C285.563 286.635 286.263 286.482 287.021 286.357C286.974 286.787 286.939 287.218 286.911 287.65V287.647ZM286.911 291.765C286.938 292.198 286.974 292.627 287.018 293.054C286.304 292.937 285.596 292.784 284.898 292.596C285.258 291.97 285.65 291.363 286.071 290.777C286.341 291.11 286.621 291.441 286.912 291.768L286.911 291.765ZM289.817 294.672C290.142 294.959 290.467 295.236 290.794 295.502C290.21 295.919 289.605 296.306 288.981 296.662C288.807 296.02 288.656 295.32 288.529 294.562C288.956 294.613 289.385 294.651 289.818 294.675L289.817 294.672ZM293.937 294.672C294.369 294.645 294.798 294.609 295.225 294.565C295.11 295.272 294.959 295.973 294.774 296.665C294.15 296.31 293.544 295.923 292.96 295.505C293.288 295.239 293.614 294.962 293.938 294.675L293.937 294.672ZM296.844 291.765C297.134 291.437 297.415 291.108 297.683 290.777C298.105 291.363 298.496 291.97 298.856 292.596C298.158 292.784 297.45 292.937 296.737 293.054C296.783 292.631 296.817 292.201 296.845 291.768L296.844 291.765ZM296.844 287.647C296.816 287.215 296.782 286.784 296.737 286.357C297.493 286.482 298.192 286.635 298.837 286.808C298.481 287.433 298.094 288.04 297.676 288.626C297.407 288.301 297.13 287.976 296.845 287.65L296.844 287.647ZM291.877 278.383C292.747 278.383 293.664 279.516 294.377 281.46C293.509 281.94 292.674 282.476 291.877 283.065C291.08 282.476 290.244 281.94 289.377 281.46C290.091 279.519 291.009 278.386 291.878 278.386L291.877 278.383ZM284.29 285.635C283.426 283.773 283.269 282.301 283.872 281.7C284.025 281.569 284.203 281.47 284.394 281.408C284.586 281.346 284.788 281.322 284.989 281.338C285.972 281.401 286.932 281.666 287.807 282.118C287.54 283.071 287.333 284.039 287.188 285.018C286.209 285.163 285.241 285.37 284.288 285.637L284.29 285.635ZM280.556 289.705C280.556 288.835 281.689 287.918 283.632 287.205C284.114 288.072 284.652 288.908 285.243 289.705C284.654 290.5 284.116 291.331 283.632 292.193C281.69 291.495 280.557 290.578 280.557 289.708L280.556 289.705ZM287.807 297.293C285.945 298.157 284.473 298.314 283.872 297.711C283.271 297.108 283.409 295.646 284.282 293.772C285.237 294.04 286.208 294.247 287.19 294.393C287.335 295.372 287.542 296.34 287.809 297.293H287.807ZM291.877 301.027C291.008 301.027 290.09 299.894 289.377 297.95C290.245 297.471 291.08 296.934 291.877 296.345C292.674 296.934 293.51 297.471 294.377 297.951C293.665 299.897 292.748 301.03 291.878 301.03L291.877 301.027ZM299.883 297.711C299.283 298.311 297.81 298.157 295.946 297.293C296.213 296.34 296.42 295.372 296.565 294.393C297.546 294.248 298.518 294.04 299.473 293.772C300.347 295.649 300.5 297.099 299.884 297.714L299.883 297.711ZM300.123 292.201C299.639 291.338 299.1 290.507 298.511 289.713C299.102 288.916 299.64 288.08 300.123 287.213C302.066 287.921 303.199 288.838 303.199 289.713C303.199 290.588 302.067 291.495 300.124 292.204L300.123 292.201Z" fill="#C2EAFF"/>
<path d="M291.878 288.596C291.658 288.596 291.442 288.661 291.259 288.783C291.076 288.905 290.933 289.079 290.849 289.282C290.764 289.486 290.742 289.71 290.785 289.926C290.828 290.142 290.934 290.34 291.09 290.496C291.246 290.651 291.444 290.757 291.66 290.8C291.876 290.843 292.1 290.821 292.303 290.737C292.507 290.652 292.681 290.51 292.803 290.326C292.925 290.143 292.99 289.928 292.99 289.708C292.99 289.413 292.873 289.13 292.664 288.921C292.456 288.713 292.173 288.596 291.878 288.596Z" fill="#A1DFFF"/>
<path d="M55.5669 463.901C53.6959 461.39 52.6853 458.342 52.6853 455.211C52.6853 452.079 53.6959 449.032 55.5669 446.521C62.1259 437.236 71.0669 436.521 73.6999 432.851C73.6999 432.851 78.2089 446.163 72.9889 453.806C65.5449 464.712 55.5669 463.901 55.5669 463.901Z" fill="#06628D"/>
<path d="M43.239 476.71C42.3418 472.924 40.4199 469.457 37.6836 466.69C34.9473 463.923 31.5023 461.963 27.726 461.024C14.411 457.515 2.91495 470.195 0.501953 470.136C3.51792 472.589 7.3535 473.805 11.2319 473.536C17.6679 473.036 22.326 481.905 28.744 482.525C37.747 483.393 43.239 476.71 43.239 476.71Z" fill="#06628D"/>
<path d="M34.2529 447.89C34.2529 447.89 32.9908 441.053 21.8528 442.614C15.0696 443.622 8.72694 446.584 3.59985 451.139C8.74497 451.42 13.8264 452.412 18.6998 454.086C26.5558 456.831 32.9918 451.54 34.3998 448.515L34.2529 447.89Z" fill="#06628D"/>
<path d="M38.7148 428.501C35.6068 424.237 30.9746 421.336 25.7818 420.401C16.8998 418.701 11.8818 420.23 11.8818 420.23C14.4137 423.763 16.6359 427.507 18.5238 431.422C21.4468 437.595 38.1738 438.402 38.7148 428.501Z" fill="#06628D"/>
<path d="M65.9389 487.378L62.789 487.368C59.7934 485.297 57.1896 482.71 55.099 479.728C50.8579 479.997 46.6244 479.098 42.8589 477.128C40.0577 475.689 37.4972 473.824 35.269 471.598C25.359 461.848 9.26895 467.578 9.10895 467.638L8.92896 467.128C9.08896 467.068 25.499 461.228 35.649 471.218C37.8706 473.441 40.4328 475.294 43.239 476.708C46.7805 478.543 50.7453 479.406 54.729 479.208C51.7068 474.767 49.3706 469.896 47.799 464.758C46.419 460.408 45.389 456.848 44.599 453.828C41.512 451.513 38.0663 449.719 34.399 448.518C27.1111 446.187 19.305 446.01 11.919 448.008L11.7489 447.498C19.1342 445.488 26.9398 445.627 34.2489 447.898C37.8785 449.044 41.3016 450.762 44.389 452.988C43.099 447.918 42.499 444.448 41.979 441.438C41.5481 438.559 40.9335 435.71 40.139 432.908C39.859 431.958 39.549 430.988 39.229 430.018C39.159 430.028 38.8889 430.058 38.4689 430.088C36.0189 430.278 28.359 430.538 24.519 426.918L24.889 426.528C28.619 430.038 36.409 429.708 38.589 429.528C38.799 429.518 38.949 429.508 39.049 429.498L38.7189 428.508C38.7152 428.504 38.7123 428.5 38.7106 428.495C38.7089 428.489 38.7083 428.484 38.709 428.478C38.599 428.158 38.499 427.838 38.389 427.528C36.379 421.648 34.0689 417.338 35.7489 413.758L36.279 413.318C34.319 418.468 37.519 421.338 39.419 426.918C40.029 428.708 41.1889 431.118 41.7189 432.918C42.4833 435.631 43.0712 438.39 43.479 441.178C44.7788 449.024 46.7084 456.752 49.2489 464.288C50.4637 468.182 52.1071 471.928 54.149 475.458C53.7981 471.384 54.1396 467.279 55.159 463.318C56.939 456.068 61.259 446.778 71.029 436.938L71.409 437.318C61.499 447.288 57.259 456.668 55.559 463.888C54.5202 468.038 54.2759 472.347 54.839 476.588C59.889 484.588 65.1689 487.048 65.9389 487.378Z" fill="#273137"/>
<path d="M591.623 412.982C591.623 412.982 601.274 404.145 611.538 411.395C621.802 418.645 621.729 438.095 621.729 438.095C621.729 438.095 616.024 433.352 609.88 432.838C603.736 432.324 584.335 420.951 591.623 412.982Z" fill="#88BDD1"/>
<path d="M580.357 463.064C580.357 463.064 579.351 453.426 585.397 449.415C591.443 445.404 602.773 444.203 605.297 441.973C605.297 441.973 606.077 452.962 599.834 458.473C593.591 463.984 583.162 465.239 580.357 463.064Z" fill="#88BDD1"/>
<path d="M566.692 445.2C566.692 445.2 565.254 449.587 558.184 448.215C551.114 446.843 542.601 440.347 539.724 440.372C539.724 440.372 546.487 435.567 554.245 436.829C562.003 438.091 566.577 441.986 566.692 445.2Z" fill="#88BDD1"/>
<path d="M571.637 433.282C571.637 433.282 564.014 435.156 559.786 431.156C555.558 427.156 553.005 416.234 552.586 415.944C552.167 415.654 568.251 418.83 571.902 426.423C575.553 434.016 571.637 433.282 571.637 433.282Z" fill="#63AAC6"/>
<path d="M563.341 399.258C563.341 399.258 562.587 402.088 556.164 401.7C549.741 401.312 543.689 405.459 539.643 407.356C535.597 409.253 522.543 406.826 522.409 406.684C522.275 406.542 523.073 403.696 528.651 401.174C534.229 398.652 538.832 389.517 547.17 389.979C555.508 390.441 563.049 395.155 563.341 399.258Z" fill="#63AAC6"/>
<path d="M564.3 464.975C563.916 461.487 562.358 458.233 559.88 455.748C557.403 453.263 554.155 451.693 550.668 451.298C537.868 449.341 532.668 456.124 532.668 456.124C532.668 456.124 539.145 462.157 545.775 464.252C552.405 466.347 560.6 466.419 564.3 464.975Z" fill="#63AAC6"/>
<path d="M616.329 427.939L616.249 428.029L616.169 428.239C616.099 428.209 616.079 428.179 615.639 427.609C607.809 417.489 600.069 412.449 593.269 413.059C592.586 413.119 591.911 413.24 591.249 413.419C586.669 414.629 582.589 418.599 579.109 425.249C579.009 426.129 578.899 427.099 578.739 428.139C578.569 429.279 578.429 430.399 578.289 431.489C577.699 436.219 577.229 439.969 574.639 441.289C574.569 452.449 574.389 463.698 574.199 472.908C575.766 469.345 577.841 466.027 580.359 463.059C582.861 460.043 585.582 457.215 588.499 454.598C594.759 448.938 600.769 444.959 601.449 444.859L601.499 445.189C600.889 445.289 588.849 453.128 580.599 463.218C577.893 466.395 575.725 469.992 574.179 473.869C574.059 480.289 573.929 485.638 573.839 489.158H572.479C572.559 486.178 572.659 481.829 572.769 476.609C571.209 471.689 567.659 467.928 563.829 465.148C561.877 463.737 559.806 462.499 557.639 461.449C549.309 457.379 540.969 456.158 540.459 456.348C540.472 456.344 540.483 456.336 540.492 456.325C540.501 456.315 540.507 456.302 540.509 456.289L540.199 456.149C540.259 456.019 540.399 455.969 540.979 455.999C546.483 456.758 551.84 458.346 556.869 460.709C559.452 461.895 561.911 463.336 564.209 465.009C568.045 467.638 571.028 471.334 572.789 475.639C572.929 468.969 573.069 460.968 573.169 452.598C572.069 449.678 569.559 447.349 566.559 445.499C559.399 441.099 549.439 439.519 549.289 439.499L549.339 439.169C549.489 439.189 559.449 440.769 566.689 445.199C569.447 446.709 571.703 448.993 573.179 451.769C573.259 445.369 573.299 438.779 573.299 432.429V431.209C569.802 428.535 566.16 426.058 562.389 423.788L562.559 423.499C566.265 425.734 569.85 428.164 573.299 430.779V430.119C573.299 423.209 573.229 416.649 573.069 410.999C570.376 406.675 567.091 402.75 563.309 399.339C559.479 396.019 555.589 394.109 551.669 393.629C549.58 393.371 547.461 393.547 545.443 394.144C543.425 394.741 541.552 395.746 539.939 397.098L539.699 396.848C541.351 395.466 543.27 394.438 545.336 393.827C547.401 393.216 549.571 393.036 551.709 393.299C555.619 393.779 559.479 395.635 563.289 398.869V398.879C567.073 402.22 570.362 406.082 573.059 410.348C572.849 402.988 572.479 397.239 571.909 394.379L573.239 394.109C574.519 400.489 574.779 418.559 574.649 438.969C576.949 437.659 576.979 436.009 577.549 431.479C577.679 430.389 577.819 429.269 577.989 428.119C578.199 426.739 578.339 425.499 578.459 424.409C578.686 420.61 580.068 416.971 582.419 413.979C585.969 409.179 587.259 400.379 587.269 400.289L587.599 400.339C587.589 400.429 586.289 409.309 582.689 414.179C579.919 417.929 579.629 420.499 579.209 424.369C582.769 417.859 586.929 414.029 591.619 412.979C592.152 412.851 592.693 412.765 593.239 412.719C600.159 412.109 607.999 417.179 615.899 427.399C616.109 427.669 616.289 427.909 616.329 427.939Z" fill="#273137"/>
<path d="M527.878 38.6783C527.191 39.7785 526.205 40.6595 525.034 41.2173C523.611 41.8865 522.051 42.2113 520.48 42.1653C518.112 42.2621 515.778 41.5718 513.844 40.2023C512.988 39.561 512.287 38.7347 511.795 37.785C511.302 36.8353 511.031 35.7866 511 34.7173H517.162C517.207 35.5236 517.551 36.2841 518.127 36.8503C518.702 37.3781 519.463 37.658 520.243 37.6293C520.887 37.6654 521.52 37.4463 522.004 37.0193C522.22 36.8091 522.388 36.5556 522.499 36.2756C522.61 35.9955 522.66 35.6952 522.647 35.3943C522.655 35.1136 522.607 34.8341 522.505 34.5723C522.404 34.3106 522.251 34.0718 522.055 33.8703C521.632 33.4458 521.132 33.1063 520.582 32.8703C519.994 32.611 519.181 32.3006 518.143 31.9393C516.875 31.5203 515.637 31.0172 514.436 30.4333C513.448 29.923 512.6 29.1791 511.965 28.2663C511.281 27.1456 510.923 25.8562 510.932 24.5432C510.941 23.2302 511.316 21.9457 512.015 20.8343C512.769 19.7707 513.809 18.9429 515.015 18.4473C516.404 17.8721 517.896 17.5895 519.399 17.6173C521.671 17.4969 523.915 18.1684 525.748 19.5173C526.528 20.1537 527.167 20.9459 527.624 21.8431C528.08 22.7404 528.345 23.723 528.4 24.7283H522.14C522.066 24.0239 521.762 23.3635 521.275 22.8493C521.025 22.6124 520.73 22.4287 520.407 22.3094C520.084 22.1901 519.74 22.1377 519.396 22.1553C518.801 22.1278 518.217 22.3208 517.755 22.6973C517.539 22.8991 517.37 23.1467 517.262 23.4219C517.153 23.6972 517.108 23.9932 517.128 24.2883C517.116 24.8229 517.317 25.3405 517.686 25.7273C518.085 26.1405 518.563 26.4688 519.092 26.6923C519.656 26.9416 520.468 27.2576 521.529 27.6403C522.819 28.0585 524.076 28.5736 525.288 29.1813C526.286 29.7135 527.144 30.4734 527.794 31.3993C528.537 32.52 528.904 33.848 528.843 35.1913C528.852 36.4208 528.518 37.6286 527.878 38.6783V38.6783Z" fill="#C2EBFF"/>
<path d="M543.334 34.3957L552.983 46.6187H545.974L537.849 35.8857V46.6187H532.059V22.6807H537.849V33.2107L546.043 22.6807H552.983L543.334 34.3957Z" fill="#C2EBFF"/>
<path d="M561.211 27.251V51.189H555.422V27.251H561.211Z" fill="#C2EBFF"/>
<path d="M571 49.3243H578.72V53.7603H565.206V29.8223H571V49.3243Z" fill="#C2EBFF"/>
<path d="M599.182 40.8428C600.023 41.8869 600.473 43.1923 600.452 44.5328C600.498 45.4371 600.337 46.3399 599.982 47.1726C599.626 48.0053 599.085 48.7458 598.4 49.3378C596.708 50.5912 594.626 51.2029 592.525 51.0638H581.39V27.1298H592.259C594.27 27.0033 596.264 27.5647 597.913 28.7218C598.581 29.2669 599.11 29.962 599.457 30.7505C599.805 31.539 599.961 32.3985 599.913 33.2588C599.959 34.5577 599.553 35.8321 598.762 36.8638C598.003 37.8179 596.939 38.4817 595.748 38.7438C597.101 39.0264 598.314 39.768 599.182 40.8428V40.8428ZM587.182 36.9148H590.974C592.982 36.9148 593.986 36.0572 593.987 34.3418C593.988 32.6265 592.959 31.7688 590.9 31.7688H587.18L587.182 36.9148ZM594.529 43.7208C594.549 43.343 594.483 42.9656 594.336 42.6168C594.19 42.2679 593.966 41.9566 593.683 41.7058C592.996 41.181 592.141 40.9224 591.278 40.9778H587.178V46.3618H591.308C593.455 46.3618 594.528 45.4815 594.527 43.7208H594.529Z" fill="#C2EBFF"/>
<path d="M609.289 24.0674V48.0054H603.5V24.0674H609.289Z" fill="#C2EBFF"/>
<g style="mix-blend-mode:multiply" opacity="0.29">
<path d="M620.589 23.1484V68.0384C620.589 68.0384 586.169 83.6284 549.609 69.6284C517.439 57.3084 502.199 73.7084 502.199 73.7084L501.729 61.6784C511.549 57.2084 525.779 53.7584 546.319 53.7584C586.589 53.7584 609.939 34.5284 620.589 23.1484Z" fill="#4B9BBF"/>
</g>
</svg>
