<svg width="16" height="16" viewBox="0 0 16 16" fill="none" xmlns="http://www.w3.org/2000/svg">
<path d="M6.60002 2.82676C7.05891 2.71935 7.52873 2.66566 8.00002 2.66676C12.6667 2.66676 15.3334 8.0001 15.3334 8.0001C14.9287 8.75717 14.4461 9.46992 13.8934 10.1268M9.41335 9.41343C9.23025 9.60993 9.00945 9.76754 8.76412 9.87685C8.51879 9.98616 8.25395 10.0449 7.98541 10.0497C7.71687 10.0544 7.45013 10.005 7.20109 9.90443C6.95206 9.80384 6.72583 9.65412 6.53592 9.4642C6.346 9.27428 6.19628 9.04806 6.09569 8.79902C5.9951 8.54999 5.9457 8.28325 5.95044 8.0147C5.95518 7.74616 6.01396 7.48133 6.12327 7.236C6.23258 6.99067 6.39019 6.76986 6.58669 6.58677M11.96 11.9601C10.8204 12.8288 9.43276 13.31 8.00002 13.3334C3.33335 13.3334 0.666687 8.0001 0.666687 8.0001C1.49595 6.4547 2.64611 5.1045 4.04002 4.0401L11.96 11.9601Z" stroke="black" stroke-linecap="round" stroke-linejoin="round"/>
<path d="M0.666687 0.666748L15.3334 15.3334" stroke="black" stroke-linecap="round" stroke-linejoin="round"/>
</svg>
