<svg width="21" height="22" viewBox="0 0 21 22" fill="none" xmlns="http://www.w3.org/2000/svg">
<path d="M17 19C17 19.5304 16.7893 20.0391 16.4142 20.4142C16.0391 20.7893 15.5304 21 15 21H3C2.46957 21 1.96086 20.7893 1.58579 20.4142C1.21071 20.0391 1 19.5304 1 19V11V3C1 2.46957 1.21071 1.96086 1.58579 1.58579C1.96086 1.21071 2.46957 1 3 1H10L17 8V11" stroke="black" stroke-linecap="round" stroke-linejoin="round"/>
<path d="M10 1V8H17" stroke="black" stroke-linecap="round" stroke-linejoin="round"/>
<path d="M9.494 15.0865C9.494 15.4575 9.43217 15.7982 9.3085 16.1085C9.18483 16.4188 9.011 16.686 8.787 16.91C8.563 17.134 8.2935 17.3078 7.9785 17.4315C7.6635 17.5552 7.31467 17.617 6.932 17.617H5V12.556H6.932C7.31467 12.556 7.6635 12.619 7.9785 12.745C8.2935 12.8687 8.563 13.0425 8.787 13.2665C9.011 13.4882 9.18483 13.7542 9.3085 14.0645C9.43217 14.3748 9.494 14.7155 9.494 15.0865ZM8.5315 15.0865C8.5315 14.8088 8.49417 14.5603 8.4195 14.341C8.34483 14.1193 8.23867 13.9327 8.101 13.781C7.96333 13.627 7.79533 13.5092 7.597 13.4275C7.401 13.3458 7.17933 13.305 6.932 13.305H5.9485V16.868H6.932C7.17933 16.868 7.401 16.8272 7.597 16.7455C7.79533 16.6638 7.96333 16.5472 8.101 16.3955C8.23867 16.2415 8.34483 16.0548 8.4195 15.8355C8.49417 15.6138 8.5315 15.3642 8.5315 15.0865Z" fill="black"/>
<path d="M15.294 15.0865C15.294 15.4575 15.2322 15.8017 15.1085 16.119C14.9848 16.434 14.811 16.707 14.587 16.938C14.363 17.169 14.0935 17.3498 13.7785 17.4805C13.4635 17.6088 13.1147 17.673 12.732 17.673C12.3493 17.673 11.9993 17.6088 11.682 17.4805C11.367 17.3498 11.0963 17.169 10.87 16.938C10.646 16.707 10.4722 16.434 10.3485 16.119C10.2248 15.8017 10.163 15.4575 10.163 15.0865C10.163 14.7155 10.2248 14.3725 10.3485 14.0575C10.4722 13.7402 10.646 13.466 10.87 13.235C11.0963 13.004 11.367 12.8243 11.682 12.696C11.9993 12.5653 12.3493 12.5 12.732 12.5C13.1147 12.5 13.4635 12.5653 13.7785 12.696C14.0935 12.8267 14.363 13.0075 14.587 13.2385C14.811 13.4672 14.9848 13.7402 15.1085 14.0575C15.2322 14.3725 15.294 14.7155 15.294 15.0865ZM14.328 15.0865C14.328 14.8088 14.2907 14.5603 14.216 14.341C14.1437 14.1193 14.0387 13.9315 13.901 13.7775C13.7633 13.6235 13.5953 13.5057 13.397 13.424C13.201 13.3423 12.9793 13.3015 12.732 13.3015C12.4847 13.3015 12.2618 13.3423 12.0635 13.424C11.8652 13.5057 11.696 13.6235 11.556 13.7775C11.4183 13.9315 11.3122 14.1193 11.2375 14.341C11.1628 14.5603 11.1255 14.8088 11.1255 15.0865C11.1255 15.3642 11.1628 15.6138 11.2375 15.8355C11.3122 16.0548 11.4183 16.2415 11.556 16.3955C11.696 16.5472 11.8652 16.6638 12.0635 16.7455C12.2618 16.8272 12.4847 16.868 12.732 16.868C12.9793 16.868 13.201 16.8272 13.397 16.7455C13.5953 16.6638 13.7633 16.5472 13.901 16.3955C14.0387 16.2415 14.1437 16.0548 14.216 15.8355C14.2907 15.6138 14.328 15.3642 14.328 15.0865Z" fill="black"/>
<path d="M19.7271 16.4235C19.7785 16.4235 19.8228 16.4433 19.8601 16.483L20.2311 16.8855C20.0258 17.1398 19.7726 17.3347 19.4716 17.47C19.173 17.6053 18.8136 17.673 18.3936 17.673C18.018 17.673 17.6796 17.6088 17.3786 17.4805C17.08 17.3522 16.8245 17.1737 16.6121 16.945C16.3998 16.7163 16.2365 16.4433 16.1221 16.126C16.0101 15.8087 15.9541 15.4622 15.9541 15.0865C15.9541 14.7062 16.0171 14.3585 16.1431 14.0435C16.2691 13.7262 16.4465 13.4532 16.6751 13.2245C16.9038 12.9958 17.1768 12.8185 17.4941 12.6925C17.8138 12.5642 18.1661 12.5 18.5511 12.5C18.9268 12.5 19.2546 12.5607 19.5346 12.682C19.817 12.801 20.0585 12.9597 20.2591 13.158L19.9441 13.5955C19.9255 13.6235 19.901 13.648 19.8706 13.669C19.8426 13.69 19.803 13.7005 19.7516 13.7005C19.698 13.7005 19.6431 13.6795 19.5871 13.6375C19.5311 13.5955 19.46 13.55 19.3736 13.501C19.2873 13.452 19.1776 13.4065 19.0446 13.3645C18.914 13.3225 18.7471 13.3015 18.5441 13.3015C18.3061 13.3015 18.0868 13.3435 17.8861 13.4275C17.6878 13.5092 17.5163 13.627 17.3716 13.781C17.2293 13.935 17.1173 14.1228 17.0356 14.3445C16.9563 14.5638 16.9166 14.8112 16.9166 15.0865C16.9166 15.3712 16.9563 15.6243 17.0356 15.846C17.1173 16.0677 17.227 16.2543 17.3646 16.406C17.5023 16.5577 17.6645 16.6743 17.8511 16.756C18.0378 16.8353 18.2385 16.875 18.4531 16.875C18.5815 16.875 18.697 16.868 18.7996 16.854C18.9046 16.84 19.0003 16.8178 19.0866 16.7875C19.1753 16.7572 19.2581 16.7187 19.3351 16.672C19.4145 16.623 19.4926 16.5635 19.5696 16.4935C19.593 16.4725 19.6175 16.4562 19.6431 16.4445C19.6688 16.4305 19.6968 16.4235 19.7271 16.4235Z" fill="black"/>
</svg>
