<svg width="20" height="22" viewBox="0 0 20 22" fill="none" xmlns="http://www.w3.org/2000/svg">
<path d="M17 19C17 19.5304 16.7893 20.0391 16.4142 20.4142C16.0391 20.7893 15.5304 21 15 21H3C2.46957 21 1.96086 20.7893 1.58579 20.4142C1.21071 20.0391 1 19.5304 1 19V11V3C1 2.46957 1.21071 1.96086 1.58579 1.58579C1.96086 1.21071 2.46957 1 3 1H10L17 8V11" stroke="black" stroke-linecap="round" stroke-linejoin="round"/>
<path d="M10 1V8H17" stroke="black" stroke-linecap="round" stroke-linejoin="round"/>
<path d="M6.9415 15.719V17.5005H6V12.4395H7.6485C7.98683 12.4395 8.27967 12.4791 8.527 12.5585C8.77433 12.6378 8.9785 12.7486 9.1395 12.891C9.3005 13.0333 9.4195 13.2036 9.4965 13.402C9.5735 13.6003 9.612 13.8173 9.612 14.053C9.612 14.298 9.57117 14.5231 9.4895 14.7285C9.40783 14.9315 9.28533 15.1065 9.122 15.2535C8.95867 15.4005 8.7545 15.5148 8.5095 15.5965C8.2645 15.6781 7.9775 15.719 7.6485 15.719H6.9415ZM6.9415 14.984H7.6485C7.82117 14.984 7.97167 14.963 8.1 14.921C8.22833 14.8766 8.3345 14.8148 8.4185 14.7355C8.5025 14.6538 8.5655 14.5558 8.6075 14.4415C8.6495 14.3248 8.6705 14.1953 8.6705 14.053C8.6705 13.9176 8.6495 13.7951 8.6075 13.6855C8.5655 13.5758 8.5025 13.4825 8.4185 13.4055C8.3345 13.3285 8.22833 13.2701 8.1 13.2305C7.97167 13.1885 7.82117 13.1675 7.6485 13.1675H6.9415V14.984Z" fill="black"/>
<path d="M15.0475 14.97C15.0475 15.341 14.9857 15.6816 14.862 15.992C14.7383 16.3023 14.5645 16.5695 14.3405 16.7935C14.1165 17.0175 13.847 17.1913 13.532 17.315C13.217 17.4386 12.8682 17.5005 12.4855 17.5005H10.5535V12.4395H12.4855C12.8682 12.4395 13.217 12.5025 13.532 12.6285C13.847 12.7521 14.1165 12.926 14.3405 13.15C14.5645 13.3716 14.7383 13.6376 14.862 13.948C14.9857 14.2583 15.0475 14.599 15.0475 14.97ZM14.085 14.97C14.085 14.6923 14.0477 14.4438 13.973 14.2245C13.8983 14.0028 13.7922 13.8161 13.6545 13.6645C13.5168 13.5105 13.3488 13.3926 13.1505 13.311C12.9545 13.2293 12.7328 13.1885 12.4855 13.1885H11.502V16.7515H12.4855C12.7328 16.7515 12.9545 16.7106 13.1505 16.629C13.3488 16.5473 13.5168 16.4306 13.6545 16.279C13.7922 16.125 13.8983 15.9383 13.973 15.719C14.0477 15.4973 14.085 15.2476 14.085 14.97Z" fill="black"/>
<path d="M19.185 12.4395V13.1885H16.9415V14.6865H18.835V15.439H16.9415V17.5005H15.993V12.4395H19.185Z" fill="black"/>
</svg>
