<svg width="506" height="366" viewBox="0 0 506 366" fill="none" xmlns="http://www.w3.org/2000/svg">
<path d="M481.846 332.957H18.7203C18.7203 332.957 -5.96465 315.534 8.94835 281.967C10.311 278.919 11.8671 275.962 13.6073 273.112C13.7833 272.834 13.9593 272.547 14.1443 272.26C14.9783 270.907 15.8953 269.518 16.8673 268.119C17.2103 267.628 17.5533 267.128 17.8773 266.647C46.2023 225.058 33.4193 205.662 23.3513 171.789C13.1623 137.518 42.8023 95.8365 79.8513 93.9895C116.9 92.1425 109.491 43.9715 151.173 28.2255C192.855 12.4795 218.789 37.4875 238.241 31.0045C257.693 24.5215 287.332 -19.0135 358.653 9.70448C429.974 38.4225 419.323 83.9525 434.606 102.329C449.778 120.567 490.959 134.146 489.255 177.356C487.69 217.194 468.877 246.824 481.845 264.423C494.813 282.022 507.781 307.95 481.846 332.957Z" fill="#D4F2FF"/>
<path d="M481.846 332.957C481.846 332.957 437.59 365.317 237.888 365.317C38.186 365.317 16.356 330.528 16.356 330.528L481.846 332.957Z" fill="#90C0D4"/>
<path d="M395.3 335.462C395.016 335.473 387.232 340.037 386.941 339.862C386.65 339.687 379.793 341.275 379.793 341.275C378.905 341.692 378.165 342.37 377.672 343.219C377.18 344.067 376.959 345.046 377.038 346.024L379.262 347.17L403.391 346.242C403.391 346.242 404.406 338.148 403.317 336.958L395.3 335.462Z" fill="#EDECEA"/>
<path d="M410.731 336.504C410.447 336.515 402.663 341.078 402.371 340.904C402.079 340.73 395.224 342.316 395.224 342.316C394.335 342.733 393.595 343.411 393.103 344.26C392.611 345.108 392.389 346.087 392.469 347.065L394.693 348.212L416.48 347.374C417.139 347.349 417.766 347.082 418.242 346.626C418.718 346.17 419.011 345.556 419.065 344.898C419.277 342.411 419.451 338.768 418.748 337.998L410.731 336.504Z" fill="#EDECEA"/>
<path d="M257.036 261.545H217.873C215.132 261.545 212.909 263.768 212.909 266.509V314.009C212.909 316.751 215.132 318.973 217.873 318.973H257.036C259.778 318.973 262 316.751 262 314.009V266.509C262 263.768 259.778 261.545 257.036 261.545Z" fill="#0A3242"/>
<path d="M287.042 332.866H187.866C187.262 332.866 186.664 332.747 186.106 332.516C185.548 332.285 185.041 331.946 184.613 331.519C184.186 331.092 183.847 330.585 183.616 330.027C183.385 329.469 183.266 328.871 183.266 328.266L186.044 318.936C186.044 318.332 186.163 317.734 186.394 317.176C186.625 316.618 186.964 316.111 187.391 315.684C187.819 315.257 188.326 314.918 188.884 314.687C189.442 314.455 190.04 314.336 190.644 314.336H284.263C284.867 314.336 285.465 314.455 286.023 314.687C286.582 314.918 287.089 315.257 287.516 315.684C287.943 316.111 288.282 316.618 288.513 317.176C288.744 317.734 288.863 318.332 288.863 318.936L291.642 328.266C291.642 328.871 291.523 329.469 291.292 330.027C291.061 330.585 290.722 331.092 290.295 331.519C289.868 331.946 289.361 332.285 288.802 332.516C288.244 332.747 287.646 332.866 287.042 332.866V332.866Z" fill="#0A3242"/>
<path d="M258.3 266.139V314.378C258.3 314.982 258.181 315.579 257.951 316.137C257.72 316.694 257.381 317.201 256.955 317.628C256.528 318.054 256.022 318.393 255.464 318.624C254.907 318.855 254.309 318.973 253.706 318.973H213.8C213.197 318.973 212.599 318.855 212.042 318.624C211.484 318.393 210.978 318.054 210.551 317.628C210.125 317.201 209.786 316.694 209.555 316.137C209.325 315.579 209.206 314.982 209.206 314.378V266.139C209.206 265.536 209.325 264.939 209.555 264.381C209.786 263.824 210.125 263.317 210.551 262.891C210.978 262.464 211.484 262.126 212.042 261.895C212.599 261.664 213.197 261.545 213.8 261.545H253.7C254.833 261.545 255.926 261.963 256.769 262.72C257.612 263.477 258.145 264.519 258.266 265.645C258.287 265.809 258.298 265.974 258.3 266.139V266.139Z" fill="#0B6285"/>
<path d="M283.337 332.866H184.161C183.557 332.866 182.959 332.747 182.401 332.516C181.843 332.285 181.335 331.946 180.908 331.519C180.481 331.092 180.142 330.585 179.911 330.027C179.68 329.469 179.561 328.871 179.561 328.266L182.339 318.936C182.339 318.332 182.458 317.734 182.689 317.176C182.92 316.618 183.259 316.111 183.686 315.684C184.113 315.257 184.621 314.918 185.179 314.687C185.737 314.455 186.335 314.336 186.939 314.336H280.558C281.162 314.336 281.76 314.455 282.318 314.687C282.876 314.918 283.384 315.257 283.811 315.684C284.238 316.111 284.577 316.618 284.808 317.176C285.039 317.734 285.158 318.332 285.158 318.936L287.937 328.266C287.937 328.871 287.818 329.469 287.587 330.027C287.356 330.585 287.017 331.092 286.59 331.519C286.163 331.946 285.655 332.285 285.097 332.516C284.539 332.747 283.941 332.866 283.337 332.866V332.866Z" fill="#03658C"/>
<g style="mix-blend-mode:multiply" opacity="0.37">
<path d="M258.3 266.14V293.205C243.536 287.814 218.128 285.97 209.209 285.504V276.511L212.909 266.137C219.781 262.756 242.66 262.488 248.643 263.192C251.918 263.719 255.139 264.541 258.267 265.646C258.288 265.809 258.299 265.974 258.3 266.14Z" fill="#00638C"/>
</g>
<path d="M371.7 108.714H100.973C98.2317 108.714 96.0093 110.936 96.0093 113.678V275.107C96.0093 277.848 98.2317 280.07 100.973 280.07H371.7C374.442 280.07 376.664 277.848 376.664 275.107V113.678C376.664 110.936 374.442 108.714 371.7 108.714Z" fill="#0A3242"/>
<path d="M369.113 108.714H98.3864C95.6448 108.714 93.4224 110.936 93.4224 113.678V275.107C93.4224 277.848 95.6448 280.07 98.3864 280.07H369.113C371.855 280.07 374.077 277.848 374.077 275.107V113.678C374.077 110.936 371.855 108.714 369.113 108.714Z" fill="#03658C"/>
<path d="M357.997 115.5H109.501C106.76 115.5 104.537 117.723 104.537 120.464V262.186C104.537 264.927 106.76 267.149 109.501 267.149H357.997C360.739 267.149 362.961 264.927 362.961 262.186V120.464C362.961 117.723 360.739 115.5 357.997 115.5Z" fill="#A8E6FF"/>
<path d="M115.98 245.2L115.325 244.545C115.971 243.898 122.773 232.721 127.23 225.293V204.58H154.092V219.4H170.3V220.327H153.165V205.507H128.156V225.55L128.09 225.659C126.95 227.557 116.919 244.257 115.98 245.2Z" fill="#3198BF"/>
<path d="M132.332 220.791H123.056C122.036 220.791 121.21 221.617 121.21 222.637V229.134C121.21 230.153 122.036 230.98 123.056 230.98H132.332C133.351 230.98 134.178 230.153 134.178 229.134V222.637C134.178 221.617 133.351 220.791 132.332 220.791Z" fill="white"/>
<path d="M118.565 243.021H113.581C112.679 243.021 111.947 243.752 111.947 244.655V247.871C111.947 248.773 112.679 249.504 113.581 249.504H118.565C119.468 249.504 120.199 248.773 120.199 247.871V244.655C120.199 243.752 119.468 243.021 118.565 243.021Z" fill="white"/>
<path d="M157.625 200.412H149.632C148.77 200.412 148.071 201.111 148.071 201.973V209.04C148.071 209.903 148.77 210.601 149.632 210.601H157.625C158.487 210.601 159.186 209.903 159.186 209.04V201.973C159.186 201.111 158.487 200.412 157.625 200.412Z" fill="white"/>
<path d="M173.5 217.085H167.101C166.915 217.085 166.764 217.236 166.764 217.422V223.232C166.764 223.419 166.915 223.569 167.101 223.569H173.5C173.686 223.569 173.837 223.419 173.837 223.232V217.422C173.837 217.236 173.686 217.085 173.5 217.085Z" fill="white"/>
<path d="M130.472 169.847H180.49C180.49 169.847 183.269 166.147 180.49 162.437C180.156 161.937 179.724 161.511 179.221 161.182C178.718 160.854 178.154 160.63 177.562 160.525C176.971 160.42 176.364 160.436 175.779 160.571C175.194 160.706 174.642 160.959 174.156 161.313C174.156 161.313 175.517 158.289 172.342 154.813C169.167 151.337 165.236 154.513 165.236 154.513C165.236 154.513 164.48 144.686 153.444 144.686C142.408 144.686 141.651 156.328 141.651 156.328C141.651 156.328 135.604 156.028 132.127 160.41C131.118 161.736 130.441 163.285 130.153 164.927C129.865 166.569 129.974 168.256 130.472 169.847V169.847Z" fill="white"/>
<path d="M112.404 125.078V126.005H133.158L147.855 140.702L148.51 140.047L133.542 125.078H112.404Z" fill="#3198BF"/>
<path d="M129.103 129.063H113.187V130.225H129.103V129.063Z" fill="#3198BF"/>
<path d="M129.103 134.176H113.187V135.338H129.103V134.176Z" fill="#3198BF"/>
<path d="M129.103 139.286H113.187V140.449H129.103V139.286Z" fill="#3198BF"/>
<path d="M237.218 84.5365L184.149 113.426L188.232 176.708C207.282 206.286 237.218 214.197 237.218 214.197C237.218 214.197 267.155 206.286 286.205 176.708L290.287 113.426L237.218 84.5365Z" fill="#3995B8"/>
<path d="M285.036 118.042L281.359 174.441C264.195 200.802 237.223 207.852 237.223 207.852C232.102 206.314 227.171 204.205 222.523 201.562C221.226 200.849 219.883 200.056 218.494 199.182C214.654 196.787 211.011 194.09 207.601 191.115C205.906 189.633 204.201 188.03 202.535 186.298C199.755 183.427 197.198 180.349 194.884 177.09C194.272 176.229 193.67 175.349 193.078 174.441L191.778 154.542L189.397 118.042L237.22 92.2915L242.92 95.3575L253.554 101.09L259.13 104.09L265.289 107.406L270.124 110.007L278.507 114.527L285.036 118.042Z" fill="#39AFDB"/>
<path d="M285.04 115.377L281.36 171.777C264.2 198.137 237.22 205.187 237.22 205.187C232.1 203.649 227.169 201.539 222.52 198.897C221.23 198.187 219.88 197.387 218.49 196.517C215.547 194.682 212.718 192.668 210.02 190.487C209.22 189.837 208.41 189.167 207.6 188.457C206.3 187.317 204.99 186.107 203.7 184.817C203.31 184.437 202.92 184.037 202.53 183.637C199.754 180.763 197.197 177.684 194.88 174.427C194.27 173.567 193.67 172.687 193.08 171.777L192.85 168.237L191.94 154.357L191.78 151.887L189.4 115.377L237.22 89.6274L242.92 92.6974L244.37 93.4774L253.55 98.4274L255.01 99.2074L259.13 101.427L265.29 104.747L266.74 105.527L270.12 107.347L278.51 111.867L279.97 112.647L285.04 115.377Z" fill="#6CD5FC"/>
<path d="M213.054 92.7065L195.25 74.9015H127.309V73.9755H195.633L213.709 92.0515L213.054 92.7065Z" fill="#3793B8"/>
<path d="M149.932 78.6534H127.385V79.8294H149.932V78.6534Z" fill="#3793B8"/>
<path d="M145.986 83.5315H127.385V84.7075H145.986V83.5315Z" fill="#3793B8"/>
<path d="M141.15 88.4094H127.385V89.5854H141.15V88.4094Z" fill="#3793B8"/>
<path d="M263.455 92.7065L281.26 74.9015H349.2V73.9755H280.876L262.8 92.0515L263.455 92.7065Z" fill="#3793B8"/>
<path d="M326.577 79.8304H349.124V78.6544H326.577V79.8304Z" fill="#3793B8"/>
<path d="M330.523 84.7085H349.124V83.5325H330.523V84.7085Z" fill="#3793B8"/>
<path d="M335.359 89.5854H349.124V88.4095H335.359V89.5854Z" fill="#3793B8"/>
<path d="M238.654 115.357H236.846C234.989 115.357 233.15 115.723 231.435 116.434C229.719 117.145 228.16 118.186 226.847 119.499C225.534 120.812 224.493 122.371 223.782 124.087C223.072 125.803 222.706 127.641 222.706 129.498V147.288H252.8V129.498C252.8 127.641 252.434 125.802 251.723 124.086C251.012 122.37 249.97 120.811 248.656 119.497C247.343 118.184 245.783 117.143 244.067 116.432C242.351 115.722 240.511 115.357 238.654 115.357ZM248.065 142.269H227.435V130.069C227.436 127.499 228.458 125.033 230.276 123.215C232.094 121.398 234.559 120.376 237.13 120.374H238.37C240.941 120.376 243.406 121.398 245.224 123.215C247.042 125.033 248.064 127.499 248.065 130.069V142.269Z" fill="#3995B8"/>
<path d="M129.081 62.8014L132.139 59.7444L137.885 65.4914L150.337 53.0394V58.6024L137.646 71.2934L129.081 62.8014Z" fill="#3793B8"/>
<path d="M345.405 54.3025C344.187 54.3577 343.023 54.822 342.101 55.6203C341.178 56.4187 340.552 57.5045 340.323 58.7025H322.768C322.717 58.6448 322.654 58.5984 322.584 58.5662C322.514 58.5341 322.438 58.5168 322.36 58.5155H314.239C313.549 58.5608 312.904 58.8772 312.446 59.3956C311.988 59.9141 311.753 60.5927 311.793 61.2835V64.9745C311.759 65.2525 311.784 65.5347 311.867 65.8023C311.95 66.0699 312.088 66.3168 312.274 66.5268C312.459 66.7367 312.687 66.9048 312.943 67.0199C313.198 67.135 313.475 67.1946 313.755 67.1946C314.035 67.1946 314.312 67.135 314.568 67.0199C314.823 66.9048 315.051 66.7367 315.237 66.5268C315.422 66.3168 315.561 66.0699 315.644 65.8023C315.727 65.5347 315.752 65.2525 315.717 64.9745V62.9745C315.702 62.8668 315.709 62.757 315.74 62.6525C315.77 62.5481 315.823 62.4514 315.894 62.369C315.965 62.2867 316.053 62.2206 316.152 62.1754C316.251 62.1301 316.359 62.1067 316.467 62.1067C316.576 62.1067 316.684 62.1301 316.783 62.1754C316.882 62.2206 316.97 62.2867 317.041 62.369C317.112 62.4514 317.165 62.5481 317.195 62.6525C317.225 62.757 317.233 62.8668 317.217 62.9745V64.0115C317.196 64.1865 317.212 64.3639 317.265 64.5322C317.317 64.7004 317.405 64.8556 317.522 64.9875C317.639 65.1194 317.782 65.225 317.943 65.2973C318.104 65.3696 318.278 65.407 318.454 65.407C318.631 65.407 318.805 65.3696 318.966 65.2973C319.126 65.225 319.27 65.1194 319.387 64.9875C319.504 64.8556 319.591 64.7004 319.644 64.5322C319.696 64.3639 319.712 64.1865 319.691 64.0115V62.1225H322.355C322.453 62.1189 322.548 62.0904 322.632 62.0396C322.716 61.9889 322.785 61.9176 322.833 61.8325H340.318C340.547 63.0305 341.173 64.1163 342.096 64.9147C343.018 65.713 344.182 66.1773 345.4 66.2325C348.312 66.2325 350.672 63.5615 350.672 60.2655C350.672 56.9695 348.317 54.3025 345.405 54.3025ZM345.405 63.3855C344.773 63.4639 344.132 63.3479 343.567 63.0529C343.002 62.758 342.54 62.2981 342.243 61.7344C341.945 61.1706 341.827 60.5298 341.903 59.897C341.978 59.2643 342.245 58.6696 342.667 58.192C343.089 57.7144 343.646 57.3765 344.265 57.2233C344.883 57.0702 345.534 57.1089 346.13 57.3344C346.726 57.5599 347.239 57.9615 347.602 58.4858C347.964 59.0101 348.158 59.6322 348.158 60.2695C348.204 61.0471 347.94 61.811 347.424 62.3947C346.908 62.9784 346.183 63.3345 345.405 63.3855V63.3855Z" fill="#3793B8"/>
<path d="M258.61 141.651H216.891C215.832 141.651 214.974 142.51 214.974 143.568V178.479C214.974 179.538 215.832 180.396 216.891 180.396H258.61C259.669 180.396 260.527 179.538 260.527 178.479V143.568C260.527 142.51 259.669 141.651 258.61 141.651Z" fill="white"/>
<path d="M235.483 158.666H240.916V169.666C240.916 170.387 240.63 171.078 240.121 171.587C239.612 172.096 238.921 172.382 238.2 172.382V172.382C237.843 172.383 237.489 172.312 237.159 172.175C236.828 172.038 236.529 171.837 236.276 171.584C236.024 171.331 235.824 171.03 235.688 170.7C235.552 170.369 235.482 170.015 235.483 169.657V158.657V158.666Z" fill="#3995B8"/>
<path d="M238.458 161.512C241.602 161.512 244.15 158.964 244.15 155.82C244.15 152.677 241.602 150.128 238.458 150.128C235.315 150.128 232.766 152.677 232.766 155.82C232.766 158.964 235.315 161.512 238.458 161.512Z" fill="#3995B8"/>
<path d="M350.68 190.444V211.989C350.68 212.111 350.656 212.232 350.61 212.345C350.563 212.457 350.495 212.56 350.409 212.646C350.322 212.732 350.22 212.8 350.107 212.847C349.995 212.894 349.874 212.918 349.752 212.917H314.544C314.422 212.918 314.302 212.894 314.189 212.847C314.076 212.8 313.974 212.732 313.888 212.646C313.802 212.56 313.734 212.457 313.687 212.345C313.641 212.232 313.617 212.111 313.617 211.989V190.451C313.616 190.407 313.618 190.362 313.624 190.317C313.652 190.093 313.761 189.887 313.93 189.737C314.1 189.587 314.318 189.503 314.544 189.502H349.766C349.821 189.504 349.875 189.508 349.929 189.516C350.042 189.543 350.15 189.588 350.248 189.651C350.248 189.651 350.255 189.644 350.255 189.651C350.349 189.715 350.43 189.794 350.496 189.885C350.598 190.026 350.66 190.193 350.673 190.366C350.679 190.392 350.681 190.418 350.68 190.444V190.444Z" fill="white"/>
<path d="M350.68 190.614L338.356 199.057L350.071 211.876L337.244 199.821L332.47 203.094V203.115L331.925 203.094L331.825 203.115V203.094L327 199.885L313.85 211.876L325.85 199.12L313.612 190.975V190.451C313.611 190.407 313.613 190.362 313.619 190.317C313.647 190.093 313.756 189.887 313.926 189.737C314.095 189.587 314.313 189.503 314.539 189.502H349.761C349.816 189.504 349.87 189.508 349.924 189.516C350.04 189.536 350.149 189.582 350.243 189.651C350.243 189.651 350.25 189.644 350.25 189.651C350.345 189.713 350.427 189.792 350.491 189.885C350.593 190.026 350.655 190.193 350.668 190.366C350.674 190.392 350.677 190.418 350.675 190.444L350.68 190.614Z" fill="#97CCDE"/>
<path d="M350.517 190.357L332.145 200.747L313.617 190.506V190.449C313.616 190.405 313.618 190.36 313.624 190.315C313.652 190.091 313.761 189.885 313.93 189.735C314.1 189.585 314.318 189.501 314.544 189.5H349.6C349.833 189.501 350.057 189.59 350.227 189.749C350.397 189.908 350.501 190.125 350.517 190.357V190.357Z" fill="white"/>
<path d="M308.99 191.755H298.461C297.88 191.755 297.408 192.226 297.408 192.808C297.408 193.389 297.88 193.861 298.461 193.861H308.99C309.572 193.861 310.043 193.389 310.043 192.808C310.043 192.226 309.572 191.755 308.99 191.755Z" fill="white"/>
<path d="M308.99 199.905H292.82C292.239 199.905 291.767 200.376 291.767 200.958C291.767 201.539 292.239 202.011 292.82 202.011H308.99C309.572 202.011 310.043 201.539 310.043 200.958C310.043 200.376 309.572 199.905 308.99 199.905Z" fill="white"/>
<path d="M308.989 208.054H286.427C285.845 208.054 285.374 208.526 285.374 209.107C285.374 209.689 285.845 210.16 286.427 210.16H308.989C309.571 210.16 310.042 209.689 310.042 209.107C310.042 208.526 309.571 208.054 308.989 208.054Z" fill="white"/>
<path d="M305.775 171.128L305.084 170.51L322.602 150.928L308.305 131.846L309.047 131.29L323.798 150.979L323.545 151.263L305.775 171.128Z" fill="white"/>
<path d="M347.992 146.008L323.118 150.5L323.283 151.412L348.157 146.921L347.992 146.008Z" fill="white"/>
<path d="M303.665 243.367L303.457 247.052C303.457 247.052 315.573 246.07 320.485 255.894C320.485 255.894 333.911 250.327 341.606 262.607L354.377 240.83L354.705 235.919L303.665 243.367Z" fill="#5BB2D4"/>
<path d="M335.517 229.058L325.578 244.905L322.568 249.706C322.568 249.706 322.159 249.906 322.123 249.836C321.182 248.015 311.49 241.111 303.663 243.371L306.636 239.86L321.6 222.198C321.6 222.198 333.22 220.67 335.517 229.058Z" fill="#F0F0F0"/>
<path d="M354.709 235.916L348.909 245.466L342.092 256.711C342.092 256.711 333.135 246.67 322.567 249.711L325.577 244.911L335.516 229.063C335.516 229.063 350.448 225.765 354.709 235.916Z" fill="white"/>
<g style="mix-blend-mode:multiply" opacity="0.37">
<path d="M348.91 245.466L342.093 256.711C342.093 256.711 333.136 246.67 322.568 249.711L322.123 249.841C320.567 248.507 311.49 241.115 303.663 243.375L306.636 239.865C312.194 242.588 318.946 244.108 325.578 244.913C333.324 245.778 341.132 245.963 348.91 245.466V245.466Z" fill="#C7E4F0"/>
</g>
<path d="M260.527 165.157V178.477C260.526 178.986 260.324 179.473 259.964 179.832C259.605 180.191 259.118 180.393 258.61 180.394H216.891C216.383 180.393 215.896 180.191 215.537 179.832C215.178 179.472 214.975 178.985 214.974 178.477V175.157C219.031 175.38 226.404 176.306 238.334 176.306C242.665 176.417 246.956 175.457 250.827 173.512C254.699 171.568 258.03 168.698 260.527 165.157V165.157Z" fill="#ABDBED"/>
<path d="M308.335 134.28C310.332 134.28 311.951 132.662 311.951 130.664C311.951 128.667 310.332 127.048 308.335 127.048C306.338 127.048 304.719 128.667 304.719 130.664C304.719 132.662 306.338 134.28 308.335 134.28Z" fill="#3198BF"/>
<path d="M323.2 154.568C325.197 154.568 326.816 152.949 326.816 150.952C326.816 148.955 325.197 147.336 323.2 147.336C321.203 147.336 319.584 148.955 319.584 150.952C319.584 152.949 321.203 154.568 323.2 154.568Z" fill="#3198BF"/>
<path d="M348.711 150.149C350.708 150.149 352.327 148.531 352.327 146.533C352.327 144.536 350.708 142.917 348.711 142.917C346.714 142.917 345.095 144.536 345.095 146.533C345.095 148.531 346.714 150.149 348.711 150.149Z" fill="#3198BF"/>
<path d="M304.92 174.255C306.917 174.255 308.536 172.636 308.536 170.639C308.536 168.642 306.917 167.023 304.92 167.023C302.923 167.023 301.304 168.642 301.304 170.639C301.304 172.636 302.923 174.255 304.92 174.255Z" fill="#3198BF"/>
<path d="M205.687 257.549C205.047 258.597 204.122 259.441 203.02 259.982C201.681 260.63 200.206 260.944 198.72 260.899C197.189 260.926 195.668 260.637 194.253 260.05C193.002 259.53 191.914 258.684 191.103 257.599C190.306 256.51 189.837 255.214 189.753 253.866H194.753C194.84 254.773 195.248 255.618 195.903 256.249C196.254 256.574 196.667 256.825 197.116 256.988C197.565 257.151 198.043 257.223 198.52 257.199C198.928 257.227 199.338 257.172 199.725 257.037C200.111 256.903 200.467 256.692 200.77 256.416C201.031 256.151 201.235 255.836 201.37 255.489C201.504 255.142 201.567 254.771 201.553 254.399C201.578 253.736 201.352 253.087 200.92 252.582C200.476 252.089 199.93 251.696 199.32 251.432C198.675 251.144 197.786 250.81 196.653 250.432C195.419 250.039 194.215 249.554 193.053 248.982C192.102 248.49 191.285 247.775 190.669 246.899C189.972 245.844 189.628 244.596 189.686 243.332C189.648 242.42 189.825 241.51 190.205 240.679C190.584 239.848 191.155 239.118 191.87 238.549C193.537 237.315 195.581 236.696 197.653 236.799C199.786 236.688 201.89 237.324 203.603 238.599C204.329 239.184 204.927 239.912 205.36 240.738C205.793 241.564 206.052 242.47 206.12 243.399H201.053C200.945 242.604 200.568 241.869 199.986 241.316C199.334 240.745 198.485 240.453 197.62 240.5C196.86 240.464 196.113 240.707 195.52 241.183C195.041 241.67 194.757 242.316 194.723 242.998C194.689 243.681 194.907 244.352 195.336 244.883C195.776 245.36 196.309 245.74 196.903 246C197.746 246.369 198.608 246.692 199.486 246.967C200.742 247.396 201.972 247.896 203.17 248.467C204.138 248.955 204.969 249.677 205.586 250.567C206.297 251.654 206.647 252.937 206.586 254.234C206.595 255.401 206.284 256.547 205.687 257.549V257.549Z" fill="#62AAC7"/>
<path d="M219.187 248.699L229.153 260.666H223.453L214.753 249.899V260.666H210.053V237.132H214.753V247.699L223.486 237.132H229.153L219.187 248.699Z" fill="#62AAC7"/>
<path d="M236.453 237.132V260.666H231.753V237.132H236.453Z" fill="#62AAC7"/>
<path d="M245.42 257.066H253.32V260.666H240.72V237.132H245.42V257.066Z" fill="#62AAC7"/>
<path d="M272.67 250.549C273.523 251.598 273.977 252.914 273.953 254.265C273.995 255.145 273.838 256.022 273.495 256.833C273.152 257.644 272.631 258.367 271.97 258.949C270.324 260.198 268.281 260.808 266.22 260.666H256.12V237.132H266.02C267.974 237.005 269.912 237.558 271.504 238.699C272.143 239.234 272.649 239.91 272.982 240.673C273.314 241.437 273.464 242.268 273.42 243.099C273.475 244.398 273.068 245.673 272.271 246.699C271.502 247.635 270.438 248.281 269.253 248.532C270.597 248.775 271.809 249.49 272.67 250.549V250.549ZM260.82 246.999H265.054C266.013 247.067 266.964 246.789 267.736 246.216C268.048 245.934 268.293 245.586 268.451 245.196C268.61 244.807 268.679 244.386 268.653 243.966C268.679 243.546 268.611 243.124 268.456 242.733C268.3 242.341 268.06 241.988 267.753 241.699C266.959 241.105 265.975 240.82 264.986 240.899H260.82V246.999ZM268.153 256.015C268.493 255.723 268.76 255.356 268.934 254.942C269.107 254.529 269.182 254.081 269.153 253.633C269.18 253.18 269.102 252.726 268.926 252.307C268.75 251.888 268.48 251.515 268.137 251.216C267.306 250.601 266.285 250.3 265.253 250.366H260.82V256.833H265.286C266.308 256.901 267.321 256.611 268.153 256.015V256.015Z" fill="#62AAC7"/>
<path d="M281.954 237.132V260.666H277.254V237.132H281.954Z" fill="#62AAC7"/>
<path d="M205.687 256.257C205.047 257.305 204.122 258.149 203.02 258.69C201.681 259.338 200.206 259.652 198.72 259.607C197.189 259.634 195.668 259.345 194.253 258.758C193.003 258.238 191.915 257.392 191.103 256.308C190.306 255.218 189.837 253.922 189.753 252.574H194.753C194.84 253.48 195.248 254.326 195.903 254.957C196.254 255.282 196.667 255.533 197.116 255.696C197.565 255.859 198.043 255.931 198.52 255.907C198.928 255.935 199.338 255.88 199.725 255.745C200.111 255.611 200.467 255.399 200.77 255.124C201.031 254.859 201.235 254.544 201.37 254.197C201.504 253.85 201.567 253.479 201.553 253.107C201.578 252.444 201.352 251.795 200.92 251.29C200.475 250.797 199.93 250.405 199.32 250.141C198.675 249.851 197.786 249.518 196.653 249.141C195.419 248.747 194.216 248.262 193.053 247.69C192.102 247.198 191.285 246.483 190.669 245.607C189.972 244.552 189.628 243.304 189.686 242.04C189.648 241.128 189.825 240.218 190.205 239.387C190.584 238.556 191.155 237.826 191.87 237.257C193.537 236.023 195.581 235.404 197.653 235.507C199.786 235.395 201.89 236.032 203.603 237.307C204.33 237.892 204.928 238.62 205.361 239.445C205.794 240.271 206.052 241.177 206.12 242.107H201.053C200.944 241.312 200.568 240.577 199.986 240.024C199.334 239.453 198.485 239.161 197.62 239.208C196.86 239.172 196.113 239.415 195.52 239.892C195.041 240.379 194.757 241.025 194.723 241.707C194.689 242.39 194.907 243.061 195.336 243.592C195.776 244.069 196.309 244.449 196.903 244.709C197.746 245.078 198.608 245.401 199.486 245.676C200.742 246.105 201.972 246.605 203.17 247.176C204.138 247.664 204.968 248.386 205.586 249.276C206.297 250.363 206.647 251.646 206.586 252.943C206.595 254.11 206.284 255.256 205.687 256.257V256.257Z" fill="white"/>
<path d="M219.187 247.402L229.153 259.369H223.453L214.753 248.602V259.369H210.053V235.835H214.753V246.402L223.486 235.835H229.153L219.187 247.402Z" fill="white"/>
<path d="M236.453 235.835V259.369H231.753V235.835H236.453Z" fill="white"/>
<path d="M245.42 255.769H253.32V259.369H240.72V235.835H245.42V255.769Z" fill="white"/>
<path d="M272.67 249.257C273.523 250.306 273.978 251.623 273.953 252.974C273.995 253.854 273.838 254.731 273.495 255.542C273.152 256.352 272.631 257.075 271.97 257.657C270.324 258.906 268.281 259.516 266.22 259.374H256.12V235.835H266.02C267.974 235.708 269.912 236.261 271.504 237.402C272.143 237.937 272.649 238.613 272.982 239.376C273.314 240.14 273.464 240.971 273.42 241.802C273.475 243.101 273.068 244.376 272.271 245.402C271.502 246.338 270.438 246.984 269.253 247.235C270.597 247.479 271.81 248.197 272.67 249.257V249.257ZM260.82 245.707H265.054C266.013 245.775 266.964 245.497 267.736 244.924C268.048 244.642 268.293 244.294 268.451 243.904C268.61 243.515 268.679 243.094 268.653 242.674C268.679 242.254 268.611 241.832 268.456 241.441C268.3 241.049 268.06 240.696 267.753 240.407C266.959 239.813 265.975 239.528 264.986 239.607H260.82V245.707ZM268.153 254.724C268.493 254.432 268.76 254.064 268.933 253.65C269.107 253.237 269.182 252.789 269.153 252.341C269.18 251.888 269.102 251.434 268.926 251.015C268.75 250.596 268.48 250.223 268.137 249.924C267.306 249.309 266.285 249.008 265.253 249.074H260.82V255.541H265.286C266.308 255.607 267.321 255.317 268.153 254.719V254.724Z" fill="white"/>
<path d="M281.954 235.835V259.369H277.254V235.835H281.954Z" fill="white"/>
<path d="M408.051 193.527L386.312 186.774C385.287 186.455 384.188 186.468 383.171 186.81C382.154 187.152 381.27 187.807 380.647 188.681V188.681C380.209 189.293 379.912 189.994 379.778 190.735C379.643 191.475 379.674 192.237 379.868 192.964C380.063 193.691 380.415 194.366 380.902 194.941C381.388 195.515 381.995 195.975 382.68 196.288L403.458 205.774L408.051 193.527Z" fill="#00315C"/>
<path d="M379.43 186.857L379 190.825L374.341 189.625L371.581 184.364L368.913 182.206L369.182 180.585L369.256 180.131L372.192 180.483L374.082 182.123V174.523L376.332 175.978C376.332 175.978 377.879 182.804 378.055 183.063C378.166 183.23 378.722 184.796 379.083 185.87C379.282 186.435 379.43 186.857 379.43 186.857Z" fill="#824B45"/>
<path d="M413.563 231.044C413.405 231.508 410.83 263.093 409.774 276.162C409.496 279.58 409.32 281.729 409.32 281.729C409.32 281.729 406.514 316.649 405.551 325.68C405.503 326.385 405.41 327.086 405.273 327.78C404.884 328.355 394.093 327.011 394.093 327.011L395.316 281.611C395.682 262.283 397.231 242.996 399.956 223.859C399.956 223.859 413.748 230.47 413.563 231.044Z" fill="#042440"/>
<path d="M409.774 276.157C409.496 279.575 409.32 281.724 409.32 281.724C409.32 281.724 406.392 317.834 405.428 326.865L401.901 326.786L402.929 298.313L408.061 254.964C408.061 254.964 408.922 264.972 409.774 276.157Z" fill="#00172B"/>
<path d="M400.841 235.672L404.31 293.287L409.705 332.212L418.762 331.441L418.376 292.131C418.376 292.131 423.576 251.665 423.001 251.665C422.426 251.665 427.24 244.536 427.626 233.359L400.841 235.672Z" fill="#042440"/>
<path d="M395.134 330.164C395.134 330.164 394.755 336.887 394.755 337.171C394.755 337.455 400.147 338.937 402.514 337.99L403.467 331.205L395.134 330.164Z" fill="#824B45"/>
<path d="M410.569 331.205C410.569 331.205 410.19 337.929 410.19 338.213C410.19 338.497 415.616 339.762 417.983 338.813L418.056 330.647L410.569 331.205Z" fill="#824B45"/>
<path d="M422.947 157.632C423.577 158.097 423.92 158.505 424.699 158.473C425.148 158.409 425.565 158.202 425.887 157.882C426.209 157.562 426.419 157.147 426.485 156.698C427.069 157.051 427.631 156.749 428.164 156.275C428.429 156.096 428.63 155.838 428.738 155.537C428.846 155.236 428.855 154.909 428.764 154.603C429.071 154.668 429.392 154.624 429.669 154.476C429.947 154.329 430.164 154.089 430.282 153.798C430.428 153.53 430.474 153.219 430.413 152.92C430.352 152.621 430.186 152.354 429.947 152.166C430.49 151.804 430.889 151.263 431.072 150.637C431.255 150.01 431.21 149.339 430.947 148.743C431.211 148.531 431.429 148.268 431.588 147.97C431.747 147.672 431.843 147.344 431.871 147.007C431.899 146.67 431.859 146.331 431.751 146.01C431.644 145.69 431.472 145.395 431.247 145.143C431.836 144.938 432.015 143.951 432.03 143.298C432.032 143.011 431.961 142.728 431.823 142.477C431.685 142.225 431.484 142.014 431.241 141.863C431.095 141.75 431.12 141.248 431.163 141.096C431.227 140.858 431.241 140.61 431.206 140.367C431.17 140.124 431.086 139.891 430.957 139.682C430.828 139.473 430.657 139.292 430.456 139.152C430.254 139.011 430.026 138.913 429.786 138.864C429.83 137.873 429.017 136.783 428.095 136.956C428.057 136.669 427.964 136.392 427.819 136.141C427.674 135.891 427.481 135.672 427.251 135.496C427.02 135.321 426.758 135.193 426.478 135.12C426.198 135.047 425.906 135.03 425.62 135.071C425.383 134.512 424.955 134.056 424.414 133.784C423.872 133.511 423.251 133.44 422.662 133.583C422.312 133.15 421.825 132.852 421.281 132.738C420.737 132.624 420.17 132.701 419.677 132.957C418.977 132.412 417.883 132.009 417.206 132.643C417.088 132.784 416.954 132.91 416.806 133.019C416.457 133.212 416.067 132.951 415.701 132.83C415.273 132.724 414.822 132.787 414.439 133.004C414.057 133.221 413.772 133.576 413.643 133.997C413.112 133.848 412.552 133.844 412.02 133.985C412.002 134.249 411.921 134.504 411.782 134.73C411.644 134.956 411.453 135.145 411.226 135.281C410.999 135.416 410.742 135.495 410.478 135.51C410.214 135.525 409.95 135.475 409.709 135.366C409.495 135.537 409.332 135.764 409.238 136.021C409.144 136.278 409.122 136.557 409.175 136.826C408.95 136.896 408.745 137.018 408.575 137.181C408.405 137.344 408.275 137.545 408.195 137.766C408.115 137.987 408.087 138.224 408.113 138.458C408.14 138.693 408.219 138.917 408.347 139.116C408.134 139.226 407.948 139.383 407.804 139.574C407.659 139.765 407.559 139.986 407.51 140.221C407.462 140.456 407.466 140.698 407.523 140.931C407.579 141.164 407.687 141.382 407.839 141.568C407.631 141.728 407.462 141.933 407.344 142.168C407.226 142.402 407.162 142.66 407.157 142.922C407.151 143.185 407.204 143.445 407.313 143.684C407.421 143.923 407.581 144.135 407.782 144.305C407.6 144.456 407.457 144.649 407.365 144.867C407.272 145.086 407.233 145.323 407.251 145.559C407.269 145.795 407.342 146.024 407.466 146.226C407.589 146.428 407.759 146.597 407.962 146.721C407.838 146.871 407.748 147.046 407.698 147.233C407.648 147.421 407.638 147.617 407.669 147.809C407.7 148.001 407.772 148.184 407.88 148.346C407.987 148.508 408.128 148.645 408.293 148.749C408.171 149.058 408.169 149.401 408.289 149.711C408.408 150.021 408.639 150.275 408.937 150.423C409.527 150.661 410.13 150.869 410.742 151.045C411.425 151.416 412.037 151.906 412.551 152.49C414.612 154.496 417.111 155.996 419.851 156.874C420.012 156.948 420.187 156.987 420.364 156.99C420.542 156.993 420.718 156.959 420.882 156.89" fill="#1F1A1A"/>
<path d="M429.447 150.922C429.594 146.245 423.821 147.588 423.821 147.588C423.821 147.588 421.534 147.071 420.927 143.481C420.927 143.481 419.544 140.456 414.417 140.281C409.29 140.106 409.217 143.839 409.217 143.839C409 146.598 408.573 151.865 408.617 153.609C408.69 156.389 409.623 161.473 413.808 162.383L413.92 165.05L413.988 166.638C413.988 166.638 413.966 170.028 420.115 168.808C424.17 168.008 424 165.528 424 165.528L424.14 156.081C424.14 156.081 429.299 155.584 429.447 150.922Z" fill="#824B45"/>
<path d="M418.671 162.074C418.671 162.074 418.371 164.474 413.924 165.052L413.81 162.386L414.044 162.478C414.799 162.748 415.603 162.851 416.401 162.781C417.2 162.712 417.974 162.471 418.671 162.074V162.074Z" fill="#452518"/>
<path d="M416.907 150.243L416.977 150.309C417.047 150.4 417.14 150.471 417.245 150.516C417.324 150.55 417.408 150.569 417.493 150.572L420.593 150.672C420.741 150.675 420.885 150.633 421.008 150.55C421.137 150.461 421.237 150.338 421.299 150.194C421.36 150.05 421.38 149.892 421.356 149.737C421.209 148.752 420.337 147.2 418.723 147.515C418.664 147.515 418.617 147.545 418.566 147.549C418.136 147.654 417.743 147.874 417.429 148.185C417.115 148.497 416.892 148.888 416.783 149.316C416.763 149.377 416.747 149.439 416.737 149.501C416.703 149.63 416.701 149.764 416.731 149.893C416.76 150.023 416.821 150.143 416.907 150.243V150.243Z" fill="white"/>
<path d="M409.222 149.983L409.279 150.049C409.341 150.14 409.425 150.212 409.525 150.258C409.593 150.291 409.667 150.309 409.743 150.31L412.494 150.403C412.627 150.404 412.757 150.361 412.863 150.279C412.98 150.182 413.07 150.056 413.124 149.913C413.178 149.77 413.194 149.616 413.171 149.465C413.043 148.481 412.271 146.931 410.847 147.253C410.793 147.253 410.747 147.283 410.701 147.288C410.302 147.416 409.945 147.648 409.666 147.959C409.387 148.271 409.197 148.652 409.114 149.061C409.093 149.13 409.085 149.191 409.07 149.246C409.04 149.373 409.038 149.504 409.064 149.632C409.091 149.759 409.144 149.879 409.222 149.983V149.983Z" fill="white"/>
<path d="M414.571 154.333C414.46 154.314 411.848 153.849 411.863 152.083C411.846 151.869 411.879 151.655 411.96 151.457C412.041 151.258 412.167 151.082 412.329 150.942C412.489 150.836 412.669 150.764 412.859 150.731C413.048 150.697 413.242 150.702 413.429 150.747L413.783 147.739L414.273 147.804L413.846 151.422L413.561 151.322C413.409 151.262 413.246 151.236 413.083 151.245C412.92 151.254 412.76 151.298 412.616 151.374C412.522 151.465 412.449 151.577 412.405 151.7C412.36 151.824 412.345 151.956 412.359 152.087C412.347 153.402 414.628 153.808 414.651 153.812L414.571 154.333Z" fill="#451A16"/>
<path d="M416.166 158.009C415.596 157.988 415.029 157.907 414.477 157.766L414.599 157.254C414.264 157.176 418.061 158.241 418.69 156.313L419.156 156.486C418.728 157.801 417.326 158.049 416.166 158.009Z" fill="#451A16"/>
<path d="M426.01 152.529L425.71 152.112C426.064 151.685 426.351 151.206 426.562 150.692C426.527 150.478 426.449 150.273 426.332 150.091C426.215 149.908 426.061 149.751 425.881 149.63L426.137 149.178C426.388 149.344 426.6 149.563 426.759 149.819C426.917 150.075 427.018 150.363 427.054 150.661C427.041 151.034 426.94 151.397 426.759 151.722C426.577 152.047 426.32 152.324 426.01 152.529V152.529Z" fill="#451A16"/>
<path d="M417.1 146.305C417.1 146.305 419.47 145.263 421.243 146.562C421.159 146.077 420.926 145.631 420.578 145.284C420.229 144.937 419.782 144.707 419.297 144.626C417.631 144.405 417.1 146.305 417.1 146.305Z" fill="#1F1A1A"/>
<path d="M409.029 146.082C409.029 146.082 411.398 145.04 413.172 146.339C413.088 145.855 412.856 145.408 412.507 145.062C412.159 144.715 411.711 144.485 411.226 144.403C409.556 144.183 409.029 146.082 409.029 146.082Z" fill="#1F1A1A"/>
<path d="M422.834 146.574C423.321 148.333 423.409 150.177 423.094 151.974L424.342 151.374L425.465 147.286L422.834 146.574Z" fill="#1F1A1A"/>
<path d="M421.32 143.039C421.33 143.184 421.309 143.33 421.257 143.467C421.205 143.603 421.124 143.727 421.019 143.829C420.914 143.93 420.788 144.008 420.65 144.056C420.512 144.103 420.365 144.121 420.22 144.106C419.929 144.043 419.662 143.899 419.449 143.691C419.235 143.483 419.085 143.22 419.015 142.931C418.957 143.139 418.823 143.318 418.64 143.433C418.457 143.548 418.238 143.591 418.025 143.553C417.814 143.501 417.618 143.404 417.45 143.267C417.282 143.13 417.146 142.958 417.053 142.763C416.978 143.021 416.82 143.248 416.603 143.409C416.387 143.569 416.124 143.655 415.854 143.652C415.585 143.649 415.324 143.558 415.111 143.392C414.898 143.227 414.745 142.997 414.676 142.737C413.761 144.142 412.85 143.261 412.454 142.446C412.419 142.659 412.328 142.86 412.19 143.027C412.051 143.194 411.871 143.32 411.667 143.394C411.564 143.421 411.457 143.427 411.353 143.411C411.248 143.396 411.147 143.359 411.057 143.303C410.967 143.248 410.889 143.174 410.828 143.087C410.767 143.001 410.724 142.902 410.703 142.799C410.595 142.946 410.458 143.07 410.301 143.162C410.143 143.254 409.968 143.312 409.787 143.333C409.606 143.354 409.422 143.338 409.248 143.285C409.073 143.232 408.912 143.143 408.773 143.025C408.593 142.868 408.482 142.647 408.465 142.41C408.475 142.215 408.528 142.025 408.62 141.853C408.862 141.244 409.19 140.674 409.595 140.16C410.168 139.614 410.845 139.189 411.586 138.91C412.327 138.632 413.117 138.506 413.908 138.54C415.318 138.447 416.733 138.567 418.108 138.894C418.93 139.08 419.707 139.427 420.395 139.915C421.096 140.417 421.603 141.146 421.831 141.979" fill="#1F1A1A"/>
<path d="M417.055 149.557C417.042 149.889 417.107 150.22 417.245 150.521C417.324 150.555 417.408 150.574 417.493 150.577L419.31 150.638C419.486 150.334 419.582 149.99 419.588 149.638C419.618 148.698 419.076 147.914 418.375 147.89C417.674 147.866 417.084 148.611 417.055 149.557Z" fill="#1F1A1A"/>
<path d="M409.357 149.346C409.345 149.659 409.402 149.97 409.525 150.259C409.593 150.291 409.668 150.309 409.743 150.311L411.643 150.374C411.797 150.083 411.882 149.76 411.89 149.43C411.92 148.49 411.377 147.71 410.677 147.686C409.977 147.662 409.387 148.405 409.357 149.346Z" fill="#1F1A1A"/>
<path d="M248.829 88.5125L248.718 88.6325C248.7 88.5495 248.727 88.5125 248.829 88.5125Z" fill="white"/>
<path opacity="0.35" d="M255.09 99.1074C255.06 99.1374 255.04 99.1774 255.01 99.2074C244.39 112.937 208.97 148.917 192.85 168.237L191.94 154.357L244.37 93.4774L244.46 93.3774L255.09 99.1074Z" fill="white"/>
<path d="M262.2 98.9045L262.107 99.0625C262.065 98.9785 262.093 98.9235 262.2 98.9045Z" fill="white"/>
<path opacity="0.35" d="M280.04 112.547C280.02 112.577 279.99 112.617 279.97 112.647C267.2 130.627 228.94 166.577 210.02 190.487C209.22 189.837 208.41 189.167 207.6 188.457C206.3 187.317 204.99 186.107 203.7 184.817L266.74 105.527L266.82 105.427L271.66 108.027L280.04 112.547Z" fill="white"/>
<path d="M236.32 276.111C237.795 276.111 238.99 274.915 238.99 273.44C238.99 271.966 237.795 270.771 236.32 270.771C234.846 270.771 233.65 271.966 233.65 273.44C233.65 274.915 234.846 276.111 236.32 276.111Z" fill="#68B0CF"/>
<path d="M384.063 187.068L380.274 185.62C378.548 187.162 377.505 189.326 377.374 191.637L381.163 193.531L384.063 187.068Z" fill="#FFBE01"/>
<path d="M379.43 186.857L379 190.825L374.341 189.625L371.581 184.364L368.913 182.206L369.182 180.585C369.295 181.004 369.498 181.393 369.776 181.726C370.054 182.058 370.401 182.327 370.793 182.512C372.544 183.419 373.906 188.292 375.323 188.745C376.623 189.162 377.351 186.337 379.083 185.874C379.282 186.435 379.43 186.857 379.43 186.857Z" fill="#452518"/>
<path d="M407.729 327.987L420.418 326.755L420.513 333.005L408.676 333.668L407.729 327.987Z" fill="#3E6080"/>
<path d="M412.481 170.026C412.481 170.026 408.427 173.067 404.373 188.526C400.319 203.985 398.548 227.036 398.548 227.036L407.163 229.569L417.549 222.48C417.549 222.48 419.576 171.04 412.481 170.026Z" fill="#F26835"/>
<path d="M426.744 167.534C426.796 167.466 426.844 167.395 426.887 167.322C427.07 167.065 427.2 166.774 427.267 166.467C427.334 166.159 427.338 165.841 427.279 165.532C427.219 165.222 427.097 164.928 426.921 164.667C426.744 164.407 426.516 164.184 426.251 164.014C424.179 162.495 411.33 166.777 411.33 166.777L411.468 170.784L426.251 167.885" fill="#FFBE01"/>
<path d="M432.782 235.702C424.002 240.297 405.254 238.296 405.254 238.296C405.254 238.296 405.597 236.61 405.912 233.433C406.408 227.955 406.519 222.449 406.245 216.955C405.653 203.385 411.469 170.781 411.469 170.781L419.241 168.481L428.994 199.992L432.282 231.013L432.782 235.702Z" fill="#00315C"/>
<path d="M432.782 235.702C424.002 240.297 405.254 238.296 405.254 238.296C405.254 238.296 405.597 236.61 405.912 233.433C411.831 233.526 424.724 233.452 432.282 231.016L432.782 235.702Z" fill="#FFBE01"/>
<path d="M427.827 236.638L426.345 244.585C426.317 244.753 426.244 244.91 426.135 245.04C426.026 245.17 425.884 245.269 425.724 245.326L421.371 246.919C421.205 246.982 421.025 246.999 420.85 246.967C420.675 246.936 420.513 246.857 420.379 246.74C420.245 246.623 420.146 246.472 420.092 246.303C420.038 246.134 420.031 245.953 420.071 245.78L420.581 243.548V237.388L418.581 241.964L417.081 241.797L417.832 235.471L419.545 232.322L420.333 230.886L426.492 231.636L426.807 232.822L427.827 236.638Z" fill="#824B45"/>
<path d="M426.808 232.822C423.853 234.795 420.778 233.155 419.546 232.322L420.334 230.886L426.493 231.636L426.808 232.822Z" fill="#452518"/>
<path d="M417.72 173.757L419.264 205.109C419.264 205.109 419.18 232.869 419.546 232.321C419.912 231.773 426.867 205.221 426.867 204.673C426.867 204.125 426.501 191.868 425.403 190.587C424.305 189.306 422.476 181.075 421.927 180.16" fill="#042440"/>
<path d="M416.566 169.476C416.566 169.476 419.612 167.137 426.744 167.533C426.744 167.533 430.508 170.703 431.301 179.816C432.094 188.929 433.27 205.589 433.27 205.589L428.811 226.417C428.62 227.521 428.05 228.523 427.201 229.253C426.352 229.982 425.275 230.394 424.155 230.417C423.466 230.432 422.781 230.299 422.147 230.027C421.514 229.755 420.945 229.351 420.481 228.841C420.017 228.33 419.667 227.727 419.456 227.07C419.244 226.414 419.176 225.72 419.255 225.034L421.787 203.193L416.828 171.193L416.562 169.476" fill="#00315C"/>
<path d="M420.46 227.579L419.86 231.553C420.869 232.361 422.104 232.835 423.393 232.911C424.683 232.986 425.965 232.658 427.06 231.973L426.979 228.862L420.957 227.776" fill="#FFBE01"/>
<path d="M393.24 324.958C393.524 324.958 406.308 326.378 406.308 326.378L405.55 332.628L393.24 330.258V324.958Z" fill="#3E6080"/>
<path d="M450.216 308.974C450.216 308.974 454.728 300.301 446.116 293.391C437.504 286.481 428.58 287.771 425.135 285.047C425.135 285.047 423.858 297.956 430.772 303.683C440.636 311.857 450.216 308.974 450.216 308.974Z" fill="#06628D"/>
<path d="M465.31 317.799C465.31 317.799 464.592 306.407 476.81 300.386C489.028 294.365 503.271 303.253 505.62 302.68C503.152 305.599 499.696 307.507 495.912 308.042C489.492 308.987 487.02 317.942 480.881 319.882C478.286 320.659 475.556 320.875 472.871 320.516C470.187 320.157 467.609 319.231 465.31 317.799V317.799Z" fill="#06628D"/>
<path d="M467.316 290.017C467.316 290.017 466.941 283.617 478.216 282.61C485.056 282.035 491.925 283.313 498.101 286.31C493.168 287.659 488.431 289.643 484.009 292.21C476.963 296.367 469.409 293.01 467.316 290.604" fill="#06628D"/>
<path d="M458.375 273.595C458.375 273.595 460.834 266.985 469.133 263.544C477.432 260.103 482.707 260.39 482.707 260.39C481.066 264.085 479.772 267.924 478.84 271.857C477.431 278.023 461.24 282.357 458.375 273.595Z" fill="#06628D"/>
<path d="M428.257 288.973L428.544 288.548C449.223 300.221 453.344 313.97 454.153 319.448C455.323 315.859 456.051 312.141 456.323 308.375C457.029 301.071 457.096 293.719 456.523 286.402C456.26 283.817 456.185 281.217 456.297 278.62C456.391 276.887 456.956 274.475 457.131 272.739C457.678 267.326 460.131 264.066 457.005 259.872L457.628 260.147C460.115 262.994 458.866 267.361 458.29 273.063C458.227 273.693 458.165 274.334 458.105 274.973C459.249 274.829 468.186 273.573 471.273 269.253L471.731 269.526C468.32 274.302 458.54 275.426 458.055 275.483C457.97 276.42 457.894 277.355 457.845 278.268C457.728 280.951 457.795 283.637 458.045 286.31C458.245 289.122 458.481 292.363 458.412 297.188C470.824 283.997 488.896 285.208 489.083 285.219L489.037 285.719C488.855 285.707 470.637 284.494 458.397 297.988C458.338 300.867 458.175 304.281 457.84 308.478C457.513 313.451 456.372 318.337 454.461 322.939C457.249 322.513 465.214 320.545 471.266 311.649C478.854 300.498 496.302 302.193 496.474 302.215L496.413 302.715C496.24 302.698 479.136 301.033 471.73 311.915C465.33 321.315 456.785 323.138 454.222 323.479C450.859 330.943 447.915 332.613 447.639 332.779L445.326 332.737C445.395 332.694 450.45 329.492 453.738 320.609C453.357 316.269 450.376 301.457 428.257 288.973Z" fill="#273137"/>
<path d="M56.5159 264.933C56.5159 264.933 64.0509 257.473 72.5919 263.019C81.1329 268.565 81.6919 284.319 81.6919 284.319C81.6919 284.319 76.9229 280.659 71.9309 280.437C66.9389 280.215 50.8669 271.616 56.5159 264.933Z" fill="#88BDD1"/>
<path d="M48.9769 305.841C48.9769 305.841 47.8579 298.068 52.6269 294.63C57.3959 291.192 66.527 289.861 68.508 287.975C68.508 287.975 69.4859 296.848 64.6079 301.507C59.7299 306.166 51.3169 307.512 48.9769 305.841Z" fill="#88BDD1"/>
<path d="M37.348 291.809C37.348 291.809 36.322 295.409 30.555 294.519C24.788 293.629 17.688 288.641 15.355 288.751C15.355 288.751 20.679 284.651 27.001 285.424C33.323 286.197 37.154 289.21 37.348 291.809Z" fill="#88BDD1"/>
<path d="M40.975 282.002C40.975 282.002 34.862 283.757 31.312 280.657C27.762 277.557 25.35 268.787 25 268.565C24.65 268.343 37.776 270.406 40.971 276.44C44.166 282.474 40.975 282.002 40.975 282.002Z" fill="#63AAC6"/>
<path d="M33.1832 254.714C33.1832 254.714 32.6622 257.029 27.4492 256.914C22.2362 256.799 17.4662 260.353 14.2492 262.014C11.0322 263.675 0.384162 262.125 0.273162 262.014C0.162162 261.903 0.717163 259.573 5.15416 257.355C9.59116 255.137 13.0292 247.594 19.7952 247.705C26.5612 247.816 32.8172 251.401 33.1832 254.714Z" fill="#63AAC6"/>
<path d="M36.035 307.895C35.6129 305.084 34.2478 302.5 32.1635 300.567C30.0793 298.634 27.3999 297.467 24.565 297.257C14.139 296.077 10.146 301.734 10.146 301.734C10.146 301.734 15.581 306.414 21.016 307.9C26.451 309.386 33.085 309.182 36.035 307.895Z" fill="#63AAC6"/>
<path d="M76.6313 275.842C69.9103 267.817 63.4003 263.955 57.8173 264.67C53.4943 265.224 49.7993 268.551 46.8223 274.544C47.0403 271.396 47.1933 269.305 49.3223 266.188C52.0883 262.131 52.8573 254.898 52.8653 254.825L52.5933 254.797C52.5853 254.869 51.8243 262.034 49.0933 266.034C47.2861 268.531 46.2825 271.518 46.2163 274.599C46.1543 275.49 46.0843 276.499 45.9593 277.619C45.8593 278.556 45.7783 279.47 45.7033 280.353C45.3903 284.039 45.4163 285.377 43.5963 286.514C43.0513 269.98 42.2713 255.36 41.0313 250.236L39.9683 250.494C40.7336 254.758 41.2121 259.067 41.4003 263.394C35.5003 255.176 29.5113 250.75 23.5733 250.257C21.834 250.111 20.0833 250.325 18.4304 250.886C16.7775 251.446 15.2578 252.341 13.9663 253.515L14.1663 253.705C15.4304 252.562 16.9159 251.69 18.5307 251.143C20.1456 250.597 21.8554 250.388 23.5543 250.529C29.4953 251.029 35.5093 255.535 41.4373 263.913C41.7493 268.634 42.0183 274.136 42.2483 279.923C39.3735 277.915 36.3936 276.062 33.3213 274.371L33.1903 274.612C36.3164 276.33 39.3451 278.22 42.2623 280.272C42.4773 285.722 42.6623 291.409 42.8093 296.921C38.9043 289.351 23.2793 287.492 23.1093 287.473L23.0783 287.744C23.2523 287.764 39.5093 289.695 42.8293 297.595C43.0123 304.375 43.1503 310.856 43.2513 316.265C40.7513 310.289 34.6723 306.677 29.8923 304.678C25.7464 302.92 21.3566 301.805 16.8743 301.37C16.4003 301.361 16.2923 301.409 16.2513 301.514L16.5053 301.614C16.497 301.636 16.4814 301.654 16.4613 301.665C16.8683 301.492 23.6613 302.217 30.5363 305.252C35.1523 307.289 41.0753 310.986 43.2653 317.045C43.4133 325.092 43.4743 330.578 43.4763 330.77L44.5703 330.759C44.5613 329.929 44.4913 323.596 44.3253 314.783C48.2153 302.754 64.8773 290.832 65.5393 290.699L65.4863 290.431C64.9403 290.54 60.1993 293.949 55.3093 298.731C51.3303 302.622 46.4203 308.258 44.3093 314.004C44.1663 306.543 43.9573 297.425 43.6613 288.388C45.7203 287.24 45.9843 284.188 46.3113 280.338C46.3853 279.457 46.4633 278.545 46.5663 277.612C46.6603 276.764 46.7233 275.98 46.7753 275.264C49.7593 268.974 53.4873 265.501 57.8563 264.942C63.3433 264.233 69.7673 268.068 76.4253 276.017C76.8003 276.466 76.8253 276.489 76.8803 276.508L76.9353 276.342L77.0003 276.266C76.9623 276.237 76.8083 276.057 76.6313 275.842Z" fill="#273137"/>
</svg>
