<svg width="20" height="21" viewBox="0 0 20 21" fill="none" xmlns="http://www.w3.org/2000/svg">
<path d="M4.43242 12.494L3.73625 15.0929L1.19176 15.1467C0.431328 13.7363 0 12.1226 0 10.4077C0 8.7495 0.403281 7.18575 1.11812 5.80884H1.11867L3.38398 6.22415L4.37633 8.47587C4.16863 9.08138 4.05543 9.73138 4.05543 10.4077C4.05551 11.1418 4.18848 11.8451 4.43242 12.494Z" fill="#FBBB00"/>
<path d="M19.8253 8.53955C19.9401 9.14447 20 9.7692 20 10.4077C20 11.1236 19.9247 11.822 19.7813 12.4956C19.2945 14.7879 18.0225 16.7896 16.2605 18.206L16.2599 18.2055L13.4066 18.0599L13.0028 15.539C14.172 14.8533 15.0858 13.7802 15.5671 12.4956H10.2198V8.53955H15.6451H19.8253Z" fill="#518EF8"/>
<path d="M16.2599 18.2054L16.2604 18.206C14.5467 19.5834 12.3698 20.4076 10 20.4076C6.19177 20.4076 2.8808 18.2791 1.19177 15.1466L4.43244 12.4939C5.27693 14.7477 7.45111 16.3521 10 16.3521C11.0956 16.3521 12.122 16.056 13.0027 15.5389L16.2599 18.2054Z" fill="#28B446"/>
<path d="M16.3829 2.7099L13.1434 5.36209C12.2319 4.79232 11.1544 4.46318 9.99998 4.46318C7.39338 4.46318 5.17853 6.14119 4.37635 8.47584L1.11865 5.80881H1.1181C2.7824 2.60002 6.13513 0.407715 9.99998 0.407715C12.4263 0.407715 14.6511 1.27201 16.3829 2.7099Z" fill="#F14336"/>
</svg>
