<svg width="22" height="14" viewBox="0 0 22 14" fill="none" xmlns="http://www.w3.org/2000/svg">
<path opacity="0.3" d="M6.417 8.545C6.417 9.265 6.327 9.91 6.147 10.48C5.973 11.05 5.712 11.533 5.364 11.929C5.022 12.319 4.599 12.619 4.095 12.829C3.591 13.039 3.012 13.144 2.358 13.144C1.776 13.144 1.17 13.06 0.54 12.892C0.552 12.718 0.567 12.547 0.585 12.379C0.603 12.205 0.621 12.034 0.639 11.866C0.651 11.764 0.687 11.683 0.747 11.623C0.813 11.557 0.909 11.524 1.035 11.524C1.143 11.524 1.287 11.551 1.467 11.605C1.647 11.659 1.887 11.686 2.187 11.686C2.583 11.686 2.934 11.626 3.24 11.506C3.552 11.386 3.813 11.2 4.023 10.948C4.239 10.696 4.401 10.375 4.509 9.985C4.623 9.589 4.68 9.121 4.68 8.581V0.102999H6.417V8.545ZM21.642 6.556C21.642 7.522 21.489 8.401 21.183 9.193C20.877 9.985 20.445 10.663 19.887 11.227C19.329 11.791 18.66 12.229 17.88 12.541C17.1 12.847 16.236 13 15.288 13H10.464V0.102999H15.288C16.236 0.102999 17.1 0.258999 17.88 0.571C18.66 0.877 19.329 1.315 19.887 1.885C20.445 2.449 20.877 3.127 21.183 3.919C21.489 4.711 21.642 5.59 21.642 6.556ZM19.851 6.556C19.851 5.764 19.743 5.056 19.527 4.432C19.311 3.808 19.005 3.28 18.609 2.848C18.213 2.416 17.733 2.086 17.169 1.858C16.605 1.63 15.978 1.516 15.288 1.516H12.219V11.587H15.288C15.978 11.587 16.605 11.473 17.169 11.245C17.733 11.017 18.213 10.69 18.609 10.264C19.005 9.832 19.311 9.304 19.527 8.68C19.743 8.056 19.851 7.348 19.851 6.556Z" fill="black"/>
</svg>
