<svg width="20" height="20" viewBox="0 0 20 20" fill="none" xmlns="http://www.w3.org/2000/svg">
<path fill-rule="evenodd" clip-rule="evenodd" d="M2.4632 4.58796H2.43426C1.57551 4.63972 0.759863 4.2071 0.321081 3.46711C-0.1177 2.72712 -0.105981 1.80391 0.351444 1.07527C0.808869 0.34663 1.63524 -0.0651129 2.4924 0.00843451C3.35394 -0.0539434 4.17764 0.372326 4.6243 1.11164C5.07096 1.85102 5.06505 2.77845 4.60899 3.51204C4.15294 4.24562 3.32387 4.66133 2.4632 4.58796ZM0.423141 7.67042H4.53302V20.0001H0.423141V7.67042ZM11.7248 9.42067C12.5935 8.31886 13.9179 7.67427 15.321 7.67042C17.8745 7.67042 19.9446 9.74049 19.9446 12.294V20.0001H15.8347V14.349C15.8347 13.2141 14.9147 12.294 13.7798 12.294C12.6449 12.294 11.7248 13.2141 11.7248 14.349V20.0001H7.61496V7.67042H11.7248V9.42067Z" fill="#0B86CA"/>
</svg>
