<svg width="534" height="339" viewBox="0 0 534 339" fill="none" xmlns="http://www.w3.org/2000/svg">
<path fill-rule="evenodd" clip-rule="evenodd" d="M61.4937 304.143C61.4937 304.143 43.3887 293.922 55.3997 252.107C55.3997 252.107 45.6127 234.607 51.8417 222.673C58.0707 210.739 63.8516 196.501 75.4176 185.38C86.9836 174.259 96.7707 161.553 100.33 120.53C103.889 79.5074 127.02 44.3643 163.5 44.3643C199.98 44.3643 199.532 54.1513 218.215 45.6993C236.898 37.2473 264.035 3.43934 296.063 1.65934C328.091 -0.120656 364.125 3.43935 400.157 27.4593C436.189 51.4793 413.057 61.2663 425.513 70.1593C437.969 79.0523 443.689 82.7133 446.022 93.0593C448.355 103.405 445.074 140.141 456.736 159.273C468.398 178.405 502.572 192.299 500.864 230.164C499.156 268.029 481.054 304.529 449.535 307.346C418.016 310.163 63.2437 307.346 63.2437 307.346L61.4957 304.133L61.4937 304.143Z" fill="#D4F2FF"/>
<path fill-rule="evenodd" clip-rule="evenodd" d="M511.394 197.893H371.805V316.048H511.394V197.893Z" fill="#62B5D9"/>
<path fill-rule="evenodd" clip-rule="evenodd" d="M518.9 197.893C518.9 195.902 518.109 193.991 516.7 192.583C515.292 191.175 513.382 190.383 511.39 190.383H371.805C369.813 190.383 367.903 191.175 366.495 192.583C365.086 193.991 364.295 195.902 364.295 197.893V316.048C364.295 318.04 365.086 319.95 366.495 321.359C367.903 322.767 369.813 323.558 371.805 323.558H511.394C513.386 323.558 515.296 322.767 516.704 321.359C518.113 319.95 518.904 318.04 518.904 316.048V197.893H518.9ZM511.39 197.893H371.805V316.048H511.394V197.893H511.39Z" fill="#62B5D9"/>
<path fill-rule="evenodd" clip-rule="evenodd" d="M449.533 203.14C449.533 201.749 448.98 200.414 447.996 199.43C447.012 198.446 445.677 197.893 444.286 197.893H377.051C376.362 197.893 375.679 198.029 375.043 198.293C374.406 198.557 373.828 198.943 373.341 199.43C372.854 199.918 372.467 200.496 372.204 201.133C371.94 201.769 371.805 202.451 371.805 203.14V260.157C371.805 261.549 372.357 262.883 373.341 263.867C374.325 264.851 375.659 265.404 377.051 265.404H444.286C444.975 265.404 445.657 265.269 446.294 265.005C446.93 264.741 447.509 264.355 447.996 263.868C448.483 263.38 448.87 262.802 449.133 262.165C449.397 261.529 449.533 260.846 449.533 260.157V203.14Z" fill="#48A0C7"/>
<path fill-rule="evenodd" clip-rule="evenodd" d="M449.533 276.697C449.533 276.008 449.397 275.326 449.133 274.69C448.87 274.053 448.483 273.475 447.996 272.988C447.509 272.5 446.93 272.114 446.294 271.85C445.657 271.587 444.975 271.451 444.286 271.451H377.051C376.362 271.451 375.68 271.587 375.043 271.85C374.406 272.114 373.828 272.5 373.341 272.988C372.854 273.475 372.467 274.053 372.204 274.69C371.94 275.326 371.805 276.008 371.805 276.697V333.717C371.805 334.406 371.94 335.089 372.204 335.725C372.467 336.362 372.854 336.94 373.341 337.428C373.828 337.915 374.406 338.301 375.043 338.565C375.679 338.829 376.362 338.964 377.051 338.964H444.286C445.677 338.964 447.012 338.412 447.996 337.428C448.98 336.444 449.533 335.109 449.533 333.717V276.697Z" fill="#48A0C7"/>
<path fill-rule="evenodd" clip-rule="evenodd" d="M445.441 296.693C445.734 296.694 446.024 296.636 446.295 296.524C446.566 296.412 446.812 296.248 447.02 296.041C447.227 295.834 447.391 295.588 447.503 295.317C447.616 295.046 447.673 294.756 447.673 294.462V290.619C447.673 290.326 447.615 290.036 447.503 289.765C447.391 289.494 447.227 289.248 447.019 289.041C446.812 288.834 446.566 288.669 446.295 288.557C446.024 288.445 445.734 288.387 445.441 288.387H408.321C408.028 288.388 407.738 288.445 407.467 288.558C407.197 288.67 406.951 288.834 406.744 289.042C406.536 289.249 406.372 289.495 406.26 289.766C406.148 290.036 406.091 290.326 406.091 290.619V294.462C406.091 294.755 406.148 295.046 406.26 295.316C406.372 295.587 406.536 295.833 406.743 296.04C406.95 296.247 407.196 296.412 407.467 296.524C407.738 296.636 408.028 296.694 408.321 296.693H445.441Z" fill="#6DC1E6"/>
<path fill-rule="evenodd" clip-rule="evenodd" d="M445.441 280.081C445.734 280.082 446.024 280.024 446.295 279.912C446.566 279.8 446.812 279.636 447.02 279.429C447.227 279.222 447.391 278.976 447.503 278.705C447.616 278.434 447.673 278.144 447.673 277.85V274.007C447.673 273.714 447.615 273.424 447.503 273.153C447.391 272.882 447.227 272.636 447.019 272.429C446.812 272.222 446.566 272.057 446.295 271.945C446.024 271.833 445.734 271.775 445.441 271.775H408.321C408.028 271.776 407.738 271.833 407.467 271.946C407.197 272.058 406.951 272.222 406.744 272.43C406.536 272.637 406.372 272.883 406.26 273.154C406.148 273.424 406.091 273.714 406.091 274.007V277.85C406.091 278.143 406.148 278.433 406.26 278.704C406.372 278.975 406.536 279.221 406.743 279.428C406.95 279.635 407.196 279.8 407.467 279.912C407.738 280.024 408.028 280.082 408.321 280.081H445.441Z" fill="#6DC1E6"/>
<path fill-rule="evenodd" clip-rule="evenodd" d="M533.322 203.14C533.322 201.749 532.769 200.415 531.785 199.431C530.801 198.447 529.467 197.894 528.076 197.893H460.841C460.152 197.893 459.469 198.029 458.833 198.293C458.196 198.557 457.618 198.943 457.131 199.43C456.643 199.917 456.257 200.496 455.993 201.133C455.729 201.769 455.594 202.451 455.594 203.14V260.157C455.594 260.846 455.729 261.529 455.993 262.165C456.257 262.802 456.643 263.38 457.131 263.868C457.618 264.355 458.196 264.741 458.833 265.005C459.469 265.269 460.152 265.404 460.841 265.404H528.076C529.467 265.404 530.801 264.851 531.785 263.867C532.769 262.883 533.322 261.549 533.322 260.157V203.14Z" fill="#48A0C7"/>
<path fill-rule="evenodd" clip-rule="evenodd" d="M484.701 257.1C484.994 257.101 485.284 257.043 485.555 256.931C485.826 256.819 486.072 256.654 486.279 256.447C486.486 256.24 486.651 255.994 486.763 255.723C486.875 255.452 486.933 255.162 486.933 254.868V251.025C486.933 250.732 486.875 250.442 486.763 250.171C486.651 249.9 486.487 249.654 486.279 249.447C486.072 249.24 485.826 249.075 485.555 248.963C485.284 248.851 484.994 248.794 484.701 248.794H447.585C447.291 248.794 447.001 248.852 446.73 248.964C446.46 249.076 446.214 249.24 446.006 249.447C445.799 249.655 445.635 249.901 445.523 250.171C445.411 250.442 445.353 250.732 445.354 251.025V254.868C445.353 255.162 445.411 255.452 445.523 255.723C445.635 255.993 445.799 256.239 446.007 256.447C446.214 256.654 446.46 256.818 446.731 256.931C447.001 257.043 447.291 257.1 447.585 257.1H484.701Z" fill="#D5EFFB"/>
<path fill-rule="evenodd" clip-rule="evenodd" d="M484.701 240.488C484.994 240.489 485.284 240.431 485.555 240.319C485.825 240.207 486.071 240.042 486.279 239.835C486.486 239.628 486.65 239.382 486.763 239.111C486.875 238.841 486.933 238.55 486.933 238.257V234.413C486.933 234.12 486.875 233.83 486.763 233.559C486.65 233.289 486.486 233.043 486.279 232.835C486.071 232.628 485.825 232.464 485.555 232.352C485.284 232.24 484.994 232.182 484.701 232.182H447.585C446.993 232.182 446.425 232.417 446.007 232.836C445.589 233.254 445.354 233.822 445.354 234.413V238.257C445.354 238.849 445.589 239.417 446.007 239.835C446.425 240.253 446.993 240.488 447.585 240.488H484.701Z" fill="#D5EFFB"/>
<path fill-rule="evenodd" clip-rule="evenodd" d="M484.701 265.406C484.994 265.406 485.284 265.349 485.555 265.237C485.826 265.125 486.072 264.96 486.279 264.753C486.486 264.546 486.651 264.3 486.763 264.029C486.875 263.758 486.933 263.467 486.933 263.174V259.331C486.933 259.038 486.875 258.748 486.763 258.477C486.651 258.206 486.487 257.96 486.279 257.753C486.072 257.546 485.826 257.381 485.555 257.269C485.284 257.157 484.994 257.1 484.701 257.1H447.585C447.291 257.1 447.001 257.158 446.73 257.27C446.46 257.382 446.214 257.546 446.006 257.753C445.799 257.96 445.635 258.206 445.523 258.477C445.411 258.748 445.353 259.038 445.354 259.331V263.174C445.353 263.467 445.411 263.758 445.523 264.028C445.635 264.299 445.799 264.545 446.007 264.753C446.214 264.96 446.46 265.124 446.731 265.236C447.001 265.349 447.291 265.406 447.585 265.406H484.701Z" fill="#D5EFFB"/>
<path fill-rule="evenodd" clip-rule="evenodd" d="M484.701 248.794C484.994 248.795 485.284 248.737 485.555 248.625C485.826 248.513 486.072 248.348 486.279 248.141C486.486 247.934 486.651 247.688 486.763 247.417C486.875 247.146 486.933 246.856 486.933 246.562V242.719C486.933 242.426 486.875 242.136 486.763 241.865C486.65 241.595 486.486 241.349 486.279 241.142C486.071 240.934 485.825 240.77 485.555 240.658C485.284 240.546 484.994 240.488 484.701 240.488H447.585C446.993 240.488 446.425 240.723 446.007 241.142C445.589 241.56 445.354 242.128 445.354 242.719V246.557C445.353 246.85 445.411 247.141 445.523 247.411C445.635 247.682 445.799 247.928 446.007 248.136C446.214 248.343 446.46 248.507 446.731 248.619C447.001 248.732 447.291 248.789 447.585 248.789L484.701 248.794Z" fill="#D5EFFB"/>
<path fill-rule="evenodd" clip-rule="evenodd" d="M484.701 257.1C484.994 257.101 485.284 257.043 485.555 256.931C485.826 256.819 486.072 256.654 486.279 256.447C486.486 256.24 486.651 255.994 486.763 255.723C486.875 255.452 486.933 255.162 486.933 254.868V251.025C486.933 250.732 486.875 250.442 486.763 250.171C486.651 249.9 486.487 249.654 486.279 249.447C486.072 249.24 485.826 249.075 485.555 248.963C485.284 248.851 484.994 248.794 484.701 248.794H447.585C447.291 248.794 447.001 248.852 446.73 248.964C446.46 249.076 446.214 249.24 446.006 249.447C445.799 249.655 445.635 249.901 445.523 250.171C445.411 250.442 445.353 250.732 445.354 251.025V254.868C445.353 255.162 445.411 255.452 445.523 255.723C445.635 255.993 445.799 256.239 446.007 256.447C446.214 256.654 446.46 256.818 446.731 256.931C447.001 257.043 447.291 257.1 447.585 257.1H484.701Z" fill="#9BDDFA"/>
<path fill-rule="evenodd" clip-rule="evenodd" d="M484.701 240.488C484.994 240.489 485.284 240.431 485.555 240.319C485.825 240.207 486.071 240.042 486.279 239.835C486.486 239.628 486.65 239.382 486.763 239.111C486.875 238.841 486.933 238.55 486.933 238.257V234.413C486.933 234.12 486.875 233.83 486.763 233.559C486.65 233.289 486.486 233.043 486.279 232.835C486.071 232.628 485.825 232.464 485.555 232.352C485.284 232.24 484.994 232.182 484.701 232.182H447.585C446.993 232.182 446.425 232.417 446.007 232.836C445.589 233.254 445.354 233.822 445.354 234.413V238.257C445.354 238.849 445.589 239.417 446.007 239.835C446.425 240.253 446.993 240.488 447.585 240.488H484.701Z" fill="#9BDDFA"/>
<path fill-rule="evenodd" clip-rule="evenodd" d="M484.701 265.406C484.994 265.406 485.284 265.349 485.555 265.237C485.826 265.125 486.072 264.96 486.279 264.753C486.486 264.546 486.651 264.3 486.763 264.029C486.875 263.758 486.933 263.467 486.933 263.174V259.331C486.933 259.038 486.875 258.748 486.763 258.477C486.651 258.206 486.487 257.96 486.279 257.753C486.072 257.546 485.826 257.381 485.555 257.269C485.284 257.157 484.994 257.1 484.701 257.1H447.585C447.291 257.1 447.001 257.158 446.73 257.27C446.46 257.382 446.214 257.546 446.006 257.753C445.799 257.96 445.635 258.206 445.523 258.477C445.411 258.748 445.353 259.038 445.354 259.331V263.174C445.353 263.467 445.411 263.758 445.523 264.028C445.635 264.299 445.799 264.545 446.007 264.753C446.214 264.96 446.46 265.124 446.731 265.236C447.001 265.349 447.291 265.406 447.585 265.406H484.701Z" fill="#6DC1E6"/>
<path fill-rule="evenodd" clip-rule="evenodd" d="M484.701 248.794C484.994 248.795 485.284 248.737 485.555 248.625C485.826 248.513 486.072 248.348 486.279 248.141C486.486 247.934 486.651 247.688 486.763 247.417C486.875 247.146 486.933 246.856 486.933 246.562V242.719C486.933 242.426 486.875 242.136 486.763 241.865C486.65 241.595 486.486 241.349 486.279 241.142C486.071 240.934 485.825 240.77 485.555 240.658C485.284 240.546 484.994 240.488 484.701 240.488H447.585C446.993 240.488 446.425 240.723 446.007 241.142C445.589 241.56 445.354 242.128 445.354 242.719V246.557C445.353 246.85 445.411 247.141 445.523 247.411C445.635 247.682 445.799 247.928 446.007 248.136C446.214 248.343 446.46 248.507 446.731 248.619C447.001 248.732 447.291 248.789 447.585 248.789L484.701 248.794Z" fill="#6DC1E6"/>
<path fill-rule="evenodd" clip-rule="evenodd" d="M533.322 276.697C533.322 275.306 532.769 273.972 531.785 272.988C530.801 272.004 529.467 271.451 528.076 271.451H460.841C460.152 271.451 459.469 271.587 458.833 271.85C458.196 272.114 457.618 272.5 457.131 272.988C456.643 273.475 456.257 274.053 455.993 274.69C455.729 275.326 455.594 276.008 455.594 276.697V333.717C455.594 334.406 455.729 335.089 455.993 335.725C456.257 336.362 456.643 336.94 457.131 337.428C457.618 337.915 458.196 338.301 458.833 338.565C459.469 338.829 460.152 338.964 460.841 338.964H528.076C529.467 338.964 530.801 338.411 531.785 337.427C532.769 336.443 533.322 335.109 533.322 333.717V276.697Z" fill="#48A0C7"/>
<path fill-rule="evenodd" clip-rule="evenodd" d="M463.9 286.648C463.9 286.355 463.842 286.065 463.73 285.794C463.618 285.523 463.454 285.277 463.246 285.07C463.039 284.863 462.793 284.698 462.522 284.586C462.251 284.474 461.961 284.416 461.668 284.416H457.825C457.532 284.416 457.241 284.474 456.97 284.586C456.7 284.698 456.453 284.862 456.246 285.07C456.039 285.277 455.875 285.523 455.763 285.794C455.651 286.065 455.593 286.355 455.594 286.648V323.767C455.593 324.06 455.651 324.351 455.763 324.621C455.875 324.892 456.039 325.138 456.247 325.346C456.454 325.553 456.7 325.717 456.971 325.829C457.241 325.941 457.532 325.999 457.825 325.998H461.668C461.961 325.999 462.251 325.941 462.522 325.829C462.793 325.717 463.039 325.552 463.246 325.345C463.453 325.138 463.618 324.892 463.73 324.621C463.842 324.351 463.9 324.06 463.9 323.767V286.648Z" fill="#D5EFFB"/>
<path fill-rule="evenodd" clip-rule="evenodd" d="M472.205 286.648C472.206 286.355 472.148 286.065 472.036 285.794C471.924 285.523 471.759 285.277 471.552 285.07C471.345 284.863 471.099 284.698 470.828 284.586C470.557 284.474 470.267 284.416 469.973 284.416H466.13C465.837 284.416 465.547 284.474 465.276 284.586C465.005 284.698 464.759 284.862 464.552 285.07C464.345 285.277 464.18 285.523 464.068 285.794C463.956 286.065 463.899 286.355 463.899 286.648V323.767C463.899 324.06 463.957 324.351 464.069 324.621C464.181 324.892 464.345 325.138 464.552 325.346C464.759 325.553 465.006 325.717 465.276 325.829C465.547 325.941 465.837 325.999 466.13 325.998H469.973C470.266 325.999 470.557 325.941 470.827 325.829C471.098 325.717 471.344 325.552 471.552 325.345C471.759 325.138 471.923 324.892 472.035 324.621C472.148 324.351 472.205 324.06 472.205 323.767V286.648Z" fill="#D5EFFB"/>
<path fill-rule="evenodd" clip-rule="evenodd" d="M380.111 226.057C380.11 225.466 379.875 224.898 379.457 224.48C379.039 224.061 378.471 223.826 377.88 223.825H374.036C373.444 223.826 372.877 224.061 372.458 224.48C372.04 224.898 371.805 225.466 371.805 226.057V263.176C371.805 263.768 372.04 264.336 372.458 264.754C372.877 265.173 373.444 265.408 374.036 265.408H377.88C378.471 265.408 379.039 265.173 379.457 264.754C379.875 264.336 380.11 263.768 380.111 263.176V226.057Z" fill="#9BDDFA"/>
<path fill-rule="evenodd" clip-rule="evenodd" d="M388.415 226.057C388.415 225.764 388.358 225.474 388.246 225.204C388.134 224.933 387.97 224.687 387.763 224.48C387.556 224.272 387.31 224.108 387.039 223.996C386.768 223.883 386.478 223.826 386.185 223.825H382.341C381.75 223.826 381.182 224.061 380.764 224.48C380.346 224.898 380.111 225.466 380.11 226.057V263.176C380.111 263.768 380.346 264.336 380.764 264.754C381.182 265.173 381.75 265.408 382.341 265.408H386.185C386.478 265.408 386.768 265.35 387.039 265.238C387.31 265.126 387.556 264.962 387.763 264.754C387.97 264.547 388.134 264.301 388.246 264.03C388.358 263.76 388.415 263.469 388.415 263.176V226.057Z" fill="#6DC1E6"/>
<path fill-rule="evenodd" clip-rule="evenodd" d="M441.2 226.057C441.199 225.466 440.964 224.898 440.546 224.479C440.127 224.061 439.559 223.826 438.968 223.825H435.125C434.831 223.825 434.541 223.883 434.271 223.995C434 224.108 433.754 224.272 433.547 224.479C433.339 224.687 433.175 224.933 433.063 225.203C432.951 225.474 432.893 225.764 432.894 226.057V263.176C432.893 263.47 432.951 263.76 433.063 264.031C433.175 264.301 433.339 264.547 433.547 264.755C433.754 264.962 434 265.126 434.271 265.239C434.541 265.351 434.831 265.408 435.125 265.408H438.968C439.559 265.408 440.127 265.173 440.546 264.754C440.964 264.336 441.199 263.768 441.2 263.176V226.057Z" fill="#6DC1E6"/>
<path fill-rule="evenodd" clip-rule="evenodd" d="M449.505 226.057C449.505 225.466 449.27 224.898 448.851 224.479C448.433 224.061 447.865 223.826 447.273 223.825H443.43C443.137 223.825 442.847 223.883 442.576 223.995C442.305 224.108 442.059 224.272 441.852 224.479C441.645 224.687 441.481 224.933 441.369 225.203C441.257 225.474 441.199 225.764 441.199 226.057V263.176C441.199 263.47 441.257 263.76 441.369 264.031C441.481 264.301 441.645 264.547 441.852 264.755C442.059 264.962 442.305 265.126 442.576 265.239C442.847 265.351 443.137 265.408 443.43 265.408H447.273C447.865 265.408 448.433 265.173 448.851 264.754C449.27 264.336 449.505 263.768 449.505 263.176V226.057V226.057Z" fill="#9BDDFA"/>
<path fill-rule="evenodd" clip-rule="evenodd" d="M396.199 226.803C396.08 226.536 395.909 226.294 395.696 226.093C395.483 225.891 395.233 225.734 394.959 225.629C394.685 225.524 394.393 225.475 394.1 225.483C393.808 225.491 393.519 225.557 393.251 225.676L389.742 227.243C389.202 227.485 388.78 227.931 388.568 228.483C388.357 229.036 388.373 229.65 388.614 230.19L403.75 264.084C403.992 264.625 404.438 265.047 404.991 265.258C405.544 265.47 406.158 265.453 406.698 265.212L410.208 263.645C410.476 263.526 410.717 263.355 410.919 263.142C411.12 262.929 411.278 262.678 411.382 262.405C411.487 262.131 411.536 261.839 411.528 261.546C411.52 261.253 411.454 260.965 411.334 260.697C408.39 254.105 399.143 233.397 396.199 226.803Z" fill="#9BDDFA"/>
<path fill-rule="evenodd" clip-rule="evenodd" d="M405.157 226.803C405.038 226.536 404.867 226.294 404.654 226.093C404.441 225.891 404.191 225.734 403.917 225.629C403.643 225.524 403.351 225.475 403.058 225.483C402.766 225.491 402.477 225.557 402.209 225.676L398.7 227.243C398.16 227.485 397.738 227.931 397.526 228.483C397.315 229.036 397.331 229.65 397.572 230.19L412.708 264.084C412.95 264.625 413.396 265.047 413.949 265.258C414.502 265.47 415.116 265.453 415.656 265.212L419.166 263.645C419.434 263.526 419.675 263.355 419.877 263.142C420.078 262.929 420.236 262.678 420.34 262.405C420.445 262.131 420.494 261.839 420.486 261.546C420.478 261.253 420.412 260.965 420.292 260.697C417.348 254.105 408.101 233.397 405.157 226.803Z" fill="#6DC1E6"/>
<path fill-rule="evenodd" clip-rule="evenodd" d="M414.084 226.803C413.842 226.263 413.396 225.841 412.843 225.63C412.29 225.418 411.676 225.435 411.136 225.677C410.048 226.162 408.714 226.757 407.628 227.243C407.36 227.363 407.118 227.533 406.916 227.746C406.714 227.959 406.557 228.209 406.452 228.483C406.347 228.757 406.297 229.048 406.306 229.341C406.314 229.634 406.38 229.923 406.5 230.19C409.444 236.784 418.691 257.49 421.636 264.084C421.755 264.352 421.926 264.594 422.139 264.795C422.351 264.997 422.602 265.154 422.875 265.259C423.149 265.364 423.441 265.414 423.734 265.406C424.026 265.398 424.315 265.332 424.583 265.212L428.092 263.646C428.632 263.404 429.054 262.958 429.265 262.405C429.477 261.852 429.46 261.238 429.22 260.698C426.275 254.106 417.028 233.397 414.084 226.803V226.803Z" fill="#9BDDFA"/>
<path d="M378.081 312.049C367.714 310.101 363.907 300.673 363.87 300.577L364.743 300.235C364.778 300.324 368.41 309.275 378.254 311.127L378.081 312.049Z" fill="#C95B30"/>
<path fill-rule="evenodd" clip-rule="evenodd" d="M222.511 41.5574H44.6426V210.667H214.984C216.98 210.667 218.894 209.874 220.306 208.462C221.717 207.051 222.51 205.137 222.511 203.14V41.5574Z" fill="#98CBE0"/>
<path fill-rule="evenodd" clip-rule="evenodd" d="M215.857 39.8024C215.858 39.4806 215.794 39.1619 215.671 38.8646C215.548 38.5672 215.368 38.297 215.14 38.0694C214.913 37.8418 214.643 37.6612 214.345 37.538C214.048 37.4148 213.729 37.3514 213.407 37.3514H126.224C125.903 37.3513 125.584 37.4146 125.286 37.5377C124.989 37.6608 124.718 37.8414 124.491 38.069C124.263 38.2966 124.082 38.5668 123.959 38.8643C123.836 39.1617 123.772 39.4805 123.772 39.8024V201.564C123.773 201.886 123.836 202.205 123.959 202.502C124.083 202.8 124.263 203.07 124.491 203.297C124.719 203.525 124.989 203.705 125.286 203.828C125.584 203.951 125.903 204.015 126.224 204.014H213.407C214.057 204.014 214.68 203.756 215.14 203.297C215.599 202.837 215.857 202.214 215.857 201.564V39.8024V39.8024Z" fill="#F0FAFF"/>
<path fill-rule="evenodd" clip-rule="evenodd" d="M219.592 130.836H149.799V206.232H219.592V130.836Z" fill="#48A0C7"/>
<path fill-rule="evenodd" clip-rule="evenodd" d="M219.592 103.059L154.7 103.292L141.162 130.836H219.592V103.059Z" fill="#48A0C7"/>
<path fill-rule="evenodd" clip-rule="evenodd" d="M123.071 177.328C123.071 177.328 126.007 177.084 127.231 176.228C128.455 175.372 131.27 173.659 132.131 175.678C132.992 177.697 131.885 178.64 132.987 179.515C134.089 180.39 136.287 180.206 136.287 181.492C136.287 182.778 135.126 184.792 136.043 185.285C136.96 185.778 138.429 185.775 138.49 186.631C138.551 187.487 137.022 188.406 137.267 190.425C137.512 192.444 137.695 193.362 138.979 192.873C140.263 192.384 142.101 190.242 143.324 189.935C144.547 189.628 144.124 190.914 145.224 191.159C145.414 191.185 145.596 191.249 145.761 191.347C145.926 191.445 146.07 191.574 146.184 191.728C146.298 191.882 146.38 192.057 146.426 192.244C146.471 192.43 146.479 192.623 146.449 192.812C146.449 193.485 145.959 194.769 146.999 194.953C148.039 195.137 149.936 195.137 150.365 195.504C150.794 195.871 149.565 197.584 150.425 197.645C151.285 197.706 154.77 195.627 155.566 196.177C156.362 196.727 155.994 198.992 157.156 199.603C158.318 200.214 161.44 200.276 161.256 201.685C161.049 202.851 160.742 203.997 160.338 205.11L122.89 204.621L123.074 177.33L123.071 177.328Z" fill="#0B597C"/>
<path fill-rule="evenodd" clip-rule="evenodd" d="M118.521 39.8024C118.521 39.1524 118.262 38.529 117.803 38.0693C117.343 37.6097 116.72 37.3514 116.07 37.3514H28.8865C28.2365 37.3514 27.6131 37.6097 27.1534 38.0693C26.6938 38.529 26.4355 39.1524 26.4355 39.8024V201.564C26.4355 201.886 26.4989 202.205 26.6221 202.502C26.7453 202.8 26.9259 203.07 27.1535 203.297C27.3811 203.525 27.6513 203.705 27.9487 203.828C28.246 203.951 28.5647 204.015 28.8865 204.014H116.07C116.391 204.015 116.71 203.951 117.007 203.828C117.305 203.705 117.575 203.525 117.803 203.297C118.03 203.07 118.211 202.8 118.334 202.502C118.457 202.205 118.521 201.886 118.521 201.564V39.8024Z" fill="#F0FAFF"/>
<path fill-rule="evenodd" clip-rule="evenodd" d="M95.4121 204.014C95.4121 204.014 95.4121 201.629 98.3991 199.687C98.3991 199.687 96.9051 194.906 103.18 194.309C103.7 194.168 104.165 193.874 104.515 193.465C104.865 193.055 105.084 192.55 105.142 192.014C105.203 190.24 106.794 189.751 109.487 189.383C112.18 189.015 114.259 187.792 113.28 186.568C112.301 185.344 112.912 183.142 115.299 183.203C117.686 183.264 116.768 180.327 119.582 179.531C122.396 178.735 120.929 204.014 120.929 204.014L96.1461 204.614L95.4121 204.014Z" fill="#0B597C"/>
<path fill-rule="evenodd" clip-rule="evenodd" d="M337.945 168.341C338.037 168.05 338.07 167.743 338.043 167.439C338.016 167.135 337.929 166.839 337.787 166.568C337.646 166.297 337.452 166.057 337.218 165.861C336.984 165.665 336.713 165.518 336.421 165.426C335.833 165.242 335.195 165.299 334.648 165.585C334.101 165.87 333.69 166.362 333.505 166.95C329.57 179.514 310.125 241.595 306.189 254.16C306.098 254.452 306.065 254.759 306.092 255.063C306.119 255.367 306.206 255.663 306.348 255.934C306.49 256.204 306.683 256.445 306.918 256.64C307.152 256.836 307.423 256.984 307.714 257.075V257.075C308.303 257.259 308.941 257.202 309.487 256.916C310.034 256.63 310.445 256.139 310.629 255.55C314.564 242.985 334.01 180.905 337.945 168.34V168.341Z" fill="#81A0B3"/>
<path d="M329.16 301.78L325.341 298.543L339.006 282.425C339.719 281.577 340.14 280.522 340.209 279.416C340.277 278.309 339.989 277.21 339.386 276.28L320.676 247.68L324.866 244.94L343.575 273.54C344.763 275.375 345.331 277.542 345.196 279.723C345.061 281.904 344.229 283.984 342.824 285.657L329.16 301.78Z" fill="#39474F"/>
<path fill-rule="evenodd" clip-rule="evenodd" d="M351.386 302.086C351.386 301.085 350.988 300.126 350.281 299.418C349.573 298.71 348.613 298.312 347.612 298.311H302.977C301.94 298.312 300.917 298.555 299.991 299.023C299.065 299.491 298.262 300.169 297.646 301.003L295.699 303.64H351.386V302.086V302.086Z" fill="#39474F"/>
<path fill-rule="evenodd" clip-rule="evenodd" d="M326.047 213.829C326.047 213.829 328.261 216.715 329.564 218.411C329.855 218.791 330.063 219.228 330.173 219.693C330.283 220.158 330.294 220.642 330.204 221.111C329.268 226.011 326.286 241.6 325.204 247.278C325.085 247.906 324.79 248.486 324.355 248.953C323.919 249.42 323.361 249.755 322.743 249.918C322.164 250.07 321.549 250.233 321.027 250.372C320.189 250.594 319.298 250.486 318.536 250.072C317.221 249.353 315.278 248.294 315.278 248.294L326.05 213.829H326.047Z" fill="#39474F"/>
<path fill-rule="evenodd" clip-rule="evenodd" d="M341.812 167.388C341.924 167.029 341.965 166.652 341.931 166.277C341.898 165.902 341.791 165.538 341.616 165.205C341.442 164.871 341.203 164.576 340.914 164.335C340.626 164.093 340.292 163.912 339.933 163.799V163.799C339.208 163.573 338.422 163.643 337.749 163.996C337.075 164.348 336.569 164.953 336.342 165.678C331.969 179.639 312.165 242.865 307.792 256.828C307.565 257.553 307.635 258.339 307.987 259.012C308.339 259.685 308.944 260.19 309.669 260.417C310.394 260.644 311.18 260.574 311.853 260.222C312.526 259.87 313.032 259.264 313.259 258.539L341.811 167.388H341.812Z" fill="#586E7A"/>
<path fill-rule="evenodd" clip-rule="evenodd" d="M292.165 206.369C292.171 205.666 291.922 204.985 291.465 204.451C291.256 204.206 290.997 204.008 290.705 203.871C290.413 203.734 290.095 203.661 289.772 203.657H240.143C239.82 203.661 239.502 203.734 239.21 203.871C238.918 204.008 238.659 204.206 238.449 204.451C237.992 204.985 237.743 205.666 237.749 206.369V207.782C237.743 208.485 237.992 209.167 238.449 209.7C238.658 209.947 238.917 210.146 239.209 210.284C239.502 210.422 239.82 210.496 240.143 210.5H289.772C290.095 210.496 290.413 210.422 290.705 210.284C290.997 210.146 291.256 209.947 291.465 209.7C291.923 209.167 292.171 208.485 292.165 207.782V206.369V206.369Z" fill="#62B5D9"/>
<path fill-rule="evenodd" clip-rule="evenodd" d="M430.812 26.2054C430.816 25.8861 430.758 25.5691 430.639 25.2724C430.521 24.9758 430.345 24.7054 430.122 24.4767C429.9 24.2479 429.634 24.0654 429.34 23.9394C429.047 23.8134 428.731 23.7465 428.412 23.7424H268.321C268.002 23.7465 267.686 23.8134 267.393 23.9394C267.099 24.0654 266.834 24.2479 266.611 24.4767C266.388 24.7054 266.212 24.9758 266.094 25.2724C265.976 25.5691 265.917 25.8861 265.921 26.2054V133.357C265.917 133.677 265.976 133.993 266.094 134.29C266.213 134.586 266.388 134.856 266.611 135.085C266.834 135.313 267.1 135.496 267.393 135.621C267.687 135.747 268.002 135.814 268.321 135.817H428.415C428.734 135.814 429.05 135.747 429.343 135.621C429.636 135.496 429.902 135.313 430.125 135.085C430.348 134.856 430.524 134.586 430.642 134.29C430.76 133.993 430.819 133.677 430.815 133.357V26.2054H430.812Z" fill="#D9F4FF"/>
<path d="M172.413 219.151C171.224 219.673 170.52 220.209 169.263 219.875C168.555 219.615 167.951 219.133 167.54 218.5C167.13 217.868 166.935 217.12 166.986 216.367C165.912 216.727 165.103 216.036 164.404 215.08C164.038 214.699 163.803 214.21 163.735 213.686C163.667 213.162 163.769 212.629 164.026 212.167C163.503 212.164 162.998 211.977 162.599 211.639C162.2 211.302 161.932 210.835 161.841 210.32C161.698 209.836 161.732 209.317 161.938 208.856C162.144 208.395 162.508 208.023 162.964 207.807C161.511 206.217 161.106 203.484 162.551 201.925C162.196 201.493 161.934 200.992 161.78 200.453C161.627 199.915 161.586 199.351 161.66 198.796C161.733 198.241 161.92 197.708 162.209 197.228C162.497 196.749 162.881 196.333 163.337 196.008C162.45 195.465 162.51 193.808 162.717 192.749C162.815 192.285 163.031 191.854 163.346 191.498C163.66 191.142 164.06 190.874 164.509 190.719C164.787 190.588 164.924 189.77 164.909 189.509C164.889 189.103 164.954 188.697 165.099 188.316C165.243 187.936 165.465 187.589 165.75 187.298C166.034 187.007 166.376 186.778 166.753 186.625C167.13 186.472 167.535 186.399 167.942 186.409C168.222 184.793 169.931 183.328 171.371 183.94C172.063 182.12 174.408 180.9 176.071 181.793C176.661 180.976 177.521 180.394 178.498 180.15C179.476 179.906 180.508 180.015 181.413 180.459C182.813 179.159 184.924 179.428 186.493 180.526C187.831 179.901 189.749 179.644 190.626 180.911C190.767 181.181 190.94 181.433 191.14 181.661C191.64 182.099 192.366 181.818 193.006 181.756C193.737 181.739 194.447 182 194.992 182.488C195.538 182.975 195.876 183.652 195.94 184.38C196.857 184.332 197.77 184.527 198.587 184.946C199 185.188 199.317 185.564 199.485 186.012C199.652 186.46 199.661 186.952 199.508 187.405C199.914 187.252 200.357 187.227 200.777 187.334C201.198 187.442 201.575 187.676 201.857 188.005C202.144 188.357 202.329 188.78 202.391 189.23C202.453 189.679 202.39 190.137 202.209 190.553C202.549 190.746 202.839 191.014 203.058 191.338C203.276 191.661 203.417 192.031 203.469 192.417C203.521 192.804 203.482 193.198 203.356 193.567C203.231 193.937 203.021 194.272 202.744 194.547C203.051 194.799 203.297 195.117 203.465 195.477C203.633 195.837 203.718 196.229 203.714 196.626C203.71 197.023 203.617 197.414 203.442 197.771C203.267 198.127 203.014 198.44 202.702 198.685C202.983 199.017 203.185 199.408 203.294 199.828C203.403 200.249 203.416 200.689 203.332 201.115C203.247 201.542 203.068 201.944 202.807 202.291C202.546 202.638 202.21 202.923 201.824 203.122C202.909 204.315 202.198 206.684 200.674 206.955C200.821 207.241 200.905 207.556 200.921 207.877C200.936 208.198 200.882 208.519 200.763 208.818C200.644 209.117 200.462 209.386 200.229 209.609C199.997 209.831 199.72 210.001 199.416 210.107C199.504 210.65 199.384 211.206 199.079 211.664C198.775 212.122 198.309 212.448 197.774 212.576C196.728 212.747 195.674 212.865 194.616 212.928C193.374 213.28 192.204 213.848 191.159 214.605C187.08 217.101 182.48 218.62 177.717 219.044C177.428 219.105 177.129 219.106 176.839 219.046C176.55 218.987 176.276 218.868 176.034 218.697" fill="#1F1A1A"/>
<path d="M164.213 205.981C165.632 198.381 174.552 202.633 174.552 202.633C174.552 202.633 178.457 202.625 180.718 197.052C180.718 197.052 184.042 192.67 192.449 194.241C200.856 195.812 199.649 201.857 199.649 201.857C199.025 206.386 197.849 215.038 197.158 217.835C196.053 222.293 192.731 230.159 185.598 230.117L184.469 234.379L183.795 236.916C183.795 236.916 182.628 242.394 173.053 238.207C166.738 235.447 167.894 231.513 167.894 231.513L171.017 216.221C171.017 216.221 162.8 213.557 164.213 205.981Z" fill="#824B45"/>
<path d="M177.8 227.862C177.8 227.862 177.441 231.841 184.47 234.378L185.601 230.118L185.187 230.183C183.861 230.345 182.516 230.222 181.242 229.822C179.968 229.421 178.795 228.753 177.8 227.862V227.862Z" fill="#452518"/>
<path d="M184.863 209.411L184.725 209.493C184.578 209.614 184.403 209.695 184.216 209.73C184.076 209.756 183.933 209.756 183.793 209.73L178.715 208.781C178.475 208.732 178.254 208.611 178.083 208.434C177.906 208.246 177.786 208.011 177.737 207.757C177.688 207.502 177.711 207.24 177.805 206.998C178.393 205.461 180.364 203.271 182.878 204.363C182.978 204.39 183.04 204.449 183.122 204.474C183.783 204.795 184.344 205.29 184.744 205.905C185.145 206.521 185.371 207.233 185.397 207.967C185.409 208.072 185.412 208.177 185.407 208.282C185.415 208.501 185.369 208.717 185.275 208.914C185.18 209.111 185.039 209.281 184.863 209.411V209.411Z" fill="white"/>
<path d="M197.465 211.765L197.349 211.851C197.216 211.975 197.052 212.06 196.875 212.099C196.751 212.125 196.624 212.125 196.5 212.099L191.99 211.257C191.773 211.21 191.577 211.092 191.433 210.923C191.277 210.725 191.176 210.489 191.139 210.239C191.102 209.99 191.13 209.735 191.221 209.499C191.778 207.957 193.577 205.735 195.788 206.77C195.875 206.795 195.941 206.854 196.014 206.878C196.615 207.225 197.113 207.726 197.457 208.33C197.8 208.933 197.977 209.617 197.968 210.311C197.978 210.43 197.968 210.531 197.973 210.625C197.978 210.841 197.935 211.055 197.847 211.252C197.759 211.449 197.629 211.625 197.465 211.765V211.765Z" fill="white"/>
<path d="M187.216 216.85C187.404 216.86 191.816 217.05 192.422 214.198C192.525 213.859 192.547 213.501 192.485 213.152C192.424 212.802 192.281 212.473 192.068 212.189C191.844 211.962 191.577 211.781 191.282 211.659C190.987 211.537 190.67 211.476 190.351 211.478L190.841 206.498L190.021 206.427L189.431 212.417L189.931 212.356C190.2 212.315 190.474 212.332 190.737 212.405C190.999 212.479 191.242 212.607 191.451 212.781C191.571 212.962 191.649 213.169 191.678 213.384C191.706 213.6 191.685 213.819 191.616 214.025C191.168 216.15 187.316 215.983 187.273 215.981L187.216 216.85Z" fill="#451A16"/>
<path d="M183.316 222.208C184.251 222.379 185.202 222.452 186.152 222.425L186.134 221.555C186.707 221.55 180.149 221.898 179.809 218.561L178.99 218.671C179.221 220.947 181.415 221.857 183.316 222.208Z" fill="#451A16"/>
<path d="M169.236 209.814L169.875 209.251C169.452 208.434 169.154 207.558 168.991 206.651C169.125 206.318 169.325 206.015 169.581 205.762C169.836 205.51 170.141 205.312 170.476 205.182L170.22 204.36C169.754 204.537 169.332 204.813 168.983 205.169C168.635 205.525 168.368 205.953 168.201 206.422C168.09 207.029 168.125 207.654 168.306 208.245C168.486 208.835 168.805 209.373 169.236 209.814V209.814Z" fill="#451A16"/>
<path d="M185.941 202.986C185.941 202.986 182.454 200.449 179.106 201.905C179.418 201.151 179.956 200.513 180.647 200.079C181.338 199.645 182.147 199.437 182.961 199.483C185.757 199.731 185.941 202.986 185.941 202.986Z" fill="#1F1A1A"/>
<path d="M199.162 205.541C199.162 205.541 195.674 203.004 192.327 204.461C192.638 203.707 193.176 203.069 193.867 202.635C194.558 202.201 195.367 201.993 196.181 202.039C198.978 202.286 199.162 205.541 199.162 205.541Z" fill="#1F1A1A"/>
<path d="M176.517 201.357C175.103 204.018 174.304 206.962 174.18 209.972L172.362 208.549L171.984 201.549L176.517 201.357Z" fill="#1F1A1A"/>
<path d="M180.238 196.195C180.169 196.428 180.152 196.673 180.188 196.912C180.224 197.152 180.312 197.381 180.446 197.583C180.58 197.785 180.757 197.955 180.964 198.081C181.171 198.208 181.403 198.287 181.644 198.313C182.138 198.318 182.623 198.183 183.044 197.924C183.465 197.666 183.805 197.294 184.024 196.851C184.046 197.21 184.2 197.548 184.456 197.8C184.713 198.051 185.054 198.198 185.413 198.212C185.773 198.207 186.127 198.121 186.449 197.961C186.771 197.801 187.054 197.571 187.276 197.288C187.31 197.734 187.487 198.157 187.781 198.493C188.076 198.83 188.471 199.061 188.909 199.153C189.346 199.245 189.802 199.193 190.207 199.004C190.612 198.814 190.944 198.499 191.154 198.104C192.145 200.704 193.94 199.604 194.874 198.437C194.855 198.796 194.933 199.154 195.099 199.472C195.265 199.791 195.513 200.059 195.818 200.249C195.975 200.33 196.146 200.379 196.321 200.392C196.497 200.405 196.673 200.382 196.839 200.325C197.006 200.267 197.159 200.177 197.289 200.059C197.42 199.941 197.525 199.797 197.598 199.637C197.722 199.915 197.901 200.164 198.125 200.369C198.349 200.574 198.612 200.731 198.899 200.831C199.186 200.93 199.49 200.97 199.793 200.947C200.096 200.924 200.391 200.84 200.659 200.698C200.832 200.607 200.984 200.481 201.107 200.33C201.231 200.179 201.323 200.005 201.378 199.817C201.431 199.499 201.412 199.173 201.323 198.863C201.145 197.794 200.813 196.755 200.338 195.78C199.067 193.441 196.42 192.301 193.893 191.61C191.632 190.953 189.286 190.635 186.931 190.665C185.529 190.671 184.142 190.95 182.847 191.487C181.531 192.043 180.447 193.037 179.778 194.3" fill="#1F1A1A"/>
<path d="M184.868 208.242C184.772 208.783 184.548 209.293 184.216 209.73C184.076 209.756 183.933 209.756 183.793 209.73L180.814 209.173C180.636 208.622 180.602 208.035 180.714 207.466C180.999 205.939 182.16 204.866 183.308 205.084C184.456 205.302 185.153 206.715 184.868 208.242Z" fill="#1F1A1A"/>
<path d="M197.471 210.686C197.379 211.196 197.174 211.679 196.871 212.099C196.747 212.125 196.619 212.125 196.496 212.099L193.385 211.518C193.237 210.994 193.214 210.442 193.318 209.906C193.603 208.378 194.763 207.313 195.912 207.528C197.061 207.743 197.757 209.157 197.471 210.686Z" fill="#1F1A1A"/>
<path fill-rule="evenodd" clip-rule="evenodd" d="M429.477 26.2054V133.357C429.48 133.643 429.37 133.918 429.171 134.122C428.972 134.326 428.7 134.443 428.415 134.446H268.321C268.036 134.443 267.764 134.326 267.564 134.122C267.365 133.918 267.255 133.643 267.259 133.357V26.2054C267.255 25.9199 267.365 25.6446 267.564 25.44C267.763 25.2355 268.035 25.1183 268.321 25.1144H428.415C428.7 25.1183 428.973 25.2355 429.172 25.44C429.371 25.6446 429.481 25.9199 429.477 26.2054V26.2054Z" fill="#E0F6FF"/>
<path fill-rule="evenodd" clip-rule="evenodd" d="M435.789 23.7424H259.254V34.7224H435.789V23.7424Z" fill="#7FC6DB"/>
<path fill-rule="evenodd" clip-rule="evenodd" d="M430.812 120.634H265.924V133.392C265.917 134.028 266.161 134.64 266.605 135.095C267.048 135.55 267.654 135.811 268.289 135.82H428.446C429.081 135.811 429.687 135.551 430.131 135.096C430.575 134.64 430.819 134.028 430.812 133.392V120.634Z" fill="#7FC6DB"/>
<path fill-rule="evenodd" clip-rule="evenodd" d="M162.438 233.551C162.438 233.551 164.338 226.968 166.506 226.321C168.674 225.674 181.114 231.767 184.656 233.604C188.198 235.441 188.471 239.384 186.856 244.462C186.856 244.462 176.378 232.039 162.442 233.551H162.438Z" fill="#FDBC11"/>
<path fill-rule="evenodd" clip-rule="evenodd" d="M187.792 245.906C187.792 245.906 195.372 260.952 193.918 272.976C192.464 285 191.804 304.668 191.804 304.668H178.459L176.742 290.285L183.084 251.571L187.792 245.906Z" fill="white"/>
<path fill-rule="evenodd" clip-rule="evenodd" d="M163 232.619C163 232.619 153.487 240.456 150.448 245.874C147.409 251.292 133.536 288.017 131.819 304.668H179.519C179.519 304.668 182.558 290.668 184.142 283.925C185.726 277.182 193.392 263.298 186.785 242.835C186.785 242.835 173.441 230.316 163.002 232.619H163Z" fill="#00315C"/>
<path fill-rule="evenodd" clip-rule="evenodd" d="M180.05 308.609L159.355 256.699L169.397 255.42L179.797 280.531L186.899 286.769L180.05 308.609Z" fill="#00172B"/>
<path fill-rule="evenodd" clip-rule="evenodd" d="M238.132 281.1L250.532 279.1C250.926 279.037 251.33 279.06 251.715 279.168C252.099 279.277 252.455 279.469 252.758 279.729C254.566 281.292 258.49 284.68 260.783 286.66C261.28 287.089 261.613 287.678 261.724 288.325C261.836 288.972 261.718 289.638 261.392 290.208L259.343 293.796L249.721 283.641L241.14 284.241L238.132 282.57V281.1V281.1Z" fill="#823F38"/>
<path fill-rule="evenodd" clip-rule="evenodd" d="M191.914 275.286C191.914 275.286 196.727 282.686 200.397 283.256C204.067 283.826 238.311 279.577 238.311 279.577C238.311 279.577 240.948 280.964 241.138 283.247C241.328 285.53 222.5 288.067 222.5 288.067L196.563 289.046L188.489 283.418L187.347 275.286L186.614 270.286L191.914 275.286V275.286Z" fill="#00172B"/>
<path fill-rule="evenodd" clip-rule="evenodd" d="M254.571 289.629C254.571 289.629 253.984 296.014 255.962 296.975C256.601 295.671 257.119 294.312 257.511 292.913C258.311 290.241 254.571 289.629 254.571 289.629Z" fill="#F7A89F"/>
<path fill-rule="evenodd" clip-rule="evenodd" d="M254.572 289.629C254.572 289.629 253.985 296.014 255.963 296.975C256.602 295.671 257.12 294.312 257.512 292.913C258.312 290.241 254.572 289.629 254.572 289.629Z" fill="#823F38"/>
<path fill-rule="evenodd" clip-rule="evenodd" d="M253.65 290.971C253.65 290.971 256.25 293.11 256.924 294.696C257.598 296.282 258.461 291.88 258.461 291.88L257.625 288.657L252.56 287.795L253.65 290.972V290.971Z" fill="#452518"/>
<path fill-rule="evenodd" clip-rule="evenodd" d="M235.089 284.241L249.05 281.483C249.65 281.365 250.27 281.392 250.857 281.561C251.445 281.731 251.984 282.038 252.428 282.458L259.409 289.046C259.409 289.046 260.609 293.996 260.809 296.134C261.009 298.272 260.275 298.406 259.54 297.934C258.805 297.462 257.602 293.59 256.265 292.121C255.257 291.193 254.112 290.426 252.871 289.845C252.411 289.586 251.89 289.453 251.361 289.459C250.833 289.465 250.315 289.612 249.861 289.882C248.985 290.362 247.767 291.042 246.377 291.72C243.637 293.056 242.502 293.39 237.156 293.52C231.81 293.65 235.086 284.233 235.086 284.233L235.089 284.241Z" fill="#824B45"/>
<path fill-rule="evenodd" clip-rule="evenodd" d="M199.87 286.198C199.172 286.282 198.467 286.14 197.855 285.794C197.244 285.449 196.758 284.917 196.47 284.276L179.462 246.531C178.794 245.211 177.873 244.035 176.751 243.071C175.629 242.107 174.328 241.373 172.923 240.912C171.517 240.451 170.034 240.27 168.559 240.382C167.084 240.494 165.645 240.895 164.325 241.562C163.005 242.23 161.829 243.151 160.865 244.273C159.901 245.395 159.167 246.696 158.706 248.102C158.244 249.507 158.064 250.99 158.176 252.465C158.287 253.94 158.688 255.379 159.356 256.699L181.687 296.335C183.216 299.232 185.629 301.565 188.576 302.994C191.487 304.412 194.776 304.861 197.961 304.273L236.137 296.212C240.014 295.572 237.699 281.521 233.821 282.159L199.871 286.198H199.87ZM195.559 286.711C195.398 286.728 195.236 286.75 195.076 286.769L195.559 286.711Z" fill="#00315C"/>
<path fill-rule="evenodd" clip-rule="evenodd" d="M278.086 301.457C278.086 301.14 278.024 300.826 277.903 300.533C277.782 300.24 277.604 299.974 277.38 299.75C277.156 299.526 276.89 299.348 276.597 299.226C276.304 299.105 275.99 299.042 275.673 299.042H227.911C227.271 299.043 226.658 299.298 226.206 299.751C225.754 300.204 225.5 300.818 225.5 301.457V302.957H278.09V301.457H278.086Z" fill="#39474F"/>
<path d="M429.794 23.3574H269.69C267.879 23.3574 266.411 24.8255 266.411 26.6364V131.801C266.411 133.612 267.879 135.08 269.69 135.08H429.794C431.605 135.08 433.073 133.612 433.073 131.801V26.6364C433.073 24.8255 431.605 23.3574 429.794 23.3574Z" fill="#74A4B3"/>
<path fill-rule="evenodd" clip-rule="evenodd" d="M430.392 26.2054V133.357C430.392 133.5 430.365 133.641 430.311 133.772C430.258 133.904 430.179 134.024 430.079 134.125C429.979 134.226 429.86 134.306 429.729 134.362C429.597 134.417 429.457 134.446 429.315 134.446H266.847C266.704 134.446 266.564 134.417 266.433 134.362C266.301 134.306 266.183 134.226 266.083 134.125C265.983 134.024 265.903 133.904 265.85 133.772C265.796 133.641 265.769 133.5 265.77 133.357V26.2054C265.769 26.063 265.796 25.9219 265.849 25.79C265.903 25.6581 265.982 25.5381 266.082 25.4368C266.182 25.3355 266.301 25.2549 266.432 25.1996C266.563 25.1442 266.704 25.1153 266.847 25.1144H429.315C429.457 25.1153 429.598 25.1442 429.729 25.1996C429.86 25.2549 429.979 25.3355 430.079 25.4368C430.179 25.5381 430.258 25.6581 430.312 25.79C430.365 25.9219 430.392 26.063 430.392 26.2054V26.2054Z" fill="#E0F6FF"/>
<path fill-rule="evenodd" clip-rule="evenodd" d="M429.316 25.1104H266.851C266.581 25.0964 266.316 25.19 266.115 25.3706C265.913 25.5512 265.791 25.8042 265.775 26.0744V120.048C265.784 120.181 265.818 120.312 265.876 120.432C265.935 120.551 266.016 120.659 266.116 120.747C266.216 120.835 266.333 120.903 266.459 120.946C266.585 120.99 266.718 121.008 266.851 120.999H429.316C429.585 121.014 429.848 120.923 430.05 120.745C430.252 120.567 430.375 120.317 430.393 120.048V26.0744C430.376 25.8047 430.253 25.5528 430.052 25.3726C429.85 25.1924 429.586 25.0983 429.316 25.1104Z" fill="#B8EEFF"/>
<path fill-rule="evenodd" clip-rule="evenodd" d="M435.789 23.7424H259.254V34.7224H435.789V23.7424Z" fill="#7FC6DB"/>
<path fill-rule="evenodd" clip-rule="evenodd" d="M405.629 27.5444C405.975 27.5346 406.316 27.6284 406.608 27.8136C406.901 27.9988 407.132 28.2671 407.271 28.5841C407.41 28.9011 407.451 29.2525 407.39 29.5932C407.328 29.9339 407.166 30.2485 406.925 30.4967C406.684 30.745 406.374 30.9155 406.035 30.9866C405.696 31.0577 405.344 31.0261 405.023 30.8958C404.702 30.7655 404.427 30.5425 404.234 30.2553C404.041 29.968 403.938 29.6296 403.938 29.2834C403.932 28.8288 404.107 28.3904 404.424 28.0645C404.741 27.7385 405.174 27.5515 405.629 27.5444Z" fill="#4C98B0"/>
<path fill-rule="evenodd" clip-rule="evenodd" d="M415.678 27.5444C416.025 27.5348 416.366 27.6287 416.658 27.8141C416.95 27.9994 417.181 28.2677 417.32 28.5848C417.459 28.9018 417.5 29.2532 417.439 29.5938C417.377 29.9345 417.215 30.249 416.974 30.4971C416.732 30.7452 416.422 30.9157 416.083 30.9867C415.745 31.0577 415.392 31.026 415.071 30.8957C414.751 30.7654 414.476 30.5424 414.283 30.2551C414.09 29.9679 413.986 29.6296 413.986 29.2834C413.981 28.8286 414.156 28.3901 414.473 28.0641C414.79 27.7381 415.224 27.5512 415.678 27.5444Z" fill="#4C98B0"/>
<path fill-rule="evenodd" clip-rule="evenodd" d="M425.728 27.5444C426.074 27.5355 426.415 27.6299 426.707 27.8156C426.999 28.0013 427.229 28.2699 427.368 28.587C427.506 28.9041 427.547 29.2553 427.485 29.5958C427.423 29.9363 427.261 30.2505 427.019 30.4983C426.778 30.7462 426.468 30.9163 426.129 30.9871C425.79 31.0578 425.438 31.0259 425.118 30.8955C424.797 30.7651 424.523 30.5421 424.33 30.2549C424.136 29.9677 424.033 29.6295 424.033 29.2834C424.03 29.0579 424.072 28.8341 424.156 28.6246C424.239 28.4152 424.363 28.2243 424.521 28.0628C424.678 27.9013 424.866 27.7724 425.073 27.6835C425.28 27.5945 425.503 27.5473 425.728 27.5444Z" fill="#4C98B0"/>
<path d="M369.239 40.4694C371.539 33.4334 377.365 13.1264 366.67 7.10439C360.147 3.43139 355.603 3.26939 353.133 3.64839C355.899 1.66039 360.12 3.04839 360.12 3.04839C354.48 0.797386 350.951 4.27439 350.951 4.27439C350.951 4.27439 350.375 1.00839 345.339 0.348389C346.239 0.417392 347.097 0.755012 347.803 1.31753C348.509 1.88004 349.03 2.64154 349.298 3.50339C345.424 2.42039 333.112 0.267385 328.541 12.0504C323.132 25.9964 330.376 26.7034 330.376 26.7034C330.376 26.7034 324.355 53.9714 335.711 60.2114C347.067 66.4514 371.001 63.9274 371.001 63.9274C371.001 63.9274 366.941 47.5054 369.239 40.4694Z" fill="#263238"/>
<path d="M306.517 100.973L318.608 120.999H303.476L293.262 108.608C291.351 106.283 290.351 103.343 290.446 100.334L290.483 99.2464C290.519 97.6204 290.878 96.0177 291.537 94.5309C292.197 93.0442 293.145 91.7029 294.326 90.5844L303.989 81.4724L304.877 80.6334L310.047 85.9284L314.691 90.6724L315.691 91.6984L314.577 92.8254L306.517 100.973Z" fill="#F7A9A0"/>
<path d="M306.516 100.973L318.607 120.999H317.356C310.81 112.313 301.556 100.084 301.209 99.9724C300.684 99.7844 303.55 98.4824 307.68 94.5894C308.54 93.7758 309.219 92.7901 309.672 91.6967C310.125 90.6032 310.342 89.4265 310.309 88.2433C310.307 87.4643 310.219 86.6879 310.046 85.9283L314.69 90.6723L315.69 91.6983L314.576 92.8253L306.516 100.973Z" fill="#F77F72"/>
<path d="M324.091 123.202H324.141L324.128 123.215L324.091 123.202Z" fill="#236E8C"/>
<path d="M386.585 91.2574L376.797 91.4574L371.765 91.5574L371.44 91.5704C370.775 93.432 370.35 95.371 370.176 97.3404C370.138 97.6534 370.113 97.9784 370.088 98.3044C370.063 98.5924 370.038 98.8674 370.025 99.1554C370 99.3054 370 99.4434 369.988 99.5934C369.963 100.019 369.938 100.457 369.925 100.907C369.915 101.028 369.911 101.149 369.913 101.27C369.913 101.358 369.9 101.445 369.9 101.546C369.89 101.629 369.886 101.713 369.888 101.796C369.875 102.296 369.875 102.822 369.875 103.335C369.875 103.848 369.875 104.374 369.888 104.888C369.888 105.363 369.9 105.839 369.913 106.314C369.938 106.99 369.963 107.654 369.988 108.314C370.05 109.478 370.113 110.614 370.201 111.731C370.276 112.707 370.351 113.659 370.438 114.56C370.451 114.748 370.476 114.935 370.489 115.136C370.551 115.674 370.601 116.187 370.651 116.688C370.676 116.938 370.701 117.176 370.739 117.414C370.777 117.652 370.789 117.889 370.814 118.114C370.827 118.226 370.839 118.326 370.851 118.439C370.889 118.814 370.939 119.165 370.977 119.49C371.002 119.678 371.027 119.866 371.052 120.041C371.077 120.216 371.089 120.392 371.114 120.554C371.139 120.716 371.152 120.854 371.177 120.992H348.447C345.847 121.117 343.428 121.092 341.187 120.992H324.565C324.678 120.492 324.803 119.916 324.941 119.292C324.978 119.117 325.016 118.917 325.066 118.729C325.116 118.541 325.141 118.329 325.191 118.129C325.214 118.007 325.244 117.886 325.279 117.766C325.629 116.176 326.042 114.366 326.493 112.484C326.53 112.321 326.568 112.159 326.618 111.996C326.856 110.932 327.118 109.868 327.381 108.817C327.544 108.141 327.719 107.477 327.881 106.827C328.234 105.403 328.398 103.938 328.369 102.471C328.352 101.32 328.264 100.17 328.106 99.0294C328.056 98.6414 327.994 98.2404 327.919 97.8524C327.869 97.5644 327.819 97.2764 327.756 96.9894C327.693 96.7024 327.643 96.4384 327.581 96.1624C327.579 96.124 327.57 96.0862 327.556 96.0504C327.506 95.8124 327.456 95.5874 327.393 95.3614C327.117 94.2224 326.817 93.1964 326.542 92.3204C326.504 92.1954 326.454 92.0704 326.429 91.9574C326.254 91.4444 326.091 90.9934 325.954 90.6184C325.941 90.5804 325.928 90.5304 325.916 90.4924C325.898 90.4456 325.877 90.3999 325.853 90.3554C325.841 90.3174 325.829 90.2674 325.816 90.2304C325.803 90.1934 325.791 90.1674 325.778 90.1304H325.766C325.741 90.0554 325.716 89.9934 325.691 89.9304C325.645 89.7797 325.587 89.6332 325.516 89.4924V89.4674H325.5L325.412 89.5054L322.8 90.6574L315.553 93.8744L314.577 92.8234L313.3 91.4574L310.309 88.2404L303.988 81.4694L303.237 80.6554C303.237 80.6554 307.267 75.7744 318.169 65.7484C320.798 63.3794 323.707 61.3409 326.831 59.6784C328.6 58.7147 330.417 57.8416 332.275 57.0624C334.053 56.3234 335.768 55.6854 337.357 55.1624C337.883 54.9874 338.396 54.8244 338.884 54.6624H338.897C339.322 54.5364 339.723 54.4114 340.097 54.2984C340.471 54.1854 340.811 54.0984 341.148 54.0114C341.387 53.9367 341.612 53.874 341.824 53.8234C342.05 53.7604 342.263 53.7104 342.463 53.6484C342.901 53.5484 343.314 53.4484 343.689 53.3484C344.328 53.1984 344.866 53.0734 345.289 52.9854C345.564 52.9354 345.777 52.8984 345.939 52.8604C346.015 52.8484 346.077 52.8354 346.127 52.8234C346.156 52.8136 346.185 52.8092 346.215 52.8104C346.254 52.8049 346.291 52.7966 346.328 52.7854C346.891 52.7724 347.441 52.7604 347.992 52.7604C348.618 52.7604 349.244 52.7724 349.845 52.7984C350.446 52.8244 351.059 52.8484 351.645 52.8984C352.584 52.9604 353.485 53.0604 354.361 53.1864C354.661 53.2234 354.961 53.2734 355.261 53.3114C355.95 53.4114 356.613 53.5364 357.261 53.6744C357.949 53.7994 358.613 53.9624 359.261 54.1244C359.561 54.1994 359.861 54.2744 360.15 54.3624C360.439 54.4504 360.726 54.5124 361.014 54.6004C364.091 55.4966 367.046 56.7661 369.814 58.3804C370.997 59.0605 372.127 59.8294 373.194 60.6804C373.356 60.8054 373.431 60.8684 373.431 60.8684C382.481 68.7164 385.372 82.3344 386.236 88.3044C386.261 88.4924 386.286 88.6544 386.311 88.8304C386.313 88.8894 386.322 88.9481 386.336 89.0054C386.351 89.1007 386.359 89.1969 386.361 89.2934C386.386 89.4434 386.399 89.5814 386.411 89.7184C386.422 89.7329 386.426 89.7507 386.424 89.7684C386.422 89.7943 386.426 89.8203 386.436 89.8444C386.449 89.9194 386.449 89.9814 386.461 90.0444C386.473 90.1074 386.474 90.1694 386.474 90.2194C386.499 90.3824 386.511 90.5194 386.524 90.6454C386.524 90.7074 386.536 90.7574 386.536 90.8074C386.549 90.9074 386.549 90.9834 386.561 91.0454V91.1084C386.572 91.1575 386.58 91.2073 386.585 91.2574Z" fill="#236E8C"/>
<g style="mix-blend-mode:multiply" opacity="0.61">
<path d="M331.15 109.747C331.069 110.848 330.922 111.943 330.712 113.026C330.324 115.172 329.57 117.236 328.484 119.126C328.102 119.789 327.662 120.418 327.17 121.003H324.57C324.683 120.503 324.808 119.927 324.946 119.303C324.983 119.128 325.021 118.928 325.071 118.74C325.121 118.552 325.159 118.352 325.209 118.14C325.233 118.015 325.259 117.902 325.284 117.777C325.634 116.187 326.047 114.377 326.498 112.495C326.535 112.332 326.573 112.17 326.623 112.007C326.861 110.943 327.123 109.879 327.386 108.828C327.549 108.152 327.724 107.488 327.886 106.838C328.239 105.414 328.403 103.949 328.374 102.482C328.356 101.331 328.268 100.181 328.111 99.0403C328.061 98.6523 327.999 98.2513 327.924 97.8633C327.874 97.5753 327.824 97.2874 327.761 97.0004C327.698 96.7134 327.648 96.4494 327.586 96.1734C327.583 96.135 327.575 96.0972 327.561 96.0614C327.511 95.8234 327.461 95.5983 327.398 95.3723C327.122 94.2333 326.822 93.2073 326.547 92.3313C326.509 92.2063 326.459 92.0814 326.434 91.9684C326.259 91.4554 326.096 91.0043 325.959 90.6293C325.921 90.5413 325.896 90.4533 325.859 90.3663C325.822 90.2793 325.797 90.2164 325.772 90.1404C325.747 90.0644 325.722 90.0034 325.697 89.9404C325.651 89.7897 325.592 89.6431 325.522 89.5023C325.514 89.4961 325.51 89.4871 325.509 89.4774L325.421 89.5154L322.801 90.6573L315.554 93.8743L314.578 92.8233L313.301 91.4574C313.739 91.2194 314.215 90.9573 314.691 90.6693C318.431 88.342 322.037 85.8046 325.491 83.0694C325.753 82.8694 325.891 82.7563 325.891 82.7563C325.891 82.7563 326.955 85.2473 328.119 89.0273V89.0394C328.469 90.1394 328.819 91.3683 329.158 92.6693C329.721 94.8103 330.247 97.1753 330.635 99.6293C330.81 100.768 330.948 101.929 331.06 103.096C331.278 105.307 331.308 107.532 331.15 109.747V109.747Z" fill="#CEE4EC"/>
</g>
<path d="M324.241 77.5193C324.241 77.5193 334.167 81.7473 350.158 80.6443C366.149 79.5413 372.767 77.3353 372.767 77.3353L374.421 80.4603C366.352 82.5283 358.105 83.8209 349.791 84.3203C333.799 85.0553 322.771 80.4603 322.771 80.4603L324.241 77.5193Z" fill="white"/>
<path d="M324.241 67.8024C324.241 67.8024 334.167 72.0294 350.158 70.9264C366.149 69.8234 372.767 67.6184 372.767 67.6184L374.421 70.7434C366.352 72.8114 358.105 74.1039 349.791 74.6034C333.799 75.3384 322.771 70.7434 322.771 70.7434L324.241 67.8024Z" fill="white"/>
<path d="M374.423 90.7334C366.352 92.7994 358.103 94.0902 349.788 94.5883C341.91 94.9711 334.022 94.0824 326.427 91.9563C325.914 90.4173 325.512 89.4684 325.512 89.4684L325.418 89.5114L322.803 90.6653L324.239 87.7934C324.239 87.7934 334.171 92.0163 350.156 90.9133C366.141 89.8103 372.765 87.6053 372.765 87.6053L374.423 90.7334Z" fill="white"/>
<path d="M370.089 98.3074C369.989 99.4274 369.927 100.607 369.889 101.807C363.273 103.276 356.549 104.209 349.784 104.594C342.579 104.934 335.363 104.222 328.363 102.482C328.348 101.33 328.259 100.179 328.098 99.0374C335.298 100.861 342.747 101.497 350.152 100.918C356.853 100.545 363.517 99.6723 370.089 98.3074V98.3074Z" fill="white"/>
<path d="M370.2 111.736C363.484 113.237 356.658 114.189 349.787 114.582C341.975 114.966 334.151 114.094 326.614 112C326.862 110.941 327.114 109.872 327.383 108.821C334.799 110.814 342.501 111.519 350.155 110.906C356.821 110.538 363.45 109.672 369.986 108.316C370.046 109.479 370.123 110.624 370.2 111.736Z" fill="white"/>
<path d="M341.187 120.999H324.565C324.678 120.499 324.803 119.923 324.941 119.299C324.978 119.124 325.016 118.924 325.066 118.736C325.116 118.548 325.141 118.336 325.191 118.136H325.204C325.917 118.399 327.031 118.749 328.483 119.125C332.643 120.181 336.9 120.809 341.187 120.999V120.999Z" fill="white"/>
<path d="M371.177 120.999H348.447C349.01 120.974 349.573 120.937 350.147 120.899C356.815 120.53 363.447 119.664 369.986 118.308C370.286 118.246 370.561 118.183 370.812 118.121C370.825 118.233 370.837 118.333 370.849 118.446C370.887 118.821 370.937 119.172 370.975 119.497C371 119.685 371.025 119.873 371.05 120.048C371.075 120.223 371.087 120.399 371.112 120.561C371.137 120.723 371.152 120.862 371.177 120.999Z" fill="white"/>
<path d="M361.028 54.6024C360.233 57.3575 358.6 59.797 356.356 61.5827C354.112 63.3683 351.369 64.4118 348.505 64.5684C339.299 65.3034 337.641 58.1324 337.359 55.1684C340.293 54.17 343.291 53.3758 346.334 52.7914C351.298 52.5952 356.261 53.2069 361.028 54.6024V54.6024Z" fill="white"/>
<path d="M354.581 25.0504C355.412 27.6311 355.638 30.3684 355.242 33.0504L357.134 32.0924L358.665 25.9644L354.581 25.0504Z" fill="#263238"/>
<path d="M326.836 59.6794C325.588 69.0304 325.436 85.6564 325.417 89.5114L315.553 93.8704L313.305 91.4604L303.236 80.6604C303.236 80.6604 307.27 75.7794 318.169 65.7534C320.797 63.38 323.708 61.3399 326.836 59.6794V59.6794Z" fill="#236E8C"/>
<path d="M386.587 91.2634L371.765 91.5634L371.748 91.5374C371.748 91.5374 367.337 71.8684 373.201 60.6794C373.363 60.8074 373.44 60.8794 373.44 60.8794C382.492 68.7264 385.39 82.3344 386.254 88.3094C386.518 90.1444 386.587 91.2634 386.587 91.2634Z" fill="#236E8C"/>
<g style="mix-blend-mode:multiply" opacity="0.61">
<path d="M386.585 91.2573L376.797 91.4573L371.765 91.5573L371.44 91.5703C370.775 93.4319 370.35 95.371 370.176 97.3403C370.138 97.6533 370.113 97.9783 370.088 98.3043C370.063 98.5923 370.038 98.8673 370.025 99.1553C370 99.3053 370 99.4433 369.988 99.5933C369.963 100.019 369.938 100.457 369.925 100.907C369.915 101.028 369.911 101.149 369.913 101.27C369.913 101.358 369.9 101.445 369.9 101.546C369.888 102.134 369.875 102.735 369.875 103.335C369.875 103.849 369.875 104.374 369.888 104.888C369.888 105.363 369.9 105.839 369.913 106.314C369.938 106.99 369.963 107.654 369.988 108.314C370.05 109.478 370.113 110.614 370.201 111.731C370.276 112.707 370.351 113.659 370.438 114.56C370.451 114.748 370.476 114.935 370.489 115.136C370.551 115.674 370.601 116.187 370.651 116.688C370.676 116.938 370.701 117.176 370.739 117.414C370.777 117.652 370.789 117.889 370.814 118.114C370.827 118.226 370.839 118.326 370.851 118.439C370.889 118.814 370.939 119.165 370.977 119.49C371.002 119.678 371.027 119.866 371.052 120.041C371.077 120.216 371.089 120.392 371.114 120.554C371.139 120.716 371.152 120.854 371.177 120.992H370.714C370.451 120.079 370.214 119.192 369.988 118.301C369.45 116.161 369.025 114.075 368.711 112.043C368.523 110.891 368.386 109.765 368.273 108.663C368.055 106.514 367.963 104.353 367.998 102.192C368.01 100.978 368.073 99.8143 368.185 98.7003C368.376 96.3967 368.799 94.1183 369.45 91.9003C369.832 90.5803 370.351 89.3042 371 88.0933C371.025 88.0313 371.062 87.9813 371.087 87.9183V87.9063C372.552 85.2903 374.442 83.7003 376.557 83.4623C378.466 83.2615 380.392 83.6109 382.109 84.4692C383.826 85.3275 385.261 86.6589 386.245 88.3063C386.27 88.4943 386.295 88.6563 386.32 88.8323C386.322 88.8914 386.331 88.9501 386.345 89.0073C386.36 89.1027 386.369 89.1989 386.37 89.2953C386.395 89.4453 386.408 89.5833 386.42 89.7203C386.431 89.7349 386.435 89.7527 386.433 89.7703C386.432 89.7963 386.436 89.8223 386.445 89.8463C386.458 89.9213 386.458 89.9833 386.47 90.0463C386.482 90.1093 386.483 90.1713 386.483 90.2213C386.508 90.3843 386.52 90.5213 386.533 90.6473C386.533 90.7093 386.545 90.7593 386.545 90.8093C386.558 90.9093 386.558 90.9853 386.57 91.0473V91.1103C386.578 91.159 386.583 91.2081 386.585 91.2573V91.2573Z" fill="#CEE4EC"/>
</g>
<path d="M418.675 46.9324L416.832 58.8184L412.723 64.2834L410.245 68.9594L409.691 69.9984L403.93 94.1984C402.128 100.927 399.524 107.415 396.174 113.523C395.63 114.5 395.087 115.414 394.563 116.235L394.472 116.37C393.997 117.125 393.313 117.725 392.502 118.098C391.692 118.471 390.791 118.6 389.909 118.47L386.797 117.981C384.936 117.679 383.192 116.876 381.752 115.659C380.311 114.442 379.228 112.857 378.619 111.072L371.75 91.5394L372.686 89.6794C373.215 88.6017 374.007 87.6749 374.99 86.9848C375.972 86.2947 377.113 85.8636 378.306 85.7314C379.409 85.6175 380.524 85.7665 381.559 86.1663C382.594 86.566 383.519 87.2052 384.259 88.0314L386.203 90.1724L386.233 90.2444L388.973 97.3514L399.881 66.9194H399.921L400.243 65.5584L400.807 63.1894C400.807 63.1894 397.907 58.1394 398.028 57.5994C398.757 55.3198 398.664 52.8568 397.766 50.6384L400.284 48.8614C401.779 50.4548 402.63 52.5466 402.671 54.7314L405.652 43.5934C405.652 43.5934 414.979 40.9274 418.675 46.9324Z" fill="#F7A9A0"/>
<path d="M396.174 113.521C395.63 114.498 395.087 115.412 394.563 116.233L394.472 116.368C393.997 117.123 393.313 117.723 392.502 118.096C391.692 118.469 390.791 118.598 389.909 118.468L386.797 117.979C384.936 117.677 383.192 116.874 381.752 115.657C380.311 114.44 379.228 112.855 378.619 111.07L371.75 91.5374L372.686 89.6774C373.215 88.5997 374.007 87.6729 374.99 86.9828C375.972 86.2927 377.113 85.8616 378.306 85.7294C379.409 85.6155 380.524 85.7645 381.559 86.1643C382.594 86.5641 383.519 87.2032 384.259 88.0294L386.203 90.1704L386.233 90.2424C383.554 89.0374 377.451 86.9594 376.453 92.7264C375.164 100.134 381.328 111.781 387.23 113.64C390.17 114.389 393.255 114.348 396.174 113.521V113.521Z" fill="#F77F72"/>
<g style="mix-blend-mode:multiply" opacity="0.61">
<path d="M335.431 63.6154L343.356 61.3004L347.434 64.8004L353.666 61.9294L359.487 64.0294L355.349 57.7874L343.216 57.0164C342.295 57.1698 341.413 57.5036 340.621 57.9984C339.709 58.6984 338.236 60.6634 337.675 60.8734L335.431 63.6154Z" fill="#8C9CA1"/>
</g>
<path d="M347.046 48.2754L338.9 54.6444L335.376 63.4654L343.341 59.5754L347.602 64.2994L352.511 59.2994C352.511 59.2994 359.643 64.6724 359.643 64.2084C359.643 63.7444 359.412 54.2294 359.412 54.2294L351.585 48.4634L347.046 48.2754Z" fill="white"/>
<path d="M357.054 39.1074L357.295 53.1464C357.295 53.1464 357.678 56.8164 351.474 58.2134C342.066 60.3334 341.936 55.2974 341.936 55.2974L341.754 52.9424L341.454 48.9864C334.968 47.8444 332.268 39.3864 332.641 35.7124C332.903 33.1334 333.286 25.7824 333.487 21.6744C334.69 21.2046 335.658 20.2767 336.177 19.0944L336 21.4704C341.208 21.1334 342.98 18.4934 342.98 18.4934L342.48 21.8984C345.843 22.5814 351.494 20.5524 351.494 20.5524C352.602 25.8524 356.147 26.5064 356.147 26.5064C356.147 26.5064 364.97 24.2224 364.97 31.1754C364.97 38.1084 357.054 39.1074 357.054 39.1074Z" fill="#F7A9A0"/>
<path d="M348.92 48.2814C348.92 48.2814 348.57 51.8584 341.755 52.9414L341.455 48.9874L341.82 49.1124C342.996 49.474 344.235 49.5869 345.457 49.4439C346.68 49.3008 347.859 48.9049 348.92 48.2814V48.2814Z" fill="#F77F72"/>
<path d="M351.957 31.0574C351.77 31.1836 351.55 31.2531 351.323 31.2574H346.549C346.396 31.2585 346.245 31.2262 346.106 31.1628C345.967 31.0994 345.843 31.0064 345.743 30.8904L345.632 30.7984C345.496 30.6552 345.398 30.4807 345.346 30.2904C345.293 30.1001 345.289 29.8999 345.332 29.7074C345.345 29.6142 345.365 29.5223 345.392 29.4324C345.547 28.7812 345.876 28.1846 346.345 27.7067C346.813 27.2288 347.403 26.8878 348.051 26.7204C348.132 26.7104 348.202 26.6694 348.293 26.6594C350.761 26.1084 352.181 28.3724 352.453 29.8304C352.497 30.0609 352.474 30.2993 352.386 30.5169C352.298 30.7345 352.149 30.9222 351.957 31.0574V31.0574Z" fill="white"/>
<path d="M339.408 31.0574C339.245 31.181 339.048 31.2509 338.843 31.2574H334.6C334.459 31.2566 334.321 31.2231 334.195 31.1594C334.069 31.0957 333.96 31.0036 333.875 30.8904L333.784 30.7984C333.661 30.6482 333.572 30.4723 333.525 30.2836C333.478 30.0949 333.474 29.898 333.512 29.7074C333.533 29.6264 333.543 29.5344 333.573 29.4324C333.688 28.8107 333.966 28.2311 334.381 27.754C334.796 27.277 335.331 26.92 335.93 26.7204C336 26.7104 336.071 26.6694 336.151 26.6594C338.337 26.1084 339.596 28.3724 339.838 29.8304C339.882 30.0546 339.865 30.2864 339.789 30.5019C339.714 30.7175 339.582 30.9092 339.408 31.0574V31.0574Z" fill="white"/>
<path d="M342.233 36.9864C342.06 36.9644 338.017 36.4054 337.955 33.7864C337.919 33.4679 337.961 33.1457 338.076 32.8467C338.191 32.5477 338.377 32.2808 338.617 32.0684C339.109 31.7354 339.713 31.6109 340.297 31.7224L340.697 27.2384L341.454 27.3104L340.973 32.7104L340.529 32.5734C340.291 32.4932 340.039 32.4629 339.789 32.4844C339.539 32.5059 339.296 32.5787 339.076 32.6984C338.936 32.8368 338.831 33.0059 338.768 33.1922C338.705 33.3784 338.687 33.5768 338.715 33.7714C338.761 35.7244 342.292 36.2134 342.328 36.2184L342.233 36.9864Z" fill="#F77F72"/>
<path d="M344.866 42.3694C343.988 42.3663 343.113 42.2735 342.254 42.0924L342.417 41.3264C341.898 41.2264 347.795 42.6184 348.671 39.7264L349.396 39.9594C348.801 41.9304 346.653 42.3694 344.866 42.3694Z" fill="#F77F72"/>
<path d="M359.757 33.7354L359.273 33.1354C359.794 32.4855 360.214 31.7602 360.516 30.9844C360.45 30.665 360.318 30.3628 360.128 30.0971C359.939 29.8313 359.697 29.6077 359.416 29.4404L359.787 28.7554C360.177 28.9845 360.513 29.2964 360.769 29.6691C361.025 30.0418 361.197 30.4662 361.271 30.9124C361.267 31.4705 361.127 32.0191 360.863 32.511C360.6 33.0028 360.22 33.4231 359.757 33.7354V33.7354Z" fill="#F77F72"/>
<path d="M345.743 24.9364C345.743 24.9364 349.343 23.2694 352.134 25.1104C351.973 24.3829 351.588 23.724 351.034 23.2257C350.48 22.7275 349.785 22.4148 349.044 22.3314C346.462 22.0884 345.743 24.9364 345.743 24.9364Z" fill="#263238"/>
<path d="M333.301 25.0124C333.301 25.0124 336.901 23.3454 339.693 25.1864C339.532 24.4589 339.147 23.7999 338.593 23.3016C338.039 22.8033 337.343 22.4907 336.603 22.4074C334.022 22.1644 333.301 25.0124 333.301 25.0124Z" fill="#263238"/>
<path d="M339.156 29.3304C339.156 29.7123 339.061 30.0882 338.88 30.4244C338.699 30.7607 338.437 31.0468 338.118 31.2574H335.618C335.206 30.9861 334.892 30.5895 334.723 30.1262C334.553 29.6628 334.538 29.1573 334.677 28.6842C334.817 28.2111 335.106 27.7955 335.5 27.4988C335.894 27.2021 336.373 27.04 336.866 27.0364C337.167 27.0361 337.466 27.0953 337.744 27.2105C338.022 27.3258 338.275 27.4948 338.488 27.7079C338.7 27.9211 338.869 28.1741 338.984 28.4525C339.098 28.7309 339.157 29.0292 339.156 29.3304Z" fill="#263238"/>
<path d="M351.564 29.3304C351.564 29.7122 351.469 30.0879 351.288 30.4241C351.107 30.7604 350.846 31.0466 350.527 31.2574H348.027C347.615 30.986 347.301 30.5894 347.132 30.1259C346.963 29.6625 346.947 29.1569 347.087 28.6837C347.227 28.2106 347.515 27.795 347.909 27.4984C348.304 27.2017 348.783 27.0398 349.276 27.0364C349.577 27.0364 349.875 27.0958 350.153 27.2111C350.431 27.3265 350.684 27.4955 350.896 27.7086C351.109 27.9217 351.277 28.1747 351.392 28.453C351.507 28.7312 351.565 29.0294 351.564 29.3304Z" fill="#263238"/>
<g style="mix-blend-mode:multiply" opacity="0.78">
<path fill-rule="evenodd" clip-rule="evenodd" d="M430.812 118.64H265.924V131.398C265.917 132.034 266.161 132.646 266.605 133.101C267.048 133.556 267.654 133.817 268.289 133.826H428.446C429.081 133.817 429.687 133.557 430.131 133.102C430.575 132.646 430.819 132.034 430.812 131.398V118.64Z" fill="#9ED2E8"/>
</g>
<path fill-rule="evenodd" clip-rule="evenodd" d="M430.812 120.634H265.924V133.392C265.917 134.028 266.161 134.64 266.605 135.095C267.048 135.55 267.654 135.811 268.289 135.82H428.446C429.081 135.811 429.687 135.551 430.131 135.096C430.575 134.64 430.819 134.028 430.812 133.392V120.634Z" fill="#7FC6DB"/>
<path d="M266.841 176.875C266.425 175.066 266.605 173.171 267.352 171.472C268.1 169.773 269.376 168.361 270.991 167.445C276.766 163.971 281.791 165.718 284.091 164.355C284.091 164.355 283.361 172.655 278.704 175.555C272.062 179.697 266.841 176.875 266.841 176.875Z" fill="#06628D"/>
<path d="M257.093 180.884C257.51 178.615 257.295 176.275 256.47 174.121C255.646 171.966 254.244 170.08 252.419 168.669C246.031 163.587 236.766 167.723 235.471 167.116C236.523 169.166 238.314 170.738 240.483 171.516C244.093 172.784 244.505 178.706 247.84 180.575C249.255 181.332 250.826 181.753 252.43 181.807C254.035 181.861 255.63 181.545 257.093 180.884Z" fill="#06628D"/>
<path d="M259.099 163.099C259.099 163.099 260.046 159.088 253.631 157.277C249.71 156.205 245.561 156.299 241.691 157.546C244.416 158.926 246.936 160.676 249.181 162.746C250.494 163.973 252.187 164.714 253.98 164.846C255.772 164.978 257.555 164.493 259.033 163.471" fill="#06628D"/>
<path d="M266.146 153.643C265.476 150.588 263.655 147.908 261.06 146.162C256.645 143.12 253.56 142.751 253.56 142.751C254.091 145.273 254.403 147.835 254.493 150.41C254.6 154.457 263.488 158.887 266.146 153.643Z" fill="#06628D"/>
<path d="M281.785 166.231L281.667 165.931C268.36 171.159 264.408 179.431 263.313 182.811C263.044 180.408 263.044 177.983 263.313 175.579C263.736 170.882 264.533 166.227 265.699 161.657C266.146 160.048 266.486 158.411 266.716 156.757C266.859 155.65 266.807 154.066 266.903 152.949C267.203 149.468 266.152 147.149 268.442 144.822L268.05 144.932C266.285 146.473 266.511 149.366 266.195 153.032C266.16 153.438 266.122 153.849 266.085 154.26C265.438 154.05 260.404 152.325 259.109 149.268L258.809 149.393C260.24 152.77 265.776 154.504 266.051 154.588C265.994 155.188 265.931 155.788 265.856 156.372C265.617 158.081 265.272 159.773 264.822 161.438C264.383 163.196 263.879 165.222 263.37 168.281C257.683 158.642 247.078 157.523 246.97 157.511L246.94 157.831C247.047 157.842 257.74 158.974 263.289 168.788C262.995 170.615 262.701 172.788 262.417 175.488C262.039 178.652 262.143 181.856 262.727 184.988C261.161 184.428 256.771 182.352 254.279 176.088C251.155 168.242 240.855 167.495 240.753 167.488L240.732 167.808C240.832 167.815 250.932 168.546 253.98 176.208C256.615 182.824 261.358 184.867 262.804 185.35C263.904 190.423 266.138 192.65 266.278 192.783L266.902 192.135C266.867 192.101 264.302 189.548 263.411 183.585C264.137 180.881 267.551 171.823 281.785 166.231Z" fill="#273137"/>
<path d="M267.513 204.537L259.594 204.437C258.876 204.429 258.185 204.163 257.646 203.688C257.108 203.213 256.758 202.561 256.659 201.849L255.084 190.557L272.384 190.779L270.519 202.023C270.403 202.733 270.035 203.378 269.483 203.839C268.931 204.3 268.232 204.548 267.513 204.537V204.537Z" fill="#4B96B5"/>
<path d="M272.621 187.306L254.929 187.078C254.107 187.068 253.432 187.726 253.421 188.548L253.408 189.578C253.397 190.4 254.055 191.076 254.878 191.086L272.569 191.314C273.392 191.324 274.067 190.666 274.077 189.844L274.091 188.814C274.101 187.992 273.443 187.317 272.621 187.306Z" fill="#2E506E"/>
<path fill-rule="evenodd" clip-rule="evenodd" d="M135.478 304.997L120.623 305.304L115.013 305.419C115.013 305.419 117.966 290.228 109.949 268.496C104.396 253.449 103.389 242.237 103.303 236.771C103.289 235.656 103.547 234.554 104.055 233.561C104.563 232.567 105.306 231.713 106.218 231.071C107.436 230.218 108.875 229.201 110.208 228.261C111.415 227.418 112.859 226.982 114.331 227.018C115.803 227.054 117.224 227.56 118.388 228.461C119.999 229.717 121.803 231.127 123.164 232.182C124.564 233.278 125.485 234.873 125.735 236.632C127.6 249.708 135.478 304.997 135.478 304.997Z" fill="#536873"/>
<path fill-rule="evenodd" clip-rule="evenodd" d="M115.013 305.419C115.013 305.419 117.966 290.228 109.949 268.496C104.396 253.449 103.389 242.237 103.303 236.771C103.289 235.656 103.547 234.554 104.055 233.561C104.563 232.567 105.306 231.713 106.218 231.071C107.436 230.218 108.875 229.201 110.208 228.261C111.124 227.617 112.185 227.208 113.296 227.072C111.894 228.514 110.792 230.219 110.054 232.089C109.316 233.959 108.956 235.957 108.996 237.967C109.284 249.967 118.996 277.667 119.853 287.952C120.303 293.409 120.514 300.17 120.62 305.301L115.013 305.419Z" fill="#303C42"/>
<path fill-rule="evenodd" clip-rule="evenodd" d="M235.1 283.869L237.959 283.243C237.959 283.243 242.208 289.617 239.419 294L236.232 294.8C236.232 294.8 237.104 288.587 234.602 285.148C234.523 285.038 234.472 284.909 234.455 284.774C234.438 284.638 234.454 284.501 234.504 284.374C234.553 284.247 234.634 284.134 234.738 284.046C234.842 283.958 234.967 283.897 235.1 283.869V283.869Z" fill="#FDBC11"/>
<path fill-rule="evenodd" clip-rule="evenodd" d="M239.601 280.865L242.871 280.065C243.432 280.824 243.682 281.768 243.571 282.704L240.277 283.221" fill="#FDBC11"/>
<path d="M67.0457 225.175C67.0457 225.175 75.4007 215.763 85.9407 221.675C96.4807 227.587 98.3407 246.204 98.3407 246.204C98.3407 246.204 92.4117 242.233 86.4827 242.352C80.5537 242.471 60.8657 233.523 67.0457 225.175Z" fill="#88BDD1"/>
<path d="M61.2428 274.204C61.2428 274.204 59.3228 265.084 64.7088 260.647C70.0948 256.21 80.8088 253.935 83.0088 251.547C83.0088 251.547 84.8458 261.982 79.4218 267.873C73.9978 273.764 64.1428 276.006 61.2428 274.204Z" fill="#88BDD1"/>
<path d="M46.4001 258.474C46.4001 258.474 45.4601 262.813 38.5601 262.203C31.6601 261.593 22.8711 256.223 20.1211 256.533C20.1211 256.533 26.1131 251.265 33.6611 251.701C41.2091 252.137 45.9681 255.41 46.4001 258.474Z" fill="#88BDD1"/>
<path d="M49.943 246.58C49.943 246.58 42.837 249.13 38.395 245.723C33.953 242.316 30.426 232.123 29.995 231.885C29.564 231.647 45.268 233.085 49.514 239.992C53.76 246.899 49.943 246.58 49.943 246.58Z" fill="#63AAC6"/>
<path d="M38.6281 214.857C38.6281 214.857 38.1881 217.639 32.0051 217.906C25.8221 218.173 20.4441 222.741 16.7611 224.958C13.0781 227.175 0.34712 226.149 0.20812 226.026C0.0691195 225.903 0.547119 223.102 5.63212 220.135C10.7171 217.168 14.2141 207.972 22.2321 207.586C30.2501 207.2 37.9411 210.957 38.6281 214.857Z" fill="#63AAC6"/>
<path d="M46.0716 277.628C45.358 274.329 43.5439 271.371 40.9271 269.24C38.3104 267.108 35.0466 265.929 31.6716 265.897C19.2316 265.297 14.9346 272.297 14.9346 272.297C14.9346 272.297 21.7296 277.425 28.2806 278.77C34.8316 280.115 42.6766 279.377 46.0716 277.628Z" fill="#63AAC6"/>
<path d="M91.7054 236.557C83.1324 227.565 75.1254 223.488 68.5674 224.763C63.4894 225.749 59.3674 229.971 56.2984 237.298C56.3164 233.552 56.3374 231.064 58.6164 227.209C61.5834 222.193 61.9414 213.566 61.9444 213.48L61.6204 213.468C61.6204 213.553 61.2624 222.098 58.3374 227.044C56.3881 230.14 55.4275 233.756 55.5834 237.41C55.5834 238.469 55.5724 239.67 55.5114 241.01C55.4594 242.128 55.4374 243.216 55.4164 244.268C55.3274 248.657 55.4604 250.241 53.3914 251.726C51.4824 232.184 49.4414 214.926 47.5814 208.953L46.3404 209.339C47.5729 214.33 48.4689 219.397 49.0224 224.507C41.4134 215.226 33.9764 210.442 26.9044 210.307C24.8333 210.268 22.7761 210.655 20.8612 211.445C18.9463 212.235 17.2148 213.412 15.7744 214.9L16.0214 215.111C17.4312 213.66 19.124 212.513 20.995 211.743C22.866 210.972 24.8753 210.594 26.8984 210.631C33.9734 210.765 41.4404 215.647 49.0984 225.117C49.8294 230.685 50.5684 237.181 51.2834 244.017C47.7244 241.858 44.0524 239.891 40.2834 238.124L40.1464 238.419C43.9806 240.215 47.7123 242.222 51.3244 244.43C51.9964 250.868 52.6454 257.59 53.2454 264.108C48.0454 255.44 29.3914 254.432 29.1874 254.423L29.1724 254.746C29.3794 254.756 48.7834 255.801 53.3184 264.905C54.0544 272.921 54.7134 280.587 55.2464 286.986C51.8234 280.1 44.3524 276.286 38.5374 274.286C33.4946 272.52 28.2119 271.532 22.8714 271.357C22.3094 271.382 22.1844 271.448 22.1434 271.575L22.4524 271.675C22.4443 271.702 22.4273 271.725 22.4044 271.74C22.8734 271.503 30.9754 271.84 39.3504 274.911C44.9724 276.972 52.2714 280.899 55.3284 287.911C56.1184 297.43 56.6104 303.923 56.6284 304.151L57.9284 304.051C57.8544 303.069 57.2864 295.573 56.4164 285.151C60.1054 270.605 78.9294 255.21 79.7034 255.003L79.6194 254.689C78.9814 254.86 73.6264 259.26 68.2004 265.298C63.7844 270.212 58.4004 277.263 56.3394 284.23C55.6004 275.404 54.6554 264.62 53.6144 253.938C55.9654 252.421 56.0444 248.785 56.1374 244.201C56.1584 243.151 56.1804 242.066 56.2314 240.952C56.2784 239.94 56.2934 239.008 56.2994 238.152C59.3534 230.475 63.4994 226.076 68.6354 225.079C75.0804 223.821 82.9834 227.872 91.4764 236.779C91.9554 237.279 91.9824 237.306 92.0524 237.325L92.1054 237.125L92.1764 237.025C92.1274 237.001 91.9324 236.796 91.7054 236.557Z" fill="#273137"/>
<path fill-rule="evenodd" clip-rule="evenodd" d="M449.533 307.237C449.544 305.881 449.057 304.568 448.165 303.546C447.754 303.073 447.248 302.692 446.679 302.429C446.11 302.166 445.492 302.026 444.865 302.018H51.6193C50.9926 302.026 50.3745 302.166 49.8057 302.429C49.237 302.692 48.7304 303.073 48.3193 303.546C47.4276 304.568 46.941 305.881 46.9513 307.237V313.946H449.533V307.237Z" fill="#5E7682"/>
</svg>
