<svg width="152" height="25" viewBox="0 0 152 25" fill="none" xmlns="http://www.w3.org/2000/svg">
<path d="M104.165 20.0271V0.414429H98.5732V24.5856H116.292V20.0271H104.165Z" fill="#03658C"/>
<path fill-rule="evenodd" clip-rule="evenodd" d="M87.2539 11.3402V0.414429H92.8459V5.747L87.2539 11.3402ZM92.8459 24.5856H87.2539V19.253L92.8459 13.6598V24.5856Z" fill="#03658C"/>
<path fill-rule="evenodd" clip-rule="evenodd" d="M145.837 11.3402V0.414429H151.429V5.747L145.837 11.3402ZM151.429 24.5856H145.837V19.253L151.429 13.6598V24.5856Z" fill="#03658C"/>
<path d="M43.826 7.25344C43.826 5.73134 45.1002 4.49072 48.4147 4.49072C50.7738 4.53354 53.0813 5.18824 55.1115 6.39074L56.8365 2.14241C54.5956 0.724562 51.4895 0 48.4486 0C41.5772 0 38.2653 3.41691 38.2653 7.52711C38.2653 16.5033 52.3155 13.3966 52.3155 17.9212C52.3155 19.4068 50.9684 20.5119 47.6564 20.5119C44.7562 20.5119 41.7153 19.4693 39.6802 17.9889L37.7832 22.2034C39.9225 23.8584 43.7765 25 47.6199 25C54.5226 25 57.8736 21.5492 57.8736 17.5068C57.8736 8.6348 43.826 11.7077 43.826 7.25344Z" fill="#03658C"/>
<path d="M83.5117 22.9957L80.0148 18.5806L74.1675 11.1864L84.1788 0.414429H77.964L67.2648 11.7077V0.414429H61.7041V24.5856H67.2648V18.4737L70.509 15.0855L78.2403 24.5804H84.7677L83.5117 22.9957Z" fill="#03658C"/>
<path fill-rule="evenodd" clip-rule="evenodd" d="M137.17 12.0178C139.176 11.0138 140.425 8.94408 140.378 6.70092C140.378 2.93476 137.272 0.414429 131.232 0.414429H119.425V24.5856H131.932C138.283 24.5856 141.6 22.1695 141.6 17.989C141.589 14.9526 139.862 12.8805 137.17 12.0178ZM124.983 4.62888H130.549C133.272 4.62888 134.757 5.55934 134.757 7.45936C134.757 9.35938 133.272 10.3263 130.549 10.3263H124.983V4.62888ZM124.983 20.3738H131.497H131.508C134.408 20.3738 135.948 19.4433 135.948 17.4051C135.948 15.367 134.398 14.4 131.497 14.4H124.983V20.3738Z" fill="#03658C"/>
<path d="M29.992 0C29.9988 1.75537 29.5403 3.48117 28.6631 5.00156C26.8764 8.10009 23.5699 10.0067 19.9937 10.0005H9.99805C9.99948 4.479 14.4734 0.0028771 19.9937 0L29.992 0Z" fill="#03658C"/>
<path d="M19.994 14.9995C19.9947 17.6516 18.9419 20.1953 17.0673 22.0708C15.1926 23.9463 12.6498 25 9.9983 25H0C0.0014384 19.4775 4.47699 15.001 9.9983 14.9995L19.994 14.9995Z" fill="#03658C"/>
</svg>
