<svg xmlns="http://www.w3.org/2000/svg" xmlns:xlink="http://www.w3.org/1999/xlink" width="248" height="166" fill="none" xmlns:v="https://vecta.io/nano"><style><![CDATA[.B{fill:#263238}.C{fill:#000}.D{fill:#06455e}.E{fill:#455a64}.F{fill:#37474f}.G{opacity:.1}.H{fill:#ffa8a7}.I{opacity:.5}.J{opacity:.25}.K{fill:#b16668}.L{fill:#ebebeb}.M{fill:#f28f8f}.N{fill:#fff}.O{fill:#f5f5f5}.P{fill:#9a4a4d}.Q{fill:#e0e0e0}]]></style><path d="M123.527 228.595c68.223 0 123.528-30.523 123.528-68.175S191.75 92.245 123.527 92.245 0 122.768 0 160.42s55.305 68.175 123.527 68.175z" class="G O"/><g fill="#e6e6e6"><path d="M181.648 205.848c20.909 0 37.859-9.786 37.859-21.857s-16.95-21.856-37.859-21.856-37.86 9.785-37.86 21.856 16.951 21.857 37.86 21.857zm-120.368 0c20.909 0 37.859-9.786 37.859-21.857s-16.95-21.856-37.859-21.856-37.859 9.785-37.859 21.856 16.95 21.857 37.859 21.857z" class="G"/><path d="M39.8 152.426l78.679 45.434c.34.17.716.259 1.096.259a2.45 2.45 0 0 0 1.096-.259l88.101-50.838a.67.67 0 0 0 .327-.245c.081-.113.124-.249.124-.388s-.043-.276-.124-.389-.195-.199-.327-.244l-78.711-45.45a2.44 2.44 0 0 0-2.186 0L39.8 151.16c-.132.045-.246.13-.327.244a.67.67 0 0 0-.124.389c0 .139.043.275.124.388a.67.67 0 0 0 .327.245z" class="G"/></g><g class="E"><path d="M172.456 119.985c.168 0 .329-.067.448-.186a.63.63 0 0 0 .185-.447V78.861a.63.63 0 0 0-.03-.259c-.028-.083-.073-.16-.133-.225s-.131-.117-.212-.152a.63.63 0 0 0-.511 0 .64.64 0 0 0-.212.152c-.06.065-.104.142-.132.225s-.039.172-.031.259v40.491c0 .167.066.327.184.446a.63.63 0 0 0 .444.187zm-25.053-14.721c.127 0 .25-.038.354-.109a.63.63 0 0 0 .232-.288l12.419-31.43c.031-.077.045-.159.044-.242a.64.64 0 0 0-.052-.24.63.63 0 0 0-.141-.202c-.06-.058-.129-.102-.206-.133a.63.63 0 0 0-.482.009c-.076.033-.144.081-.202.14a.63.63 0 0 0-.132.207l-12.42 31.43a.63.63 0 0 0 .011.481c.066.153.19.274.345.335.074.027.152.042.23.042z"/><path d="M148.894 101.471c.087-.001.172-.018.251-.053a.65.65 0 0 0 .21-.146l23.101-24.451 23.065 24.346c.056.061.124.11.2.145a.62.62 0 0 0 .239.055.61.61 0 0 0 .243-.041c.077-.03.148-.075.208-.133.12-.115.19-.272.195-.439s-.056-.328-.169-.45l-23.541-24.833c-.06-.061-.132-.11-.211-.144s-.164-.05-.25-.05a.61.61 0 0 0-.247.049.62.62 0 0 0-.208.144l-23.541 24.938a.63.63 0 0 0-.147.318.64.64 0 0 0 .046.348.63.63 0 0 0 .223.27.64.64 0 0 0 .333.11v.016z"/><path d="M197.509 105.264a.67.67 0 0 0 .23-.042c.077-.03.148-.075.207-.132a.62.62 0 0 0 .193-.442c.001-.083-.014-.165-.044-.242l-12.414-31.43c-.03-.077-.075-.147-.133-.207a.63.63 0 0 0-.201-.14c-.076-.033-.158-.051-.24-.052a.63.63 0 0 0-.242.043.64.64 0 0 0-.207.133c-.059.057-.107.126-.14.202a.62.62 0 0 0-.052.24c-.002.083.013.165.043.242l12.414 31.43c.047.117.128.217.232.288a.63.63 0 0 0 .354.109z"/></g><g class="D"><path d="M148.261 100.499l-1.642 4.332c-.006.036-.006.073 0 .109v.079a.52.52 0 0 0 .245.277c.156.078.327.118.5.118s.344-.04.5-.118a.46.46 0 0 0 .198-.204v-.057l1.523-4.065-1.324-.471zm48.395 0l1.638 4.332c.005.036.005.073 0 .109a.21.21 0 0 1 0 .079c-.046.119-.133.218-.246.277a1.11 1.11 0 0 1-.999 0c-.085-.045-.153-.117-.194-.204v-.057l-1.522-4.065 1.323-.471zm-24.927 15.72v3.584c.007.064.03.125.068.177s.088.094.147.121c.161.083.341.127.523.127s.361-.044.523-.127c.058-.027.109-.069.147-.121s.061-.113.067-.177v-3.584a1.53 1.53 0 0 0-.737-.19c-.258 0-.512.066-.738.19z"/><use xlink:href="#B"/></g><use xlink:href="#B" class="C I"/><use xlink:href="#C" class="D"/><use xlink:href="#C" opacity=".09" class="C"/><use xlink:href="#D" class="D"/><use xlink:href="#D" opacity=".3" class="C"/><path d="M190.918 28.161c-6.906-3.777-11.781-6.466-14.7 2.804-2.878 9.129-4.138 19.879-8.297 22.416 0 0-1.266.11 9.071 7.92 3.29 2.485 7.282 4.52 9.903 6.084 5.137 3.06 8.25 4.29 8.747 3.882 2.715-2.255 4.185-21.972 3.515-29.897s-3.986-10.881-8.239-13.209z" class="D"/><path d="M161.015 109.564h-4.943v8.46h4.943v-8.46zm-13.617 2.38l-4.944.168-.245-8.951 4.938-.173.251 8.956z" class="H"/><path d="M142.402 110.59c-.256 0-.465.372-1.046.984-.685.743-2.213 1.517-3.317 2.066-1.852.926-6.696 2.171-8.323 2.903-1.046.461-.764 2.041.68 2.93 1.073.659 4.499 1.303 7.549.617 1.658-.371 4.185-1.522 5.425-1.716 1.35-.214 3.845-.476 4.855-1.171s.607-2.182.319-3.458c-.314-1.397-.759-3.531-1.219-3.437v.439c-.596.9-3.62 1.271-4.928.607l.005-.764zm13.67 5.037c-.262 0-.471.372-1.047.984-.685.743-2.212 1.517-3.316 2.066-1.852.926-6.696 2.171-8.323 2.904-1.02.46-.764 2.04.68 2.929 1.072.659 4.499 1.303 7.549.617 1.658-.371 4.185-1.522 5.424-1.715 1.35-.215 3.845-.477 4.855-1.172s.607-2.182.319-3.458c-.308-1.397-.758-3.531-1.219-3.432v.434c-.596.9-3.62 1.271-4.922.607v-.764z" class="B"/><path d="M188.443 66.767c.283 5.953-.413 7.774-10.306 12.869l-13.528 7.02s.382 1.915.434 7.387c.048 4.818-3.761 19.754-3.761 19.754s-4.023 2.092-5.639 0V96.68c.089-9.709-.419-12.341 0-14.125.298-1.256 10.012-9.777 10.012-9.777l2.616-1.648-16.18 10.285s-.33 4.708-.796 7.653c-1.114 6.905-3.897 18.289-3.897 18.289s-3.599 1.611-5.383.22l-.371-30.242c0-3.563 5.723-7.57 18.806-15.302 2.789-1.648 6.513-3.468 6.513-3.468l21.48 8.203z" class="E"/><path d="M168.25 71.14s-2.375-1.177-4.467-5.634c.15 1.612.644 3.173 1.449 4.577.942 1.475-13.162 11.347-13.162 11.347l16.18-10.29z" class="F"/><path d="M163.709 33.072c-1.328 2.814-6.01 14.674-6.01 14.674l3.803 6.45c1.423-1.182 5.346-10.865 5.827-11.613 1.293-2.009 3.589-14.92 3.589-14.92-4.834.178-5.859 2.542-7.209 5.409z" class="H"/><use xlink:href="#E" class="D"/><use xlink:href="#E" class="C J"/><path d="M180.282 27.737l7.523 1.988V46l.638 20.768c-3.505 3.814-21.971 1.407-24.132-6.696l.115-23.646c0-3.892 2.166-8.569 8.135-8.893l7.721.204z" class="O"/><use xlink:href="#F" class="D"/><use xlink:href="#F" class="C I"/><use xlink:href="#G" class="D"/><use xlink:href="#G" class="C I"/><path d="M180.591 15.809c.434.261 1.046-.575 1.569-1.135s2.281-1.324 3.139.523-.769 4.347-2.145 4.781c-2.375.743-2.731-.779-2.731-.779l-.177 8.558s-1.57 3.798-5.755 4.368-3.343-2.898-1.962-4.598v-2.616c-1.058.168-2.131.223-3.201.162-1.742-.272-2.841-1.648-3.369-3.536-.848-3.029-1.172-5.477-.45-11.446.79-6.534 8.37-6.602 12.498-4.018s2.584 9.736 2.584 9.736z" class="H"/><use xlink:href="#H" class="D"/><use xlink:href="#H" class="C I"/><path d="M172.571 24.906s3.892-.785 5.232-1.512a4.47 4.47 0 0 0 1.883-1.862c-.2.795-.555 1.541-1.046 2.197-1 1.271-6.069 2.213-6.069 2.213v-1.036z" class="M"/><path d="M171.98 14.788c.006.153.057.3.147.424a.78.78 0 0 0 .356.273c.142.054.298.065.447.032a.78.78 0 0 0 .596-.62c.027-.15.01-.305-.05-.446a.77.77 0 0 0-.287-.345c-.127-.084-.276-.129-.429-.13a.79.79 0 0 0-.558.244.8.8 0 0 0-.222.567z" class="B"/><path d="M172.807 11.844l1.669.921a1 1 0 0 0 .073-.742c-.072-.248-.237-.458-.461-.586-.11-.06-.231-.097-.356-.109s-.252.002-.371.04a.93.93 0 0 0-.554.478z" class="E"/><path d="M171.876 20.177l-1.784.67a.92.92 0 0 0 .481.554.93.93 0 0 0 .362.093c.126.006.252-.013.37-.056.24-.096.433-.281.539-.516a1 1 0 0 0 .032-.745z" class="M"/><path d="M165.713 12.492l1.522-1.172a.91.91 0 0 0-.269-.257.92.92 0 0 0-.72-.111c-.122.032-.235.088-.334.165-.202.161-.335.393-.372.649s.025.516.173.727z" class="E"/><path d="M165.875 14.313c.006.153.057.3.147.424s.213.219.356.273.298.065.447.032a.78.78 0 0 0 .596-.62c.027-.15.01-.305-.05-.446a.77.77 0 0 0-.287-.345c-.127-.084-.276-.129-.429-.129a.79.79 0 0 0-.558.244.8.8 0 0 0-.222.567z" class="B"/><path d="M169.725 13.826l-.256 4.692-2.448-.837 2.704-3.855z" class="M"/><path d="M186.042 29.373s3.107.523 4.536 3.359c.857 1.69 3.661 6.094 5.409 9.061l1.621 2.778s10.641-5.639 11.232-6.377.56-2.234.649-3.039c.152-1.345-.34-2.506-.413-2.987-.147-1.046 1.339-.795 1.81-.387a4.46 4.46 0 0 1 .763 1.109c.231.387.665 1.637 1.104 1.716.345.063 1.046-.429 1.313-.643 1.172-.879 1.894-2.093 2.789-3.223a1.64 1.64 0 0 1 .643-.56 1.57 1.57 0 0 1 .693.024c.226.06.436.169.615.321.375.212.7.503.952.853a2.72 2.72 0 0 1 .324.853c.466 2.035-.565 3.756-1.799 5.294a18.53 18.53 0 0 1-4.353 3.85c-.968.633-2.249 1.193-3.343 1.789S196.86 54.52 195.171 53.406c-.68-.466-2.773-3.076-4.797-5.54a37.11 37.11 0 0 1-3.636-5.231c-4.578-4.075-.696-13.262-.696-13.262z" class="H"/><use xlink:href="#I" class="D"/><use xlink:href="#I" class="C J"/><g class="E"><path d="M86.029 120.226a.63.63 0 0 1-.444-.187c-.117-.118-.184-.279-.184-.446V79.108a.63.63 0 0 1 .631-.575c.158 0 .31.059.427.165s.189.253.204.41v40.49a.63.63 0 0 1-.633.628zm25.058-14.742c-.126.001-.25-.037-.355-.108a.62.62 0 0 1-.23-.29l-12.42-31.424a.63.63 0 0 1-.027-.51.63.63 0 0 1 .358-.364.64.64 0 0 1 .257-.044.63.63 0 0 1 .459.223.63.63 0 0 1 .124.229l12.414 31.43a.64.64 0 0 1 .047.241.62.62 0 0 1-.051.24c-.033.076-.08.145-.14.202a.61.61 0 0 1-.206.133.63.63 0 0 1-.231.042z"/><path d="M109.591 101.712a.63.63 0 0 1-.248-.053.64.64 0 0 1-.207-.146L86.029 77.062l-23.06 24.346a.62.62 0 0 1-.2.143c-.075.034-.157.052-.239.055s-.165-.012-.242-.041-.148-.074-.208-.13a.64.64 0 0 1-.142-.2c-.034-.076-.053-.157-.055-.24s.011-.164.041-.242a.63.63 0 0 1 .13-.208l23.541-24.833c.059-.062.129-.111.207-.144a.62.62 0 0 1 .248-.05.61.61 0 0 1 .455.199l23.541 24.933c.079.09.13.201.147.32a.63.63 0 0 1-.046.348.64.64 0 0 1-.226.27c-.099.067-.215.105-.335.108l.005.016z"/><path d="M60.977 105.484c-.079.001-.157-.014-.23-.042a.62.62 0 0 1-.348-.334.63.63 0 0 1-.008-.482l12.419-31.43c.025-.084.067-.162.124-.229s.127-.121.206-.16a.63.63 0 0 1 .51-.019.63.63 0 0 1 .358.364c.031.082.045.17.04.258s-.027.174-.067.252l-12.419 31.424a.62.62 0 0 1-.231.29c-.105.071-.229.109-.355.108z"/></g><path d="M110.229 100.739l1.643 4.332c.005.038.005.077 0 .115v.078c-.05.117-.138.214-.251.272a1.11 1.11 0 0 1-.999 0 .46.46 0 0 1-.194-.204v-.057l-1.522-4.06 1.323-.476zm-48.395 0l-1.632 4.332a.41.41 0 0 0 0 .115v.078c.05.117.138.214.251.272a1.11 1.11 0 0 0 .999 0 .46.46 0 0 0 .194-.204v-.057l1.522-4.06-1.334-.476zm24.923 15.72v3.583a.37.37 0 0 1-.064.178c-.036.053-.087.094-.145.12-.162.083-.341.126-.523.126s-.361-.043-.523-.126a.36.36 0 0 1-.145-.12c-.037-.052-.059-.114-.064-.178v-3.583a1.57 1.57 0 0 1 1.465 0z" class="D"/><path d="M114.19 73.234c0-1.125-.989-2.328-3.076-3.662-3.861-2.506-15.098-8.778-20.502-11.77-.002-.011-.006-.021-.014-.03s-.017-.014-.028-.017c-4.185-2.522-5.42-13.288-8.297-22.416-.983-3.139-2.181-4.87-3.61-5.702l-1.857-1.046c-2.825-1.69-6.529.34-11.143 2.867-4.253 2.328-7.575 5.305-8.245 13.209-.403 4.813 0 14.004.963 20.978 1.418 11.645 3.139 11.666 5.676 13.601 4.337 3.353 14.125 8.067 18.231 9.688 7.47 2.94 13.602-1.569 18.127-3.84a106.07 106.07 0 0 0 12.063-7.146c1.14-.827 1.726-1.664 1.716-2.543-.011-.371 0-1.805-.005-2.171z" class="B"/><path d="M100.41 82.906c4.175-2.113 8.205-4.501 12.064-7.146 2.615-1.878 2.349-3.803-1.36-6.21-5.158-3.348-23.468-13.413-23.468-13.413s-26.57 15.694-25.424 18.577 14.883 9.992 20.062 12.032c7.47 2.94 13.581-1.596 18.126-3.84z" class="F"/><path d="M78.512 29.52c-2.799-1.465-6.434.523-10.928 2.992-2.877 1.569-5.336 3.447-6.827 6.947l-1.894-1.093c1.491-3.489 3.939-5.357 6.801-6.932 4.614-2.527 8.318-4.556 11.143-2.867l1.705.952z" class="E"/><path d="M67.573 32.512c6.905-3.777 11.776-6.466 14.7 2.804 2.877 9.129 4.138 19.879 8.297 22.416 0 0 1.266.11-9.071 7.92-3.29 2.485-7.282 4.52-9.903 6.084-5.137 3.06-8.255 4.29-8.747 3.882-2.715-2.255-4.185-21.972-3.515-29.897s4.007-10.881 8.239-13.209z" class="F"/><path d="M94.012 97.496c-.408.35-.879.758-.879 1.25a4.95 4.95 0 0 0 1.046 2.904c.905 1.213 1.36 3.39 1.402 4.844s-.199 5.121 1.47 6.743 6 2.799 6.277.131-3.939-13.45-3.939-13.45l-5.378-2.422z" class="B"/><path d="M96.299 99.463a39.25 39.25 0 0 1 1.193 5.906c.23 2.182.706 3.756 1.737 4.441s2.673.754 2.208-.763-2.035-9.129-2.035-9.129l-3.102-.455z" class="P"/><use xlink:href="#J" class="D"/><use xlink:href="#J" class="I N"/><path d="M102.576 113.499c-.382.199-.424 1.083-.455 1.732s-.586 1.454.251 2.547 2.412 1.345 3.552 2.836 1.868 3.62 5.373 4.185 6.078-.743 6.67-1.81-.047-2.014-2.334-3.139l-3.138-1.57-9.919-4.781z" class="B"/><path d="M105.919 106.17l3.071 6.602c1.135 2.066 1.867 3.4 3.756 5.179.413.387 1.329 1.093 1.663 1.407.082.059.149.137.196.226a.66.66 0 0 1 .078.288c.003.101-.016.201-.057.294a.66.66 0 0 1-.18.238c-.68.796-3.84 1.287-5.754.136s-2.951-2.929-4.128-3.897l-1.543-1.287a1.45 1.45 0 0 1-.44-.6c-.091-.235-.12-.49-.083-.739 0-.141.047-.309.073-.523.141-1.046-1.648-5.132-1.648-5.132l4.996-2.192z" class="K"/><use xlink:href="#K" class="D"/><use xlink:href="#K" class="I N"/><path opacity=".2" d="M101.033 80.719c-.931-2.961-3.395-5.111-5.723-6.911-1.909-1.465-6.801-5.006-8.47-6.236.364-1.102.624-2.235.779-3.385 0 0-1.14 2.725-1.794 4.002 0 0 11.875 8.297 13.157 11.09.738 1.606 2.642 10.321 4.604 16.74-.204-.984-1.674-12.487-2.553-15.302z" class="C"/><path d="M55.18 52.015s-12.095-2.202-12.906-2.726-1.24-1.998-1.569-2.752c-.565-1.266-.445-2.542-.523-3.039-.173-1.046-1.543-.356-1.878.188-.197.416-.331.858-.398 1.313-.105.45-.136 1.8-.523 2.019-.314.167-1.135-.099-1.475-.22-1.413-.523-2.495-1.465-3.714-2.276-.231-.184-.508-.301-.8-.34a1.57 1.57 0 0 0-1.166.738 3.07 3.07 0 0 0-.659 1.125c-.072.305-.09.62-.052.931.178 2.124 1.716 3.479 3.395 4.593a18.87 18.87 0 0 0 5.393 2.427c1.141.314 2.558.466 3.808.706s16.217 6.278 17.787 4.965c.973-.821 1.951-4.154 2.992-7.235a88.86 88.86 0 0 0 2.542-9.751c.163-3.366-.754-6.696-2.616-9.505 0 0-2.862.581-3.976 4.823-.486 1.868-2.176 7.382-2.945 10.813l-.722 3.202" class="K"/><path d="M66.543 41.333c1.569-3.662.581-9.725-1.187-11.383-4.483.769-5.613 2.882-6.848 7.057-1.9 6.423-2.857 10.593-2.857 10.593 1.12 1.491 6.215 3.359 8.313 2.72l2.579-8.987zm12.565-12.247a7.01 7.01 0 0 1 3.861-1.125c2.019.131 4.326.842 5.802 3.217 1.977 3.175 6.576 10.154 6.576 10.154a9.07 9.07 0 0 1-6.189 6.184L82.09 37.404l-2.982-8.318z" class="Q"/><path d="M86.642 45.204l1.35 13.842c-2.04 5.231-7.575 5.54-12.032 5.587-5.367.063-10.421-1.35-11.886-3.688 1.25-2.99 2.227-6.088 2.919-9.254l-1.967-8.6s4.708-4.285 0-13.047l6.225-1.862 7.418-.607 4.321.387c2.438 1.784 4.054 5.414 4.834 7.413s2.359 5.666-1.182 9.83z" class="O"/><path d="M66.061 55.264l.194-.675.717-2.898-1.967-8.6.199-.214c.623-.722 2.228-2.998 1.768-6.869 0 0 1.355 4.949-.403 7.523l1.663 7.455 2.401 3.495-2.914-1.146-1.151 5.467c-.068 1.046 2.406 4.52 7.706 5.849-4.734-.209-8.946-1.569-10.259-3.662a50.78 50.78 0 0 0 2.045-5.723z" class="L"/><path d="M75.446.737c3.272 0 6.409 1.3 8.723 3.613s3.613 5.451 3.613 8.723V26.34H72.669a9.56 9.56 0 0 1-9.558-9.558v-3.714c.001-3.271 1.302-6.407 3.615-8.719S72.176.737 75.446.737z" class="B"/><path d="M71.068 16.237c10.86.115 11.812-10.18 11.812-10.18a40.19 40.19 0 0 1-11.812 10.18z" class="D"/><path d="M66.203 4.535a1.57 1.57 0 0 0-.802-.946 1.57 1.57 0 0 0-1.238-.069l.717 2.354a1.65 1.65 0 0 0-.779-.581 1.57 1.57 0 0 0-1.237.088 1.57 1.57 0 0 0-.787.959l3.066 1.099a1.75 1.75 0 0 0 .042-.821c.401-.155.729-.455.918-.841s.225-.829.102-1.241z" class="F"/><path d="M82.88 6.057c1.323.732 3.024 3.965 3.055 10.839 0 5.828-1.826 7.324-2.762 7.758s-2.773.241-4.556 0l.031 2.93s3.207 2.987 3.092 4.593-4.096 2.443-6.434.936-4.368-4.457-4.368-4.457l-.173-8.077s-1.015 1.046-2.83-.455c-1.501-1.24-2.051-3.385-.942-4.577.288-.283.639-.494 1.025-.614s.794-.148 1.192-.079.774.231 1.097.473.584.558.761.921c0 0 2.841.026 6.555-2.15 1.448-.831 2.679-1.993 3.593-3.39s1.484-2.991 1.665-4.651z" class="K"/><path d="M80.128 15.286a.73.73 0 0 1-.418.691.73.73 0 0 1-.8-.114.73.73 0 0 1-.208-.78c.046-.136.13-.256.243-.344s.25-.142.393-.153c.197-.01.391.058.538.189s.238.315.252.512z" class="B"/><path d="M79.726 20.543l1.711.523c-.027.115-.078.223-.148.317s-.159.174-.26.234-.214.098-.331.113-.236.006-.349-.026a.93.93 0 0 1-.552-.452.93.93 0 0 1-.07-.71z" class="P"/><path d="M85.313 12.854l-1.507-.989a.87.87 0 0 1 1.224-.282c.201.136.342.343.394.579a.95.95 0 0 1-.112.692zm.062 1.684a.74.74 0 0 1-.028.29.73.73 0 0 1-.363.439c-.087.045-.181.073-.279.082-.152.018-.305-.009-.441-.079s-.248-.179-.321-.313a.76.76 0 0 1-.09-.439c.015-.152.074-.296.172-.414a.77.77 0 0 1 .374-.247.76.76 0 0 1 .448.006.77.77 0 0 1 .529.674z" class="B"/><path d="M82.012 14.454l.084 4.771 2.302-.78-2.385-3.991zm-3.395 10.19c-1.878-.194-5.754-1.198-6.403-2.705a3.94 3.94 0 0 0 1.402 1.909c1.182.952 5.017 1.962 5.017 1.962l-.016-1.166z" class="P"/><path d="M125.835 189.187c.004.112.039.22.102.313a.6.6 0 0 0 .253.21c.275.14.579.212.887.212s.612-.072.887-.212c.103-.046.191-.119.257-.211s.104-.199.114-.312l.032-51.021-2.501.037-.031 50.984z" class="E"/><path d="M127.21 189.914a1.78 1.78 0 0 0 .754-.21c.103-.046.191-.119.257-.211s.104-.199.114-.312l.032-51.021h-1.12l-.037 51.754z" class="F"/><path d="M126.227 138.703a1.94 1.94 0 0 0 1.768 0c.492-.287.523-.742 0-1.046a1.98 1.98 0 0 0-.887-.21c-.307 0-.611.072-.886.21-.476.309-.482.769.005 1.046z" class="B"/><path d="M197.985 147.337a.59.59 0 0 0 .356.523c.273.14.576.213.884.213s.61-.073.884-.213c.104-.045.194-.117.26-.209s.104-.201.111-.314l.032-51.022-2.501.037-.026 50.985z" class="E"/><path d="M199.356 148.063a1.65 1.65 0 0 0 .748-.209c.104-.044.194-.117.26-.209a.61.61 0 0 0 .111-.314l.032-51.021h-1.125l-.026 51.753z" class="F"/><path d="M198.372 96.854c.275.139.579.212.887.212s.612-.073.887-.212c.491-.288.497-.743 0-1.046a1.97 1.97 0 0 0-.884-.21c-.307 0-.61.072-.884.21-.482.309-.487.769-.006 1.046z" class="B"/><path d="M51.769 146.201a.58.58 0 0 0 .101.313c.063.093.151.166.255.21.275.139.579.212.887.212s.612-.073.887-.212a.65.65 0 0 0 .256-.212c.065-.092.105-.199.116-.311l.031-51.016-2.501.031-.031 50.985z" class="E"/><path d="M53.145 146.923a1.77 1.77 0 0 0 .753-.204.64.64 0 0 0 .255-.212c.065-.092.105-.199.116-.311l.031-51.016h-1.12l-.037 51.743z" class="F"/><path d="M52.162 95.718c.274.138.577.21.884.21s.61-.072.884-.21c.492-.282.497-.743 0-1.02a1.96 1.96 0 0 0-1.774 0c-.476.282-.481.738.005 1.02z" class="B"/><path d="M38.691 103.079v-.429c.021-.38.131-.751.322-1.081s.457-.61.777-.818l88.085-50.853c.339-.17.714-.259 1.093-.259a2.44 2.44 0 0 1 1.094.259l78.71 45.429a2.41 2.41 0 0 1 .774.816c.19.329.299.698.32 1.078v.439c-.021.379-.13.749-.32 1.078a2.41 2.41 0 0 1-.774.816l-88.101 50.87a2.41 2.41 0 0 1-1.096.263c-.381 0-.756-.09-1.096-.263L39.8 104.978c-.322-.206-.59-.486-.782-.816s-.305-.701-.327-1.083z" class="D"/><path opacity=".49" d="M38.691 103.079v-.429c.021-.38.131-.751.322-1.081s.457-.61.777-.818l88.086-50.853c.339-.17.713-.259 1.093-.259s.754.089 1.093.259l78.711 45.429a2.41 2.41 0 0 1 1.093 1.894v.439a2.41 2.41 0 0 1-1.093 1.894l-88.101 50.87a2.41 2.41 0 0 1-1.096.263c-.381 0-.756-.09-1.096-.263L39.8 104.978c-.322-.206-.59-.486-.782-.816a2.42 2.42 0 0 1-.327-1.083z" class="N"/><use xlink:href="#L" class="D"/><use xlink:href="#L" opacity=".36" class="N"/><use xlink:href="#M" class="D"/><use xlink:href="#M" opacity=".64" class="N"/><path d="M101.2 119.499a2.2 2.2 0 0 1-1.088-.272l-23.881-13.784c-.216-.108-.398-.273-.525-.479s-.194-.441-.194-.683.067-.477.194-.682.309-.371.525-.479l13.565-7.847c.333-.182.706-.277 1.085-.277s.753.095 1.085.277l23.881 13.785c.216.107.398.273.525.478a1.3 1.3 0 0 1 0 1.366c-.127.205-.309.371-.525.478l-13.565 7.847a2.18 2.18 0 0 1-1.083.272z" class="C G"/><path d="M116.005 109.606c-.014.211-.077.416-.186.598a1.34 1.34 0 0 1-.437.449l-13.559 7.847c-.193.097-.406.148-.623.148s-.429-.051-.622-.148l-23.881-13.79a1.17 1.17 0 0 1-.457-.43c-.11-.182-.168-.391-.168-.603s.058-.422.168-.604a1.17 1.17 0 0 1 .457-.43l13.56-7.847c.193-.098.406-.149.623-.149s.43.051.623.149l23.881 13.785c.177.111.325.261.433.439a1.34 1.34 0 0 1 .19.586z" class="F"/><path d="M101.2 117.296v1.344c.217.005.431-.045.623-.146l13.559-7.847a1.17 1.17 0 0 0 .447-.414 1.18 1.18 0 0 0 .177-.583c.006-.206-.043-.41-.141-.592a1.16 1.16 0 0 0-.42-.441c.283.199.262.492-.063.68l-13.559 7.847a1.28 1.28 0 0 1-.623.152z" class="B"/><path d="M116.591 108.597c.324-.188.303-.523.303-.9V88.964c-.011-.216-.073-.426-.182-.614a1.37 1.37 0 0 0-.44-.464L92.391 74.102a1.34 1.34 0 0 0-1.203-.026c-.324.188-.309.523-.309.9v18.733c.013.216.075.425.183.613s.258.346.439.465l23.881 13.785a1.36 1.36 0 0 0 1.209.026z" class="E"/><path d="M115.456 108.613a1.37 1.37 0 0 0 .567.124c.196 0 .39-.043.568-.124.324-.189.303-.524.303-.9V88.964a1.23 1.23 0 0 0-.183-.612l-.889.523a1.24 1.24 0 0 1 .183.612v18.733c0 .361-.241.529-.549.393z" class="B"/><path d="M116.005 89.482v18.733c0 .398-.278.555-.623.356L91.501 94.802c-.181-.119-.331-.278-.439-.465s-.171-.397-.184-.613V74.975c0-.398.282-.56.623-.361l23.881 13.79c.182.118.333.277.441.464a1.38 1.38 0 0 1 .182.614z" class="F"/><path d="M115.382 109.293l-13.559 7.847a1.38 1.38 0 0 1-.623.149c-.216 0-.429-.051-.622-.149l-23.881-13.79a.37.37 0 0 1-.189-.137c-.047-.064-.072-.141-.072-.221s.025-.157.072-.222.113-.112.189-.136l13.56-7.847c.193-.098.406-.149.622-.149s.43.051.623.149l23.881 13.784c.075.026.141.075.187.139s.07.143.07.222-.024.157-.07.222-.112.113-.187.139z" class="E"/><use xlink:href="#N" class="D"/><use xlink:href="#N" opacity=".6" class="N"/><path d="M113.661 108.608L91.496 95.812a.7.7 0 0 0-.628 0l-.366.204a.18.18 0 0 0-.097.068.19.19 0 0 0-.037.112c0 .04.013.08.037.113s.058.056.097.068l22.17 12.796c.097.049.204.075.312.075s.215-.026.311-.075l.366-.204c.039-.012.073-.035.097-.068s.038-.072.038-.113a.18.18 0 0 0-.038-.112c-.025-.032-.058-.056-.097-.068zm-1.742 1.035L89.754 96.847c-.086-.05-.182-.078-.281-.084a.63.63 0 0 0-.289.052l-5.755 3.332c-.147.079-.12.225.052.325l22.139 12.78c.086.049.182.078.28.084a.64.64 0 0 0 .29-.048l5.801-3.316c.126-.084.1-.23-.073-.33z" class="B"/><use xlink:href="#O" class="D"/><use xlink:href="#O" class="E"/><path d="M97.209 109.303l-.141.078-3.782 2.182-6.722-3.877-.136-.083 3.918-2.26 6.864 3.96z" class="B"/><path d="M97.067 109.381l-3.782 2.182-6.722-3.877 3.782-2.181 6.722 3.876z" class="F"/><path d="M97.067 109.381l-3.782 2.182-6.722-3.877 3.782-2.181 6.722 3.876z" class="B J"/><path d="M116.591 108.591c-.06.038-.126.066-.194.084.067-.019.132-.045.194-.078l.057-.042c-.017.015-.036.027-.057.036z" class="D"/><path d="M137.354 83.209a1.75 1.75 0 0 1-.884-.23l-13.403-7.737 19.157-11.059 12.21 7.047c.215.118.394.292.519.503a1.37 1.37 0 0 1 0 1.395 1.37 1.37 0 0 1-.519.503l-16.217 9.348a1.75 1.75 0 0 1-.863.23z" class="C G"/><path d="M141.68 65.565l12.289 6.471.251.392v.324a.47.47 0 0 1-.071.233c-.044.07-.107.127-.18.164l-16.191 9.348a.91.91 0 0 1-.848 0l-12.032-6.937v-.319l16.782-9.678z" class="B"/><path d="M137.354 82.284c.148.002.294-.034.424-.105l16.191-9.348c.075-.035.139-.09.184-.16s.069-.151.069-.235-.024-.165-.069-.235-.109-.126-.184-.16l-11.745-6.801-17.305 9.992 12.032 6.937c.123.071.261.11.403.115z" class="E"/><path d="M142.224 64.314l11.619 6.701.12.167v1.245c-.003.036-.016.071-.037.1s-.05.053-.083.067l-16.217 9.354c-.09.044-.188.067-.288.067s-.198-.023-.288-.067l-11.613-6.707v-1.245l16.787-9.683z" class="L"/><path d="M125.453 73.997l.141.084 1.894 1.088.35.204 9.228 5.305c.089.046.188.071.288.071s.199-.024.288-.071l16.217-9.348a.18.18 0 0 0 .118-.167c0-.037-.012-.072-.033-.102s-.051-.053-.085-.065l-.157-.089-11.457-6.612-16.651 9.62h-.032l-.109.084z" fill="#f0f0f0"/><path d="M137.354 80.773v1.245a.64.64 0 0 0 .288-.068l16.217-9.354a.19.19 0 0 0 .081-.067c.02-.03.032-.064.034-.1v-1.245c-.003.036-.014.07-.035.1s-.048.053-.08.068l-16.233 9.328c-.081.054-.175.086-.272.094z" class="Q"/><path d="M125.453 73.831l2.092 1.208.33.188 9.196 5.305c.089.046.188.071.288.071s.199-.024.288-.071l14.501-8.37.366-.209c.465-.255.866-.613 1.172-1.046l.032-.042c.015-.026.025-.054.031-.084.012-.065-.002-.133-.039-.187s-.095-.093-.16-.106c-.38-.114-.746-.268-1.093-.46l-10.233-5.88-16.771 9.683z" fill="#fafafa"/><path d="M127.613 73.684c.032.012.06.033.079.061s.03.061.03.096-.01.068-.03.096-.047.049-.079.061c-.082.039-.171.059-.261.059s-.18-.02-.262-.059c-.152-.089-.152-.23 0-.314.081-.042.171-.064.262-.064s.18.022.261.064z" class="C G"/><path d="M125.51 73.516a2.38 2.38 0 0 0 0 .267l.188-.11v-.157a.74.74 0 0 1 .272-.67c.06-.033.126-.051.194-.052a.67.67 0 0 1 .33.105 2.01 2.01 0 0 1 .81 1.161.61.61 0 0 0 .199 0 2.24 2.24 0 0 0-.91-1.308.7.7 0 0 0-.722-.052c-.124.094-.223.219-.286.361a.92.92 0 0 0-.075.455zm.042.362a.19.19 0 0 0 0 .048h.032l-.032-.048z" class="B"/><path d="M129.256 72.747c.032.011.061.031.081.059s.031.061.031.095-.011.068-.031.095-.049.048-.081.059c-.081.041-.171.063-.262.063a.57.57 0 0 1-.261-.063c-.033-.01-.061-.031-.082-.059s-.031-.061-.031-.095.011-.068.031-.095.049-.048.082-.059a.57.57 0 0 1 .261-.063c.091 0 .181.022.262.063z" class="C G"/><path d="M127.163 72.575a2.47 2.47 0 0 0 0 .272l.194-.11c-.006-.054-.006-.108 0-.162-.015-.125.002-.251.05-.368s.124-.218.222-.297a.36.36 0 0 1 .193-.052.7.7 0 0 1 .33.099 2.04 2.04 0 0 1 .816 1.161c.066.013.133.013.199 0-.143-.548-.484-1.024-.957-1.334-.106-.072-.228-.114-.355-.122a.71.71 0 0 0-.367.075c-.121.101-.214.23-.271.377s-.075.305-.054.46z" class="B"/><path d="M130.862 71.811a.16.16 0 0 1 .081.059c.02.028.031.061.031.096s-.011.068-.031.095a.16.16 0 0 1-.081.059c-.081.041-.171.063-.262.063s-.18-.022-.261-.063a.16.16 0 0 1-.081-.059c-.021-.028-.032-.061-.032-.095s.011-.068.032-.096a.16.16 0 0 1 .081-.059c.081-.041.17-.063.261-.063s.181.022.262.063z" class="C G"/><path d="M128.759 71.638c-.008.091-.008.181 0 .272l.188-.11v-.162c-.015-.125.002-.251.049-.368a.74.74 0 0 1 .223-.297c.059-.035.126-.053.194-.052a.74.74 0 0 1 .335.099c.399.279.686.69.81 1.161.066.013.134.013.199 0-.135-.533-.458-1-.91-1.313-.105-.073-.229-.116-.357-.125s-.256.018-.37.078c-.125.094-.223.219-.286.361a.92.92 0 0 0-.075.455z" class="B"/><path d="M132.484 70.873c.146.084.151.225 0 .309-.081.041-.171.063-.262.063s-.181-.022-.262-.063c-.032-.011-.061-.031-.081-.059s-.031-.061-.031-.096.011-.068.031-.095.049-.048.081-.059c.081-.041.171-.063.262-.063s.181.022.262.063z" class="C G"/><path d="M130.38 70.701c-.007.091-.007.181 0 .272l.189-.11v-.162a.72.72 0 0 1 .277-.664c.058-.036.125-.054.194-.052.116.007.229.041.329.099a2.03 2.03 0 0 1 .811 1.161c.066.013.133.013.199 0-.133-.534-.457-1.002-.91-1.313-.106-.072-.229-.115-.357-.125s-.256.016-.371.072c-.124.096-.222.221-.285.365a.94.94 0 0 0-.076.457z" class="B"/><path d="M134.105 69.932c.152.089.152.23 0 .314a.56.56 0 0 1-.261.064c-.091 0-.181-.022-.262-.064-.152-.084-.152-.225 0-.314a.6.6 0 0 1 .262-.06c.09 0 .18.021.261.06z" class="C G"/><path d="M132.002 69.765c-.005.089-.005.178 0 .267l.188-.105v-.162c-.014-.125.003-.253.05-.37s.124-.22.223-.3a.39.39 0 0 1 .193-.047.66.66 0 0 1 .33.099c.402.276.69.689.811 1.161a.61.61 0 0 0 .198 0 2.23 2.23 0 0 0-.91-1.313c-.105-.073-.227-.116-.354-.125a.71.71 0 0 0-.368.073.92.92 0 0 0-.361.821z" class="B"/><path d="M135.732 68.996c.032.012.06.033.079.061s.03.061.03.096-.01.068-.03.096-.047.049-.079.061c-.082.039-.171.059-.261.059s-.18-.02-.262-.059c-.152-.089-.152-.225 0-.314a.61.61 0 0 1 .523 0z" class="C G"/><path d="M133.629 68.829c-.008.089-.008.178 0 .267l.189-.11c-.006-.052-.006-.105 0-.157a.73.73 0 0 1 .049-.37c.047-.117.124-.22.223-.299.059-.031.126-.048.193-.047.117.003.231.037.33.099.403.276.693.688.816 1.161.065.013.133.013.199 0a2.27 2.27 0 0 0-.916-1.308c-.105-.073-.227-.116-.354-.125a.71.71 0 0 0-.368.073c-.123.095-.221.219-.284.362a.93.93 0 0 0-.077.454z" class="B"/><path d="M137.354 68.06c.032.012.06.033.079.061s.03.061.03.096-.01.068-.03.096-.047.049-.079.061c-.082.039-.171.059-.262.059s-.179-.02-.261-.059c-.032-.012-.06-.033-.079-.061s-.03-.061-.03-.096.01-.067.03-.096.047-.049.079-.061a.61.61 0 0 1 .523 0z" class="C G"/><path d="M135.251 67.892c-.008.089-.008.178 0 .267l.188-.11v-.157c-.015-.126.002-.253.049-.37a.75.75 0 0 1 .223-.3c.06-.031.126-.047.194-.047.118.003.234.038.335.099a2.04 2.04 0 0 1 .81 1.161.52.52 0 0 0 .199 0 2.26 2.26 0 0 0-.91-1.308.71.71 0 0 0-.727-.052.93.93 0 0 0-.361.816z" class="B"/><path d="M138.976 67.123c.151.089.151.225 0 .314-.082.039-.172.059-.262.059s-.18-.02-.262-.059a.17.17 0 0 1-.079-.061c-.019-.028-.03-.061-.03-.096s.011-.068.03-.096.047-.049.079-.061c.082-.039.172-.059.262-.059s.18.02.262.059z" class="C G"/><path d="M136.873 66.956c-.005.089-.005.178 0 .267l.188-.11v-.157c-.014-.126.004-.254.052-.371s.126-.22.225-.299a.4.4 0 0 1 .194-.052c.117.005.231.041.329.105.402.276.69.689.811 1.161.068.004.135-.005.199-.026a2.24 2.24 0 0 0-.91-1.308.7.7 0 0 0-.722-.052c-.13.096-.232.224-.296.372s-.088.31-.07.47z" class="B"/><path d="M140.597 66.186c.032.012.06.033.08.061s.03.061.03.096-.011.068-.03.096-.048.049-.08.061a.61.61 0 0 1-.523 0c-.151-.089-.151-.23 0-.314.081-.042.171-.064.262-.064a.56.56 0 0 1 .261.064z" class="C G"/><path d="M138.494 66.029a2.47 2.47 0 0 0 0 .272l.189-.11v-.162c-.015-.125.002-.251.049-.368s.125-.219.223-.297c.059-.034.125-.052.193-.052a.67.67 0 0 1 .33.105c.402.276.69.689.811 1.161a.61.61 0 0 0 .198-.026c-.132-.533-.456-.998-.91-1.308a.7.7 0 0 0-.353-.127c-.128-.009-.255.017-.369.074a.92.92 0 0 0-.361.837z" class="B"/><path d="M142.224 65.25c.033.011.061.031.082.059s.031.061.031.095-.011.068-.031.095-.049.048-.082.059a.57.57 0 0 1-.261.063c-.091 0-.181-.022-.262-.063-.032-.01-.061-.031-.081-.059s-.031-.061-.031-.095.011-.068.031-.095.049-.048.081-.059c.081-.041.171-.063.262-.063a.57.57 0 0 1 .261.063z" class="C G"/><path d="M140.121 65.078c-.007.091-.007.182 0 .272l.189-.11c-.006-.054-.006-.108 0-.162-.015-.125.002-.251.049-.367s.124-.218.223-.297a.36.36 0 0 1 .193-.052c.117.005.231.041.33.105.404.275.695.688.816 1.161.066.011.133.011.199 0a2.3 2.3 0 0 0-.911-1.313.72.72 0 0 0-.357-.122c-.128-.008-.255.018-.37.075a.93.93 0 0 0-.284.359c-.063.142-.089.297-.077.451z" class="B"/><path d="M138.976 78.831c-.025.005-.05.005-.074 0l-8.935-5.158c-.017-.01-.032-.023-.044-.038s-.02-.034-.025-.053-.006-.039-.003-.058.01-.038.02-.055a.15.15 0 0 1 .09-.07c.038-.01.079-.006.114.013l8.93 5.163a.15.15 0 0 1 .045.036c.012.015.021.032.027.051a.14.14 0 0 1 .004.058c-.002.019-.009.038-.019.055s-.034.036-.057.046-.049.014-.073.011zm1.082-.628a.12.12 0 0 1-.073 0l-8.935-5.158a.15.15 0 0 1-.044-.038c-.012-.016-.02-.034-.025-.053s-.006-.039-.003-.058.009-.038.02-.055c.019-.033.051-.057.088-.067s.077-.005.111.014l8.935 5.158c.017.009.033.022.045.037s.022.033.027.052a.13.13 0 0 1 .004.059c-.002.02-.009.039-.019.056-.016.018-.036.033-.059.042a.16.16 0 0 1-.072.011zm1.083-.623a.12.12 0 0 1-.073 0l-8.935-5.158a.15.15 0 0 1-.044-.038.16.16 0 0 1-.025-.052c-.005-.019-.007-.038-.004-.057s.008-.038.018-.055.022-.032.038-.043.033-.021.051-.026a.15.15 0 0 1 .058-.004.14.14 0 0 1 .054.018l8.936 5.158a.15.15 0 0 1 .044.038c.011.016.02.034.025.053s.006.039.003.058-.01.038-.02.055-.034.033-.056.042-.046.013-.07.01zm1.083-.627a.18.18 0 0 1-.073 0l-8.935-5.169c-.017-.009-.033-.021-.045-.036s-.022-.032-.027-.051a.14.14 0 0 1-.005-.058c.003-.019.009-.038.019-.054a.15.15 0 0 1 .038-.046c.015-.012.033-.022.052-.027s.039-.007.059-.004a.15.15 0 0 1 .055.019l8.935 5.158c.018.01.032.023.044.038a.15.15 0 0 1 .026.052c.005.018.006.039.003.058s-.01.038-.02.055-.033.037-.055.048a.14.14 0 0 1-.071.015zm1.083-.622c-.025.007-.053.007-.078 0l-8.935-5.158c-.017-.01-.032-.023-.044-.039s-.02-.033-.025-.052-.006-.039-.003-.058.009-.038.019-.055.023-.031.039-.043.034-.02.053-.025.038-.006.058-.003.038.009.054.019l8.935 5.137c.034.021.058.053.068.092s.004.078-.015.113a.15.15 0 0 1-.053.053c-.022.013-.047.02-.073.02zm1.078-.623c-.024.004-.049.004-.073 0l-8.936-5.179c-.033-.021-.057-.053-.067-.091s-.004-.078.015-.113c.009-.017.022-.033.038-.045a.14.14 0 0 1 .052-.027c.019-.005.039-.007.058-.004s.039.009.056.019l8.935 5.179c.034.021.058.053.068.091s.004.078-.015.113c-.016.02-.036.035-.059.045s-.047.014-.072.013zm1.088-.628a.13.13 0 0 1-.073 0l-8.935-5.158a.15.15 0 0 1-.069-.091c-.01-.038-.004-.079.016-.113s.053-.059.092-.068a.15.15 0 0 1 .112.016l8.936 5.158c.033.021.057.053.067.091s.004.078-.015.113a.15.15 0 0 1-.059.042c-.023.009-.048.013-.072.01zm1.078-.622c-.024.005-.049.005-.074 0l-8.935-5.158a.15.15 0 0 1-.044-.038c-.012-.016-.02-.034-.025-.053s-.006-.039-.003-.058.01-.038.02-.055c.02-.034.052-.059.09-.07s.079-.006.114.013l8.93 5.163c.017.009.033.021.045.036s.022.032.027.051a.14.14 0 0 1 .004.057.13.13 0 0 1-.019.054c-.015.02-.035.035-.058.045a.15.15 0 0 1-.072.012zm1.082-.628a.12.12 0 0 1-.073 0l-8.935-5.184c-.017-.01-.032-.022-.043-.038s-.021-.033-.026-.051a.14.14 0 0 1-.004-.058c.002-.019.008-.038.018-.055a.16.16 0 0 1 .038-.044.15.15 0 0 1 .051-.026c.019-.005.039-.006.058-.004a.15.15 0 0 1 .055.018l8.935 5.158c.017.009.033.022.045.037s.022.033.027.052.007.039.004.059-.009.039-.019.056c-.013.023-.032.042-.055.056s-.049.021-.076.022zm1.083-.622a.12.12 0 0 1-.073 0l-8.925-5.179c-.016-.01-.031-.022-.043-.038s-.021-.033-.026-.051a.16.16 0 0 1-.004-.058c.002-.02.009-.038.018-.055a.16.16 0 0 1 .038-.043.15.15 0 0 1 .052-.026c.019-.005.038-.006.057-.004s.038.009.055.018l8.935 5.158a.15.15 0 0 1 .07.09.15.15 0 0 1-.012.114c-.015.024-.036.043-.061.056s-.053.019-.081.017zm1.083-.628a.18.18 0 0 1-.073 0l-8.935-5.163a.13.13 0 0 1-.045-.036c-.013-.015-.022-.032-.027-.051a.14.14 0 0 1-.005-.058.15.15 0 0 1 .019-.054c.02-.034.052-.059.091-.07a.15.15 0 0 1 .113.013l8.935 5.148c.017.01.032.023.044.038s.021.033.026.052.006.039.003.058-.01.038-.02.055-.032.039-.054.051-.047.018-.072.017zm1.083-.622c-.026.007-.053.007-.078 0l-8.936-5.158c-.033-.021-.057-.053-.067-.091s-.004-.078.015-.113c.01-.017.023-.032.039-.044a.14.14 0 0 1 .052-.025c.019-.005.039-.006.058-.003s.038.01.055.02l8.935 5.158c.034.021.058.053.068.091s.004.078-.015.113c-.016.018-.035.032-.057.042s-.045.013-.069.011zm1.078-.623a.23.23 0 0 1-.074 0l-8.935-5.158c-.033-.021-.057-.053-.067-.092a.15.15 0 0 1 .015-.112c.009-.017.022-.033.037-.045s.034-.022.053-.027.039-.007.058-.004.039.009.056.019l8.935 5.158c.034.021.058.053.068.092s.004.078-.016.112c-.015.02-.035.035-.058.045a.15.15 0 0 1-.072.012z" class="L"/><path d="M137.877 79.453c-.024.008-.049.008-.073 0l-9.453-5.467c-.033-.02-.057-.052-.067-.089s-.005-.077.014-.11a.15.15 0 0 1 .038-.045.14.14 0 0 1 .052-.027c.019-.005.039-.007.059-.004s.038.009.055.019l9.448 5.467a.15.15 0 0 1 .046.037c.012.015.021.033.027.052s.007.039.004.059-.009.039-.019.056a.16.16 0 0 1-.131.052z" class="D"/><g class="E J"><path d="M133.368 72.868a1.37 1.37 0 0 0 .46-.471c.061-.032.13-.049.199-.047.261.037.042.136 0 .235s0 .063.047.058c.183-.031.622-.136.523.157-.003.01-.002.022.002.031s.014.017.024.021c.058 0 .304.052.277.115-.002.026 0 .033.004.038.02.017.026.019.033.019a4.3 4.3 0 0 1 .581 0 1.3 1.3 0 0 1 .261.026c.058.073-.036.22-.062.267-.014.021-.015.028-.015.034.006.024.01.03.015.034.099.042.177.099.109.209-.012.02-.014.025-.014.031.006.023.01.027.014.031.246.068.691-.136.759.162.042.178 0 .22.241.204.041 0 .073-.084 0-.084-.241 0-.063-.272-.199-.366s-.461.084-.612 0 .026-.099-.063-.209c0-.026-.084 0-.094-.042s-.037-.037-.047-.037c.003-.022.003-.045 0-.068 0-.047.031-.042.036-.073.058-.272-.387-.209-.565-.225a2.19 2.19 0 0 1-.324 0v-.078c0-.011-.256-.094-.262-.105s.058-.105.027-.162c-.068-.141-.377-.063-.492-.063h-.084c.019-.004.036-.014.049-.028a.09.09 0 0 0 .024-.051c0-.037.027-.058 0-.105s-.089-.089-.162-.099a.62.62 0 0 0-.235.042c.036-.077.049-.162.036-.246-.068-.272-.371-.073-.523 0-.036 0-.052.089 0 .073a1.15 1.15 0 0 1 .351-.099c.141.026.036.241-.047.372l-.178.094c-.142.04-.269.12-.366.23-.074.204.099.262.272.173zm.099-.288l.136-.068a.6.6 0 0 1-.23.241s-.194.073-.136 0a.56.56 0 0 1 .23-.173zm3.756 2.442c-.007.025-.005.032 0 .037.209.068.408-.178.481-.424.079 0 .241-.037.272.084l-.047.131c-.005.021 0 .037.042.042.115 0 .481-.136.424.063-.005.007-.007.015-.007.023a.04.04 0 0 0 .007.024c.099.063.309-.047.335.099 0 .068-.126.131-.053.23s.168.026.236 0 .083-.058.131-.042 0 .047.026.068.026.052.052.068.073 0 .105 0 .052-.042.078-.042a.4.4 0 0 1 .141.037s.21.094.189.058c.031.058-.094.152-.032.241s.372 0 .461 0 .073-.089 0-.089h-.215c-.188-.079-.136-.136-.104-.23s0-.058-.032-.052c-.125 0-.214-.115-.308-.115-.052.016-.103.036-.152.057-.147 0-.079-.047-.079-.146-.008-.022-.012-.027-.017-.03-.024-.005-.03-.004-.035-.002-.084.031-.303.204-.309 0 0-.031.089-.084.1-.126s-.032-.12-.121-.141c-.062-.004-.124.005-.183.026-.23.037-.036 0-.115-.063a.22.22 0 0 0-.098-.063c-.038-.012-.078-.014-.116-.005a.84.84 0 0 1-.152 0c-.125-.031-.042 0-.047-.084s.047-.099 0-.162-.099-.105-.204-.084a.76.76 0 0 0-.204.068c0-.167-.026-.309-.188-.303-.047 0-.084.079-.027.084s.116.157.079.288c-.11.146-.303.314-.314.476zm.204-.152a.52.52 0 0 1 .147-.147v.058c-.048.031-.189.209-.147.089z" class="J"/><path d="M134.592 76.07a1.35 1.35 0 0 0 .455-.471.42.42 0 0 1 .204-.047c.261.037.042.136 0 .235-.004.008-.005.016-.004.024s.005.016.011.022.013.011.021.013.016.001.024-.001c.183-.031.623-.136.523.157-.01.017-.011.021-.011.026.005.019.008.023.011.026.053 0 .304.052.278.115-.003.026-.001.033.003.038.02.017.027.019.033.019a4.26 4.26 0 0 1 .576 0c.089 0 .179.009.266.026.058.073-.036.22-.062.267-.014.021-.015.028-.015.034.006.024.01.03.015.034.099.042.172.099.11.209-.013.02-.015.025-.015.031.007.023.01.027.015.031.251.068.69-.136.763.162.042.178 0 .22.241.204.037 0 .068-.084 0-.084-.235 0-.063-.272-.199-.366s-.46.084-.607 0 0-.099-.062-.209c0 0-.084 0-.1-.042s.037-.031.037-.031c.003-.022.003-.045 0-.068 0-.047.026-.042.031-.073.063-.272-.382-.209-.56-.225a2.22 2.22 0 0 1-.324 0v-.079c0-.01-.262-.094-.267-.105s.058-.105.032-.162c-.074-.141-.382-.063-.492-.063h-.084c.019-.004.036-.014.049-.028a.09.09 0 0 0 .024-.051c0-.037.027-.058 0-.105s-.094-.089-.167-.099a.65.65 0 0 0-.235.042c.039-.076.051-.162.036-.246-.063-.272-.366-.073-.523 0-.036 0-.047.089 0 .073s.262-.115.345-.099.037.241-.047.371l-.172.094a.77.77 0 0 0-.367.23c-.141.199.037.256.21.167zm.099-.288l.136-.068a.64.64 0 0 1-.23.241s-.194.073-.141 0a.55.55 0 0 1 .235-.173zm-3.463-1.706c0 .008.003.016.008.022s.011.011.018.014c.215.063.408-.183.481-.429.079 0 .246-.037.273.089-.018.041-.032.083-.042.126 0 .026 0 .037.036.042.115 0 .482-.136.424.063a.04.04 0 0 0-.007.024c0 .008.002.017.007.023.094.063.303-.047.335.099 0 .068-.131.136-.052.23s.162 0 .235 0 .084-.063.131-.047 0 .047 0 .068.031.058.052.068.073 0 .11 0 .047-.042.073-.042a.62.62 0 0 1 .147.037s.204.094.183.058c.031.058-.094.157-.032.241s.377 0 .461 0 .078-.089 0-.089-.21.031-.215.026c-.183-.079-.136-.136-.099-.225s0-.063-.037-.058c-.125 0-.209-.115-.308-.115s-.131.058-.152.058c-.147 0-.073-.042-.079-.146-.008-.022-.012-.027-.017-.03-.024-.005-.03-.004-.035-.002-.084.031-.303.204-.309 0 0 0 .095-.084.1-.126s-.032-.12-.115-.141c-.063-.004-.125.004-.183.026-.236.037-.037 0-.116-.063-.027-.029-.062-.051-.101-.063s-.079-.014-.118-.005a.49.49 0 0 1-.147 0c-.13-.031-.042 0-.047-.084s.047-.099.026-.162-.104-.105-.209-.084c-.068.016-.135.038-.199.068 0-.167-.031-.309-.193-.303-.042 0-.084.079-.026.089s.115.157.083.282c-.141.126-.329.293-.345.46zm.204-.157a.52.52 0 0 1 .152-.146c-.007.021-.018.04-.032.058-.021.047-.162.215-.12.089zm8.538-4.698c.187-.118.344-.279.455-.471.062-.035.133-.052.204-.047.261.037.042.136 0 .235-.002.007-.002.015 0 .023s.006.014.011.02.011.01.019.013.014.003.022.002c.183-.031.623-.141.523.157-.004.022-.002.028 0 .033.015.016.021.019.026.02.053 0 .304.052.278.115 0 .024.002.03.006.035.018.015.024.017.03.018a5.32 5.32 0 0 1 .576 0 1.99 1.99 0 0 1 .266.031c.058.068-.036.22-.062.267-.013.02-.014.025-.014.031.006.023.009.028.014.031.099.047.172.105.11.209-.014.021-.015.028-.015.034.006.024.01.03.015.034.251.068.69-.136.763.157.042.183 0 .225.241.204.037 0 .068-.078 0-.078-.235 0-.063-.272-.199-.366s-.46.084-.607 0 0-.105-.062-.209-.084 0-.1-.042-.036-.037-.042-.037c.004-.022.004-.046 0-.068 0-.047.026-.042.032-.073.062-.277-.382-.209-.56-.225h-.324c-.032 0 0-.068 0-.078s-.262-.099-.267-.11.063-.099.031-.157c-.073-.141-.382-.068-.492-.063h-.083c.018-.002.036-.011.049-.024s.022-.031.024-.049c0-.037.026-.058 0-.11s-.089-.089-.167-.094a.56.56 0 0 0-.236.042.35.35 0 0 0 .037-.246c-.063-.272-.366-.073-.523 0-.037 0-.047.094 0 .079s.261-.12.345-.105.037.246-.047.377l-.173.089a.78.78 0 0 0-.366.235c-.089.194.089.251.262.162zm.099-.288l.136-.073a.69.69 0 0 1-.23.246s-.194.068-.141 0a.52.52 0 0 1 .235-.173zm3.751 2.444c0 .008.003.016.008.022s.011.012.018.015c.214.068.408-.183.481-.429.079 0 .246-.031.278.089-.019.041-.034.083-.048.126.003.021.006.025.009.029.018.011.023.013.028.013.12 0 .487-.136.424.068-.005.006-.008.013-.008.021s.003.015.008.021c.094.068.303-.042.335.105 0 .063-.131.131-.053.23s.168 0 .236 0 .083-.063.13-.047 0 .052 0 .073.032.052.058.068.068 0 .105 0 .047-.037.073-.042a.61.61 0 0 1 .146.042s.204.094.183.058c.032.052-.088.152 0 .235s.372 0 .456 0 .078-.094.026-.089h-.22c-.183-.084-.136-.136-.099-.23.004-.006.006-.013.007-.02s-.002-.015-.006-.021-.01-.011-.016-.014-.015-.004-.022-.002c-.126 0-.209-.115-.303-.11a1.16 1.16 0 0 0-.152.058c-.152 0-.079-.047-.084-.147-.008-.022-.012-.027-.017-.03-.023-.008-.029-.008-.035-.006-.084.031-.298.209-.304 0 0 0 .089-.084.095-.126s-.032-.12-.115-.136a.53.53 0 0 0-.184 0c-.235.042-.036 0-.115-.058s-.089-.073-.219-.068h-.147c-.125-.037-.042 0-.047-.084s.047-.099 0-.162-.105-.105-.209-.084c-.069.013-.136.036-.199.068 0-.173-.031-.314-.194-.309-.041 0-.083.084-.026.089s.115.157.084.288c-.162.167-.35.335-.366.497zm.204-.152c.037-.062.089-.114.152-.152-.007.021-.018.04-.032.057-.016.037-.162.215-.12.094z" class="J"/><path d="M141.194 72.422a1.42 1.42 0 0 0 .455-.471.36.36 0 0 1 .199-.047c.261.037.041.136 0 .235-.003.007-.005.015-.003.022a.04.04 0 0 0 .027.034c.007.003.015.003.023.001.183-.031.622-.141.523.157-.01.016-.011.021-.011.026.005.019.007.023.011.026.057 0 .308.052.277.115 0 .024.003.03.006.035.019.015.025.017.031.018a5.61 5.61 0 0 1 .58 0 1.78 1.78 0 0 1 .262.031c.057.068-.037.22-.063.267-.016.019-.018.025-.018.031.008.024.013.028.018.031.094.047.173.105.105.209-.013.021-.015.028-.015.034.007.024.01.03.015.034.246.068.69-.136.758.157.047.183 0 .225.241.204.042 0 .073-.078 0-.078-.241 0-.063-.272-.199-.366s-.46.084-.612 0 0-.105-.057-.209c-.027 0-.084 0-.1-.042s-.036-.037-.042-.037 0-.026 0-.068.032-.042.037-.073c.057-.277-.382-.209-.565-.225h-.324c-.037 0 0-.068 0-.079s-.257-.099-.262-.11.058-.099.026-.157c-.068-.141-.376-.068-.492-.063h-.083c.019-.002.037-.01.051-.023s.024-.031.027-.05v-.11c0-.052-.089-.089-.162-.094a.52.52 0 0 0-.235.042c.036-.076.049-.162.036-.246-.068-.272-.371-.073-.523 0-.036 0-.047.094 0 .078s.256-.12.345-.105.037.246-.047.377l-.178.089c-.141.042-.269.124-.366.235-.047.194.131.251.304.162zm.094-.288l.136-.073a.61.61 0 0 1-.23.246s-.189.068-.136 0a.52.52 0 0 1 .23-.173zm-3.458-1.71s0 .031.026.037c.209.068.408-.178.482-.424.078 0 .245-.037.272.084l-.048.131c-.005.021 0 .037.042.042.115 0 .482-.141.424.063-.004.007-.006.015-.006.023s.002.016.006.024c.099.063.309-.047.335.099 0 .063-.126.131-.052.23s.167 0 .235 0 .084-.063.131-.042 0 .047.026.068.026.052.052.068.073 0 .105 0 .052-.037.078-.037a.41.41 0 0 1 .142.037s.209.094.188.058c.031.052-.094.152-.032.235s.372 0 .461 0 .073-.089 0-.089l-.215.026c-.188-.078-.136-.136-.104-.23s0-.058-.032-.052c-.125 0-.214-.115-.308-.115a1.58 1.58 0 0 0-.152.058c-.146 0-.078-.047-.078-.147-.009-.022-.013-.027-.018-.03-.023-.005-.029-.004-.035-.002-.083.031-.303.204-.308 0 0-.031.088-.084.099-.131s-.031-.12-.12-.136c-.061-.013-.123-.013-.183 0-.231.037-.037 0-.116-.063s-.088-.073-.214-.068h-.152c-.125-.037-.042 0-.047-.084s.047-.099.026-.162-.099-.105-.204-.084a.78.78 0 0 0-.204.068c0-.173-.026-.309-.188-.303-.047 0-.084.078-.026.084s.115.157.083.288c-.167.147-.36.314-.371.476zm.204-.152c0-.037.079-.094.147-.146l-.027.058c-.005.031-.162.209-.12.089z" class="J"/><path d="M140.514 74.625a1.42 1.42 0 0 0 .455-.471c.062-.035.133-.052.204-.047.261.037.042.136 0 .235-.004.008-.005.016-.004.024s.005.016.011.022.012.011.021.013.016.001.024-.001c.183-.031.623-.141.523.157v.052c0 .005.309.052.283.115-.003.025-.001.032.003.037.02.015.027.016.033.015h.576a1.99 1.99 0 0 1 .267.031c.057.073-.037.22-.068.267-.013.02-.015.026-.015.031.007.023.01.028.015.031.099.047.172.105.11.209-.014.021-.015.028-.015.034.006.024.01.03.015.034.251.068.69-.136.763.157.042.183 0 .225.241.209.037 0 .068-.084 0-.084-.235 0-.063-.272-.199-.366s-.46.084-.607 0 0-.099-.062-.209c0 0-.084 0-.1-.042s-.036-.037-.042-.037c.004-.023.004-.046 0-.068 0-.047.026-.042.032-.073.057-.277-.382-.209-.56-.225a2.3 2.3 0 0 1-.33 0v-.078c0-.01-.261-.099-.266-.11s.057-.099.031-.157c-.073-.141-.382-.068-.492-.063h-.089c.02-.002.038-.01.052-.023s.023-.031.027-.05a.23.23 0 0 0 0-.105c0-.089-.094-.094-.168-.099-.08-.003-.161.011-.235.042a.39.39 0 0 0 .037-.246c-.063-.272-.367-.073-.524 0-.036 0-.047.089 0 .073s.262-.12.346-.105.036.246-.047.377l-.173.089c-.141.044-.268.125-.366.235-.058.199.12.256.293.167zm.099-.288l.131-.068c-.054.098-.131.181-.225.241 0 0-.194.068-.141 0a.58.58 0 0 1 .235-.173zm-2.893-1.506c.001.008.003.016.008.022s.011.012.018.014c.215.068.408-.183.482-.429.078 0 .245-.031.272.089-.017.041-.031.083-.042.125 0 .026 0 .037.036.042.115 0 .482-.136.424.068-.004.006-.006.013-.006.021s.002.015.006.021c.094.068.303-.042.335.099s-.131.136-.052.235.162 0 .235 0 .084-.063.131-.047 0 .047 0 .073.031.052.052.068.073 0 .11 0 .047-.042.073-.042a.6.6 0 0 1 .147.042s.204.094.183.058c.031.052-.094.152-.032.235s.377 0 .461 0 .078-.094 0-.094l-.215.031c-.183-.084-.136-.136-.099-.23.002-.026 0-.033-.004-.038-.02-.017-.026-.019-.033-.019-.125 0-.209-.115-.308-.11s-.131.058-.152.052c-.147 0-.073-.042-.079-.146s0-.037-.052-.031-.303.204-.309 0c0-.026.095-.084.1-.126s-.032-.12-.115-.141a.52.52 0 0 0-.183 0c-.236.037-.037 0-.115-.063a.22.22 0 0 0-.102-.062c-.039-.011-.079-.011-.118-.001a.72.72 0 0 1-.147 0c-.13-.031-.042 0-.047-.079s.047-.099.026-.167-.104-.099-.209-.084a1.01 1.01 0 0 0-.199.068c0-.167-.031-.309-.193-.303-.042 0-.084.078 0 .089s.115.157.084.288c-.168.136-.356.309-.372.471zm.204-.157c.04-.059.092-.108.152-.146-.007.021-.018.04-.032.057-.02.037-.162.215-.12.089zm-2.281-1.91c.019.086.019.175 0 .261 0 .011.005.022.012.03s.019.012.03.012c.115 0 .481-.136.424.068-.004.006-.006.014-.006.021s.002.015.006.021c.099.068.308-.042.335.105 0 .063-.126.131-.053.23s.168 0 .236 0 .083-.063.13-.047 0 .047.027.073.026.052.052.068.073 0 .105 0 .052-.042.078-.042a.55.55 0 0 1 .141.042s.21.094.189.058c.031.052-.095.152-.032.235s.372 0 .461 0 .073-.094 0-.094l-.215.031c-.188-.084-.136-.136-.105-.23s0-.057-.031-.057c-.125 0-.214-.115-.309-.11s-.136.058-.151.052c-.147 0-.079-.042-.079-.147 0 0-.031-.037-.052-.031s-.303.209-.309 0c0-.026.089-.084.1-.126s-.032-.12-.121-.141a.54.54 0 0 0-.183.026c-.23.037-.036 0-.115-.058s-.089-.073-.214-.068h-.152c-.126-.037-.042 0-.047-.084s.047-.099.026-.167-.167-.167-.204-.042c-.005.015-.005.032 0 .047.005.022.014.044.026.063z" class="J"/></g><path opacity=".05" d="M123.758 133.874c-.25.004-.497-.055-.717-.172l-11.964-6.906a.59.59 0 0 1-.364-.549c0-.117.034-.232.099-.33s.157-.174.265-.219l2.134-1.23-1.046-.591c-.104-.051-.193-.129-.257-.225s-.102-.209-.109-.324c.01-.112.049-.219.113-.31s.152-.166.253-.213l17.614-10.186a1.53 1.53 0 0 1 1.433 0l11.964 6.906a.63.63 0 0 1 .253.213.65.65 0 0 1 .114.31.66.66 0 0 1-.109.324c-.064.097-.153.174-.258.225l-2.134 1.235 1.02.591a.63.63 0 0 1 .254.212c.064.092.103.199.112.311a.65.65 0 0 1-.106.323c-.064.097-.151.175-.255.226l-17.608 10.165c-.212.129-.453.203-.701.214z" class="C"/><path d="M142.214 122.062c-.007-.074-.034-.146-.078-.207s-.104-.108-.173-.138l-11.959-6.91a1.34 1.34 0 0 0-.602-.142 1.33 1.33 0 0 0-.601.142l-17.609 10.164c-.068.032-.126.081-.169.143a.43.43 0 0 0-.077.208v.523a.42.42 0 0 0 .246.345l11.964 6.905a1.31 1.31 0 0 0 1.203 0l17.604-10.164c.068-.029.128-.076.172-.136a.42.42 0 0 0 .079-.204v-.529z" class="L"/><path d="M111.192 124.971l17.609-10.164a1.33 1.33 0 0 1 .601-.142 1.34 1.34 0 0 1 .602.142l11.959 6.91c.074.023.138.068.184.131a.36.36 0 0 1 0 .429c-.046.062-.11.108-.184.131l-17.604 10.164a1.31 1.31 0 0 1-1.203 0l-11.964-6.905c-.073-.024-.137-.071-.182-.133s-.07-.138-.07-.215.024-.152.07-.215.109-.109.182-.133z" class="N"/><path d="M123.758 132.718v.524a1.19 1.19 0 0 1-.602-.142l-11.959-6.91a.42.42 0 0 1-.173-.139c-.044-.06-.071-.132-.078-.207v-.523a.43.43 0 0 0 .079.207c.044.061.103.108.172.139l11.959 6.905a1.19 1.19 0 0 0 .602.146z" class="Q"/><path d="M143.328 119.143a.42.42 0 0 0-.078-.207.41.41 0 0 0-.173-.138l-11.964-6.906c-.186-.095-.393-.145-.602-.145a1.32 1.32 0 0 0-.601.145l-17.604 10.165c-.069.03-.129.077-.173.138a.42.42 0 0 0-.078.207v.523c.008.075.036.146.08.206a.43.43 0 0 0 .171.14l11.964 6.905c.186.095.393.145.602.145a1.32 1.32 0 0 0 .601-.145l17.604-10.165c.067-.03.126-.078.17-.137a.43.43 0 0 0 .081-.203v-.528z" class="L"/><path d="M112.306 122.057l17.604-10.165a1.32 1.32 0 0 1 .601-.145c.209 0 .416.05.602.145l11.964 6.906c.073.024.137.07.182.133s.07.137.07.215-.025.152-.07.214-.109.109-.182.133l-17.604 10.165c-.186.093-.392.141-.601.141a1.35 1.35 0 0 1-.602-.141l-11.964-6.911a.37.37 0 0 1-.177-.133c-.044-.062-.067-.136-.067-.212a.36.36 0 0 1 .067-.211c.044-.062.106-.109.177-.134z" class="N"/><path d="M124.872 129.8v.523a1.21 1.21 0 0 1-.607-.146l-11.959-6.88c-.068-.031-.127-.08-.17-.141s-.07-.134-.076-.209v-.523c.005.075.031.146.074.207s.103.109.172.138l11.959 6.911a1.27 1.27 0 0 0 .607.12z" class="Q"/><path opacity=".01" d="M164.829 110.9a1.41 1.41 0 0 1-.685-.168l-19.252-11.116c-.122-.064-.225-.158-.299-.273a.79.79 0 0 1-.124-.386c.002-.138.039-.273.109-.392s.169-.218.288-.288l15.898-10.107c.219-.125.466-.193.718-.198s.502.052.726.167l5.723 3.311a1.05 1.05 0 0 1 .475.605c.076.255.052.528-.067.766l-.23.455c-.022.042-.027.091-.014.136a.19.19 0 0 0 .082.11l11.54 6.717c.124.061.23.155.304.272a.76.76 0 0 1 .118.39c.002.138-.033.275-.103.394s-.171.218-.293.283l-14.161 9.119c-.227.137-.488.208-.753.204z" class="C"/><use xlink:href="#P" class="D"/><use xlink:href="#P" opacity=".04" class="E"/><path d="M144.427 97.8l16.217-10.321c.16-.089.34-.136.524-.136s.363.047.523.136l5.843 3.374c.137.082.238.213.283.366a.64.64 0 0 1-.042.46l-.236.466a.64.64 0 0 0-.042.461c.045.153.146.284.283.366l11.776 6.853a.33.33 0 0 1 .153.123c.038.056.058.121.058.188a.33.33 0 0 1-.058.188c-.037.056-.091.099-.153.123l-14.465 9.286a1.04 1.04 0 0 1-.501.143c-.177.005-.352-.036-.509-.117l-19.654-11.341c-.063-.023-.117-.066-.155-.121s-.059-.121-.059-.188.021-.133.059-.188.092-.097.155-.121z" class="D"/><path d="M149.6 86.411l-18.241 10.51 2.192 1.266 18.116-10.583" class="C G"/><path d="M151.379 86.956l2.171-2.579c.013-.017.021-.037.022-.058s-.004-.042-.015-.06-.026-.033-.045-.041-.041-.012-.061-.008l-3.312.732 1.24 2.014z" class="M"/><path d="M153.466 84.183l-3.311.732.654 1.046.356-.215 2.312-1.46-.011-.105z" class="H"/><path d="M153.451 84.183c.02-.003.042 0 .061.008s.035.023.045.041.016.039.015.06-.009.041-.022.058l-.424.523a.56.56 0 0 0-.098-.291c-.059-.086-.141-.154-.236-.196l-.053-.026.712-.178z" class="B"/><path d="M135.162 93.955l.267-.162.319-.199 14.391-8.679c.372.081.699.299.916.612.162.191.276.418.332.662a1.57 1.57 0 0 1-.008.74l-14.386 8.679-.612.371c.382-.267-.848-2.286-1.219-2.024z" class="F"/><path d="M135.162 93.955l.267-.162.319-.199 14.391-8.679c.224.052.434.152.615.294a1.57 1.57 0 0 1 .431.527l-15.008 9.16v.058c-.325-.575-.801-1.146-1.015-.999z" class="E"/><path d="M136.177 93.338l.596-.361c.168-.11.523.194.795.596.393.523.639 1.287.419 1.433l-.445.267-.157.094c.225-.147 0-.905-.413-1.439-.282-.387-.602-.68-.779-.602l-.016.011z" class="L"/><path d="M136.323 93.233c.393-.256 1.606 1.773 1.214 2.03l-.596.361c.392-.256-.822-2.286-1.214-2.03l.596-.361z" class="F"/><path d="M135.162 93.956l.586-.361c.387-.251 1.569 1.7 1.245 2.014l-.597.356c.367-.251-.863-2.27-1.234-2.009z" class="L"/><path d="M153.555 84.225c-.01-.013-.022-.023-.037-.03s-.03-.011-.046-.012c.016 0 .032.004.046.012s.027.018.037.03z" class="H"/><path d="M132.661 95.467l2.501-1.512c.167-.11.497.183.79.581.398.523.649 1.292.429 1.444l-2.506 1.517c-.523.303-1.234-.638-1.391-1.371-.04-.115-.045-.239-.013-.357a.61.61 0 0 1 .19-.302z" class="M"/><path d="M133.441 95.718c.209.189.371.424.474.686a1.82 1.82 0 0 1 .122.826.41.41 0 0 1-.23.303c-.523.162-1.161-.712-1.308-1.407-.038-.113-.042-.235-.011-.35s.094-.219.184-.298c.167-.115.46-.037.769.241z" class="C G"/><path d="M173.68 165.342c0-.084.497-5.122.497-5.122s-.361.523-3.264.257c-1.104-.137-2.191-.387-3.244-.748l-.193 3.661c-.523 1.481-3.071 1.277-5.817 1.434l-1.418.031h-.026c-1.47.168-2.778 1.292-1.047 2.271s4.295 1.046 6.66 1.046c2.846.016 7.826-.005 7.852-2.83z" class="K"/><path d="M167.136 163.919c-.91.889-3.139.764-5.477.894-2.213.126-4.787-.219-6.179.524s-1.627 2.49.749 4.378c.663.619 1.405 1.146 2.207 1.57 2.49.978 5.106.47 6.769.591 2.166.157 3.458.879 5.415.774 2.532-.136 3.997-1.046 4.311-1.779s-.199-6.157-1.246-5.864c0 0-.151 1.81-4.498.821-1.899-.402-2.056-1.506-2.051-1.909z" class="F"/><path d="M158.436 171.295s-.842-5.629 2.339-6.456h.413s-.063-.381-1.324-.481c-2.417-.188-3.939.115-4.959 1.156-.3.368-.514.799-.623 1.261a3.14 3.14 0 0 0-.01 1.407c.314 1.078 1.559 2.328 4.164 3.113zm2.302-3.321s-.157-2.302 1.412-3.186c.138-.094.3-.147.466-.154a.89.89 0 0 1 .476.117s-1.512.492-1.569 3.228c0 0-.053.188-.398.188-.115-.005-.371-.005-.387-.193zm3.808-3.291s0-.073-.418-.078c-.16-.01-.318.034-.45.125 0 0-1.151.754-.984 3.139.031.093.092.174.173.228a.43.43 0 0 0 .277.07.34.34 0 0 0 .142-.005c.046-.011.09-.032.127-.061a.34.34 0 0 0 .134-.242s-.167-2.511.999-3.176zm1.329-.178s-.094-.131-.387-.079c-.371.063-.429.22-.429.22s-.732 1.046-.408 3.04c0 0 0 .34.492.292s.34-.413.34-.413-.251-2.537.392-3.06z" fill="#fafafa"/><path d="M167.214 132.787c-.209 5.043-.036 28.479-.036 28.479s3.091 2.616 6.999 1.256l2.428-26.915-9.391-2.82z" class="F"/><g class="E"><path d="M154.931 142.58c-.591 5.231-1.145 20.329-1.533 27.878a10.42 10.42 0 0 0 7.534.837l5.377-27.114-11.378-1.601zm33.836 61.856c-.167-.002-.326-.069-.444-.188a.63.63 0 0 1-.183-.445v-40.47a.63.63 0 0 1 .03-.259.62.62 0 0 1 .133-.225c.059-.065.131-.117.212-.153s.167-.053.255-.053.175.018.256.053a.63.63 0 0 1 .374.637v40.491c-.005.164-.074.319-.192.434a.63.63 0 0 1-.441.178zm25.053-14.743c-.126.001-.249-.037-.354-.108a.63.63 0 0 1-.232-.289l-12.413-31.43a.63.63 0 0 1 .008-.48c.065-.153.188-.274.342-.336a.63.63 0 0 1 .483.009.64.64 0 0 1 .338.346l12.414 31.43c.031.077.047.159.046.242s-.019.165-.052.241a.62.62 0 0 1-.349.333c-.074.03-.152.044-.231.042z"/><path d="M212.329 185.922c-.085 0-.17-.018-.248-.052s-.149-.084-.207-.147l-23.107-24.451-23.065 24.346a.62.62 0 0 1-.199.153.63.63 0 0 1-.244.062.62.62 0 0 1-.248-.039c-.08-.029-.152-.075-.214-.133s-.11-.128-.144-.206-.051-.161-.051-.246.016-.168.049-.246.08-.149.141-.208l23.541-24.833a.61.61 0 0 1 .208-.144.6.6 0 0 1 .247-.049.6.6 0 0 1 .251.051.62.62 0 0 1 .21.147l23.541 24.933c.078.09.129.201.147.32a.64.64 0 0 1-.047.348.63.63 0 0 1-.226.27c-.099.067-.215.105-.335.108v.016z"/><path d="M163.715 189.694c-.079.002-.157-.012-.231-.042s-.147-.075-.207-.132-.107-.126-.14-.202a.62.62 0 0 1-.052-.24.61.61 0 0 1 .044-.242l12.419-31.43a.62.62 0 0 1 .133-.207c.057-.059.125-.107.201-.14s.158-.051.24-.052.165.013.242.043.147.076.207.133a.63.63 0 0 1 .14.202.62.62 0 0 1 .052.24.63.63 0 0 1-.043.242l-12.414 31.429c-.047.119-.128.22-.234.291a.63.63 0 0 1-.357.107z"/></g><g class="D"><path d="M163.411 149.423c-.45-2.537 1.617-4.52 5.509-7.146a91.82 91.82 0 0 1 11.284-6.34c3.254-1.497 6.586-1.355 10.755.784 5.797 2.977 23.227 13.549 23.227 13.549s-26.062 14.716-31.079 14.057-17.546-8.809-18.54-11.681l-1.156-3.223z"/><path d="M185.629 161.241c-3.746 3.39-7.654.471-13.842-3.542-7.005-4.546-8.37-8.265-8.37-8.265s0 2.788.523 4.096 1.653 2.783 6.701 6.277 8.71 5.232 12.105 5.87l2.679-.372"/></g><path d="M171.787 157.688c-7.005-4.546-8.37-8.265-8.37-8.265s0 2.788.523 4.096 1.653 2.783 6.701 6.278 8.71 5.231 12.105 5.869l2.679-.371.209-4.055c-3.751 3.38-7.659.461-13.847-3.552z" class="C I"/><path d="M206.01 139.352l-24.546-7.323c-3.62-1.015-10.609-2.674-12.644-1.763s-3.076 1.972-3.259 4.912c-.042.554 0 3.243 0 3.243s10.588 4.311 18.87 4.311 21.579-3.38 21.579-3.38z" class="F"/><path d="M206.078 136.732c1.313 4.478 1.726 8.857-1.412 12.085-2.276 2.348-11.729 10.729-20.01 8.192-9.26-2.841-20.314-10.876-20.314-10.876s-7.146.22-7.182-1.878c0-.523-2.26-1.151-2.234-1.706.293-6.162 4.436-8.725 10.614-7.606 6.482 1.177 20.978 5.31 20.978 5.31l19.56-3.521z" class="E"/><path d="M195.736 155.372l3.421-12.911-8.543 2.694c-1.768 5.587-2.657 8.616-7.067 7.899s-19.205-6.921-19.205-6.921 11.054 8.036 20.314 10.876c3.714 1.135 7.648.084 11.08-1.637z" class="F I"/><path d="M204.195 103.806c2.825-.633 5.895 1.412 7.648 5.854s5.927 15.432 6.644 18.393c.319 1.329-10.568 13.251-10.207 13.079.11-.053-3.196-5.755-3.196-5.755l5.535-7.376-3.51-8.245-2.914-15.95z" class="K"/><path d="M203.389 103.361c2.532-.058 5.592.413 7.596 4.185 2.492 4.621 4.479 9.497 5.927 14.543 0 0-7.685 5.399-12.613 3.583l-.91-22.311z" class="E"/><path d="M192.403 100.296l1.35 8.506 7.664-.382-.895-9.955-8.119 1.831z" class="K"/><path d="M209.515 107.98c-.706-2.323-3.222-4.682-6.215-4.614l-2.333.047c-.35 1.433-3.976 3.029-7.732 2.145l-3.113.915c-2.699.895-5.189 3.139-5.608 11.959l-1.171 24.195c3.829 4.87 13.151 4.185 17.033 3.447 8.088-1.569 9.348-5.916 9.348-5.916l.34-21.151c-.083-5.425-.062-9.432-.549-11.027z" class="O"/><path d="M186.727 89.854s-2.009 3.05-1.778 3.353 1.705.57 1.705.57l.073-3.924z" class="P"/><path d="M192.314 81.415c-4.07.858-5.231 2.647-5.629 9.108-.402 6.759.288 8.893 1.177 9.788.597.617 3.929.727 5.608.261 2.093-.58 6.848-2.26 9.072-5.66 2.615-3.997 3.306-9.416.523-11.635-3.96-3.123-9.098-2.213-10.751-1.862z" class="K"/><g class="B"><path d="M185.78 84.204a9.26 9.26 0 0 0 3.929 1.235c-.006 1.104.217 2.198.654 3.212.251.717 1.151 2.971 2.051 1.7.648-.916 1.234-1.752 2.521-1.569 2.119.319 2.401 3.019 1.046 4.656s-2.579 1.015-2.579 1.015.068 3.568 1.648 5.587c0 0 1.8.58 5.106-.126 2.035-.434 4.912-2.977 6.121-5.666 2.558-5.697 2.736-10.818-.9-12.356-.392-2.616-2.459-3.803-4.813-4.342-3.264-.748-6.591 1.365-9.762.089-.664-.267-1.281-.654-1.967-.884a1.32 1.32 0 0 0-1.166.031 1.4 1.4 0 0 0-.481.905 2.51 2.51 0 0 0 .167 1.873 5.44 5.44 0 0 0-1.486-.523c-.26-.048-.527-.04-.783.024a1.84 1.84 0 0 0-.702.347 1.93 1.93 0 0 0-.571 1.313 4.01 4.01 0 0 0 1.967 3.479z"/><path d="M205.476 82.771l2.438-1.439c-.201-.3-.51-.513-.863-.593a1.42 1.42 0 0 0-1.035.162c-.311.184-.541.48-.641.828s-.064.72.101 1.042z"/></g><path d="M155.679 121.727c1.308.618 17.128 13.173 19.586 11.886s14.952-16.013 14.952-16.013a10.29 10.29 0 0 0 1.664-5.573c.008-1.979-.556-3.919-1.623-5.586 0 0-4.012.649-6.173 3.762s-11.446 14.234-11.446 14.234l-6.591-3.547-5.378-3.023a6.8 6.8 0 0 1-1.381-.9c-.863-.889-.664-2.998-.623-4.143 0-.524.042-1.047.115-1.601.089-.654.252-2.255-.936-1.774-.227.103-.425.262-.575.461-.192.237-.341.506-.44.795-.24.69-.183 1.449-.403 2.145a.59.59 0 0 1-.151.272.52.52 0 0 1-.377.104c-1.716-.088-3.285-2.532-4.044-3.824a3.52 3.52 0 0 0-1.271-1.517c-.926-.46-2.093.147-2.694.973a5.45 5.45 0 0 0-.937 3.762c.114 1.803.872 3.505 2.135 4.797 1.934 1.803 4.164 3.261 6.591 4.31z" class="K"/><path d="M191.551 106.022c-1.638.152-4.358.215-7.089 3.171-3.191 3.452-7.423 9.118-7.423 9.118.382 1.704 1.248 3.263 2.493 4.488s2.817 2.067 4.527 2.422c0 0 5.755-5.623 7.376-8.752s1.999-8.27.116-10.447z" class="E"/><path d="M185.42 165.285c2.129-.105 3.798-1.669 8.861-3.782 9.354-3.898 16.369-7.016 19.043-11.912s4.566-19.042 3.897-25.168c-.065-.693-.218-1.375-.455-2.03l.654-.099-1.701-1.449c-1.752-1.428-4.593-.157-6.738 1.009-6.125 3.333-10.912 6.571-14.7 18.263-2.845 8.794-4.708 16.819-8.652 21.108" class="D"/><path opacity=".3" d="M216.766 122.393l.654-.099-1.701-1.449c-1.752-1.428-4.593-.157-6.738 1.009-6.125 3.333-10.912 6.571-14.7 18.263-2.845 8.794-4.708 16.819-8.652 21.108l-.209 4.055c2.129-.105 3.798-1.669 8.861-3.783 9.354-3.897 16.369-7.015 19.043-11.911s4.566-19.042 3.897-25.168c-.066-.692-.219-1.372-.455-2.025z" class="C"/><path d="M210.755 123.366c-6.121 3.332-10.913 6.57-14.695 18.262s-5.859 22.024-13.319 24.028c0 0 3.374 1.339 13.711-3.035 3.291-1.386 7.277-3.923 9.903-5.398 5.137-2.883 8.25-5.232 8.742-6.131 2.72-4.876 4.567-19.037 3.897-25.163s-5.168-4.232-8.239-2.563z" class="D"/><path d="M73.804 163.088c.523 1.418 2.998 1.161 5.655 1.245 2.145.068 4.624-.33 5.985.377s1.637 2.369-.617 4.253c-2.814 2.349-6.539 2.092-8.626 2.291s-3.322.936-5.231.879c-2.454-.073-3.892-.916-4.211-1.622s.047-5.953 1.046-5.697c0 0-.105-.162 3.495-.287 2.574-.084 2.506-1.439 2.506-1.439z" class="B"/><path d="M67.871 165.127c0-.079-.602-4.938-.602-4.938s.099-.424 3.019-.524c1.433-.047 3.107-1.245 3.264-.109s.272 3.531.272 3.531c.523 1.417 2.998 1.161 5.655 1.245h1.371.026c1.423.131 2.715 1.182 1.046 2.171s-4.128 1.093-6.414 1.166c-2.752.089-7.549.194-7.638-2.542z" class="H"/><use xlink:href="#Q" class="D"/><use xlink:href="#Q" opacity=".023" class="C"/><path d="M86.987 141.393c.623 5.487.46 24.665.523 30.524a12.25 12.25 0 0 1-6.707.042s-4.755-20.585-4.4-26.449c.188-2.789 10.583-4.117 10.583-4.117z" class="D"/><g class="E"><path d="M52.973 203.341a.63.63 0 0 0 .448-.185c.119-.119.185-.28.185-.448v-40.49a.63.63 0 0 0-.163-.484.64.64 0 0 0-.467-.207.64.64 0 0 0-.468.207.63.63 0 0 0-.163.484v40.49a.63.63 0 0 0 .628.633zM27.92 188.599c.127.001.25-.036.355-.107a.62.62 0 0 0 .231-.29l12.419-31.43a.63.63 0 0 0-.009-.482c-.033-.076-.081-.144-.14-.202a.63.63 0 0 0-.207-.132c-.077-.031-.159-.045-.242-.044a.64.64 0 0 0-.24.053.62.62 0 0 0-.334.346l-12.419 31.43c-.03.077-.046.159-.044.242a.64.64 0 0 0 .052.24.63.63 0 0 0 .347.334c.073.029.152.043.23.042z"/><path d="M29.41 184.828c.086 0 .171-.018.251-.052a.63.63 0 0 0 .21-.147l23.102-24.435 23.065 24.346c.057.06.125.109.2.143s.157.052.239.055.165-.012.242-.041.148-.074.208-.131.109-.124.142-.2.052-.156.055-.239a.63.63 0 0 0-.171-.45l-23.541-24.833c-.06-.062-.131-.11-.21-.144a.65.65 0 0 0-.25-.05.64.64 0 0 0-.248.05c-.078.033-.149.082-.208.144l-23.541 24.938a.63.63 0 0 0-.147.318c-.018.118-.002.239.045.348s.125.203.224.27a.64.64 0 0 0 .333.11z"/><path d="M78.025 188.599a.62.62 0 0 0 .296-.069.63.63 0 0 0 .228-.202c.058-.085.094-.183.105-.286s-.004-.205-.043-.301l-12.414-31.43a.62.62 0 0 0-.334-.346.64.64 0 0 0-.24-.053c-.083-.001-.165.013-.242.044a.63.63 0 0 0-.207.132c-.059.058-.107.126-.14.202a.63.63 0 0 0-.009.482l12.44 31.43a.63.63 0 0 0 .221.282c.099.07.217.11.339.115z"/><path d="M78.329 148.329c.455-2.537-1.617-4.519-5.509-7.146-3.606-2.375-7.375-4.494-11.279-6.34-3.259-1.496-6.571-1.329-10.756.764-5.791 2.976-23.227 13.549-23.227 13.549s26.068 14.716 31.079 14.057 17.551-8.81 18.545-11.682l1.146-3.202z"/></g><path d="M56.117 160.136c3.74 3.39 7.653.471 13.842-3.541 6.999-4.546 8.37-8.266 8.37-8.266s0 2.788-.523 4.096-1.658 2.783-6.707 6.278-8.705 5.231-12.1 5.869l-2.678-.371" class="B"/><use xlink:href="#R" class="D"/><use xlink:href="#R" opacity=".023" class="C"/><path d="M34.396 135.915c-1.376 4.708-1.81 9.307 1.486 12.702 2.396 2.469 6.722 9.866 19.879 9.306 5.943-.245 22.589-11.864 22.589-11.864s8.114-1.214 8.15-3.422c0-.523.617-.669.523-1.245-.905-4.823-3.924-7.543-8.156-7.8-6.701-.402-25.063 4.379-25.063 4.379l-19.408-2.056z" class="D"/><path d="M51.435 97.951l-2.181 9.693-7.528-1.161 2.061-10.709 7.648 2.176zm-10.709 2.909c-3.505-.121-5.932 1.527-7.81 6.277s-7.664 16.217-7.81 19.476c-.152 3.38 10.567 13.816 10.18 13.633-.12-.057 3.421-6.157 3.421-6.157l-5.32-7.957 3.139-8.757 4.201-16.515z" class="H"/><path d="M40.846 100.875a6.34 6.34 0 0 0-3.233.347c-1.029.394-1.938 1.05-2.636 1.903-2.171 2.553-5.843 11.917-5.843 11.917s1.753 4.577 7.533 4.577l5.226-11.216-1.046-7.528z" class="E"/><path d="M33.433 134.376c1.137-2.805 2.511-5.509 4.107-8.082-2.375-10.342-3.416-14.522-2.616-19.356.523-3.17 2.689-6.602 5.87-6.053.826.142 1.151.131 1.93.278-.439 1.616 5.148 2.924 7.685 1.287 1.141.272 4.583.758 4.583.758 1.47.523 6.686 8.485 7.57 13.335.91 5.006-3.552 8.108-3.552 8.108.225 4.185.068 8.658-.031 16.291 0 0-2.72 5.231-14.831 3.855-10.766-1.203-12.152-5.812-12.152-5.812a36.85 36.85 0 0 1 1.439-4.609z" fill="#f0f0f0"/><path d="M92.929 106.959a10.76 10.76 0 0 0-2.746 1.967c-.079.068-.816.827-1.167.727a.36.36 0 0 1-.225-.246c-.126-.402.487-1.616.523-2.029s-.215-.963-.623-.884a.75.75 0 0 0-.382.24 8.55 8.55 0 0 0-2.093 3.835 17.81 17.81 0 0 1-.795 2.553c-.617 1.339-12.032 9.416-12.247 9.573 0 0-6.879-8.182-10.745-13.329-4.185-5.577-5.754-5.258-9.045-6.163-2.574 9.087 4.87 15.924 4.87 15.924s6.189 6.362 10.049 9.213c2.48 1.831 3.929 3.034 5.231 3.034s2.38-.67 3.442-1.46c2.511-1.873 10.086-9.489 10.918-10.332 1.428-1.443 2.956-2.767 4.347-4.226l4.619-4.839c.401-.394.752-.835 1.046-1.314.217-.316.34-.689.354-1.073a2.03 2.03 0 0 0-.275-1.096c-.193-.332-.477-.602-.818-.78s-.725-.253-1.108-.221a5.76 5.76 0 0 0-2.715.717l-.418.209z" class="H"/><path d="M52.517 102.816s3.631-.036 5.529 1.45c1.444 1.124 11.253 13.078 11.253 13.078s.46 4.436-6.142 7.324l-8.187-8.585s-4.185-6.178-2.453-13.267z" class="E"/><use xlink:href="#S" class="D"/><use xlink:href="#S" class="C J"/><path d="M58.45 88.928s1.794 3.139 1.533 3.379-1.7.419-1.7.419l.167-3.798z" class="M"/><path d="M53.888 79.909c1.632 1.046 4.441 3.003 4.572 9.416.136 6.586-.931 8.778-1.904 9.542-.659.523-4.97.445-6.147 0-1.983-.748-5.896-3.746-7.606-7.324-2.014-4.185-1.988-9.505.999-11.289 4.206-2.501 8.705-1.24 10.086-.345z" class="H"/><use xlink:href="#T" class="D"/><use xlink:href="#T" class="C I"/><path d="M56.326 164.191c-2.134-.105-3.798-1.669-8.893-3.782-9.327-3.877-16.343-7.015-19.016-11.912s-4.562-19.042-3.897-25.168c.064-.694.219-1.376.46-2.03l-.659-.099 1.705-1.449c1.747-1.428 4.593-.157 6.733 1.01 6.126 3.332 10.918 6.57 14.7 18.262 2.851 8.794 4.708 16.819 8.658 21.109" class="F"/><path d="M30.985 122.272c6.126 3.332 10.912 6.57 14.7 18.262s5.859 22.024 13.319 24.028c0 0-3.374 1.339-13.711-3.034-3.291-1.387-7.282-3.924-9.903-5.399-5.137-2.882-8.255-5.231-8.747-6.131-2.715-4.876-4.567-19.037-3.897-25.163s5.174-4.232 8.239-2.563z" class="E"/><path d="M121.445 59.784c-1.512 2.119-4.023 2.861-9.824 1.088l-6.042-2.223c-4.818-2.04-7.225-2.846-10.301-4.489-.654-.351-2.914-3.406-5.373-6.9a9.06 9.06 0 0 0 5.346-5.556l4.577 6.728c.79.581 6.32 4.023 9.752 5.231.61.213 1.277.192 1.873-.057 1.6-.649 2.715-.581 4.3-.795 1.239-.167 1.852-.638 2.019-.371.162.319.198.687.101 1.031s-.32.639-.624.826a10.23 10.23 0 0 1-2.135 1.02 13.26 13.26 0 0 0 4.217.424c3.207-.173 4.515.654 2.113 4.044z" class="K"/><path d="M157.698 47.721l-6.533 3.358-6.508 3.364c-1.878.983-4.096 1.747-5.545 3.322a9.46 9.46 0 0 0-2.177 3.113 5.08 5.08 0 0 0 .105 3.557c.465 1.128 1.277 2.079 2.317 2.715a1.53 1.53 0 0 0 .575.278c.209.051.427.058.639.02a.45.45 0 0 0 .215-.136.53.53 0 0 0 .078-.293c.058-.827 0-1.653 0-2.485 0-.717.079-2.652 1.12-2.49l2.422-1.015c.047-1.114.57-.994 1.47-1.287l1.705-.554 4.677-1.543 5.964-2.093c1.009-.371 2.422-.691 3.269-1.397l-3.793-6.434zm-16.41 21.087l2.134 3.034c.013.021.032.037.054.046s.047.01.07.004.044-.021.058-.04.022-.043.022-.067l.157-3.725-2.495.748z" class="H"/><path d="M143.595 71.784l.157-3.725-1.318.397.125.44.905 2.867.131.021z" class="M"/><path d="M143.6 71.785c0 .024-.007.048-.022.067s-.035.033-.058.04a.11.11 0 0 1-.07-.004c-.023-.009-.042-.025-.054-.046l-.418-.591a.64.64 0 0 0 .337-.023c.109-.038.205-.104.28-.191l.036-.052-.031.8z" class="B"/><path d="M139.357 53.051l.095.33.12.398 4.185 14.282c-.193.371-.517.657-.91.8-.247.119-.518.176-.791.167a1.69 1.69 0 0 1-.779-.22l-4.174-14.287-.22-.759c.147.497 2.637-.225 2.474-.711z" class="E"/><path d="M139.357 53.051l.095.33.12.398 4.185 14.282c-.121.224-.288.419-.492.571s-.437.259-.685.313l-4.515-15.071c-.047 0-.062 0-.052-.037.696-.167 1.433-.513 1.344-.785z" class="F"/><path d="M139.719 54.302l.214.738c.068.209-.345.481-.858.68-.68.267-1.569.319-1.642.037l-.163-.523-.052-.199c.094.282.968.235 1.643-.037.491-.188.894-.45.858-.654v-.042z" class="L"/><path d="M139.781 54.49c.157.486-2.338 1.203-2.5.717l-.22-.738c.162.492 2.663-.225 2.5-.717l.22.738z" class="F"/><path d="M139.357 53.051l.215.727c.162.481-2.244 1.193-2.49.759v-.026l-.209-.732c.156.481 2.647-.241 2.484-.727z" class="L"/><path d="M143.527 71.884c.017-.007.031-.017.043-.031s.02-.03.025-.047c-.004.018-.012.034-.024.048s-.027.024-.044.03z" class="H"/><path d="M138.448 49.97l.91 3.081c.068.209-.34.476-.848.68-.674.267-1.569.324-1.647.047l-.905-3.092c-.184-.617 1.046-1.13 1.841-1.093a.67.67 0 0 1 .649.377z" class="M"/><path d="M137.971 50.707c-.259.169-.555.276-.862.311a2 2 0 0 1-.911-.107c-.068-.03-.127-.075-.173-.133s-.079-.125-.094-.197c-.031-.57 1.088-1.046 1.862-.994a.68.68 0 0 1 .379.086c.116.065.209.162.27.28.068.235-.099.523-.471.753z" class="C G"/><path d="M141.994 62.055l-.167 2.093a2.37 2.37 0 0 0 .591 1.569c.112.138.265.237.437.283a.85.85 0 0 0 .52-.026c.122-.087.225-.199.302-.328s.128-.272.148-.42a18.53 18.53 0 0 0 .591-4.117v-.078l-2.422 1.025z" class="H"/><defs ><path id="B" d="M144.296 68.881c0-1.125.989-2.328 3.081-3.662 3.861-2.506 15.098-8.778 20.497-11.77.002-.011.008-.022.016-.03s.019-.014.031-.017c4.159-2.522 5.419-13.288 8.297-22.416.978-3.139 2.181-4.87 3.604-5.697.34-.199 1.569-.884 1.862-1.046 2.825-1.69 6.529.34 11.143 2.867 4.253 2.302 7.575 5.278 8.239 13.183.408 4.813 0 14.004-.957 20.978-1.418 11.645-3.139 11.666-5.676 13.601-4.342 3.353-14.124 8.067-18.231 9.688-7.476 2.94-13.602-1.569-18.132-3.84-4.164-2.114-8.183-4.501-12.032-7.146-1.14-.827-1.732-1.664-1.716-2.542-.016-.351-.026-1.784-.026-2.15z"/><path id="C" d="M158.075 78.553c-4.164-2.114-8.183-4.501-12.032-7.146-2.615-1.878-2.354-3.803 1.36-6.21 5.153-3.348 23.463-13.413 23.463-13.413s26.57 15.694 25.429 18.576-14.883 9.992-20.062 12.032c-7.502 2.94-13.606-1.59-18.158-3.84z"/><path id="D" d="M180 25.167c2.793-1.465 6.429.523 10.928 2.992 2.877 1.569 5.331 3.447 6.801 6.952l1.899-1.099c-1.491-3.489-3.939-5.357-6.801-6.931-4.614-2.527-8.318-4.556-11.143-2.867l-1.684.952z"/><path id="E" d="M175.412 28.296a7.57 7.57 0 0 0-2.851-.79c-4.185-.523-6.654.8-8.135 3.181-1.972 3.176-5.911 13.821-5.911 13.821s2.39 3.662 6.91 4.185l7-12.074 2.987-8.323z"/><path id="F" d="M184.185 8.585c-.371-.383-.852-.641-1.376-.738l1.794-.968a1.44 1.44 0 0 0-.349-.464c-.147-.13-.318-.228-.504-.289s-.383-.084-.578-.067-.384.074-.557.166c-.336.19-.59.498-.713.863s-.108.764.044 1.119l-.628 6.973-.591-.058-.246 4.054-.068 3.374c1.627-.042 2.841-1.637 3.772-7.088.732-4.117.926-5.932 0-6.879z"/><path id="G" d="M163.076 6.246c-.894-.523-1.129.523-.638 1.392.326.635.81 1.176 1.404 1.572s1.28.633 1.991.688c.027-.126.837-2.281.837-2.281l-1.763-.994a4.55 4.55 0 0 1-1.831-.377z"/><path id="H" d="M180.591 16.531c.22 0 1.046-1.376 1.569-1.868.748-.68-.219-6.853-.219-6.853s.758-2.338-.722-3.892-4.348-1.292-6.445-1.365a18.83 18.83 0 0 1-7.502-1.507c-2.977-1.292-3.202-1.444-3.568-.136s-.523 4.3 1.266 6.309l1.481.523s.8.711 3.578 1.046 7.104-.063 7.695-.146c.806-.11.978.675 1.413 2.804.402 1.894.721 5.069 1.454 5.085z"/><path id="I" d="M185.304 41.401c-2.485-4.886-1.297-10.625.466-12.283 4.483.769 5.038 3.071 7.324 7.083 3.306 5.828 4.593 7.591 4.593 7.591-1.12 1.496-4.358 5.315-6.544 5.435l-5.839-7.826z"/><path id="J" d="M87.991 59.046s9.814 3.709 13.795 6.398 6.053 4.567 6.701 6.476c.691 2.019.293 4.766-2.129 11.922-.523 1.569-3.583 11.446-3.583 11.446l-7.136-16.74-11.896-8.919 4.248-10.583z"/><path id="K" d="M64.052 60.919c-1.381 4.018-1.606 9.171 2.066 12.555 2.443 2.244 7.847 5.796 12.084 7.748l11.933 5.587c1.256.408 1.449 1.125 1.517 3.427s1.235 5.969 4.253 10.4c3.191 4.677 5.038 7.742 5.038 7.742a5.33 5.33 0 0 0 2.875-.192c.923-.327 1.738-.901 2.356-1.66 0 0-5.869-24.346-7.193-27.234S85.836 68.19 85.836 68.19a93.13 93.13 0 0 0 2.166-9.144l-23.949 1.873z"/><path id="L" d="M119.578 147.722v2.966c-.382.004-.759-.085-1.099-.261L39.8 104.977a2.4 2.4 0 0 1-.774-.816c-.19-.329-.299-.698-.319-1.078v-.434a2.42 2.42 0 0 1 .889-1.753c-.392.335-.33.811.204 1.12l78.679 45.445c.338.18.716.27 1.099.261z"/><path id="M" d="M39.8 102.012l78.679 45.444c.34.173.715.263 1.096.263a2.41 2.41 0 0 0 1.096-.263l88.101-50.854a.66.66 0 0 0 .455-.63.66.66 0 0 0-.455-.63l-78.71-45.45a2.44 2.44 0 0 0-2.187 0L39.8 100.746c-.132.045-.246.13-.327.244a.67.67 0 0 0-.124.389c0 .139.043.275.124.388a.67.67 0 0 0 .327.245z"/><path id="N" d="M115.047 89.121L92.03 75.833c-.204-.12-.371 0-.371.215v17.263a.82.82 0 0 0 .371.643l23.017 13.293a.23.23 0 0 0 .377-.22V89.764c-.007-.129-.045-.255-.111-.367a.81.81 0 0 0-.266-.276z"/><path id="O" d="M92.814 102.225l.664-.382v-.058l-.696-.403a.12.12 0 0 0-.05-.011.12.12 0 0 0-.05.011l-.664.388c-.026 0 0 .036 0 .057l.696.398c.015.008.032.013.05.013s.035-.005.05-.013zm.811-1.392l-.664.382c-.026 0 0 .042 0 .058l.696.402c.015.008.032.012.05.012s.034-.004.05-.012l.664-.381c.026 0 .026-.042 0-.058l-.691-.403c-.016-.008-.034-.012-.052-.012s-.036.004-.052.012zm2.244 1.292l-.664.382v.058l1.177.68c.015.008.032.012.05.012s.034-.004.05-.012l.664-.387c.026 0 0-.037 0-.058l-1.177-.675c-.015-.008-.032-.013-.05-.013s-.035.005-.05.013zm-1.229-.706l-.664.382c-.026 0 0 .042 0 .058l.696.402c.015.008.032.012.05.012s.034-.004.05-.012l.664-.382v-.057l-.696-.403c-.015-.008-.032-.012-.05-.012s-.034.004-.05.012zm2.725 1.569l-.664.382c-.026 0-.026.042 0 .058l.691.403c.016.007.034.011.052.011s.036-.004.052-.011l.664-.387c.026 0 0-.037 0-.058l-.696-.398a.1.1 0 0 0-.12 0h.021zm1.015.586l-.664.382c-.026 0-.026.042 0 .058l.691.403c.034.013.071.013.105 0l.664-.387c.026 0 0-.042 0-.058l-.691-.398c-.014-.007-.031-.011-.047-.011s-.033.004-.047.011h-.011zm-2.401 1.57l.659-.382v-.058l-.691-.402c-.016-.008-.034-.012-.052-.012s-.036.004-.052.012l-.664.381v.058l.691.403c.017.009.036.013.055.013s.038-.004.055-.013zm1.01.586l.664-.382v-.058l-.691-.403c-.016-.007-.034-.012-.052-.012s-.036.005-.052.012l-.664.382v.058l.691.403c.016.008.034.013.052.013s.036-.005.052-.013zm1.015.586l.664-.382c.026 0 .026-.042 0-.058l-.696-.403c-.015-.007-.032-.012-.05-.012s-.034.005-.05.012l-.664.382v.058l.696.403c.016.007.033.01.05.009s.034-.006.049-.015v.006zm1.015.586l.664-.382c.026 0 .026-.042 0-.058l-.696-.403c-.032-.013-.068-.013-.099 0l-.664.387v.058l.696.398c.015.008.032.013.05.013s.035-.005.05-.013zm-5.189-4.091l.664-.382v-.063l-.696-.398c-.015-.007-.032-.012-.05-.012s-.034.005-.05.012l-.664.382c-.026 0-.026.042 0 .063l.696.398a.12.12 0 0 0 .05.011c.017 0 .034-.004.05-.011zm1.135 1.747l.664-.382c.026 0 0-.042 0-.058l-.638-.371c-.031 0-.031-.042 0-.058l.853-.491c.026 0 .026-.042 0-.058l-.8-.465c-.015-.008-.032-.012-.05-.012s-.034.004-.05.012l-1.617.931c-.026 0 0 .042 0 .057l1.569.895c.022.006.046.006.068 0zm4.426-.398l-.664.382v.058l.691.403c.034.012.071.012.105 0l.659-.388c.026 0 .026-.041 0-.057l-.69-.398c-.015-.008-.032-.012-.05-.012s-.034.004-.05.012zm1.015.586l-.664.382c-.026 0 0 .042 0 .058l.69.402c.032.014.068.014.1 0l.664-.387c.026 0 .026-.042 0-.057l-.691-.398c-.015-.008-.031-.013-.049-.014s-.034.002-.05.009v.005zm6.356 5.87c.026 0 .026-.037 0-.058l-.69-.397c-.016-.009-.034-.014-.053-.014s-.036.005-.052.014l-.664.382c-.027 0 0 .041 0 .057l.69.403c.017.007.034.011.052.011a.14.14 0 0 0 .053-.011l.664-.387zm1.737-1.188l-.659.387v.058l.69.397c.016.009.034.014.053.014s.036-.005.052-.014l.664-.381v-.058l-.69-.403c-.031-.002-.063.005-.089.021l-.021-.021zm-.523.795v-.057l-.691-.403c-.015-.008-.032-.012-.049-.012s-.035.004-.05.012l-.665.382v.057l.696.403c.016.008.033.012.05.012s.034-.004.05-.012l.659-.382zm-3.364 1.015l.664-.382v-.057l-.695-.403c-.016-.008-.033-.012-.05-.012s-.034.004-.05.012l-.664.382v.057l.696.403c.018.013.04.02.062.02s.045-.007.063-.02h-.026zm1.679.204v-.057l-.695-.403c-.016-.008-.033-.012-.05-.012s-.034.004-.05.012l-.664.382v.057l.696.403c.015.008.032.012.049.012s.035-.004.05-.012l.664-.382zm1.193-2.615l-.664.387v.057l.69.398c.016.009.034.013.053.013s.036-.004.052-.013l.664-.382v-.058l-.69-.402c-.027-.003-.055.002-.079.015l-.026-.015zm-5.074-2.925l-.665.382c-.026 0 0 .042 0 .058l.696.403c.015.007.032.011.05.011s.034-.004.049-.011l.665-.382c.026 0 .026-.042 0-.058l-.696-.403c-.025-.003-.051.002-.073.016l-.026-.016zm4.059 2.344l-.664.382c-.026 0-.026.042 0 .057l.696.403c.015.008.032.012.049.012s.035-.004.05-.012l.664-.382v-.057l-.695-.403c-.026-.004-.052.002-.074.016l-.026-.016zm-5.074-2.93l-.665.382c-.026 0 0 .042 0 .058l.696.403c.016.007.033.012.05.012s.034-.005.05-.012l.664-.382c.026 0 .026-.042 0-.058l-.696-.403c-.025-.003-.051.002-.073.016l-.026-.016zm2.03 1.172l-.665.382c-.026 0 0 .042 0 .058l.696.402c.015.008.032.012.05.012s.034-.004.049-.012l.665-.381c.026 0 .026-.042 0-.058l-.696-.403c-.026-.003-.052.002-.073.016l-.026-.016zm1.014.586l-.664.382c-.026 0-.026.042 0 .058l.696.402c.015.008.032.012.049.012s.035-.004.05-.012l.665-.381c.026 0 0-.042 0-.058l-.696-.403c-.026-.003-.052.002-.073.016l-.027-.016zm1.015.586l-.664.382c-.026 0-.026.042 0 .057l.696.403c.015.008.032.012.049.012s.035-.004.05-.012l.664-.382v-.057l-.695-.403c-.026-.003-.052.002-.074.016l-.026-.016zm-4.431.398l.665-.382c.026 0 0-.042 0-.058l-.696-.403c-.015-.007-.032-.011-.05-.011s-.034.004-.049.011l-.665.388c-.026 0-.026.036 0 .057l.696.398c.016.016.037.027.06.03s.046-.002.065-.015l-.026-.015zM91.36 99.52l-.664.382c-.026 0-.026.042 0 .063l.696.397c.015.008.032.012.05.012s.034-.004.05-.012l.664-.381c.026 0 0-.042 0-.063l-.696-.398a.11.11 0 0 0-.073.016l-.026-.016zm1.224.712l-.664.381c-.026 0 0 .042 0 .058l.717.408c.016.008.034.012.052.012s.036-.004.052-.012l.659-.382c.026 0 .026-.042 0-.057l-.691-.403c-.025-.004-.05-.001-.073.01l-.052-.015zm-2.239-1.298l-.664.382c-.026 0-.026.042 0 .063l.696.397a.11.11 0 0 0 .099 0l.664-.382c.026 0 0-.042 0-.063l-.696-.398a.11.11 0 0 0-.073.016l-.026-.016zm5.807 5.232l.664-.382c.026 0 0-.042 0-.058l-.696-.403c-.032-.013-.068-.013-.099 0l-.664.387c-.026 0-.026.042 0 .058l.696.398c.018.014.04.022.063.022s.045-.008.063-.022h-.026zm-7.486-5.415c-.026 0-.026.037 0 .058l.696.398a.11.11 0 0 0 .099 0l.664-.382c.026 0 0-.042 0-.063l-.696-.398a.11.11 0 0 0-.099 0l-.664.387zm11.341 8.736l.665-.381c.026 0 .026-.042 0-.058l-.696-.403c-.015-.008-.032-.012-.05-.012s-.034.004-.05.012l-.664.387c-.026 0 0 .042 0 .058l.696.397c.018.015.04.023.063.023s.045-.008.063-.023h-.027zm-12.44-7.182l.664-.382c.026 0 .026-.042 0-.058l-.691-.403a.12.12 0 0 0-.105 0l-.664.382c-.026 0 0 .042 0 .058l.696.403c.019.013.04.02.063.02s.044-.007.063-.02h-.026zm1.967.042l.664-.387c.026 0 0-.042 0-.058l-.691-.398a.11.11 0 0 0-.105 0l-.659.382c-.026 0-.026.042 0 .057l.691.403c.02.009.041.014.063.014s.043-.005.063-.014h-.026zM87.719 99.3c-.026 0-.026.042 0 .058l.691.403c.034.013.071.013.105 0l.664-.387c.026 0 0-.042 0-.057l-.691-.398a.1.1 0 0 0-.05-.013c-.017 0-.035.005-.05.013l-.67.382zm.445-.565l-.696-.398c-.015-.009-.032-.013-.05-.013s-.034.005-.05.013l-1.617.931v.057l.691.403c.016.008.034.012.052.012s.036-.004.052-.012l1.611-.931c.063-.026.057-.052.031-.068l-.026.005zm2.244 1.355l-.664.382c-.026 0 0 .042 0 .058l.691.403a.12.12 0 0 0 .05.011.12.12 0 0 0 .05-.011l.664-.382c.026 0 .026-.042 0-.058l-.654-.408c-.017-.009-.036-.013-.055-.013s-.038.004-.055.013l-.026.005zm7.638 4.405l-.664.387c-.026 0-.026.037 0 .058l.696.397c.015.009.032.014.05.014s.035-.005.05-.014l.664-.382c.026 0 0-.041 0-.057l-.696-.403c-.023-.01-.049-.012-.073-.005l-.026.005zm-8.799-3.981c.026 0 .026-.042 0-.057l-.696-.403c-.015-.008-.032-.012-.05-.012s-.034.004-.05.012l-.664.382c-.026 0 0 .041 0 .057l.696.403c.015.008.032.012.05.012s.034-.004.05-.012l.664-.382zm7.784 3.395l-.664.387c-.026 0-.026.042 0 .058l.696.397c.015.009.032.014.05.014s.035-.005.05-.014l.664-.381c.026 0 0-.042 0-.058l-.696-.403a.13.13 0 0 0-.073-.005l-.026.005zm8.715 6.126v-.057l-.69-.398c-.017-.008-.035-.011-.053-.011s-.036.003-.052.011l-.659.382c-.026 0-.026.042 0 .063l.69.397c.017.008.035.012.053.012s.036-.004.052-.012l.659-.387zm.414-.853l-.665.382v.058l.696.403a.13.13 0 0 0 .099 0l.665-.388v-.057l-.696-.398c-.023-.011-.049-.013-.073-.005l-.026.005zm-2.093.654l.664-.382c.027 0 0-.041 0-.062l-.695-.398c-.016-.008-.033-.012-.05-.012s-.034.004-.05.012l-.664.382c-.026 0-.026.042 0 .063l.69.397a.12.12 0 0 0 .066.016c.024-.001.046-.008.065-.021l-.026.005zm-.968-.591l.665-.382c.026 0 0-.042 0-.063l-.696-.397c-.016-.008-.033-.012-.05-.012s-.034.004-.05.012l-.664.387c-.026 0-.026.037 0 .058l.696.397c.015.008.032.012.049.012s.035-.004.05-.012zm-1.046-.586l.664-.382c.026 0 0-.042 0-.057l-.695-.403c-.016-.008-.033-.012-.05-.012s-.034.004-.05.012l-.664.387c-.026 0-.026.037 0 .058l.696.397c.015.009.032.014.049.014s.035-.005.05-.014zm3.107-.068l-.664.382c-.026 0-.026.042 0 .058l.696.418a.13.13 0 0 0 .099 0l.664-.387v-.057l-.695-.398c-.02-.013-.044-.019-.068-.016h-.032zm-1.015-.586l-.664.382c-.026 0 0 .042 0 .058l.696.403c.015.007.032.011.05.011s.034-.004.049-.011l.665-.388v-.057l-.696-.398c-.015-.008-.032-.013-.05-.013s-.034.005-.05.013zm-4.059-2.343l-.659.382c-.026 0-.026.041 0 .062l.69.398a.14.14 0 0 0 .053.011c.018 0 .036-.004.052-.011l.664-.382v-.063l-.69-.397c-.016-.007-.033-.011-.05-.011s-.034.004-.05.011h-.01zm1.015.586l-.665.381c-.026 0 0 .042 0 .063l.691.398c.015.008.032.012.05.012s.034-.004.049-.012l.665-.382c.026 0 .026-.042 0-.063l-.691-.397c-.028-.011-.06-.011-.089 0h-.01zm-2.025-1.172l-.664.387c-.026 0-.026.037 0 .057l.691.398c.016.009.034.013.052.013s.036-.004.052-.013l.664-.382v-.057l-.691-.403a.11.11 0 0 0-.047-.011.11.11 0 0 0-.047.011h-.01zm4.055 2.343l-.665.382c-.026 0 0 .042 0 .058l.696.403c.015.007.032.012.05.012s.034-.005.049-.012l.665-.387v-.058l-.696-.398c-.014-.006-.029-.01-.045-.01s-.03.004-.044.01h-.01zm-1.005-.585l-.664.381c-.026 0 0 .042 0 .063l.696.398c.015.008.032.012.049.012s.035-.004.05-.012l.664-.387c.026 0 .026-.037 0-.058l-.69-.397c-.017-.008-.034-.012-.053-.012a.12.12 0 0 0-.052.012zm1.496 3.824l.665-.388v-.057l-.696-.398c-.015-.008-.032-.013-.05-.013s-.034.005-.049.013l-.665.382c-.026 0 0 .042 0 .058l.696.403a.13.13 0 0 0 .099 0zm5.258-.199l.69.397c.016.01.034.014.053.014s.036-.004.052-.014l.659-.381v-.058l-.69-.403a.14.14 0 0 0-.053-.011c-.018 0-.036.004-.052.011l-.664.387c-.021.016-.021.037.005.058zm-1.324.329l1.047.618c.015.008.032.012.049.012s.035-.004.05-.012l.675-.387v-.058l-1.046-.617c-.016-.008-.033-.012-.05-.012s-.034.004-.05.012l-.664.382s-.042.047-.011.062zm2.313-1.088l.852.492c.016.009.034.013.053.013s.036-.004.052-.013l.659-.382c.026 0 .026-.042 0-.057l-.853-.524c-.015-.007-.032-.011-.049-.011s-.035.004-.05.011l-.664.382c-.032.047-.032.074 0 .089zm0-.821c.026 0 0-.042 0-.058l-.691-.397c-.015-.009-.032-.013-.05-.013s-.034.004-.049.013l-.665.382c-.026 0-.026.042 0 .057l.691.403c.016.008.034.011.052.011s.036-.003.052-.011l.66-.387zm-3.537 2.302l1.339.774c.016.008.033.012.05.012s.034-.004.05-.012l.664-.382v-.057l-1.334-.769c-.016-.009-.034-.014-.052-.014s-.036.005-.052.014l-.665.381c-.026.011-.021.037.005.053h-.005zm-.465.826l.852.492c.016.009.034.013.053.013s.036-.004.052-.013l.659-.382c.026 0 .026-.042 0-.057l-.853-.497c-.015-.008-.032-.012-.049-.012s-.035.004-.05.012l-.664.382s-.027.047.005.062h-.005zm-3.542-7.481c.026 0 0-.041 0-.057l-.696-.403c-.015-.008-.032-.012-.05-.012s-.034.004-.049.012l-.665.382v.058l.696.402c.016.008.033.012.05.012s.034-.004.05-.012l.664-.382zm2.03 1.172c.026 0 0-.042 0-.057l-.696-.403c-.015-.008-.032-.012-.05-.012s-.034.004-.049.012l-.665.382c-.026 0-.026.042 0 .057l.696.403c.015.008.032.012.05.012s.034-.004.049-.012l.665-.382zm4.499 2.616c.026 0 0-.037 0-.058l-.696-.397c-.015-.009-.032-.013-.05-.013s-.034.004-.05.013l-.664.382c-.026 0-.026.042 0 .057l.696.403c.015.008.032.012.05.012s.034-.004.049-.012l.665-.387zm-5.514-3.181c.026 0 0-.042 0-.057l-.696-.403c-.015-.008-.032-.012-.05-.012s-.034.004-.049.012l-.665.382v.057l.696.403c.015.008.032.012.05.012s.034-.004.049-.012l.665-.382zm2.03 1.172c.026 0 0-.042 0-.057l-.696-.403c-.032-.013-.068-.013-.1 0l-.664.387c-.026 0-.026.042 0 .057l.691.398c.016.009.034.013.052.013s.036-.004.052-.013l.665-.382zm-.67 6.089v.058l1.046.617c.016.008.033.012.05.012s.034-.004.05-.012l.664-.387v-.057l-1.046-.618c-.016-.008-.033-.012-.05-.012s-.034.004-.05.012l-.664.387zm2.124-5.231c.026 0 0-.042 0-.063l-.696-.397c-.015-.008-.032-.012-.05-.012s-.034.004-.049.012l-.665.382c-.026 0-.026.041 0 .062l.696.398c.016.008.033.012.05.012s.034-.004.05-.012l.664-.382zm1.015.581c.026 0 0-.037 0-.058l-.696-.397c-.015-.009-.032-.014-.05-.014s-.034.005-.049.014l-.665.382c-.026 0-.026.041 0 .057l.696.403c.015.008.032.012.05.012s.034-.004.049-.012l.665-.387zm-21.93-6.184c-.026 0-.026.042 0 .058l1.705.989c.016.007.034.012.052.012s.036-.005.052-.012l.659-.382c.026 0 .026-.042 0-.058l-1.705-.983c-.015-.009-.032-.014-.05-.014s-.035.005-.05.014l-.664.376zm2.239 1.298c-.026 0 0 .042 0 .057l.696.398c.015.009.032.013.05.013s.035-.004.05-.013l.664-.382c.026 0 .026-.042 0-.058l-.696-.402c-.015-.008-.032-.012-.05-.012s-.034.004-.05.012l-.664.387zm14.454 7.25l.665-.387v-.057l-.696-.398c-.015-.009-.032-.013-.05-.013s-.034.004-.05.013l-.664.382c-.026 0 0 .042 0 .058l.696.402c.019.002.038 0 .056-.006a.14.14 0 0 0 .048-.03l-.005.036zm-12.424-6.078c-.026 0-.026.036 0 .057l.696.398c.015.008.032.013.05.013s.035-.005.05-.013l.664-.382v-.063l-.696-.398c-.015-.007-.032-.011-.05-.011a.12.12 0 0 0-.05.011l-.664.388zm-5.284-3.056c-.026 0-.026.042 0 .058l.696.403c.015.008.032.012.05.012s.034-.004.05-.012l.664-.387c.026 0 0-.042 0-.058l-.696-.397c-.015-.009-.032-.014-.05-.014s-.035.005-.05.014l-.664.381zm-1.01-.523l.696.403c.015.008.032.012.05.012s.034-.004.05-.012l1.611-.931c.026 0 .026-.042 0-.058l-.696-.403c-.015-.008-.032-.012-.05-.012s-.034.004-.05.012l-1.611.931c-.026-.026-.026 0 .005.015l-.005.042zm10.086 5.755c-.026 0-.026.042 0 .057l.853.492c.015.009.032.013.05.013s.035-.004.05-.013l.664-.382c.026 0 .026-.042 0-.063l-.858-.523c-.016-.008-.034-.012-.052-.012s-.036.004-.052.012l-.654.419zm-2.563-1.481v.058l1.046.617c.015.008.032.012.05.012s.034-.004.05-.012l.664-.387c.026 0 .026-.037 0-.058l-1.046-.617c-.015-.008-.032-.012-.05-.012s-.034.004-.05.012l-.664.387zm4.912 2.836c-.026 0-.026.042 0 .057l5.734 3.275c.015.008.032.012.05.012s.034-.004.049-.012l.665-.382c.026 0 0-.042 0-.057l-5.713-3.301c-.016-.008-.034-.012-.052-.012s-.036.004-.052.012l-.68.408zm6.037 3.458c-.026 0-.026.041 0 .057l.853.492c.015.009.032.013.05.013s.034-.004.049-.013l.665-.382v-.058l-.853-.497c-.015-.007-.032-.011-.05-.011s-.034.004-.049.011l-.665.388zm-7.209-4.185c-.026 0 0 .041 0 .062l.853.492c.034.013.071.013.105 0l.664-.387c.026 0 0-.042 0-.058l-.858-.491c-.015-.008-.032-.012-.05-.012s-.034.004-.05.012l-.664.382zm8.371 4.838v.063l.858.492a.13.13 0 0 0 .099 0l.664-.387v-.058l-.858-.491c-.015-.008-.032-.012-.049-.012s-.035.004-.05.012l-.664.381zm-10.73-6.193c-.026 0 0 .041 0 .057l.853.497c.016.008.034.012.052.012s.036-.004.052-.012l.664-.382c.026 0 0-.042 0-.057l-.853-.492c-.015-.009-.032-.013-.05-.013s-.035.004-.05.013l-.67.377zm-3.63-2.093c-.026 0 0 .037 0 .058l.696.397c.015.009.032.013.05.013s.035-.004.05-.013l.664-.382c.026 0 .026-.042 0-.057l-.696-.403c-.015-.008-.032-.012-.05-.012s-.034.004-.05.012l-.664.387zm-1.507-1.967l.664-.382c.026 0 0-.042 0-.063l-.696-.397c-.015-.008-.032-.012-.05-.012s-.034.004-.05.012l-.664.382c-.026 0-.026.042 0 .062l.696.398c.015.013.033.022.052.026s.039.002.058-.005l-.011-.021zm4.138.199l.664-.382c.026 0 .026-.042 0-.058l-.696-.402c-.015-.008-.032-.012-.05-.012s-.034.004-.05.012l-.664.387c-.026 0 0 .036 0 .057l.696.398c.014.014.032.024.052.027s.04.002.058-.006l-.01-.021zm2.694 3.746l.664-.382c.026 0 .026-.042 0-.058l-2.03-1.172c-.015-.008-.032-.013-.05-.013s-.035.005-.05.013l-.664.382c-.026 0 0 .042 0 .058l2.03 1.172c.014.014.032.023.052.027s.04.001.058-.007l-.01-.02zm-5.153-3.741c.026 0 0-.042 0-.063l-.696-.397c-.015-.008-.032-.012-.05-.012s-.034.004-.05.012l-.664.382c-.026 0-.026.041 0 .062l.696.398c.015.008.032.012.05.012s.034-.004.05-.012l.664-.382zm.282-.167l.664-.382c.026 0 .026-.042 0-.058l-.696-.403c-.032-.013-.067-.013-.099 0l-.664.388c-.026 0 0 .041 0 .057l.696.398c.014.014.032.023.052.027s.04.002.058-.006l-.011-.021zm5.885 4.493l.664-.381c.026 0 .026-.042 0-.058l-.696-.403c-.015-.008-.032-.012-.05-.012s-.034.004-.05.012l-.664.387c-.026 0 0 .037 0 .058l.696.397c.014.015.032.024.052.028s.04.001.058-.007l-.01-.021zm-3.929-3.034c.026 0 .026-.042 0-.057l-.691-.403c-.016-.008-.034-.012-.052-.012s-.036.004-.052.012l-.664.382c-.026 0 0 .042 0 .057l.69.403c.015.008.032.012.05.012s.034-.004.05-.012l.67-.382zm9.014 6.011l.659-.387c.026 0 .026-.037 0-.058l-.69-.397c-.017-.009-.035-.013-.053-.013s-.036.004-.052.013l-.665.382c-.026 0 0 .042 0 .057l.691.403c.017.008.036.013.055.013s.038-.005.055-.013zm-1.015-.586l.664-.387v-.058l-.69-.397c-.015-.008-.032-.012-.05-.012s-.034.004-.05.012l-.664.382c-.026 0-.026.042 0 .063l.691.397c.017.003.035.002.053-.002s.033-.013.047-.024v.026zm2.025 1.172l.664-.387c.026 0 .026-.042 0-.058l-.691-.397c-.016-.009-.034-.014-.052-.014s-.036.005-.052.014l-.665.382c-.026 0 0 .041 0 .057l.691.403c.018.005.037.005.056.001s.035-.014.049-.027v.026zm-4.055-2.344l.664-.382c.026 0 0-.041 0-.062l-.701-.414c-.015-.007-.032-.012-.05-.012s-.034.005-.05.012l-.664.382c-.026 0-.026.042 0 .063l.696.398a.11.11 0 0 0 .054.008c.018-.002.036-.008.051-.019v.026zm1.015.586l.664-.382v-.062l-.696-.398c-.015-.008-.032-.012-.05-.012s-.034.004-.05.012l-.664.382c-.026 0-.026.042 0 .063l.696.397c.017.004.036.004.053-.001s.033-.013.046-.025v.026zm-2.03-1.172l.664-.381c.026 0 0-.042 0-.058l-.696-.403c-.015-.008-.032-.012-.05-.012s-.034.004-.05.012l-.664.387c-.026 0-.026.037 0 .058l.696.397c.017.006.036.006.053.001s.034-.014.046-.027v.026zm-5.456-8.281v-.057l-.691-.398a.11.11 0 0 0-.105 0l-.173.105v.058l.691.398a.11.11 0 0 0 .105 0l.173-.105zm5.529 2.914c.026 0 .026-.042 0-.057l-.696-.403c-.032-.013-.068-.013-.099 0l-.664.387v.057l.696.398c.015.009.032.013.05.013s.035-.004.05-.013l.664-.382zm-2.035-1.182c.031 0 0-.042 0-.058l-.691-.403a.12.12 0 0 0-.105 0l-.659.382v.058l.691.403c.016.008.034.012.052.012s.036-.004.052-.012l.659-.382zm3.27 1.888v-.062l-.696-.398c-.015-.008-.032-.012-.05-.012s-.034.004-.05.012l-.664.382v.063l.696.397c.015.008.032.012.05.012s.034-.004.05-.012l.664-.382zm-2.255-1.302v-.058l-.691-.403c-.016-.008-.034-.012-.052-.012s-.036.004-.052.012l-.664.382v.058l.691.403a.12.12 0 0 0 .05.011.12.12 0 0 0 .05-.011l.67-.382zm4.285 2.469c.026 0 0-.037 0-.058l-.696-.397c-.015-.009-.032-.014-.05-.014s-.035.005-.05.014l-.664.382v.057l.696.403c.015.008.032.012.05.012s.034-.004.05-.012l.664-.387zm-1.015-.586v-.058l-.696-.397c-.015-.008-.032-.012-.05-.012s-.034.004-.05.012l-.664.382v.062l.696.398c.015.008.032.012.05.012s.034-.004.05-.012l.664-.387zm-5.755-3.039v-.058l-.696-.398a.1.1 0 0 0-.05-.013c-.017 0-.035.005-.05.013l-.178.099c-.026 0 0 .042 0 .063l.696.398a.11.11 0 0 0 .099 0l.178-.105zm-3.039-1.758c.026 0 0-.037 0-.058l-.691-.398c-.016-.008-.034-.011-.052-.011s-.036.004-.052.011l-.173.105c-.026 0-.026.042 0 .058l.691.398a.11.11 0 0 0 .105 0l.173-.105zm-.91.523c.026 0 .026-.042 0-.058l-.691-.387a.11.11 0 0 0-.099 0l-.664.387c-.026 0 0 .037 0 .058l.696.398c.015.009.032.013.05.013s.035-.005.05-.013l.659-.398zm-2.495 2.616l.664-.382c.026 0 0-.042 0-.058l-.696-.403c-.015-.007-.032-.011-.05-.011s-.034.004-.05.011l-.664.387c-.026 0 0 .037 0 .058l.696.398c.014.01.031.016.048.018s.035-.001.051-.008v-.01zm5.43-1.967v-.057l-.691-.398a.11.11 0 0 0-.105 0l-.178.105c-.026 0 0 .037 0 .058l.691.398c.016.007.034.011.052.011s.036-.004.052-.011l.178-.105zm8.799 4.818c.026 0 0-.037 0-.058l-.696-.397c-.015-.009-.032-.014-.05-.014s-.034.005-.049.014l-.665.381v.058l.696.403c.015.008.033.012.05.012s.034-.004.049-.012l.665-.387z"/><path id="P" d="M165.106 109.76l14.423-8.37c.063-.019.119-.058.159-.111s.061-.118.061-.185-.022-.131-.061-.184-.096-.092-.159-.111l-19.78-11.227a1.14 1.14 0 0 0-1.046 0l-14.276 8.25c-.063.021-.118.061-.157.114a.32.32 0 0 0-.059.184c0 .066.021.13.059.184s.094.094.157.114l19.649 11.341c.159.081.336.123.515.123a1.14 1.14 0 0 0 .515-.123z"/><path id="Q" d="M74.536 132.008c.22 5.294-.523 30.294-.523 30.294s-2.522 1.219-6.628-.193l-2.731-27.13 9.882-2.971z"/><path id="R" d="M34.474 138.666l25.796-7.674c3.824-1.046 11.148-2.809 13.288-1.847s3.228 2.093 3.427 5.158c.042.581 0 3.411 0 3.411s-10.625 3.285-19.325 3.285-23.185-2.333-23.185-2.333z"/><path id="S" d="M57.932 89.372s2.741-4.75.722-8.496c-2.375-4.41-7.46-5.959-13.711-4.761-3.097.596-8.082 3.489-8.893 9.296-.617 4.473 11.682 8.7 11.169 11.76l10.714-7.8z"/><path id="T" d="M55.63 81.367c-.058-.22-.131-.748-.314-.915-1.706-1.395-3.705-2.388-5.848-2.903a14.65 14.65 0 0 0-6.529-.073c-1.9.405-3.604 1.448-4.829 2.956l.084-1.998a1.42 1.42 0 0 0-.984.383c-.267.249-.428.592-.449.956a1.27 1.27 0 0 0 .523 1.104h-.623a7.5 7.5 0 0 0-7.496 7.496v13.387a7.5 7.5 0 0 0 5.295-2.19c1.405-1.403 2.197-3.305 2.201-5.291l.251-2.83a11.51 11.51 0 0 0 1.433 2.48c4.74 6.199 10.892 3.976 10.892 3.976 2.935-1.046 3.317-4.3 3.317-4.3a2.99 2.99 0 0 1-1.66-.047c-.538-.172-1.016-.493-1.379-.925-1.444-1.522-1.36-4.185.712-4.682 1.475-.345 2.438.837 2.95 2.019.084.194.194.403.392.46.309.084.56-.256.691-.549.876-1.864 1.425-3.866 1.622-5.917.063-.873-.022-1.75-.251-2.595z"/></defs></svg>