<svg width="18" height="18" viewBox="0 0 18 18" fill="none" xmlns="http://www.w3.org/2000/svg">
<path d="M8.15667 2.68652H2.59037C2.16858 2.68652 1.76406 2.85408 1.46581 3.15233C1.16756 3.45058 1 3.8551 1 4.27689V15.4095C1 15.8313 1.16756 16.2358 1.46581 16.5341C1.76406 16.8323 2.16858 16.9999 2.59037 16.9999H13.723C14.1448 16.9999 14.5493 16.8323 14.8475 16.5341C15.1458 16.2358 15.3133 15.8313 15.3133 15.4095V9.84319" stroke="black" stroke-linecap="round" stroke-linejoin="round"/>
<path d="M14.1204 1.49406C14.4368 1.17772 14.8658 1 15.3132 1C15.7606 1 16.1897 1.17772 16.506 1.49406C16.8223 1.81041 17.0001 2.23946 17.0001 2.68684C17.0001 3.13422 16.8223 3.56328 16.506 3.87962L8.95174 11.4339L5.771 12.2291L6.56618 9.04833L14.1204 1.49406Z" stroke="black" stroke-linecap="round" stroke-linejoin="round"/>
</svg>
