<svg width="769" height="465" viewBox="0 0 769 465" fill="none" xmlns="http://www.w3.org/2000/svg">
<path d="M79.394 429.362H721.2C719.7 429.362 773.876 398.925 761.442 345.051C749.008 291.177 732.14 251.856 749.9 225.781C767.66 199.706 759.369 87.807 652.95 70.046C546.531 52.285 536.487 91 439.961 45.875C347.376 2.59303 257.561 24.897 207.178 74.486C154.411 126.42 158.42 149.663 130.336 160.305C102.252 170.947 2.13803 302.723 79.394 429.362Z" fill="#C9EEFF"/>
<path d="M66.2841 403.084C63.2819 400.629 61.1524 397.27 60.2123 393.508C59.2721 389.745 59.5716 385.78 61.0661 382.201C66.1561 369.074 76.6851 365.53 78.7461 360.327C78.7461 360.327 88.1631 374.967 84.1881 385.719C78.5161 401.061 66.2841 403.084 66.2841 403.084Z" fill="#06628D"/>
<path d="M55.32 422.18C53.1048 417.9 49.7541 414.312 45.635 411.81C41.516 409.307 36.7875 407.987 31.968 407.994C14.915 407.778 4.911 426.468 2 427.122C6.36098 429.162 11.3344 429.469 15.913 427.98C23.497 425.452 31.757 434.702 39.656 433.519C50.729 431.86 55.32 422.18 55.32 422.18Z" fill="#06628D"/>
<path d="M35.864 390.252C35.864 390.252 32.292 382.416 19.382 387.637C11.5348 390.886 4.80401 396.351 0.0119629 403.364C6.27756 402.155 12.6802 401.819 19.038 402.364C29.302 403.302 35.445 395.011 36.238 390.951" fill="#06628D"/>
<path d="M35.3999 365.614C30.3843 361.426 23.9471 359.334 17.4279 359.772C6.24485 360.399 0.672852 363.743 0.672852 363.743C4.77684 367.226 8.57197 371.057 12.0159 375.194C17.3829 381.73 37.7229 377.673 35.3999 365.614Z" fill="#06628D"/>
<path d="M77.336 366.38L76.7579 366.037C61.478 391.702 65.5349 410.413 68.0579 417.401C64.5388 413.777 61.4368 409.77 58.8099 405.454C50.4579 391.962 47.392 385.006 44.928 379.414C43.6062 376.186 42.0722 373.048 40.3359 370.022C39.1569 368.012 37.042 365.463 35.771 363.496C31.81 357.363 27.108 354.881 27.91 348.107L27.403 348.79C26.462 353.59 30.5369 358.082 34.7099 364.542C35.1709 365.255 35.6359 365.983 36.0989 366.71C34.7629 367.19 24.244 370.785 18.191 367.395L17.8619 367.981C24.5489 371.725 35.909 367.502 36.47 367.288C37.146 368.355 37.81 369.425 38.431 370.488C40.2232 373.616 41.8187 376.852 43.208 380.177C44.734 383.64 46.495 387.631 49.57 393.335C27.843 384.694 8.89995 396.42 8.69995 396.538L9.05895 397.105C9.24995 396.986 28.35 385.174 50.079 394.271C51.933 397.664 54.233 401.636 57.208 406.441C60.6344 412.153 64.9081 417.31 69.883 421.738C66.583 422.818 56.676 425.008 44.55 417.863C29.35 408.907 11.3859 420.856 11.2109 420.98L11.5869 421.535C11.7649 421.418 29.371 409.701 44.208 418.441C57.026 425.993 67.4739 423.296 70.4789 422.241C78.7849 429.211 85.3249 430.024 85.7299 430.067L85.9299 428.199C85.8299 428.187 78.33 427.253 69.221 418.55C66.948 413.158 60.99 393.832 77.336 366.38Z" fill="#273137"/>
<path d="M738.145 350.882C738.145 350.882 747.312 341.808 757.701 348.554C768.09 355.3 768.766 374.461 768.766 374.461C768.766 374.461 762.966 370.008 756.892 369.738C750.818 369.468 731.273 359.013 738.145 350.882Z" fill="#88BDD1"/>
<path d="M728.974 400.647C728.974 400.647 727.612 391.192 733.414 387.009C739.216 382.826 750.328 381.209 752.733 378.909C752.733 378.909 753.923 389.709 747.986 395.371C742.049 401.033 731.82 402.681 728.974 400.647Z" fill="#88BDD1"/>
<path d="M714.827 383.578C714.827 383.578 713.579 387.954 706.563 386.878C699.547 385.802 690.911 379.727 688.077 379.862C688.077 379.862 694.554 374.87 702.245 375.814C709.936 376.758 714.59 380.416 714.827 383.578Z" fill="#88BDD1"/>
<path d="M719.239 371.647C719.239 371.647 711.802 373.786 707.484 370.008C703.166 366.23 700.232 355.57 699.81 355.301C699.388 355.032 715.352 357.541 719.239 364.881C723.126 372.221 719.239 371.647 719.239 371.647Z" fill="#63AAC6"/>
<path d="M709.76 338.452C709.76 338.452 709.126 341.268 702.785 341.133C696.444 340.998 690.641 345.316 686.728 347.34C682.815 349.364 669.861 347.475 669.728 347.34C669.595 347.205 670.268 344.371 675.665 341.673C681.062 338.975 685.246 329.799 693.476 329.934C701.706 330.069 709.314 334.421 709.76 338.452Z" fill="#63AAC6"/>
<path d="M713.229 403.147C712.717 399.726 711.057 396.581 708.522 394.228C705.986 391.875 702.726 390.454 699.276 390.199C686.593 388.763 681.735 395.645 681.735 395.645C681.735 395.645 688.347 401.338 694.959 403.145C701.571 404.952 709.641 404.712 713.229 403.147Z" fill="#63AAC6"/>
<path d="M762.615 364.154C754.439 354.391 746.515 349.692 739.728 350.563C734.469 351.237 729.974 355.284 726.352 362.575C726.618 358.745 726.803 356.202 729.389 352.409C732.754 347.474 733.689 338.675 733.698 338.586L733.367 338.552C733.358 338.639 732.432 347.352 729.114 352.222C726.916 355.259 725.695 358.893 725.614 362.642C725.539 363.725 725.454 364.953 725.302 366.316C725.176 367.455 725.082 368.566 724.99 369.641C724.61 374.125 724.641 375.753 722.427 377.141C721.765 357.027 720.815 339.241 719.307 333.009L718.013 333.322C718.689 336.114 719.265 341.768 719.755 349.013C712.585 339.013 705.295 333.635 698.07 333.031C695.954 332.853 693.824 333.114 691.814 333.796C689.803 334.478 687.954 335.567 686.383 336.995L686.622 337.226C688.16 335.834 689.967 334.773 691.932 334.109C693.896 333.444 695.976 333.19 698.043 333.363C705.27 333.963 712.585 339.452 719.797 349.644C720.177 355.388 720.504 362.081 720.784 369.12C717.287 366.677 713.662 364.423 709.924 362.367L709.764 362.659C713.567 364.747 717.251 367.043 720.8 369.538C721.062 376.167 721.282 383.085 721.466 389.791C716.715 380.582 697.707 378.32 697.498 378.297L697.461 378.627C697.673 378.651 717.45 381 721.488 390.611C721.711 398.859 721.879 406.742 722.002 413.323C718.956 406.053 711.566 401.659 705.75 399.223C700.707 397.084 695.367 395.727 689.914 395.199C689.338 395.187 689.206 395.246 689.156 395.373L689.465 395.496C689.455 395.522 689.436 395.544 689.412 395.559C689.912 395.347 698.171 396.229 706.534 399.921C712.149 402.4 719.355 406.898 722.019 414.268C722.198 424.057 722.273 430.731 722.276 430.968L723.607 430.954C723.596 429.945 723.507 422.24 723.307 411.52C728.04 396.886 748.307 382.382 749.114 382.22L749.049 381.894C748.385 382.027 742.618 386.174 736.669 391.994C731.829 396.728 725.856 403.584 723.289 410.574C723.115 401.498 722.861 390.406 722.501 379.411C725.001 378.011 725.327 374.302 725.724 369.619C725.815 368.547 725.909 367.438 726.035 366.302C726.15 365.271 726.226 364.318 726.289 363.446C729.919 355.795 734.455 351.57 739.769 350.889C746.444 350.028 754.259 354.689 762.359 364.363C762.815 364.908 762.841 364.936 762.912 364.963L762.979 364.763L763.058 364.67C763.017 364.638 762.831 364.411 762.615 364.154Z" fill="#273137"/>
<path d="M720.435 427.314L74.911 427.345C71.209 427.342 67.5286 427.91 64 429.029C55.873 431.619 50.758 434.429 50.7 437.283C50.626 440.768 58.579 444.321 74.8 446.816C98.9 450.523 136.238 451.364 170.73 451.485C205.222 451.606 241.073 451.25 272.83 453.274C295.389 454.712 313.949 457.24 334.535 459.236C375.915 463.249 426.445 465.09 475.474 464.372C505.238 463.935 538.025 462.101 549.062 457.929C555.768 455.394 553.155 452.402 562.032 450.022C575.78 446.337 609.763 445.822 637.569 446.467C665.375 447.112 694.64 448.448 720.76 446.877C743.019 445.538 758.648 442.028 758.378 438.429C758.065 434.352 737.749 430.455 720.435 427.314Z" fill="#90C0D4"/>
<path d="M602.217 108.621C603.203 109.324 604.136 110.099 605.007 110.94L606.407 120.997H599.93L602.217 108.621Z" fill="#FFCBC4"/>
<path d="M559.174 162.817C559.174 162.817 579.354 153.202 579.379 153.317C579.404 153.432 589.354 167.209 585.712 175.172C585.712 175.172 562.153 182.297 561.722 181.022C561.291 179.747 560.174 163.263 560.174 163.263" fill="#F26835"/>
<path d="M706.906 104.991C706.65 104.608 704.647 96.6783 704.647 96.6783V88.8783H709.464L710.103 84.2783L725.451 87.3473C725.451 87.3473 724.94 98.4753 724.556 98.4753C724.172 98.4753 718.417 107.062 718.033 107.181C717.649 107.3 706.906 104.991 706.906 104.991Z" fill="#FFCBC4"/>
<path d="M594.064 121.094L593.105 115.769L605.404 113.521L606.745 119.022L594.064 121.094Z" fill="white"/>
<path d="M645.1 159.001L613.563 158.607L608.247 116.378C608.247 116.378 595.059 120.061 594.08 120.061C593.101 120.061 597.319 171.844 597.319 171.844L634.156 181.18L645.1 159.001Z" fill="#03658C"/>
<path d="M718.302 111.017L719.009 105.62L705.751 103.343L704.647 108.917L718.302 111.017Z" fill="white"/>
<path d="M668.938 158.139L700.632 149.457L704.598 107.183C704.598 107.183 718.013 110.283 719.058 110.283C720.103 110.283 716.285 162.138 716.285 162.138L677.751 179.706L668.938 158.139Z" fill="#03658C"/>
<path d="M614.074 414.581C614.074 414.581 595.098 415.006 591.817 418.835C590.852 420.007 590.152 421.374 589.765 422.843C589.378 424.311 589.313 425.846 589.574 427.341H628.228L627.161 413.729L614.074 414.581Z" fill="#1F272B"/>
<path d="M663.591 415.005L657.402 419.897L656.844 432.02H681.71C681.71 432.02 683.953 423.513 676.818 419.046L674.46 415.646L663.591 415.005Z" fill="#1F272B"/>
<path d="M677 256.199L677.448 414.511C672.078 417.759 667.426 417.325 664.406 416.338C663.095 415.938 661.859 415.327 660.745 414.529L646.628 286.946L629.317 414.529C627.262 416.092 624.771 416.975 622.19 417.058C618.497 417.099 614.851 416.231 611.573 414.529L623.056 250.872L677 256.199Z" fill="#324047"/>
<path d="M664.4 416.339C663.089 415.939 661.853 415.328 660.739 414.53L646.56 286.339L629.317 414.53C627.261 416.092 624.771 416.976 622.19 417.059C624.199 405.366 639.362 290.571 637.85 278.528C637.85 278.528 633.64 274.662 634.634 266.559C638.915 271.254 644.564 274.485 650.782 275.794L664.4 416.339Z" fill="#1F272B"/>
<path d="M683.294 163.583L680.643 198.844L680.429 201.65L680.146 205.45L680.08 239.816L680.059 250.752L680.053 253.64L680.045 257.821C680.045 257.821 679.001 258.021 677.166 258.321C676.179 258.478 674.966 258.662 673.566 258.866C665.81 259.954 652.275 261.366 639.651 260.296C639.307 260.268 638.972 260.231 638.628 260.204C630.918 259.465 623.611 257.758 618.278 254.436C618.278 254.436 620.413 247.469 622.693 238.036C623.01 236.763 623.316 235.436 623.62 234.077C625.327 226.846 626.637 219.526 627.544 212.151C630.987 181.66 635.715 163.13 635.715 163.13C635.715 163.13 638.037 162.013 641.398 160.546H641.408C642.338 160.14 643.346 159.715 644.402 159.282C649.024 157.301 653.805 155.714 658.695 154.538C658.763 154.529 658.821 154.511 658.89 154.501C661.257 154.141 663.674 154.312 665.966 155.001C667.993 155.544 669.972 156.254 671.882 157.123C673.472 157.823 675.004 158.59 676.399 159.347C678.774 160.631 681.075 162.045 683.294 163.583V163.583Z" fill="#03658C"/>
<path d="M666.81 178.145L669.938 183.581L642.377 209.328L633.486 184.808L638.486 177.093L634.109 173.946L641.396 160.546H641.406C642.336 160.14 643.344 159.715 644.4 159.282C649.022 157.301 653.803 155.714 658.693 154.538C661.123 154.564 663.55 154.718 665.964 155C667.991 155.543 669.97 156.253 671.88 157.122C673.47 157.822 675.002 158.589 676.397 159.346L677.753 170.088L666.81 178.145Z" fill="#00315C"/>
<path d="M671.878 157.123C670.278 168.566 660.309 182.676 652.51 192.2C647.232 198.669 642.943 203.025 642.943 203.025C642.059 199.449 641.524 195.796 641.343 192.117C640.543 178.533 643.311 164.229 644.395 159.283C649.017 157.302 653.798 155.715 658.688 154.539C658.756 154.53 658.814 154.512 658.883 154.502C661.25 154.142 663.667 154.313 665.959 155.002C667.987 155.544 669.967 156.254 671.878 157.123V157.123Z" fill="#E3E3E3"/>
<path d="M639.647 260.297C639.303 260.269 638.968 260.231 638.624 260.204C636.663 251.672 635.748 242.934 635.899 234.18C636.391 218.824 642.437 208.664 642.493 208.562L643.35 209.042C643.294 209.134 637.361 219.12 636.881 234.227C636.724 242.997 637.654 251.754 639.647 260.297V260.297Z" fill="#00315C"/>
<path d="M631.765 237.456L631.229 241.332L622.689 238.032C623.006 236.759 623.312 235.432 623.616 234.073C625.3 234.807 631.765 237.456 631.765 237.456Z" fill="#00315C"/>
<path d="M657.038 237.574C657.038 237.574 671.053 236.24 673.597 235.026L673.743 240.121C673.743 240.121 661.327 243.276 657.678 241.941L657.693 237.941" fill="#00315C"/>
<path d="M650.307 152.738L643.945 159.311L643.325 173.281L652.591 166.433L661.985 174.24L672.271 157.257L666.287 151.642C666.287 151.642 653.443 150.409 649.721 152.601" fill="white"/>
<path d="M652.591 166.429L648.759 169.853L650.639 174.51L656.615 169.716L653.028 166.429H652.591Z" fill="#03658C"/>
<path d="M652.451 171.63C652.451 171.63 652.451 172.156 652.451 173.051C652.463 176.872 652.489 187.401 652.509 192.2C647.231 198.669 642.942 203.025 642.942 203.025C642.059 199.449 641.523 195.796 641.342 192.117L650.024 172.987L650.697 171.487L652.451 171.63Z" fill="#03658C"/>
<path d="M665.708 145.846C665.708 145.846 677.472 145.564 679.542 133.646C681.612 121.728 675.786 119.979 675.786 119.979C675.786 119.979 680.186 110.236 662.248 104.527C644.31 98.818 636.467 113.694 645.93 119.401C648.582 121.077 651.542 122.206 654.637 122.72C657.732 123.233 660.898 123.122 663.949 122.392C663.949 122.392 663.665 125.929 665.914 127.254L665.708 145.846Z" fill="#949494"/>
<path d="M676.16 135.643C674.96 142.525 667.411 141.362 667.411 141.362L665.811 153.55C665.811 153.55 664.33 162.016 657.796 162.132C647.889 162.302 648.64 154.848 648.64 154.848L648.858 152.476L649.235 148.494C648.544 148.229 647.888 147.877 647.285 147.447C645.364 145.984 643.943 143.961 643.217 141.657C642.256 139.057 642.037 136.24 642.583 133.522C643.583 129.97 646.483 116.94 646.483 116.94C652.739 119.929 660.353 118.569 660.353 118.569C660.802 121.128 664.31 122.345 664.31 122.345C664.53 127.845 668.01 129.2 668.01 129.2C668.01 129.2 677.356 128.753 676.16 135.643Z" fill="#FFCBC4"/>
<path d="M656.933 149.322C656.933 149.322 655.962 152.799 648.862 152.477L649.234 148.492L649.583 148.692C650.701 149.29 651.93 149.654 653.193 149.763C654.457 149.871 655.729 149.721 656.933 149.322V149.322Z" fill="#F79085"/>
<path d="M656.615 131.313L656.704 131.425C656.823 131.619 656.997 131.773 657.204 131.868C657.286 131.903 657.371 131.93 657.459 131.947L662.3 132.924C662.53 132.962 662.765 132.941 662.984 132.861C663.197 132.763 663.377 132.606 663.502 132.409C663.627 132.211 663.692 131.981 663.689 131.748C663.662 130.24 662.62 127.708 660.02 127.748C659.935 127.757 659.849 127.759 659.763 127.756C659.088 127.783 658.435 127.999 657.877 128.379C657.318 128.758 656.877 129.286 656.602 129.903C656.557 129.985 656.518 130.071 656.484 130.16C656.408 130.347 656.381 130.551 656.404 130.753C656.426 130.954 656.499 131.146 656.615 131.313V131.313Z" fill="white"/>
<path d="M644.592 128.885L644.674 128.996C644.729 129.101 644.804 129.194 644.896 129.269C645.018 129.385 645.17 129.465 645.334 129.498L649.641 130.368C649.847 130.404 650.058 130.376 650.247 130.289C650.447 130.179 650.614 130.016 650.729 129.818C650.844 129.62 650.903 129.395 650.9 129.166C650.9 127.666 650.019 125.166 647.706 125.26C647.63 125.269 647.552 125.274 647.475 125.274C646.842 125.344 646.239 125.586 645.735 125.976C645.23 126.365 644.842 126.886 644.614 127.481C644.569 127.564 644.534 127.651 644.508 127.741C644.436 127.926 644.406 128.125 644.42 128.323C644.435 128.521 644.494 128.713 644.592 128.885V128.885Z" fill="white"/>
<path d="M652.093 136.75C651.922 136.693 647.917 135.31 648.305 132.694C648.323 132.372 648.421 132.061 648.59 131.787C648.759 131.513 648.994 131.286 649.273 131.126C649.839 130.896 650.472 130.896 651.037 131.126L652.215 126.76L652.971 126.986L651.554 132.238L651.126 132.012C650.901 131.883 650.652 131.801 650.394 131.771C650.136 131.741 649.875 131.764 649.626 131.838C649.461 131.946 649.325 132.092 649.229 132.265C649.133 132.437 649.08 132.63 649.075 132.828C648.786 134.775 652.283 135.984 652.319 135.995L652.093 136.75Z" fill="#F79085"/>
<path d="M653.838 142.628C652.947 142.444 652.076 142.173 651.238 141.818L651.538 141.092C651.029 140.887 656.772 143.475 658.158 140.783L658.858 141.163C657.9 142.999 655.651 142.994 653.838 142.628Z" fill="#F79085"/>
<path d="M670.433 137.115L670.046 136.415C670.685 135.878 671.236 135.244 671.678 134.536C671.663 134.201 671.579 133.872 671.433 133.57C671.287 133.268 671.081 132.999 670.828 132.779L671.328 132.179C671.681 132.481 671.965 132.855 672.161 133.277C672.356 133.698 672.459 134.157 672.462 134.622C672.362 135.175 672.123 135.693 671.768 136.129C671.414 136.565 670.954 136.904 670.433 137.115V137.115Z" fill="#F79085"/>
<path d="M657.73 125.518C657.73 125.518 661.668 124.601 664.185 126.999C664.14 126.231 663.861 125.495 663.386 124.889C662.912 124.284 662.263 123.838 661.528 123.61C658.951 122.838 657.73 125.518 657.73 125.518Z" fill="#949494"/>
<path d="M645.1 123.044C645.1 123.044 649.037 122.127 651.554 124.525C651.509 123.757 651.231 123.021 650.756 122.415C650.282 121.81 649.633 121.363 648.898 121.136C646.315 120.366 645.1 123.044 645.1 123.044Z" fill="#949494"/>
<path d="M657.076 130.52C656.996 130.972 657.041 131.438 657.206 131.868C657.288 131.904 657.373 131.93 657.461 131.947L660.695 132.599C660.974 132.296 661.171 131.926 661.268 131.526C661.365 131.125 661.358 130.707 661.247 130.31C661.137 129.913 660.928 129.551 660.639 129.257C660.35 128.964 659.99 128.749 659.595 128.633C659.305 128.585 659.008 128.596 658.723 128.666C658.437 128.736 658.169 128.862 657.933 129.039C657.698 129.215 657.501 129.437 657.353 129.692C657.206 129.946 657.112 130.228 657.076 130.52Z" fill="#3F5B73"/>
<path d="M644.85 128.173C644.788 128.539 644.803 128.914 644.896 129.273C645.018 129.389 645.169 129.469 645.334 129.502L648.574 130.156C648.837 129.832 649.01 129.443 649.074 129.03C649.197 128.441 649.087 127.827 648.768 127.316C648.449 126.805 647.945 126.438 647.362 126.289C647.073 126.244 646.777 126.257 646.493 126.327C646.209 126.398 645.942 126.525 645.708 126.701C645.474 126.876 645.277 127.097 645.13 127.35C644.983 127.603 644.887 127.883 644.85 128.173V128.173Z" fill="#3F5B73"/>
<path d="M668.938 127.834L667.449 134.646L664.728 136.777L665.59 125.921L668.938 127.834Z" fill="#949494"/>
<path d="M653.179 137.861C652.963 137.899 653.021 139.901 653.021 139.901L659.062 139.98C659.062 139.98 656.4 137.294 653.179 137.861Z" fill="#949494"/>
<path d="M651.038 137.507C651.215 137.624 650.512 139.472 650.512 139.472L645.192 137.258C645.192 137.258 648.4 135.756 651.038 137.507Z" fill="#949494"/>
<path d="M645.986 119.753C651.904 121.651 658.102 122.53 664.315 122.353L662.515 115.785L648.596 113.385L644.857 113.976C644.857 113.976 644.064 114.954 644.344 115.735L645.986 119.753Z" fill="#949494"/>
<path d="M512.818 177.254L498.518 174.722C497.238 174.493 496.044 173.924 495.06 173.074C494.077 172.225 493.34 171.126 492.927 169.893C492.143 167.529 491.078 164.313 489.879 160.705C485.454 147.395 478.372 123.351 478.372 123.171C472.434 118.286 474.193 103.9 474.193 103.9L471.369 95.6314C471.245 95.26 471.273 94.8545 471.447 94.5038C471.622 94.1531 471.928 93.8858 472.299 93.7604L480.815 90.8804C481.169 90.763 481.555 90.7845 481.894 90.9407C482.233 91.0968 482.5 91.3759 482.641 91.7214L486.047 99.9784L487.156 110.264L489.487 107.295L489.308 100.516L492.041 99.6764C492.041 99.6764 493.352 108.415 493.352 109.569C493.352 110.723 489.576 119.269 489.576 119.269L502.484 154.596C502.921 155.683 503.615 156.648 504.507 157.407C505.399 158.166 506.462 158.698 507.605 158.955C509.565 159.391 511.672 159.896 512.198 160.097L512.647 172.433L512.818 177.254Z" fill="#A6716B"/>
<path d="M512.818 177.254L498.518 174.722C497.238 174.493 496.044 173.924 495.06 173.074C494.077 172.224 493.34 171.126 492.927 169.893C492.143 167.529 491.078 164.313 489.879 160.705C492.019 164.905 494.759 170.737 497.218 170.364C499.573 170.006 506.318 170.927 512.647 172.436L512.818 177.254Z" fill="#965E58"/>
<path d="M529.154 178.738H505.692C504.459 168.89 510.016 158.492 510.016 158.492L512.816 158.792L534.104 161.092L534.955 161.148C535.809 161.198 529.154 178.738 529.154 178.738Z" fill="#F26835"/>
<path d="M576.874 127.739C576.809 128.008 576.702 128.266 576.557 128.503C575.972 129.565 575.386 130.636 574.8 131.703C574.598 132.142 574.307 132.534 573.946 132.854C573.642 133.08 573.278 133.212 572.899 133.231C572.52 133.25 572.144 133.157 571.819 132.963C571.571 133.272 571.258 133.524 570.903 133.699C570.547 133.875 570.157 133.971 569.761 133.98C569.594 133.987 569.426 133.978 569.261 133.951C568.79 133.873 568.35 133.669 567.985 133.361C567.621 133.053 567.347 132.652 567.192 132.201C567.162 132.484 567.037 132.749 566.837 132.952C566.638 133.155 566.375 133.284 566.092 133.318C565.518 133.388 564.937 133.263 564.442 132.963C563.65 132.547 562.978 131.937 562.488 131.189C561.998 130.442 561.707 129.581 561.642 128.69C561.146 128.75 560.645 128.635 560.225 128.363C559.806 128.092 559.495 127.682 559.347 127.205C559.107 126.252 559.112 125.255 559.363 124.305L560.621 120.114C560.401 119.677 560.291 119.192 560.301 118.703C560.311 118.213 560.441 117.734 560.679 117.306C560.793 117.098 560.933 116.905 561.097 116.734C561.538 116.294 562.095 115.989 562.704 115.857C563.312 115.724 563.946 115.769 564.53 115.986C564.854 115.35 565.367 114.83 566 114.5C566.32 114.346 566.686 114.313 567.028 114.408C567.371 114.502 567.668 114.718 567.864 115.014C568.008 114.282 569.001 114.007 569.748 114.171C570.495 114.335 571.181 114.782 571.955 114.88C572.237 114.885 572.516 114.938 572.78 115.036C573.149 115.214 573.318 115.624 573.539 115.959C573.939 116.604 574.563 117.101 574.962 117.746C575.195 118.046 575.317 118.416 575.309 118.795C575.302 119.175 575.164 119.54 574.919 119.83C575.267 119.937 575.585 120.126 575.846 120.38C576.107 120.635 576.303 120.948 576.419 121.293C576.535 121.639 576.566 122.007 576.511 122.367C576.456 122.728 576.316 123.069 576.103 123.365C576.548 123.746 576.828 124.286 576.883 124.87C576.937 125.454 576.762 126.036 576.395 126.493C576.578 126.64 576.718 126.832 576.803 127.051C576.887 127.27 576.911 127.507 576.874 127.739V127.739Z" fill="#263238"/>
<path d="M569.761 133.984C569.594 133.991 569.426 133.981 569.261 133.955C568.79 133.876 568.35 133.673 567.985 133.365C567.621 133.056 567.347 132.656 567.192 132.205C567.162 132.488 567.037 132.753 566.837 132.956C566.638 133.159 566.375 133.288 566.092 133.322C565.518 133.391 564.937 133.266 564.442 132.967C563.65 132.551 562.978 131.941 562.488 131.193C561.998 130.445 561.707 129.585 561.642 128.694C561.146 128.754 560.645 128.638 560.225 128.367C559.806 128.096 559.495 127.686 559.347 127.209C559.107 126.256 559.112 125.258 559.363 124.309L560.621 120.118C560.401 119.68 560.291 119.196 560.301 118.706C560.311 118.217 560.441 117.737 560.679 117.31C561.397 117.75 561.976 118.384 562.349 119.139C562.722 119.894 562.874 120.739 562.787 121.577C563.039 121.421 563.321 121.317 563.614 121.271C563.907 121.225 564.206 121.238 564.495 121.309C564.783 121.38 565.054 121.509 565.292 121.686C565.529 121.864 565.729 122.087 565.88 122.343C566.459 123.424 566.689 124.657 566.539 125.875C568.982 126.144 570.296 129.713 568.639 131.559C569.248 132.236 569.639 133.081 569.761 133.984Z" fill="#182024"/>
<path d="M517.417 134.209C517.228 134.852 517.268 135.539 517.528 136.156C517.788 136.773 518.253 137.281 518.845 137.594C518.251 138.047 517.808 138.67 517.574 139.379C517.341 140.089 517.327 140.852 517.536 141.569C517.781 142.284 518.23 142.91 518.828 143.37C519.426 143.831 520.147 144.105 520.9 144.159C520.433 144.531 520.094 145.039 519.927 145.612C519.761 146.185 519.777 146.795 519.972 147.359C520.197 147.92 520.585 148.399 521.086 148.736C521.587 149.073 522.178 149.251 522.782 149.248C522.717 149.986 522.857 150.726 523.187 151.389C523.517 152.052 524.023 152.61 524.65 153.003C525.296 153.389 526.033 153.598 526.786 153.607C527.539 153.616 528.281 153.426 528.937 153.056C528.951 154.975 531.519 155.666 533.488 155.784L539.523 156.146C540.275 156.17 541.025 156.259 541.762 156.412C542.413 156.623 543.079 156.781 543.755 156.887C545.873 157.046 547.618 155.174 549.726 154.92C551.526 154.704 553.612 155.63 555.013 154.515C555.894 153.815 556.269 152.424 557.391 152.241C558.135 152.12 558.882 152.631 559.62 152.481C560.555 152.292 560.932 151.216 561.62 150.567C562.313 150.065 563.065 149.65 563.859 149.329C565.959 148.141 566.793 145.639 567.451 143.36C567.851 141.985 568.051 140.139 566.751 139.478C567.277 139.066 567.713 138.55 568.033 137.962C568.352 137.375 568.548 136.728 568.608 136.062C568.668 135.396 568.591 134.725 568.382 134.09C568.173 133.455 567.836 132.869 567.392 132.369C569.134 130.525 567.752 126.948 565.192 126.677C565.35 125.458 565.108 124.221 564.502 123.151C564.166 122.628 563.641 122.256 563.036 122.113C562.431 121.969 561.795 122.066 561.26 122.382C561.52 120.394 560.96 117.804 558.989 117.218C559.404 115.018 556.968 113.156 554.722 112.671C554.69 111.93 554.438 111.215 553.998 110.617C553.558 110.02 552.949 109.567 552.251 109.317C550.827 108.823 549.32 108.612 547.815 108.697L539.026 108.626C538.395 108.588 537.761 108.65 537.15 108.81C536.664 108.97 536.228 109.255 535.888 109.637C535.547 110.019 535.314 110.485 535.212 110.986C534.709 110.804 534.174 110.731 533.641 110.772C533.109 110.812 532.591 110.966 532.122 111.223C531.653 111.479 531.244 111.833 530.923 112.26C530.602 112.687 530.375 113.177 530.258 113.698C529.74 113.536 529.194 113.48 528.654 113.535C528.114 113.59 527.59 113.754 527.115 114.017C526.64 114.281 526.224 114.638 525.892 115.067C525.559 115.496 525.317 115.989 525.181 116.514C524.754 116.27 524.262 116.165 523.773 116.215C523.284 116.265 522.823 116.467 522.455 116.792C522.108 117.128 521.881 117.568 521.81 118.045C521.739 118.522 521.828 119.01 522.062 119.431C521.659 119.553 521.297 119.781 521.014 120.092C520.731 120.403 520.537 120.784 520.454 121.197C520.371 121.609 520.401 122.036 520.541 122.432C520.682 122.828 520.927 123.179 521.251 123.447C520.355 124.128 519.666 125.044 519.26 126.093C518.853 127.143 518.747 128.284 518.951 129.39C519.203 130.621 519.973 131.116 519.525 132.201C519.218 132.95 517.766 133.146 517.417 134.209Z" fill="#263238"/>
<path d="M539.43 365.951C538.675 371.757 538.193 379.139 537.895 386.535C537.228 402.56 537.395 418.603 537.395 418.603L528.139 418.107L527.809 420.885C527.809 420.885 511.161 423.464 507.238 419.75C503.315 416.036 503.908 416.241 503.908 416.241L508.276 414.529L523.376 412.801L519.243 352.34L518.622 343.34L539.34 339.146C540.474 348.043 540.505 357.046 539.43 365.951Z" fill="#A6716B"/>
<path d="M537.239 412.892C537.239 412.892 515.094 421.912 510.939 419.413C506.784 416.914 508.4 414.239 508.4 414.239C508.4 414.239 497.513 414.154 496.275 425.396C496.241 425.638 496.258 425.885 496.326 426.121C496.394 426.357 496.51 426.575 496.668 426.763C496.826 426.951 497.021 427.103 497.241 427.211C497.461 427.318 497.702 427.378 497.947 427.387L539.104 427.711C539.104 427.711 542.778 416.299 537.239 412.892Z" fill="#263238"/>
<path d="M575.9 408.646L576.81 411.293C576.81 411.293 562.923 420.65 557.754 418.953C552.585 417.256 553.2 417.18 553.2 417.18L556.383 413.803L569.265 405.864L541.465 357.383L534.465 345.193L551.3 332.668C556.232 340.197 560.217 348.306 563.165 356.811C564.554 360.928 566.45 365.761 568.559 370.756C575.439 387.122 584.465 405.19 584.465 405.19L575.9 408.646Z" fill="#A6716B"/>
<path d="M581.819 400.102C581.819 400.102 565.792 417.584 560.944 417.081C556.096 416.578 556.375 413.481 556.375 413.481C556.375 413.481 546.511 417.996 550.333 428.665C550.409 428.899 550.534 429.114 550.698 429.298C550.862 429.482 551.062 429.63 551.286 429.732C551.51 429.835 551.753 429.89 551.999 429.894C552.245 429.898 552.49 429.851 552.717 429.756L590.01 412.685C590.01 412.685 588.315 400.839 581.819 400.102Z" fill="#263238"/>
<path d="M539.43 365.951C538.675 371.757 538.193 379.139 537.895 386.535C537.516 376.765 536.836 365.096 535.036 359.802C532.567 352.535 523.761 352.065 519.241 352.34L518.62 343.34L539.338 339.146C540.473 348.043 540.504 357.046 539.43 365.951V365.951Z" fill="#965E58"/>
<path d="M568.564 370.756C565.986 367.125 563.186 363.657 560.18 360.371C554.17 353.91 545.928 355.822 541.459 357.383L534.459 345.193L551.3 332.668C556.232 340.197 560.217 348.306 563.165 356.811C564.559 360.928 566.455 365.761 568.564 370.756Z" fill="#965E58"/>
<path d="M569.876 262.017C566.142 285.848 564.002 348.017 563.984 350.092C563.966 352.167 540.491 349.456 529.56 348.336C518.629 347.216 515.442 348.576 515.442 348.576C515.442 348.576 515.188 345.884 514.817 341.294C512.841 316.686 507.658 237.367 521.765 223.787L553.765 224.671L561.876 224.895C561.876 224.895 573.6 238.177 569.876 262.017Z" fill="#37474F"/>
<path d="M569.876 262.018C566.142 285.849 564.002 348.018 563.984 350.093C563.966 352.168 540.491 349.457 529.56 348.337C518.629 347.217 515.442 348.577 515.442 348.577C515.442 348.577 515.188 345.885 514.817 341.295C519.826 339.433 524.968 337.95 530.2 336.859C553.118 331.639 558.506 299.992 561.514 269.882C563.694 248.148 557.806 231.991 553.77 224.672L561.881 224.896C561.881 224.896 573.6 238.178 569.876 262.018Z" fill="#2C3940"/>
<path d="M561.877 224.892L551.443 224.601L521.761 223.784C521.761 223.784 523.106 211.358 523.146 206.533C521.35 205.055 519.66 203.453 518.089 201.738C516.821 200.352 515.876 198.703 515.321 196.909C514.766 195.115 514.614 193.22 514.878 191.36C515.501 186.972 516.643 183.188 522.33 175.523L526.946 167.19L527.346 166.468C528.269 164.799 529.614 163.402 531.246 162.415C532.122 161.878 533.087 161.501 534.096 161.303C537.222 160.642 540.383 160.153 543.563 159.836C546.829 159.536 551.34 160.572 555.48 161.863C557.249 162.419 558.949 163.016 560.451 163.586C563.841 164.863 561.824 198.956 561.824 198.956C561.824 198.956 561.788 199.189 561.715 199.614C561.679 199.822 561.634 200.08 561.588 200.379C560.82 205.128 558.651 220.407 561.877 224.892Z" fill="#F26835"/>
<g style="mix-blend-mode:multiply" opacity="0.61">
<path d="M551.444 224.603C554.556 218.766 557.275 209.723 555.344 203.886C552.406 195.029 558.744 185.754 558.744 185.754L560.14 199.139L561.594 200.386C560.817 205.137 558.65 220.408 561.88 224.9L551.444 224.603Z" fill="#ECD9CE"/>
</g>
<path d="M552.008 145.981L552.138 159.804C552.138 159.804 552.497 163.42 546.175 164.746C536.591 166.758 536.499 161.799 536.499 161.799L536.335 159.479L536.06 155.579C529.473 154.403 526.798 146.051 527.207 142.44C527.495 139.903 527.945 132.669 528.183 128.626L528.391 125.847C528.433 126.216 528.593 126.562 528.847 126.834C529.101 127.105 529.436 127.287 529.802 127.354C530.2 127.403 530.602 127.315 530.943 127.104C531.284 126.893 531.543 126.572 531.676 126.194C531.486 126.894 532.176 127.553 532.882 127.8C533.954 128.189 535.432 127.89 535.789 126.819C535.89 127.281 536.15 127.692 536.524 127.982C536.898 128.271 537.362 128.419 537.835 128.401C538.307 128.369 538.766 128.236 539.181 128.01C539.597 127.785 539.959 127.473 540.243 127.095C540.175 127.877 541.102 128.456 541.892 128.362C542.677 128.192 543.393 127.792 543.95 127.214C543.996 127.548 544.142 127.861 544.368 128.112C544.594 128.362 544.891 128.539 545.219 128.619C545.89 128.769 546.592 128.652 547.178 128.293C547.071 128.633 547.05 128.994 547.114 129.344C547.179 129.695 547.329 130.024 547.55 130.304C547.781 130.582 548.074 130.801 548.406 130.943C548.738 131.085 549.099 131.146 549.459 131.122C549.234 131.697 549.24 132.337 549.475 132.909C549.598 133.196 549.807 133.437 550.074 133.599C550.341 133.761 550.652 133.836 550.963 133.814C551.256 133.768 551.53 133.641 551.755 133.449C553.724 133.113 560.173 132.431 560.125 138.232C560.067 145.06 552.008 145.981 552.008 145.981Z" fill="#A6716B"/>
<path d="M543.631 154.933C543.631 154.933 543.246 158.453 536.306 159.464L536.03 155.569L536.4 155.695C537.595 156.061 538.851 156.182 540.093 156.051C541.336 155.92 542.539 155.54 543.631 154.933V154.933Z" fill="#965E58"/>
<path d="M547.237 136.707C547.044 136.821 546.824 136.883 546.599 136.886L544.392 136.875L543.372 136.864H542.857L541.848 136.852H541.748C541.595 136.85 541.443 136.817 541.303 136.755C541.162 136.694 541.036 136.605 540.93 136.494L540.807 136.37C540.669 136.235 540.569 136.068 540.517 135.883C540.464 135.698 540.461 135.503 540.507 135.317C540.529 135.228 540.551 135.138 540.585 135.037C540.676 134.678 540.828 134.337 541.033 134.029C541.05 133.994 541.068 133.961 541.089 133.929C541.115 133.885 541.145 133.844 541.179 133.806V133.795C541.214 133.738 541.255 133.685 541.302 133.638C541.808 133.013 542.511 132.579 543.296 132.405C543.385 132.373 543.475 132.347 543.566 132.327C543.602 132.317 543.64 132.314 543.677 132.316H543.711C543.793 132.302 543.875 132.295 543.958 132.293C544.092 132.282 544.226 132.271 544.35 132.271H544.439C545.266 132.377 546.037 132.747 546.636 133.326C547.236 133.905 547.633 134.663 547.767 135.486C547.805 135.718 547.775 135.957 547.681 136.174C547.587 136.39 547.433 136.575 547.237 136.707V136.707Z" fill="white"/>
<path d="M534.487 136.605C534.313 136.718 534.111 136.78 533.904 136.784L532.392 136.773H531.753L530.521 136.762L529.714 136.751H529.6C529.458 136.748 529.318 136.715 529.191 136.653C529.063 136.591 528.95 136.502 528.86 136.392L528.771 136.28C528.645 136.137 528.555 135.966 528.508 135.781C528.461 135.596 528.459 135.402 528.502 135.216C528.513 135.126 528.535 135.047 528.547 134.935C528.614 134.735 528.692 134.487 528.793 134.241V134.218C528.86 134.095 528.939 133.949 529.017 133.818C529.09 133.699 529.172 133.587 529.264 133.482C529.264 133.471 529.264 133.471 529.275 133.46C529.703 132.903 530.299 132.498 530.975 132.305C531.053 132.294 531.132 132.249 531.188 132.238C531.244 132.227 531.311 132.216 531.356 132.204C531.541 132.171 531.729 132.16 531.916 132.171C532.048 132.174 532.179 132.189 532.308 132.216H532.32C533.854 132.516 534.728 134.216 534.93 135.387C534.972 135.611 534.953 135.842 534.875 136.057C534.797 136.271 534.663 136.46 534.487 136.605V136.605Z" fill="white"/>
<path d="M537.3 142.454C537.125 142.431 533.017 141.848 532.975 139.264C532.943 138.948 532.989 138.629 533.109 138.335C533.228 138.041 533.419 137.781 533.663 137.578C534.171 137.253 534.783 137.136 535.375 137.251L535.818 132.84L536.588 132.917L536.054 138.224L535.603 138.086C535.362 138.004 535.106 137.972 534.853 137.991C534.599 138.01 534.351 138.08 534.125 138.197C533.983 138.33 533.875 138.495 533.809 138.678C533.744 138.861 533.723 139.057 533.749 139.25C533.78 141.173 537.367 141.684 537.403 141.688L537.3 142.454Z" fill="#69423D"/>
<path d="M554.883 141.066L554.395 140.466C554.929 139.834 555.361 139.123 555.678 138.358C555.61 138.041 555.477 137.741 555.286 137.477C555.096 137.214 554.853 136.994 554.572 136.83L554.956 136.158C555.346 136.383 555.682 136.69 555.94 137.059C556.198 137.428 556.371 137.85 556.447 138.293C556.436 138.849 556.287 139.393 556.015 139.877C555.742 140.361 555.353 140.769 554.883 141.066Z" fill="#69423D"/>
<path d="M540.974 130.619C540.974 130.619 544.647 129.006 547.474 130.841C547.308 130.112 546.918 129.454 546.359 128.959C545.799 128.463 545.098 128.156 544.355 128.081C541.729 127.821 540.974 130.619 540.974 130.619Z" fill="#263238"/>
<path d="M560.454 163.59C560.378 163.768 560.281 163.936 560.165 164.09C559.094 165.54 556.844 165.864 555.884 167.39C555.047 168.7 555.366 170.653 554.11 171.602C552.758 172.641 550.665 171.666 549.075 172.329C548.054 172.94 547.24 173.843 546.737 174.92C546.1 175.906 545.127 176.907 543.923 176.815C542.589 176.715 541.723 175.289 540.416 174.995C539.416 174.904 538.409 175.092 537.51 175.539C537.06 175.754 536.562 175.852 536.064 175.823C535.566 175.794 535.084 175.64 534.661 175.375C533.986 174.786 533.849 173.685 533.025 173.336C532.081 172.945 531.101 173.863 530.076 173.913C529.833 173.917 529.591 173.869 529.367 173.775C529.142 173.68 528.94 173.54 528.773 173.363C528.605 173.186 528.476 172.977 528.393 172.748C528.31 172.519 528.276 172.275 528.292 172.032C528.402 171.241 529.092 170.48 528.792 169.732C528.573 169.172 527.892 168.925 527.468 168.488C527.299 168.317 527.166 168.114 527.076 167.891C526.986 167.668 526.942 167.429 526.945 167.188L527.345 166.466C528.268 164.797 529.613 163.4 531.245 162.413C532.121 161.876 533.086 161.499 534.095 161.301C537.222 160.64 540.382 160.151 543.562 159.834C546.828 159.534 551.339 160.57 555.479 161.861C557.252 162.423 558.952 163.02 560.454 163.59Z" fill="white"/>
<path d="M528.32 130.593C528.32 130.593 531.993 128.98 534.82 130.815C534.654 130.086 534.264 129.428 533.704 128.933C533.144 128.438 532.443 128.13 531.7 128.054C529.076 127.794 528.32 130.593 528.32 130.593Z" fill="#263238"/>
<path d="M536.886 171.665L531.451 181.165C531.451 181.165 537.39 181.882 541.142 172.285L537.373 171.666" fill="white"/>
<path d="M555.485 161.652C553.56 166.267 548.633 174.168 538.445 172.926C530.432 171.949 530.115 165.114 531.245 162.218C532.119 161.671 533.085 161.287 534.096 161.085C537.221 160.411 540.382 159.91 543.563 159.585C546.834 159.283 551.345 160.338 555.485 161.652Z" fill="#A6716B"/>
<path d="M537.364 175.61C537.944 175.61 538.415 175.155 538.415 174.593C538.415 174.031 537.944 173.576 537.364 173.576C536.784 173.576 536.313 174.031 536.313 174.593C536.313 175.155 536.784 175.61 537.364 175.61Z" fill="#F26835"/>
<path d="M535.674 178.734C536.255 178.734 536.725 178.279 536.725 177.717C536.725 177.156 536.255 176.7 535.674 176.7C535.094 176.7 534.623 177.156 534.623 177.717C534.623 178.279 535.094 178.734 535.674 178.734Z" fill="#F26835"/>
<path d="M509.266 178.738H505.692C504.459 168.89 510.016 158.492 510.016 158.492L512.816 158.792C510.913 163.607 508.5 172.038 509.266 178.738Z" fill="white"/>
<path d="M533.15 146.046C533.138 146.141 533.142 146.236 533.162 146.329C533.621 147.455 534.447 148.393 535.506 148.991C535.551 149.013 535.596 149.035 535.635 149.05C536.533 149.381 537.491 149.515 538.445 149.442C539.398 149.37 540.326 149.093 541.163 148.631C541.694 148.26 542.121 147.759 542.405 147.177C542.746 146.5 542.851 145.728 542.705 144.984C542.687 144.898 542.67 144.805 542.645 144.718C542.63 144.666 542.614 144.618 542.599 144.566C542.59 144.522 542.572 144.481 542.546 144.445C542.519 144.409 542.485 144.379 542.445 144.358C542.367 144.331 542.283 144.326 542.203 144.343C539.47 144.711 536.619 144.92 533.927 145.422C533.42 145.516 533.187 145.745 533.15 146.046Z" fill="#360F19"/>
<path d="M535.506 148.992C535.551 149.014 535.596 149.036 535.635 149.051C536.532 149.381 537.491 149.515 538.444 149.443C539.398 149.371 540.325 149.094 541.163 148.632C541.693 148.26 542.121 147.76 542.405 147.178C541.985 146.903 541.512 146.719 541.017 146.637C540.521 146.554 540.014 146.576 539.528 146.701C538.028 147.246 537.9 148.238 537.893 148.301C537.827 148.104 537.821 147.891 537.874 147.691C537.927 147.49 538.038 147.309 538.193 147.17C537.601 147.101 537.004 147.248 536.511 147.582C536.018 147.916 535.661 148.417 535.506 148.992V148.992Z" fill="#A35368"/>
<path d="M533.15 146.046C534.161 146.228 535.187 146.304 536.214 146.272C538.447 146.257 540.647 145.725 542.641 144.718C542.626 144.666 542.61 144.618 542.595 144.566C542.586 144.522 542.568 144.481 542.541 144.445C542.515 144.409 542.48 144.379 542.441 144.358C542.363 144.331 542.279 144.326 542.199 144.343C539.466 144.711 536.615 144.92 533.923 145.422C533.42 145.516 533.187 145.745 533.15 146.046Z" fill="white"/>
<path d="M532.974 134.543C532.991 135.326 532.789 136.098 532.392 136.773H531.753L530.521 136.762L529.714 136.751C529.326 136.081 529.129 135.317 529.142 134.543C529.142 134.185 529.184 133.828 529.266 133.479C529.266 133.468 529.266 133.468 529.277 133.457C529.705 132.9 530.301 132.495 530.977 132.302C531.055 132.291 531.134 132.246 531.19 132.235C531.246 132.224 531.313 132.213 531.358 132.201C531.543 132.168 531.731 132.157 531.918 132.168C532.05 132.171 532.181 132.186 532.31 132.213H532.322C532.769 132.906 532.996 133.718 532.974 134.543V134.543Z" fill="#263238"/>
<path d="M545.041 134.544C545.064 135.368 544.838 136.181 544.392 136.875L543.372 136.864H542.857L541.848 136.852C541.412 136.162 541.19 135.359 541.21 134.544C541.211 134.239 541.241 133.935 541.299 133.637C541.805 133.012 542.508 132.578 543.293 132.404C543.381 132.372 543.472 132.346 543.563 132.326C543.599 132.316 543.637 132.313 543.674 132.315H543.708C543.79 132.301 543.872 132.294 543.955 132.292C544.089 132.281 544.223 132.27 544.347 132.27H544.436C544.848 132.955 545.058 133.744 545.041 134.544V134.544Z" fill="#263238"/>
<path d="M576.892 156.894L584.892 153.322L591.114 106.308L603.736 107.553C603.736 107.553 598.647 165.226 598.047 165.226C597.447 165.226 584.714 171.969 583.826 171.493C582.938 171.017 579.995 158.181 579.204 157.199" fill="#A6716B"/>
<path d="M591.554 108.621C590.888 108.002 588.664 102.47 588.465 102.071C588.527 98.7726 588.76 95.4798 589.165 92.2059C589.365 91.0059 605.906 89.7139 605.906 89.7139L607.717 97.2879L603.736 108.621L592.154 108.805" fill="#A6716B"/>
<path d="M592.152 106.457C590.941 105.886 589.699 105.387 588.43 104.962C587.768 104.862 584.28 117.873 584.28 117.873L589.168 120.998C589.168 120.998 595.042 116.223 592.75 106.756" fill="#FFCBC4"/>
<path d="M337.64 192.558C334.775 193.658 331.428 194.238 328.749 192.681C327.393 191.772 326.214 190.622 325.271 189.289C323.235 186.756 323.607 192.133 321.571 189.599C321.083 188.992 323.089 189.257 322.95 188.481C322.804 187.657 319.924 184.854 320.939 175.99C321.851 168.023 322.097 161.299 320.291 153.442C319.113 148.315 316.729 143.151 317.824 138.017C318.305 135.76 319.455 133.701 321.124 132.108C322.516 130.792 324.81 129.92 326.192 131.263C326.261 127.242 328.997 124.597 332.476 122.864C336.456 120.738 340.904 119.638 345.416 119.664C347.685 119.704 349.921 120.211 351.986 121.154C354.05 122.096 355.899 123.453 357.416 125.14C360.516 128.783 361.646 133.908 361.274 138.741C361.056 141.569 360.369 144.332 360.024 147.146C359.562 150.934 359.722 154.774 360.5 158.511C361.663 164.088 364.2 169.632 363.25 175.24C362.593 178.401 361.163 181.35 359.089 183.824C356.757 186.929 353.747 189.462 350.289 191.229C346.309 192.961 341.893 193.424 337.64 192.558V192.558Z" fill="#263238"/>
<path d="M86.1991 400.749L83.1221 416.658L95.7901 418.179L99.1151 400.849L86.1991 400.749Z" fill="#F7A9A0"/>
<path d="M174.356 400.727C174.056 400.727 177.641 415.277 177.641 415.277L190.66 416.091L187.8 400.091L174.356 400.727Z" fill="#F7A9A0"/>
<path d="M82.562 412.863L97.251 414.963L98.271 420.138C98.271 420.138 101.501 425.197 98.904 429.813L78.062 429.653C78.062 429.653 74.4049 423.991 79.5359 419.745L82.562 412.863Z" fill="#1E272B"/>
<path d="M175.084 411.427C176.728 411.3 191.502 413.081 191.502 413.081L194.445 416.904C194.445 416.904 210.957 417.921 209.383 428.939C209.383 428.939 176.989 428.617 177.199 428.624L175.078 412.131" fill="#1E272B"/>
<path d="M191.28 404.193C188.394 407.339 182.661 407.024 178.368 406.193C176.514 405.836 174.686 405.35 172.9 404.738L135.344 290.607L101.177 405.398C98.5446 407.159 95.3638 407.909 92.222 407.508C88.597 406.98 85.1619 405.552 82.23 403.356C82.23 403.356 103.13 267.239 104.294 266.305L163.213 262.835L191.28 404.193Z" fill="#324047"/>
<path d="M178.982 405.995C178.766 406.017 178.557 406.083 178.368 406.19C176.514 405.834 174.686 405.349 172.9 404.738L135.344 290.607L101.177 405.398C98.5445 407.159 95.3638 407.909 92.2219 407.508L134.261 284.356L151.278 280.164L142.526 289.508C142.526 289.508 180.466 405.971 178.982 405.995Z" fill="#1E272B"/>
<path d="M372.934 331.382C372.647 368.789 365.053 412.888 365.053 412.888C365.053 412.888 362.742 414.802 356.24 413.28C355.664 413.146 355.052 412.988 354.406 412.795C354.406 412.795 351.96 344.731 351.968 343.742C351.968 343.377 349.879 330.487 347.268 314.259C342.806 286.475 336.828 248.891 337.25 247.599C337.914 245.542 355.941 240.121 368.527 243.822C368.529 243.822 373.221 293.976 372.934 331.382Z" fill="#37474F"/>
<path d="M358.392 336.948L356.24 413.28C355.664 413.146 355.052 412.988 354.406 412.795C354.406 412.795 351.96 344.731 351.968 343.742C351.968 343.377 349.879 330.487 347.268 314.259L344.968 274.984L358.948 264.337L355.191 275.098C355.191 275.098 359.834 305.557 361.62 321.39C363.406 337.223 358.392 336.948 358.392 336.948Z" fill="#2C3940"/>
<path d="M356.288 411.338L354.104 417.085L354.024 427.572L389.141 427.842L389.157 425.793C389.163 425.002 388.935 424.227 388.501 423.566C388.066 422.905 387.446 422.387 386.718 422.079L365.049 412.885L356.288 411.338Z" fill="#1E272B"/>
<path d="M356.8 326.865C351.207 337.365 337.784 336.778 337.784 336.778L289.979 308.684C288.659 304.151 289.342 301.012 290.454 298.959C291.188 297.562 292.304 296.403 293.671 295.615L332.5 310.648C325.158 299.445 319.207 287.389 314.778 274.748C307.738 254.329 316.643 245.048 316.643 245.048L317.633 245.056C317.633 245.056 319.941 245.168 323.273 245.356C331.82 245.846 347.101 246.835 347.094 247.671C347.089 248.828 356.8 326.865 356.8 326.865Z" fill="#37474F"/>
<path d="M340.789 320.818C340.789 320.818 332.953 315.139 332.117 315.133C331.351 315.127 297.217 301.633 290.451 298.959C291.185 297.562 292.301 296.403 293.668 295.615L332.5 310.648C325.158 299.445 319.207 287.389 314.778 274.748C307.738 254.329 316.643 245.048 316.643 245.048L317.633 245.056C317.633 245.056 319.941 245.168 323.273 245.356C320.441 249.045 316.912 256.109 319.552 266.656C323.647 283.03 340.789 320.818 340.789 320.818Z" fill="#2C3940"/>
<path d="M294.816 298.072L289.016 294.372C287.814 293.607 286.362 293.338 284.966 293.622C283.57 293.906 282.338 294.721 281.531 295.894C280.628 296.994 280.055 298.326 279.88 299.738C279.88 300.091 280.214 310.751 280.438 317.808C280.566 321.839 281.72 325.77 283.791 329.23L283.856 329.338L288.356 329.372L289.438 327.072C290.389 325.052 291.051 322.907 291.403 320.701L293.386 308.286L294.816 298.072Z" fill="#1E272B"/>
<path d="M91.8809 109.686L92.0539 108.786L93.2539 102.537L94.1539 91.9461L101.954 81.8241C101.954 81.8241 109.849 80.2421 112.123 83.5441L105.981 92.0371L104.299 97.2801L108.417 95.6391L110.564 94.0391L113.015 95.6711L110.853 99.2111L105.727 105.211L101.234 111.373" fill="#F7A9A0"/>
<path d="M279.651 329.525L267.473 401.469L251.891 401.349L258.079 336.261L240.771 284.809L216.412 406.283L212.576 405.747L201.422 404.166C201.422 404.166 207.3 266.139 208.1 265.807L259.633 239.478L279.651 329.525Z" fill="#042440"/>
<path d="M202.217 404.274L201.149 416.138L212.805 419.077L216.619 405.234L202.217 404.274Z" fill="#824B45"/>
<path d="M216.424 430.711L195.578 430.551C194.924 429.451 194.512 428.224 194.368 426.952C194.222 425.758 194.393 424.547 194.865 423.441C195.337 422.334 196.092 421.372 197.055 420.651L200.076 413.771L212.501 415.551L214.771 415.875L215.792 421.042C215.792 421.042 219.015 426.102 216.424 430.711Z" fill="white"/>
<path d="M253.094 401.359C252.794 401.359 251.642 415.85 251.642 415.85L264.615 416.66L267.477 400.769L253.094 401.359Z" fill="#824B45"/>
<path d="M284.619 429.514L247.967 429.233L250.32 412.714V412.007C251.343 412.007 252.364 412.062 253.381 412.172C257.961 412.549 265.81 413.422 265.81 413.422L269.26 418.222C269.26 418.222 283.781 418.463 284.667 427.245C284.744 428 284.728 428.762 284.619 429.514Z" fill="white"/>
<path d="M264.428 334.766L253.928 401.366L251.89 401.35L258.078 336.262L240.771 284.808L216.412 406.282L212.576 405.746L235.847 278.728L252.753 270.649C252.753 270.649 245.783 279.5 247.453 284.294C249.123 289.088 264.428 334.766 264.428 334.766Z" fill="#00172B"/>
<path d="M199.459 398.227C200.169 398.233 219.752 399.59 219.752 399.59L217.413 408.375L199.393 406.796L199.459 398.227Z" fill="#3E6080"/>
<path d="M250.458 394.784L250.39 403.622L268.989 403.765L271.47 394.945L250.458 394.784Z" fill="#3E6080"/>
<path d="M284.619 429.514L247.967 429.233L250.32 412.714V412.007C251.343 412.007 252.364 412.062 253.381 412.172L252 422.15C251.945 422.554 251.974 422.966 252.086 423.358C252.198 423.751 252.389 424.116 252.649 424.431C252.909 424.746 253.231 425.004 253.595 425.189C253.959 425.373 254.357 425.481 254.765 425.504L284.665 427.242C284.743 427.998 284.728 428.761 284.619 429.514V429.514Z" fill="#B8B8B8"/>
<path d="M216.424 430.711L195.578 430.551C194.924 429.45 194.512 428.223 194.368 426.951C198.157 427.557 207.275 428.923 211.368 428.951C216.621 428.992 213.874 423.223 213.874 423.223C213.874 423.223 212.174 415.495 212.496 415.544L214.766 415.868L215.787 421.035C215.787 421.035 219.015 426.102 216.424 430.711Z" fill="#B8B8B8"/>
<path d="M259.875 242.011C259.875 242.011 256.27 255.988 244.492 255.897C232.714 255.806 222.142 265.914 222.142 265.914L218.66 174.738L218.267 164.523L234.353 158.793C237.223 161.215 239.747 164.021 241.853 167.131C245.853 172.831 250.422 181.767 252.924 194.836C257.984 221.325 259.875 242.011 259.875 242.011Z" fill="#F26835"/>
<path d="M241.851 167.126C241.035 172.184 239.086 179.095 234.424 180.284C229.633 181.52 223.124 177.736 218.66 174.733L218.267 164.518L234.353 158.788C237.223 161.211 239.746 164.016 241.851 167.126V167.126Z" fill="white"/>
<path d="M176.607 107.213C176.607 107.213 173.278 110.492 173.093 112.274C172.908 114.056 171.642 122.309 171.642 122.309L178.642 128.36L182.373 119.8L176.607 107.213Z" fill="#F7A9A0"/>
<path d="M230.959 269.61C225.182 274.889 214.359 274.359 207.42 273.316C205.242 273 203.083 272.566 200.952 272.016C200.952 272.016 201.495 268.722 202.183 263.545C203.146 256.308 204.396 245.376 204.867 234.614C205.667 216.163 202.199 197.02 202.199 197.02C202.199 197.02 196.899 200.277 186.369 196.898C183.174 195.873 180.86 188.847 179.211 179.576C176.128 162.309 175.311 137.238 175.111 128.638C175.091 127.793 175.371 126.968 175.902 126.31C176.433 125.652 177.18 125.204 178.011 125.044L186.311 123.459C186.778 123.368 187.26 123.37 187.726 123.468C188.193 123.565 188.635 123.754 189.027 124.025C189.419 124.296 189.753 124.643 190.008 125.045C190.264 125.447 190.437 125.896 190.517 126.365L198.734 174.579L218.257 164.516C224.147 169.073 229.257 242.846 230.603 263.987C230.833 267.548 230.959 269.61 230.959 269.61Z" fill="#00315C"/>
<path d="M258.038 178.993C257.556 181.934 258.153 187.086 259.257 193.593C261.804 208.524 267.077 230.602 268.308 249.681C268.466 252.085 268.554 254.43 268.572 256.715C268.572 256.715 269.272 261.008 256.388 263.547C256.388 263.547 256.366 260.332 256.147 255.018C255.247 233.138 251.055 175.662 231.807 160.662C229.968 159.222 248.332 154.522 248.332 154.522L289.85 111.758C290.31 111.284 290.929 110.996 291.588 110.951C292.248 110.907 292.9 111.107 293.42 111.515L298.139 115.19L299.146 115.976C299.427 116.195 299.662 116.467 299.837 116.777C300.012 117.088 300.123 117.43 300.164 117.783C300.206 118.137 300.176 118.496 300.077 118.838C299.978 119.18 299.812 119.499 299.588 119.776C291.728 129.499 259.557 169.747 258.038 178.993Z" fill="#00315C"/>
<path d="M219.885 158.684C219.885 158.684 207.828 159.93 212.444 186.469C212.444 186.469 214.637 180.458 222.792 181.527C222.792 181.527 222.224 177.234 221.448 173.449C220.155 167.139 218.538 159.845 219.885 158.684Z" fill="#FFBE01"/>
<path d="M231.715 155.718C231.715 155.718 242.779 157.089 248.25 170.857C248.25 170.857 241.963 169.657 241.85 174.949L230.11 158.761L231.834 156.791" fill="#FFBE01"/>
<path d="M291.461 112.182C291.461 112.182 294.39 107.754 294.752 107.757C295.114 107.76 303.117 114.245 303.117 114.245L298.917 118.754L291.461 112.182Z" fill="#FFBE01"/>
<path d="M176.465 125.773L176.505 120.519L188.796 119.013L189.337 124.284L176.465 125.773Z" fill="#FFBE01"/>
<path d="M177.958 120.341L174.199 106.536L180.507 99.7471L191.116 100.992L193.266 105.227L190.497 105.933L188.46 105.918L187.717 107.949L189.435 111.453L187.471 121.039L177.871 120.966" fill="#824B45"/>
<path d="M230.613 263.989C230.833 267.548 230.959 269.61 230.959 269.61C225.182 274.889 214.359 274.359 207.42 273.316C205.242 273 203.083 272.566 200.952 272.016C200.952 272.016 201.495 268.722 202.183 263.545C207.819 264.426 219.208 266.021 230.613 263.989Z" fill="#FFBE01"/>
<path d="M256.388 263.551C256.388 263.551 256.366 260.336 256.147 255.022C260.98 252.986 265.2 251.098 268.308 249.685C268.466 252.089 268.554 254.433 268.572 256.719C268.572 256.719 269.27 261.012 256.388 263.551Z" fill="#FFBE01"/>
<g style="mix-blend-mode:multiply" opacity="0.36">
<path d="M207.42 273.316C205.242 273 203.083 272.566 200.952 272.016C202.902 259.625 204.209 247.142 204.867 234.616C205.667 216.165 202.199 197.022 202.199 197.022C202.199 197.022 196.899 200.279 186.369 196.9C183.174 195.875 180.86 188.849 179.211 179.578C182.003 185.795 186.305 191.529 192.611 191.047C206.058 190.019 207.211 186.73 207.211 186.73C207.211 186.73 215.139 255.931 207.42 273.316Z" fill="#042440"/>
</g>
<g style="mix-blend-mode:multiply" opacity="0.36">
<path d="M258.038 178.993C257.556 181.934 258.153 187.087 259.257 193.594C257.44 187.903 254.022 172.823 256.314 167.293C258.798 161.281 289.766 124.134 298.139 115.188L299.146 115.973C299.427 116.192 299.662 116.464 299.837 116.775C300.012 117.085 300.123 117.427 300.164 117.781C300.206 118.135 300.176 118.493 300.077 118.835C299.978 119.177 299.812 119.496 299.588 119.773C291.728 129.499 259.557 169.747 258.038 178.993Z" fill="#042440"/>
</g>
<path d="M367.843 188.952C361.477 200.517 368.438 231.219 369.138 232.152C369.761 233.405 370.225 234.73 370.52 236.097C371.481 239.944 372.062 245.508 369.02 247.84C364.34 251.409 314.391 254.029 312.82 247.409C312.17 244.66 312.991 242.051 314.369 239.023C316.321 234.786 319.352 229.744 320.904 222.347C323.557 209.682 314.917 193.68 314.917 193.68L296.941 159.268L299.858 121.387C299.915 120.697 300.216 120.049 300.708 119.561C301.2 119.072 301.849 118.775 302.54 118.722L303.46 118.659L309.694 118.212C310.08 118.183 310.468 118.232 310.834 118.356C311.201 118.48 311.539 118.676 311.828 118.933C312.118 119.19 312.352 119.503 312.518 119.852C312.684 120.202 312.778 120.582 312.794 120.968L313.509 152.116L329.509 174.171C329.509 174.171 348.358 175.199 349.397 174.912C350.436 174.625 375.491 157.412 375.491 157.412L378.691 129.734C378.765 129.067 379.072 128.446 379.558 127.983C380.045 127.519 380.678 127.241 381.349 127.198L387.006 126.818H387.465C388.114 126.882 388.722 127.163 389.191 127.615C389.66 128.068 389.962 128.666 390.049 129.312C390.838 135.431 392.478 150.532 390.594 157.997C388.208 167.507 374.2 177.388 367.843 188.952Z" fill="#185287"/>
<path d="M301.456 119.026C301.456 119.026 301.839 114.897 301.489 114.699C301.139 114.501 311.789 114.192 311.789 114.192L311.753 118.853L301.456 119.026Z" fill="#185287"/>
<path d="M303.117 114.245L294.752 107.757L293.833 99.4071C293.833 99.4071 300.61 94.3071 300.905 94.0541C301.2 93.8011 312.931 104.924 312.931 104.924C312.931 104.924 313.86 111.148 313.567 111.113C313.274 111.078 311.786 114.192 311.786 114.192L303.659 114.13" fill="#F7A9A0"/>
<path d="M379.434 128.131L379.466 123.98L389.101 122.756L389.065 127.497L379.434 128.131Z" fill="#185287"/>
<path d="M379.9 123.925L378.439 119.825L376.839 115.072L376.872 110.762L379.119 109.918L380.892 114.845L382.747 108.997C382.747 108.997 381.5 102.954 381.502 102.697C381.504 102.44 386.602 101.271 386.602 101.271L390.231 111.298L388.151 123.986L379.9 123.925Z" fill="#F7A9A0"/>
<g style="mix-blend-mode:multiply" opacity="0.32">
<path d="M367.843 188.952C361.477 200.517 368.438 231.219 369.138 232.152C369.761 233.405 370.225 234.73 370.52 236.097C362.44 242.297 350.638 236.168 350.638 236.168C350.638 236.168 361.177 234.942 363.838 230.227C366.499 225.512 360.108 202.036 362.824 190.479C365.54 178.922 378.49 172.191 384 159.938C389.51 147.685 387.01 126.817 387.01 126.817H387.469C388.118 126.881 388.726 127.162 389.195 127.615C389.664 128.067 389.967 128.665 390.053 129.311C390.842 135.43 392.482 150.531 390.598 157.996C388.208 167.507 374.2 177.388 367.843 188.952Z" fill="black"/>
</g>
<g style="mix-blend-mode:multiply" opacity="0.32">
<path d="M341.409 240.104C341.409 240.104 322.709 245.437 314.362 239.025C316.314 234.788 319.345 229.746 320.897 222.349C323.55 209.684 314.91 193.682 314.91 193.682L296.941 159.268L299.858 121.387C299.915 120.697 300.216 120.049 300.708 119.561C301.2 119.072 301.849 118.775 302.54 118.722L303.46 118.659C302.638 122.893 300.142 151.896 302.771 159.313C305.653 167.413 321.246 192.223 322.508 199.618C323.77 207.013 327.213 226.518 323.671 230.71C320.129 234.902 331.678 238.757 341.409 240.104Z" fill="black"/>
</g>
<path d="M191.679 105.632C191.679 105.632 187.87 102.664 186.314 103.357C184.758 104.05 181.004 114.457 182.967 116.445C184.93 118.433 189.382 118.327 189.382 118.327L191.679 105.632Z" fill="#F7A9A0"/>
<path d="M159.442 194.067L165.196 266.694C153.563 273.837 123.725 272.894 109.329 271.68C103.962 271.226 100.502 270.78 100.502 270.78L103.125 194.616L78.886 152.994L90.7 106.555L96.461 107.895L103.374 109.503L98.73 149.867L116.206 171.804L140.362 171.989L154.886 168.873L165.528 166.599L168.858 120.899L172.011 119.852L182.318 125.82L183.162 180.149L159.562 192.877L159.373 192.982L159.435 194.019L159.442 194.067Z" fill="white"/>
<path d="M116.209 171.804C116.209 171.804 113.97 182.776 109.194 189.594C107.494 192.019 105.474 193.912 103.125 194.612L78.886 152.99L90.7 106.555L96.461 107.895L103.374 109.503L98.73 149.867L116.209 171.804Z" fill="#F26835"/>
<path d="M159.569 192.878C160.801 184.579 159.149 176.107 154.889 168.878L165.531 166.604L168.861 120.904L172.014 119.857L182.321 125.825L183.121 177.483C183.133 178.288 182.924 179.081 182.517 179.776C182.11 180.471 181.52 181.04 180.811 181.422L159.569 192.878Z" fill="#F26835"/>
<path d="M125.6 166.203C126.69 165.246 140.95 166.321 140.95 166.321C140.95 166.321 151.402 172.66 149.755 185.371L141.929 178.729C141.929 178.729 135.292 183.529 134.829 183.529C134.366 183.529 127.792 180.375 127.792 180.375L119.474 186.375C118.396 182.783 118.402 178.953 119.492 175.365C120.582 171.776 122.707 168.589 125.6 166.203V166.203Z" fill="#F26835"/>
<g style="mix-blend-mode:multiply" opacity="0.25">
<path d="M109.329 271.68C103.962 271.226 100.502 270.78 100.502 270.78L103.125 194.616L78.886 152.994L90.7 106.555L96.461 107.895L84.17 150.486L109.194 189.586V189.598C109.21 190.584 110.064 249.671 109.329 271.68Z" fill="#8F3D1F"/>
</g>
<path d="M302.675 94.3075C302.989 94.1945 307.323 92.9735 311.292 97.6405C315.261 102.307 314.492 105.78 314.492 105.78C313.905 106.565 313.106 107.166 312.19 107.513C311.273 107.86 310.277 107.938 309.317 107.738C306.056 106.976 301.044 100.928 301.044 100.928C301.044 100.928 298.659 95.7525 302.675 94.3075Z" fill="#824B45"/>
<path d="M222.091 152.625C221.061 153.36 220.491 154.014 219.237 153.936C218.51 153.818 217.84 153.468 217.329 152.938C216.817 152.407 216.492 151.725 216.4 150.994C215.447 151.55 214.547 151.041 213.7 150.254C213.277 149.954 212.96 149.527 212.796 149.035C212.631 148.544 212.626 148.012 212.782 147.517C212.282 147.614 211.764 147.531 211.319 147.282C210.874 147.034 210.531 146.637 210.351 146.16C210.121 145.722 210.054 145.216 210.161 144.732C210.268 144.248 210.542 143.818 210.936 143.517C209.25 142.266 208.336 139.708 209.415 137.923C208.994 137.571 208.648 137.137 208.399 136.648C208.15 136.159 208.003 135.624 207.966 135.076C207.93 134.528 208.005 133.978 208.187 133.46C208.369 132.942 208.655 132.466 209.026 132.061C208.08 131.71 207.818 130.099 207.812 129.037C207.815 128.573 207.937 128.117 208.167 127.713C208.397 127.309 208.727 126.971 209.125 126.731C209.365 126.55 209.337 125.731 209.273 125.486C209.174 125.1 209.156 124.698 209.219 124.304C209.282 123.911 209.425 123.534 209.639 123.198C209.853 122.862 210.135 122.574 210.465 122.351C210.795 122.128 211.168 121.975 211.56 121.902C211.517 120.289 212.86 118.543 214.346 118.854C214.654 116.963 216.646 115.33 218.397 115.869C218.792 114.971 219.495 114.244 220.379 113.817C221.262 113.391 222.269 113.294 223.218 113.544C223.793 112.853 224.59 112.383 225.473 112.215C226.356 112.046 227.27 112.19 228.059 112.621C229.211 111.758 230.984 111.138 232.059 112.189C232.244 112.422 232.456 112.631 232.691 112.813C233.25 113.139 233.891 112.726 234.482 112.542C235.178 112.386 235.907 112.502 236.519 112.866C237.132 113.231 237.581 113.817 237.775 114.503C238.637 114.279 239.543 114.29 240.399 114.535C240.84 114.692 241.215 114.995 241.46 115.394C241.705 115.793 241.806 116.264 241.747 116.728C242.103 116.502 242.52 116.392 242.941 116.415C243.362 116.437 243.766 116.59 244.095 116.853C244.436 117.14 244.693 117.513 244.838 117.934C244.983 118.355 245.011 118.808 244.918 119.243C245.28 119.367 245.609 119.572 245.88 119.843C246.15 120.113 246.355 120.443 246.478 120.805C246.601 121.167 246.639 121.553 246.59 121.932C246.541 122.312 246.405 122.675 246.193 122.993C246.534 123.181 246.83 123.441 247.058 123.756C247.287 124.071 247.443 124.433 247.515 124.815C247.587 125.198 247.574 125.591 247.476 125.968C247.378 126.344 247.197 126.695 246.948 126.993C247.279 127.262 247.546 127.6 247.73 127.984C247.914 128.369 248.011 128.789 248.012 129.215C248.014 129.641 247.92 130.062 247.739 130.448C247.558 130.833 247.293 131.174 246.964 131.444C248.224 132.384 248.003 134.809 246.607 135.366C246.802 135.614 246.942 135.901 247.019 136.207C247.095 136.513 247.105 136.832 247.05 137.142C246.994 137.453 246.873 137.748 246.695 138.008C246.516 138.268 246.285 138.488 246.016 138.652C246.205 139.157 246.198 139.714 245.997 140.213C245.795 140.713 245.415 141.119 244.929 141.352C243.968 141.721 242.989 142.039 241.995 142.305C240.88 142.888 239.876 143.664 239.031 144.596C235.646 147.79 231.564 150.15 227.108 151.491C226.845 151.607 226.561 151.665 226.274 151.664C225.987 151.662 225.704 151.601 225.442 151.483" fill="#1F1A1A"/>
<path d="M211.771 141.513C211.662 133.907 220.955 136.273 220.955 136.273C220.955 136.273 224.664 135.506 225.744 129.69C225.744 129.69 228.062 124.817 236.354 124.698C244.646 124.579 244.654 130.646 244.654 130.646C244.929 135.138 245.473 143.713 245.354 146.546C245.159 151.062 242.21 159.526 236.724 160.646L236.469 164.977L236.315 167.556C236.315 167.556 236.257 173.068 226.353 170.889C219.822 169.454 220.166 165.434 220.166 165.434L220.2 150.074C220.2 150.074 211.879 149.096 211.771 141.513Z" fill="#824B45"/>
<path d="M228.88 159.983C228.88 159.983 229.303 163.891 236.47 164.973L236.727 160.643L236.346 160.786C235.117 161.201 233.814 161.343 232.525 161.205C231.236 161.066 229.992 160.649 228.88 159.983Z" fill="#452518"/>
<path d="M232.055 140.808L231.94 140.914C231.824 141.058 231.673 141.17 231.502 141.241C231.375 141.293 231.239 141.321 231.102 141.324L226.094 141.396C225.855 141.394 225.622 141.32 225.427 141.183C225.222 141.033 225.062 140.83 224.967 140.594C224.871 140.359 224.844 140.102 224.887 139.852C225.151 138.252 226.604 135.759 229.203 136.323C229.303 136.331 229.373 136.375 229.456 136.383C230.149 136.568 230.779 136.939 231.278 137.455C231.777 137.97 232.126 138.612 232.289 139.311C232.32 139.409 232.343 139.509 232.358 139.611C232.407 139.82 232.406 140.038 232.353 140.246C232.3 140.455 232.198 140.647 232.055 140.808V140.808Z" fill="white"/>
<path d="M244.484 140.63L244.39 140.736C244.288 140.88 244.15 140.994 243.99 141.067C243.878 141.118 243.758 141.145 243.635 141.145L239.187 141.208C238.971 141.205 238.762 141.13 238.593 140.995C238.407 140.832 238.265 140.624 238.182 140.391C238.099 140.157 238.077 139.907 238.119 139.662C238.352 138.062 239.636 135.572 241.936 136.141C242.023 136.149 242.097 136.193 242.171 136.201C242.812 136.424 243.383 136.813 243.825 137.328C244.267 137.843 244.565 138.467 244.687 139.134C244.719 139.247 244.729 139.346 244.752 139.434C244.797 139.641 244.796 139.855 244.75 140.062C244.704 140.269 244.613 140.463 244.484 140.63V140.63Z" fill="white"/>
<path d="M235.719 147.528C235.9 147.501 240.133 146.828 240.158 143.957C240.191 143.611 240.143 143.261 240.018 142.937C239.893 142.613 239.693 142.322 239.436 142.088C239.181 141.912 238.892 141.79 238.588 141.729C238.284 141.669 237.97 141.671 237.667 141.736L237.178 136.836L236.384 136.926L236.974 142.82L237.438 142.664C237.686 142.572 237.95 142.535 238.213 142.555C238.477 142.575 238.733 142.651 238.964 142.779C239.114 142.931 239.227 143.115 239.296 143.318C239.364 143.52 239.386 143.735 239.359 143.947C239.342 146.084 235.645 146.673 235.607 146.678L235.719 147.528Z" fill="#451A16"/>
<path d="M217.28 144.238L217.78 143.571C217.22 142.864 216.77 142.077 216.442 141.236C216.504 140.89 216.635 140.56 216.83 140.267C217.024 139.973 217.276 139.723 217.571 139.531L217.171 138.787C216.76 139.05 216.41 139.399 216.147 139.811C215.884 140.222 215.714 140.685 215.647 141.169C215.657 141.773 215.81 142.367 216.093 142.9C216.377 143.434 216.784 143.893 217.28 144.238V144.238Z" fill="#451A16"/>
<path d="M231.847 134.4C231.847 134.4 228.047 132.63 225.147 134.685C225.295 133.903 225.682 133.185 226.255 132.633C226.829 132.08 227.56 131.719 228.347 131.6C231.047 131.295 231.847 134.4 231.847 134.4Z" fill="#1F1A1A"/>
<path d="M244.9 134.295C244.9 134.295 241.1 132.526 238.2 134.581C238.347 133.798 238.735 133.08 239.308 132.527C239.881 131.975 240.612 131.614 241.4 131.495C244.1 131.191 244.9 134.295 244.9 134.295Z" fill="#1F1A1A"/>
<path d="M222.577 134.657C221.743 137.501 221.548 140.495 222.008 143.423L220.008 142.404L218.308 135.723L222.577 134.657Z" fill="#1F1A1A"/>
<path d="M239.23 150.338C239.275 150.433 239.305 150.534 239.32 150.638C239.345 151.849 238.963 153.033 238.233 153.999C238.202 154.033 238.171 154.067 238.142 154.093C237.472 154.665 236.667 155.056 235.803 155.228C234.939 155.399 234.046 155.347 233.208 155.075C232.593 154.807 232.049 154.4 231.619 153.886C231.08 153.261 230.723 152.5 230.586 151.686C230.571 151.592 230.553 151.491 230.544 151.394C230.538 151.336 230.535 151.284 230.53 151.225C230.521 151.181 230.521 151.135 230.531 151.091C230.542 151.047 230.561 151.006 230.589 150.97C230.645 150.923 230.716 150.895 230.789 150.893C233.289 150.574 235.827 150.06 238.336 149.893C238.513 149.857 238.697 149.882 238.859 149.962C239.021 150.043 239.152 150.175 239.23 150.338Z" fill="#571E2D"/>
<path d="M238.233 153.993C238.202 154.027 238.171 154.061 238.142 154.087C237.472 154.659 236.667 155.05 235.803 155.221C234.939 155.393 234.046 155.341 233.208 155.069C232.593 154.801 232.049 154.394 231.619 153.88C231.871 153.496 232.216 153.182 232.622 152.967C233.027 152.752 233.481 152.642 233.94 152.648C234.349 152.669 234.747 152.794 235.094 153.011C235.441 153.229 235.727 153.532 235.924 153.892C235.91 153.669 235.842 153.454 235.726 153.263C235.611 153.072 235.451 152.912 235.26 152.797C235.26 152.797 236.894 151.971 238.233 153.993Z" fill="#D6607F"/>
<path d="M239.23 150.338C238.419 150.786 237.555 151.128 236.658 151.358C234.659 151.91 232.549 151.922 230.544 151.393C230.538 151.335 230.535 151.283 230.53 151.224C230.521 151.18 230.521 151.134 230.531 151.09C230.542 151.046 230.561 151.005 230.589 150.969C230.645 150.922 230.716 150.894 230.789 150.892C233.289 150.573 235.827 150.059 238.336 149.892C238.513 149.856 238.698 149.881 238.859 149.962C239.021 150.042 239.152 150.175 239.23 150.338V150.338Z" fill="white"/>
<path d="M225.123 128.957C225.1 129.193 225.129 129.431 225.208 129.654C225.287 129.877 225.414 130.081 225.581 130.25C225.747 130.418 225.948 130.549 226.17 130.631C226.392 130.714 226.63 130.746 226.866 130.727C227.339 130.633 227.776 130.407 228.126 130.076C228.477 129.745 228.726 129.322 228.847 128.855C228.933 129.195 229.143 129.49 229.436 129.683C229.729 129.876 230.083 129.952 230.429 129.898C230.771 129.821 231.092 129.668 231.368 129.451C231.643 129.234 231.867 128.958 232.022 128.644C232.134 129.066 232.381 129.439 232.726 129.707C233.07 129.975 233.494 130.122 233.93 130.126C234.367 130.13 234.792 129.99 235.142 129.729C235.491 129.467 235.745 129.098 235.864 128.678C237.304 130.99 238.801 129.587 239.464 128.278C239.513 128.626 239.654 128.955 239.873 129.23C240.092 129.505 240.381 129.717 240.709 129.843C240.874 129.89 241.047 129.904 241.217 129.882C241.387 129.86 241.551 129.804 241.699 129.716C241.846 129.628 241.974 129.511 242.075 129.372C242.175 129.233 242.246 129.074 242.283 128.907C242.451 129.15 242.668 129.355 242.92 129.509C243.171 129.664 243.452 129.764 243.745 129.805C244.037 129.845 244.335 129.824 244.619 129.743C244.903 129.663 245.167 129.524 245.395 129.336C245.542 129.213 245.663 129.062 245.751 128.892C245.84 128.722 245.894 128.537 245.91 128.346C245.899 128.029 245.819 127.718 245.675 127.436C245.301 126.44 244.787 125.503 244.147 124.653C242.49 122.644 239.756 122.059 237.221 121.883C234.945 121.688 232.653 121.837 230.421 122.325C229.087 122.603 227.822 123.142 226.697 123.911C225.549 124.709 224.71 125.878 224.32 127.221" fill="#1F1A1A"/>
<path d="M231.835 139.681C231.848 140.22 231.734 140.755 231.502 141.242C231.375 141.294 231.239 141.322 231.102 141.325L228.164 141.367C227.889 140.868 227.744 140.308 227.741 139.739C227.72 138.21 228.617 136.953 229.75 136.939C230.883 136.925 231.813 138.151 231.835 139.681Z" fill="#1F1A1A"/>
<path d="M244.283 139.589C244.293 140.098 244.191 140.603 243.983 141.068C243.871 141.118 243.75 141.145 243.628 141.146L240.56 141.19C240.318 140.711 240.19 140.183 240.186 139.647C240.164 138.118 241.062 136.865 242.195 136.847C243.328 136.829 244.261 138.059 244.283 139.589Z" fill="#1F1A1A"/>
<path d="M352.357 137.643L351.801 134.897C345.592 128.302 331.23 138.257 331.23 138.257L331.57 145.702C331.524 145.715 331.477 145.725 331.429 145.732C331.143 145.722 330.865 145.631 330.629 145.468C328.718 145.385 322.516 145.527 323.311 151.312C324.248 158.112 332.011 158.006 332.011 158.006L333.674 171.819C333.674 171.819 333.801 175.474 339.965 175.989C349.313 176.774 348.759 171.812 348.759 171.812L348.616 169.476L348.372 165.551C353.243 163.165 354.915 155.13 354.529 151.263C354.273 148.707 353.106 141.649 352.357 137.643Z" fill="#F7A9A0"/>
<path d="M341.888 148.266L341.793 148.391C341.715 148.515 341.61 148.62 341.486 148.699C341.362 148.777 341.223 148.828 341.077 148.847L338.631 149.195L336.479 149.503C336.257 149.541 336.028 149.502 335.83 149.394C335.627 149.288 335.459 149.125 335.346 148.925C335.234 148.724 335.183 148.496 335.199 148.267C335.262 146.789 336.33 144.375 338.771 144.582C338.866 144.582 338.928 144.605 339.012 144.605C339.635 144.682 340.226 144.922 340.726 145.3C341.265 145.717 341.684 146.269 341.941 146.9C341.978 146.982 342.008 147.066 342.033 147.152C342.103 147.335 342.126 147.533 342.101 147.727C342.076 147.922 342.003 148.107 341.888 148.266V148.266Z" fill="white"/>
<path d="M353.3 146.638L353.237 146.752C353.127 146.948 352.945 147.094 352.73 147.158C352.682 147.186 352.628 147.204 352.572 147.209L350.19 147.557L348.5 147.796C348.299 147.816 348.097 147.771 347.924 147.666C347.735 147.545 347.581 147.376 347.477 147.177C347.374 146.977 347.325 146.754 347.335 146.529C347.378 145.061 348.288 142.667 350.456 142.915C350.55 142.915 350.613 142.937 350.687 142.937C351.258 143.037 351.792 143.287 352.233 143.662C352.727 144.099 353.101 144.654 353.321 145.275C353.362 145.369 353.383 145.464 353.414 145.538C353.478 145.719 353.5 145.911 353.481 146.101C353.461 146.291 353.399 146.475 353.3 146.638Z" fill="white"/>
<path d="M346 153.882C346.163 153.836 349.983 152.73 349.688 150.145C349.681 149.829 349.598 149.52 349.446 149.242C349.295 148.965 349.08 148.728 348.818 148.551C348.562 148.422 348.283 148.346 347.997 148.328C347.711 148.309 347.424 148.348 347.153 148.443L346.163 144.096L345.443 144.272L346.635 149.5L347.044 149.305C347.262 149.193 347.5 149.129 347.744 149.115C347.989 149.102 348.233 149.14 348.461 149.228C348.615 149.345 348.739 149.497 348.824 149.67C348.91 149.843 348.954 150.034 348.953 150.228C349.172 152.151 345.838 153.118 345.804 153.128L346 153.882Z" fill="#F77F72"/>
<path d="M328.682 153.107L329.067 152.447C328.475 151.879 327.974 151.225 327.579 150.507C327.599 150.186 327.685 149.872 327.831 149.585C327.978 149.298 328.181 149.045 328.429 148.84L327.979 148.219C327.632 148.5 327.351 148.854 327.155 149.255C326.958 149.655 326.851 150.094 326.841 150.541C326.918 151.085 327.126 151.603 327.446 152.05C327.767 152.497 328.191 152.859 328.682 153.107V153.107Z" fill="#F77F72"/>
<path d="M339.931 142.529C338.546 142.308 337.127 142.514 335.863 143.121C335.776 143.163 335.677 143.177 335.582 143.161C335.486 143.145 335.397 143.099 335.329 143.031C335.26 142.963 335.213 142.875 335.196 142.779C335.179 142.684 335.192 142.585 335.233 142.497C335.436 142.055 335.739 141.667 336.118 141.362C336.497 141.058 336.943 140.846 337.418 140.744C337.951 140.614 338.51 140.639 339.029 140.816C339.548 140.993 340.005 141.315 340.347 141.744C340.41 141.817 340.449 141.907 340.46 142.002C340.47 142.098 340.452 142.194 340.407 142.279C340.362 142.364 340.293 142.433 340.208 142.478C340.123 142.522 340.026 142.54 339.931 142.529V142.529Z" fill="#263238"/>
<path d="M350.854 140.848C349.866 140.758 348.871 140.879 347.933 141.203C347.787 141.259 347.626 141.265 347.477 141.219C347.327 141.173 347.198 141.078 347.108 140.95C347.019 140.822 346.975 140.667 346.984 140.511C346.992 140.355 347.053 140.206 347.156 140.088C347.608 139.549 348.224 139.173 348.911 139.018C349.333 138.907 349.775 138.902 350.2 139.004C350.624 139.106 351.016 139.312 351.34 139.603C351.457 139.697 351.54 139.825 351.579 139.969C351.618 140.113 351.609 140.266 351.555 140.405C351.501 140.544 351.403 140.662 351.277 140.742C351.151 140.821 351.003 140.859 350.854 140.848V140.848Z" fill="#263238"/>
<path d="M353.3 146.639L353.237 146.753C353.127 146.949 352.945 147.094 352.73 147.159C352.681 147.187 352.628 147.204 352.572 147.21L350.19 147.558C349.969 147.207 349.825 146.813 349.769 146.402C349.631 145.806 349.73 145.18 350.045 144.656C350.36 144.132 350.866 143.751 351.457 143.594C351.718 143.559 351.983 143.582 352.233 143.663C352.727 144.099 353.101 144.654 353.321 145.276C353.362 145.37 353.383 145.465 353.414 145.539C353.478 145.719 353.5 145.911 353.481 146.102C353.461 146.292 353.399 146.475 353.3 146.639Z" fill="#263238"/>
<path d="M341.888 148.266L341.793 148.391C341.714 148.515 341.609 148.62 341.486 148.698C341.362 148.777 341.222 148.828 341.077 148.847L338.631 149.195C338.413 148.87 338.272 148.499 338.22 148.112C338.098 147.491 338.223 146.847 338.57 146.319C338.917 145.79 339.458 145.418 340.076 145.284C340.292 145.252 340.512 145.258 340.726 145.3C341.265 145.717 341.684 146.269 341.941 146.9C341.977 146.982 342.008 147.066 342.033 147.152C342.103 147.335 342.126 147.533 342.101 147.727C342.076 147.921 342.002 148.107 341.888 148.266V148.266Z" fill="#263238"/>
<path d="M348.457 156.657C348.47 156.747 348.47 156.839 348.457 156.93C348.189 157.961 347.582 158.871 346.733 159.515C346.698 159.536 346.664 159.558 346.633 159.573C345.929 159.897 345.154 160.035 344.382 159.974C343.61 159.913 342.866 159.655 342.222 159.224C341.765 158.85 341.402 158.375 341.16 157.837C340.855 157.179 340.734 156.451 340.811 155.73C340.821 155.646 340.83 155.557 340.846 155.473C340.855 155.422 340.865 155.373 340.874 155.326C340.877 155.286 340.889 155.248 340.908 155.214C340.928 155.179 340.954 155.149 340.986 155.126C341.046 155.099 341.113 155.093 341.177 155.11C343.366 155.437 345.642 155.61 347.806 156.067C347.965 156.079 348.115 156.144 348.233 156.25C348.35 156.357 348.429 156.5 348.457 156.657V156.657Z" fill="#571E2D"/>
<path d="M346.738 159.515C346.703 159.536 346.669 159.558 346.638 159.573C345.934 159.897 345.159 160.035 344.387 159.974C343.615 159.913 342.871 159.654 342.227 159.224C341.77 158.85 341.407 158.375 341.165 157.837C341.471 157.572 341.838 157.389 342.233 157.304C342.628 157.219 343.038 157.235 343.425 157.35C343.767 157.465 344.073 157.666 344.315 157.933C344.557 158.2 344.727 158.525 344.807 158.877C344.848 158.685 344.843 158.486 344.791 158.297C344.738 158.108 344.641 157.935 344.507 157.792C344.507 157.792 346.088 157.483 346.738 159.515Z" fill="#D6607F"/>
<path d="M348.457 156.657C347.663 156.841 346.85 156.925 346.035 156.905C344.211 156.895 342.422 156.401 340.851 155.473C340.86 155.422 340.87 155.373 340.879 155.326C340.882 155.286 340.894 155.248 340.913 155.214C340.933 155.179 340.959 155.149 340.991 155.126C341.051 155.099 341.118 155.093 341.182 155.11C343.371 155.437 345.647 155.61 347.811 156.067C347.969 156.08 348.118 156.145 348.234 156.252C348.351 156.359 348.43 156.501 348.457 156.657V156.657Z" fill="white"/>
<path d="M331.429 145.732L331.762 149.725L333.529 151.183L334.501 138.726C334.501 138.726 341.501 141.601 348.522 135.692L347.669 138.437C347.669 138.437 353.58 137.477 354.449 134.843C355.318 132.209 340.385 130.243 339.949 130.305C339.513 130.367 328.959 137.467 328.895 137.818C328.831 138.169 331.429 145.732 331.429 145.732Z" fill="#263238"/>
<path d="M349.6 169.048L349.577 169.06L349.526 175.691C349.526 175.691 348.584 178.691 341.88 178.965C335.176 179.239 332.674 175.314 332.674 175.314L332.357 169.346C329.734 167.062 332.748 165.633 332.748 165.633C343.577 171.216 349.598 166.315 349.598 166.315C350.5 168.16 349.729 168.931 349.6 169.048Z" fill="#185287"/>
<g style="mix-blend-mode:multiply" opacity="0.32">
<path d="M349.575 169.061L349.553 171.946C346.579 172.666 342.981 170.246 342.981 170.246C345.243 170.404 347.509 169.997 349.575 169.061V169.061Z" fill="black"/>
</g>
<path d="M147.585 144.824C147.585 144.824 156.501 137.078 156.803 127.783C157.105 118.488 150.221 108.077 150.221 108.077C150.221 108.077 149.174 113.855 145.07 115.077L145.17 108.801C145.17 108.801 139.523 116.116 132.529 117.294L135.285 112.994C135.285 112.994 117.54 119.313 116.713 128.958C116.713 128.958 111.603 129.332 110.542 135.73L112.7 135.764C112.7 135.764 109.34 143.492 113.92 149.646C118.5 155.8 126.361 157.464 128.533 165.046C130.705 172.628 147.585 144.824 147.585 144.824Z" fill="#1F1A1A"/>
<path d="M116.252 147.35C115.939 139.81 125.219 141.905 125.219 141.905C125.219 141.905 128.877 141.045 129.791 135.248C129.791 135.248 131.958 130.348 140.178 130.011C148.398 129.674 148.578 135.686 148.578 135.686C148.973 140.133 149.744 148.623 149.699 151.436C149.628 155.92 146.931 164.393 141.521 165.649L141.385 169.949L141.302 172.51C141.302 172.51 141.393 177.978 131.512 176.084C124.996 174.837 125.229 170.841 125.229 170.841L124.848 155.606C124.848 155.606 116.564 154.868 116.252 147.35Z" fill="#F7A9A0"/>
<path d="M133.717 165.206C133.717 165.206 134.242 169.071 141.379 169.951L141.518 165.651L141.144 165.803C139.936 166.247 138.647 166.423 137.365 166.32C136.083 166.217 134.838 165.837 133.717 165.206V165.206Z" fill="#E36456"/>
<path d="M136.35 146.104L136.238 146.212C136.14 146.34 136.016 146.444 135.874 146.518C135.732 146.592 135.575 146.634 135.415 146.641L130.451 146.847C130.214 146.852 129.981 146.785 129.783 146.655C129.575 146.512 129.412 146.314 129.311 146.084C129.21 145.853 129.176 145.598 129.212 145.349C129.43 143.758 130.804 141.243 133.397 141.733C133.492 141.733 133.567 141.78 133.649 141.786C134.342 141.951 134.976 142.301 135.485 142.799C135.994 143.297 136.358 143.924 136.538 144.613C136.571 144.711 136.597 144.811 136.615 144.913C136.669 145.118 136.673 145.334 136.627 145.541C136.581 145.748 136.486 145.941 136.35 146.104V146.104Z" fill="white"/>
<path d="M148.671 145.592L148.581 145.699C148.483 145.845 148.348 145.962 148.19 146.039C148.081 146.091 147.961 146.121 147.84 146.125L143.43 146.309C143.215 146.309 143.007 146.239 142.836 146.109C142.647 145.952 142.5 145.749 142.412 145.52C142.323 145.291 142.294 145.043 142.329 144.8C142.518 143.211 143.724 140.7 146.02 141.205C146.106 141.211 146.181 141.252 146.255 141.258C146.897 141.461 147.473 141.831 147.926 142.33C148.378 142.83 148.69 143.44 148.829 144.099C148.864 144.21 148.877 144.308 148.902 144.399C148.952 144.602 148.958 144.815 148.918 145.021C148.878 145.227 148.794 145.421 148.671 145.592V145.592Z" fill="white"/>
<path d="M140.165 152.669C140.343 152.637 144.523 151.856 144.47 149.008C144.494 148.664 144.437 148.319 144.304 148C144.171 147.681 143.966 147.398 143.704 147.173C143.446 147.006 143.156 146.893 142.853 146.842C142.55 146.79 142.24 146.801 141.941 146.873L141.323 142.028L140.538 142.138L141.282 147.968L141.738 147.801C141.981 147.704 142.242 147.659 142.504 147.672C142.765 147.684 143.021 147.753 143.254 147.873C143.407 148.02 143.524 148.2 143.598 148.399C143.671 148.597 143.699 148.81 143.678 149.021C143.718 151.141 140.068 151.821 140.031 151.831L140.165 152.669Z" fill="#E36456"/>
<path d="M121.789 149.9L122.266 149.225C121.692 148.538 121.223 147.77 120.876 146.945C120.927 146.6 121.049 146.269 121.234 145.973C121.419 145.677 121.663 145.422 121.95 145.224L121.533 144.497C121.133 144.769 120.796 145.124 120.546 145.538C120.296 145.953 120.139 146.416 120.086 146.897C120.111 147.497 120.279 148.082 120.575 148.604C120.871 149.126 121.287 149.571 121.789 149.9Z" fill="#E36456"/>
<path d="M135.97 139.754C135.97 139.754 132.153 138.101 129.33 140.218C129.455 139.438 129.819 138.716 130.373 138.153C130.926 137.589 131.641 137.211 132.419 137.072C135.093 136.696 135.97 139.754 135.97 139.754Z" fill="#1F1A1A"/>
<path d="M148.915 139.298C148.915 139.298 145.097 137.645 142.275 139.762C142.4 138.982 142.764 138.26 143.317 137.697C143.871 137.133 144.585 136.755 145.363 136.615C148.038 136.237 148.915 139.298 148.915 139.298Z" fill="#1F1A1A"/>
<path d="M126.784 140.259C126.033 143.102 125.921 146.076 126.456 148.968L124.445 148.011L122.576 141.432L126.784 140.259Z" fill="#1F1A1A"/>
<path d="M136.1 144.99C136.128 145.525 136.029 146.058 135.811 146.547C135.685 146.603 135.549 146.635 135.411 146.64L132.499 146.761C132.213 146.275 132.054 145.725 132.036 145.161C131.973 143.645 132.829 142.374 133.952 142.328C135.075 142.282 136.038 143.474 136.1 144.99Z" fill="#1F1A1A"/>
<path d="M148.445 144.595C148.469 145.089 148.384 145.582 148.196 146.04C148.089 146.092 147.973 146.121 147.854 146.125L144.873 146.249C144.627 145.79 144.49 145.28 144.473 144.76C144.411 143.274 145.251 142.033 146.351 141.987C147.451 141.941 148.383 143.109 148.445 144.595Z" fill="#1F1A1A"/>
<path d="M128.471 133.439C131.931 134.969 135.593 135.994 139.345 136.481L138.489 133.597C138.489 133.597 144.445 136.697 149.002 133.763C153.559 130.829 150.074 127.379 150.074 127.379C150.074 127.379 139.412 125.497 138.861 125.689C138.31 125.881 130.061 128.255 130.061 128.255C130.061 128.255 127.454 131.019 126.927 131.411" fill="#1F1A1A"/>
<path d="M143.63 156.397C143.648 156.508 143.65 156.62 143.636 156.73C143.31 157.989 142.57 159.101 141.536 159.888C141.493 159.914 141.451 159.94 141.414 159.959C140.554 160.355 139.608 160.524 138.664 160.449C137.721 160.375 136.813 160.059 136.026 159.533C135.466 159.078 135.021 158.498 134.726 157.839C134.352 157.036 134.204 156.146 134.299 155.265C134.311 155.165 134.323 155.054 134.341 154.951C134.353 154.889 134.365 154.834 134.376 154.772C134.38 154.724 134.394 154.676 134.417 154.634C134.441 154.591 134.474 154.554 134.513 154.525C134.586 154.492 134.668 154.485 134.746 154.505C137.42 154.905 140.199 155.116 142.846 155.674C143.038 155.692 143.219 155.772 143.361 155.903C143.502 156.034 143.597 156.207 143.63 156.397V156.397Z" fill="#571E2D"/>
<path d="M141.531 159.888C141.488 159.914 141.446 159.94 141.409 159.959C140.549 160.355 139.603 160.524 138.659 160.449C137.716 160.375 136.808 160.059 136.021 159.533C135.461 159.078 135.016 158.498 134.721 157.839C135.094 157.516 135.542 157.291 136.024 157.186C136.507 157.081 137.008 157.1 137.481 157.239C137.898 157.38 138.273 157.625 138.568 157.952C138.863 158.279 139.07 158.676 139.168 159.105C139.219 158.871 139.212 158.628 139.148 158.397C139.084 158.166 138.966 157.954 138.802 157.779C138.802 157.779 140.736 157.406 141.531 159.888Z" fill="#D6607F"/>
<path d="M143.63 156.397C142.661 156.623 141.667 156.724 140.672 156.697C138.444 156.685 136.259 156.081 134.34 154.948C134.352 154.886 134.364 154.831 134.375 154.769C134.379 154.721 134.393 154.674 134.416 154.631C134.44 154.588 134.473 154.551 134.512 154.522C134.585 154.489 134.667 154.482 134.745 154.502C137.419 154.902 140.198 155.113 142.845 155.671C143.038 155.689 143.219 155.77 143.361 155.901C143.503 156.032 143.598 156.207 143.63 156.397V156.397Z" fill="white"/>
<path d="M428.787 54.6978C425.412 55.8238 421.899 57.1169 419.77 60.1479C418.793 61.472 418.27 63.0762 418.279 64.7216C418.287 66.3671 418.827 67.9658 419.817 69.2799C421.253 71.2459 424.3 73.2228 424.317 75.8798C424.332 78.8798 420.767 81.0198 418.529 82.3588C416.58 83.5248 418.354 86.5808 420.313 85.4098C422.945 83.8348 425.765 81.8698 427.113 79.0098C428.461 76.1498 427.745 73.2389 425.839 70.8399C424.339 68.9529 421.368 66.9398 421.794 64.1938C422.367 60.4988 426.707 59.1058 429.73 58.0938C431.876 57.3768 430.956 53.9638 428.791 54.6868L428.787 54.6978Z" fill="#8CDBFF"/>
<path d="M327.489 38.6862C321.208 43.3134 316.421 49.6807 313.722 57.0002C313.601 57.4519 313.663 57.9329 313.894 58.3394C314.125 58.746 314.506 59.0455 314.956 59.1732C315.407 59.2889 315.886 59.2249 316.292 58.9947C316.697 58.7646 316.997 58.3862 317.129 57.9392C319.527 51.4794 323.745 45.8524 329.273 41.7382C329.667 41.4922 329.952 41.1048 330.07 40.6555C330.187 40.2061 330.129 39.7288 329.906 39.3212C329.667 38.9191 329.28 38.6271 328.828 38.5084C328.375 38.3898 327.894 38.454 327.489 38.6872V38.6862Z" fill="#8CDBFF"/>
<path d="M436.561 146.746C436.001 147.84 435.726 149.058 435.761 150.286C435.796 151.515 436.14 152.715 436.761 153.775C437.845 155.911 439.761 157.596 440.497 159.911C441.072 161.747 441.067 163.716 440.483 165.549C439.9 167.382 438.765 168.991 437.234 170.156C435.393 171.456 437.156 174.525 439.018 173.207C440.84 171.914 442.296 170.169 443.241 168.144C444.187 166.119 444.59 163.883 444.411 161.655C444.184 159.319 443.331 157.088 441.942 155.196C440.701 153.433 438.302 150.829 439.612 148.53C440.739 146.551 437.687 144.768 436.561 146.746Z" fill="#8CDBFF"/>
<path d="M400.992 257.688C400.432 258.782 400.157 260 400.192 261.228C400.227 262.456 400.571 263.656 401.192 264.717C402.275 266.853 404.192 268.538 404.927 270.852C405.502 272.688 405.498 274.657 404.914 276.49C404.331 278.324 403.196 279.933 401.665 281.098C399.824 282.398 401.587 285.466 403.448 284.149C404.845 283.176 406.032 281.932 406.938 280.492C407.845 279.051 408.453 277.443 408.726 275.763C408.999 274.083 408.931 272.365 408.527 270.712C408.122 269.058 407.39 267.503 406.373 266.138C405.131 264.374 402.733 261.771 404.042 259.471C405.17 257.492 402.118 255.71 400.991 257.688H400.992Z" fill="#8CDBFF"/>
<path d="M458.061 208.247C456.911 208.35 455.825 208.821 454.963 209.589C454.102 210.358 453.511 211.383 453.278 212.514C452.988 213.701 452.971 214.938 453.229 216.132C453.488 217.326 454.014 218.446 454.769 219.406C456.353 221.52 458.669 223.034 460.148 225.211C460.993 226.453 462.062 229.234 460.504 230.392C460.11 230.638 459.825 231.025 459.707 231.475C459.589 231.924 459.647 232.401 459.87 232.809C460.109 233.211 460.496 233.503 460.948 233.622C461.401 233.741 461.882 233.676 462.287 233.443C463.245 232.728 463.977 231.752 464.395 230.631C464.813 229.511 464.899 228.294 464.644 227.126C464.139 224.71 462.869 222.521 461.024 220.882C459.482 219.343 457.18 217.7 456.667 215.458C456.418 214.371 456.567 211.915 458.061 211.78C458.526 211.768 458.969 211.579 459.298 211.25C459.626 210.921 459.816 210.478 459.828 210.013C459.824 209.546 459.637 209.098 459.306 208.768C458.976 208.438 458.528 208.25 458.061 208.247V208.247Z" fill="#8CDBFF"/>
<path d="M593.851 53.9003C593.551 53.8643 594.131 53.9453 594.195 53.9563C594.374 53.9883 594.553 54.0233 594.731 54.0633C595.116 54.1483 595.498 54.2493 595.874 54.3633C596.221 54.4713 596.563 54.5953 596.901 54.7293C596.638 54.6243 597.101 54.8153 597.148 54.8383C597.313 54.9143 597.476 54.9933 597.639 55.0753C598.956 55.7172 600.155 56.5793 601.182 57.6243C602.216 58.6193 603.072 59.7841 603.713 61.0683C603.798 61.2296 603.88 61.3923 603.957 61.5563C603.984 61.6123 604.211 62.1273 604.109 61.8833C604.249 62.2193 604.371 62.5623 604.482 62.9083C604.593 63.2543 604.69 63.6083 604.773 63.9603C604.815 64.1383 604.853 64.3166 604.887 64.4953C604.899 64.5573 605.002 65.2243 604.964 64.9273C604.978 65.3914 605.169 65.8326 605.497 66.1609C605.826 66.4892 606.267 66.68 606.731 66.6943C607.199 66.6916 607.647 66.5047 607.977 66.1738C608.308 65.843 608.495 65.3951 608.498 64.9273C608.006 61.2234 606.303 57.7863 603.654 55.1519C601.004 52.5174 597.558 50.8337 593.851 50.3633C593.383 50.3659 592.935 50.553 592.605 50.8838C592.274 51.2146 592.087 51.6625 592.085 52.1303C592.096 52.5952 592.285 53.0381 592.614 53.3669C592.943 53.6958 593.386 53.8854 593.851 53.8963V53.9003Z" fill="#8CDBFF"/>
<path d="M653.535 68.5042C654.911 72.916 657.27 76.9579 660.435 80.3252C660.769 80.6528 661.217 80.8364 661.685 80.8364C662.153 80.8364 662.601 80.6528 662.935 80.3252C663.259 79.9897 663.44 79.5415 663.44 79.0752C663.44 78.6089 663.259 78.1608 662.935 77.8252C662.572 77.4392 662.219 77.0445 661.876 76.6412C661.554 76.2592 661.292 75.9302 661.106 75.6812C659.857 74.0059 658.797 72.198 657.945 70.2902C657.894 70.1762 657.845 70.0622 657.795 69.9472C657.867 70.1172 657.778 69.9072 657.756 69.8522C657.663 69.6212 657.571 69.3892 657.483 69.1522C657.283 68.6272 657.106 68.0962 656.939 67.5602C656.877 67.3365 656.772 67.1271 656.63 66.9441C656.487 66.761 656.31 66.6078 656.108 66.4932C655.906 66.3786 655.684 66.3049 655.454 66.2762C655.223 66.2476 654.99 66.2646 654.766 66.3262C654.542 66.3879 654.333 66.493 654.15 66.6356C653.967 66.7781 653.814 66.9554 653.699 67.1571C653.584 67.3589 653.511 67.5813 653.482 67.8116C653.453 68.0419 653.47 68.2755 653.532 68.4992L653.535 68.5042Z" fill="#8CDBFF"/>
<path d="M227.217 38.1694C224.074 38.8104 222.246 41.9524 222.131 44.9884C221.988 48.7534 224.431 51.8664 225.899 55.1314C226.653 56.8084 227.232 58.8004 226.499 60.5884C225.906 61.8813 224.905 62.9433 223.649 63.6104C220.294 65.5424 216.121 64.8614 212.489 64.2974C212.038 64.1881 211.562 64.2549 211.158 64.4841C210.754 64.7134 210.453 65.0879 210.316 65.5314C210.194 65.9831 210.256 66.4645 210.487 66.8712C210.718 67.278 211.1 67.5773 211.55 67.7044C215.506 68.3194 219.786 69.0044 223.637 67.5044C226.654 66.3294 229.464 63.9374 230.161 60.6414C231.036 56.5034 228.684 52.9754 226.924 49.4474C225.792 47.1804 224.453 42.3344 228.154 41.5794C230.381 41.1254 229.438 37.7184 227.215 38.1724L227.217 38.1694Z" fill="#8CDBFF"/>
<path d="M506.927 55.2179C507.359 55.2854 507.786 55.3857 508.203 55.5179C508.403 55.5829 508.598 55.6579 508.794 55.7329C508.957 55.7969 508.394 55.5539 508.756 55.7229C508.856 55.7669 508.946 55.8129 509.04 55.8599C509.43 56.0584 509.806 56.2846 510.164 56.5369C510.243 56.6062 510.328 56.6681 510.419 56.7219L510.228 56.5749C510.283 56.6179 510.337 56.6629 510.391 56.7069C510.553 56.8419 510.711 56.9809 510.863 57.1259C511.167 57.4174 511.452 57.7273 511.718 58.0539C511.96 58.3469 511.479 57.7199 511.698 58.0299C511.759 58.1159 511.821 58.1999 511.88 58.2869C511.998 58.4609 512.11 58.6385 512.216 58.8199C512.322 59.0012 512.422 59.1862 512.516 59.3749C512.562 59.4689 512.605 59.5649 512.65 59.6589C512.804 59.9849 512.52 59.3099 512.634 59.6239C512.793 60.0504 512.923 60.487 513.024 60.9309C513.151 61.3809 513.451 61.7627 513.857 61.9936C514.264 62.2246 514.745 62.2861 515.197 62.1649C515.643 62.0314 516.02 61.7309 516.25 61.3261C516.48 60.9212 516.545 60.4433 516.431 59.9919C515.951 57.944 514.886 56.0799 513.366 54.6265C511.845 53.1731 509.935 52.1931 507.868 51.8059C507.408 51.6956 506.923 51.7589 506.507 51.9839C506.207 52.1593 505.965 52.4193 505.812 52.7314C505.659 53.0434 505.601 53.3937 505.646 53.7384C505.692 54.0831 505.837 54.4068 506.065 54.669C506.293 54.9313 506.594 55.1205 506.929 55.2129L506.927 55.2179Z" fill="#8CDBFF"/>
<path d="M371.055 84.358C373.973 84.358 376.338 81.9927 376.338 79.075C376.338 76.1573 373.973 73.792 371.055 73.792C368.137 73.792 365.772 76.1573 365.772 79.075C365.772 81.9927 368.137 84.358 371.055 84.358Z" fill="#8CDBFF"/>
<path d="M537.364 89.6412C540.282 89.6412 542.647 87.2759 542.647 84.3582C542.647 81.4405 540.282 79.0752 537.364 79.0752C534.446 79.0752 532.081 81.4405 532.081 84.3582C532.081 87.2759 534.446 89.6412 537.364 89.6412Z" fill="#8CDBFF"/>
<path d="M177.006 231.73C179.924 231.73 182.289 229.365 182.289 226.447C182.289 223.529 179.924 221.164 177.006 221.164C174.088 221.164 171.723 223.529 171.723 226.447C171.723 229.365 174.088 231.73 177.006 231.73Z" fill="#8CDBFF"/>
<path d="M725.451 213.524C728.369 213.524 730.734 211.159 730.734 208.241C730.734 205.323 728.369 202.958 725.451 202.958C722.533 202.958 720.168 205.323 720.168 208.241C720.168 211.159 722.533 213.524 725.451 213.524Z" fill="#8CDBFF"/>
<path d="M471.296 279.279C474.214 279.279 476.579 276.914 476.579 273.996C476.579 271.078 474.214 268.713 471.296 268.713C468.378 268.713 466.013 271.078 466.013 273.996C466.013 276.914 468.378 279.279 471.296 279.279Z" fill="#8CDBFF"/>
<path d="M349.288 11.5182C352.206 11.5182 354.571 9.15287 354.571 6.23515C354.571 3.31743 352.206 0.952148 349.288 0.952148C346.37 0.952148 344.005 3.31743 344.005 6.23515C344.005 9.15287 346.37 11.5182 349.288 11.5182Z" fill="#8CDBFF"/>
<path d="M262.363 86.1187C265.281 86.1187 267.646 83.7535 267.646 80.8357C267.646 77.918 265.281 75.5527 262.363 75.5527C259.445 75.5527 257.08 77.918 257.08 80.8357C257.08 83.7535 259.445 86.1187 262.363 86.1187Z" fill="#8CDBFF"/>
<path d="M586.514 210.607C589.432 210.607 591.797 208.242 591.797 205.324C591.797 202.406 589.432 200.041 586.514 200.041C583.596 200.041 581.231 202.406 581.231 205.324C581.231 208.242 583.596 210.607 586.514 210.607Z" fill="#8CDBFF"/>
</svg>
