<svg width="16" height="18" viewBox="0 0 16 18" fill="none" xmlns="http://www.w3.org/2000/svg">
<path d="M13.8 15.4C13.8 15.8243 13.6314 16.2313 13.3314 16.5314C13.0313 16.8314 12.6243 17 12.2 17H2.6C2.17565 17 1.76869 16.8314 1.46863 16.5314C1.16857 16.2313 1 15.8243 1 15.4V9V2.6C1 2.17565 1.16857 1.76869 1.46863 1.46863C1.76869 1.16857 2.17565 1 2.6 1H8.2L13.8 6.6V9" stroke="black" stroke-width="0.7" stroke-linecap="round" stroke-linejoin="round"/>
<path d="M8.19995 1V6.6H13.8" stroke="black" stroke-width="0.7" stroke-linecap="round" stroke-linejoin="round"/>
<path d="M5.7532 12.7748V14.2H5V10.1512H6.3188C6.58947 10.1512 6.82373 10.1829 7.0216 10.2464C7.21947 10.3098 7.3828 10.3985 7.5116 10.5124C7.6404 10.6262 7.7356 10.7625 7.7972 10.9212C7.8588 11.0798 7.8896 11.2534 7.8896 11.442C7.8896 11.638 7.85693 11.8181 7.7916 11.9824C7.72627 12.1448 7.62827 12.2848 7.4976 12.4024C7.36693 12.52 7.2036 12.6114 7.0076 12.6768C6.8116 12.7421 6.582 12.7748 6.3188 12.7748H5.7532ZM5.7532 12.1868H6.3188C6.45693 12.1868 6.57733 12.17 6.68 12.1364C6.78267 12.1009 6.8676 12.0514 6.9348 11.988C7.002 11.9226 7.0524 11.8442 7.086 11.7528C7.1196 11.6594 7.1364 11.5558 7.1364 11.442C7.1364 11.3337 7.1196 11.2357 7.086 11.148C7.0524 11.0602 7.002 10.9856 6.9348 10.924C6.8676 10.8624 6.78267 10.8157 6.68 10.784C6.57733 10.7504 6.45693 10.7336 6.3188 10.7336H5.7532V12.1868Z" fill="black"/>
<path d="M12.238 12.1756C12.238 12.4724 12.1885 12.7449 12.0896 12.9932C11.9907 13.2414 11.8516 13.4552 11.6724 13.6344C11.4932 13.8136 11.2776 13.9526 11.0256 14.0516C10.7736 14.1505 10.4945 14.2 10.1884 14.2H8.6428V10.1512H10.1884C10.4945 10.1512 10.7736 10.2016 11.0256 10.3024C11.2776 10.4013 11.4932 10.5404 11.6724 10.7196C11.8516 10.8969 11.9907 11.1097 12.0896 11.358C12.1885 11.6062 12.238 11.8788 12.238 12.1756ZM11.468 12.1756C11.468 11.9534 11.4381 11.7546 11.3784 11.5792C11.3187 11.4018 11.2337 11.2525 11.1236 11.1312C11.0135 11.008 10.8791 10.9137 10.7204 10.8484C10.5636 10.783 10.3863 10.7504 10.1884 10.7504H9.4016V13.6008H10.1884C10.3863 13.6008 10.5636 13.5681 10.7204 13.5028C10.8791 13.4374 11.0135 13.3441 11.1236 13.2228C11.2337 13.0996 11.3187 12.9502 11.3784 12.7748C11.4381 12.5974 11.468 12.3977 11.468 12.1756Z" fill="black"/>
<path d="M15.548 10.1512V10.7504H13.7532V11.9488H15.268V12.5508H13.7532V14.2H12.9944V10.1512H15.548Z" fill="black"/>
</svg>
