<svg width="828" height="454" viewBox="0 0 828 454" fill="none" xmlns="http://www.w3.org/2000/svg">
<path d="M75.9459 451.186C32.8589 417.313 21.7829 349.214 51.9149 303.433C75.3759 267.786 118.555 246.8 135.874 207.798C151.623 172.331 142.302 129.545 158.193 94.1407C173.411 60.2407 208.575 40.0157 243.201 26.5197C305.325 2.30768 374.325 -7.49932 439.332 7.31968C504.339 22.1387 564.623 63.4197 594.619 122.97C604.631 142.845 611.586 164.93 626.985 180.996C657.685 213.023 710.991 210.774 745.748 238.342C777.256 263.333 804.464 327.142 795.082 366.248C785.7 405.354 757.744 443.24 751.208 447.071L75.9459 451.186Z" fill="#D4F2FF"/>
<path d="M241.159 230.957L254.88 235.514L270.518 413.686C270.518 413.686 237.758 419.846 237.343 417.477C236.928 415.108 241.159 230.957 241.159 230.957Z" fill="#03658C"/>
<path d="M187.73 191.139C187.73 191.139 165.664 186.115 165.664 162.789C165.664 139.463 177.206 138.389 177.206 138.389C177.206 138.389 172.114 118.289 207.76 114.344C243.406 110.399 253.322 141.514 233.631 148.691C213.94 155.868 198.713 147.468 198.713 147.468C198.713 147.468 198.093 154.268 193.422 155.91L187.73 191.139Z" fill="#949494"/>
<path d="M247.04 406.476L246.507 417.499L246.393 419.883V419.896L245.239 443.565L245.214 444.085L244.973 449.044L244.77 453.128H132.679L133.339 449.044L134.227 443.565L137.918 420.784L138.527 417.029L146.124 416.294L197.293 411.309L199.804 411.068L237.413 407.415L238.06 407.351L247.04 406.476Z" fill="#324047"/>
<path d="M251.797 419.083L203.191 426.326L199.855 413.959L197.166 413.642L194.363 425.818L145.731 422.14L144.146 422.026L133.922 419.984L133.998 419.146L134.772 410.952L141.241 342.394L146.683 284.668L148.167 268.953L152.061 227.716L161.219 225.636L166.977 224.33L197.255 217.493L227.963 226.803L233.303 228.414L241.713 230.964L251.797 419.083Z" fill="#03658C"/>
<path d="M224.986 272.181L239.055 286.81L212.492 342.138L171.9 303.401L177.37 272.57L155.491 270.996L161.671 225.634L167.428 224.333L197.714 217.495L228.422 226.8L233.758 228.413L239.055 268.626L224.986 272.181Z" fill="#3C9EC4"/>
<path d="M228.422 226.8L218.595 279.136L210.516 322.225L194.048 284.828L167.428 224.333L197.714 217.495L228.422 226.8Z" fill="#F2F7F9"/>
<path d="M213.2 341.128C213.046 341.555 201.383 378.906 199.618 414.166L197.157 413.642C198.923 378.207 211.434 342.274 211.587 341.827L213.2 341.128Z" fill="#005270"/>
<g style="mix-blend-mode:multiply">
<path d="M177.451 247.404L189.46 234.604L204.313 241.481L215.691 235.563L226.278 248.519C226.278 248.519 225.488 230.925 225.172 230.285C224.856 229.645 216.481 224.207 216.481 224.207L206.21 229.485L192.62 225.967L186.3 223.887L182.507 225.007C182.507 225.007 179.663 229.007 177.451 233.007V247.404Z" fill="#CFE5ED"/>
</g>
<path d="M195.995 207.061L177.223 213.508L167.428 224.334L177.451 247.404L187.615 226.062L203.37 241.67L216.108 228.777L224.488 244.724L228.422 226.801L218.789 209.775L195.995 207.061Z" fill="#F2F7F9"/>
<path d="M171.381 167.867C171.381 181.328 185.981 182.019 185.981 182.019L185.018 205.675C185.018 205.675 185.033 222.232 197.305 224.941C215.905 229.047 216.934 214.674 216.934 214.674L217.295 210.106L217.895 202.432C230.712 200.209 236.067 183.795 235.315 176.668C234.593 169.573 233.389 143.84 233.389 143.84C220.632 147.086 206.733 141.617 206.733 141.617C205.048 146.276 198.038 147.251 198.038 147.251C195.838 157.544 188.832 158.792 188.832 158.792C188.832 158.792 171.381 154.377 171.381 167.867Z" fill="#FFCBC4"/>
<path d="M203.122 201.062C203.122 201.062 203.814 208.006 217.292 210.107L217.892 202.432L217.17 202.677C214.842 203.379 212.395 203.599 209.979 203.321C207.563 203.044 205.23 202.275 203.122 201.062Z" fill="#F79085"/>
<path d="M209.609 167.139L209.409 167.316C209.12 167.639 208.739 167.864 208.318 167.963C208.151 167.999 207.981 168.017 207.811 168.014H198.374C197.925 168 197.488 167.868 197.105 167.633C196.736 167.369 196.45 167.007 196.279 166.587C196.109 166.167 196.061 165.707 196.141 165.261C196.687 162.42 199.477 158.031 204.361 159.097C204.519 159.147 204.68 159.185 204.843 159.211C206.113 159.53 207.273 160.188 208.198 161.115C209.123 162.043 209.778 163.204 210.094 164.475C210.152 164.649 210.198 164.828 210.233 165.008C210.315 165.387 210.302 165.781 210.193 166.153C210.084 166.525 209.883 166.864 209.609 167.139V167.139Z" fill="white"/>
<path d="M233.049 167.139L232.859 167.316C232.722 167.493 232.549 167.64 232.352 167.747C232.084 167.921 231.772 168.014 231.452 168.014H223.052C222.65 168.002 222.261 167.869 221.936 167.633C221.596 167.349 221.337 166.98 221.186 166.563C221.034 166.147 220.996 165.697 221.074 165.261C221.556 162.42 224.042 158.031 228.367 159.097C228.532 159.135 228.667 159.197 228.798 159.211C229.976 159.591 231.03 160.28 231.851 161.205C232.672 162.131 233.23 163.26 233.466 164.475C233.604 164.922 233.638 165.394 233.566 165.856C233.493 166.317 233.316 166.756 233.047 167.139H233.049Z" fill="white"/>
<path d="M216.348 179.139C216.689 179.096 224.686 178.01 224.81 172.917C224.879 172.297 224.796 171.669 224.567 171.088C224.339 170.507 223.972 169.991 223.499 169.584C222.521 168.936 221.329 168.695 220.176 168.913L219.386 160.213L217.886 160.352L218.838 170.822L219.716 170.558C220.187 170.401 220.684 170.342 221.178 170.384C221.672 170.425 222.153 170.567 222.59 170.8C222.865 171.066 223.073 171.393 223.197 171.755C223.321 172.117 223.358 172.503 223.304 172.882C223.212 176.672 216.229 177.622 216.158 177.631L216.348 179.139Z" fill="#F79085"/>
<path d="M211.139 189.588C212.875 189.582 214.607 189.402 216.307 189.051L215.984 187.564C217.01 187.371 205.346 190.072 203.615 184.453L202.181 184.905C203.359 188.739 207.605 189.588 211.139 189.588Z" fill="#F79085"/>
<path d="M181.685 172.831L182.643 171.659C181.614 170.402 180.784 168.994 180.184 167.484C180.348 165.673 182.337 164.5 182.358 164.484L181.623 163.154C181.515 163.217 178.923 164.71 178.688 167.34C178.521 169.179 179.528 171.024 181.685 172.831Z" fill="#F79085"/>
<path d="M209.4 155.755C209.4 155.755 202.284 152.519 196.758 156.092C197.086 154.668 197.852 153.382 198.948 152.414C200.045 151.447 201.416 150.848 202.87 150.699C207.98 150.228 209.4 155.755 209.4 155.755Z" fill="#949494"/>
<path d="M234.012 155.902C234.012 155.902 226.896 152.666 221.371 156.239C221.699 154.815 222.465 153.529 223.561 152.561C224.657 151.594 226.028 150.994 227.482 150.846C232.589 150.374 234.012 155.902 234.012 155.902Z" fill="#949494"/>
<path d="M209 165.463C209.005 166.343 208.768 167.208 208.315 167.963C208.148 167.999 207.978 168.016 207.808 168.014H201.508C201.02 167.253 200.764 166.367 200.772 165.464C200.717 164.89 200.782 164.311 200.964 163.764C201.146 163.217 201.44 162.714 201.827 162.287C202.215 161.861 202.687 161.52 203.214 161.286C203.741 161.053 204.312 160.933 204.888 160.933C205.464 160.933 206.034 161.053 206.561 161.286C207.089 161.52 207.561 161.861 207.949 162.287C208.336 162.714 208.63 163.217 208.812 163.764C208.994 164.311 209.059 164.89 209.004 165.464L209 165.463Z" fill="#3F5B73"/>
<path d="M232.8 165.691C232.799 166.4 232.648 167.1 232.356 167.745C232.088 167.919 231.776 168.012 231.456 168.012H225.139C224.748 167.302 224.547 166.502 224.556 165.691C224.502 165.117 224.568 164.538 224.75 163.991C224.933 163.443 225.227 162.94 225.615 162.514C226.003 162.087 226.476 161.746 227.004 161.513C227.531 161.28 228.102 161.159 228.679 161.159C229.255 161.159 229.826 161.28 230.353 161.513C230.881 161.746 231.354 162.087 231.742 162.514C232.13 162.94 232.425 163.443 232.607 163.991C232.789 164.538 232.856 165.117 232.801 165.691H232.8Z" fill="#3F5B73"/>
<path d="M187.536 155.857L188.114 169.304L192.542 174.371L194.467 153.518L187.536 155.857Z" fill="#949494"/>
<path d="M213.94 180.828C214.335 180.982 213.571 184.744 213.571 184.744L202.166 182.588C202.166 182.588 208.053 178.525 213.94 180.828Z" fill="#949494"/>
<path d="M218.089 180.975C217.717 181.13 218.437 184.892 218.437 184.892L229.181 182.739C229.181 182.739 223.635 178.673 218.089 180.975Z" fill="#949494"/>
<path d="M196.745 234.784L210.163 235.296L214.214 241.703L210.922 250.415L200.289 249.903L194.214 242.471L196.745 234.784Z" fill="#03658C"/>
<path d="M218.595 279.136L210.977 324.116L194.048 284.828L200.286 249.899L210.918 250.423L218.595 279.136Z" fill="#03658C"/>
<path d="M233.409 149.34C233.409 149.34 218.138 151.74 198.037 147.25L203.569 135.517L230.569 136.3L237.417 138.843C237.417 138.843 238.591 140.996 237.809 142.365L233.409 149.34Z" fill="#949494"/>
<path d="M151.176 249.249C151.176 249.249 149.721 318.542 151.235 318.164C152.749 317.786 179.627 324.454 178.492 324.075C177.357 323.696 153.385 340.1 138.751 335.565C133.68 333.993 130.807 325.729 130.051 319.677C129.295 313.625 143.669 267.852 143.669 261.421L151.176 249.249Z" fill="#005270"/>
<path d="M150.742 348.091L145.731 422.141L144.146 422.027L133.922 419.985L133.998 419.147L134.772 410.953L141.241 342.395L150.742 348.091Z" fill="#005270"/>
<path d="M174.309 332.539L170.529 356.372L166.66 358.529L156.906 363.932L118.181 360.457L102.973 348.293L108.896 327.325L135.723 232.232L152.974 227.336L151.173 249.254L145.244 321.138L160.969 324.507L174.309 332.539Z" fill="#03658C"/>
<path d="M170.3 329.063C169.871 328.848 165.829 328.882 162.14 328.963C160.348 329 158.617 329.616 157.203 330.718C155.79 331.82 154.771 333.349 154.298 335.078L150.737 348.098C150.471 349.069 150.415 350.085 150.572 351.079C150.729 352.073 151.096 353.023 151.649 353.864C152.201 354.706 152.927 355.42 153.777 355.959C154.626 356.498 155.582 356.85 156.578 356.992C161.519 357.692 166.895 358.384 166.678 358.055C166.273 357.448 170.3 329.063 170.3 329.063Z" fill="#F2F7F9"/>
<path d="M166.66 358.529L157.806 363.429C157.22 363.754 156.55 363.895 155.882 363.835L118.182 360.452L102.974 348.288L108.897 327.32L106.461 346.12L122.51 357.62L166.66 358.529Z" fill="#005270"/>
<path style="mix-blend-mode:screen" opacity="0.75" d="M205.936 323.953C205.936 323.953 193.326 309.917 202.605 290.268C211.884 270.619 210.218 260.192 204.505 246.557C198.792 232.922 208.074 207.657 210.691 204.451H238.051C238.051 204.451 223.776 221.694 229.01 242.951C234.244 264.208 232.341 283.851 227.345 291.875C222.349 299.899 221.873 313.53 229.245 322.352L205.936 323.953Z" fill="url(#paint0_linear)"/>
<path d="M206.688 367.594H224.059V359.339H206.688V367.594Z" fill="#A1DCF0"/>
<path d="M214.609 322.191V362.439H217.492C226.812 362.439 234.577 354.539 236.297 344.051C236.41 343.391 236.497 342.71 236.558 342.018C236.618 341.255 236.658 340.471 236.658 339.676V322.196L214.609 322.191Z" fill="#A1DCF0"/>
<path d="M194.093 322.191V339.671C194.093 339.857 194.093 340.032 194.102 340.208C194.111 340.971 194.163 341.724 194.241 342.457C194.578 345.924 195.631 349.284 197.333 352.322C197.646 352.895 197.991 353.45 198.366 353.983C201.866 359.143 207.243 362.434 213.254 362.434H216.137V347.434L216.129 337.961V322.191H194.093Z" fill="#A1DCF0"/>
<path d="M191.2 326.787H202.38V330.846H193.565C188.84 330.846 185.009 335.397 185.009 341.011V342.582C185.009 348.196 188.84 352.747 193.565 352.747H202.38V356.806H191.2C185.6 356.806 181.061 351.413 181.061 344.76V338.833C181.065 332.18 185.6 326.787 191.2 326.787Z" fill="#A1DCF0"/>
<path d="M207.122 330.846H202.384V352.747H207.122V330.846Z" fill="#A1DCF0"/>
<path d="M192.838 327.494L190.823 357.057L190.723 358.601C190.723 358.601 177.985 363.901 176.923 363.201C175.861 362.501 157.481 354.009 157.481 354.009L158.024 350.821L161.37 331.021L177.28 323.945L192.838 327.494Z" fill="#FFCBC4"/>
<path d="M190.823 357.057L190.723 358.601C190.723 358.601 177.985 363.901 176.923 363.201C175.861 362.501 157.481 354.009 157.481 354.009L158.024 350.821C163.256 353.451 174.624 358.821 179.053 359.656C181.988 360.216 186.849 358.672 190.823 357.057Z" fill="#FFA99E"/>
<path d="M447.451 417.409C447.263 419.562 446.637 421.654 445.612 423.557C444.587 425.46 443.184 427.133 441.489 428.475C439.794 429.816 437.844 430.798 435.756 431.359C433.669 431.92 431.489 432.05 429.35 431.739L390.08 425.625L371.358 422.708L367.54 415.554L350.074 382.829C350.074 382.829 348.666 398.405 348.831 418.192C348.882 424.547 349.097 431.346 349.567 438.192C349.566 438.225 349.57 438.259 349.579 438.292C349.582 438.402 349.59 438.512 349.605 438.621C349.705 440.258 349.846 441.907 349.998 443.556C350.277 446.765 350.632 449.961 351.051 453.119H255.323C255.209 451.394 255.107 449.504 255.006 447.475C254.955 446.219 254.904 444.912 254.854 443.556C254.574 435.92 254.473 426.686 254.778 416.361C255.353 393.708 258.11 371.163 263.01 349.039C263.363 347.48 263.842 345.953 264.443 344.473C267.112 337.825 271.996 332.305 278.269 328.846L302.648 315.514L304.994 314.221C304.994 314.221 323.412 314.83 331.086 315.058C332.798 315.109 333.965 315.134 334.295 315.134C335.305 315.443 336.272 315.878 337.174 316.428C354.345 325.532 367.8 340.345 375.214 358.311L389.214 392.038L434.514 400.397C438.401 401.113 441.881 403.254 444.274 406.4C446.666 409.546 447.799 413.472 447.451 417.409V417.409Z" fill="#00315C"/>
<path d="M439.268 429.938C436.248 431.604 432.766 432.236 429.353 431.738L371.364 422.708L350.075 382.838C349.443 383.876 350.888 367.938 350.888 367.938C350.888 367.938 369.368 407.432 382.775 413.958C396.182 420.484 438.216 424.098 439.304 424.458C440.03 424.701 439.617 427.873 439.268 429.938Z" fill="#042440"/>
<path d="M339.939 419.426C339.825 426.237 339.66 432.541 339.483 437.995C339.419 439.961 339.356 441.826 339.305 443.564C339.153 447.42 339.013 450.654 338.912 453.127H311.59C311.641 451.111 311.704 448.46 311.768 445.251C311.768 444.705 311.78 444.151 311.78 443.564C311.894 435.89 311.907 425.349 311.603 412.475C311.311 399.803 310.703 384.886 309.573 368.232C307.886 343.32 306.009 329.71 304.462 322.264C304.03 319.972 303.423 317.716 302.648 315.516L304.994 314.223C304.994 314.223 323.412 314.832 331.086 315.06C332.736 318.495 333.959 322.12 334.726 325.854C339.939 348.559 340.447 389.11 339.939 419.426Z" fill="#F26835"/>
<path d="M306.37 307.356C306.37 307.356 291.265 305.068 291.265 329.785C291.265 329.785 299.965 318.342 305.679 328.62C305.679 328.62 303.624 318.342 304.997 314.22L306.37 307.356Z" fill="#FFBE01"/>
<path d="M329.714 315.138V306.898C329.714 306.898 343.446 307.813 345.277 330.698C345.277 330.698 339.226 321.865 336.577 333.898C336.58 333.903 333.376 316.052 329.714 315.138Z" fill="#FFBE01"/>
<path d="M334.731 325.858L328.8 335.639C328.512 336.112 328.128 336.519 327.673 336.834C327.217 337.149 326.7 337.363 326.156 337.465C325.612 337.566 325.052 337.551 324.514 337.421C323.976 337.29 323.471 337.048 323.033 336.71C318.556 333.24 310.656 327.11 304.769 322.51C304.469 319.535 304.348 316.184 304.998 314.225C304.998 314.225 323.408 314.839 331.089 315.058C332.736 318.497 333.959 322.123 334.731 325.858Z" fill="white"/>
<path d="M272.041 336.192L267.464 338.023C267.464 338.023 232 400.595 235.423 431.399C235.423 431.399 235.423 450.624 275.703 448.793C291.197 448.19 306.622 446.405 321.845 443.455C325.917 442.629 329.496 440.221 331.795 436.76C334.094 433.298 334.926 429.066 334.109 424.991C333.389 421.393 331.431 418.16 328.575 415.855C325.719 413.55 322.146 412.318 318.477 412.373L271.125 413.09L290.35 368.238C290.35 368.238 292.181 342.605 272.041 336.197V336.192Z" fill="#00315C"/>
<path d="M308.746 292.92C306.826 294.22 305.764 295.378 303.446 295.205C301.128 295.032 298.184 292.262 298.288 289.839C296.516 290.815 294.868 289.876 293.322 288.439C291.776 287.002 290.994 285.458 291.7 283.49C290.783 283.656 289.838 283.497 289.025 283.04C288.213 282.584 287.585 281.859 287.25 280.99C286.559 279.197 286.819 277.146 288.4 276.25C285.322 273.95 283.71 269.328 285.741 266.144C282.517 263.744 282.216 258.115 285.178 255.585C283.44 254.928 283 252.024 283.017 250.113C283.034 248.202 284.017 247.056 285.501 245.996C285.948 245.677 285.919 244.209 285.807 243.759C285.076 240.822 287.262 237.585 290.122 237.37C290.084 234.47 292.609 231.358 295.343 231.956C295.961 228.562 299.686 225.674 302.898 226.689C303.678 225.069 305.003 223.775 306.64 223.033C308.278 222.291 310.124 222.148 311.856 222.63C313.892 219.915 317.693 219.692 320.814 221.093C322.962 219.571 326.251 218.499 328.214 220.419C328.55 220.843 328.936 221.225 329.363 221.558C330.386 222.158 331.573 221.432 332.676 221.116C333.951 220.844 335.282 221.066 336.4 221.737C337.518 222.407 338.34 223.477 338.701 224.73C340.298 224.348 341.968 224.391 343.543 224.856C345.089 225.456 346.396 227.203 345.972 228.836C346.637 228.437 347.408 228.25 348.182 228.301C348.956 228.352 349.695 228.639 350.302 229.122C350.921 229.637 351.385 230.314 351.641 231.077C351.898 231.84 351.938 232.659 351.757 233.444C354.469 234.031 355.833 238.134 354.011 240.224C356.611 241.356 357.364 245.565 355.298 247.442C357.877 249.247 357.826 253.9 355.211 255.452C357.511 257.176 357.04 261.533 354.448 262.5C355.968 264.3 355.327 267.508 353.271 268.4C354.208 270.175 352.883 272.361 351.194 273.232C349.505 274.103 347.521 274.178 345.754 274.872C343.628 275.708 341.944 277.385 340.225 278.917C333.855 284.597 326.265 288.737 318.04 291.017C317.551 291.218 317.025 291.316 316.497 291.306C315.968 291.296 315.447 291.179 314.965 290.96" fill="#1F1A1A"/>
<path d="M289.993 272.658C289.993 258.969 307.08 263.465 307.08 263.465C307.08 263.465 313.946 262.181 316.091 251.743C316.091 251.743 320.498 243.033 335.802 243.033C351.106 243.033 350.968 253.951 350.968 253.951C351.358 262.04 352.136 277.485 351.836 282.58C351.359 290.701 348.1 305.48 335.536 307.725L334.951 315.513L334.599 320.15C334.599 320.15 334.346 330.065 316.127 325.89C304.112 323.14 304.853 315.914 304.853 315.914L305.321 288.275C305.321 288.275 289.993 286.308 289.993 272.658Z" fill="#824B45"/>
<path d="M321.079 306.339C321.079 306.339 321.756 313.382 334.953 315.514L335.542 307.729L334.835 307.976C332.556 308.689 330.153 308.912 327.782 308.63C325.411 308.348 323.127 307.567 321.079 306.339V306.339Z" fill="#452518"/>
<path d="M327.445 271.912L327.229 272.099C327.009 272.357 326.728 272.556 326.412 272.678C326.174 272.768 325.922 272.815 325.667 272.816H316.423C315.984 272.808 315.557 272.668 315.198 272.416C314.825 272.147 314.536 271.777 314.366 271.35C314.196 270.923 314.151 270.457 314.236 270.005C314.765 267.139 317.512 262.685 322.294 263.768C322.471 263.784 322.607 263.868 322.759 263.882C324.022 264.22 325.169 264.896 326.077 265.837C326.984 266.779 327.618 267.949 327.91 269.224C327.965 269.402 328.005 269.584 328.03 269.769C328.116 270.147 328.107 270.54 328.005 270.913C327.903 271.287 327.711 271.63 327.445 271.912V271.912Z" fill="white"/>
<path d="M350.386 271.912L350.21 272.099C350.015 272.357 349.755 272.56 349.457 272.686C349.249 272.773 349.026 272.817 348.8 272.816H340.59C340.193 272.804 339.81 272.664 339.5 272.416C339.162 272.122 338.906 271.745 338.758 271.322C338.611 270.899 338.577 270.445 338.659 270.005C339.132 267.139 341.567 262.685 345.796 263.768C345.956 263.784 346.096 263.868 346.229 263.882C347.396 264.286 348.435 264.994 349.238 265.933C350.04 266.872 350.578 268.008 350.795 269.224C350.851 269.424 350.867 269.606 350.907 269.769C350.984 270.142 350.977 270.528 350.887 270.899C350.797 271.269 350.626 271.615 350.386 271.912V271.912Z" fill="white"/>
<path d="M334.029 284.099C334.363 284.056 342.193 282.954 342.314 277.788C342.384 277.163 342.304 276.531 342.081 275.943C341.858 275.355 341.498 274.828 341.031 274.406C340.562 274.082 340.032 273.855 339.473 273.738C338.914 273.622 338.338 273.618 337.777 273.726L337 264.897L335.533 265.039L336.465 275.66L337.325 275.391C337.785 275.233 338.274 275.173 338.759 275.215C339.243 275.257 339.714 275.401 340.139 275.637C340.411 275.912 340.615 276.245 340.737 276.611C340.858 276.978 340.893 277.367 340.839 277.749C340.75 281.594 333.912 282.558 333.839 282.567L334.029 284.099Z" fill="#451A16"/>
<path d="M328.928 294.696C330.629 294.689 332.325 294.507 333.989 294.152L333.672 292.643C334.672 292.443 323.256 295.188 321.561 289.488L320.161 289.946C321.311 293.833 325.468 294.696 328.928 294.696Z" fill="#451A16"/>
<path d="M300.089 277.697L301.027 276.509C300.016 275.226 299.204 273.798 298.619 272.273C298.746 271.647 299 271.054 299.367 270.531C299.733 270.008 300.203 269.567 300.748 269.234L300.029 267.885C299.27 268.34 298.619 268.957 298.123 269.69C297.626 270.423 297.296 271.256 297.155 272.131C296.991 273.993 297.978 275.865 300.089 277.697Z" fill="#451A16"/>
<path d="M327.229 260.375C327.229 260.375 320.262 257.093 314.852 260.717C314.852 260.717 315.835 255.725 320.836 255.246C325.837 254.767 327.229 260.375 327.229 260.375Z" fill="#1F1A1A"/>
<path d="M351.324 260.524C351.324 260.524 344.357 257.241 338.946 260.865C338.946 260.865 339.93 255.873 344.93 255.395C349.93 254.917 351.324 260.524 351.324 260.524Z" fill="#1F1A1A"/>
<path d="M310.116 260.6C308.503 265.689 308.065 271.077 308.835 276.36L305.17 274.474L302.205 262.409L310.116 260.6Z" fill="#1F1A1A"/>
<path d="M314.965 250.407C314.589 252.135 316.401 253.789 318.135 253.636C319.001 253.486 319.807 253.095 320.461 252.508C321.116 251.921 321.592 251.162 321.835 250.318C321.995 250.939 322.379 251.478 322.913 251.833C323.447 252.187 324.093 252.331 324.727 252.236C325.356 252.11 325.949 251.846 326.463 251.463C326.977 251.08 327.4 250.587 327.7 250.021C327.911 250.789 328.364 251.469 328.992 251.959C329.62 252.449 330.389 252.724 331.186 252.742C331.982 252.759 332.763 252.52 333.412 252.058C334.061 251.597 334.544 250.938 334.789 250.18C337.389 254.38 340.189 251.893 341.442 249.549C341.529 250.182 341.784 250.781 342.181 251.282C342.578 251.783 343.102 252.168 343.698 252.397C343.999 252.489 344.314 252.519 344.627 252.486C344.939 252.452 345.241 252.356 345.515 252.202C345.789 252.048 346.029 251.841 346.22 251.592C346.412 251.343 346.55 251.057 346.628 250.753C346.94 251.196 347.339 251.572 347.8 251.856C348.262 252.141 348.776 252.328 349.312 252.408C349.848 252.488 350.395 252.457 350.919 252.319C351.444 252.181 351.934 251.938 352.361 251.604C352.634 251.389 352.86 251.122 353.028 250.819C353.196 250.515 353.301 250.181 353.337 249.836C353.325 249.265 353.185 248.703 352.926 248.193C352.26 246.387 351.335 244.687 350.18 243.146C347.18 239.488 342.146 238.364 337.473 237.982C333.28 237.574 329.05 237.783 324.917 238.602C322.456 239.067 320.107 240.004 318.002 241.362C315.875 242.751 314.294 244.834 313.528 247.257" fill="#1F1A1A"/>
<path d="M327.068 269.876C327.077 270.848 326.852 271.809 326.412 272.676C326.174 272.766 325.922 272.813 325.667 272.814H320.244C319.751 271.913 319.497 270.901 319.507 269.874C319.507 267.122 321.197 264.882 323.288 264.882C325.379 264.882 327.068 267.124 327.068 269.876Z" fill="#1F1A1A"/>
<path d="M350.042 270.031C350.049 270.949 349.849 271.856 349.457 272.686C349.249 272.773 349.025 272.817 348.8 272.816H343.137C342.704 271.952 342.482 270.997 342.488 270.031C342.488 267.278 344.178 265.047 346.269 265.047C348.36 265.047 350.042 267.278 350.042 270.031Z" fill="#1F1A1A"/>
<path d="M312.523 413.101L271.123 413.091L285.139 377.621C285.139 377.621 276.269 402.303 286.296 405.774C296.323 409.245 312.523 413.101 312.523 413.101Z" fill="#042440"/>
<path d="M375.504 434.674L349.417 438.329L362.709 426.864L375.504 434.674Z" fill="#452518"/>
<path d="M334.192 420.17C335.037 420.17 373.658 414.682 373.658 414.682L389.909 421.436L390.542 437.054L385.899 437.687V441.063L378.708 441.643C377.95 441.704 377.187 441.61 376.467 441.366C375.747 441.122 375.084 440.734 374.518 440.225C373.953 439.717 373.498 439.098 373.18 438.407C372.862 437.716 372.689 436.968 372.67 436.208L372.603 433.466L363.103 431.566C363.103 431.566 355.294 438.109 346.852 439.166C338.41 440.223 335.452 434.101 335.452 434.101L334.192 420.17Z" fill="#824B45"/>
<path d="M331.149 417.33L330.827 438.422L337.589 438.54L338.505 417.485L331.149 417.33Z" fill="#FFBE01"/>
<path d="M483.965 435.439L482.965 437.379C482.395 438.48 481.459 439.348 480.318 439.834C479.177 440.319 477.903 440.392 476.714 440.04C472.856 438.899 467.338 437.007 464.351 434.799C459.446 431.174 453.902 423.071 453.902 423.071C453.902 423.071 459.66 419.658 462.645 420.085C465.63 420.512 484.823 430.748 484.823 430.748" fill="#452518"/>
<path d="M443.447 425.839L452.83 435.009L467.188 437.946C467.562 438.023 467.95 437.989 468.305 437.848C468.66 437.707 468.967 437.465 469.186 437.152C469.406 436.84 469.53 436.47 469.542 436.088C469.555 435.707 469.456 435.329 469.257 435.003L468.611 433.942L460.511 430.317L457.525 425.199L472.453 428.611L482.689 434.795L483.755 441.195C483.755 441.195 488.234 442.475 488.234 441.622C488.234 440.769 488.447 432.452 488.447 432.452L480.556 420.723L447.929 410.7L443.447 425.839Z" fill="#824B45"/>
<path d="M443.849 405.687L437.476 430.746L445.793 432.452L451.599 408.382" fill="#FFBE01"/>
<path d="M557.815 410.888H400.449C399.77 410.894 399.097 410.765 398.468 410.51C397.839 410.255 397.267 409.878 396.784 409.401C396.301 408.924 395.916 408.357 395.653 407.731C395.39 407.106 395.252 406.434 395.249 405.755L395.635 302.71C395.652 301.346 396.208 300.044 397.183 299.089C398.157 298.134 399.471 297.604 400.835 297.615H558.2C558.879 297.61 559.552 297.738 560.181 297.993C560.81 298.248 561.382 298.625 561.866 299.102C562.349 299.579 562.733 300.146 562.996 300.772C563.26 301.397 563.397 302.069 563.4 302.747L563.015 405.793C562.998 407.158 562.441 408.459 561.467 409.414C560.492 410.369 559.179 410.899 557.815 410.888Z" fill="#02445E"/>
<path d="M564.268 410.888H406.9C406.221 410.894 405.548 410.765 404.919 410.51C404.29 410.255 403.718 409.878 403.235 409.401C402.751 408.925 402.367 408.357 402.104 407.731C401.841 407.106 401.703 406.434 401.7 405.755L402.086 302.71C402.103 301.346 402.659 300.044 403.634 299.089C404.609 298.134 405.922 297.604 407.286 297.615H564.654C565.333 297.61 566.006 297.739 566.635 297.994C567.264 298.249 567.836 298.626 568.319 299.102C568.802 299.579 569.186 300.146 569.45 300.772C569.713 301.397 569.851 302.069 569.854 302.747L569.468 405.793C569.452 407.158 568.895 408.46 567.92 409.415C566.946 410.37 565.633 410.9 564.268 410.888V410.888Z" fill="#035E82"/>
<path d="M503.634 441.651H473.705L473.942 377.258H503.871L503.634 441.651Z" fill="#02445E"/>
<path d="M507.617 441.651H477.688L477.925 377.258H507.854L507.617 441.651Z" fill="#036991"/>
<path d="M534.432 444.395H445.522L445.37 437.092H533.007L534.432 444.395Z" fill="#035E82"/>
<path d="M450.449 436.967H338.983V444.306H450.449V436.967Z" fill="#02445E"/>
<path d="M778.166 448.346C778.165 449.614 777.661 450.829 776.764 451.726C775.868 452.622 774.652 453.126 773.384 453.127H5.73592C5.10218 453.136 4.47295 453.019 3.8848 452.783C3.29664 452.547 2.76131 452.196 2.30992 451.751C1.85852 451.306 1.50008 450.776 1.25542 450.191C1.01076 449.607 0.884766 448.979 0.884766 448.345C0.884766 447.712 1.01076 447.084 1.25542 446.5C1.50008 445.915 1.85852 445.385 2.30992 444.94C2.76131 444.495 3.29664 444.144 3.8848 443.908C4.47295 443.672 5.10218 443.555 5.73592 443.564H773.384C774.652 443.565 775.868 444.069 776.764 444.965C777.661 445.862 778.165 447.078 778.166 448.346Z" fill="#186B8C"/>
<path d="M73.1859 351.967C73.1859 351.967 81.1459 344.087 90.1679 349.945C99.1899 355.803 99.7769 372.445 99.7769 372.445C99.7769 372.445 94.7379 368.578 89.4649 368.345C84.1919 368.112 67.2179 359.028 73.1859 351.967Z" fill="#88BDD1"/>
<path d="M65.2219 395.184C65.2219 395.184 64.0389 386.973 69.0769 383.341C74.1149 379.709 83.7659 378.302 85.8539 376.31C85.8539 376.31 86.8879 385.684 81.7319 390.605C76.5759 395.526 67.6939 396.95 65.2219 395.184Z" fill="#88BDD1"/>
<path d="M52.937 380.361C52.937 380.361 51.853 384.161 45.76 383.224C39.667 382.287 32.168 377.013 29.707 377.131C29.707 377.131 35.332 372.795 42.007 373.615C48.682 374.435 52.731 377.615 52.937 380.361Z" fill="#88BDD1"/>
<path d="M56.7677 370C56.7677 370 50.3097 371.858 46.5607 368.577C42.8117 365.296 40.2607 356.039 39.8957 355.805C39.5307 355.571 53.3957 357.751 56.7677 364.124C60.1397 370.497 56.7677 370 56.7677 370Z" fill="#63AAC6"/>
<path d="M48.5369 341.174C48.5369 341.174 47.9859 343.619 42.4789 343.502C36.9719 343.385 31.9339 347.134 28.5359 348.892C25.1379 350.65 13.8889 349.009 13.7719 348.892C13.6549 348.775 14.2399 346.314 18.9269 343.971C23.6139 341.628 27.2469 333.659 34.3939 333.777C41.5409 333.895 48.1489 337.673 48.5369 341.174Z" fill="#63AAC6"/>
<path d="M51.5487 397.353C51.1041 394.383 49.6626 391.652 47.4609 389.608C45.2592 387.565 42.4282 386.331 39.4327 386.109C28.4177 384.863 24.1997 390.838 24.1997 390.838C24.1997 390.838 29.9417 395.782 35.6827 397.352C41.4237 398.922 48.4337 398.712 51.5487 397.353Z" fill="#63AAC6"/>
<path d="M94.4348 363.493C87.3348 355.015 80.4578 350.935 74.5598 351.693C69.9938 352.278 66.0898 355.793 62.9448 362.124C63.1748 358.798 63.3358 356.59 65.5818 353.296C68.5038 349.01 69.3168 341.369 69.3238 341.296L69.0368 341.267C69.0288 341.343 68.2248 348.912 65.3428 353.138C63.4336 355.775 62.3732 358.931 62.3028 362.186C62.2378 363.127 62.1638 364.193 62.0318 365.376C61.9228 366.366 61.8408 367.331 61.7618 368.264C61.4318 372.158 61.4618 373.572 59.5358 374.773C58.9608 357.306 58.1358 341.862 56.8268 336.449L55.7028 336.721C56.511 341.224 57.0165 345.776 57.2158 350.346C50.9888 341.667 44.6578 336.992 38.3838 336.468C36.5466 336.314 34.6972 336.54 32.9512 337.132C31.2052 337.724 29.6 338.67 28.2358 339.91L28.4428 340.11C29.7781 338.902 31.3472 337.98 33.0531 337.403C34.759 336.826 36.5652 336.605 38.3598 336.755C44.6368 337.279 50.9888 342.043 57.2518 350.894C57.5808 355.881 57.8648 361.694 58.1088 367.807C55.072 365.685 51.9239 363.727 48.6778 361.942L48.5398 362.196C51.8423 364.011 55.0418 366.008 58.1238 368.176C58.3508 373.933 58.5418 379.94 58.7018 385.764C54.5758 377.764 38.0698 375.803 37.8888 375.782L37.8558 376.069C38.0398 376.09 55.2138 378.13 58.7208 386.476C58.9148 393.638 59.0608 400.484 59.1668 406.199C56.5218 399.886 50.1048 396.07 45.0548 393.958C40.6743 392.099 36.036 390.92 31.2998 390.459C30.7998 390.449 30.6848 390.5 30.6408 390.61L30.9088 390.718C30.9006 390.741 30.8843 390.76 30.8628 390.772C31.2928 390.588 38.4698 391.354 45.7318 394.56C50.6078 396.713 56.8648 400.619 59.1788 407.019C59.3348 415.519 59.3998 421.319 59.4018 421.519L60.5578 421.507C60.5478 420.631 60.4738 413.94 60.2978 404.631C64.4088 391.923 82.0098 379.331 82.7088 379.188L82.6528 378.905C82.0758 379.02 77.0678 382.621 71.9018 387.673C67.7018 391.785 62.5118 397.738 60.2828 403.809C60.1318 395.927 59.9108 386.295 59.5988 376.747C61.7728 375.535 62.0528 372.31 62.3988 368.247C62.4778 367.315 62.5598 366.353 62.6698 365.366C62.7698 364.466 62.8358 363.643 62.8898 362.886C66.0428 356.242 69.9808 352.573 74.5958 351.986C80.3958 351.237 87.1788 355.286 94.2128 363.686C94.6128 364.16 94.6308 364.186 94.6928 364.204L94.7518 364.029L94.8198 363.949C94.7848 363.91 94.6228 363.717 94.4348 363.493Z" fill="#273137"/>
<path d="M54.0498 444.13L68.2578 443.947C69.5456 443.93 70.7849 443.453 71.7512 442.601C72.7174 441.75 73.3466 440.58 73.5248 439.305L76.3498 419.053L45.3198 419.453L48.6658 439.626C48.8768 440.896 49.5358 442.049 50.5235 442.875C51.5112 443.701 52.7622 444.146 54.0498 444.13V444.13Z" fill="#4B96B5"/>
<path d="M43.7926 420.418L77.8998 419.979C78.7221 419.969 79.3801 419.293 79.3695 418.471L79.3153 414.258C79.3048 413.436 78.6296 412.778 77.8073 412.789L43.7001 413.227C42.8778 413.238 42.2198 413.913 42.2304 414.735L42.2846 418.948C42.2952 419.77 42.9703 420.428 43.7926 420.418Z" fill="#2E506E"/>
<path d="M332.264 211.768L330.51 209.936L362.884 178.94H433.627V125.143H649.404V127.68H436.164V181.477H363.902L332.264 211.768Z" fill="#51B9E3"/>
<path d="M436.164 180.208H433.627V258.271H436.164V180.208Z" fill="#51B9E3"/>
<path d="M471.999 105.41L462.449 87.0908L451.536 105.41H458.047V119.889H466.006V105.41H471.999Z" fill="#51B9E3"/>
<path d="M498.698 105.41L489.148 87.0908L478.235 105.41H484.746V119.889H492.705V105.41H498.698Z" fill="#51B9E3"/>
<path d="M525.396 105.41L515.847 87.0908L504.934 105.41H511.445V119.889H519.404V105.41H525.396Z" fill="#51B9E3"/>
<path d="M553.286 115.579C552.564 116.762 551.519 117.715 550.275 118.326C548.764 119.056 547.098 119.411 545.42 119.361C543.691 119.39 541.974 119.064 540.377 118.401C538.965 117.815 537.737 116.859 536.821 115.635C535.92 114.405 535.391 112.942 535.297 111.42H540.942C541.041 112.443 541.502 113.398 542.242 114.111C542.639 114.477 543.104 114.76 543.611 114.944C544.119 115.128 544.657 115.209 545.196 115.183C545.657 115.214 546.12 115.152 546.556 115C546.992 114.848 547.394 114.609 547.736 114.299C548.031 114 548.261 113.643 548.414 113.252C548.566 112.86 548.636 112.442 548.621 112.022C548.648 111.273 548.392 110.541 547.905 109.971C547.404 109.413 546.788 108.969 546.099 108.671C545.371 108.345 544.367 107.969 543.088 107.542C541.695 107.097 540.337 106.55 539.024 105.905C537.951 105.349 537.028 104.542 536.333 103.553C535.546 102.362 535.157 100.952 535.223 99.526C535.179 98.4953 535.38 97.4689 535.808 96.5305C536.237 95.592 536.881 94.7681 537.688 94.126C539.57 92.7319 541.878 92.0335 544.217 92.15C546.625 92.0235 549.001 92.7423 550.935 94.182C551.755 94.842 552.43 95.6637 552.919 96.596C553.408 97.5283 553.7 98.5512 553.776 99.601H548.056C547.935 98.7035 547.511 97.8741 546.856 97.249C546.12 96.6037 545.161 96.2726 544.184 96.327C543.327 96.2872 542.484 96.5613 541.814 97.098C541.273 97.6476 540.953 98.3771 540.915 99.1476C540.876 99.918 541.123 100.676 541.607 101.276C542.104 101.814 542.706 102.243 543.376 102.537C544.328 102.953 545.301 103.317 546.292 103.628C547.71 104.112 549.098 104.677 550.451 105.321C551.544 105.872 552.482 106.687 553.179 107.693C553.98 108.922 554.372 110.373 554.3 111.839C554.31 113.155 553.959 114.448 553.286 115.579V115.579Z" fill="#51B9E3"/>
<path d="M568.527 105.587L579.78 119.097H573.344L563.522 106.939V119.094H558.215V92.5283H563.522V104.458L573.382 92.5283H579.782L568.527 105.587Z" fill="#51B9E3"/>
<path d="M588.021 92.5283V119.097H582.714V92.5283H588.021Z" fill="#51B9E3"/>
<path d="M598.144 115.033H607.063V119.097H592.837V92.5283H598.144V115.033Z" fill="#51B9E3"/>
<path d="M615.531 115.033H624.45V119.097H610.224V92.5283H615.531V115.033Z" fill="#51B9E3"/>
<path d="M644.846 115.579C644.124 116.762 643.08 117.715 641.835 118.326C640.324 119.056 638.659 119.411 636.981 119.361C635.252 119.391 633.535 119.064 631.938 118.401C630.526 117.815 629.297 116.859 628.381 115.635C627.481 114.404 626.953 112.942 626.858 111.42H632.5C632.599 112.443 633.06 113.398 633.8 114.111C634.197 114.476 634.662 114.759 635.17 114.943C635.677 115.128 636.215 115.209 636.754 115.183C637.215 115.214 637.678 115.152 638.114 115C638.551 114.848 638.952 114.61 639.294 114.299C639.589 114 639.82 113.643 639.972 113.252C640.124 112.86 640.195 112.442 640.179 112.022C640.207 111.273 639.951 110.54 639.463 109.971C638.962 109.413 638.346 108.969 637.658 108.671C636.929 108.345 635.925 107.969 634.647 107.542C633.254 107.097 631.896 106.55 630.583 105.905C629.51 105.349 628.586 104.542 627.891 103.553C627.104 102.362 626.716 100.952 626.782 99.526C626.738 98.4953 626.939 97.4689 627.367 96.5304C627.796 95.592 628.44 94.7681 629.247 94.1259C631.129 92.7317 633.437 92.0333 635.776 92.15C638.184 92.0237 640.56 92.7424 642.494 94.1819C643.314 94.8419 643.989 95.6637 644.478 96.596C644.967 97.5282 645.258 98.5511 645.334 99.601H639.615C639.492 98.7031 639.067 97.8738 638.41 97.249C637.674 96.6038 636.715 96.2728 635.738 96.327C634.881 96.2868 634.038 96.5609 633.368 97.0979C632.827 97.6474 632.506 98.3769 632.468 99.1475C632.43 99.918 632.677 100.676 633.161 101.276C633.657 101.814 634.259 102.243 634.929 102.537C635.881 102.953 636.854 103.317 637.845 103.628C639.263 104.112 640.651 104.677 642.004 105.321C643.098 105.872 644.036 106.687 644.733 107.693C645.535 108.92 645.93 110.368 645.862 111.832C645.873 113.15 645.522 114.447 644.846 115.579V115.579Z" fill="#51B9E3"/>
<path d="M479.643 136.872C479.11 136.847 478.576 136.835 478.043 136.834C469.598 136.835 461.428 139.832 454.985 145.292C448.543 150.752 444.246 158.32 442.859 166.65C441.473 174.98 443.086 183.532 447.413 190.784C451.74 198.036 458.499 203.518 466.488 206.255C470.205 207.539 474.111 208.191 478.043 208.183C486.951 208.19 495.538 204.86 502.112 198.849C508.686 192.839 512.77 184.584 513.559 175.711C513.66 174.658 513.711 173.592 513.711 172.511C513.709 163.328 510.167 154.499 503.822 147.861C497.477 141.223 488.817 137.287 479.643 136.872V136.872ZM478.043 200.065C474.646 200.073 471.277 199.445 468.111 198.213C462.113 195.893 457.115 191.549 453.982 185.932C450.85 180.316 449.781 173.78 450.96 167.458C452.139 161.136 455.492 155.425 460.438 151.315C465.384 147.205 471.612 144.954 478.043 144.952C478.576 144.952 479.108 144.965 479.643 145.003C486.664 145.409 493.263 148.485 498.089 153.6C502.915 158.715 505.603 165.482 505.6 172.515C505.601 173.584 505.537 174.653 505.41 175.715C504.641 182.428 501.425 188.622 496.378 193.114C491.332 197.607 484.807 200.082 478.05 200.069L478.043 200.065Z" fill="#87DCFF"/>
<path d="M513.713 172.515C513.713 173.593 513.662 174.66 513.561 175.715H505.405C505.533 174.653 505.596 173.585 505.595 172.515C505.598 165.483 502.911 158.717 498.086 153.602C493.261 148.487 486.663 145.41 479.643 145.003V136.872C488.818 137.287 497.479 141.223 503.825 147.862C510.171 154.501 513.712 163.331 513.713 172.515Z" fill="#51B9E3"/>
<path d="M637.363 143.668H568.366V153.298H637.363V143.668Z" fill="#96CDE3"/>
<path d="M637.363 175.93H568.366V185.56H637.363V175.93Z" fill="#96CDE3"/>
<path d="M637.363 208.191H568.366V217.821H637.363V208.191Z" fill="#96CDE3"/>
<path d="M637.363 240.454H568.366V250.084H637.363V240.454Z" fill="#96CDE3"/>
<path d="M549.235 134.596L546.742 134.304L546.408 137.156C546.3 137.156 546.192 137.147 546.083 137.147C545.191 137.147 544.302 137.251 543.434 137.457L542.398 134.726L540.051 135.616L541.067 138.295C540.166 138.732 539.325 139.285 538.567 139.94L536.387 137.992L534.714 139.864L536.852 141.774C536.253 142.576 535.761 143.454 535.39 144.384L532.561 143.66L531.939 146.092L534.717 146.802C534.521 148.005 534.516 149.232 534.702 150.437L531.902 151.258L532.608 153.666L535.36 152.86C535.725 153.792 536.21 154.672 536.804 155.479L534.694 157.5L536.431 159.312L538.504 157.327C539.257 157.986 540.092 158.545 540.989 158.989L540.049 161.753L542.425 162.561L543.349 159.846C544.243 160.064 545.16 160.175 546.081 160.175C546.161 160.175 546.241 160.175 546.321 160.169L546.761 163.06L549.243 162.682L548.811 159.847C549.784 159.61 550.722 159.247 551.601 158.767L553.321 161.126L555.349 159.647L553.657 157.327C554.411 156.668 555.077 155.915 555.637 155.086L558.25 156.386L559.369 154.139L556.801 152.861C557.166 151.93 557.408 150.955 557.52 149.961L560.441 149.91L560.398 147.401L557.531 147.45C557.425 146.454 557.19 145.476 556.831 144.542L559.399 143.152L558.199 140.944L555.676 142.31C555.123 141.476 554.463 140.717 553.715 140.053L555.355 137.634L553.277 136.226L551.668 138.6C550.793 138.113 549.859 137.743 548.888 137.5L549.235 134.596ZM538.678 148.661C538.679 147.197 539.114 145.767 539.927 144.551C540.741 143.335 541.897 142.387 543.25 141.828C544.602 141.268 546.089 141.122 547.525 141.409C548.96 141.695 550.278 142.4 551.312 143.435C552.347 144.47 553.051 145.789 553.336 147.224C553.621 148.659 553.474 150.147 552.914 151.499C552.354 152.851 551.405 154.006 550.189 154.819C548.972 155.632 547.541 156.066 546.078 156.066C545.106 156.066 544.143 155.874 543.245 155.502C542.347 155.13 541.531 154.584 540.844 153.897C540.156 153.209 539.611 152.392 539.24 151.494C538.868 150.596 538.677 149.633 538.678 148.661V148.661Z" fill="#51B9E3"/>
<path d="M547.921 171.866V187.439C547.921 187.439 541.671 178.456 535.928 183.316C530.185 188.176 536.517 197.452 550.8 192.74V177.132C550.8 177.132 554.923 180.961 558.9 178.163C562.877 175.365 562.729 173.156 562.729 173.156C562.729 173.156 560.078 176.837 557.722 173.598C555.366 170.359 550.342 168.956 547.921 171.866Z" fill="#51B9E3"/>
<path d="M559.874 215.304C559.874 213.62 558.245 212.314 555.833 211.412C556.976 208.875 557.019 206.885 555.938 205.804C554.857 204.723 552.868 204.766 550.331 205.91C549.431 203.497 548.123 201.868 546.438 201.868C544.753 201.868 543.448 203.498 542.545 205.91C540.007 204.765 538.016 204.724 536.938 205.804C535.86 206.884 535.901 208.875 537.043 211.412C534.632 212.312 533.003 213.62 533.003 215.304C533.003 216.988 534.631 218.294 537.042 219.197C535.975 221.54 535.742 223.614 536.942 224.805C537.232 225.075 537.574 225.284 537.946 225.419C538.319 225.554 538.715 225.612 539.111 225.591C540.306 225.534 541.477 225.23 542.549 224.699C543.449 227.111 544.757 228.74 546.442 228.74C548.127 228.74 549.432 227.111 550.335 224.699C551.407 225.23 552.577 225.534 553.772 225.591C554.168 225.613 554.564 225.554 554.937 225.419C555.31 225.284 555.652 225.075 555.942 224.805C557.134 223.614 556.905 221.54 555.842 219.197C558.245 218.294 559.874 216.989 559.874 215.304ZM550.768 207.231C551.7 206.751 552.721 206.468 553.768 206.401C554.2 206.367 554.627 206.505 554.958 206.785C555.599 207.426 555.432 208.992 554.513 210.974C553.499 210.69 552.469 210.471 551.428 210.316C551.273 209.275 551.053 208.244 550.769 207.23L550.768 207.231ZM550.409 215.304C550.409 215.854 550.392 216.385 550.368 216.904C550.001 217.304 549.641 217.714 549.246 218.104C548.851 218.494 548.446 218.86 548.04 219.227C547.518 219.251 546.987 219.267 546.44 219.267C545.893 219.267 545.36 219.251 544.84 219.227C544.44 218.86 544.03 218.5 543.635 218.104C543.24 217.708 542.879 217.304 542.512 216.904C542.488 216.382 542.472 215.851 542.472 215.304C542.472 214.757 542.489 214.204 542.514 213.677C542.871 213.284 543.24 212.891 543.635 212.496C544.03 212.101 544.435 211.741 544.835 211.374C545.357 211.35 545.889 211.334 546.435 211.334C546.981 211.334 547.516 211.35 548.035 211.374C548.435 211.741 548.844 212.101 549.235 212.496C549.626 212.891 549.998 213.284 550.356 213.677C550.391 214.207 550.409 214.746 550.409 215.304ZM548.631 210.019C548.285 209.714 547.938 209.42 547.59 209.135C548.212 208.692 548.856 208.28 549.52 207.902C549.705 208.585 549.867 209.329 550.001 210.133C549.548 210.085 549.09 210.049 548.631 210.019ZM544.245 210.019C543.786 210.049 543.328 210.085 542.875 210.133C543.009 209.333 543.175 208.585 543.355 207.902C544.019 208.28 544.664 208.692 545.286 209.136C544.937 209.42 544.59 209.714 544.245 210.019ZM541.153 213.119C540.851 213.462 540.557 213.809 540.271 214.16C539.826 213.537 539.414 212.891 539.035 212.226C539.718 212.041 540.463 211.879 541.267 211.745C541.219 212.195 541.182 212.654 541.153 213.115V213.119ZM541.153 217.501C541.183 217.961 541.219 218.418 541.267 218.872C540.508 218.748 539.755 218.585 539.012 218.385C539.395 217.719 539.811 217.073 540.26 216.449C540.546 216.797 540.845 217.147 541.153 217.497V217.501ZM544.246 220.594C544.591 220.899 544.938 221.193 545.286 221.477C544.664 221.921 544.02 222.333 543.356 222.711C543.171 222.028 543.009 221.284 542.875 220.48C543.329 220.524 543.786 220.56 544.246 220.59V220.594ZM548.63 220.594C549.09 220.564 549.548 220.528 550.001 220.48C549.867 221.28 549.701 222.028 549.52 222.711C548.856 222.333 548.212 221.921 547.59 221.477C547.938 221.192 548.285 220.896 548.63 220.59V220.594ZM551.723 217.501C552.032 217.151 552.33 216.8 552.616 216.449C553.064 217.073 553.481 217.719 553.865 218.385C553.175 218.572 552.422 218.737 551.609 218.872C551.657 218.414 551.694 217.957 551.723 217.497V217.501ZM551.723 213.119C551.694 212.658 551.657 212.199 551.609 211.745C552.409 211.879 553.158 212.045 553.841 212.226C553.462 212.891 553.049 213.537 552.605 214.16C552.32 213.805 552.026 213.457 551.723 213.115V213.119ZM546.438 203.26C547.363 203.26 548.338 204.466 549.093 206.534C548.172 207.046 547.285 207.617 546.438 208.243C545.591 207.616 544.704 207.046 543.783 206.535C544.536 204.462 545.513 203.256 546.438 203.256V203.26ZM538.364 210.978C537.445 208.996 537.278 207.43 537.919 206.789C538.249 206.509 538.676 206.371 539.108 206.405C540.154 206.472 541.176 206.754 542.108 207.235V207.235C541.824 208.249 541.604 209.279 541.45 210.32C540.408 210.474 539.378 210.694 538.364 210.978V210.978ZM534.391 215.308C534.391 214.383 535.596 213.408 537.664 212.653C538.177 213.577 538.75 214.467 539.379 215.316C538.752 216.162 538.179 217.046 537.664 217.964C535.6 217.206 534.391 216.23 534.391 215.304V215.308ZM542.107 223.382C540.125 224.302 538.559 224.469 537.919 223.828C537.279 223.187 537.427 221.628 538.356 219.635C539.374 219.921 540.41 220.142 541.456 220.296C541.61 221.337 541.83 222.368 542.114 223.381L542.107 223.382ZM546.438 227.356C545.513 227.356 544.538 226.15 543.783 224.082C544.704 223.571 545.591 223.001 546.438 222.374C547.285 223.001 548.172 223.571 549.093 224.082C548.34 226.147 547.363 227.352 546.438 227.352V227.356ZM554.957 223.828C554.317 224.467 552.751 224.302 550.768 223.382C551.052 222.368 551.272 221.338 551.426 220.296C552.472 220.142 553.508 219.921 554.526 219.635C555.449 221.626 555.611 223.169 554.957 223.824V223.828ZM555.212 217.964C554.697 217.046 554.124 216.162 553.497 215.316C554.126 214.467 554.699 213.578 555.212 212.653C557.28 213.406 558.485 214.383 558.485 215.308C558.485 216.233 557.28 217.206 555.212 217.96V217.964Z" fill="#51B9E3"/>
<path d="M546.207 214.121C545.973 214.121 545.744 214.19 545.549 214.32C545.354 214.45 545.202 214.635 545.112 214.852C545.023 215.068 544.999 215.306 545.045 215.536C545.09 215.766 545.203 215.977 545.369 216.142C545.534 216.308 545.746 216.421 545.975 216.466C546.205 216.512 546.443 216.489 546.66 216.399C546.876 216.309 547.061 216.157 547.191 215.962C547.321 215.767 547.39 215.538 547.39 215.304C547.39 214.99 547.265 214.69 547.043 214.468C546.821 214.246 546.521 214.121 546.207 214.121Z" fill="#51B9E3"/>
<path d="M557.262 229.76L534.059 255.753L540.478 261.483L563.681 235.49L557.262 229.76Z" fill="#51B9E3"/>
<path d="M559.108 234.576L558.19 235.604L561.19 238.281L562.107 237.253L559.108 234.576Z" fill="#D4F2FF"/>
<path d="M553.583 240.764L552.666 241.792L555.665 244.47L556.583 243.442L553.583 240.764Z" fill="#D4F2FF"/>
<path d="M548.059 246.952L547.141 247.98L550.141 250.658L551.059 249.63L548.059 246.952Z" fill="#D4F2FF"/>
<path d="M542.543 253.131L541.625 254.159L544.625 256.837L545.543 255.809L542.543 253.131Z" fill="#D4F2FF"/>
<path d="M637 293.08C637 293.08 623.352 327.957 610.21 338.066C597.068 348.175 596.487 388.366 630.354 402.013C664.221 415.66 725.254 401.438 755.073 370.099C784.892 338.76 788.129 243.544 729.5 233.939C670.871 224.334 648.116 240.511 637 293.08Z" fill="#BEE7F7"/>
<path d="M677.275 279.168H604.233C603.701 279.169 603.175 279.275 602.685 279.48C602.195 279.684 601.749 279.984 601.374 280.36C601 280.737 600.703 281.184 600.501 281.676C600.299 282.167 600.195 282.694 600.197 283.225V322.582C600.195 323.113 600.299 323.64 600.501 324.131C600.703 324.623 601 325.07 601.374 325.447C601.749 325.823 602.195 326.122 602.685 326.327C603.175 326.532 603.701 326.638 604.233 326.639H613.672V337.901C613.67 338.421 613.821 338.929 614.107 339.363C614.393 339.797 614.801 340.136 615.279 340.339C615.758 340.542 616.285 340.599 616.796 340.503C617.306 340.408 617.778 340.163 618.15 339.801L631.629 326.639H677.275C677.806 326.638 678.332 326.531 678.822 326.327C679.313 326.122 679.758 325.823 680.133 325.446C680.507 325.069 680.804 324.623 681.006 324.131C681.208 323.64 681.311 323.113 681.31 322.582V283.225C681.311 282.694 681.208 282.167 681.006 281.676C680.804 281.184 680.507 280.738 680.133 280.361C679.758 279.984 679.313 279.685 678.822 279.48C678.332 279.275 677.806 279.169 677.275 279.168V279.168Z" fill="#A5C0CC"/>
<path d="M674.351 279.057H604.051C603.021 279.057 602.033 279.466 601.305 280.194C600.576 280.923 600.167 281.911 600.167 282.941V320.617C600.167 321.647 600.576 322.635 601.305 323.363C602.033 324.091 603.021 324.501 604.051 324.501H613.136V335.283C613.136 335.782 613.283 336.27 613.559 336.686C613.835 337.102 614.227 337.428 614.687 337.622C615.147 337.817 615.654 337.871 616.145 337.779C616.635 337.687 617.088 337.453 617.446 337.105L630.42 324.505H674.355C675.385 324.505 676.373 324.095 677.101 323.367C677.83 322.639 678.239 321.651 678.239 320.621V282.94C678.239 282.429 678.138 281.924 677.943 281.453C677.747 280.981 677.461 280.553 677.1 280.192C676.739 279.832 676.31 279.546 675.838 279.351C675.367 279.156 674.861 279.056 674.351 279.057Z" fill="#F0FBFF"/>
<path d="M664.583 288.963H613.717V293.64H664.583V288.963Z" fill="#96CDE3"/>
<path d="M664.583 298.902H613.717V303.579H664.583V298.902Z" fill="#96CDE3"/>
<path d="M664.583 308.842H613.717V313.519H664.583V308.842Z" fill="#96CDE3"/>
<path d="M710.906 358.385V387.808C710.906 387.974 710.874 388.139 710.81 388.293C710.746 388.447 710.653 388.586 710.535 388.704C710.418 388.822 710.278 388.915 710.124 388.979C709.97 389.042 709.805 389.075 709.639 389.075H661.56C661.393 389.075 661.229 389.042 661.075 388.979C660.921 388.915 660.781 388.822 660.663 388.704C660.546 388.586 660.452 388.447 660.389 388.293C660.325 388.139 660.293 387.974 660.293 387.808V358.395C660.291 358.333 660.294 358.272 660.302 358.211C660.341 357.904 660.49 357.622 660.722 357.418C660.953 357.213 661.251 357.1 661.56 357.099H709.66C709.734 357.1 709.808 357.106 709.882 357.118C710.037 357.153 710.184 357.215 710.317 357.302C710.317 357.302 710.327 357.292 710.327 357.302C710.455 357.387 710.566 357.495 710.656 357.621C710.795 357.814 710.879 358.041 710.898 358.279C710.905 358.313 710.908 358.349 710.906 358.385V358.385Z" fill="white"/>
<path d="M710.906 358.617L694.077 370.146L710.077 387.653L692.561 371.191L686.042 375.66V375.689L685.297 375.66L685.161 375.689V375.66L678.575 371.278L660.614 387.653L677.008 370.233L660.295 359.111V358.395C660.293 358.333 660.296 358.272 660.304 358.211C660.343 357.904 660.492 357.622 660.724 357.418C660.955 357.213 661.253 357.1 661.562 357.099H709.662C709.736 357.1 709.81 357.106 709.884 357.118C710.041 357.144 710.19 357.207 710.319 357.302C710.319 357.302 710.329 357.292 710.329 357.302C710.459 357.384 710.571 357.493 710.658 357.621C710.797 357.814 710.881 358.041 710.9 358.279C710.908 358.313 710.911 358.349 710.909 358.385L710.906 358.617Z" fill="#97CCDE"/>
<path d="M710.684 358.269L685.6 372.458L660.3 358.472V358.395C660.298 358.333 660.301 358.272 660.309 358.211C660.348 357.904 660.497 357.622 660.729 357.418C660.96 357.213 661.258 357.1 661.567 357.099H709.443C709.759 357.102 710.062 357.224 710.292 357.441C710.522 357.658 710.662 357.953 710.684 358.269V358.269Z" fill="white"/>
<path d="M806.6 176.018L801.865 175.463L801.23 180.88C801.03 180.874 800.82 180.864 800.612 180.864C798.918 180.865 797.229 181.062 795.581 181.452L793.614 176.264L789.156 177.955L791.085 183.044C789.375 183.875 787.78 184.926 786.342 186.169L782.203 182.469L779.025 186.023L783.085 189.652C781.947 191.176 781.014 192.842 780.309 194.608L774.935 193.233L773.753 197.852L779.031 199.202C778.657 201.486 778.647 203.815 779.003 206.102L773.682 207.66L775.022 212.236L780.25 210.704C780.945 212.476 781.87 214.15 783 215.683L778.993 219.521L782.293 222.964L786.23 219.192C787.66 220.445 789.247 221.506 790.952 222.349L789.166 227.599L793.68 229.135L795.434 223.978C797.132 224.392 798.874 224.602 800.622 224.602C800.776 224.602 800.922 224.594 801.079 224.591L801.915 230.081L806.629 229.363L805.809 223.978C807.658 223.53 809.44 222.841 811.109 221.928L814.376 226.408L818.228 223.598L815.015 219.198C816.447 217.947 817.71 216.516 818.775 214.941L823.739 217.411L825.863 213.142L820.986 210.716C821.68 208.946 822.14 207.092 822.352 205.203L827.9 205.103L827.818 200.336L822.372 200.43C822.173 198.538 821.727 196.681 821.045 194.906L825.922 192.266L823.652 188.073L818.861 190.667C817.81 189.083 816.558 187.642 815.137 186.38L818.251 181.785L814.3 179.109L811.244 183.618C809.583 182.691 807.807 181.987 805.963 181.524L806.6 176.018ZM786.548 202.733C786.548 199.951 787.372 197.232 788.918 194.919C790.463 192.607 792.66 190.804 795.23 189.739C797.799 188.675 800.627 188.396 803.355 188.939C806.084 189.482 808.59 190.821 810.556 192.788C812.523 194.755 813.863 197.261 814.405 199.989C814.948 202.717 814.67 205.545 813.605 208.115C812.541 210.685 810.738 212.881 808.425 214.427C806.112 215.972 803.393 216.797 800.612 216.797C796.882 216.796 793.306 215.314 790.669 212.677C788.032 210.039 786.551 206.462 786.551 202.733H786.548Z" fill="#BEE7F7"/>
<path d="M758.1 174.555L755.4 174.238L755.038 177.327C754.921 177.327 754.804 177.318 754.686 177.318C753.719 177.319 752.756 177.432 751.816 177.654L750.695 174.696L748.152 175.659L749.252 178.559C748.278 179.034 747.371 179.633 746.552 180.341L744.191 178.231L742.38 180.258L744.695 182.328C744.046 183.197 743.513 184.147 743.111 185.154L740.047 184.37L739.373 187.004L742.383 187.774C742.169 189.077 742.164 190.406 742.367 191.71L739.332 192.599L740.097 195.208L743.078 194.335C743.473 195.345 743.998 196.299 744.641 197.172L742.357 199.36L744.237 201.324L746.483 199.173C747.298 199.888 748.203 200.493 749.175 200.973L748.157 203.967L750.73 204.842L751.73 201.902C752.698 202.139 753.692 202.258 754.689 202.258C754.776 202.258 754.862 202.258 754.949 202.252L755.426 205.382L758.114 204.973L757.646 201.902C758.698 201.648 759.712 201.257 760.662 200.739L762.525 203.293L764.725 201.693L762.893 199.181C763.709 198.468 764.43 197.652 765.037 196.754L767.868 198.162L769.079 195.728L766.3 194.339C766.695 193.33 766.957 192.273 767.078 191.195L770.242 191.141L770.195 188.423L767.09 188.476C766.976 187.398 766.722 186.339 766.333 185.326L769.115 183.821L767.82 181.43L765.088 182.909C764.488 182.006 763.774 181.184 762.964 180.464L764.74 177.844L762.489 176.319L760.747 178.89C759.799 178.362 758.787 177.96 757.735 177.696L758.1 174.555ZM746.664 189.789C746.664 188.203 747.134 186.653 748.015 185.334C748.896 184.015 750.149 182.987 751.614 182.38C753.08 181.773 754.692 181.614 756.248 181.923C757.804 182.233 759.233 182.997 760.355 184.118C761.476 185.24 762.24 186.669 762.549 188.225C762.859 189.78 762.7 191.393 762.093 192.858C761.486 194.324 760.458 195.576 759.139 196.458C757.82 197.339 756.27 197.809 754.684 197.809C752.557 197.809 750.517 196.964 749.013 195.46C747.509 193.956 746.664 191.916 746.664 189.789V189.789Z" fill="#BEE7F7"/>
<path d="M814.078 232.656L811.379 232.34L811.017 235.429C810.9 235.429 810.782 235.42 810.664 235.42C809.698 235.42 808.735 235.533 807.794 235.755L806.674 232.797L804.132 233.761L805.232 236.661C804.258 237.135 803.35 237.734 802.531 238.443L800.172 236.333L798.359 238.36L800.674 240.429C800.026 241.298 799.493 242.248 799.091 243.256L796.026 242.472L795.353 245.105L798.362 245.875C798.149 247.178 798.144 248.507 798.346 249.812L795.312 250.701L796.077 253.31L799.057 252.437C799.453 253.446 799.979 254.399 800.62 255.273L798.336 257.462L800.218 259.425L802.463 257.274C803.278 257.988 804.183 258.593 805.155 259.074L804.137 262.068L806.711 262.943L807.711 260.002C808.679 260.238 809.672 260.358 810.669 260.359C810.756 260.359 810.843 260.359 810.93 260.352L811.406 263.483L814.094 263.073L813.627 260.003C814.68 259.747 815.696 259.354 816.648 258.834L818.51 261.388L820.711 259.788L818.879 257.276C819.695 256.562 820.416 255.746 821.023 254.848L823.854 256.257L825.065 253.823L822.284 252.439C822.679 251.429 822.941 250.372 823.062 249.295L826.227 249.24L826.18 246.522L823.073 246.576C822.96 245.497 822.706 244.438 822.317 243.426L825.099 241.92L823.804 239.529L821.072 241.008C820.472 240.105 819.758 239.283 818.948 238.564L820.724 235.943L818.473 234.418L816.731 236.989C815.783 236.461 814.77 236.06 813.719 235.795L814.078 232.656ZM802.645 247.891C802.645 246.305 803.115 244.754 803.996 243.435C804.877 242.116 806.13 241.088 807.595 240.481C809.061 239.874 810.673 239.715 812.229 240.025C813.785 240.334 815.214 241.098 816.336 242.22C817.457 243.341 818.221 244.77 818.53 246.326C818.84 247.882 818.681 249.494 818.074 250.96C817.467 252.425 816.439 253.678 815.12 254.559C813.801 255.44 812.251 255.911 810.664 255.911C809.611 255.911 808.568 255.704 807.595 255.301C806.622 254.898 805.738 254.307 804.993 253.562C804.248 252.817 803.658 251.933 803.255 250.96C802.852 249.987 802.644 248.944 802.645 247.891Z" fill="#BEE7F7"/>
<path d="M654.3 374.439H649.51V371.902H654.3V374.439ZM644.722 374.439H639.933V371.902H644.722V374.439ZM635.144 374.439H630.355V371.902H635.144V374.439ZM625.566 374.439H620.777V371.902H625.566V374.439ZM615.988 374.439H611.2V371.902H615.989L615.988 374.439ZM606.41 374.439H601.62V371.902H606.409L606.41 374.439ZM596.832 374.439H592.043V371.902H596.832V374.439ZM587.253 374.439H582.464V371.902H587.253V374.439ZM577.675 374.439H572.886V371.902H577.675V374.439Z" fill="#51B9E3"/>
<path d="M790.99 208.11H697.392C695.87 208.11 694.636 209.344 694.636 210.866V339.459C694.636 340.981 695.87 342.215 697.392 342.215H790.99C792.512 342.215 793.746 340.981 793.746 339.459V210.866C793.746 209.344 792.512 208.11 790.99 208.11Z" fill="#A5C0CC"/>
<path d="M787.915 207.948H697.289C695.767 207.948 694.533 209.182 694.533 210.704V336.727C694.533 338.249 695.767 339.483 697.289 339.483H787.915C789.437 339.483 790.671 338.249 790.671 336.727V210.704C790.671 209.182 789.437 207.948 787.915 207.948Z" fill="#F0FBFF"/>
<path d="M777.094 316.496L762.737 310.078L764.883 326.167L768.769 323.09L775.612 331.729L780.361 327.967L773.518 319.328L777.094 316.496Z" fill="#51B9E3"/>
<path d="M736.98 230.466H700.904V235.143H736.98V230.466Z" fill="#96CDE3"/>
<path d="M765.118 246.672H700.904V251.349H765.118V246.672Z" fill="#96CDE3"/>
<path d="M765.118 254.152H700.904V258.829H765.118V254.152Z" fill="#96CDE3"/>
<path d="M765.118 261.631H700.904V266.308H765.118V261.631Z" fill="#96CDE3"/>
<path d="M765.118 269.111H700.904V273.788H765.118V269.111Z" fill="#96CDE3"/>
<path d="M765.118 276.591H700.904V281.268H765.118V276.591Z" fill="#96CDE3"/>
<path d="M765.118 284.071H700.904V288.748H765.118V284.071Z" fill="#96CDE3"/>
<path d="M765.118 291.552H700.904V296.229H765.118V291.552Z" fill="#96CDE3"/>
<path d="M730.925 310.25H700.904V314.927H730.925V310.25Z" fill="#96CDE3"/>
<path d="M725.582 316.839H700.904V321.516H725.582V316.839Z" fill="#96CDE3"/>
<defs>
<linearGradient id="paint0_linear" x1="218.626" y1="329.166" x2="218.626" y2="224.474" gradientUnits="userSpaceOnUse">
<stop offset="0.107" stop-color="white"/>
<stop offset="0.831" stop-color="white" stop-opacity="0"/>
</linearGradient>
</defs>
</svg>
