<svg width="842" height="512" viewBox="0 0 842 512" fill="none" xmlns="http://www.w3.org/2000/svg">
<path d="M719.344 509.239L391.212 508.908L73.0341 508.578C73.0341 508.578 -35.9839 401.585 12.4651 300.952C60.9141 200.319 126.865 206.694 117.453 142.993C108.041 79.2916 196.853 4.14756 387.968 1.59956C389.059 1.58556 390.136 1.57256 391.212 1.57256C579.583 0.0435598 622.066 87.2916 606.005 146.821C589.855 206.694 689.445 187.581 735.217 260.192C780.989 332.803 793.662 442.386 719.344 509.239Z" fill="#B7E3F7"/>
<path d="M719.808 508.652L391.677 508.321V0.98269C580.047 -0.54531 622.53 86.7027 606.469 146.232C590.319 206.105 689.909 186.992 735.681 259.603C781.438 332.213 794.126 441.797 719.808 508.652Z" fill="#9AD3FC"/>
<path d="M388.147 279.366C388.147 279.366 379.321 290.987 379.762 290.987C380.203 290.987 394.914 293.047 395.797 292.605C396.68 292.163 388.589 278.63 388.589 278.63" fill="white"/>
<path d="M474.412 272.909L468.232 277.429L462.052 281.949L460.672 280.959L456.602 276.329L463.432 270.739L469.162 266.039L474.412 272.909Z" fill="#824B45"/>
<path d="M468.232 277.428L462.052 281.948L460.672 280.958L456.602 276.328L463.432 270.738C465 272.868 467.062 275.768 468.232 277.428Z" fill="#703C36"/>
<path d="M471.172 265.458L468.032 268.738L463.552 272.268L459.212 276.188L454.572 280.378L453.682 279.428C453.352 279.078 453.012 278.718 452.672 278.348C452.382 278.028 452.082 277.708 451.782 277.378C450.782 276.298 449.742 275.148 448.662 273.948C448.352 273.618 448.052 273.268 447.742 272.928C447.68 272.866 447.623 272.799 447.572 272.728C447.202 272.318 446.832 271.908 446.462 271.478C442.842 267.378 439.002 262.838 435.622 258.428C435.382 258.118 435.152 257.818 434.922 257.508C434.882 257.464 434.846 257.417 434.812 257.368C434.472 256.918 434.142 256.468 433.812 256.028C433.482 255.588 433.162 255.138 432.842 254.688C432.522 254.238 432.222 253.818 431.922 253.378C430.572 251.418 429.372 249.548 428.392 247.798C428.272 247.588 428.152 247.368 428.042 247.158C427.902 246.898 427.772 246.638 427.642 246.388C427.522 246.168 427.422 245.948 427.322 245.738C427.172 245.438 427.042 245.158 426.912 244.868C426.822 244.648 426.722 244.438 426.642 244.218C426.297 243.394 426.026 242.541 425.832 241.668L425.792 240.838L425.762 240.118L425.752 239.828C425.732 239.428 425.712 238.968 425.692 238.458C425.042 224.038 422.462 165.218 422.282 146.698L433.152 156.648L435.342 173.718C435.342 173.718 441.532 217.388 450.822 235.608C456.412 246.588 465.122 258.068 471.172 265.458Z" fill="white"/>
<path d="M288.102 273.547L276.552 285.097L271.419 301.352L286.177 312.689L290.455 309.694L297.299 299.214L298.582 303.491L303.074 300.925L305.213 288.947L303.716 277.183L288.102 273.547Z" fill="#824B45"/>
<path d="M473.227 272.269C474.39 272.85 481.946 279.244 481.946 279.244L490.375 283.022L497.913 296.836C498.327 297.594 498.442 298.479 498.235 299.318C498.028 300.157 497.515 300.887 496.796 301.367L482.368 310.985C481.672 311.449 480.831 311.645 480.002 311.536C479.173 311.427 478.411 311.021 477.858 310.394L469.358 300.747L467.94 291.67L461.416 280.89L473.227 272.269Z" fill="#703C36"/>
<path d="M458.911 293.509C459.57 293.674 503.442 293.509 503.442 293.509V318.909H498.329V300.439C498.329 300.439 460.642 299.862 461.22 300.439C461.798 301.016 461.22 320.231 461.22 320.231H456.6V293.674L458.911 293.509Z" fill="#2A3336"/>
<path d="M467.911 275.469L475.772 283.561C475.772 283.561 473.923 293.041 481.552 295.353C481.552 295.353 477.391 298.59 477.622 301.364C477.677 302.152 477.942 302.91 478.389 303.561C478.836 304.212 479.45 304.731 480.165 305.064L492.651 293.738L490.375 283.025L481.946 279.247L473.227 272.272L467.911 275.469Z" fill="#824B45"/>
<path d="M720.063 232.391V363.176H611.185V232.391C611.185 222.272 619.745 214.065 630.3 214.065H700.948C704.968 214.048 708.894 215.275 712.19 217.576C714.603 219.224 716.581 221.433 717.952 224.013C719.323 226.594 720.048 229.468 720.063 232.391V232.391Z" fill="#37474F"/>
<path d="M720.063 232.391V363.176H611.185V351.228C625.624 352.233 644.292 353.469 666.398 353.469C711.932 353.469 713.187 253.255 712.19 217.576C714.603 219.224 716.581 221.433 717.952 224.014C719.323 226.594 720.048 229.469 720.063 232.391V232.391Z" fill="#253036"/>
<path d="M701.818 378.09H651.311V398.842H701.818V378.09Z" fill="#253036"/>
<path d="M682.698 378.09H670.432V483.236H682.698V378.09Z" fill="#253036"/>
<path d="M687.748 481.852H665.381V493.958H687.748V481.852Z" fill="#253036"/>
<path d="M707.591 493.611H645.539V508.484H707.591V493.611Z" fill="#253036"/>
<path d="M388.5 284.255L382.373 294.473L377.766 302.164C364.735 308.673 349.177 304.297 340.684 300.887C340.562 300.832 340.44 300.787 340.304 300.737C340.128 300.669 339.937 300.601 339.734 300.537C335.576 298.961 328.415 296.706 328.415 296.706C328.525 296.598 328.63 296.485 328.727 296.366C328.795 296.284 328.863 296.189 328.944 296.094C331.324 293.119 333.222 289.791 334.57 286.229C334.649 286.057 334.715 285.879 334.77 285.699C342.787 261.825 352.23 211.278 353.643 203.519C353.671 203.397 353.685 203.275 353.712 203.166C353.739 203.057 353.752 202.966 353.766 202.881C353.807 202.636 353.834 202.514 353.834 202.514C337.719 217.719 320.462 253.89 313.708 267.668C312.875 269.361 311.57 270.776 309.95 271.743C308.329 272.71 306.464 273.187 304.578 273.117C303.557 273.08 302.54 272.971 301.534 272.791C298.827 272.291 296.231 271.311 293.87 269.897C291.953 268.752 290.489 266.981 289.726 264.883C288.926 262.715 288.935 260.331 289.753 258.17C298.11 235.845 333.411 169.06 344.988 155.554C358.399 139.914 384.651 132.645 388.007 132.645L388.5 284.255Z" fill="#00315C"/>
<path d="M309.419 271.502L309.819 271.822L306.504 279.744C304.048 280.427 301.49 280.67 298.949 280.464C293.924 280.009 289.199 277.875 285.537 274.404C285.537 274.404 287.915 268.466 289.737 264.879C290.498 263.411 289.586 264.789 289.967 264.667L305.103 269.98L309.419 271.502Z" fill="#FFBE01"/>
<path d="M461.7 473.154L445.544 477.515L440.734 478.815L416.384 395.548L391.464 321.915L388.501 331.739L371.64 387.631L316.691 476.551L308.714 472.338L298.414 466.903L335.386 389.903L345.577 295.875C352.577 288.875 371.327 288.102 388.501 289.108C399.746 289.819 410.946 291.13 422.051 293.035L461.7 473.154Z" fill="#042440"/>
<path d="M442.588 475.892L446.117 489.689L464.405 487.121L459.272 470.438L442.588 475.892Z" fill="#824B45"/>
<path d="M303.291 463.197L291.15 489.688L308.155 491.934L318.213 474.501L303.291 463.197Z" fill="#824B45"/>
<path d="M344.083 509.583L284.732 510.223C284.732 510.223 283.766 503.482 287.299 494.174C289.99 487.081 293.618 486.334 295.199 486.374C295.461 486.376 295.722 486.412 295.974 486.483C307.904 487.353 323.938 492.612 333.082 495.941C335.31 496.749 337.33 498.042 338.996 499.727C340.662 501.412 341.933 503.446 342.716 505.682L343.667 508.374L344.083 509.583Z" fill="#EDECEA"/>
<path d="M388.136 156.371L394.49 153.724L397.075 161.047L388.074 168.348L388.136 156.371Z" fill="#03658C"/>
<path d="M425.8 242.238C425.854 242.904 425.922 243.838 426.017 245.024L425.691 244.358L425.8 242.238Z" fill="#025170"/>
<path d="M410.259 135.638C408.829 134.708 389.009 131.568 389.009 131.568L388.489 293.508L388.569 281.54C403.927 281.54 428.358 276.769 428.358 276.769C435.238 272.369 426.999 256.248 426.089 245.028C425.989 243.848 425.919 242.908 425.869 242.238V242.188C425.819 241.488 425.789 241.108 425.789 241.108C425.812 241.297 425.849 241.485 425.899 241.668C425.899 241.668 422.559 167.868 422.349 146.698L410.259 135.638Z" fill="#222C30"/>
<path d="M531.092 311.259H429.462V385.879H531.092V311.259Z" fill="#323D40"/>
<path d="M531.095 311.256H429.466V346.048H531.095V311.256Z" fill="#4C5659"/>
<g style="mix-blend-mode:multiply" opacity="0.65">
<path d="M454.932 385.879H434.032C432.602 383.299 431.032 380.459 429.462 377.619V311.259H437.862L454.932 385.879Z" fill="#1C2224"/>
</g>
<path d="M491.394 340.968H469.168V351.129H491.394V340.968Z" fill="#798285"/>
<path d="M367.754 293.101L367.554 293.142L362.622 305.52C353.98 305.602 345.745 303.047 340.351 300.887C340.229 300.832 340.107 300.787 339.971 300.737C339.794 300.67 339.604 300.603 339.4 300.537C335.242 298.961 328.081 296.706 328.081 296.706C328.27 296.512 328.447 296.308 328.611 296.094C330.99 293.119 332.888 289.791 334.236 286.229C342.2 288.209 355.43 291.321 367.754 293.101Z" fill="#FFBE01"/>
<g style="mix-blend-mode:multiply" opacity="0.42">
<path d="M365.553 184.085L359.6 197.89C359.6 197.89 355.659 274.58 340.685 300.89C340.563 300.835 340.441 300.79 340.305 300.74C336.805 299.354 330.359 296.976 328.728 296.365C328.796 296.283 328.864 296.188 328.945 296.093C331.324 293.119 333.223 289.79 334.571 286.228C334.649 286.056 334.716 285.879 334.771 285.698C342.788 261.824 352.231 211.277 353.644 203.518C353.672 203.396 353.686 203.274 353.713 203.165C353.74 203.056 353.753 202.965 353.767 202.88C353.808 202.635 353.835 202.513 353.835 202.513C337.72 217.718 320.463 253.889 313.709 267.667C312.855 269.412 311.496 270.861 309.809 271.825L306.494 279.747C304.038 280.429 301.48 280.673 298.939 280.467L301.479 272.831C301.496 272.816 301.514 272.802 301.534 272.79C303.457 271.26 305.178 269.493 306.656 267.531C310.945 262.001 314.664 256.051 317.756 249.772C327.262 231.239 342.942 192.224 365.553 184.085Z" fill="#00315C"/>
</g>
<path d="M819.776 509.783H820.647L824.051 299.524H814.671L819.776 509.783Z" fill="#00315C"/>
<path d="M814.324 511.445H826.094L823.315 467.042H817.103L814.324 511.445Z" fill="#5780A3"/>
<path d="M549.631 509.783H550.502L553.906 299.524H544.525L549.631 509.783Z" fill="#00315C"/>
<path d="M544.599 511.445H555.528L552.948 467.042H547.179L544.599 511.445Z" fill="#5780A3"/>
<path d="M541.597 302.093H828.375L831.779 291.709H538.193L541.597 302.093Z" fill="#00315C"/>
<path d="M732.35 279.457H674.173V285.591H732.35V279.457Z" fill="#2C3940"/>
<path d="M721.772 279.457H674.173V285.591H721.772V279.457Z" fill="#4B606B"/>
<path d="M728.888 285.559H821.072L832.375 246.624L841.876 213.889H749.693L730.585 279.725L728.888 285.559Z" fill="#4B606B"/>
<path d="M792.054 251.19C794.818 251.19 797.058 249.114 797.058 246.554C797.058 243.994 794.818 241.918 792.054 241.918C789.291 241.918 787.05 243.994 787.05 246.554C787.05 249.114 789.291 251.19 792.054 251.19Z" fill="white"/>
<path d="M728.888 285.559H821.072L832.372 246.624C825.481 255.757 813.537 266.872 792.828 273.259C767.303 281.142 743.558 280.809 730.582 279.725L728.888 285.559Z" fill="#2C3940"/>
<path d="M836.082 296.113L533.89 296.113C532.795 296.113 531.745 295.678 530.97 294.904C530.196 294.129 529.76 293.079 529.76 291.983V285.283L840.212 285.283V291.983C840.212 293.079 839.777 294.129 839.003 294.904C838.228 295.678 837.178 296.113 836.082 296.113Z" fill="#4778A3"/>
<path d="M601.135 234.737H547.5V236.8H601.135V234.737Z" fill="white"/>
<path d="M599.876 236.802H547.5V238.865H599.876V236.802Z" fill="#E0E1E0"/>
<path d="M598.872 238.867H547.5V240.93H598.872V238.867Z" fill="white"/>
<path d="M598.872 240.932H547.5V242.995H598.872V240.932Z" fill="#E0E1E0"/>
<path d="M598.872 242.997H547.5V245.06H598.872V242.997Z" fill="white"/>
<path d="M599.876 245.062H547.5V247.125H599.876V245.062Z" fill="#E0E1E0"/>
<path d="M601.135 247.127H547.5V249.19H601.135V247.127Z" fill="white"/>
<path d="M549.32 232.639H603.176C603.442 232.636 603.699 232.736 603.893 232.918C604.087 233.1 604.203 233.35 604.216 233.615V233.765C604.213 233.898 604.184 234.029 604.129 234.15C604.075 234.271 603.998 234.38 603.901 234.471C603.804 234.562 603.69 234.633 603.566 234.679C603.441 234.725 603.309 234.746 603.176 234.741H551.4C550.545 234.725 549.717 235.047 549.098 235.638C548.479 236.229 548.118 237.04 548.094 237.895V246.039C548.118 246.894 548.479 247.706 549.098 248.297C549.717 248.887 550.545 249.209 551.4 249.193H603.176C603.309 249.188 603.441 249.209 603.566 249.255C603.69 249.302 603.804 249.372 603.901 249.463C603.998 249.554 604.075 249.663 604.129 249.784C604.184 249.906 604.213 250.036 604.216 250.169V250.32C604.202 250.586 604.086 250.835 603.892 251.017C603.699 251.199 603.442 251.299 603.176 251.296H549.32C547.89 251.328 546.506 250.793 545.469 249.808C544.432 248.824 543.827 247.469 543.785 246.039V237.892C543.828 236.463 544.434 235.109 545.47 234.125C546.507 233.141 547.891 232.607 549.32 232.639V232.639Z" fill="#1D374F"/>
<path d="M594.077 265.749H540.442V267.812H594.077V265.749Z" fill="white"/>
<path d="M594.082 263.685H541.706V265.748H594.082V263.685Z" fill="#E0E1E0"/>
<path d="M594.081 261.619H542.708V263.682H594.081V261.619Z" fill="white"/>
<path d="M594.081 259.591H542.708V261.654H594.081V259.591Z" fill="#E0E1E0"/>
<path d="M594.081 257.526H542.708V259.589H594.081V257.526Z" fill="white"/>
<path d="M594.082 255.461H541.706V257.524H594.082V255.461Z" fill="#E0E1E0"/>
<path d="M594.077 253.396H540.442V255.46H594.077V253.396Z" fill="white"/>
<path d="M592.256 269.916H538.4C538.273 269.921 538.146 269.9 538.027 269.855C537.907 269.811 537.798 269.743 537.705 269.655C537.612 269.568 537.537 269.464 537.485 269.347C537.433 269.231 537.404 269.106 537.4 268.978V268.79C537.407 268.529 537.515 268.281 537.702 268.099C537.888 267.916 538.139 267.814 538.4 267.814H590.176C591.032 267.84 591.863 267.527 592.489 266.944C593.115 266.36 593.485 265.553 593.519 264.698V256.513C593.485 255.658 593.115 254.851 592.489 254.268C591.863 253.684 591.032 253.371 590.176 253.396H538.4C538.139 253.396 537.888 253.294 537.702 253.112C537.515 252.93 537.407 252.681 537.4 252.42V252.232C537.404 252.105 537.433 251.979 537.485 251.863C537.537 251.747 537.612 251.642 537.705 251.555C537.798 251.468 537.907 251.4 538.027 251.355C538.146 251.31 538.273 251.29 538.4 251.294H592.256C593.686 251.253 595.074 251.778 596.118 252.756C597.162 253.733 597.776 255.084 597.828 256.513V264.698C597.776 266.127 597.161 267.478 596.117 268.455C595.074 269.433 593.686 269.958 592.256 269.916Z" fill="#1D374F"/>
<path d="M600.688 271.682H547.982V273.404H600.688V271.682Z" fill="white"/>
<path d="M599.914 273.409H547.982V275.131H599.914V273.409Z" fill="#E0E1E0"/>
<path d="M599.354 275.136H547.982V276.858H599.354V275.136Z" fill="white"/>
<path d="M599.354 276.862H547.982V278.584H599.354V276.862Z" fill="#E0E1E0"/>
<path d="M599.354 278.553H547.982V280.275H599.354V278.553Z" fill="white"/>
<path d="M599.914 280.279H547.982V282.001H599.914V280.279Z" fill="#E0E1E0"/>
<path d="M600.688 282.007H547.982V283.729H600.688V282.007Z" fill="white"/>
<path d="M601.468 269.917C601.596 269.897 601.726 269.905 601.85 269.94C601.973 269.976 602.088 270.037 602.186 270.121C602.284 270.205 602.362 270.309 602.416 270.426C602.47 270.543 602.498 270.67 602.498 270.799C602.498 270.928 602.47 271.055 602.416 271.172C602.362 271.289 602.284 271.393 602.186 271.477C602.088 271.561 601.973 271.623 601.85 271.658C601.726 271.693 601.596 271.701 601.468 271.682H551.882C550.062 271.682 548.54 272.846 548.54 274.31V281.11C548.54 282.574 550.062 283.738 551.882 283.738H601.208C601.334 283.721 601.461 283.732 601.583 283.769C601.704 283.806 601.816 283.868 601.911 283.951C602.006 284.035 602.082 284.138 602.134 284.253C602.187 284.368 602.214 284.494 602.214 284.62C602.214 284.747 602.187 284.872 602.134 284.987C602.082 285.103 602.006 285.206 601.911 285.289C601.816 285.373 601.704 285.435 601.583 285.472C601.461 285.509 601.334 285.519 601.208 285.503H546.571C545.924 285.471 545.315 285.185 544.877 284.707C544.438 284.229 544.207 283.598 544.231 282.95V272.471C544.206 271.823 544.438 271.191 544.876 270.713C545.314 270.234 545.923 269.948 546.571 269.917H601.468Z" fill="#1D374F"/>
<path d="M611.19 363.178H741.945V371.191C741.945 374.47 740.642 377.616 738.323 379.935C736.004 382.254 732.859 383.557 729.579 383.557H623.556C620.276 383.557 617.131 382.254 614.812 379.935C612.493 377.616 611.19 374.47 611.19 371.191V363.178Z" fill="#37474F"/>
<path d="M428.72 287.153C428.72 287.153 405.707 287.153 388.502 289.105V316.605L406.262 309.957L397.81 324.619L423.587 392.164L445.545 477.51L461.701 473.149L428.72 287.153Z" fill="#222C30"/>
<path d="M388.502 331.744L391.465 321.92L388.502 331.739V331.744Z" fill="#37474F"/>
<path d="M388.476 316.62L364.476 382.4C364.476 382.4 322.381 451.277 308.711 472.338L316.688 476.551L371.637 387.631L388.5 331.738V316.61L388.476 316.62Z" fill="#00172B"/>
<path d="M397.81 324.624L406.262 309.962L388.502 316.61V331.739L391.465 321.92L416.385 395.553L440.735 478.82L445.545 477.515L423.587 392.169L397.81 324.624Z" fill="#101417"/>
<path d="M300.832 454.955C299.87 455.276 294.732 465.864 294.732 465.864L319.38 479.101L325.797 470.759L300.832 454.955Z" fill="#3E6080"/>
<path d="M407.832 165.689C405.713 175.567 402.957 185.297 399.582 194.819C394.092 210.659 388.512 222.779 388.512 222.779L388.252 176.429L388.012 132.649C388.012 132.649 400.322 128.989 408.262 135.849C408.262 135.849 413.412 138.429 407.832 165.689Z" fill="white"/>
<path d="M405.944 130.88C405.944 130.88 413.787 140.993 410.617 159.929L403.192 151.589L392.255 159.397L396.628 128.408C399.849 128.71 402.997 129.546 405.944 130.88V130.88Z" fill="white"/>
<path d="M459.212 276.189L454.572 280.379C454.762 280.579 454.942 280.769 455.112 280.959C454.652 280.479 454.172 279.969 453.682 279.429C453.352 279.079 453.012 278.719 452.672 278.349C452.382 278.029 452.082 277.709 451.782 277.379C450.782 276.299 449.742 275.149 448.662 273.949C448.352 273.619 448.052 273.269 447.742 272.929C447.68 272.867 447.623 272.8 447.572 272.729C447.202 272.319 446.832 271.909 446.462 271.479C442.842 267.379 439.002 262.839 435.622 258.429C435.382 258.119 435.152 257.819 434.922 257.509C434.882 257.465 434.845 257.418 434.812 257.369C434.472 256.919 434.142 256.469 433.812 256.029C433.482 255.589 433.162 255.139 432.842 254.689C432.522 254.239 432.222 253.809 431.922 253.379C430.572 251.419 429.372 249.549 428.392 247.799C428.272 247.589 428.152 247.369 428.042 247.159C427.902 246.899 427.772 246.639 427.642 246.389C427.522 246.169 427.422 245.949 427.322 245.739C427.172 245.439 427.042 245.159 426.912 244.869C426.822 244.649 426.722 244.439 426.642 244.219C426.297 243.395 426.026 242.541 425.832 241.669L425.792 240.839L425.762 240.119L425.752 239.829L425.692 238.459L423.712 191.459C423.712 191.459 428.902 239.539 444.622 259.119C450.362 266.249 455.282 271.899 459.212 276.189Z" fill="#D1D1D1"/>
<path d="M392.575 161.036L399.218 154.427L409.011 160.416L410.617 159.93L403.192 151.59L394.186 153.219L392.575 161.036Z" fill="#BFBFBF"/>
<path d="M388.852 139.858L388.822 151.668L388.502 284.258L388.422 293.508L367.552 293.148C380.112 250.278 378.932 161.568 378.932 161.568L377.072 160.768L379.302 148.178L380.502 141.378L388.852 139.858Z" fill="#F26835"/>
<path d="M344.083 509.583L284.732 510.223C284.732 510.223 283.766 503.482 287.299 494.174C289.99 487.081 293.618 486.334 295.199 486.374C292.89 489.784 288.065 498.006 288.799 506.145L343.667 508.374L344.083 509.583Z" fill="#BAB9B8"/>
<path d="M284.812 238.469C284.184 238.194 265.681 230.495 253.112 251.538C241.1 271.624 227.6 269.864 227.6 269.864L218.246 250.939L212.2 238.726C212.2 238.726 222.914 235.807 228.986 223.502C235.058 211.197 260.17 209.049 260.17 209.049L274.62 226.291L284.812 238.469Z" fill="#F0F0F0"/>
<path d="M252.853 213.892L251.73 214.656L265.219 234.466L266.341 233.702L252.853 213.892Z" fill="#CFCECC"/>
<path d="M245.652 216.726L244.51 217.463L249.972 225.935L251.115 225.198L245.652 216.726Z" fill="#CFCECC"/>
<path d="M254.877 230.764L253.721 231.48L257.224 237.134L258.38 236.418L254.877 230.764Z" fill="#CFCECC"/>
<path d="M239.526 223.43L238.383 224.164L249.417 241.35L250.56 240.616L239.526 223.43Z" fill="#CFCECC"/>
<path d="M241.685 236.243L240.502 236.912L244.687 244.306L245.87 243.637L241.685 236.243Z" fill="#CFCECC"/>
<g style="mix-blend-mode:multiply">
<path d="M284.812 238.469C284.184 238.194 265.681 230.495 253.112 251.538C241.1 271.624 227.6 269.864 227.6 269.864L218.246 250.939C221.726 252.65 226.711 253.514 233.083 250.707C246.042 244.971 243.949 223.882 274.62 226.29L284.812 238.469Z" fill="#E6E6E6"/>
</g>
<path d="M300.355 85.239C300.465 84.562 303.337 64.729 279.835 57.763C257.397 51.104 255.757 37.594 255.757 37.594L271.773 23.841L282.107 14.958C282.107 14.958 287.591 24.615 301.017 27.448C314.443 30.281 322.748 54.074 322.748 54.074L309.626 72.347L300.355 85.239Z" fill="white"/>
<path d="M315.227 47.2908L299.379 65.2686L300.398 66.1666L316.246 48.1889L315.227 47.2908Z" fill="#CFCECC"/>
<path d="M310.716 40.9911L303.863 48.3828L304.859 49.3068L311.713 41.9151L310.716 40.9911Z" fill="#CFCECC"/>
<path d="M299.422 53.3905L294.813 58.1855L295.793 59.128L300.403 54.333L299.422 53.3905Z" fill="#CFCECC"/>
<path d="M302.708 36.7165L288.794 51.666L289.789 52.5919L303.703 37.6424L302.708 36.7165Z" fill="#CFCECC"/>
<path d="M290.881 41.9306L284.755 47.8174L285.697 48.7973L291.823 42.9105L290.881 41.9306Z" fill="#CFCECC"/>
<g style="mix-blend-mode:multiply">
<path d="M300.355 85.2388C300.465 84.5618 303.337 64.7288 279.835 57.7628C257.397 51.1038 255.757 37.5938 255.757 37.5938L271.773 23.8408C270.973 27.6408 271.373 32.6798 275.673 38.1578C284.442 49.2908 304.354 42.0358 309.624 72.3468L300.355 85.2388Z" fill="#E6E6E6"/>
</g>
<path d="M158.056 270.744C158.056 270.744 168.583 256.194 142.165 237.974L127.695 240.753L150.651 273.253L158.056 270.744Z" fill="#F0F0F0"/>
<path d="M158.056 270.744C158.056 270.744 158.173 270.751 158.392 270.775C161.223 271.083 181.085 274.195 184.692 301.042L172.643 307.442L151.315 273.069" fill="#F0F0F0"/>
<path d="M184.693 301.042L170.635 324.414L161.439 326.461L172.644 307.441L184.693 301.042Z" fill="#C9C9C9"/>
<path d="M140.575 240.985L140.761 240.223C141.066 240.297 148.281 242.167 153.371 252.898L152.663 253.234C147.744 242.865 140.646 241.002 140.575 240.985Z" fill="#C9C9C9"/>
<path d="M148.7 254.286L149.31 253.793C149.538 254.075 154.91 260.783 154.352 267.556L153.57 267.491C154.108 261.039 148.757 254.353 148.7 254.286Z" fill="#C9C9C9"/>
<path d="M159.42 275.418L159.679 274.678C159.941 274.769 166.139 276.991 168.279 282.935L167.541 283.201C165.531 277.614 159.481 275.439 159.42 275.418Z" fill="#C9C9C9"/>
<path d="M170.6 281.195L171.072 280.57C176.066 284.916 179.172 291.036 179.73 297.633L178.95 297.707C178.418 291.328 175.423 285.406 170.6 281.195V281.195Z" fill="#C9C9C9"/>
<path d="M151.315 273.069C151.315 273.069 165.793 275.524 174.497 308.123L161.564 329.523C161.564 329.523 150.779 305.823 137.926 298.878L151.315 273.069Z" fill="#1B4F7D"/>
<path d="M151.315 273.069C151.315 273.069 156.383 256.818 126.209 237.169L122.699 265.929C122.699 265.929 134.971 274.229 137.926 298.881L151.315 273.074" fill="#00315C"/>
<path d="M233.741 108.927L257.371 125.022L258.83 135.606L237.918 124.343L233.741 108.927Z" fill="#C9C9C9"/>
<path d="M173.99 156.845L165.99 142.845C165.99 142.845 183.849 122.051 198.855 131.558L203.931 142.539L173.99 156.845Z" fill="#F0F0F0"/>
<path d="M198.858 131.559C198.858 131.559 218.599 107.005 233.741 108.927L237.918 124.343L203.934 142.543L198.858 131.559Z" fill="#F0F0F0"/>
<path d="M188.046 135.379C178.923 137.461 172.366 144.761 172.303 144.832L171.703 144.303C171.768 144.226 178.495 136.741 187.865 134.603L188.046 135.379Z" fill="#C9C9C9"/>
<path d="M194.789 138.031C189.954 137.731 183.417 142.517 183.351 142.566L182.877 141.925C183.155 141.725 189.717 136.925 194.838 137.236L194.789 138.031Z" fill="#C9C9C9"/>
<path d="M224.487 116.756C214.387 117.529 205.651 131.533 205.565 131.674L204.886 131.257C205.25 130.665 213.918 116.767 224.426 115.957L224.487 116.756Z" fill="#C9C9C9"/>
<path d="M230.534 118.839C224.36 118.515 218.288 123.977 217.966 124.449L217.292 124.024C217.78 123.247 224.174 117.707 230.576 118.043L230.534 118.839Z" fill="#C9C9C9"/>
<path d="M262.777 136.007C262.777 136.007 244.264 147.707 238.127 158.488H238.112C237.286 158.458 211.041 157.648 197.418 165.683L169.818 159.244C169.818 159.244 181.256 138.172 203.935 142.539C203.935 142.539 219.186 120.047 238.774 122.539L262.777 136.007Z" fill="#042440"/>
<path d="M262.777 136.007C262.777 136.007 243.056 145.76 238.127 158.488H238.112L203.934 142.538C203.934 142.538 219.185 120.046 238.773 122.538L262.777 136.007Z" fill="#1B4F7D"/>
<path d="M184.353 433.157C183.748 428.95 184.517 424.661 186.546 420.926C188.574 417.191 191.754 414.211 195.612 412.428C209.448 405.6 220.575 410.539 226.094 407.865C226.094 407.865 222.851 426.665 211.675 432.4C195.73 440.586 184.353 433.157 184.353 433.157Z" fill="#06628D"/>
<path d="M161.352 440.454C162.735 435.356 162.688 429.976 161.216 424.904C159.744 419.831 156.903 415.262 153.006 411.697C139.396 398.888 117.472 406.568 114.632 404.936C116.643 409.814 120.432 413.746 125.232 415.936C133.232 419.514 133.046 433.103 140.3 438C150.473 444.869 161.352 440.454 161.352 440.454Z" fill="#06628D"/>
<path d="M169.3 400.256C169.3 400.256 172.222 391.283 157.928 385.934C149.184 382.744 139.701 382.17 130.636 384.281C136.59 387.949 142.008 392.423 146.736 397.574C154.328 405.936 165.436 403.792 169.076 401.098" fill="#06628D"/>
<path d="M187.176 380.019C186.229 372.922 182.581 366.463 176.992 361.986C167.497 354.207 160.521 352.78 160.521 352.78C161.254 358.633 161.48 364.538 161.196 370.43C160.688 379.684 180.118 391.478 187.176 380.019Z" fill="#06628D"/>
<path d="M220.471 411.708L220.26 411.003C188.906 420.403 178.32 438.52 175.18 446.033C175.024 440.499 175.488 434.964 176.564 429.533C179.816 412.451 182.495 404.562 184.647 398.222C185.973 394.637 187.06 390.967 187.901 387.238C188.438 384.738 188.619 381.116 189.05 378.586C190.395 370.7 188.437 365.211 194.104 360.336L193.189 360.511C188.869 363.693 188.835 370.336 187.418 378.644C187.262 379.562 187.098 380.494 186.934 381.424C185.5 380.824 174.342 375.931 171.966 368.709L171.266 368.939C173.89 376.916 186.193 381.922 186.804 382.166C186.559 383.528 186.304 384.884 186.019 386.199C185.149 390.052 184.04 393.847 182.698 397.562C181.365 401.489 179.83 406.017 178.087 412.9C166.941 389.828 142.958 385.262 142.71 385.213L142.581 385.938C142.823 385.983 166.996 390.596 177.802 414.038C176.786 418.151 175.702 423.062 174.542 429.147C173.077 436.294 172.706 443.622 173.442 450.881C169.975 449.306 160.355 443.737 155.857 428.981C150.218 410.487 126.857 406.827 126.628 406.797L126.52 407.524C126.751 407.561 149.648 411.144 155.153 429.195C159.908 444.789 170.342 450.351 173.553 451.728C175.095 463.51 179.774 469.012 180.069 469.347L181.615 467.987C181.541 467.901 176.178 461.587 175.273 447.816C177.427 441.783 186.935 421.764 220.471 411.708Z" fill="#273137"/>
<path d="M168.631 509.926L189.12 509.663C190.977 509.639 192.764 508.95 194.157 507.722C195.55 506.494 196.458 504.807 196.715 502.968L200.79 473.762L156.041 474.338L160.866 503.429C161.169 505.261 162.12 506.924 163.544 508.116C164.969 509.308 166.773 509.95 168.631 509.926V509.926Z" fill="#4B96B5"/>
<path d="M153.18 475.738L203.683 475.088C204.505 475.078 205.163 474.403 205.153 473.58L205.058 466.189C205.047 465.367 204.372 464.709 203.55 464.719L153.047 465.369C152.225 465.38 151.566 466.055 151.577 466.877L151.672 474.268C151.683 475.091 152.358 475.749 153.18 475.738Z" fill="#2E506E"/>
<path d="M388.852 139.858L388.822 151.668C385.433 151.21 382.185 150.019 379.302 148.178L380.502 141.378L388.852 139.858Z" fill="white"/>
<path d="M381.527 127.327C381.527 127.327 367.794 128.204 364.58 141.936C364.58 141.936 363.704 157.13 367.21 165.311C367.21 165.311 368.417 153.975 378.936 161.572L381.527 127.327Z" fill="#FFBE01"/>
<path d="M379.755 119.826C378.321 120.92 377.546 121.875 375.743 121.826C373.94 121.777 371.554 119.72 371.543 117.811C370.211 118.648 368.898 117.974 367.643 116.905C366.388 115.836 365.722 114.653 366.19 113.078C365.483 113.242 364.741 113.152 364.093 112.825C363.446 112.497 362.934 111.952 362.647 111.285C362.041 109.903 362.16 108.28 363.347 107.514C360.873 105.83 359.442 102.257 360.886 99.6737C358.296 97.9177 357.838 93.5017 360.029 91.3967C358.658 90.9487 358.202 88.6837 358.138 87.1807C358.119 86.5208 358.271 85.8672 358.579 85.2832C358.887 84.6992 359.341 84.2048 359.896 83.8477C360.23 83.5787 360.148 82.4257 360.044 82.0767C359.885 81.5331 359.839 80.9625 359.91 80.4004C359.981 79.8383 360.166 79.2968 360.456 78.8097C360.745 78.3226 361.131 77.9003 361.591 77.5691C362.051 77.2379 362.574 77.0049 363.127 76.8847C362.982 74.6037 364.811 72.0627 366.951 72.4247C367.294 69.7327 370.061 67.3167 372.586 67.9887C373.112 66.6922 374.081 65.6244 375.321 64.9755C376.56 64.3267 377.99 64.1389 379.355 64.4457C380.823 62.2317 383.755 61.9067 386.225 62.8857C387.825 61.6047 390.325 60.6337 391.925 62.0657C392.202 62.385 392.515 62.6704 392.859 62.9157C393.674 63.3477 394.564 62.7297 395.405 62.4377C396.387 62.1776 397.431 62.3018 398.324 62.785C399.217 63.2681 399.892 64.0738 400.211 65.0377C401.431 64.6748 402.726 64.6434 403.962 64.9467C404.6 65.1421 405.151 65.5511 405.522 66.105C405.893 66.6589 406.062 67.3238 406 67.9877C406.498 67.6483 407.088 67.4713 407.69 67.4812C408.292 67.491 408.876 67.6872 409.362 68.0427C409.864 68.427 410.25 68.9416 410.479 69.5303C410.709 70.1191 410.772 70.7595 410.662 71.3817C412.783 71.7367 414.002 74.9087 412.676 76.6227C413.172 76.8667 413.607 77.2182 413.95 77.6517C414.293 78.0852 414.534 78.5897 414.657 79.1284C414.781 79.6672 414.782 80.2266 414.661 80.7658C414.541 81.3051 414.301 81.8107 413.96 82.2457C416.028 83.5637 416.174 87.2227 414.212 88.5457C416.061 89.8107 415.87 93.2527 413.903 94.1147C414.194 94.4551 414.409 94.8537 414.534 95.2838C414.659 95.714 414.69 96.1658 414.626 96.6091C414.563 97.0524 414.405 97.4769 414.164 97.8544C413.923 98.2318 413.604 98.5534 413.228 98.7977C414.028 100.156 413.086 101.926 411.814 102.677C410.542 103.428 409.009 103.565 407.67 104.177C406.109 105.059 404.715 106.21 403.553 107.577C398.87 112.28 393.16 115.834 386.871 117.96C386.501 118.136 386.098 118.234 385.688 118.247C385.278 118.26 384.87 118.188 384.489 118.036" fill="#1F1A1A"/>
<path d="M364.436 104.639C363.89 93.8796 377.29 96.7386 377.29 96.7386C377.29 96.7386 382.552 95.4596 383.79 87.1706C383.79 87.1706 386.852 80.1516 398.69 79.5506C410.528 78.9496 410.86 87.5366 410.86 87.5366C411.485 93.8796 412.703 105.989 412.675 110.006C412.629 116.406 410.698 128.149 401.068 130.406L400.926 136.551L400.84 140.209C400.84 140.209 401.04 148.009 386.776 145.447C377.37 143.757 377.655 138.047 377.655 138.047L376.914 116.304C376.914 116.304 364.981 115.365 364.436 104.639Z" fill="#824B45"/>
<path d="M389.832 129.886C389.832 129.886 390.638 135.396 400.932 136.553L401.077 130.411L400.54 130.633C398.806 131.282 396.952 131.552 395.105 131.423C393.257 131.294 391.459 130.77 389.832 129.886V129.886Z" fill="#452518"/>
<path d="M393.385 102.579L393.225 102.734C393.066 102.945 392.857 103.113 392.616 103.221C392.436 103.301 392.242 103.348 392.045 103.359L384.893 103.722C384.552 103.733 384.216 103.64 383.928 103.457C383.628 103.257 383.39 102.977 383.241 102.649C383.093 102.321 383.04 101.957 383.089 101.6C383.383 99.3258 385.331 95.7168 389.074 96.3798C389.212 96.3858 389.32 96.4448 389.438 96.4518C390.435 96.6744 391.353 97.1643 392.093 97.869C392.833 98.5737 393.367 99.4666 393.638 100.452C393.687 100.59 393.726 100.732 393.753 100.876C393.833 101.168 393.841 101.476 393.777 101.772C393.713 102.069 393.579 102.345 393.385 102.579Z" fill="white"/>
<path d="M411.135 101.676L411.006 101.831C410.866 102.041 410.673 102.21 410.447 102.321C410.291 102.398 410.121 102.441 409.947 102.449L403.594 102.772C403.286 102.778 402.984 102.683 402.735 102.501C402.461 102.282 402.248 101.995 402.117 101.669C401.986 101.342 401.942 100.988 401.988 100.639C402.24 98.3684 403.946 94.7714 407.262 95.4564C407.386 95.4624 407.495 95.5214 407.601 95.5294C408.526 95.8072 409.36 96.3257 410.018 97.0319C410.676 97.7381 411.135 98.6066 411.347 99.5484C411.398 99.7064 411.418 99.8484 411.455 99.9734C411.529 100.263 411.539 100.566 411.484 100.86C411.428 101.155 411.309 101.433 411.135 101.676V101.676Z" fill="white"/>
<path d="M410.793 100.211C410.836 100.932 410.718 101.652 410.447 102.321C410.291 102.398 410.121 102.441 409.947 102.449L405.565 102.672C405.196 102.008 404.986 101.267 404.952 100.508C404.842 98.3453 406.061 96.5243 407.678 96.4423C409.295 96.3603 410.683 98.0483 410.793 100.211Z" fill="#1F1A1A"/>
<path d="M395.442 120.429C396.758 120.357 398.063 120.147 399.335 119.802L399.03 118.629C399.8 118.436 391.072 121.038 389.53 116.629L388.462 117.045C389.513 120.05 392.764 120.565 395.442 120.429Z" fill="#451A16"/>
<path d="M372.449 108.2L373.127 107.229C372.293 106.258 371.608 105.168 371.095 103.994C371.167 103.499 371.339 103.025 371.601 102.599C371.864 102.174 372.211 101.807 372.621 101.521L372.011 100.489C371.439 100.881 370.959 101.393 370.604 101.988C370.249 102.584 370.029 103.25 369.957 103.94C369.9 105.409 370.742 106.838 372.449 108.2Z" fill="#451A16"/>
<path d="M392.757 93.5183C392.757 93.5183 387.235 91.2113 383.194 94.2733C383.194 94.2733 383.756 90.3103 387.606 89.7383C391.456 89.1663 392.757 93.5183 392.757 93.5183Z" fill="#1F1A1A"/>
<path d="M411.406 92.6884C411.406 92.6884 405.884 90.3824 401.843 93.4434C401.843 93.4434 402.405 89.4814 406.254 88.9084C410.103 88.3354 411.406 92.6884 411.406 92.6884Z" fill="#1F1A1A"/>
<path d="M379.525 94.3662C378.48 98.4335 378.356 102.683 379.163 106.804L376.252 105.466L373.477 96.0992L379.525 94.3662Z" fill="#1F1A1A"/>
<path d="M413.882 94.0488H402.222C401.826 94.0968 401.464 94.2988 401.215 94.6113C400.966 94.9238 400.85 95.3216 400.892 95.7188V103.679C400.891 103.989 400.967 104.295 401.112 104.569C401.36 104.502 401.616 104.472 401.872 104.479C401.653 104.233 401.514 103.926 401.472 103.599C401.452 103.487 401.442 103.373 401.442 103.259V96.1288C401.403 95.7322 401.52 95.336 401.769 95.0243C402.017 94.7125 402.377 94.5097 402.772 94.4588H413.342C413.737 94.5116 414.095 94.7149 414.343 95.0262C414.591 95.3375 414.709 95.7326 414.672 96.1288V103.239C414.672 103.346 414.662 103.453 414.642 103.559C414.627 103.905 414.487 104.235 414.248 104.486C414.009 104.738 413.688 104.895 413.342 104.929H403.232C403.279 104.95 403.323 104.976 403.362 105.009C403.382 105.019 403.392 105.039 403.412 105.049C403.517 105.136 403.605 105.241 403.672 105.359H413.882C414.279 105.307 414.64 105.102 414.888 104.789C415.136 104.475 415.253 104.077 415.212 103.679V95.7188C415.254 95.3216 415.138 94.9238 414.889 94.6113C414.641 94.2988 414.279 94.0968 413.882 94.0488V94.0488Z" fill="#1F1A1A"/>
<path opacity="0.31" d="M414.672 96.499V103.239C414.672 103.346 414.662 103.453 414.642 103.559C414.589 103.919 414.416 104.25 414.151 104.498C413.886 104.747 413.544 104.899 413.182 104.929H403.232C403.119 104.866 402.998 104.819 402.872 104.789C402.612 104.604 402.301 104.503 401.982 104.499L401.962 104.479C401.731 104.231 401.575 103.922 401.512 103.589C401.463 103.42 401.439 103.245 401.442 103.069V96.329C401.397 95.8874 401.524 95.4455 401.799 95.0965C402.073 94.7476 402.472 94.5189 402.912 94.459H413.182C413.352 94.4598 413.519 94.4973 413.672 94.569C414.005 94.7623 414.276 95.0466 414.453 95.3884C414.63 95.7303 414.706 96.1155 414.672 96.499V96.499Z" fill="#B3EBFF"/>
<path opacity="0.2" d="M408.232 94.459L401.442 101.079V98.829L405.892 94.459H408.232Z" fill="white"/>
<path opacity="0.2" d="M413.672 94.569L403.542 104.929H403.232C403.119 104.866 402.998 104.819 402.872 104.789C402.611 104.604 402.301 104.503 401.982 104.499L401.962 104.479L411.152 94.459H413.182C413.351 94.4598 413.518 94.4973 413.672 94.569V94.569Z" fill="white"/>
<path opacity="0.2" d="M414.672 97.8691V101.539C413.692 102.589 412.492 103.879 411.532 104.929H408.422L414.672 97.8691Z" fill="white"/>
<path d="M405.122 106.608C405.232 110.678 399.222 111.848 398.962 111.898L398.762 110.698C398.812 110.688 404.062 109.668 403.982 106.638C403.993 106.192 403.886 105.75 403.672 105.358C403.605 105.24 403.517 105.135 403.412 105.048C403.392 105.038 403.382 105.018 403.362 105.008C403.323 104.976 403.279 104.949 403.232 104.928C403.119 104.866 402.998 104.819 402.872 104.788C402.741 104.756 402.607 104.74 402.472 104.738C402.44 104.73 402.406 104.727 402.372 104.728C402.141 104.722 401.909 104.742 401.682 104.788C401.472 104.838 401.292 104.888 401.172 104.928L400.512 105.168L399.372 96.8585L400.502 96.6885L400.892 99.5285L401.452 103.598H401.472C401.48 103.598 401.487 103.594 401.492 103.588H401.512C401.667 103.557 401.824 103.537 401.982 103.528C402.689 103.433 403.405 103.604 403.992 104.008C404.325 104.24 404.588 104.558 404.752 104.928L404.812 105.048C404.863 105.148 404.903 105.251 404.932 105.358C405.052 105.765 405.116 106.185 405.122 106.608Z" fill="#451A16"/>
<path d="M382.87 86.1653C382.851 86.5019 382.906 86.8387 383.032 87.1517C383.157 87.4647 383.35 87.7463 383.596 87.9765C383.842 88.2067 384.136 88.38 384.457 88.484C384.778 88.588 385.118 88.6202 385.452 88.5783C386.121 88.4227 386.732 88.0819 387.216 87.5947C387.699 87.1076 388.036 86.494 388.186 85.8243C388.33 86.3028 388.646 86.7107 389.074 86.9686C389.502 87.2265 390.01 87.3159 390.5 87.2193C390.984 87.0937 391.434 86.8617 391.817 86.54C392.199 86.2184 392.505 85.8153 392.712 85.3603C392.899 85.9529 393.273 86.4685 393.779 86.8291C394.285 87.1896 394.895 87.3754 395.516 87.3582C396.137 87.341 396.735 87.1218 397.22 86.7338C397.705 86.3459 398.051 85.8103 398.204 85.2083C400.38 88.4083 402.446 86.3423 403.326 84.4503C403.416 84.9419 403.636 85.4006 403.963 85.7787C404.29 86.1568 404.712 86.4404 405.185 86.6003C405.422 86.659 405.669 86.6687 405.91 86.629C406.151 86.5892 406.382 86.5008 406.588 86.369C406.794 86.2373 406.971 86.065 407.108 85.8627C407.245 85.6604 407.339 85.4323 407.385 85.1923C407.64 85.5277 407.962 85.8069 408.33 86.0126C408.698 86.2182 409.104 86.3458 409.524 86.3875C409.943 86.4291 410.366 86.3839 410.768 86.2547C411.169 86.1254 411.539 85.9149 411.855 85.6363C412.058 85.4555 412.223 85.2361 412.341 84.991C412.459 84.7459 412.526 84.4798 412.54 84.2083C412.508 83.7602 412.378 83.3247 412.157 82.9333C411.57 81.5421 410.787 80.2425 409.83 79.0743C407.359 76.3163 403.423 75.6313 399.792 75.5143C396.531 75.3579 393.266 75.6885 390.102 76.4953C388.213 76.9585 386.432 77.7878 384.862 78.9363C383.265 80.1202 382.126 81.8187 381.635 83.7453" fill="#1F1A1A"/>
<path d="M393.012 100.993C393.057 101.757 392.92 102.52 392.612 103.221C392.432 103.301 392.238 103.348 392.041 103.359L387.841 103.572C387.423 102.881 387.187 102.096 387.153 101.29C387.044 99.1267 388.262 97.2997 389.88 97.2177C391.498 97.1357 392.9 98.8297 393.012 100.993Z" fill="#1F1A1A"/>
<path d="M479.115 275.966L465.37 288.266L459.212 281.218L460.426 280.189L471.987 270.475C472.051 270.64 475.407 273.181 477.495 274.756C478.433 275.451 479.115 275.966 479.115 275.966Z" fill="#BFBFBF"/>
<path d="M479.115 275.966L465.37 288.266L459.212 281.218L460.426 280.189C461.982 281.907 464.593 284.696 465.37 284.932C466.244 285.2 474.054 277.987 477.495 274.756C478.433 275.451 479.115 275.966 479.115 275.966Z" fill="#ADADAD"/>
<path d="M475.055 268.732L476.123 267.793L481.11 273.436L480.231 274.248L474.408 268.736" fill="white"/>
<path d="M477.944 277.017L471.782 270.481L475.043 267.52L480.916 274.412L477.944 277.017Z" fill="#DEDEDE"/>
<path d="M506.112 510.138H464.662C464.662 510.138 458.552 506.918 458.452 506.488C458.352 506.058 452.582 506.488 452.582 506.488V510.138H444.472C444.472 510.138 440.232 492.728 444.472 488.958C444.822 488.648 465.712 484.988 465.712 484.988C465.712 484.988 466.432 485.278 467.642 485.818C472.663 488.009 477.479 490.643 482.032 493.688C483.084 494.403 484.228 494.972 485.432 495.378C492.702 497.908 502.332 495.978 504.722 501.328C507.5 507.558 506.112 510.138 506.112 510.138Z" fill="#101417"/>
<path d="M485.432 495.378C483.582 496.908 479.282 499.918 476.332 497.558C472.482 494.498 460.852 490.638 460.522 490.528C460.272 490.448 465.202 487.338 467.642 485.818C472.663 488.01 477.478 490.643 482.032 493.688C483.083 494.403 484.227 494.972 485.432 495.378V495.378Z" fill="#28333B"/>
<path d="M429.387 275.81L428.672 287.962L397.942 289.074L388.422 289.411L388.502 277.443L397.942 276.77L429.387 275.81Z" fill="#40494D"/>
<path d="M397.942 276.77V289.074L388.422 289.411L388.502 277.443L397.942 276.77Z" fill="white"/>
<path d="M392.575 161.036H388.852V198.028L392.575 189.177V161.036Z" fill="#DEDEDE"/>
</svg>
