<svg width="808" height="476" viewBox="0 0 808 476" fill="none" xmlns="http://www.w3.org/2000/svg">
<path d="M71.705 360.65C71.705 360.65 81.239 351.211 92.045 358.228C102.851 365.245 103.553 385.174 103.553 385.174C103.553 385.174 97.519 380.543 91.203 380.262C84.887 379.981 64.557 369.106 71.705 360.65Z" fill="#88BDD1"/>
<path d="M62.166 412.41C62.166 412.41 60.749 402.576 66.784 398.226C72.819 393.876 84.377 392.191 86.878 389.805C86.878 389.805 88.116 401.032 81.941 406.927C75.766 412.822 65.127 414.525 62.166 412.41Z" fill="#88BDD1"/>
<path d="M47.451 394.656C47.451 394.656 46.151 399.208 38.856 398.085C31.561 396.962 22.576 390.647 19.629 390.785C19.629 390.785 26.365 385.593 34.365 386.575C42.365 387.557 47.206 391.368 47.451 394.656Z" fill="#88BDD1"/>
<path d="M52.041 382.247C52.041 382.247 44.306 384.472 39.815 380.547C35.324 376.622 32.271 365.53 31.833 365.247C31.395 364.964 47.998 367.578 52.041 375.212C56.084 382.846 52.041 382.247 52.041 382.247Z" fill="#63AAC6"/>
<path d="M42.181 347.721C42.181 347.721 41.522 350.65 34.926 350.509C28.33 350.368 22.296 354.86 18.226 356.965C14.156 359.07 0.682988 357.106 0.542988 356.965C0.402988 356.824 1.10399 353.878 6.71799 351.071C12.332 348.264 16.682 338.721 25.243 338.861C33.804 339.001 41.718 343.528 42.181 347.721Z" fill="#63AAC6"/>
<path d="M45.79 415.01C45.2575 411.452 43.5308 408.18 40.8935 405.733C38.2562 403.286 34.865 401.808 31.277 401.543C18.085 400.05 13.033 407.207 13.033 407.207C13.033 407.207 19.91 413.129 26.787 415.007C33.664 416.885 42.058 416.638 45.79 415.01Z" fill="#63AAC6"/>
<path d="M97.156 374.453C88.656 364.299 80.415 359.412 73.351 360.318C67.881 361.018 63.206 365.228 59.439 372.811C59.715 368.828 59.908 366.183 62.597 362.238C66.097 357.105 67.07 347.953 67.08 347.861L66.736 347.825C66.726 347.916 65.762 356.982 62.311 362.043C60.0249 365.202 58.7549 368.982 58.67 372.881C58.592 374.007 58.504 375.281 58.346 376.702C58.215 377.887 58.116 379.043 58.021 380.161C57.626 384.824 57.659 386.518 55.355 387.961C54.667 367.041 53.679 348.543 52.111 342.061L50.765 342.387C51.465 345.287 52.065 351.171 52.577 358.706C45.119 348.311 37.536 342.706 30.022 342.084C27.8213 341.899 25.6061 342.169 23.5146 342.879C21.4231 343.588 19.5003 344.72 17.866 346.206L18.115 346.447C19.7142 344.999 21.5937 343.896 23.6368 343.205C25.68 342.513 27.8434 342.249 29.993 342.428C37.51 343.056 45.119 348.762 52.62 359.363C53.015 365.337 53.355 372.298 53.647 379.62C50.0084 377.078 46.2363 374.734 42.347 372.596L42.181 372.896C46.1364 375.07 49.9686 377.461 53.66 380.058C53.932 386.958 54.16 394.149 54.353 401.124C49.411 391.545 29.641 389.193 29.424 389.169L29.386 389.512C29.605 389.537 50.176 391.98 54.376 401.977C54.608 410.555 54.783 418.755 54.91 425.599C51.742 418.038 44.056 413.468 38.01 410.939C32.7643 408.714 27.2102 407.303 21.539 406.753C20.939 406.741 20.802 406.803 20.75 406.935L21.071 407.063C21.0609 407.09 21.0414 407.113 21.016 407.128C21.531 406.908 30.127 407.828 38.826 411.666C44.665 414.244 52.16 418.922 54.926 426.588C55.113 436.769 55.19 443.71 55.193 443.954L56.577 443.939C56.566 442.89 56.477 434.876 56.267 423.726C61.19 408.506 82.267 393.42 83.109 393.253L83.041 392.913C82.351 393.051 76.352 397.365 70.165 403.413C65.13 408.337 58.918 415.468 56.248 422.739C56.067 413.298 55.802 401.761 55.429 390.326C58.029 388.874 58.368 385.012 58.781 380.141C58.875 379.026 58.973 377.873 59.104 376.691C59.223 375.618 59.304 374.627 59.369 373.72C63.144 365.763 67.861 361.368 73.389 360.66C80.332 359.76 88.46 364.616 96.889 374.674C97.363 375.241 97.389 375.274 97.464 375.295L97.534 375.085L97.615 374.985C97.574 374.953 97.38 374.721 97.156 374.453Z" fill="#273137"/>
<path d="M98.436 391.366C151.854 357.454 176.681 287.555 159.19 220.317C153.631 198.949 144.162 177.65 143.5 156.317C142.639 128.546 157.307 104.147 178.084 88.4226C198.861 72.6986 225.242 64.7136 252.075 59.7506C279.405 54.6956 307.985 52.5406 336.875 56.9656C409.575 68.0996 476.911 119.28 549.585 132.14C579.823 137.49 609.885 135.969 640.136 140.617C670.387 145.265 702.793 157.697 722.486 183.025C730.653 193.525 736.095 205.568 741.11 217.525C749.203 236.825 756.517 256.669 758.417 276.605C760.217 295.525 757.076 313.832 752.726 331.429C747.545 352.456 740.539 372.992 731.786 392.801C725.22 407.631 717.447 422.251 705.012 432.394C692.577 442.537 674.412 443.273 657.112 443.273H146.361C148.303 438.855 142.328 433.473 137.276 431.498C132.224 429.523 126.305 428.453 122.976 424.051" fill="#D4F2FF"/>
<path d="M97.135 400.156L58.216 438.463H287.89L252.07 400.156H97.135Z" fill="#9AD3FC"/>
<path d="M758.372 452.283C757.822 446.443 732.972 442.105 710.022 438.464H58.212C58.212 438.464 51.525 443.014 52.072 447.784C52.072 447.784 52.072 447.831 52.092 447.916C52.2207 448.78 52.5676 449.597 53.1 450.29C55.29 453.884 62.122 460.499 83.349 464.404C101.802 468.766 135.449 469.785 165.022 469.687C194.182 469.596 223.292 468.887 251.712 467.58C297.642 465.465 343.822 461.757 390.372 463.25C426.202 464.403 457.552 468.509 490.072 471.719C522.592 474.929 560.712 477.31 594.752 474.797C608.232 473.797 621.092 471.827 624.342 469.04C628.042 465.863 618.912 462.147 628.092 459.451C636.572 456.963 654.802 457.038 669.812 457.386C683.192 457.701 696.575 458.014 709.962 458.323C724.572 458.663 741.692 458.823 751.452 456.631C756.642 455.468 758.512 453.838 758.372 452.283Z" fill="#9AD3FC"/>
<path d="M236.221 296.107H111.345V391.406H236.221V296.107Z" fill="#75B0DB"/>
<path d="M102.575 296.107L105.581 303.12H120.107L123.613 296.107H102.575Z" fill="#9AD3FC"/>
<path d="M102.575 391.407L105.581 384.394H120.107L123.613 391.407H102.575Z" fill="#9AD3FC"/>
<path d="M118.881 301.235H107.088V386.968H118.881V301.235Z" fill="#9AD3FC"/>
<path d="M131.587 296.107L134.593 303.12H149.119L152.625 296.107H131.587Z" fill="#9AD3FC"/>
<path d="M131.587 391.407L134.593 384.394H149.119L152.625 391.407H131.587Z" fill="#9AD3FC"/>
<path d="M147.893 301.235H136.1V386.968H147.893V301.235Z" fill="#9AD3FC"/>
<path d="M174.603 236.71L88.572 287.704H260.632L174.603 236.71Z" fill="#9AD3FC"/>
<path d="M250.887 286.089H98.318V298.11H250.887V286.089Z" fill="#75B0DB"/>
<path d="M246.63 296.107L243.624 303.12H229.1L225.594 296.107H246.63Z" fill="#9AD3FC"/>
<path d="M246.63 391.407L243.624 384.394H229.1L225.594 391.407H246.63Z" fill="#9AD3FC"/>
<path d="M242.117 301.235H230.324V386.968H242.117V301.235Z" fill="#9AD3FC"/>
<path d="M217.617 296.107L214.617 303.12H200.086L196.58 296.107H217.617Z" fill="#9AD3FC"/>
<path d="M217.617 391.407L214.617 384.394H200.086L196.58 391.407H217.617Z" fill="#9AD3FC"/>
<path d="M213.105 301.235H201.312V386.968H213.105V301.235Z" fill="#9AD3FC"/>
<path d="M246.629 391.406H103.199V395.796H246.629V391.406Z" fill="#75B0DB"/>
<path d="M252.07 394.669H97.135V400.495H252.07V394.669Z" fill="#9AD3FC"/>
<path d="M175.102 210.236H174.102V236.71H175.102V210.236Z" fill="#64AEE3"/>
<path d="M174.6 214.72C176.827 212.84 179.653 211.818 182.568 211.841C187.531 211.841 188.623 216.308 192.694 215.911C196.765 215.514 201.529 212.536 201.529 212.536C202.134 213.913 202.447 215.4 202.447 216.904C202.447 218.408 202.134 219.896 201.529 221.272C199.539 225.631 201.529 231.199 201.529 231.199C201.529 231.199 194.356 233.964 188.529 228.585C182.658 223.167 174.601 230.008 174.601 230.008L174.6 214.72Z" fill="#9AD3FC"/>
<path d="M162.808 353.264V391.406H188.277V353.264C186.645 351.522 184.672 350.134 182.482 349.185C180.291 348.236 177.93 347.746 175.542 347.746C173.155 347.746 170.794 348.236 168.603 349.185C166.413 350.134 164.44 351.522 162.808 353.264V353.264Z" fill="#3B7FB0"/>
<path d="M174.953 310.193H161.982V320.806H174.953V310.193Z" fill="#3B7FB0"/>
<path d="M189.945 310.193H176.974V320.806H189.945V310.193Z" fill="#3B7FB0"/>
<path d="M174.953 322.47H161.982V333.083H174.953V322.47Z" fill="#3B7FB0"/>
<path d="M189.945 322.47H176.974V333.083H189.945V322.47Z" fill="#3B7FB0"/>
<path d="M174.602 246.935L117.224 280.946H231.981L174.602 246.935Z" fill="#75B0DB"/>
<path d="M320.643 219.738C320.643 219.738 332.211 251.913 332.786 252.416C333.361 252.919 340.996 290.316 340.996 290.316L331.674 300.616L320.643 260.176L313.323 249.176L320.643 219.738Z" fill="#00315C"/>
<path d="M346.253 417.354L335.043 419.754L331.423 420.524L312.593 376.784L293.183 317.394C293.183 317.394 278.703 360.854 278.703 362.124C278.703 363.394 265.093 421.394 265.093 421.394C263.956 421.946 262.724 422.275 261.463 422.364C255.393 422.924 248.283 419.364 248.283 419.364L258.423 357.738L270.883 291.618C276.673 279.738 317.023 285.828 317.023 285.828L328.533 359.928L346.253 417.354Z" fill="#042440"/>
<path d="M261.8 441.954H224.99C224.41 441.246 223.975 440.43 223.71 439.554C223.471 438.696 223.463 437.789 223.688 436.927C223.913 436.064 224.362 435.277 224.99 434.644L234.91 432.284L248.41 426.914L259.33 428.424L262.17 428.814C265.893 437.494 261.8 441.954 261.8 441.954Z" fill="white"/>
<path d="M347.123 441.954H311.683C311.122 441.243 310.701 440.432 310.443 439.564C310.209 438.707 310.2 437.803 310.418 436.941C310.635 436.08 311.071 435.288 311.683 434.644L321.233 432.284L334.233 426.914L346.223 427.454L348.213 427.544C351.793 436.224 347.123 441.954 347.123 441.954Z" fill="white"/>
<path d="M335.043 419.755L331.423 420.525L312.593 376.785L293.183 317.395C293.183 317.395 278.703 360.855 278.703 362.125C278.703 363.395 265.093 421.395 265.093 421.395C263.956 421.946 262.724 422.275 261.463 422.365C263.913 413.495 274.143 363.905 274.143 363.905C274.143 363.905 278.603 350.285 282.573 332.435C286.543 314.585 282.573 308.395 282.573 308.395C287.277 309.416 291.738 311.345 295.703 314.075L315.783 373.575C315.783 373.575 329.913 408.739 335.043 419.755Z" fill="#00172B"/>
<path d="M261.8 441.955H224.99C224.41 441.246 223.975 440.431 223.71 439.555L258.81 438.445C260.17 436.185 259.78 431.495 259.33 428.425L262.17 428.815C265.893 437.495 261.8 441.955 261.8 441.955Z" fill="#C7C7C7"/>
<path d="M347.123 441.954H311.683C311.122 441.243 310.701 440.432 310.443 439.564L345.853 438.444C347.373 435.924 346.713 430.404 346.223 427.454L348.213 427.544C351.793 436.224 347.123 441.954 347.123 441.954Z" fill="#C7C7C7"/>
<path d="M250.155 417.354C249.783 418.034 248.286 427.701 248.286 427.701C248.286 427.701 255.608 432.162 262.176 428.816L263.291 419.367L250.155 417.354Z" fill="#824B45"/>
<path d="M332.374 417.353C332.002 418.033 333.538 427.7 333.538 427.7C333.538 427.7 340.86 432.161 347.428 428.815L344.428 414.565L332.374 417.353Z" fill="#824B45"/>
<path d="M248.286 411.713L247.304 419.366C248.604 420.604 250.143 421.564 251.826 422.187C253.509 422.81 255.302 423.083 257.095 422.99C263.539 422.866 266.637 421.503 266.637 421.503C266.637 421.503 268.124 415.803 267.752 415.679C267.38 415.555 256.951 417.538 248.286 411.713Z" fill="#3E6080"/>
<path d="M328.09 415.362L346.251 410.979L348.213 417.853L330.979 422.312L328.09 415.362Z" fill="#3E6080"/>
<path d="M312.843 288.794C312.843 288.794 306.633 296.744 294.783 294.214C282.933 291.684 273.283 289.464 273.283 289.464C273.283 289.464 276.853 239.514 285.333 218.914C286.753 215.464 288.313 212.834 290.013 211.404L304.363 213.254C304.363 213.254 303.943 217.524 303.643 223.824C303.163 233.844 302.993 249.024 305.273 260.354C309 278.804 312.843 288.794 312.843 288.794Z" fill="#F26835"/>
<path d="M304.905 211.905C304.905 211.905 304.485 216.175 304.185 222.475C301.055 224.505 296.595 226.755 292.985 225.945C289.325 225.115 287.095 220.905 285.875 217.565C287.295 214.115 288.855 211.485 290.555 210.055L304.905 211.905Z" fill="white"/>
<path d="M257.237 159.506L256.049 148.706L256.449 136.279C256.48 135.279 256.84 134.317 257.474 133.543C258.108 132.768 258.98 132.225 259.954 131.997C262.869 131.324 266.878 131.025 268.71 133.742L267.657 146.588L270.079 144.482L271.553 142.271C271.553 142.271 272.889 143.429 273.274 143.429C273.659 143.429 271.764 149.747 271.764 149.747L268.816 154.38L265.762 161.857L257.237 159.506Z" fill="#824B45"/>
<path d="M256.557 165.177V159.507C256.557 159.507 263.421 158.688 266.665 161.183V166.674L256.557 165.177Z" fill="#FFBE01"/>
<path d="M290.573 210.664C280.253 222.704 278.213 276.164 277.813 295.744C277.723 300.254 277.713 302.964 277.713 302.964C270.593 304.434 263.973 296.344 263.973 296.344L265.063 288.584L272.473 235.754C272.473 235.754 253.773 202.944 254.423 203.034C254.973 203.114 254.603 175.894 254.473 166.994C254.454 166.128 254.754 165.286 255.317 164.627C255.879 163.969 256.665 163.541 257.523 163.424C257.833 163.384 258.133 163.354 258.433 163.344C260.953 163.241 263.468 163.638 265.833 164.514C266.528 164.758 267.129 165.213 267.553 165.815C267.976 166.418 268.2 167.138 268.193 167.874C268.153 172.824 268.083 184.554 268.213 192.764C268.303 199.064 272.373 205.574 275.693 209.844C276.814 211.29 278.369 212.337 280.13 212.832C281.89 213.327 283.763 213.244 285.473 212.594L290.573 210.664Z" fill="#00315C"/>
<path d="M292.445 208.938C292.445 208.938 282.088 206.543 278.06 228.526C278.06 228.526 280.142 223.344 284.423 225.707C284.423 225.711 287.842 211.963 292.445 208.938Z" fill="#FFBE01"/>
<path d="M323.9 294.714C323.9 294.714 322.55 296.104 312.56 299.804C311.85 300.064 311.12 300.334 310.35 300.614C310.35 300.614 309.58 297.664 308.47 292.804C304.33 274.554 295.88 229.414 305.63 213.254L320.64 219.734L318.24 238.299C317.072 247.27 317.191 256.362 318.592 265.299L321.972 285.269L322.452 287.589L323.9 294.714Z" fill="#00315C"/>
<path d="M302.968 208.866C302.968 208.866 315.035 212.33 311.346 227.926C311.346 227.926 304.454 220.396 301.489 225.603L302.968 208.866Z" fill="#FFBE01"/>
<path d="M273.283 230.265L272.473 235.755C272.473 235.755 253.773 202.945 254.423 203.035C254.973 203.115 254.603 175.895 254.473 166.995C254.454 166.129 254.754 165.286 255.317 164.628C255.879 163.969 256.665 163.541 257.523 163.425C257.833 163.385 258.133 163.355 258.433 163.345C257.983 170.435 256.243 200.395 258.533 204.345C261.133 208.839 273.283 230.265 273.283 230.265Z" fill="#042440"/>
<path d="M265.063 288.584C268.464 292.239 272.921 294.742 277.813 295.744C277.723 300.254 277.713 302.964 277.713 302.964C270.593 304.434 263.973 296.344 263.973 296.344L265.063 288.584Z" fill="#FFBE01"/>
<path d="M323.9 294.715C320.246 296.679 316.456 298.38 312.56 299.805C311.85 300.065 311.12 300.335 310.35 300.615C310.35 300.615 309.58 297.665 308.47 292.805C313.3 291.565 317.986 289.818 322.45 287.595L323.9 294.715Z" fill="#FFBE01"/>
<path d="M290.49 204.038C289.62 204.669 289.144 205.227 288.075 205.169C287.457 205.074 286.886 204.781 286.448 204.334C286.011 203.887 285.729 203.31 285.647 202.69C284.842 203.168 284.074 202.742 283.347 202.079C282.986 201.828 282.713 201.468 282.57 201.051C282.426 200.635 282.418 200.184 282.547 199.762C282.123 199.847 281.682 199.78 281.303 199.572C280.924 199.364 280.63 199.029 280.474 198.625C280.276 198.254 280.216 197.825 280.304 197.414C280.392 197.003 280.622 196.636 280.954 196.378C279.514 195.326 278.725 193.161 279.626 191.638C279.266 191.342 278.97 190.976 278.755 190.562C278.54 190.148 278.412 189.695 278.378 189.23C278.343 188.765 278.403 188.298 278.555 187.857C278.706 187.416 278.945 187.01 279.258 186.664C278.452 186.372 278.219 185.006 278.207 184.105C278.206 183.711 278.307 183.322 278.5 182.978C278.692 182.633 278.97 182.344 279.307 182.138C279.507 181.983 279.481 181.291 279.425 181.08C279.339 180.753 279.32 180.412 279.371 180.077C279.422 179.743 279.541 179.422 279.721 179.135C279.901 178.849 280.137 178.602 280.416 178.411C280.695 178.219 281.011 178.087 281.343 178.022C281.295 176.653 282.424 175.162 283.688 175.416C283.937 173.809 285.62 172.41 287.108 172.856C287.438 172.091 288.03 171.469 288.777 171.101C289.525 170.734 290.379 170.645 291.186 170.85C291.67 170.261 292.343 169.858 293.09 169.709C293.838 169.561 294.614 169.676 295.286 170.035C296.258 169.295 297.76 168.757 298.686 169.642C298.845 169.838 299.026 170.015 299.226 170.168C299.703 170.441 300.241 170.086 300.746 169.926C301.336 169.789 301.955 169.883 302.478 170.189C303 170.495 303.385 170.989 303.554 171.57C304.284 171.374 305.054 171.377 305.782 171.58C306.158 171.71 306.477 171.965 306.688 172.302C306.899 172.64 306.988 173.039 306.94 173.433C307.241 173.237 307.596 173.141 307.955 173.157C308.313 173.173 308.658 173.302 308.94 173.524C309.232 173.765 309.452 174.081 309.578 174.437C309.704 174.794 309.73 175.178 309.654 175.548C309.962 175.651 310.242 175.823 310.474 176.051C310.705 176.279 310.881 176.557 310.987 176.864C311.094 177.171 311.13 177.498 311.09 177.82C311.051 178.142 310.938 178.451 310.761 178.723C311.052 178.88 311.304 179.099 311.5 179.365C311.696 179.631 311.831 179.937 311.895 180.261C311.959 180.586 311.95 180.92 311.869 181.24C311.788 181.561 311.638 181.859 311.428 182.114C311.711 182.34 311.94 182.626 312.099 182.951C312.258 183.276 312.342 183.632 312.346 183.994C312.35 184.355 312.274 184.714 312.123 185.042C311.971 185.371 311.749 185.661 311.471 185.893C311.719 186.106 311.912 186.374 312.036 186.676C312.16 186.978 312.21 187.305 312.183 187.63C312.156 187.956 312.052 188.27 311.88 188.547C311.708 188.824 311.472 189.057 311.193 189.225C311.36 189.435 311.48 189.677 311.546 189.937C311.613 190.196 311.624 190.466 311.578 190.73C311.533 190.994 311.432 191.245 311.283 191.467C311.134 191.689 310.939 191.878 310.712 192.019C310.876 192.446 310.875 192.918 310.708 193.344C310.542 193.77 310.222 194.117 309.812 194.319C308.999 194.638 308.169 194.914 307.327 195.147C306.385 195.65 305.538 196.315 304.827 197.111C301.974 199.845 298.524 201.876 294.75 203.043C294.527 203.142 294.286 203.193 294.043 203.193C293.799 203.193 293.558 203.142 293.335 203.043" fill="#1F1A1A"/>
<path d="M281.655 194.667C281.513 188.21 289.418 190.158 289.418 190.158C289.418 190.158 292.563 189.483 293.441 184.538C293.441 184.538 295.378 180.385 302.416 180.231C309.454 180.077 309.504 185.231 309.504 185.231C309.768 189.042 310.286 196.319 310.204 198.725C310.068 202.56 307.619 209.765 302.969 210.749L302.78 214.429L302.667 216.619C302.667 216.619 302.653 221.298 294.231 219.513C288.676 218.338 288.942 214.922 288.942 214.922L288.871 201.881C288.871 201.881 281.8 201.104 281.655 194.667Z" fill="#824B45"/>
<path d="M296.3 210.238C296.3 210.238 296.685 213.554 302.776 214.426L302.967 210.748L302.644 210.872C301.604 211.232 300.498 211.361 299.402 211.251C298.307 211.142 297.249 210.796 296.3 210.238Z" fill="#452518"/>
<path d="M298.872 193.938L298.772 194.028C298.675 194.152 298.547 194.249 298.402 194.309C298.294 194.355 298.178 194.38 298.061 194.382L293.809 194.476C293.606 194.477 293.408 194.415 293.241 194.3C293.066 194.175 292.929 194.003 292.847 193.804C292.764 193.604 292.739 193.386 292.774 193.173C292.988 191.815 294.205 189.687 296.416 190.149C296.497 190.155 296.56 190.192 296.631 190.198C297.221 190.352 297.758 190.662 298.185 191.097C298.612 191.531 298.913 192.074 299.055 192.666C299.082 192.75 299.102 192.836 299.116 192.922C299.16 193.099 299.16 193.283 299.118 193.46C299.076 193.637 298.991 193.801 298.872 193.938V193.938Z" fill="white"/>
<path d="M309.423 193.704L309.344 193.794C309.258 193.917 309.14 194.015 309.004 194.078C308.91 194.121 308.808 194.145 308.704 194.146L304.928 194.229C304.746 194.226 304.571 194.164 304.428 194.052C304.269 193.915 304.147 193.739 304.075 193.542C304.003 193.344 303.982 193.131 304.016 192.924C304.204 191.567 305.277 189.442 307.234 189.91C307.308 189.916 307.371 189.953 307.434 189.959C307.98 190.144 308.467 190.47 308.846 190.904C309.224 191.339 309.481 191.866 309.589 192.432C309.617 192.532 309.626 192.612 309.646 192.689C309.685 192.864 309.685 193.046 309.646 193.221C309.608 193.396 309.532 193.561 309.423 193.704V193.704Z" fill="white"/>
<path d="M302.026 199.618C302.179 199.594 305.769 198.995 305.771 196.557C305.797 196.263 305.755 195.967 305.646 195.692C305.538 195.417 305.366 195.172 305.146 194.975C304.929 194.828 304.684 194.726 304.426 194.677C304.168 194.627 303.903 194.631 303.646 194.687L303.198 190.531L302.525 190.612L303.064 195.612L303.457 195.477C303.667 195.397 303.892 195.364 304.117 195.379C304.341 195.394 304.559 195.457 304.757 195.564C304.885 195.692 304.983 195.848 305.043 196.019C305.102 196.191 305.122 196.373 305.101 196.553C305.101 198.368 301.965 198.892 301.933 198.897L302.026 199.618Z" fill="#451A16"/>
<path d="M299.791 204.667C300.573 204.647 301.351 204.544 302.112 204.359L301.951 203.651C302.411 203.551 297.187 204.956 296.351 202.285L295.71 202.516C296.278 204.338 298.2 204.702 299.791 204.667Z" fill="#451A16"/>
<path d="M286.351 196.938L286.77 196.368C286.29 195.771 285.902 195.106 285.618 194.395C285.668 194.1 285.778 193.819 285.941 193.569C286.104 193.318 286.317 193.104 286.566 192.94L286.221 192.311C285.874 192.537 285.579 192.835 285.359 193.186C285.138 193.537 284.996 193.932 284.943 194.343C284.955 194.856 285.089 195.359 285.334 195.81C285.579 196.261 285.927 196.648 286.351 196.938V196.938Z" fill="#451A16"/>
<path d="M298.653 188.497C298.653 188.497 295.415 187.019 292.964 188.783C293.084 188.118 293.408 187.507 293.891 187.033C294.374 186.56 294.991 186.249 295.659 186.142C297.954 185.866 298.653 188.497 298.653 188.497Z" fill="#1F1A1A"/>
<path d="M309.736 188.323C309.736 188.323 306.498 186.845 304.047 188.61C304.167 187.944 304.492 187.332 304.976 186.858C305.459 186.385 306.079 186.074 306.747 185.969C309.037 185.692 309.736 188.323 309.736 188.323Z" fill="#1F1A1A"/>
<path d="M290.785 188.775C290.095 191.196 289.95 193.739 290.359 196.222L288.659 195.369L287.17 189.709L290.785 188.775Z" fill="#1F1A1A"/>
<path d="M292.909 183.919C292.891 184.12 292.917 184.322 292.986 184.511C293.055 184.7 293.164 184.872 293.306 185.014C293.449 185.156 293.62 185.265 293.81 185.334C293.999 185.402 294.201 185.429 294.401 185.41C294.802 185.328 295.171 185.134 295.466 184.851C295.761 184.568 295.97 184.207 296.07 183.81C296.146 184.098 296.326 184.348 296.576 184.509C296.825 184.671 297.126 184.734 297.42 184.685C297.71 184.618 297.981 184.486 298.214 184.3C298.447 184.114 298.635 183.878 298.765 183.61C298.863 183.968 299.076 184.283 299.37 184.508C299.665 184.733 300.025 184.855 300.396 184.855C300.767 184.855 301.127 184.733 301.422 184.508C301.717 184.283 301.929 183.968 302.027 183.61C303.264 185.564 304.527 184.363 305.08 183.245C305.124 183.54 305.247 183.818 305.434 184.05C305.622 184.282 305.868 184.46 306.147 184.565C306.287 184.605 306.434 184.615 306.579 184.595C306.723 184.576 306.862 184.527 306.987 184.451C307.112 184.376 307.22 184.276 307.304 184.157C307.389 184.038 307.448 183.903 307.478 183.76C307.622 183.965 307.808 184.138 308.022 184.268C308.237 184.397 308.476 184.481 308.725 184.513C308.974 184.546 309.226 184.526 309.467 184.456C309.708 184.385 309.931 184.266 310.123 184.104C310.247 183.999 310.349 183.87 310.423 183.725C310.497 183.581 310.541 183.423 310.554 183.26C310.542 182.992 310.472 182.728 310.348 182.489C310.024 181.647 309.581 180.855 309.032 180.137C307.613 178.437 305.288 177.962 303.132 177.829C301.199 177.679 299.255 177.821 297.364 178.249C296.234 178.495 295.163 178.961 294.213 179.62C293.242 180.305 292.536 181.303 292.213 182.446" fill="#1F1A1A"/>
<path d="M298.678 192.98C298.692 193.438 298.599 193.893 298.405 194.307C298.297 194.353 298.181 194.378 298.064 194.38L295.57 194.435C295.333 194.014 295.205 193.54 295.2 193.056C295.172 191.756 295.926 190.684 296.887 190.663C297.848 190.642 298.649 191.681 298.678 192.98Z" fill="#1F1A1A"/>
<path d="M309.245 192.82C309.257 193.252 309.173 193.682 309 194.078C308.906 194.122 308.804 194.145 308.7 194.146L306.1 194.204C305.892 193.799 305.78 193.352 305.773 192.897C305.745 191.597 306.499 190.529 307.46 190.508C308.421 190.487 309.217 191.522 309.245 192.82Z" fill="#1F1A1A"/>
<path d="M402.465 158.469L404.255 152.505L404.8 131.122C404.8 131.122 398.4 127.029 394.293 130.922L393.266 143.78L390.977 141.249L389.741 138.793C389.094 139.169 388.394 139.444 387.664 139.611C387.243 139.539 388.243 146.121 388.243 146.121L390.679 151.242L392.748 159.184L402.465 158.469Z" fill="#F7A9A0"/>
<path d="M345.281 243.122C342.64 244.164 339.551 244.722 337.064 243.3C335.804 242.469 334.706 241.415 333.825 240.19C331.925 237.862 332.307 242.83 330.406 240.502C329.951 239.945 331.806 240.174 331.674 239.458C331.532 238.697 328.851 236.127 329.726 227.926C330.512 220.555 330.692 214.338 328.967 207.088C327.841 202.357 325.601 197.601 326.577 192.848C327.003 190.759 328.049 188.847 329.577 187.362C330.855 186.136 332.969 185.314 334.256 186.546C334.29 182.828 336.801 180.363 340.005 178.736C343.669 176.742 347.773 175.693 351.944 175.686C354.042 175.706 356.113 176.159 358.028 177.015C359.943 177.872 361.662 179.113 363.076 180.663C365.966 184.008 367.048 188.736 366.739 193.206C366.557 195.822 365.939 198.381 365.639 200.984C365.239 204.489 365.415 208.035 366.16 211.484C367.274 216.631 369.66 221.738 368.82 226.928C368.235 229.854 366.935 232.59 365.035 234.892C362.902 237.778 360.139 240.141 356.956 241.801C353.292 243.428 349.216 243.89 345.281 243.122V243.122Z" fill="#263238"/>
<path d="M358.5 192.258L357.967 189.723C352.18 183.672 338.975 192.975 338.975 192.975L339.343 199.855C339.3 199.867 339.257 199.876 339.213 199.883C338.949 199.877 338.692 199.794 338.473 199.645C336.707 199.582 330.973 199.757 331.751 205.099C332.664 211.382 339.837 211.225 339.837 211.225L341.472 223.981C341.472 223.981 341.615 227.359 347.317 227.792C355.963 228.45 355.417 223.868 355.417 223.868L355.268 221.709L355.015 218.083C359.501 215.843 360.989 208.404 360.605 204.832C360.345 202.471 359.216 195.955 358.5 192.258Z" fill="#F7A9A0"/>
<path d="M348.277 218.447C348.277 218.447 349.059 221.647 355.263 221.709L355.012 218.084L354.704 218.247C353.708 218.733 352.62 219.002 351.512 219.036C350.404 219.071 349.302 218.87 348.277 218.447V218.447Z" fill="#965E58"/>
<path d="M348.894 202.15L348.807 202.267C348.735 202.382 348.639 202.479 348.525 202.553C348.411 202.627 348.282 202.674 348.148 202.693L345.889 203.032L343.903 203.332C343.698 203.366 343.486 203.331 343.303 203.232C343.115 203.135 342.958 202.985 342.853 202.801C342.748 202.617 342.699 202.406 342.712 202.195C342.761 200.828 343.73 198.589 345.988 198.764C346.076 198.764 346.134 198.783 346.211 198.783C346.787 198.85 347.335 199.067 347.801 199.413C348.302 199.795 348.693 200.303 348.935 200.886C348.969 200.961 348.998 201.039 349.022 201.119C349.087 201.288 349.11 201.47 349.087 201.65C349.065 201.83 348.999 202.002 348.894 202.15Z" fill="white"/>
<path d="M359.429 200.56L359.371 200.666C359.271 200.848 359.105 200.984 358.906 201.044C358.862 201.071 358.812 201.088 358.76 201.093L356.56 201.432L355 201.665C354.814 201.685 354.628 201.644 354.467 201.548C354.291 201.438 354.148 201.283 354.051 201.099C353.953 200.916 353.906 200.71 353.914 200.502C353.943 199.145 354.767 196.925 356.774 197.139C356.861 197.139 356.919 197.158 356.987 197.158C357.515 197.246 358.011 197.473 358.421 197.817C358.88 198.218 359.231 198.728 359.439 199.3C359.478 199.387 359.497 199.474 359.526 199.542C359.586 199.709 359.609 199.886 359.592 200.062C359.576 200.238 359.52 200.409 359.429 200.56Z" fill="white"/>
<path d="M352.736 207.312C352.886 207.269 356.408 206.219 356.118 203.832C356.109 203.54 356.03 203.254 355.888 202.999C355.746 202.743 355.545 202.526 355.302 202.364C355.064 202.247 354.806 202.18 354.541 202.165C354.277 202.15 354.012 202.188 353.763 202.277L352.816 198.266L352.152 198.433L353.291 203.258L353.668 203.075C353.868 202.969 354.088 202.907 354.314 202.893C354.539 202.879 354.765 202.913 354.977 202.993C355.12 203.1 355.236 203.24 355.316 203.4C355.396 203.56 355.438 203.737 355.439 203.916C355.655 205.693 352.58 206.611 352.549 206.616L352.736 207.312Z" fill="#F77F72"/>
<path d="M336.721 206.718L337.072 206.106C336.522 205.585 336.053 204.984 335.682 204.323C335.698 204.026 335.776 203.735 335.909 203.469C336.042 203.203 336.229 202.967 336.457 202.776L336.036 202.205C335.718 202.468 335.46 202.796 335.281 203.168C335.102 203.54 335.006 203.946 335 204.359C335.075 204.862 335.271 205.34 335.57 205.75C335.87 206.161 336.265 206.493 336.721 206.718V206.718Z" fill="#F77F72"/>
<path d="M347.044 196.861C345.763 196.667 344.452 196.868 343.288 197.437C343.207 197.477 343.117 197.49 343.028 197.476C342.939 197.462 342.857 197.421 342.793 197.358C342.728 197.296 342.685 197.215 342.669 197.126C342.652 197.038 342.664 196.947 342.701 196.865C342.885 196.455 343.163 196.094 343.512 195.81C343.86 195.526 344.27 195.327 344.709 195.229C345.2 195.104 345.717 195.123 346.198 195.282C346.679 195.442 347.104 195.736 347.423 196.129C347.483 196.196 347.521 196.279 347.532 196.368C347.543 196.456 347.527 196.546 347.486 196.626C347.445 196.705 347.38 196.77 347.302 196.812C347.223 196.854 347.133 196.871 347.044 196.861V196.861Z" fill="#263238"/>
<path d="M357.129 195.231C356.215 195.154 355.294 195.273 354.429 195.58C354.295 195.63 354.147 195.635 354.01 195.593C353.873 195.551 353.753 195.465 353.67 195.348C353.587 195.23 353.545 195.089 353.551 194.945C353.557 194.802 353.611 194.664 353.703 194.555C354.117 194.053 354.685 193.701 355.318 193.555C355.707 193.448 356.116 193.441 356.509 193.532C356.902 193.624 357.265 193.811 357.567 194.079C357.672 194.165 357.747 194.283 357.781 194.414C357.816 194.545 357.809 194.684 357.76 194.811C357.712 194.938 357.625 195.047 357.512 195.122C357.399 195.197 357.265 195.235 357.129 195.231V195.231Z" fill="#263238"/>
<path d="M359.429 200.561L359.371 200.667C359.271 200.849 359.104 200.984 358.906 201.045C358.861 201.071 358.812 201.088 358.76 201.094L356.56 201.433C356.352 201.11 356.216 200.746 356.16 200.367C356.029 199.817 356.116 199.238 356.403 198.751C356.691 198.265 357.156 197.909 357.701 197.76C357.941 197.725 358.186 197.745 358.418 197.818C358.877 198.218 359.228 198.728 359.436 199.301C359.475 199.388 359.494 199.475 359.523 199.543C359.584 199.709 359.607 199.886 359.591 200.062C359.574 200.238 359.519 200.409 359.429 200.561Z" fill="#263238"/>
<path d="M348.894 202.149L348.807 202.266C348.735 202.381 348.639 202.479 348.525 202.553C348.411 202.626 348.282 202.674 348.148 202.692L345.889 203.032C345.685 202.732 345.553 202.39 345.502 202.032C345.385 201.458 345.497 200.862 345.815 200.371C346.133 199.879 346.631 199.533 347.202 199.404C347.401 199.374 347.604 199.377 347.802 199.415C348.303 199.797 348.694 200.305 348.936 200.888C348.97 200.963 348.999 201.041 349.023 201.121C349.088 201.289 349.11 201.472 349.087 201.651C349.065 201.831 348.999 202.002 348.894 202.149V202.149Z" fill="#263238"/>
<path d="M355.025 209.86C355.039 209.943 355.041 210.028 355.032 210.112C354.791 211.066 354.236 211.911 353.456 212.512C353.424 212.532 353.393 212.552 353.365 212.567C352.717 212.871 352.001 213.004 351.287 212.953C350.572 212.902 349.883 212.669 349.284 212.276C348.86 211.933 348.52 211.496 348.293 211.001C348.006 210.395 347.889 209.722 347.956 209.055C347.964 208.978 347.972 208.896 347.986 208.818C347.994 208.771 348.003 208.729 348.011 208.682C348.013 208.645 348.023 208.609 348.041 208.577C348.058 208.544 348.082 208.516 348.111 208.494C348.167 208.469 348.229 208.463 348.288 208.478C350.314 208.765 352.418 208.908 354.422 209.315C354.569 209.326 354.707 209.386 354.817 209.484C354.926 209.583 354.999 209.715 355.025 209.86V209.86Z" fill="#571E2D"/>
<path d="M353.456 212.514C353.424 212.534 353.393 212.554 353.365 212.569C352.717 212.874 352.001 213.007 351.287 212.956C350.572 212.905 349.883 212.672 349.284 212.278C348.86 211.935 348.52 211.499 348.293 211.003C348.574 210.757 348.912 210.585 349.276 210.503C349.641 210.421 350.02 210.433 350.379 210.536C350.695 210.64 350.98 210.823 351.205 211.068C351.431 211.313 351.59 211.612 351.667 211.936C351.704 211.759 351.697 211.575 351.648 211.401C351.598 211.227 351.507 211.067 351.382 210.936C351.382 210.936 352.841 210.638 353.456 212.514Z" fill="#A34961"/>
<path d="M355.025 209.859C354.293 210.036 353.541 210.119 352.788 210.106C351.102 210.109 349.446 209.665 347.988 208.819C347.996 208.772 348.005 208.731 348.013 208.684C348.015 208.647 348.025 208.611 348.043 208.579C348.06 208.546 348.084 208.518 348.113 208.495C348.169 208.471 348.231 208.465 348.29 208.479C350.316 208.766 352.42 208.909 354.424 209.316C354.57 209.328 354.708 209.388 354.817 209.486C354.925 209.584 354.999 209.715 355.025 209.859V209.859Z" fill="white"/>
<path d="M336.644 222.146C336.827 222.904 337.22 223.594 337.779 224.137C338.338 224.68 339.04 225.054 339.802 225.215L340.773 227.448C341.04 228.205 341.11 229.017 340.978 229.809C340.845 230.6 340.514 231.345 340.015 231.974C339.414 232.837 338.687 233.604 337.858 234.25C337.858 234.25 340.228 240.879 350.424 239.179C360.62 237.479 361.55 229.938 361.55 229.938C361.236 229.606 360.95 229.28 360.703 228.966C360.68 228.946 360.66 228.922 360.644 228.895C356.97 224.295 359.388 221.531 359.388 221.531L360.839 220.431L360.439 218.713C358.866 216.138 336.123 219.569 336.644 222.146Z" fill="#185287"/>
<path d="M291.008 277.059C291.043 277.545 291.12 278.027 291.239 278.499C291.619 280.062 292.507 281.453 293.764 282.456C295.021 283.459 296.575 284.015 298.183 284.038H298.195C306.027 284.038 318.983 282.806 327.68 275.625L332.846 262.313L333.913 259.558C333.149 261.816 331.3 269.215 337.633 274.903C337.633 274.903 341.306 283.665 336.407 288.403C343.931 287.41 351.581 288.667 358.392 292.016C360.338 293.047 362.492 293.622 364.692 293.699C372.139 293.888 376.892 287.549 376.892 287.549C378.012 283.876 373.853 281.21 373.853 281.21L373.847 281.246C373.701 280.547 373.606 279.838 373.563 279.125C373.112 271.263 372.419 255.777 373.403 247.856L397.446 202.138L405.146 173.476C405.92 170.757 405.654 167.847 404.398 165.314C403.143 162.781 400.989 160.807 398.356 159.776C398.056 159.669 397.74 159.576 397.42 159.492L397.136 159.42C391.626 158.129 385.921 162.098 384.552 167.792L377.8 195.812L361.55 228.864C361.55 228.864 361.337 228.87 360.94 228.876H360.934L360.644 228.894C360.134 228.906 359.411 228.941 358.529 228.989C353.718 229.275 348.932 229.887 344.203 230.819C342.782 231.105 341.382 231.491 340.015 231.974C331.253 235.026 326.264 241.085 322.482 251.074L317.502 263.734C317.502 263.734 303.202 265.334 294.835 269.925C293.587 270.629 292.564 271.674 291.886 272.937C291.209 274.2 290.904 275.63 291.008 277.059V277.059Z" fill="#185287"/>
<g style="mix-blend-mode:multiply" opacity="0.32">
<path d="M356.134 284.417C363.134 286.866 367.066 279.664 368.041 275.433C368.867 262.492 368.197 248.35 368.197 248.35C368.197 248.35 382.226 229.75 392.155 201.298C402.084 172.846 398.631 164.098 398.631 164.098L398.352 159.779C400.985 160.81 403.139 162.784 404.394 165.317C405.65 167.85 405.916 170.76 405.142 173.479L397.442 202.141L373.4 247.852C372.416 255.773 373.109 271.259 373.56 279.121C373.592 279.709 373.662 280.295 373.767 280.874C373.208 282.339 372.289 283.638 371.095 284.654C369.82 285.77 368.319 286.598 366.695 287.083C366.695 287.083 363.201 289.324 357.046 286.663C350.891 284.002 341 284.916 341 284.916C345.804 282.861 351.205 282.683 356.134 284.417V284.417Z" fill="black"/>
</g>
<g style="mix-blend-mode:multiply" opacity="0.32">
<path d="M349.044 224.077C349.044 224.077 355.199 224.611 356.793 227.425C357.157 228.144 357.776 228.702 358.529 228.989C359.237 229.221 360.001 229.213 360.703 228.965C360.782 228.94 360.859 228.91 360.934 228.876L360.644 228.894C356.97 224.294 359.388 221.53 359.388 221.53C359.388 221.53 356.111 223.088 349.044 224.077Z" fill="black"/>
</g>
<g style="mix-blend-mode:multiply" opacity="0.32">
<path d="M291.239 278.499C291.619 280.062 292.507 281.453 293.764 282.456C295.021 283.459 296.575 284.015 298.183 284.038H298.195C306.027 284.038 318.983 282.806 327.68 275.625L332.846 262.313C333.2 261.136 333.643 259.987 334.173 258.877L334.316 254.404L324.392 273.67C312.656 282.764 296.8 279.903 291.239 278.499Z" fill="black"/>
</g>
<path d="M388.948 161.282C391.86 163.716 395.782 164.301 398.789 164.322C400.307 164.335 401.824 164.203 403.317 163.929L403.417 159.709C403.432 159.041 403.211 158.389 402.793 157.868C402.375 157.348 401.787 156.991 401.132 156.861L399.208 156.489L393.256 155.32C392.546 155.18 391.809 155.317 391.195 155.703C390.582 156.088 390.139 156.692 389.956 157.393L388.948 161.282Z" fill="#185287"/>
<path d="M339.208 199.883L339.543 203.572L341.187 204.907L342 193.385C342 193.385 348.49 195.994 354.938 190.485L354.169 193.028C354.169 193.028 359.627 192.099 360.411 189.658C361.195 187.217 347.379 185.504 346.973 185.565C343.469 187.734 340.077 190.079 336.809 192.589C336.751 192.911 339.208 199.883 339.208 199.883Z" fill="#263238"/>
<path d="M288.879 272.695L277 276.432L267.818 281.778L263.29 284.915C263.172 284.997 263.076 285.107 263.01 285.234C262.944 285.362 262.91 285.503 262.911 285.647C262.913 285.791 262.949 285.932 263.018 286.058C263.086 286.184 263.184 286.292 263.304 286.371L264.385 287.091C264.674 287.283 265.004 287.403 265.349 287.44C265.694 287.477 266.042 287.43 266.365 287.304L278.051 282.747L282.335 282.626L277.813 287.712C277.117 288.497 276.361 289.226 275.551 289.892C275.315 289.892 277.456 291.224 277.456 291.224L285.667 286.743L291.849 281.96L288.879 272.695Z" fill="#F7A9A0"/>
<path d="M293.364 270.996L288.307 272.563L290.575 283.449H295.39L293.364 270.996Z" fill="#185287"/>
<path d="M376.943 285.224L376.323 285.274C367.493 271.164 376.943 285.224 376.943 285.224Z" fill="#37474F"/>
<path d="M402.276 431.249C400.406 436.149 396.623 435.404 393.693 435.064C392.706 434.964 391.733 434.753 390.793 434.434L362.433 368.834L352.803 321.224L332.313 363.904C330.013 403.374 317.763 431.704 317.763 431.704C316.294 431.924 314.807 432.005 313.323 431.944C308.773 431.724 306.533 430.064 306.533 430.064L314.553 353.344C321.513 319.124 336.403 288.394 336.403 288.394L376.323 285.274C376.596 285.656 376.847 286.053 377.073 286.464C386.173 304.742 381.963 358.404 381.963 358.404C383.347 364.429 385.275 370.315 387.724 375.99C391.474 384.28 402.276 431.249 402.276 431.249Z" fill="#37474F"/>
<path d="M393.693 435.065C392.706 434.964 391.733 434.753 390.793 434.435L362.433 368.835L352.803 321.225L332.313 363.905C330.013 403.375 317.763 431.705 317.763 431.705C316.294 431.925 314.807 432.005 313.323 431.945C317.903 423.875 330.413 398.125 328.093 360.995C328.093 360.995 354.333 318.545 349.563 303.145C349.563 303.145 356.823 311.325 361.103 339.955C365.383 368.585 366.183 368.895 366.183 368.895L393.693 435.065Z" fill="#1C2429"/>
<path d="M309.17 428.905C308.757 429.18 301.95 434.433 301.95 434.433C301.95 434.433 286.618 434.955 285.38 441.006C284.142 447.057 285.38 445.544 285.38 445.544L318.521 445.712C318.521 445.712 319.071 437.874 319.071 437.312C319.071 436.75 316.046 428.912 316.046 428.912L309.17 428.905Z" fill="#1C2429"/>
<path d="M394.944 430.059C394.531 430.334 387.724 435.588 387.724 435.588C387.724 435.588 372.392 436.11 371.154 442.161C369.916 448.212 371.154 446.699 371.154 446.699L404.295 446.867C404.295 446.867 404.845 439.028 404.845 438.467C404.845 437.906 401.82 430.067 401.82 430.067L394.944 430.059Z" fill="#1C2429"/>
<path d="M630.919 146.9L627.499 139.528V123.228C627.499 123.228 635.453 118.795 639.452 122.185L640.262 133.631L642.568 131.331L643.831 129.118C644.475 129.445 645.164 129.677 645.874 129.808C646.291 129.736 645.195 135.624 645.195 135.624L642.702 140.236L640.526 147.356L630.919 146.9Z" fill="#FFCBC4"/>
<path d="M631.172 150.873L630.42 145.92L641.944 143.829L643.047 148.945L631.172 150.873Z" fill="white"/>
<path d="M675.77 208.488L649.834 187.872L643.073 146.662C643.073 146.662 631.432 149.507 630.52 149.507C629.608 149.507 635.237 194.707 635.237 194.707L663.971 227.285L675.77 208.488Z" fill="#03658C"/>
<path d="M639.017 435.732C639.017 435.732 623.106 436.111 620.264 439.52C619.423 440.577 618.806 441.793 618.448 443.095C618.09 444.397 617.999 445.758 618.181 447.097H650.572L650 434.974L639.017 435.732Z" fill="#1F272B"/>
<path d="M680.5 436.11L675.2 440.466L674.442 451.266H695.279C695.279 451.266 697.362 443.689 691.49 439.711L689.596 436.68L680.5 436.11Z" fill="#1F272B"/>
<path d="M695.541 294.674L692.122 435.674C687.544 438.567 683.656 438.181 681.149 437.301C680.056 436.943 679.032 436.398 678.125 435.691L669.356 322.058L651.791 435.687C650.072 437.063 647.958 437.852 645.758 437.939C642.666 437.976 639.619 437.199 636.923 435.687L650.468 289.93L695.541 294.674Z" fill="#324047"/>
<path d="M681.149 437.296C680.056 436.938 679.033 436.394 678.125 435.686L669.313 321.512L651.791 435.686C650.072 437.063 647.958 437.852 645.758 437.938C647.723 427.524 663.18 325.285 662.202 314.559C662.202 314.559 658.766 311.115 659.794 303.899C663.205 308.031 667.883 310.921 673.104 312.124L681.149 437.296Z" fill="#1F272B"/>
<path d="M703.037 212.188L699.971 243.593L699.724 246.093L699.396 249.478L698.516 280.086L698.237 289.826L698.163 292.398L698.056 296.121C698.056 296.121 697.176 296.302 695.631 296.565C694.801 296.705 693.782 296.865 692.598 297.05C686.073 298.02 674.698 299.277 664.144 298.324C663.856 298.299 663.577 298.266 663.289 298.242C656.846 297.584 650.764 296.064 646.375 293.105C646.375 293.105 648.331 286.899 650.468 278.505C650.768 277.37 651.052 276.187 651.339 274.979C652.943 268.539 654.216 262.021 655.153 255.451C658.769 228.296 663.175 211.791 663.175 211.791C663.175 211.791 665.147 210.797 667.999 209.491H668.007C668.796 209.129 669.651 208.751 670.547 208.365C674.446 206.608 678.492 205.194 682.637 204.141C682.695 204.133 682.744 204.116 682.801 204.107C684.781 203.786 686.809 203.938 688.719 204.551C690.407 205.036 692.049 205.669 693.626 206.442C694.941 207.066 696.206 207.748 697.357 208.422C699.321 209.567 701.218 210.824 703.037 212.188V212.188Z" fill="#03658C"/>
<path d="M688.875 225.157L691.366 229.998L667.654 252.929L660.791 231.091L665.164 224.22L661.572 221.42L668 209.484H668.008C668.797 209.122 669.652 208.744 670.548 208.358C674.447 206.6 678.493 205.187 682.638 204.133C684.671 204.156 686.702 204.293 688.72 204.544C690.408 205.028 692.05 205.661 693.627 206.435C694.942 207.059 696.207 207.741 697.358 208.415L698.238 217.982L688.875 225.157Z" fill="#00315C"/>
<path d="M693.626 206.438C692.015 216.629 683.319 229.196 676.555 237.678C671.977 243.439 668.279 247.319 668.279 247.319C667.624 244.12 667.263 240.868 667.202 237.604C666.856 225.504 669.519 212.766 670.547 208.361C674.446 206.603 678.492 205.189 682.637 204.136C682.695 204.128 682.744 204.112 682.801 204.103C684.781 203.781 686.809 203.933 688.719 204.547C690.407 205.031 692.049 205.664 693.626 206.438Z" fill="#E3E3E3"/>
<path d="M664.144 298.323C663.856 298.298 663.577 298.265 663.289 298.241C661.848 290.604 661.291 282.827 661.629 275.063C661.995 267.102 664.09 259.317 667.769 252.247L668.476 252.675C664.861 259.624 662.805 267.279 662.451 275.104C662.106 282.883 662.675 290.676 664.144 298.323V298.323Z" fill="#00315C"/>
<path d="M658.087 277.981L657.545 281.433L650.468 278.499C650.768 277.364 651.052 276.181 651.339 274.973C652.736 275.622 658.087 277.981 658.087 277.981Z" fill="#00315C"/>
<path d="M679.262 278.085C679.262 278.085 691.038 276.896 693.199 275.816V280.354C693.199 280.354 682.719 283.163 679.699 281.975L679.807 278.409" fill="#00315C"/>
<path d="M675.655 202.524L670.166 208.379L669.312 220.821L677.241 214.721L684.925 221.673L693.952 206.548L689.072 201.548C689.072 201.548 678.339 200.448 675.172 202.402" fill="white"/>
<path d="M677.241 214.722L673.947 217.771L675.411 221.918L680.534 217.649L677.607 214.722H677.241Z" fill="#03658C"/>
<path d="M677 219.354C677 219.354 676.991 219.822 676.967 220.62C676.885 224.02 676.655 233.4 676.556 237.674C671.978 243.435 668.28 247.315 668.28 247.315C667.625 244.117 667.264 240.865 667.203 237.6L674.937 220.562L675.537 219.231L677 219.354Z" fill="#03658C"/>
<path d="M690.136 195.308C690.136 195.308 700.643 195.057 702.794 184.439C704.945 173.821 699.794 172.268 699.794 172.268C699.794 172.268 703.966 163.59 688.105 158.506C672.244 153.422 664.862 166.67 673.162 171.753C675.516 173.246 678.145 174.251 680.895 174.708C683.644 175.166 686.457 175.067 689.168 174.417C689.168 174.417 688.824 177.567 690.798 178.747L690.136 195.308Z" fill="#949494"/>
<path d="M699.725 186.221C698.481 192.35 691.77 191.314 691.77 191.314L690.033 202.169C690.033 202.169 688.495 209.709 682.661 209.813C673.814 209.964 674.674 203.325 674.674 203.325L674.93 201.213L675.368 197.666C674.759 197.43 674.182 197.117 673.654 196.734C671.975 195.428 670.755 193.621 670.171 191.577C669.38 189.242 669.256 186.733 669.813 184.331C670.793 181.167 673.713 169.562 673.713 169.562C679.221 172.224 686.051 171.014 686.051 171.014C686.385 173.293 689.486 174.377 689.486 174.377C689.542 179.271 692.61 180.482 692.61 180.482C692.61 180.482 700.968 180.084 699.725 186.221Z" fill="#FFCBC4"/>
<path d="M682.215 198.403C682.215 198.403 681.26 201.503 674.931 201.213L675.365 197.665L675.671 197.842C676.666 198.377 677.76 198.702 678.885 198.799C680.01 198.895 681.144 198.761 682.215 198.403V198.403Z" fill="#F79085"/>
<path d="M682.392 182.364L682.467 182.464C682.568 182.639 682.721 182.778 682.904 182.864C682.977 182.895 683.053 182.919 683.131 182.934L687.431 183.804C687.636 183.838 687.847 183.819 688.043 183.748C688.235 183.662 688.399 183.523 688.515 183.348C688.632 183.172 688.696 182.967 688.701 182.757C688.715 181.414 687.849 179.157 685.528 179.193C685.452 179.201 685.375 179.204 685.298 179.201C684.69 179.229 684.102 179.421 683.596 179.758C683.089 180.094 682.684 180.563 682.423 181.112C682.38 181.186 682.343 181.263 682.31 181.342C682.237 181.506 682.207 181.685 682.221 181.863C682.236 182.042 682.294 182.214 682.392 182.364V182.364Z" fill="white"/>
<path d="M671.723 180.202L671.793 180.302C671.852 180.413 671.934 180.51 672.034 180.587C672.133 180.663 672.247 180.719 672.369 180.749L676.191 181.523C676.375 181.555 676.564 181.531 676.734 181.453C676.915 181.355 677.067 181.211 677.174 181.035C677.282 180.86 677.341 180.659 677.346 180.453C677.388 179.115 676.662 176.889 674.595 176.975C674.516 176.975 674.447 176.993 674.388 176.987C673.817 177.051 673.273 177.267 672.814 177.613C672.355 177.959 671.997 178.421 671.778 178.952C671.736 179.025 671.702 179.103 671.678 179.184C671.608 179.346 671.576 179.522 671.584 179.698C671.592 179.874 671.639 180.047 671.723 180.202V180.202Z" fill="white"/>
<path d="M678.217 187.207C678.066 187.156 674.526 185.924 674.939 183.595C674.964 183.306 675.059 183.027 675.216 182.783C675.372 182.539 675.586 182.337 675.839 182.195C676.344 181.99 676.909 181.99 677.414 182.195L678.576 178.307L679.245 178.507L677.845 183.184L677.47 182.984C677.27 182.869 677.049 182.796 676.821 182.77C676.592 182.743 676.361 182.763 676.14 182.829C675.99 182.924 675.865 183.054 675.775 183.207C675.685 183.361 675.633 183.533 675.623 183.711C675.314 185.444 678.405 186.521 678.437 186.531L678.217 187.207Z" fill="#F79085"/>
<path d="M679.624 192.438C678.835 192.275 678.065 192.033 677.324 191.717L677.608 191.07C677.158 190.887 682.218 193.193 683.525 190.795L684.135 191.133C683.244 192.772 681.233 192.768 679.624 192.438Z" fill="#F79085"/>
<path d="M694.576 187.532L694.248 186.91C694.831 186.432 695.337 185.867 695.748 185.236C695.744 184.94 695.679 184.648 695.556 184.379C695.433 184.11 695.256 183.869 695.035 183.672L695.492 183.135C695.8 183.405 696.045 183.741 696.21 184.117C696.374 184.493 696.453 184.901 696.442 185.311C696.337 185.806 696.112 186.267 695.786 186.654C695.461 187.042 695.045 187.343 694.576 187.532Z" fill="#F79085"/>
<path d="M683.535 177.203C683.535 177.203 687.072 176.386 689.257 178.522C689.239 177.843 689.009 177.187 688.6 176.646C688.19 176.105 687.621 175.705 686.973 175.504C684.692 174.818 683.535 177.203 683.535 177.203Z" fill="#949494"/>
<path d="M672.321 175C672.321 175 675.858 174.183 678.043 176.319C678.025 175.64 677.795 174.984 677.385 174.443C676.976 173.902 676.407 173.502 675.759 173.301C673.478 172.615 672.321 175 672.321 175Z" fill="#949494"/>
<path d="M682.823 181.658C682.74 182.058 682.768 182.472 682.904 182.858C682.977 182.889 683.053 182.913 683.131 182.928L686 183.509C686.292 183.208 686.49 182.828 686.57 182.417C686.647 182.161 686.67 181.892 686.638 181.627C686.605 181.361 686.517 181.106 686.38 180.877C686.243 180.647 686.06 180.449 685.842 180.294C685.623 180.14 685.375 180.033 685.114 179.98C684.852 179.927 684.582 179.929 684.321 179.986C684.06 180.043 683.813 180.154 683.598 180.312C683.382 180.47 683.202 180.671 683.068 180.903C682.935 181.134 682.851 181.391 682.823 181.657V181.658Z" fill="#3F5B73"/>
<path d="M671.971 179.567C671.906 179.89 671.911 180.223 671.984 180.544C672.09 180.646 672.224 180.716 672.369 180.744L675.244 181.327C675.488 181.041 675.653 180.696 675.724 180.327C675.801 180.071 675.824 179.802 675.791 179.536C675.759 179.27 675.671 179.015 675.533 178.785C675.396 178.555 675.212 178.357 674.994 178.202C674.776 178.047 674.527 177.94 674.265 177.887C674.003 177.834 673.732 177.836 673.471 177.893C673.21 177.951 672.963 178.062 672.747 178.22C672.531 178.378 672.351 178.579 672.217 178.811C672.083 179.043 671.999 179.3 671.971 179.566V179.567Z" fill="#3F5B73"/>
<path d="M693.478 179.266L691.975 185.333L689.492 187.231L690.539 177.562L693.478 179.266Z" fill="#949494"/>
<path d="M679.157 188.196C678.963 188.23 678.964 190.013 678.964 190.013L684.354 190.084C684.354 190.084 682.049 187.691 679.157 188.196Z" fill="#949494"/>
<path d="M677.255 187.881C677.41 187.981 676.736 189.631 676.736 189.631L672.044 187.659C672.044 187.659 674.943 186.321 677.255 187.881Z" fill="#949494"/>
<path d="M673.2 172.068C678.459 173.763 683.969 174.544 689.492 174.38L688.057 168.53L675.7 166.396L672.349 166.922C672.349 166.922 671.616 167.793 671.849 168.489L673.2 172.068Z" fill="#949494"/>
<path d="M718.182 260.184L716.042 263.074C715.366 263.986 714.449 264.691 713.395 265.112C712.34 265.532 711.19 265.651 710.072 265.454L677.312 259.684L673.692 259.044L676.732 247.604L680.302 247.724L702.502 248.484L698.102 234.484L702.502 211.784L709.192 217.404L719.172 254.974C719.41 255.861 719.444 256.79 719.273 257.692C719.101 258.595 718.728 259.446 718.182 260.184V260.184Z" fill="#03658C"/>
<path d="M676.992 249.204C676.992 249.204 674.852 257.324 674.712 257.574C674.572 257.824 666.822 258.334 666.572 258.334C666.382 258.334 662.402 257.074 660.442 256.454C660.138 256.353 659.878 256.151 659.705 255.882C659.533 255.613 659.457 255.292 659.492 254.974L659.562 254.354L660.712 244.054C660.752 243.691 660.935 243.359 661.22 243.13C661.505 242.902 661.869 242.795 662.232 242.834L666.542 243.194C666.294 241.996 666.263 240.763 666.452 239.554C666.742 236.254 667.672 235.434 668.632 235.264C668.712 235.249 668.795 235.252 668.874 235.272C668.953 235.292 669.027 235.329 669.091 235.38C669.155 235.432 669.206 235.496 669.243 235.569C669.279 235.643 669.299 235.723 669.302 235.804C669.593 238.104 670.065 240.378 670.712 242.604L674.712 246.164L675.932 247.794L676.992 249.204Z" fill="#FFCBC4"/>
<path d="M676.992 249.204C676.992 249.204 674.852 257.324 674.712 257.574C674.572 257.824 666.822 258.334 666.572 258.334C666.382 258.334 662.402 257.074 660.442 256.454C660.138 256.353 659.878 256.151 659.705 255.882C659.533 255.612 659.457 255.292 659.492 254.974L659.562 254.354C662.222 255.684 666.422 257.374 669.462 256.674C672.862 255.884 674.982 250.864 675.932 247.794L676.992 249.204Z" fill="#FFB3A8"/>
<path d="M680.302 247.724L677.312 259.685L673.692 259.044L676.732 247.604L680.302 247.724Z" fill="white"/>
<path d="M549.562 223.884L536.802 221.624C535.66 221.419 534.594 220.911 533.716 220.153C532.838 219.394 532.181 218.414 531.812 217.314C531.112 215.204 530.162 212.334 529.092 209.114C525.142 197.234 518.822 175.774 518.822 175.614C513.522 171.254 515.092 158.414 515.092 158.414L512.572 151.034C512.461 150.702 512.486 150.34 512.642 150.027C512.797 149.714 513.071 149.475 513.402 149.364L521.002 146.794C521.318 146.689 521.663 146.707 521.965 146.847C522.268 146.986 522.507 147.235 522.633 147.544L525.673 154.914L526.663 164.094L528.742 161.444L528.583 155.394L531.023 154.644C531.023 154.644 532.193 162.444 532.193 163.474C532.193 164.504 528.823 172.134 528.823 172.134L540.343 203.664C540.733 204.634 541.353 205.494 542.149 206.172C542.945 206.849 543.893 207.324 544.913 207.554C546.663 207.944 548.543 208.394 549.013 208.574L549.413 219.584L549.562 223.884Z" fill="#A6716B"/>
<path d="M549.562 223.883L536.802 221.623C535.66 221.419 534.594 220.911 533.716 220.152C532.838 219.394 532.181 218.413 531.812 217.313C531.112 215.203 530.162 212.333 529.092 209.113C531.002 212.863 533.447 218.066 535.642 217.733C537.742 217.413 543.759 218.233 549.412 219.583L549.562 223.883Z" fill="#965E58"/>
<path d="M564.142 225.204H543.2C542.1 216.414 547.06 207.134 547.06 207.134L549.56 207.404L568.56 209.454L569.32 209.504C570.082 209.554 564.142 225.204 564.142 225.204Z" fill="#F26835"/>
<path d="M606.732 179.689C606.674 179.93 606.579 180.16 606.45 180.372C605.927 181.32 605.404 182.273 604.881 183.231C604.701 183.623 604.442 183.973 604.12 184.259C603.849 184.462 603.523 184.579 603.185 184.597C602.847 184.615 602.511 184.532 602.22 184.359C601.999 184.635 601.719 184.86 601.402 185.016C601.085 185.173 600.737 185.259 600.383 185.267C600.234 185.273 600.085 185.264 599.938 185.241C599.518 185.171 599.125 184.989 598.8 184.714C598.475 184.439 598.23 184.082 598.091 183.679C598.065 183.932 597.955 184.168 597.777 184.35C597.6 184.531 597.366 184.647 597.114 184.679C596.602 184.741 596.083 184.629 595.642 184.362C594.935 183.991 594.335 183.446 593.898 182.779C593.46 182.112 593.2 181.344 593.142 180.548C592.699 180.603 592.252 180.5 591.877 180.258C591.503 180.015 591.226 179.649 591.094 179.223C590.88 178.373 590.885 177.482 591.108 176.634L592.23 172.893C592.034 172.503 591.936 172.07 591.945 171.634C591.954 171.197 592.07 170.769 592.282 170.387C592.384 170.201 592.509 170.03 592.655 169.876C593.049 169.483 593.546 169.212 594.09 169.093C594.633 168.975 595.199 169.015 595.72 169.209C596.005 168.642 596.459 168.177 597.02 167.88C597.306 167.743 597.632 167.714 597.938 167.798C598.244 167.882 598.509 168.075 598.684 168.339C598.812 167.685 599.698 167.439 600.365 167.586C601.032 167.733 601.644 168.132 602.335 168.219C602.587 168.224 602.835 168.271 603.071 168.359C603.401 168.518 603.551 168.883 603.748 169.182C604.105 169.758 604.662 170.201 605.018 170.777C605.226 171.044 605.336 171.375 605.329 171.714C605.322 172.052 605.199 172.378 604.98 172.637C605.291 172.733 605.574 172.901 605.807 173.128C606.04 173.355 606.215 173.635 606.319 173.943C606.422 174.252 606.45 174.58 606.401 174.902C606.352 175.223 606.227 175.528 606.037 175.792C606.434 176.133 606.684 176.614 606.732 177.135C606.781 177.656 606.625 178.176 606.298 178.584C606.461 178.714 606.588 178.884 606.664 179.078C606.74 179.272 606.764 179.483 606.732 179.689Z" fill="#263238"/>
<path d="M600.384 185.264C600.235 185.27 600.086 185.261 599.939 185.238C599.519 185.168 599.126 184.986 598.801 184.711C598.476 184.436 598.231 184.078 598.092 183.676C598.066 183.928 597.956 184.165 597.778 184.346C597.601 184.528 597.367 184.644 597.115 184.676C596.603 184.738 596.084 184.626 595.643 184.359C594.936 183.988 594.336 183.443 593.899 182.776C593.461 182.109 593.201 181.341 593.143 180.545C592.7 180.599 592.253 180.497 591.878 180.254C591.504 180.012 591.227 179.646 591.095 179.22C590.881 178.369 590.886 177.479 591.109 176.631L592.231 172.89C592.035 172.499 591.937 172.067 591.946 171.63C591.955 171.194 592.071 170.766 592.283 170.384C592.924 170.777 593.441 171.343 593.774 172.017C594.107 172.691 594.242 173.445 594.165 174.193C594.39 174.053 594.641 173.96 594.903 173.919C595.165 173.878 595.432 173.89 595.689 173.953C595.946 174.017 596.188 174.131 596.401 174.29C596.613 174.448 596.792 174.647 596.926 174.876C597.442 175.841 597.647 176.942 597.514 178.028C599.694 178.268 600.867 181.454 599.385 183.101C599.927 183.705 600.275 184.459 600.384 185.264V185.264Z" fill="#182024"/>
<path d="M553.667 185.465C553.5 186.038 553.535 186.652 553.767 187.202C553.999 187.752 554.414 188.206 554.941 188.487C554.411 188.891 554.015 189.446 553.807 190.079C553.599 190.712 553.587 191.394 553.773 192.034C553.991 192.671 554.392 193.23 554.925 193.641C555.459 194.052 556.101 194.297 556.773 194.346C556.357 194.678 556.054 195.13 555.905 195.641C555.757 196.152 555.77 196.697 555.944 197.2C556.146 197.699 556.492 198.127 556.939 198.428C557.386 198.728 557.913 198.888 558.452 198.886C558.395 199.544 558.52 200.204 558.814 200.795C559.108 201.386 559.56 201.885 560.119 202.236C560.696 202.58 561.354 202.766 562.026 202.775C562.697 202.783 563.36 202.614 563.945 202.284C563.958 203.997 566.25 204.613 568.007 204.718L573.393 205.042C574.065 205.062 574.735 205.142 575.393 205.279C575.974 205.467 576.569 205.608 577.172 205.703C579.062 205.845 580.619 204.174 582.501 203.947C584.101 203.754 585.969 204.581 587.22 203.586C588.006 202.96 588.341 201.72 589.342 201.557C590.006 201.449 590.673 201.904 591.332 201.771C592.165 201.602 592.503 200.642 593.112 200.063C593.731 199.614 594.403 199.243 595.112 198.957C596.991 197.897 597.731 195.664 598.318 193.63C598.673 192.403 598.857 190.755 597.695 190.166C598.165 189.798 598.555 189.337 598.84 188.813C599.125 188.288 599.3 187.711 599.353 187.116C599.407 186.522 599.338 185.923 599.151 185.356C598.965 184.789 598.664 184.266 598.267 183.82C599.822 182.174 598.589 178.982 596.305 178.741C596.446 177.652 596.23 176.548 595.689 175.593C595.389 175.126 594.92 174.794 594.38 174.666C593.841 174.538 593.272 174.624 592.795 174.907C593.027 173.132 592.526 170.821 590.768 170.298C591.139 168.333 588.968 166.673 586.96 166.24C586.932 165.578 586.707 164.94 586.314 164.406C585.921 163.873 585.378 163.469 584.754 163.246C583.483 162.804 582.138 162.616 580.795 162.693L572.952 162.629C572.388 162.595 571.823 162.651 571.277 162.794C570.843 162.936 570.454 163.191 570.15 163.532C569.846 163.873 569.638 164.288 569.547 164.736C569.099 164.573 568.621 164.508 568.146 164.544C567.67 164.58 567.208 164.718 566.79 164.947C566.371 165.176 566.007 165.491 565.72 165.872C565.433 166.253 565.23 166.691 565.126 167.156C564.663 167.011 564.176 166.961 563.694 167.01C563.212 167.059 562.745 167.206 562.321 167.441C561.897 167.676 561.525 167.995 561.228 168.378C560.932 168.761 560.716 169.201 560.594 169.67C560.213 169.452 559.774 169.359 559.338 169.403C558.901 169.448 558.49 169.628 558.161 169.918C557.851 170.217 557.649 170.61 557.586 171.036C557.523 171.462 557.602 171.897 557.811 172.273C557.452 172.381 557.129 172.585 556.876 172.862C556.623 173.14 556.451 173.481 556.376 173.849C556.302 174.216 556.329 174.598 556.454 174.951C556.579 175.305 556.798 175.618 557.087 175.858C556.289 176.465 555.675 177.282 555.313 178.218C554.952 179.154 554.857 180.171 555.039 181.158C555.264 182.258 555.951 182.698 555.551 183.667C555.274 184.338 553.978 184.517 553.667 185.465Z" fill="#263238"/>
<path d="M573.314 392.296C572.639 397.478 572.209 404.068 571.944 410.669C571.344 424.969 571.493 439.289 571.493 439.289L563.232 438.847L562.937 441.327C562.937 441.327 548.079 443.627 544.578 440.313C541.077 436.999 541.605 437.181 541.605 437.181L545.505 435.653L558.985 434.111L555.296 380.15L554.742 372.118L573.232 368.375C574.245 376.315 574.272 384.349 573.314 392.296Z" fill="#A6716B"/>
<path d="M571.358 434.191C571.358 434.191 551.594 442.241 547.886 440.01C544.178 437.779 545.618 435.389 545.618 435.389C545.618 435.389 535.901 435.313 534.796 445.347C534.766 445.564 534.781 445.785 534.842 445.995C534.902 446.205 535.006 446.401 535.147 446.568C535.288 446.736 535.462 446.872 535.659 446.968C535.856 447.063 536.07 447.117 536.289 447.124L573.022 447.413C573.022 447.413 576.3 437.237 571.358 434.191Z" fill="#263238"/>
<path d="M605.862 430.403L606.674 432.766C606.674 432.766 594.28 441.116 589.666 439.602C585.052 438.088 585.602 438.02 585.602 438.02L588.443 435.005L599.943 427.92L575.127 384.65L568.883 373.77L583.916 362.591C588.316 369.311 591.871 376.548 594.5 384.138C595.74 387.812 597.432 392.125 599.314 396.584C605.454 411.19 613.514 427.317 613.514 427.317L605.862 430.403Z" fill="#A6716B"/>
<path d="M611.146 422.775C611.146 422.775 596.846 438.375 592.515 437.93C588.184 437.485 588.437 434.716 588.437 434.716C588.437 434.716 579.637 438.746 583.044 448.268C583.112 448.477 583.223 448.67 583.37 448.834C583.516 448.998 583.695 449.13 583.895 449.221C584.095 449.313 584.311 449.362 584.531 449.366C584.751 449.369 584.969 449.327 585.172 449.242L618.457 434.006C618.457 434.006 616.944 423.437 611.146 422.775Z" fill="#263238"/>
<path d="M573.314 392.296C572.639 397.478 572.209 404.068 571.944 410.669C571.605 401.949 570.998 391.534 569.392 386.809C567.192 380.324 559.329 379.904 555.292 380.15L554.738 372.118L573.228 368.375C574.242 376.315 574.271 384.349 573.314 392.296V392.296Z" fill="#965E58"/>
<path d="M599.316 396.586C597.015 393.345 594.515 390.25 591.833 387.317C586.469 381.55 579.113 383.257 575.124 384.65L568.88 373.77L583.913 362.591C588.314 369.311 591.87 376.548 594.5 384.138C595.742 387.814 597.434 392.127 599.316 396.586Z" fill="#965E58"/>
<path d="M600.487 299.538C597.154 320.807 595.244 376.292 595.229 378.146C595.214 380 574.26 377.578 564.504 376.579C554.748 375.58 551.904 376.793 551.904 376.793C551.904 376.793 551.677 374.393 551.346 370.293C549.583 348.33 544.957 277.537 557.546 265.416L586.11 266.205L593.349 266.405C593.349 266.405 603.811 278.258 600.487 299.538Z" fill="#37474F"/>
<path d="M600.487 299.538C597.154 320.807 595.244 376.292 595.229 378.146C595.214 380 574.26 377.578 564.504 376.579C554.748 375.58 551.904 376.793 551.904 376.793C551.904 376.793 551.677 374.393 551.346 370.293C555.817 368.631 560.406 367.308 565.075 366.333C585.529 361.674 590.338 333.433 593.023 306.556C594.968 287.156 589.714 272.738 586.111 266.205L593.35 266.405C593.35 266.405 603.811 278.258 600.487 299.538Z" fill="#2C3940"/>
<path d="M593.347 266.4L584.035 266.14L557.544 265.411C557.544 265.411 558.744 254.321 558.78 250.011C557.178 248.694 555.67 247.266 554.267 245.737C553.136 244.5 552.292 243.029 551.796 241.427C551.301 239.826 551.166 238.135 551.401 236.475C551.956 232.558 552.976 229.181 558.052 222.34L562.172 214.903L562.531 214.259C563.354 212.769 564.555 211.522 566.012 210.641C566.794 210.161 567.655 209.825 568.556 209.649C571.346 209.06 574.167 208.622 577.005 208.339C579.92 208.072 583.946 208.996 587.641 210.149C589.22 210.649 590.741 211.177 592.078 211.686C595.103 212.826 597.255 213.81 597.255 213.81C597.255 213.81 607.1 225.037 608.049 240.637C608.104 241.53 608.127 242.445 608.119 243.368L593.303 243.251C593.303 243.251 593.271 243.459 593.203 243.838C593.171 244.024 593.131 244.254 593.09 244.522C592.4 248.761 590.468 262.397 593.347 266.4Z" fill="#F26835"/>
<g style="mix-blend-mode:multiply" opacity="0.61">
<path d="M584.036 266.138C586.814 260.928 589.236 252.857 587.52 247.648C584.898 239.748 590.554 231.465 590.554 231.465L591.797 243.408L593.097 244.52C592.403 248.761 590.47 262.39 593.352 266.399L584.036 266.138Z" fill="#ECD9CE"/>
</g>
<path d="M584.54 195.971L584.655 208.308C584.655 208.308 584.976 211.536 579.334 212.719C570.78 214.519 570.698 210.089 570.698 210.089L570.551 208.018L570.306 204.54C564.427 203.49 562.039 196.04 562.406 192.814C562.663 190.549 563.065 184.093 563.278 180.484L563.463 178.004C563.501 178.334 563.644 178.643 563.871 178.885C564.097 179.127 564.396 179.29 564.723 179.349C565.078 179.393 565.437 179.314 565.741 179.126C566.046 178.938 566.276 178.651 566.395 178.314C566.226 178.939 566.842 179.527 567.471 179.747C567.934 179.958 568.46 179.986 568.942 179.823C569.424 179.66 569.826 179.32 570.066 178.871C570.157 179.283 570.389 179.65 570.723 179.908C571.057 180.166 571.471 180.299 571.892 180.283C572.313 180.254 572.723 180.136 573.094 179.934C573.465 179.733 573.788 179.454 574.041 179.117C573.98 179.817 574.808 180.333 575.513 180.249C576.214 180.097 576.853 179.74 577.35 179.224C577.391 179.522 577.521 179.802 577.723 180.025C577.925 180.249 578.189 180.407 578.482 180.478C579.081 180.612 579.708 180.508 580.231 180.187C580.136 180.491 580.117 180.813 580.174 181.126C580.232 181.438 580.366 181.732 580.563 181.982C580.768 182.229 581.03 182.425 581.325 182.552C581.621 182.679 581.942 182.733 582.263 182.712C582.062 183.225 582.066 183.797 582.277 184.307C582.387 184.563 582.574 184.778 582.812 184.923C583.05 185.067 583.327 185.134 583.605 185.114C583.866 185.074 584.111 184.961 584.311 184.789C586.069 184.489 591.825 183.88 591.782 189.058C591.733 195.149 584.54 195.971 584.54 195.971Z" fill="#A6716B"/>
<path d="M577.063 203.961C577.063 203.961 576.719 207.102 570.526 208.005L570.279 204.528L570.609 204.641C571.675 204.968 572.796 205.076 573.905 204.959C575.014 204.842 576.088 204.503 577.063 203.961V203.961Z" fill="#965E58"/>
<path d="M580.282 187.693C580.109 187.795 579.913 187.851 579.712 187.853L577.742 187.843L576.832 187.833H576.372L575.472 187.823H575.382C575.245 187.822 575.11 187.792 574.984 187.737C574.859 187.682 574.746 187.603 574.652 187.503L574.542 187.393C574.419 187.274 574.329 187.124 574.282 186.959C574.234 186.794 574.231 186.62 574.272 186.453C574.292 186.373 574.312 186.293 574.342 186.203C574.423 185.883 574.558 185.578 574.742 185.303C574.756 185.272 574.773 185.242 574.792 185.213C574.815 185.174 574.842 185.138 574.872 185.103V185.093C574.903 185.043 574.94 184.996 574.982 184.953C575.434 184.396 576.061 184.009 576.762 183.853C576.841 183.825 576.921 183.802 577.002 183.783C577.035 183.775 577.068 183.772 577.102 183.773H577.132C577.205 183.762 577.278 183.756 577.352 183.753C577.472 183.743 577.592 183.733 577.702 183.733H577.782C578.52 183.828 579.208 184.159 579.743 184.676C580.278 185.193 580.632 185.869 580.752 186.603C580.786 186.811 580.76 187.024 580.677 187.217C580.593 187.41 580.456 187.576 580.282 187.693V187.693Z" fill="white"/>
<path d="M568.9 187.604C568.745 187.705 568.565 187.76 568.38 187.764L567.03 187.754H566.46L565.36 187.744L564.64 187.734H564.54C564.413 187.732 564.289 187.702 564.175 187.647C564.061 187.591 563.96 187.512 563.88 187.414L563.8 187.314C563.688 187.186 563.607 187.033 563.565 186.868C563.524 186.703 563.522 186.53 563.56 186.364C563.57 186.284 563.59 186.214 563.6 186.114C563.66 185.934 563.73 185.714 563.82 185.494V185.474C563.88 185.364 563.95 185.234 564.02 185.114C564.084 185.008 564.158 184.907 564.24 184.814C564.24 184.804 564.24 184.804 564.25 184.794C564.633 184.296 565.166 183.935 565.77 183.764C565.84 183.754 565.91 183.714 565.96 183.704C566.009 183.691 566.06 183.681 566.11 183.674C566.275 183.645 566.443 183.635 566.61 183.644C566.728 183.647 566.845 183.66 566.96 183.684H566.97C567.586 183.888 568.131 184.262 568.543 184.763C568.955 185.264 569.218 185.871 569.3 186.514C569.337 186.715 569.32 186.922 569.25 187.114C569.179 187.306 569.059 187.475 568.9 187.604V187.604Z" fill="white"/>
<path d="M571.416 192.823C571.26 192.802 567.594 192.282 567.556 189.976C567.528 189.695 567.569 189.411 567.677 189.15C567.784 188.888 567.953 188.657 568.17 188.476C568.623 188.186 569.17 188.082 569.698 188.185L570.098 184.247L570.785 184.316L570.308 189.053L569.908 188.93C569.693 188.858 569.465 188.829 569.238 188.846C569.011 188.863 568.79 188.926 568.588 189.03C568.461 189.149 568.365 189.296 568.307 189.459C568.248 189.623 568.23 189.798 568.253 189.97C568.28 191.686 571.481 192.142 571.514 192.146L571.416 192.823Z" fill="#69423D"/>
<path d="M587.105 191.585L586.67 191.051C587.147 190.487 587.533 189.852 587.815 189.169C587.754 188.886 587.635 188.618 587.465 188.383C587.295 188.148 587.078 187.951 586.828 187.805L587.17 187.205C587.519 187.405 587.819 187.68 588.049 188.009C588.279 188.339 588.434 188.715 588.502 189.111C588.492 189.607 588.359 190.092 588.115 190.524C587.871 190.956 587.524 191.32 587.105 191.585V191.585Z" fill="#69423D"/>
<path d="M574.692 182.26C574.692 182.26 577.969 180.821 580.492 182.46C580.344 181.81 579.996 181.222 579.496 180.781C578.997 180.339 578.371 180.065 577.708 179.997C575.366 179.763 574.692 182.26 574.692 182.26Z" fill="#263238"/>
<path d="M592.078 211.687C592.01 211.845 591.923 211.995 591.82 212.132C590.864 213.426 588.856 213.715 587.999 215.077C587.252 216.247 587.537 217.99 586.415 218.837C585.209 219.765 583.341 218.894 581.922 219.486C581.011 220.031 580.284 220.837 579.835 221.798C579.602 222.276 579.247 222.684 578.806 222.981C578.365 223.278 577.853 223.453 577.323 223.489C576.133 223.398 575.36 222.127 574.194 221.865C573.301 221.784 572.403 221.952 571.6 222.351C571.198 222.543 570.754 222.63 570.31 222.604C569.866 222.578 569.435 222.441 569.058 222.204C568.458 221.679 568.333 220.696 567.597 220.385C566.755 220.036 565.88 220.855 564.965 220.9C564.748 220.903 564.532 220.861 564.332 220.776C564.132 220.692 563.951 220.567 563.802 220.409C563.652 220.251 563.537 220.064 563.463 219.86C563.389 219.656 563.359 219.438 563.373 219.221C563.473 218.515 564.084 217.835 563.82 217.171C563.62 216.671 563.02 216.451 562.639 216.061C562.488 215.909 562.369 215.728 562.289 215.53C562.209 215.331 562.169 215.118 562.172 214.904L562.531 214.26C563.354 212.77 564.555 211.522 566.012 210.642C566.794 210.162 567.655 209.826 568.556 209.65C571.347 209.061 574.167 208.623 577.005 208.34C579.92 208.073 583.946 208.997 587.641 210.15C589.22 210.646 590.737 211.178 592.078 211.687Z" fill="white"/>
<path d="M563.4 182.238C563.4 182.238 566.678 180.798 569.2 182.438C569.052 181.787 568.704 181.2 568.205 180.758C567.705 180.316 567.08 180.041 566.416 179.974C564.072 179.738 563.4 182.238 563.4 182.238Z" fill="#263238"/>
<path d="M571.043 218.895L566.192 227.377C566.192 227.377 571.492 228.017 574.841 219.451L571.478 218.899" fill="white"/>
<path d="M587.642 209.959C585.925 214.077 581.527 221.129 572.434 220.02C565.283 219.149 565 213.048 566.013 210.463C566.793 209.975 567.655 209.632 568.557 209.452C571.347 208.85 574.168 208.404 577.007 208.116C579.922 207.844 583.948 208.785 587.642 209.959Z" fill="#A6716B"/>
<path d="M571.47 222.417C571.988 222.417 572.408 222.01 572.408 221.509C572.408 221.007 571.988 220.601 571.47 220.601C570.952 220.601 570.532 221.007 570.532 221.509C570.532 222.01 570.952 222.417 571.47 222.417Z" fill="#F26835"/>
<path d="M569.961 225.205C570.479 225.205 570.899 224.798 570.899 224.297C570.899 223.795 570.479 223.389 569.961 223.389C569.443 223.389 569.023 223.795 569.023 224.297C569.023 224.798 569.443 225.205 569.961 225.205Z" fill="#F26835"/>
<path d="M546.392 225.204H543.2C542.1 216.414 547.06 207.134 547.06 207.134L549.56 207.404C547.862 211.704 545.712 219.224 546.392 225.204Z" fill="white"/>
<path d="M607.032 256.174C607.114 257.643 606.718 259.099 605.902 260.324L605.522 260.884C604.817 261.941 603.829 262.78 602.672 263.305C601.514 263.83 600.232 264.02 598.972 263.854C597.942 263.714 596.762 263.554 595.472 263.374C583.672 261.774 562.432 258.814 562.172 258.234C561.812 257.444 562.172 248.934 562.172 248.934L594.212 251.294L593.742 246.224L593.462 243.244L593.432 242.954L593.352 242.004L594.492 241.884L606.162 240.644L607.032 256.174Z" fill="#A6716B"/>
<path d="M553.372 253.106C552.206 253.546 551.087 254.102 550.031 254.766L546.014 255.898C545.86 255.941 545.717 256.016 545.594 256.119C545.471 256.221 545.371 256.348 545.3 256.492C545.229 256.635 545.189 256.792 545.183 256.952C545.177 257.112 545.205 257.271 545.264 257.42V257.42C545.344 257.619 545.478 257.793 545.652 257.919C545.826 258.046 546.032 258.12 546.247 258.135L553.741 258.635C553.741 258.635 561.674 256.515 561.582 256.235C561.49 255.955 553.372 253.099 553.372 253.099" fill="#965E58"/>
<path d="M563.337 250.623C563.411 250.16 563.339 249.685 563.131 249.265C562.923 248.845 562.589 248.5 562.176 248.278C559.361 246.769 553.276 243.56 552.785 243.759C552.324 243.944 544.912 245.321 540.767 246.083C539.969 246.23 539.239 246.629 538.683 247.221C538.128 247.813 537.777 248.568 537.682 249.374V249.374C537.612 249.953 537.677 250.541 537.871 251.091C538.065 251.642 538.383 252.14 538.8 252.547C539.218 252.955 539.724 253.261 540.279 253.442C540.834 253.622 541.423 253.673 542 253.589L547.7 252.771C548.281 252.688 548.872 252.834 549.348 253.178L554.016 256.558C554.292 256.758 554.61 256.893 554.945 256.953L559.861 257.83C560.157 257.883 560.461 257.876 560.754 257.81C561.048 257.744 561.325 257.621 561.57 257.446C561.815 257.272 562.023 257.05 562.182 256.794C562.34 256.539 562.446 256.254 562.493 255.957L563.337 250.623Z" fill="#A6716B"/>
<path d="M607.032 256.174C607.114 257.643 606.718 259.099 605.902 260.324L605.522 260.884C604.817 261.941 603.83 262.78 602.672 263.305C601.514 263.83 600.232 264.02 598.972 263.854C597.942 263.714 596.762 263.554 595.472 263.374C597.494 262.88 599.446 262.134 601.282 261.154C605.292 258.644 605.142 250.814 603.112 247.764C601.852 245.884 597.212 245.924 593.742 246.224L593.462 243.244L593.432 242.954L594.492 241.884L606.162 240.644L607.032 256.174Z" fill="#965E58"/>
<path d="M608.119 243.373L593.303 243.256L591.93 243.03L591.503 240.787L608.049 240.642C608.1 241.538 608.127 242.45 608.119 243.373Z" fill="white"/>
<path d="M567.709 196.03C567.698 196.114 567.701 196.2 567.719 196.283C568.13 197.288 568.867 198.125 569.812 198.659C569.852 198.678 569.892 198.698 569.927 198.711C570.728 199.006 571.583 199.125 572.434 199.061C573.285 198.996 574.113 198.749 574.86 198.337C575.334 198.005 575.716 197.557 575.969 197.037C576.271 196.432 576.364 195.743 576.233 195.079C576.217 195.002 576.201 194.92 576.179 194.842C576.166 194.795 576.152 194.753 576.139 194.706C576.131 194.667 576.115 194.629 576.091 194.597C576.067 194.565 576.036 194.539 576.001 194.52C575.931 194.496 575.857 194.492 575.785 194.507C573.346 194.836 570.801 195.022 568.398 195.47C567.95 195.556 567.742 195.761 567.709 196.03Z" fill="#360F19"/>
<path d="M569.812 198.659C569.852 198.678 569.892 198.698 569.927 198.711C570.728 199.006 571.583 199.125 572.434 199.061C573.285 198.996 574.113 198.749 574.86 198.337C575.334 198.005 575.716 197.557 575.969 197.037C575.594 196.791 575.172 196.627 574.73 196.553C574.288 196.48 573.835 196.5 573.401 196.611C572.062 197.097 571.948 197.982 571.942 198.042C571.884 197.866 571.879 197.676 571.927 197.497C571.975 197.318 572.074 197.156 572.213 197.033C571.684 196.971 571.151 197.101 570.71 197.399C570.269 197.698 569.95 198.145 569.812 198.659V198.659Z" fill="#A35368"/>
<path d="M567.709 196.03C568.611 196.191 569.528 196.258 570.444 196.23C572.437 196.216 574.4 195.741 576.179 194.843C576.166 194.796 576.152 194.754 576.139 194.707C576.131 194.668 576.115 194.63 576.091 194.598C576.067 194.566 576.036 194.54 576.001 194.521C575.931 194.497 575.857 194.493 575.785 194.508C573.346 194.837 570.801 195.023 568.398 195.471C567.95 195.556 567.742 195.761 567.709 196.03Z" fill="white"/>
<path d="M567.552 185.764C567.567 186.463 567.387 187.152 567.032 187.754H566.462L565.362 187.744L564.642 187.734C564.296 187.136 564.12 186.455 564.132 185.764C564.132 185.444 564.169 185.125 564.242 184.814C564.242 184.804 564.242 184.804 564.252 184.794C564.635 184.296 565.168 183.935 565.772 183.764C565.842 183.754 565.912 183.714 565.962 183.704C566.011 183.691 566.061 183.681 566.112 183.674C566.277 183.645 566.445 183.635 566.612 183.644C566.73 183.647 566.847 183.66 566.962 183.684H566.972C567.37 184.303 567.573 185.028 567.552 185.764V185.764Z" fill="#263238"/>
<path d="M578.322 185.763C578.343 186.499 578.14 187.224 577.742 187.843L576.832 187.833H576.372L575.472 187.823C575.083 187.208 574.884 186.491 574.902 185.763C574.903 185.491 574.93 185.22 574.982 184.953C575.434 184.396 576.062 184.009 576.762 183.853C576.841 183.825 576.921 183.802 577.002 183.783C577.035 183.775 577.068 183.772 577.102 183.773H577.132C577.205 183.762 577.278 183.756 577.352 183.753C577.472 183.743 577.592 183.733 577.702 183.733H577.782C578.149 184.346 578.337 185.049 578.322 185.763V185.763Z" fill="#263238"/>
<path d="M355.7 21.8951L358.421 21.8451L358.379 19.5121L355.714 19.5541C355.616 18.6267 355.395 17.7165 355.058 16.8471L357.448 15.5571L356.341 13.4991L353.994 14.7751C353.477 14 352.864 13.2943 352.168 12.6751L353.691 10.4201L351.759 9.1201L350.259 11.3261C349.446 10.8708 348.576 10.5249 347.672 10.2971L347.989 7.6041L345.67 7.3291L345.36 9.9871C345.26 9.9801 345.16 9.98009 345.06 9.98009C344.389 9.97911 343.719 10.0427 343.06 10.1701C342.904 10.1911 342.749 10.2261 342.594 10.2611L342.228 9.2821L341.636 7.7241L339.45 8.5491L340.155 10.4101L340.395 11.0441C339.557 11.4521 338.775 11.9664 338.069 12.5741L336.046 10.7621L334.488 12.5031L336.476 14.2801C336.292 14.5331 336.116 14.7941 335.954 15.0621C336.646 16.6817 336.854 18.4672 336.552 20.2024C336.25 21.9376 335.452 23.5482 334.254 24.8391L335.086 24.6001C335.426 25.4661 335.878 26.2834 336.432 27.0311L334.466 28.9141L336.08 30.5981L337.116 29.6111L338.011 28.7511C338.711 29.3668 339.489 29.8882 340.324 30.3021L339.449 32.8681L341.663 33.6221L342.523 31.0991C343.354 31.2996 344.206 31.4003 345.061 31.3991C345.138 31.3991 345.209 31.3991 345.286 31.3921L345.695 34.0851L348 33.7301L347.6 31.0941C348.505 30.8723 349.377 30.5334 350.194 30.0861L351.794 32.2861L353.683 30.9051L352.1 28.7461C352.804 28.1348 353.425 27.4334 353.947 26.6601L356.379 27.8721L357.415 25.7791L355.025 24.5951C355.369 23.729 355.596 22.821 355.7 21.8951V21.8951ZM345.056 27.5761C344.358 27.5753 343.664 27.4708 342.997 27.2661C341.755 26.8759 340.649 26.142 339.806 25.1492C338.964 24.1565 338.419 22.9455 338.237 21.6564C338.054 20.3673 338.24 19.0528 338.773 17.8649C339.306 16.677 340.164 15.6644 341.249 14.9441C342.145 14.3493 343.168 13.9725 344.235 13.8437C345.303 13.7149 346.386 13.8378 347.397 14.2025C348.409 14.5672 349.321 15.1636 350.061 15.9439C350.801 16.7243 351.348 17.667 351.658 18.6966C351.969 19.7263 352.034 20.8142 351.848 21.8735C351.663 22.9327 351.232 23.9339 350.59 24.7968C349.949 25.6598 349.114 26.3606 348.153 26.8432C347.192 27.3258 346.131 27.5768 345.056 27.5761V27.5761Z" fill="#6EB0CC"/>
<path d="M326.626 149.39V127.86L307.98 117.095L289.334 127.86V149.39L307.98 160.156L326.626 149.39Z" fill="#2789BA"/>
<path d="M325.019 126.907V148.436L306.425 159.176L289.124 149.18V127.651L307.708 116.922L325.019 126.907Z" fill="#48ADE0"/>
<path d="M376.572 149.39V127.86L357.926 117.095L339.28 127.86V149.39L357.926 160.156L376.572 149.39Z" fill="#2789BA"/>
<path d="M374.966 126.907V148.436L356.371 159.176L339.07 149.18V127.651L357.655 116.922L374.966 126.907Z" fill="#48ADE0"/>
<path d="M352.899 108.283V86.7533L334.253 75.9873L315.607 86.7533V108.283L334.253 119.048L352.899 108.283Z" fill="#2789BA"/>
<path d="M351.293 85.8004V107.329L332.698 118.068L315.397 108.073V86.5444L333.982 75.8154L351.293 85.8004Z" fill="#48ADE0"/>
<path d="M307.373 108.283V86.7533L288.727 75.9873L270.081 86.7533V108.283L288.727 119.048L307.373 108.283Z" fill="#2789BA"/>
<path d="M305.766 85.8004V107.329L287.172 118.068L269.871 108.073V86.5444L288.455 75.8154L305.766 85.8004Z" fill="#48ADE0"/>
<path d="M375.863 68.2823V46.7513L357.217 35.9863L338.571 46.7513V68.2823L357.217 79.0473L375.863 68.2823Z" fill="#2789BA"/>
<path d="M374.256 45.7995V67.3285L355.662 78.0675L338.361 68.0725V46.5435L356.945 35.8145L374.256 45.7995Z" fill="#48ADE0"/>
<path d="M330.337 68.2823V46.7513L311.691 35.9863L293.045 46.7513V68.2823L311.691 79.0473L330.337 68.2823Z" fill="#2789BA"/>
<path d="M328.73 45.7995V67.3285L310.135 78.0675L292.835 68.0725V46.5435L311.419 35.8145L328.73 45.7995Z" fill="#48ADE0"/>
<path d="M399.018 108.9V87.3705L380.372 76.6055L361.726 87.3705V108.9L380.372 119.666L399.018 108.9Z" fill="#2789BA"/>
<path d="M397.412 86.4176V107.948L378.817 118.687L361.516 108.691V87.1616L380.101 76.4326L397.412 86.4176Z" fill="#48ADE0"/>
<path d="M321.119 94.5444L321.495 94.3814L333.033 89.0674L346.907 94.5444L334.264 99.5514" fill="#C2EAFF"/>
<path d="M325.174 95.2754V104.152L333.516 108.361L341.092 104.611V95.7344L325.174 95.2754Z" fill="#C2EAFF"/>
<path d="M344.842 95.0451V103.387H346.143V94.6631L344.842 95.0451Z" fill="#C2EAFF"/>
<path d="M344.935 104.107H345.898V105.931L344.935 105.273V104.107Z" fill="#C2EAFF"/>
<path d="M285.142 83.4512C283.376 83.4512 281.649 83.975 280.18 84.9563C278.711 85.9377 277.567 87.3325 276.891 88.9644C276.215 90.5964 276.038 92.3921 276.383 94.1245C276.727 95.857 277.578 97.4483 278.827 98.6973C280.076 99.9464 281.667 100.797 283.4 101.142C285.132 101.486 286.928 101.309 288.56 100.633C290.192 99.9574 291.586 98.8127 292.568 97.344C293.549 95.8753 294.073 94.1486 294.073 92.3822C294.073 90.0136 293.132 87.7421 291.457 86.0673C289.782 84.3925 287.511 83.4514 285.142 83.4512V83.4512ZM285.142 98.7132C283.89 98.7132 282.666 98.3419 281.625 97.6462C280.584 96.9506 279.772 95.9618 279.293 94.8049C278.814 93.6481 278.688 92.3752 278.933 91.1471C279.177 89.919 279.78 88.7909 280.665 87.9055C281.551 87.0201 282.679 86.4171 283.907 86.1728C285.135 85.9285 286.408 86.0539 287.565 86.5331C288.722 87.0123 289.71 87.8237 290.406 88.8649C291.102 89.906 291.473 91.13 291.473 92.3822C291.473 93.2136 291.309 94.0369 290.991 94.8051C290.673 95.5733 290.207 96.2712 289.619 96.8592C289.031 97.4471 288.333 97.9134 287.565 98.2315C286.797 98.5496 285.973 98.7133 285.142 98.7132V98.7132Z" fill="#C2EAFF"/>
<path d="M290.322 96.7919L288.173 98.3203L295.499 108.62L297.648 107.091L290.322 96.7919Z" fill="#C2EAFF"/>
<path d="M302.539 59.604H298.63L297.981 61.775H295.326L299.146 49.959H302.052L305.872 61.775H303.188L302.539 59.604ZM301.89 57.416L300.59 53.04L299.277 57.416H301.89Z" fill="#C2EAFF"/>
<path d="M314.6 56.6924C314.972 57.2309 315.166 57.8728 315.153 58.5273C315.178 58.9658 315.112 59.4048 314.959 59.8163C314.805 60.2278 314.567 60.6028 314.261 60.9173C313.554 61.5294 312.635 61.8377 311.702 61.7754H306.849V49.8753H311.584C312.475 49.8185 313.355 50.101 314.047 50.6663C314.346 50.9577 314.578 51.31 314.728 51.6994C314.878 52.0887 314.943 52.5059 314.917 52.9223C314.941 53.5572 314.766 54.1837 314.417 54.7143C314.106 55.1738 313.64 55.5055 313.104 55.6484C313.713 55.8037 314.244 56.1746 314.6 56.6924V56.6924ZM309.368 54.7383H311.02C311.196 54.7658 311.375 54.7519 311.545 54.6978C311.714 54.6436 311.869 54.5508 311.996 54.4266C312.124 54.3024 312.221 54.1503 312.279 53.9822C312.337 53.8141 312.356 53.6348 312.333 53.4583C312.333 52.6063 311.886 52.18 310.991 52.1794H309.368V54.7383ZM312.568 58.1214C312.578 57.9383 312.551 57.7551 312.487 57.5831C312.424 57.4111 312.326 57.2539 312.199 57.1214C312.057 56.9946 311.892 56.8973 311.712 56.8352C311.532 56.773 311.342 56.7472 311.152 56.7594H309.367V59.4383H311.167C312.102 59.4383 312.569 59 312.569 58.1234L312.568 58.1214Z" fill="#C2EAFF"/>
<path d="M324.539 50.9525C325.443 51.8138 326.037 52.9502 326.228 54.1845H323.558C323.389 53.6721 323.073 53.2203 322.651 52.8845C322.234 52.5677 321.722 52.4016 321.198 52.4135C320.847 52.4072 320.5 52.4886 320.188 52.6503C319.876 52.812 319.61 53.0488 319.413 53.3395C318.969 54.0869 318.735 54.9402 318.735 55.8095C318.735 56.6788 318.969 57.532 319.413 58.2795C319.611 58.568 319.878 58.8029 320.19 58.9629C320.501 59.1229 320.848 59.2032 321.198 59.1965C321.722 59.2083 322.234 59.0422 322.651 58.7255C323.07 58.3949 323.385 57.9505 323.558 57.4455H326.228C326.033 58.6762 325.44 59.8089 324.539 60.6695C323.718 61.3639 322.699 61.7804 321.627 61.8589C320.554 61.9374 319.485 61.674 318.572 61.1065C317.787 60.5749 317.171 59.8304 316.795 58.9605C316.38 57.962 316.167 56.8916 316.167 55.8105C316.167 54.7294 316.38 53.6589 316.795 52.6605C317.171 51.7907 317.788 51.0462 318.572 50.5145C319.485 49.9484 320.553 49.6851 321.625 49.7622C322.696 49.8392 323.716 50.2526 324.539 50.9435V50.9525Z" fill="#C2EAFF"/>
<path d="M370.083 50.4998V63.1388C370.083 63.1875 370.074 63.2358 370.056 63.281C370.037 63.3261 370.01 63.3671 369.976 63.4016C369.941 63.436 369.9 63.4633 369.855 63.4817C369.81 63.5001 369.762 63.5093 369.713 63.5087H368.4C368.349 63.5086 368.299 63.5192 368.252 63.5398C368.206 63.5603 368.164 63.5904 368.13 63.6281C368.095 63.6658 368.069 63.7103 368.053 63.7586C368.038 63.807 368.032 63.8581 368.037 63.9087L368.363 66.9087C368.37 66.9819 368.355 67.0555 368.319 67.1197C368.283 67.184 368.229 67.2358 368.163 67.2684C368.097 67.3009 368.023 67.3127 367.95 67.302C367.877 67.2914 367.81 67.2588 367.756 67.2088C366.787 66.2978 365.041 64.6628 363.909 63.5978C363.877 63.565 363.839 63.5392 363.797 63.522C363.755 63.5048 363.709 63.4966 363.664 63.4978H352.383C352.335 63.4975 352.287 63.4877 352.243 63.4689C352.199 63.4501 352.158 63.4227 352.125 63.3883C352.091 63.3539 352.065 63.3132 352.047 63.2684C352.029 63.2237 352.02 63.1759 352.021 63.1278V50.4998C352.021 50.4037 352.059 50.3115 352.127 50.2434C352.195 50.1754 352.287 50.137 352.383 50.1368H369.713C369.761 50.1361 369.809 50.145 369.854 50.1629C369.898 50.1808 369.939 50.2074 369.974 50.2412C370.008 50.2749 370.035 50.3151 370.054 50.3595C370.073 50.4039 370.083 50.4516 370.083 50.4998V50.4998Z" fill="#C2EAFF"/>
<path d="M363.316 50.1387V60.4217C363.317 60.5176 363.279 60.6098 363.212 60.6783C363.145 60.7468 363.054 60.7861 362.958 60.7877H352.021V50.5187C352.021 50.4175 352.062 50.3205 352.133 50.2489C352.205 50.1773 352.302 50.137 352.403 50.1367L363.316 50.1387Z" fill="#48ADE0"/>
<path d="M362 46.1455H344.619C344.528 46.1455 344.441 46.1815 344.377 46.2457C344.313 46.3098 344.277 46.3968 344.277 46.4875V59.1745C344.277 59.2652 344.313 59.3522 344.377 59.4163C344.441 59.4805 344.528 59.5165 344.619 59.5165H345.41C345.466 59.5163 345.521 59.5298 345.571 59.5559C345.62 59.582 345.663 59.6198 345.694 59.6662C345.726 59.7125 345.745 59.7658 345.751 59.8215C345.757 59.8772 345.75 59.9335 345.729 59.9855C345.421 60.7515 345.056 61.6365 344.768 62.3295C344.74 62.3993 344.736 62.4763 344.756 62.5488C344.776 62.6212 344.819 62.6851 344.879 62.7305C344.939 62.776 345.012 62.8005 345.087 62.8003C345.162 62.8001 345.235 62.7752 345.295 62.7295L349.334 59.5875C349.394 59.5407 349.468 59.5153 349.544 59.5155H362C362.091 59.5155 362.178 59.4795 362.242 59.4153C362.306 59.3512 362.342 59.2642 362.342 59.1735V46.4875C362.342 46.3968 362.306 46.3098 362.242 46.2457C362.178 46.1815 362.091 46.1455 362 46.1455V46.1455Z" fill="#C2EAFF"/>
<path d="M315.365 125.263L297.355 145.438L302.337 149.886L320.347 129.71L315.365 125.263Z" fill="#C2EAFF"/>
<path d="M316.798 128.999L316.086 129.797L318.414 131.875L319.127 131.077L316.798 128.999Z" fill="#48ADE0"/>
<path d="M312.511 133.802L311.798 134.601L314.127 136.679L314.839 135.881L312.511 133.802Z" fill="#48ADE0"/>
<path d="M308.222 138.607L307.51 139.405L309.838 141.484L310.55 140.685L308.222 138.607Z" fill="#48ADE0"/>
<path d="M303.941 143.402L303.229 144.2L305.557 146.279L306.27 145.48L303.941 143.402Z" fill="#48ADE0"/>
<path d="M303.554 146.114L303.176 146.538L304.373 147.606L304.751 147.182L303.554 146.114Z" fill="#48ADE0"/>
<path d="M302.507 147.288L302.122 147.719L303.318 148.787L303.703 148.356L302.507 147.288Z" fill="#48ADE0"/>
<path d="M307.587 141.597L307.202 142.028L308.399 143.096L308.784 142.665L307.587 141.597Z" fill="#48ADE0"/>
<path d="M306.533 142.775L306.155 143.199L307.352 144.267L307.73 143.844L306.533 142.775Z" fill="#48ADE0"/>
<path d="M311.752 136.93L311.367 137.361L312.563 138.429L312.948 137.998L311.752 136.93Z" fill="#48ADE0"/>
<path d="M310.698 138.111L310.313 138.542L311.51 139.61L311.894 139.179L310.698 138.111Z" fill="#48ADE0"/>
<path d="M316.127 132.03L315.742 132.461L316.939 133.529L317.324 133.098L316.127 132.03Z" fill="#48ADE0"/>
<path d="M315.072 133.21L314.688 133.642L315.884 134.71L316.269 134.279L315.072 133.21Z" fill="#48ADE0"/>
<path d="M388.02 97.6748C387.34 95.3528 384.626 93.3178 380.17 91.7908C379.252 91.5476 378.395 91.1121 377.658 90.5132C376.92 89.9144 376.319 89.1657 375.892 88.3168C375.278 86.6459 375.309 84.8063 375.978 83.1568L375.268 82.8418C374.502 84.6861 374.469 86.7536 375.178 88.6208C375.645 89.5707 376.31 90.41 377.128 91.0825C377.945 91.755 378.897 92.2454 379.919 92.5208C384.065 93.9428 386.678 95.8488 387.275 97.8888C387.428 98.4598 387.435 99.0602 387.296 99.6347C387.156 100.209 386.874 100.739 386.475 101.176C385.408 102.219 384.168 103.067 382.809 103.683C379.329 105.583 374.997 107.946 376.297 113.299L377.052 113.115C375.892 108.342 379.764 106.229 383.181 104.364C384.634 103.705 385.955 102.788 387.081 101.658C387.556 101.124 387.89 100.48 388.054 99.7849C388.218 99.0896 388.206 98.3645 388.02 97.6748Z" fill="#C2EAFF"/>
<path d="M375.281 98.9989C375.152 100.828 376.135 102.599 378.201 104.261L378.688 103.661C376.833 102.169 375.947 100.621 376.055 99.0609C376.249 96.2739 379.544 94.2719 379.577 94.2519L379.177 93.5859C379.03 93.6699 375.505 95.8059 375.281 98.9989Z" fill="#C2EAFF"/>
<path d="M383.372 90.3577L383.639 91.0857C388.585 89.2727 386.939 82.7467 386.917 82.6807L386.167 82.8807C386.182 82.9387 387.662 88.7837 383.372 90.3577Z" fill="#C2EAFF"/>
<path d="M383.749 106.688L383.64 107.456C383.665 107.456 386.14 107.929 385.569 113.495L386.341 113.574C386.994 107.201 383.882 106.706 383.749 106.688Z" fill="#C2EAFF"/>
<path d="M384.49 95.7803H378.728V96.7113H384.49V95.7803Z" fill="#C2EAFF"/>
<path d="M384.49 98.0498H378.728V98.9808H384.49V98.0498Z" fill="#C2EAFF"/>
<path d="M384.49 100.319H378.728V101.25H384.49V100.319Z" fill="#C2EAFF"/>
<path d="M384.207 84.1777H378.446V85.1087H384.207V84.1777Z" fill="#C2EAFF"/>
<path d="M384.207 86.4473H378.446V87.3783H384.207V86.4473Z" fill="#C2EAFF"/>
<path d="M384.49 109.05H378.728V109.981H384.49V109.05Z" fill="#C2EAFF"/>
<path d="M383.701 112.095H377.939V113.026H383.701V112.095Z" fill="#C2EAFF"/>
<path d="M369.409 135.939C369.409 134.026 368.975 132.138 368.14 130.417C367.305 128.696 366.091 127.187 364.589 126.003L363.657 127.253C365.461 128.686 366.775 130.644 367.416 132.857C368.057 135.071 367.994 137.428 367.235 139.604C366.475 141.779 365.058 143.664 363.179 144.998C361.3 146.331 359.053 147.047 356.749 147.046C356.274 147.046 355.8 147.015 355.329 146.953V148.521C355.537 148.545 355.747 148.561 355.958 148.574V150.714H352.3V152.181H361.676V150.714H358.018V148.534C361.139 148.216 364.031 146.753 366.135 144.426C368.239 142.1 369.405 139.076 369.409 135.939V135.939Z" fill="#C2EAFF"/>
<path d="M353.093 144.79C354.252 145.269 355.495 145.515 356.749 145.512C358.079 145.514 359.394 145.234 360.607 144.689H360.622C360.759 144.635 360.892 144.573 361.022 144.503C362.322 143.852 363.458 142.914 364.344 141.761C365.23 140.607 365.843 139.268 366.137 137.843C366.215 137.433 366.27 137.018 366.3 136.601C366.316 136.384 366.323 136.159 366.323 135.934C366.326 135.335 366.269 134.737 366.153 134.148C366.106 133.877 366.044 133.613 365.974 133.357C365.675 132.287 365.189 131.277 364.538 130.376C364.391 130.162 364.231 129.957 364.057 129.763C362.744 128.196 360.961 127.094 358.973 126.619H358.965C358.709 126.557 358.445 126.503 358.173 126.464C357.7 126.392 357.223 126.356 356.745 126.355C355.777 126.357 354.814 126.504 353.889 126.79C353.625 126.875 353.353 126.969 353.097 127.077C351.367 127.798 349.883 129.007 348.828 130.555V130.562C348.68 130.772 348.541 130.989 348.409 131.222C347.941 132.043 347.601 132.93 347.4 133.853C347.338 134.11 347.291 134.373 347.252 134.637C347.196 135.069 347.168 135.503 347.167 135.937C347.165 136.763 347.272 137.585 347.485 138.382C347.567 138.701 347.668 139.014 347.785 139.321C348.246 140.537 348.949 141.646 349.851 142.583C350.753 143.519 351.835 144.263 353.032 144.77C353.055 144.774 353.078 144.782 353.093 144.79ZM360.351 143.959C359.291 144.438 358.147 144.701 356.985 144.733C355.823 144.765 354.666 144.566 353.582 144.146C352.947 143.016 352.427 141.825 352.03 140.591C353.599 140.951 355.202 141.139 356.811 141.15C358.199 141.161 359.583 140.986 360.925 140.63C360.791 141.749 360.599 142.86 360.351 143.959V143.959ZM361.01 139.807C357.978 140.588 354.794 140.564 351.774 139.737C351.434 138.499 351.252 137.222 351.23 135.937C353.068 136.4 354.955 136.637 356.85 136.644C358.283 136.651 359.713 136.494 361.111 136.178C361.157 137.389 361.123 138.601 361.01 139.807V139.807ZM351.23 135.15C351.267 134.129 351.41 133.115 351.657 132.123C353.071 132.401 354.509 132.543 355.95 132.549C357.497 132.557 359.038 132.367 360.537 131.983C360.811 133.102 360.988 134.242 361.065 135.39C357.814 136.097 354.442 136.014 351.23 135.15V135.15ZM361.243 143.501C361.461 142.407 361.624 141.375 361.732 140.401C362.942 140.001 364.083 139.417 365.116 138.67C364.447 140.694 363.073 142.409 361.243 143.501V143.501ZM365.551 135.934C365.551 136.442 365.506 136.948 365.419 137.447C364.356 138.356 363.136 139.064 361.819 139.535C361.921 138.353 361.945 137.166 361.889 135.98C363.123 135.64 364.315 135.164 365.444 134.56C365.515 135.016 365.55 135.477 365.551 135.938V135.934ZM363.851 130.749C364.52 131.653 365.006 132.678 365.28 133.768C364.195 134.372 363.043 134.849 361.849 135.188C361.763 134.037 361.581 132.895 361.305 131.773C362.18 131.503 363.032 131.16 363.851 130.749V130.749ZM363.351 130.128C362.626 130.487 361.873 130.788 361.101 131.028C360.764 129.839 360.279 128.697 359.657 127.628C361.084 128.13 362.357 128.991 363.354 130.128H363.351ZM353.579 127.722C355.149 127.117 356.859 126.974 358.508 127.31C359.331 128.512 359.947 129.841 360.332 131.245C357.553 131.909 354.662 131.952 351.864 131.37C352.258 130.078 352.836 128.849 353.582 127.722H353.579ZM352.353 128.322C351.855 129.246 351.453 130.218 351.153 131.222C350.571 131.09 350.053 130.943 349.601 130.811C350.328 129.791 351.268 128.94 352.356 128.319L352.353 128.322ZM349.153 131.481C349.665 131.644 350.263 131.815 350.946 131.97C350.702 132.947 350.554 133.946 350.504 134.951C349.604 134.695 348.796 134.415 348.121 134.151C348.32 133.21 348.671 132.308 349.158 131.478L349.153 131.481ZM347.942 135.937C347.939 135.603 347.96 135.269 348.004 134.937C348.711 135.209 349.549 135.496 350.48 135.752C350.482 137.026 350.633 138.294 350.93 139.532C350.1 139.307 349.254 139.043 348.392 138.725C348.093 137.827 347.943 136.885 347.947 135.938L347.942 135.937ZM348.78 139.678C349.588 139.957 350.38 140.198 351.155 140.392H351.163C351.485 141.496 351.904 142.568 352.413 143.598C350.828 142.696 349.561 141.326 348.785 139.675L348.78 139.678Z" fill="#C2EAFF"/>
<path d="M341.648 20.2311L345.243 20.1751L345.193 17.0802L341.662 17.1441C341.585 16.4005 341.446 15.6646 341.246 14.9442C341.123 14.476 340.975 14.015 340.802 13.5631L343.967 11.8502L343.051 10.1652L342.494 9.12915L342.219 9.27715L340.146 10.4052L339.385 10.8131C338.703 9.78429 337.89 8.84846 336.967 8.02915L338.99 5.04715L336.431 3.31315L334.443 6.23815C333.366 5.64073 332.218 5.18367 331.025 4.87815L331.441 1.31115L328.367 0.952148L327.958 4.46215C327.824 4.46215 327.69 4.45515 327.558 4.45515C326.459 4.45585 325.364 4.58369 324.295 4.83615L323.019 1.47315L320.129 2.56615L321.383 5.86615C320.272 6.40527 319.237 7.08776 318.303 7.89615L315.617 5.49615L313.559 7.80116L316.188 10.1562C315.452 11.1457 314.847 12.2259 314.388 13.3702L310.905 12.4822L310.137 15.4822L313.556 16.3561C313.434 17.1137 313.373 17.8798 313.373 18.6471C313.372 19.3788 313.429 20.1094 313.542 20.8322L310.088 21.8401L310.962 24.8082L314.352 23.8141C314.8 24.9624 315.398 26.0464 316.13 27.0382L313.53 29.5262L315.673 31.7602L318.224 29.3141C319.149 30.1277 320.178 30.8154 321.284 31.3592L320.128 34.7701L323.053 35.7642L324.195 32.4162C325.295 32.6891 326.424 32.8264 327.557 32.8251C327.657 32.8251 327.757 32.8182 327.857 32.8182L328.399 36.3782L331.459 35.9122L330.923 32.4122C332.122 32.1218 333.279 31.6764 334.363 31.0872L336.478 33.9872L338.978 32.1611L337.11 29.6021L336.892 29.3022C337.821 28.4905 338.641 27.5618 339.331 26.5392L342.552 28.1461L342.996 27.2581L343.927 25.3762L340.762 23.8042C341.213 22.6572 341.511 21.4559 341.648 20.2311ZM327.556 27.7602C325.458 27.7622 323.424 27.0417 321.794 25.7199C320.165 24.3982 319.041 22.5558 318.611 20.5025C318.18 18.4492 318.47 16.3104 319.431 14.4456C320.392 12.5809 321.966 11.104 323.888 10.2633C325.81 9.42266 327.963 9.2695 329.985 9.82961C332.007 10.3897 333.774 11.6289 334.99 13.3388C336.205 15.0487 336.795 17.125 336.659 19.2185C336.524 21.312 335.672 23.2951 334.246 24.8342C333.392 25.7563 332.358 26.4922 331.207 26.9957C330.055 27.4992 328.812 27.7594 327.556 27.7602V27.7602Z" fill="#96CDE3"/>
<path d="M739.923 411.525C741.438 408.027 741.769 404.13 740.865 400.426C739.961 396.722 737.871 393.415 734.915 391.008C724.398 381.908 713.498 383.608 709.291 380.023C709.291 380.023 707.731 397.023 716.175 404.559C728.222 415.318 739.923 411.525 739.923 411.525Z" fill="#06628D"/>
<path d="M758.357 423.145C758.347 418.398 759.654 413.742 762.133 409.694C764.613 405.646 768.167 402.366 772.4 400.218C787.316 392.291 804.717 403.993 807.586 403.238C804.667 407.004 800.432 409.526 795.73 410.298C787.889 411.543 784.87 423.331 777.372 425.887C766.85 429.473 758.357 423.145 758.357 423.145Z" fill="#06628D"/>
<path d="M760.807 386.566C760.807 386.566 760.348 378.136 774.116 376.814C782.512 376.074 790.943 377.767 798.402 381.69C792.338 383.483 786.547 386.097 781.192 389.46C772.586 394.934 763.365 390.516 760.805 387.346" fill="#06628D"/>
<path d="M749.887 364.945C752.396 359.005 757.103 354.264 763.025 351.712C773.16 347.182 779.603 347.559 779.603 347.559C777.593 352.446 776.013 357.498 774.881 362.659C773.16 370.775 753.386 376.48 749.887 364.945Z" fill="#06628D"/>
<path d="M713.316 384.644L713.666 384.083C738.921 399.452 743.952 417.554 744.943 424.773C746.374 420.029 747.263 415.138 747.593 410.193C748.458 400.572 748.541 390.897 747.842 381.263C747.521 377.858 747.43 374.435 747.567 371.017C747.681 368.735 748.367 365.56 748.585 363.274C749.253 356.147 752.252 351.856 748.431 346.333L749.191 346.696C752.229 350.444 750.704 356.196 750.001 363.696C749.923 364.525 749.848 365.369 749.774 366.211C751.174 366.021 762.086 364.372 765.857 358.679L766.416 359.039C762.25 365.328 750.306 366.813 749.716 366.882C749.611 368.116 749.516 369.347 749.459 370.549C749.318 374.08 749.401 377.616 749.708 381.137C749.956 384.837 750.24 389.107 750.156 395.459C765.315 378.092 787.386 379.686 787.614 379.701L787.558 380.357C787.335 380.341 765.088 378.743 750.138 396.51C750.066 400.3 749.867 404.796 749.457 410.322C749.065 416.842 747.673 423.263 745.331 429.36C748.736 428.8 758.463 426.208 765.855 414.497C775.121 399.814 796.431 402.047 796.642 402.075L796.566 402.728C796.356 402.706 775.466 400.514 766.422 414.844C758.608 427.224 748.169 429.621 745.039 430.07C740.931 439.897 735.546 443.57 735.209 443.793L734.174 442.26C734.259 442.204 740.432 437.987 744.448 426.292C743.97 420.581 740.33 401.082 713.316 384.644Z" fill="#273137"/>
</svg>
