<svg width="610" height="479" viewBox="0 0 610 479" fill="none" xmlns="http://www.w3.org/2000/svg">
<path d="M67.3901 445.595H540.772C540.772 445.595 656.05 333.109 588.205 189.424C520.36 45.7388 394.922 28.4538 294.582 102.424C194.242 176.394 59.9511 107.114 11.2531 244.886C-30.6629 363.47 67.3901 445.595 67.3901 445.595Z" fill="#D4F2FF"/>
<path d="M50.6001 423.97H557.9C586.143 423.97 596.634 439.333 595.523 449.718C595.276 452.029 594.25 454.464 590.648 456.551C582.675 461.171 565.732 462.293 552.034 461.872C520.922 460.916 492.802 455.072 460.86 456.663C437.988 457.806 416.508 462.622 394.913 466.506C366.49 471.574 337.815 475.117 309.013 477.117C262.976 480.35 214.43 479.506 179.126 470.675C169.614 468.296 161.257 465.391 151.937 462.92C133.071 457.92 110.272 454.756 85.9491 453.764C68.9041 453.069 50.8881 453.404 35.1991 451.345C19.5101 449.286 6.34605 443.873 9.96005 437.445C13.6391 430.898 33.9901 427.286 50.6001 423.97Z" fill="#90C0D4"/>
<path d="M310.659 419.531C310.201 419.477 309.737 419.525 309.3 419.672C308.863 419.82 308.465 420.062 308.133 420.382C307.532 421.259 307.237 422.309 307.293 423.37C307.145 425.891 307.996 431.877 309.845 441.327L355.145 441.027C355.179 438.884 354.41 436.805 352.989 435.2C350.769 432.898 348.218 430.939 345.42 429.388C342.009 427.318 338.411 425.574 334.673 424.179C332.773 423.464 325.481 422.229 322.22 421.301L321.539 422.788C317.13 423.735 319.329 424.588 317.766 424.188C315.316 423.702 312.949 422.149 310.666 419.531" fill="#ECECEA"/>
<path d="M307.886 430.206C308.186 432.25 308.596 434.679 309.115 437.492C310.661 438.165 312.127 439.008 313.485 440.008C314.523 440.789 315.45 441.707 316.241 442.738C315.92 442.2 315.521 441.712 315.056 441.292V441.292L355.141 441.027C355.141 440.223 355.04 439.421 354.841 438.642L320.901 435.651L307.895 430.206H307.886Z" fill="#D6D6D1"/>
<path d="M279.779 426.478C276.642 427.062 274.655 428.647 273.819 431.234C272.842 433.724 272.287 439.136 272.155 447.471L326.58 447.358C326.789 446.514 326.898 445.649 326.905 444.78C326.924 442.792 325.641 440.935 323.056 439.211C320.538 437.499 315.846 435.321 308.98 432.678C306.594 431.749 296.101 428.721 291.235 426.94C290.25 427.809 293.001 429.197 289.414 429.681C287.062 429.99 286.381 430.823 283.714 430.254C281.559 429.77 280.308 429.353 279.962 429.003L279.838 428.849L279.783 426.512" fill="#ECECEA"/>
<path d="M272.231 444.256C272.197 445.273 272.171 446.344 272.152 447.471L326.58 447.359C326.802 446.612 326.919 445.838 326.926 445.059L272.226 444.259L272.231 444.256Z" fill="#D6D6D1"/>
<path d="M236.2 211.218L220.594 214.618L223.117 323.953L236.185 211.342" fill="#0D6685"/>
<path d="M215.379 212.778C214.593 212.792 214.138 213.267 214.014 214.202L214.126 330.946L209.41 432.7C209.438 432.966 209.544 433.218 209.714 433.424C209.884 433.631 210.111 433.783 210.367 433.861L216.117 434.334C216.468 434.348 216.811 434.228 217.075 433.997C217.34 433.766 217.506 433.442 217.539 433.092L233.686 334.992L258.439 335.962L256.275 427.886C256.304 428.148 256.408 428.395 256.574 428.599C256.74 428.803 256.962 428.954 257.212 429.035L262.52 429.642C263.311 429.61 263.759 429.11 263.863 428.142L270.422 336.147L287.348 335.947C288.142 335.773 288.563 335.36 288.612 334.708C288.509 333.735 288.066 333.24 287.284 333.222L269.12 333.437C268.504 333.437 268.069 333.807 267.815 334.546L261.17 426.763L259.029 426.448L261.163 334.122C261.086 333.829 260.914 333.57 260.674 333.386C260.434 333.201 260.14 333.101 259.837 333.102L232.522 332.202C232.313 332.207 232.108 332.259 231.923 332.355C231.737 332.451 231.576 332.588 231.452 332.756L215.069 431.37L212.203 431.189L216.852 331.112L216.744 214.367C216.663 213.337 216.229 212.81 215.444 212.785" fill="#052440"/>
<path d="M225.325 210.578L214.885 213.342L211.485 431.896L216.019 433.114L233.188 333.205L259.813 335.264L257.779 426.805L262.444 426.617L266.79 364.872L269.443 334.662L287.643 333.844L290.231 314.326L225.531 315.697L225.331 210.927" fill="#00172B"/>
<path d="M278.549 418.308L277.931 431.561C279.594 431.948 281.084 432.246 282.4 432.455C284.02 432.755 285.674 432.828 287.314 432.672C289.075 432.423 290.799 431.957 292.446 431.285L293.155 420.61L278.555 418.31" fill="#834B48"/>
<path d="M310.623 411.478L309.971 421.846C311.776 424.286 313.368 425.72 314.747 426.146C316.24 426.792 318.994 426.492 323.01 425.246L323.586 416.111L310.639 411.485" fill="#834B48"/>
<path d="M246.667 277.167L244.756 299.332L283.375 294.894L284.04 292.38L284.14 294.771L283.618 282.622L246.684 277.17" fill="#F16835"/>
<path d="M285.217 289.492C279.39 289.371 273.332 291.02 267.041 294.44C259.974 292.686 251.86 292.426 242.699 293.659L226.708 308.703C226.531 310.43 226.501 312.17 226.617 313.903C226.64 320.485 230.516 324.804 238.247 326.86C244.278 329.028 260.683 330.528 287.463 331.36L275.908 419.818L275.932 420.035L293.318 423.664H293.534L310.679 371.086L306.723 414.154L323.748 417.628L350.814 328.139C353.029 320.687 353.984 315.31 353.677 312.008C353.358 305.786 349.611 301.596 342.436 299.439L298.89 290.978C294.409 290.105 289.863 289.607 285.299 289.489" fill="#052440"/>
<path d="M275.647 411.608L274.312 419.957C280.196 421.294 284.372 422.203 286.841 422.684C289.28 423.169 291.896 423.597 294.691 423.969C296.229 420.428 297.196 416.665 297.556 412.82L275.68 411.609" fill="#405E80"/>
<path d="M306.781 405.938C306.178 406.679 305.776 407.562 305.616 408.503C305.347 410.321 305.211 412.156 305.21 413.993C309.995 415.366 314.845 416.495 319.744 417.376C322.944 417.878 324.993 417.589 325.892 416.507C326.885 415.645 327.486 413.153 327.697 409.03L306.797 405.94" fill="#405E80"/>
<path d="M284.62 289.485C284.328 289.485 284.036 289.49 283.744 289.498L278.97 290.023C275.224 290.766 271.605 292.043 268.222 293.815V293.815C271.505 294.457 274.351 294.985 276.762 295.397C297.495 298.315 308.121 300.04 308.64 300.573C315.055 302.119 319.33 304.608 321.464 308.039C323.965 311.689 324.435 317.29 322.874 324.844C318.366 339.806 313.445 357.844 308.11 378.957L310.676 371.087L307.466 406.036L306.784 405.936C306.71 406.015 306.639 406.099 306.571 406.187L327.689 409.098V409.04V409.02L326.401 408.83L350.801 328.141C353.016 320.689 353.971 315.312 353.664 312.01C353.345 305.788 349.598 301.599 342.423 299.441L298.877 290.98C294.403 290.11 289.864 289.612 285.308 289.491H285.208C285.015 289.487 284.819 289.485 284.62 289.485Z" fill="#00172B"/>
<path d="M293.927 334.286C293.732 334.287 293.544 334.359 293.397 334.487C293.25 334.616 293.154 334.793 293.127 334.986L282.434 397.886C282.409 397.994 282.406 398.106 282.426 398.215C282.446 398.324 282.488 398.427 282.549 398.52C282.61 398.612 282.69 398.691 282.783 398.751C282.876 398.811 282.98 398.852 283.089 398.871C283.198 398.889 283.31 398.886 283.417 398.86C283.525 398.834 283.626 398.786 283.715 398.719C283.803 398.653 283.877 398.569 283.932 398.473C283.987 398.377 284.022 398.27 284.034 398.16L294.726 335.26C294.75 335.143 294.748 335.022 294.719 334.906C294.691 334.789 294.637 334.681 294.562 334.588C294.487 334.495 294.393 334.419 294.285 334.367C294.177 334.315 294.06 334.287 293.94 334.285" fill="#00172B"/>
<path d="M238.3 320.976C238.09 320.978 237.889 321.062 237.74 321.209C237.59 321.356 237.503 321.556 237.497 321.766C237.491 321.975 237.567 322.179 237.708 322.335C237.849 322.49 238.045 322.585 238.254 322.6L292.025 325.775C292.236 325.784 292.442 325.711 292.6 325.572C292.758 325.432 292.855 325.237 292.872 325.026C292.888 324.816 292.823 324.608 292.689 324.445C292.554 324.283 292.362 324.178 292.153 324.155L238.4 320.98" fill="#00172B"/>
<path d="M284.976 200.321L280.205 277.352L250.336 274.611L252.2 192.705L252.255 192.713L254.238 193.171L282.551 199.76L284.976 200.321Z" fill="#F16835"/>
<path d="M221.724 168.649C215.711 169.109 207.719 175.727 197.747 188.503C190.655 197.725 186.663 203.464 185.772 205.722C183.918 209.336 183.135 213.405 183.517 217.448C184.347 223.896 187.34 227.032 192.496 226.855C194.773 226.8 197.036 226.493 199.245 225.938C210.627 222.714 217.863 222.338 229.86 219.851C230.146 243.818 227.56 263.716 225.085 275.291C222.945 286.141 219.052 300.56 213.406 318.548L236.764 318.987C240.949 315.921 245.332 304.654 249.912 285.187L253.265 249.148C254.088 231.015 254.782 208.943 255.347 182.932C251.414 183.328 240.543 187.624 222.736 195.82C228.754 189.849 229.263 187.728 230.836 185.92C232.715 183.82 236.142 176.2 232.441 175.83C232.074 175.564 226.811 171.209 226.095 170.607C225.561 170.002 224.907 169.516 224.174 169.179C223.44 168.843 222.645 168.664 221.838 168.653" fill="#01305C"/>
<path d="M279.808 184.888L276.267 191.867C275.572 192.461 276.525 191.396 276.267 191.867C275.775 192.709 276.518 190.51 276.267 191.867C275.681 194.567 276.074 217.807 276.158 226.325C276.484 247.151 276.868 257.977 277.309 258.803L274.367 261.733L272.062 275.155L324.686 272.397C324.123 262.435 314.07 234.797 314.07 234.797C311.408 224.876 307.892 215.205 303.562 205.891C300.589 198.357 295.662 193.146 288.783 190.257" fill="#01305C"/>
<path d="M243.139 308.375C239.001 309.074 234.828 309.546 230.639 309.79C228.288 309.928 225.634 309.997 222.675 309.997C221.687 309.997 220.665 309.989 219.608 309.974C218.761 309.969 217.587 309.945 216.086 309.901C215.251 312.686 214.368 315.574 213.435 318.567L236.809 318.988C239.264 316.709 241.377 313.172 243.146 308.375H243.139Z" fill="#EDC025"/>
<path d="M279.488 257.061L276.082 259.373L276.776 273.239L283.999 273.277C285.077 271.551 285.86 269.659 286.317 267.677C286.464 266.875 286.449 266.051 286.271 265.256C286.094 264.46 285.758 263.708 285.284 263.045C283.637 260.797 281.69 258.785 279.497 257.066" fill="#EDC025"/>
<path d="M282.706 187.254C279.475 191.963 275.446 197.54 274.624 198.662C273.928 199.662 273.016 200.833 271.887 202.175C271.084 203.133 269.96 203.768 268.724 203.96C267.488 204.152 266.225 203.89 265.168 203.221C262.555 201.56 259.906 199.957 259.117 199.278C257.608 197.988 256.185 196.6 254.859 195.123L255.347 182.933L261.279 180.666L282.706 187.254Z" fill="white"/>
<path d="M223 195.662C217.795 202.188 209.109 211.61 196.943 223.927C206.098 217.647 212.001 212.911 214.654 209.719C215.713 208.577 217.049 207.013 218.664 205.026L222.984 195.699" fill="#022543"/>
<path d="M294.912 222.23L293.791 247.664L288.391 249.564C283.773 251.191 279.845 254.342 277.255 258.498L277.209 258.571L279.875 256.85C282.413 255.488 284.387 254.482 285.796 253.833C288.081 252.73 290.475 251.867 292.939 251.26C296.459 250.33 301.904 250.277 309.273 251.101C306.995 249.848 304.606 248.81 302.136 248.001C300.602 247.592 298.991 247.57 297.446 247.937L294.917 222.228" fill="#022543"/>
<path d="M178.591 197.003C177.155 197.043 175.786 197.625 174.762 198.633C173.657 199.678 172.927 201.059 172.688 202.562C172.437 203.965 172.751 205.41 173.561 206.583C173.947 207.103 174.451 207.524 175.032 207.812C175.612 208.1 176.252 208.246 176.9 208.239C178.33 208.204 179.691 207.623 180.707 206.617C181.824 205.553 182.561 204.152 182.807 202.629C182.93 201.945 182.916 201.244 182.766 200.565C182.616 199.887 182.333 199.245 181.932 198.677C181.549 198.156 181.048 197.733 180.47 197.442C179.892 197.152 179.253 197.002 178.606 197.006L178.591 197.003Z" fill="white"/>
<path d="M156.358 180.944C154.194 180.932 152.109 181.761 150.544 183.255C149.801 183.976 149.22 184.846 148.837 185.807C148.455 186.769 148.28 187.801 148.325 188.834C148.455 190.998 149.426 193.024 151.031 194.479C152.671 195.967 154.805 196.792 157.019 196.792C159.183 196.817 161.271 195.991 162.832 194.492C163.576 193.759 164.159 192.878 164.542 191.906C164.925 190.935 165.101 189.893 165.057 188.849C165.005 187.793 164.742 186.758 164.286 185.805C163.829 184.851 163.187 183.998 162.397 183.294C160.75 181.798 158.609 180.962 156.384 180.947L156.358 180.944Z" fill="#499AB6"/>
<path d="M163.478 185.917L157.231 194.917L171.194 213.955L185.815 191.873L163.515 185.93L163.478 185.917Z" fill="#499AB6"/>
<path d="M126.629 225.165C123.188 225.503 121.747 227.114 122.306 229.999L139.676 271.031C139.935 271.686 140.367 272.258 140.926 272.685C141.486 273.113 142.15 273.381 142.85 273.46C145.814 273.617 147.173 271.905 146.928 268.322L129.536 227.322C128.594 225.937 127.711 225.233 126.888 225.21L126.629 225.165Z" fill="#499AB6"/>
<path d="M155.622 263.782L128.203 264.343L119.217 273.872L164.097 272.049L155.624 263.784L155.622 263.782Z" fill="#02658B"/>
<path d="M184.412 269.191L184.396 288.356V289.004L184.296 292.796L184.186 296.904L184.067 301.344L180.338 444.081C180.102 446.633 181.049 448.047 178.443 448.315C175.82 448.062 175.97 446.625 175.743 444.002L175.853 300.933V295.245L175.861 292.377V288.412L175.869 269.212L184.412 269.191Z" fill="#0F6084"/>
<path d="M141.413 269.263L141.279 288.618V288.895L141.224 290.656L141.002 297.166L140.931 299.196L136.31 443.096C135.962 445.632 136.902 446.991 134.39 447.189C131.767 446.928 131.933 445.489 131.712 442.875L132.676 297.215L132.723 290.232L132.731 288.865V288.675L132.866 269.275L141.413 269.263Z" fill="#0F6084"/>
<path d="M435.436 268.781L435.357 280.981L435.35 282.047L435.3 289.638V289.701L435.245 298.178L434.336 440.626C434.036 443.146 434.194 444.526 431.65 444.757C428.878 444.473 429.826 442.924 429.75 440.128L426.929 298.154L426.756 289.678V289.614L426.803 282.062L426.811 280.909L426.89 268.798L435.436 268.781Z" fill="#0F6084"/>
<path d="M479.122 268.718V269.263L479.043 281.363L479.036 281.979L478.988 289.753V289.824L478.933 298.3L478.056 437.9C477.906 440.681 478.048 442.19 475.307 442.427C472.779 442.166 473.743 440.791 473.458 438.303L470.614 298.273L470.441 289.796V289.725L470.488 281.991L470.496 281.28L470.567 269.367L470.575 269.336V268.727H474.77L479.122 268.718Z" fill="#0F6084"/>
<path d="M116.824 278.232L132.554 288.86L133.129 288.867L481.073 289.821L494.958 281.491L117.471 278.238L116.824 278.232Z" fill="#052440"/>
<path d="M481.192 289.755L481.074 289.818H478.988L478.933 298.294L470.614 298.271L470.441 289.794L435.302 289.699L435.247 298.176L426.928 298.152L426.755 289.676L402.605 289.604L394.776 289.581C394.887 289.565 394.989 289.541 395.1 289.525L426.755 289.612L435.302 289.636L470.441 289.723L478.988 289.747L481.176 289.755H481.192Z" fill="#052440"/>
<path d="M184.293 292.797L184.183 296.905L184.064 301.345L175.848 300.934H175.84L175.848 299.567V292.378H175.856L184.293 292.797Z" fill="#052440"/>
<path d="M141.224 290.655L141.002 297.165L140.931 299.195L132.668 298.784L132.676 297.212L132.723 290.229L141.224 290.655Z" fill="#052440"/>
<path d="M213.183 289.083H213.143L184.396 289.004L184.296 292.796L184.186 296.904L175.851 296.951V295.245L175.859 292.377V288.988L158.44 288.933L141.282 288.894L141.274 290.655H141.227L141.005 297.165L132.679 297.212L132.726 290.229L132.734 288.862H132.56L132.284 288.672H132.734L141.282 288.617L175.859 288.412L184.399 288.356L210.761 288.198C211.637 288.255 212.477 288.562 213.183 289.083V289.083Z" fill="#052440"/>
<path d="M150.554 199.42L124.215 216.339C123.075 218.414 123.054 220.008 124.152 221.122C124.189 221.077 124.227 221.033 124.268 220.99C124.647 220.599 125.165 220.375 125.709 220.366H125.717C125.988 220.363 126.256 220.412 126.507 220.513C126.758 220.613 126.987 220.762 127.181 220.951C127.375 221.14 127.529 221.365 127.636 221.614C127.742 221.862 127.799 222.129 127.802 222.4C127.802 222.426 127.802 222.452 127.802 222.478L153.792 205.571C155.444 204.404 154.392 202.356 150.637 199.426L150.554 199.42Z" fill="#499AB6"/>
<path d="M496.258 268.687L111.6 269.309L111.621 282.555L495.9 281.949L496.262 268.689L496.258 268.687Z" fill="#02658B"/>
<path d="M122.681 224.513C122.927 224.705 123.164 224.874 123.392 225.02C123.165 224.869 122.928 224.701 122.681 224.513Z" fill="#052440"/>
<path d="M127.409 223.624C127.35 223.704 127.286 223.781 127.218 223.853L127.17 223.899C126.795 225.115 126.173 225.723 125.302 225.722C124.616 225.671 123.958 225.428 123.402 225.022C124.067 225.533 124.862 225.849 125.696 225.933C126.665 225.933 127.236 225.162 127.409 223.621V223.624Z" fill="#052440"/>
<path d="M156.888 197.961C157.09 198.13 157.263 198.331 157.401 198.555C157.692 198.873 157.906 199.255 158.025 199.669C158.143 200.084 158.164 200.521 158.085 200.945C158.268 200.386 158.248 199.78 158.029 199.234C157.809 198.689 157.404 198.238 156.885 197.961H156.888Z" fill="#052440"/>
<path d="M141.485 209.767C141.214 209.767 140.948 209.848 140.723 210C140.498 210.151 140.323 210.367 140.221 210.619L130.721 236.21C130.597 236.546 130.61 236.917 130.758 237.243C130.905 237.569 131.175 237.825 131.509 237.954C131.843 238.083 132.214 238.076 132.543 237.934C132.871 237.791 133.131 237.526 133.265 237.194L142.776 211.559C142.843 211.355 142.861 211.139 142.829 210.927C142.797 210.715 142.716 210.514 142.591 210.34C142.467 210.165 142.303 210.023 142.113 209.923C141.924 209.824 141.713 209.77 141.499 209.768L141.485 209.767Z" fill="#02658B"/>
<path d="M164.1 185.455L156.02 196.175L160.925 198.631L164.88 186.29L164.447 186.175C164.343 185.929 164.228 185.689 164.1 185.455V185.455Z" fill="#02658B"/>
<path d="M130.942 240.148C130.721 240.149 130.504 240.202 130.309 240.305C130.113 240.407 129.945 240.555 129.82 240.737C129.694 240.918 129.615 241.128 129.588 241.347C129.561 241.566 129.587 241.788 129.665 241.994L140.4 266.901C140.553 267.217 140.822 267.461 141.15 267.583C141.478 267.706 141.841 267.698 142.163 267.56C142.486 267.423 142.743 267.167 142.881 266.845C143.02 266.523 143.03 266.16 142.908 265.831L132.172 240.924C132.063 240.697 131.894 240.504 131.682 240.367C131.47 240.23 131.224 240.154 130.972 240.148H130.942Z" fill="#02658B"/>
<path d="M160.483 199.358V199.35C160.443 198.988 160.361 198.633 160.238 198.291V198.284C160.191 198.141 160.138 197.999 160.08 197.857C159.856 197.367 159.564 196.912 159.211 196.506C158.719 195.934 158.107 195.478 157.418 195.171H157.41C157.317 195.118 157.219 195.073 157.118 195.037L157.102 195.029C157.046 195.006 156.987 194.988 156.928 194.974C156.369 194.781 155.782 194.682 155.19 194.681C154.439 194.687 153.698 194.846 153.01 195.147C151.728 195.743 150.726 196.81 150.21 198.126C149.998 198.681 149.883 199.269 149.87 199.864C149.849 200.665 150.006 201.46 150.328 202.194C150.613 202.834 151.021 203.412 151.53 203.895C152.038 204.377 152.637 204.755 153.291 205.006C153.571 205.111 153.859 205.193 154.152 205.251C154.5 205.323 154.855 205.36 155.21 205.362C155.959 205.356 156.698 205.198 157.383 204.896C158.022 204.609 158.598 204.198 159.079 203.689C159.559 203.179 159.934 202.58 160.183 201.925C160.496 201.107 160.599 200.225 160.483 199.358ZM157.3 201.207C157.116 201.462 156.883 201.679 156.614 201.844C156.346 202.01 156.047 202.12 155.736 202.17C155.605 202.188 155.473 202.199 155.341 202.202C154.84 202.202 154.353 202.042 153.95 201.744C153.436 201.372 153.089 200.813 152.986 200.187C152.933 199.876 152.943 199.558 153.015 199.252C153.087 198.945 153.22 198.656 153.405 198.402C153.776 197.886 154.335 197.537 154.961 197.43C155.092 197.415 155.224 197.407 155.356 197.407C155.857 197.406 156.346 197.561 156.756 197.849V197.857C156.811 197.897 156.866 197.944 156.914 197.975C156.985 198.047 157.048 198.11 157.114 198.181C157.144 198.203 157.171 198.229 157.193 198.26C157.217 198.291 157.24 198.323 157.256 198.347C157.311 198.41 157.361 198.477 157.406 198.547C157.649 198.951 157.769 199.418 157.751 199.889C157.734 200.361 157.579 200.817 157.306 201.202L157.3 201.207Z" fill="#02658B"/>
<path d="M130.7 220.585C130.682 220.525 130.661 220.467 130.637 220.411C130.354 219.767 129.947 219.186 129.438 218.701C128.93 218.215 128.33 217.835 127.674 217.583L127.659 217.575C127.044 217.35 126.394 217.232 125.739 217.227C125.007 217.23 124.284 217.383 123.614 217.678C123.597 217.679 123.581 217.684 123.566 217.693C122.277 218.272 121.271 219.34 120.767 220.661C120.264 221.982 120.305 223.448 120.882 224.739C121.279 225.632 121.916 226.398 122.722 226.951C123.067 227.19 123.438 227.389 123.828 227.543C124.45 227.776 125.108 227.899 125.772 227.907C126.513 227.902 127.244 227.743 127.92 227.441C128.338 227.25 128.73 227.008 129.089 226.722C129.986 226.011 130.629 225.029 130.919 223.922C131.21 222.815 131.134 221.643 130.701 220.584L130.7 220.585ZM125.707 220.364H125.715C125.986 220.359 126.255 220.407 126.506 220.507C126.758 220.607 126.987 220.755 127.181 220.944C127.375 221.133 127.53 221.358 127.636 221.607C127.743 221.855 127.799 222.123 127.801 222.394V222.473C127.787 222.888 127.647 223.29 127.401 223.626C127.344 223.707 127.281 223.784 127.211 223.855L127.164 223.903C126.787 224.263 126.286 224.466 125.764 224.472C125.219 224.477 124.693 224.267 124.302 223.887C123.911 223.506 123.687 222.986 123.678 222.441C123.675 222.172 123.725 221.905 123.826 221.656C123.926 221.406 124.075 221.179 124.263 220.988C124.45 220.792 124.674 220.636 124.922 220.529C125.171 220.422 125.438 220.365 125.708 220.364H125.707Z" fill="#02658B"/>
<path d="M95.4 321.36C95.4 321.36 104.964 311.892 115.8 318.931C126.636 325.97 127.344 345.962 127.344 345.962C127.344 345.962 121.29 341.316 114.955 341.035C108.62 340.754 88.232 329.844 95.4 321.36Z" fill="#88BDD1"/>
<path d="M85.8341 373.284C85.8341 373.284 84.4121 363.418 90.4661 359.054C96.5201 354.69 108.115 353 110.624 350.607C110.624 350.607 111.866 361.87 105.671 367.783C99.4761 373.696 88.8001 375.405 85.8341 373.284Z" fill="#88BDD1"/>
<path d="M71.0731 355.474C71.0731 355.474 69.7731 360.04 62.4501 358.913C55.1271 357.786 46.1191 351.452 43.1621 351.592C43.1621 351.592 49.9201 346.383 57.9451 347.369C65.9701 348.355 70.8261 352.175 71.0731 355.474Z" fill="#88BDD1"/>
<path d="M75.6771 343.026C75.6771 343.026 67.9171 345.258 63.4121 341.316C58.9071 337.374 55.8441 326.252 55.4041 325.97C54.9641 325.688 71.6201 328.308 75.6771 335.97C79.7341 343.632 75.6771 343.026 75.6771 343.026Z" fill="#63AAC6"/>
<path d="M65.7861 308.389C65.7861 308.389 65.1251 311.328 58.5081 311.189C51.8911 311.05 45.8371 315.553 41.7541 317.665C37.6711 319.777 24.1541 317.806 24.0151 317.665C23.8761 317.524 24.5781 314.565 30.2151 311.752C35.8521 308.939 40.2151 299.363 48.7991 299.504C57.3831 299.645 65.3211 304.184 65.7861 308.389Z" fill="#63AAC6"/>
<path d="M69.4061 375.893C68.8717 372.323 67.1395 369.042 64.4939 366.587C61.8482 364.132 58.4465 362.649 54.8471 362.383C41.6131 360.883 36.5471 368.065 36.5471 368.065C36.5471 368.065 43.4471 374.006 50.3471 375.893C57.2471 377.78 65.6621 377.525 69.4061 375.893Z" fill="#63AAC6"/>
<path d="M120.934 335.207C112.404 325.02 104.141 320.118 97.0541 321.027C91.5671 321.727 86.8771 325.952 83.0981 333.559C83.3751 329.559 83.5681 326.91 86.2661 322.953C89.7771 317.803 90.7531 308.622 90.7661 308.53L90.4211 308.494C90.4111 308.585 89.4451 317.68 85.9821 322.757C83.6886 325.926 82.4147 329.719 82.3301 333.629C82.2511 334.759 82.1631 336.04 82.0051 337.462C81.8731 338.651 81.7741 339.811 81.6791 340.932C81.2791 345.61 81.3151 347.31 79.0041 348.752C78.3141 327.766 77.3231 309.209 75.7501 302.705L74.3991 303.032C75.0991 305.945 75.7061 311.844 76.2171 319.403C68.7361 308.975 61.1291 303.358 53.5911 302.728C51.3835 302.543 49.1613 302.815 47.0633 303.526C44.9653 304.238 43.0365 305.374 41.3971 306.864L41.6461 307.105C43.2506 305.654 45.1361 304.547 47.1858 303.853C49.2355 303.16 51.4057 302.895 53.5621 303.074C61.1031 303.704 68.7361 309.428 76.2621 320.062C76.6621 326.055 77.0001 333.038 77.2921 340.384C73.6433 337.835 69.8609 335.483 65.9611 333.337L65.7951 333.642C69.763 335.823 73.6073 338.222 77.3101 340.827C77.5831 347.744 77.8101 354.962 78.0051 361.96C73.0481 352.351 53.2151 349.991 52.9971 349.967L52.9591 350.311C53.1791 350.336 73.8151 352.787 78.0281 362.811C78.2611 371.417 78.4361 379.642 78.5641 386.511C75.3861 378.926 67.6751 374.34 61.6071 371.804C56.3451 369.572 50.7733 368.156 45.0841 367.604C44.4841 367.592 44.3451 367.653 44.2931 367.786L44.6151 367.915C44.6047 367.943 44.5853 367.966 44.5601 367.98C45.0761 367.759 53.6991 368.68 62.4251 372.532C68.2831 375.118 75.8021 379.811 78.5821 387.501C78.7691 397.715 78.8471 404.678 78.8501 404.922L80.2391 404.907C80.2271 403.855 80.1391 395.816 79.9271 384.63C84.8651 369.362 106.014 354.23 106.854 354.061L106.786 353.72C106.093 353.858 100.075 358.185 93.8691 364.256C88.8181 369.196 82.5861 376.349 79.9081 383.643C79.7271 374.173 79.4611 362.599 79.0861 351.128C81.6991 349.671 82.0341 345.796 82.4491 340.911C82.5431 339.792 82.6421 338.635 82.7731 337.45C82.8931 336.373 82.9731 335.379 83.0391 334.469C86.8261 326.486 91.5581 322.078 97.1031 321.369C104.068 320.469 112.222 325.337 120.673 335.427C121.149 335.996 121.173 336.027 121.25 336.05L121.321 335.839L121.402 335.739C121.354 335.708 121.16 335.475 120.934 335.207Z" fill="#273137"/>
<path d="M61.7851 399.724C60.7131 408.024 61.2318 415.454 63.3411 422.014C65.1084 428.206 68.6089 433.764 73.4301 438.033L87.2241 437.661C89.3795 434.979 90.9924 432.817 92.0631 431.174C96.7651 424.825 98.8985 414.433 98.4631 399.998L61.8631 399.724" fill="#2E7999"/>
<path d="M96.3271 422.119C95.7022 423.166 94.8208 424.036 93.7661 424.648C92.4229 425.432 90.9616 425.993 89.4391 426.309C88.7398 426.536 85.8231 427.044 80.6891 427.835C79.9006 427.976 79.1198 428.157 78.3501 428.378C76.9964 428.742 75.7425 429.407 74.6821 430.324C73.9231 431.03 73.2637 431.836 72.7221 432.719L71.0481 435.419L70.9701 435.554C71.7394 436.396 72.5591 437.221 73.4291 438.029L87.2231 437.657C88.1351 436.524 88.9498 435.482 89.6671 434.532C90.6051 433.29 91.3688 432.221 91.9581 431.325V431.319C92.9615 429.963 93.8211 428.506 94.5231 426.972C95.244 425.403 95.8441 423.781 96.3181 422.12L96.3271 422.119Z" fill="#0F6084"/>
<path d="M98.5141 404.19L82.6491 404.754C81.7824 407.116 80.7158 408.65 79.4491 409.354C78.6913 409.8 77.8632 410.114 77.0001 410.284C76.8794 410.35 75.0598 410.654 71.5411 411.196C70.7631 411.337 70.0581 411.492 69.4261 411.66C68.3551 411.933 67.316 412.318 66.3261 412.81C64.7078 413.639 63.2078 414.682 61.8661 415.91V415.91C62.1391 417.604 62.5178 419.28 63.0001 420.928C63.6931 423.525 64.6655 426.04 65.9001 428.428V428.428C67.0774 424.774 68.5044 422.377 70.1811 421.239C71.6653 420.176 73.3777 419.476 75.1811 419.194C76.2791 418.984 77.3878 418.834 78.5021 418.746L86.1721 418.313C87.5374 418.213 88.7708 418.08 89.8721 417.913C92.0596 417.647 94.1883 417.023 96.1721 416.064C96.7561 415.814 97.303 415.485 97.7971 415.087C98.2797 411.473 98.5209 407.832 98.5191 404.187L98.5141 404.19Z" fill="#0F6084"/>
<path d="M61.3621 404.105C61.3221 404.741 61.2921 405.372 61.2721 405.998L98.4771 406.455C98.4944 405.833 98.5057 405.202 98.5111 404.561L61.3611 404.105H61.3621Z" fill="#00315C"/>
<path d="M62.1291 399.439C61.5182 399.44 60.9305 399.672 60.4846 400.09C60.0388 400.508 59.7682 401.079 59.7274 401.689C59.6867 402.298 59.8788 402.901 60.265 403.374C60.6513 403.847 61.2028 404.156 61.8081 404.239C61.9195 404.253 62.0318 404.261 62.1441 404.261L97.7501 404.544C98.3674 404.56 98.9676 404.34 99.427 403.927C99.8863 403.514 100.17 402.941 100.219 402.326C100.268 401.71 100.08 401.099 99.6916 400.619C99.3037 400.138 98.7462 399.825 98.1341 399.744C98.0275 399.728 97.9199 399.72 97.8121 399.719L62.2071 399.436" fill="#0F6084"/>
<path d="M67.8341 399.363C67.2093 399.367 66.6104 399.613 66.1635 400.05C65.7167 400.487 65.4568 401.08 65.4386 401.704C65.4205 402.329 65.6455 402.936 66.0662 403.398C66.487 403.86 67.0706 404.14 67.6941 404.18L75.4301 404.334C76.0554 404.332 76.6555 404.087 77.1036 403.651C77.5518 403.215 77.8129 402.622 77.832 401.997C77.8511 401.372 77.6266 400.764 77.2059 400.301C76.7851 399.839 76.2011 399.557 75.5771 399.517L67.8421 399.363" fill="#4790B0"/>
<path d="M188.731 105.165C188.418 105.167 188.119 105.289 187.893 105.506C187.668 105.722 187.533 106.016 187.518 106.328C187.502 106.641 187.607 106.947 187.81 107.184C188.013 107.422 188.299 107.573 188.61 107.606L245.11 107.72L261.938 126.231C262.047 126.355 262.181 126.456 262.331 126.527C262.481 126.598 262.643 126.637 262.809 126.643C263.998 126.409 264.331 125.742 263.809 124.643L246.626 105.738C246.489 105.57 246.312 105.44 246.11 105.36L245.685 105.276L188.851 105.167" fill="#7FC6DB"/>
<path d="M187.724 47.6455L66.89 48.1855C66.5847 48.1965 66.2945 48.3214 66.0766 48.5355C65.8586 48.7496 65.7286 49.0374 65.712 49.3425C65.832 50.2225 66.259 50.6525 66.993 50.6325L186.382 50.0995L186.309 153.728C186.312 154.032 186.429 154.325 186.637 154.548C186.845 154.772 187.128 154.909 187.432 154.935C188.169 154.977 188.61 154.561 188.756 153.688L188.948 48.9105C188.958 48.6095 188.856 48.3156 188.663 48.0847C188.469 47.8538 188.198 47.7021 187.9 47.6585" fill="#7FC6DB"/>
<path d="M165.344 55.4186C165.02 55.4186 164.712 55.4302 164.421 55.4536C164.043 55.4642 163.665 55.4942 163.287 55.5436C162.904 55.5973 162.524 55.6744 162.15 55.7746C161.771 55.8606 161.354 55.9746 160.898 56.1166C160.943 56.5406 161.029 56.9593 161.155 57.3666C161.26 57.7472 161.394 58.1192 161.555 58.4796C162.086 58.289 162.628 58.1301 163.178 58.0036C163.733 57.9058 164.296 57.8616 164.859 57.8716C164.975 57.8716 165.095 57.8716 165.219 57.8716C166.311 57.8233 167.388 58.1338 168.286 58.7556C168.63 59.0243 168.903 59.3729 169.083 59.771C169.262 60.1691 169.341 60.6049 169.314 61.0406C169.317 61.5764 169.2 62.1059 168.971 62.5906C168.745 63.0321 168.428 63.4208 168.041 63.7316C167.594 64.0692 167.102 64.3447 166.581 64.5506C165.948 64.7843 165.302 64.979 164.645 65.1336L164.545 69.7166C164.752 69.7586 164.968 69.7906 165.194 69.8166C165.42 69.8426 165.637 69.8536 165.844 69.8586H166.037C166.439 69.8602 166.84 69.8311 167.237 69.7716L167.297 66.8576C167.758 66.702 168.206 66.5125 168.639 66.2906C169.231 66.0121 169.782 65.6519 170.274 65.2206C170.829 64.7345 171.299 64.1601 171.667 63.5206C172.079 62.7702 172.292 61.9266 172.284 61.0706C172.327 60.3155 172.203 59.5602 171.918 58.8593C171.634 58.1584 171.198 57.5293 170.641 57.0176C169.226 55.8911 167.447 55.3219 165.641 55.4176L165.344 55.4186ZM165.71 72.4906C165.483 72.4908 165.256 72.5045 165.031 72.5316C164.764 72.5456 164.5 72.5686 164.237 72.6006C164.194 72.8636 164.16 73.1276 164.137 73.3906C164.114 73.6536 164.098 73.9186 164.092 74.1826C164.086 74.4466 164.092 74.7106 164.104 74.9756C164.118 75.2209 164.141 75.4759 164.173 75.7406C164.425 75.7885 164.68 75.8219 164.936 75.8406C165.237 75.8653 165.519 75.8806 165.784 75.8866H166.012C166.2 75.8866 166.388 75.8816 166.576 75.8726C166.843 75.8586 167.098 75.8352 167.342 75.8026C167.385 75.5399 167.419 75.2766 167.442 75.0126C167.466 74.7486 167.481 74.4856 167.487 74.2206C167.493 73.9556 167.487 73.6926 167.475 73.4286C167.461 73.1826 167.438 72.9272 167.406 72.6626L166.616 72.5336C166.352 72.5086 166.088 72.4946 165.824 72.4886L165.71 72.4906Z" fill="#7FC6DB"/>
<path d="M164.932 85.4212C164.608 85.4212 164.3 85.4329 164.008 85.4562C163.631 85.4676 163.253 85.4976 162.874 85.5462C162.491 85.6001 162.112 85.6772 161.738 85.7772C161.359 85.8646 160.941 85.9786 160.485 86.1192C160.531 86.5435 160.617 86.9625 160.743 87.3702C160.848 87.7504 160.982 88.1221 161.143 88.4822C161.674 88.2919 162.216 88.1329 162.766 88.0062C163.321 87.9084 163.884 87.8642 164.447 87.8742C164.563 87.8742 164.683 87.8742 164.807 87.8742C165.898 87.8261 166.975 88.1366 167.873 88.7582C168.217 89.0269 168.491 89.3754 168.67 89.7735C168.849 90.1716 168.929 90.6074 168.902 91.0432C168.905 91.5791 168.787 92.1088 168.558 92.5932C168.333 93.036 168.017 93.4262 167.63 93.7382C167.183 94.0766 166.692 94.3521 166.17 94.5572C165.537 94.7911 164.89 94.9858 164.233 95.1402L164.139 99.7232C164.346 99.7652 164.562 99.7986 164.788 99.8232C165.014 99.8472 165.231 99.8602 165.438 99.8652H165.631C166.033 99.8668 166.434 99.8377 166.831 99.7782L166.891 96.8642C167.351 96.7086 167.8 96.5195 168.232 96.2982C168.825 96.0193 169.375 95.6592 169.868 95.2282C170.422 94.7415 170.893 94.1672 171.261 93.5282C171.673 92.7778 171.886 91.9343 171.878 91.0782C171.921 90.3232 171.796 89.5681 171.512 88.8672C171.228 88.1664 170.792 87.5373 170.235 87.0252C168.82 85.8995 167.041 85.3304 165.235 85.4252L164.932 85.4212ZM165.298 102.493C165.071 102.493 164.844 102.507 164.619 102.535C164.354 102.548 164.09 102.571 163.825 102.603C163.782 102.866 163.748 103.13 163.725 103.394C163.7 103.657 163.686 103.921 163.68 104.185C163.674 104.449 163.68 104.713 163.692 104.978C163.706 105.223 163.729 105.478 163.761 105.743C164.013 105.791 164.267 105.825 164.523 105.843C164.823 105.868 165.107 105.883 165.371 105.889H165.6C165.788 105.889 165.976 105.889 166.164 105.875C166.431 105.861 166.686 105.838 166.93 105.806C166.973 105.542 167.007 105.279 167.03 105.015C167.053 104.751 167.069 104.488 167.075 104.224C167.081 103.96 167.075 103.695 167.063 103.431C167.049 103.185 167.026 102.93 166.993 102.665L166.204 102.536C165.937 102.512 165.673 102.497 165.412 102.491L165.298 102.493Z" fill="#7FC6DB"/>
<path d="M164.687 112.682C164.363 112.682 164.055 112.694 163.764 112.717C163.386 112.728 163.008 112.758 162.63 112.807C162.247 112.861 161.867 112.938 161.493 113.038C161.114 113.125 160.696 113.239 160.241 113.38C160.286 113.805 160.372 114.224 160.498 114.631C160.603 115.011 160.737 115.383 160.898 115.743C161.429 115.553 161.971 115.394 162.521 115.267C163.076 115.169 163.639 115.125 164.202 115.135C164.318 115.135 164.438 115.135 164.562 115.135C165.653 115.087 166.731 115.398 167.629 116.019C167.973 116.288 168.246 116.637 168.425 117.035C168.604 117.433 168.684 117.869 168.657 118.304C168.66 118.84 168.543 119.37 168.314 119.854C168.088 120.296 167.772 120.684 167.385 120.995C166.938 121.333 166.446 121.609 165.924 121.814C165.291 122.048 164.645 122.243 163.988 122.397L163.893 126.98C164.1 127.022 164.316 127.056 164.542 127.08C164.768 127.105 164.985 127.119 165.192 127.122H165.385C165.787 127.124 166.188 127.095 166.585 127.035L166.645 124.121C167.106 123.966 167.554 123.776 167.987 123.555C168.579 123.276 169.129 122.916 169.622 122.485C170.177 121.999 170.648 121.425 171.015 120.785C171.427 120.035 171.64 119.191 171.632 118.335C171.675 117.58 171.55 116.825 171.266 116.124C170.982 115.424 170.546 114.795 169.989 114.283C168.574 113.157 166.795 112.588 164.989 112.683C164.882 112.683 164.784 112.682 164.687 112.682ZM165.053 129.754C164.826 129.754 164.599 129.768 164.374 129.796C164.107 129.809 163.843 129.832 163.58 129.864C163.537 130.128 163.503 130.391 163.48 130.655C163.457 130.919 163.441 131.182 163.435 131.446C163.429 131.71 163.435 131.975 163.447 132.239C163.461 132.485 163.484 132.741 163.516 133.005C163.768 133.053 164.023 133.086 164.279 133.105C164.58 133.13 164.863 133.145 165.127 133.151H165.355C165.543 133.151 165.731 133.151 165.919 133.137C166.186 133.125 166.441 133.102 166.685 133.068C166.728 132.806 166.761 132.542 166.785 132.277C166.809 132.013 166.824 131.749 166.83 131.486C166.835 131.22 166.831 130.955 166.818 130.693C166.804 130.448 166.781 130.193 166.749 129.928L165.959 129.798C165.692 129.774 165.428 129.76 165.167 129.754H165.053Z" fill="#7FC6DB"/>
<path d="M164.674 140.344C164.349 140.344 164.041 140.355 163.75 140.379C163.373 140.39 162.995 140.42 162.616 140.468C162.233 140.523 161.853 140.6 161.479 140.7C161.1 140.786 160.683 140.9 160.227 141.042C160.272 141.466 160.358 141.885 160.484 142.292C160.589 142.672 160.723 143.044 160.884 143.404C161.415 143.214 161.957 143.055 162.507 142.928C163.062 142.831 163.624 142.787 164.187 142.797C164.304 142.797 164.424 142.797 164.547 142.797C165.639 142.749 166.716 143.059 167.614 143.681C167.958 143.95 168.231 144.299 168.411 144.697C168.59 145.095 168.669 145.531 168.642 145.966C168.654 146.483 168.546 146.995 168.325 147.463C168.104 147.93 167.777 148.339 167.37 148.657C166.922 148.995 166.431 149.27 165.91 149.476C165.277 149.71 164.63 149.904 163.973 150.058L163.879 154.641C164.085 154.683 164.302 154.716 164.528 154.741C164.754 154.766 164.97 154.778 165.178 154.782C165.242 154.782 165.307 154.782 165.37 154.782C165.772 154.784 166.173 154.755 166.57 154.696L166.63 151.782C167.091 151.627 167.539 151.437 167.972 151.215C168.565 150.937 169.115 150.577 169.607 150.145C170.162 149.659 170.633 149.085 171.001 148.445C171.413 147.695 171.625 146.852 171.617 145.996C171.661 145.241 171.536 144.486 171.252 143.785C170.968 143.084 170.532 142.455 169.975 141.943C168.56 140.817 166.781 140.248 164.975 140.343L164.674 140.344ZM165.04 157.416C164.813 157.416 164.586 157.43 164.361 157.457C164.094 157.471 163.83 157.494 163.567 157.526C163.523 157.789 163.49 158.053 163.467 158.316C163.444 158.579 163.428 158.844 163.423 159.108C163.418 159.372 163.423 159.636 163.435 159.9C163.449 160.146 163.472 160.402 163.504 160.666C163.756 160.714 164.01 160.748 164.266 160.766C164.567 160.792 164.85 160.807 165.114 160.811C165.19 160.811 165.266 160.811 165.343 160.811C165.531 160.811 165.719 160.806 165.907 160.796C166.174 160.784 166.429 160.761 166.672 160.727C166.716 160.464 166.749 160.201 166.772 159.937C166.795 159.673 166.811 159.409 166.816 159.145C166.821 158.881 166.816 158.617 166.804 158.353C166.79 158.107 166.767 157.852 166.735 157.587L165.945 157.458C165.682 157.434 165.419 157.419 165.154 157.413L165.04 157.416Z" fill="#7FC6DB"/>
<path d="M276.082 259.372H257.7C257.7 259.372 241.427 263.802 241.266 264.325C240.997 266.051 240.873 267.797 240.896 269.544L276.579 269.31C276.579 269.31 281.709 264.97 276.082 259.372Z" fill="#834B48"/>
<path d="M260.976 181.739C259.3 182.018 262.576 175.3 259.053 176.608L258.553 176.814C251.801 179.593 246.383 184.872 243.427 191.549C243.347 191.73 243.276 191.893 243.213 192.036C241.848 195.379 240.94 198.89 240.513 202.476L239.929 206.81C241.867 204.939 243.667 204.004 245.329 204.004C245.879 204.003 246.424 204.108 246.935 204.311C248.47 204.908 249.896 205.753 251.158 206.811C252.008 207.453 253.18 208.453 254.673 209.811C254.864 203.055 255.044 195.963 255.212 188.537C255.247 186.914 255.839 185.354 256.888 184.116C257.937 182.878 259.379 182.038 260.973 181.737L260.976 181.739Z" fill="#EDC025"/>
<path d="M281.027 186.524L274.185 197.138C273.825 197.441 273.491 197.773 273.185 198.129C273.32 198.109 273.449 198.094 273.575 198.083C274.004 198.029 274.436 198.002 274.868 198.002C276.068 198.002 274.644 209.419 275.984 209.814C275.984 209.814 282.412 200.07 283.961 201.236C285.701 202.639 287.241 204.272 288.539 206.09C288.939 201.278 288.472 197.544 287.139 194.89C286.281 192.871 284.245 190.084 281.032 186.53L281.027 186.524Z" fill="#EDC025"/>
<path d="M262.8 175.685L258.023 182.221C257.816 182.5 257.684 182.827 257.639 183.171C257.595 183.516 257.639 183.866 257.767 184.189C258.681 186.465 260.945 193.812 266.658 196.773C267.722 197.32 268.913 197.569 270.107 197.493C271.301 197.418 272.452 197.021 273.438 196.345L280.924 191.233L262.8 175.685Z" fill="#693F3B"/>
<path d="M268.254 180.886C266.841 181.725 266.04 182.505 264.41 182.279C262.78 182.053 260.831 179.947 261.01 178.224C259.716 178.841 258.596 178.098 257.57 177.004C256.544 175.91 256.062 174.776 256.649 173.404C255.992 173.479 255.33 173.322 254.777 172.96C254.224 172.598 253.815 172.053 253.622 171.421C253.368 170.835 253.332 170.178 253.52 169.567C253.708 168.957 254.107 168.434 254.647 168.093C252.579 166.32 251.647 162.951 253.226 160.772C251.06 158.921 251.101 154.893 253.304 153.222C252.104 152.676 251.929 150.587 252.026 149.222C252.078 148.624 252.284 148.05 252.623 147.555C252.963 147.06 253.425 146.662 253.964 146.399C254.294 146.192 254.34 145.144 254.281 144.819C254.193 144.311 254.212 143.791 254.334 143.29C254.457 142.79 254.682 142.32 254.995 141.911C255.307 141.501 255.701 141.161 256.152 140.911C256.602 140.661 257.099 140.506 257.612 140.457C257.712 138.385 259.637 136.283 261.539 136.831C262.128 134.44 264.886 132.548 267.106 133.414C267.721 132.298 268.711 131.436 269.9 130.979C271.09 130.523 272.402 130.502 273.606 130.92C275.165 129.076 277.856 129.086 279.995 130.225C281.579 129.235 283.947 128.618 285.243 130.073C285.461 130.39 285.716 130.68 286.003 130.937C286.697 131.41 287.567 130.945 288.36 130.769C289.275 130.635 290.207 130.854 290.966 131.382C291.725 131.911 292.255 132.708 292.447 133.613C293.591 133.412 294.767 133.518 295.857 133.919C296.412 134.158 296.868 134.582 297.148 135.119C297.427 135.655 297.513 136.271 297.391 136.864C297.878 136.61 298.431 136.512 298.975 136.583C299.52 136.655 300.029 136.892 300.433 137.264C300.847 137.661 301.144 138.165 301.291 138.719C301.437 139.274 301.429 139.859 301.265 140.409C301.721 140.599 302.126 140.891 302.45 141.264C302.774 141.636 303.007 142.078 303.131 142.556C303.256 143.034 303.268 143.533 303.167 144.016C303.066 144.5 302.855 144.953 302.55 145.341C302.973 145.61 303.331 145.971 303.597 146.397C303.862 146.823 304.029 147.303 304.085 147.802C304.141 148.3 304.084 148.805 303.919 149.279C303.754 149.753 303.485 150.184 303.132 150.541C304.871 151.941 304.625 155.257 302.71 156.241C304.256 157.573 303.727 160.657 301.855 161.23C302.083 161.567 302.237 161.949 302.305 162.35C302.373 162.751 302.355 163.162 302.25 163.556C302.146 163.949 301.959 164.316 301.701 164.631C301.443 164.945 301.12 165.201 300.755 165.381C301.337 166.688 300.304 168.187 299.073 168.733C297.842 169.279 296.439 169.243 295.162 169.659C293.657 170.291 292.274 171.184 291.079 172.296C286.341 176.054 280.798 178.667 274.884 179.931C274.53 180.052 274.155 180.099 273.782 180.068C273.409 180.038 273.047 179.931 272.717 179.754" fill="#1F1A1A"/>
<path d="M299.236 175.328C298.953 177.676 298.403 179.984 297.596 182.207C296.156 184.934 292.626 192.727 281.256 191.79C269.824 190.848 266.171 177.31 266.171 177.31C266.171 177.31 255.438 175.222 256.051 165.51C256.668 155.748 268.52 159.71 268.52 159.71C268.52 159.71 273.427 159.11 275.409 151.77C275.409 151.77 278.909 145.759 289.709 146.442C300.309 147.112 299.931 154.634 299.915 154.899C299.834 160.665 299.684 171.709 299.236 175.328Z" fill="#824B45"/>
<path d="M282.385 166.848L282.225 166.948C282.052 167.098 281.847 167.204 281.625 167.259C281.452 167.303 281.273 167.32 281.094 167.309L274.573 166.897C274.269 166.875 273.977 166.774 273.724 166.603C273.481 166.448 273.294 166.22 273.188 165.951C273.083 165.683 273.065 165.388 273.137 165.109C273.486 163.882 274.301 162.84 275.407 162.205C276.513 161.57 277.824 161.392 279.059 161.709C279.183 161.727 279.276 161.782 279.382 161.798C280.215 162.003 280.975 162.433 281.58 163.041C282.184 163.649 282.611 164.411 282.812 165.244C282.844 165.353 282.866 165.464 282.877 165.577C282.922 165.814 282.9 166.058 282.813 166.283C282.726 166.508 282.578 166.703 282.385 166.848V166.848Z" fill="white"/>
<path d="M298.567 167.877L298.436 167.977C298.28 168.126 298.09 168.234 297.883 168.291C297.731 168.334 297.573 168.35 297.415 168.338L291.623 167.972C291.35 167.951 291.088 167.852 290.869 167.687C290.651 167.519 290.487 167.291 290.398 167.03C290.309 166.769 290.299 166.488 290.369 166.221C290.81 164.544 292.695 162.013 295.638 162.843C295.75 162.86 295.838 162.914 295.938 162.93C296.701 163.164 297.385 163.601 297.918 164.194C298.45 164.788 298.81 165.516 298.959 166.299C298.991 166.422 298.996 166.529 299.018 166.627C299.057 166.857 299.036 167.093 298.957 167.312C298.878 167.531 298.743 167.725 298.567 167.877Z" fill="white"/>
<path d="M286.487 175.727C286.724 175.711 292.297 175.275 292.615 171.598C292.693 171.156 292.666 170.703 292.535 170.274C292.404 169.845 292.174 169.453 291.863 169.13C291.547 168.878 291.184 168.693 290.795 168.585C290.405 168.477 289.999 168.448 289.598 168.501L289.45 162.174L288.408 162.209L288.588 169.82L289.206 169.667C289.538 169.574 289.885 169.553 290.225 169.605C290.566 169.657 290.891 169.78 291.18 169.967C291.36 170.175 291.489 170.422 291.559 170.688C291.628 170.955 291.635 171.233 291.58 171.503C291.344 174.24 286.48 174.622 286.428 174.625L286.487 175.727Z" fill="#451A16"/>
<path d="M287.922 179.91C287.874 180.26 287.822 180.658 287.778 181.024C285.806 180.674 282.449 180.34 280.81 181.74C280.46 181.66 280.127 181.581 279.81 181.501C281.083 179.337 283.883 179.528 286.094 179.672C286.708 179.71 287.319 179.79 287.922 179.91Z" fill="#451A16"/>
<path d="M262.833 169.65L263.548 168.845C262.892 167.885 262.383 166.831 262.04 165.719C262.156 165.28 262.362 164.87 262.643 164.513C262.925 164.157 263.278 163.863 263.678 163.648L263.232 162.654C262.674 162.948 262.186 163.359 261.803 163.86C261.42 164.361 261.15 164.939 261.013 165.554C260.814 166.872 261.426 168.25 262.833 169.65Z" fill="#451A16"/>
<path d="M282.6 157.662C282.6 157.662 277.233 156.691 274.221 160.191C274.161 159.16 274.422 158.137 274.97 157.263C275.518 156.388 276.325 155.706 277.278 155.312C280.6 154.056 282.6 157.662 282.6 157.662Z" fill="#1F1A1A"/>
<path d="M298.725 161.114C298.725 161.114 295.257 156.904 290.697 157.628C291.317 156.803 292.178 156.191 293.162 155.878C294.145 155.565 295.201 155.567 296.184 155.882C299.53 157.07 298.725 161.114 298.725 161.114Z" fill="#1F1A1A"/>
<path d="M270.676 157.912C269.309 161.469 268.757 165.288 269.063 169.087L266.563 167.58L265.015 158.849L270.676 157.912Z" fill="#1F1A1A"/>
<path d="M274.555 150.864C274.504 151.167 274.52 151.477 274.602 151.772C274.684 152.068 274.829 152.342 275.029 152.575C275.228 152.808 275.477 152.994 275.756 153.121C276.035 153.247 276.339 153.311 276.646 153.307C277.267 153.237 277.855 152.994 278.344 152.605C278.833 152.215 279.202 151.696 279.409 151.107C279.49 151.555 279.735 151.957 280.096 152.234C280.458 152.512 280.909 152.645 281.363 152.607C281.814 152.545 282.246 152.383 282.626 152.133C283.007 151.883 283.327 151.551 283.563 151.161C283.673 151.716 283.96 152.22 284.381 152.597C284.803 152.974 285.335 153.205 285.898 153.253C286.462 153.302 287.026 153.166 287.505 152.866C287.985 152.566 288.354 152.119 288.557 151.591C290.199 154.698 292.286 153.052 293.279 151.437C293.31 151.891 293.462 152.328 293.719 152.703C293.977 153.077 294.33 153.376 294.742 153.568C294.951 153.647 295.173 153.682 295.396 153.671C295.618 153.661 295.836 153.605 296.037 153.508C296.237 153.41 296.415 153.273 296.561 153.104C296.706 152.935 296.816 152.739 296.883 152.526C297.081 152.855 297.344 153.139 297.656 153.362C297.968 153.585 298.322 153.741 298.697 153.822C299.071 153.903 299.459 153.906 299.835 153.832C300.211 153.757 300.567 153.607 300.883 153.389C301.086 153.248 301.258 153.067 301.39 152.858C301.522 152.649 301.611 152.416 301.652 152.172C301.669 151.764 301.595 151.358 301.436 150.982C301.047 149.667 300.472 148.414 299.726 147.263C297.771 144.522 294.274 143.497 290.994 143.017C288.054 142.539 285.06 142.499 282.109 142.899C280.35 143.121 278.652 143.684 277.109 144.557C275.542 145.457 274.333 146.87 273.687 148.557" fill="#1F1A1A"/>
<path d="M282.2 165.605C282.167 166.199 281.97 166.773 281.631 167.262C281.458 167.306 281.279 167.323 281.1 167.312L277.274 167.071C276.965 166.524 276.823 165.898 276.866 165.271C276.845 164.891 276.905 164.512 277.042 164.157C277.178 163.802 277.388 163.481 277.658 163.213C277.928 162.945 278.251 162.738 278.607 162.604C278.963 162.471 279.343 162.414 279.723 162.438C280.102 162.462 280.472 162.566 280.808 162.743C281.144 162.921 281.439 163.167 281.673 163.467C281.907 163.766 282.075 164.112 282.166 164.481C282.257 164.85 282.268 165.234 282.2 165.608V165.605Z" fill="#1F1A1A"/>
<path d="M298.4 166.747C298.369 167.3 298.192 167.834 297.888 168.295C297.736 168.338 297.578 168.353 297.42 168.342L293.42 168.09C293.15 167.574 293.028 166.993 293.066 166.411C293.051 166.036 293.115 165.662 293.254 165.312C293.393 164.963 293.603 164.647 293.872 164.385C294.141 164.122 294.462 163.919 294.814 163.788C295.166 163.657 295.542 163.602 295.917 163.625C296.292 163.649 296.658 163.751 296.991 163.925C297.324 164.099 297.616 164.341 297.85 164.635C298.084 164.93 298.253 165.27 298.347 165.634C298.441 165.997 298.457 166.377 298.395 166.747H298.4Z" fill="#1F1A1A"/>
<path d="M225.734 167.259L233.184 160.128L243.86 151.038L249.26 144.188L257.796 143.121L264.414 147.635C264.414 147.635 263.614 150.977 260.851 149.866C259.641 149.436 258.475 148.892 257.367 148.242L253.092 148.687L251.214 151.918C251.214 151.918 256.479 162.645 256.143 162.603C255.807 162.561 252.678 169.842 252.678 169.842C252.678 169.842 237.995 174.995 237.547 174.995C237.099 174.995 230.713 174.211 230.377 174.095C230.041 173.979 226.233 168.053 226.233 168.053" fill="#824B45"/>
<path d="M221.622 169.65C221.394 169.35 226.867 165.15 226.867 165.15L236.673 175.337L230.592 179.746L221.622 169.65Z" fill="#EDC025"/>
<path d="M80.792 40.3379C80.2216 41.2724 79.3967 42.0251 78.414 42.5079C77.2201 43.0849 75.9046 43.3655 74.5791 43.3259C73.2131 43.3492 71.857 43.0912 70.595 42.5679C69.4794 42.1046 68.5092 41.3495 67.786 40.3819C67.0759 39.4098 66.6594 38.2545 66.586 37.0529H71.045C71.1224 37.861 71.4863 38.6147 72.0711 39.1779C72.3842 39.467 72.7517 39.6909 73.1523 39.8365C73.5528 39.9821 73.9783 40.0465 74.404 40.0259C74.7685 40.0504 75.1341 40.001 75.479 39.8807C75.8239 39.7604 76.1409 39.5717 76.4111 39.3259C76.6445 39.0895 76.827 38.8079 76.9474 38.4983C77.0678 38.1888 77.1235 37.8578 77.111 37.5259C77.1326 36.9338 76.9309 36.3553 76.546 35.9049C76.1495 35.4645 75.6628 35.1146 75.119 34.8789C74.5437 34.6229 73.751 34.3259 72.741 33.9879C71.6404 33.6364 70.5672 33.2042 69.53 32.6949C68.6808 32.2565 67.9501 31.6194 67.4 30.8379C66.778 29.8973 66.4708 28.7834 66.523 27.6569C66.4885 26.8427 66.6469 26.0319 66.9853 25.2905C67.3236 24.5492 67.8324 23.8983 68.47 23.3909C69.9572 22.29 71.78 21.7387 73.628 21.8309C75.5297 21.7298 77.407 22.2956 78.936 23.4309C79.5835 23.9526 80.1168 24.6018 80.5029 25.3382C80.8889 26.0747 81.1194 26.8826 81.18 27.7119H76.66C76.5637 27.0024 76.2278 26.3472 75.7081 25.8549C75.1271 25.3452 74.3696 25.0835 73.598 25.1259C72.9203 25.0943 72.2543 25.3112 71.725 25.7359C71.2972 26.1698 71.044 26.7461 71.014 27.3548C70.9839 27.9634 71.179 28.5619 71.562 29.0359C71.9547 29.4622 72.4314 29.8027 72.962 30.0359C73.7127 30.3642 74.4805 30.6519 75.262 30.8979C76.3818 31.2805 77.4786 31.7273 78.547 32.2359C79.4107 32.6701 80.1517 33.3141 80.702 34.1089C81.336 35.0775 81.6481 36.2215 81.594 37.3779C81.6029 38.4194 81.3255 39.4433 80.792 40.3379V40.3379Z" fill="#7FC6DB"/>
<path d="M92.833 32.438L101.722 43.111H96.638L88.879 33.511V43.111H84.687V22.123H88.879V31.548L96.668 22.123H101.722L92.833 32.438Z" fill="#7FC6DB"/>
<path d="M108.232 22.123V43.113H104.041V22.123H108.232Z" fill="#7FC6DB"/>
<path d="M116.23 39.902H123.276V43.113H112.038V22.123H116.23V39.902Z" fill="#7FC6DB"/>
<path d="M129.965 39.902H137.011V43.113H125.773V22.123H129.965V39.902Z" fill="#7FC6DB"/>
<path d="M153.124 40.338C152.554 41.2725 151.729 42.0252 150.746 42.508C149.552 43.0849 148.237 43.3655 146.911 43.326C145.545 43.3493 144.189 43.0913 142.927 42.568C141.811 42.1047 140.841 41.3496 140.117 40.382C139.407 39.4097 138.991 38.2545 138.917 37.053H143.377C143.454 37.8609 143.818 38.6147 144.402 39.178C144.715 39.4671 145.083 39.691 145.484 39.8366C145.885 39.9822 146.31 40.0466 146.736 40.026C147.1 40.0504 147.466 40.0011 147.811 39.8808C148.156 39.7605 148.473 39.5718 148.743 39.326C148.976 39.0895 149.159 38.8078 149.279 38.4983C149.399 38.1888 149.455 37.8579 149.443 37.526C149.465 36.9339 149.263 36.3554 148.878 35.905C148.481 35.4648 147.995 35.1149 147.451 34.879C146.876 34.623 146.083 34.326 145.072 33.988C143.971 33.6363 142.898 33.2041 141.861 32.695C141.013 32.2549 140.284 31.6173 139.735 30.836C139.114 29.8951 138.807 28.7813 138.859 27.655C138.824 26.8408 138.983 26.0299 139.321 25.2885C139.659 24.5471 140.168 23.8963 140.806 23.389C142.293 22.2881 144.116 21.7368 145.964 21.829C147.865 21.7277 149.743 22.2936 151.271 23.429C151.919 23.9505 152.452 24.5997 152.838 25.3361C153.224 26.0726 153.455 26.8806 153.515 27.71H148.997C148.9 27.0007 148.564 26.3456 148.045 25.853C147.464 25.3434 146.706 25.0818 145.934 25.124C145.256 25.0924 144.59 25.3093 144.061 25.734C143.634 26.1682 143.381 26.7444 143.351 27.3529C143.321 27.9614 143.516 28.5597 143.898 29.034C144.291 29.4603 144.767 29.8008 145.298 30.034C146.049 30.3623 146.816 30.6501 147.598 30.896C148.718 31.2782 149.815 31.725 150.883 32.234C151.747 32.6682 152.488 33.3121 153.039 34.107C153.673 35.0756 153.985 36.2196 153.931 37.376C153.938 38.4185 153.659 39.443 153.124 40.338V40.338Z" fill="#7FC6DB"/>
<path d="M148.763 66.7207H94.2561V74.3287H148.763V66.7207Z" fill="#96CDE3"/>
<path d="M148.763 92.207H94.2561V99.815H148.763V92.207Z" fill="#96CDE3"/>
<path d="M148.763 117.693H94.2561V125.301H148.763V117.693Z" fill="#96CDE3"/>
<path d="M148.763 143.181H94.2561V150.789H148.763V143.181Z" fill="#96CDE3"/>
<path d="M75.194 61.1382L73.224 60.9072L72.96 63.1602C72.875 63.1602 72.789 63.1532 72.703 63.1532C71.9983 63.154 71.2959 63.2362 70.61 63.3982L69.792 61.2402L67.938 61.9402L68.738 64.0572C68.0267 64.403 67.3634 64.84 66.765 65.3572L65.043 63.8182L63.722 65.2962L65.41 66.8062C64.9369 67.4398 64.5489 68.1327 64.256 68.8672L62.021 68.2952L61.529 70.2162L63.724 70.7782C63.5681 71.7285 63.5641 72.6976 63.712 73.6492L61.499 74.2972L62.057 76.1972L64.231 75.5602C64.5194 76.2965 64.9027 76.9921 65.371 77.6292L63.705 79.2292L65.077 80.6602L66.714 79.0922C67.3089 79.6134 67.9691 80.0548 68.678 80.4052L67.935 82.5882L69.813 83.2272L70.542 81.0822C71.2484 81.255 71.9729 81.3423 72.7 81.3422C72.764 81.3422 72.827 81.3422 72.89 81.3422L73.238 83.6262L75.198 83.3262L74.857 81.0862C75.6245 80.8997 76.3641 80.6132 77.057 80.2342L78.416 82.0972L80.016 80.9282L78.679 79.0962C79.2751 78.5764 79.8009 77.981 80.243 77.3252L82.308 78.3532L83.191 76.5782L81.163 75.5682C81.4519 74.8321 81.6429 74.0611 81.731 73.2752L84.039 73.2352L84.004 71.2532L81.739 71.2922C81.6568 70.5046 81.4712 69.7313 81.187 68.9922L83.216 67.8922L82.272 66.1482L80.279 67.2272C79.8421 66.5683 79.3215 65.9689 78.73 65.4442L80.03 63.5332L78.389 62.4212L77.118 64.2962C76.426 63.9108 75.6863 63.618 74.918 63.4252L75.194 61.1382ZM66.854 72.2492C66.854 71.0922 67.1971 69.9611 67.84 68.999C68.4828 68.037 69.3966 67.2872 70.4656 66.8444C71.5346 66.4017 72.7109 66.2859 73.8457 66.5117C74.9805 66.7375 76.0229 67.2948 76.841 68.113C77.6591 68.9312 78.2161 69.9737 78.4417 71.1086C78.6674 72.2434 78.5514 73.4197 78.1084 74.4886C77.6655 75.5575 76.9156 76.4711 75.9534 77.1138C74.9912 77.7565 73.8601 78.0994 72.703 78.0992C71.9345 78.0992 71.1735 77.9478 70.4636 77.6535C69.7536 77.3593 69.1086 76.928 68.5654 76.3843C68.0222 75.8407 67.5915 75.1953 67.2978 74.4851C67.0042 73.7749 66.8534 73.0137 66.854 72.2452V72.2492Z" fill="#7FC6DB"/>
<path d="M74.155 90.5764V102.876C74.155 102.876 69.218 95.7764 64.681 99.6194C60.144 103.462 65.146 110.787 76.43 107.064V94.7384C76.43 94.7384 79.687 97.7624 82.83 95.5524C85.973 93.3424 85.855 91.5974 85.855 91.5974C85.855 91.5974 83.761 94.5054 81.899 91.9464C80.037 89.3874 76.068 88.2784 74.155 90.5764Z" fill="#7FC6DB"/>
<path d="M83.6001 124.892C83.6001 123.561 82.3131 122.53 80.4081 121.817C81.3081 119.817 81.3451 118.241 80.4911 117.387C79.6371 116.533 78.0661 116.567 76.0611 117.47C75.3481 115.565 74.3171 114.278 72.9861 114.278C71.6551 114.278 70.6231 115.565 69.9111 117.471C67.9111 116.566 66.3331 116.534 65.4811 117.387C64.6291 118.24 64.6611 119.813 65.5641 121.817C63.6591 122.53 62.3721 123.561 62.3721 124.892C62.3721 126.223 63.6591 127.254 65.5631 127.967C64.7201 129.818 64.5401 131.457 65.4811 132.397C65.7103 132.611 65.9801 132.775 66.2744 132.882C66.5687 132.989 66.8815 133.035 67.1941 133.018C68.1387 132.973 69.0638 132.733 69.9111 132.313C70.6231 134.219 71.6551 135.506 72.9861 135.506C74.3171 135.506 75.3481 134.219 76.0611 132.314C76.9082 132.732 77.8325 132.97 78.7761 133.014C79.089 133.031 79.4021 132.985 79.6967 132.878C79.9914 132.772 80.2615 132.607 80.4911 132.393C81.4321 131.453 81.2511 129.814 80.4091 127.963C82.3111 127.254 83.6001 126.223 83.6001 124.892ZM76.4061 118.514C77.1423 118.135 77.9487 117.912 78.7751 117.858C79.116 117.831 79.4541 117.938 79.7161 118.158C80.2221 118.664 80.0901 119.901 79.3641 121.467C78.5635 121.243 77.7495 121.069 76.9271 120.947C76.8049 120.125 76.6312 119.31 76.4071 118.509L76.4061 118.514ZM76.1231 124.892C76.1231 125.326 76.1101 125.746 76.0901 126.158C75.8011 126.477 75.5161 126.798 75.2041 127.11C74.8921 127.422 74.5711 127.71 74.2511 127.997C73.8391 128.016 73.4201 128.029 72.9861 128.029C72.5521 128.029 72.1331 128.016 71.7201 127.997C71.4011 127.707 71.0811 127.423 70.7681 127.11C70.4551 126.797 70.1681 126.477 69.8811 126.158C69.8621 125.746 69.8491 125.326 69.8491 124.892C69.8491 124.458 69.8631 124.025 69.8821 123.606C70.1651 123.296 70.4561 122.985 70.7681 122.673C71.0801 122.361 71.4011 122.073 71.7201 121.787C72.1321 121.768 72.5521 121.755 72.9861 121.755C73.4201 121.755 73.8391 121.768 74.2521 121.787C74.5711 122.077 74.8911 122.361 75.2041 122.673C75.5171 122.985 75.8041 123.296 76.0891 123.606C76.1071 124.025 76.1211 124.451 76.1211 124.892H76.1231ZM74.7231 120.717C74.4501 120.476 74.1761 120.242 73.9011 120.017C74.3924 119.666 74.9014 119.341 75.4261 119.042C75.5721 119.581 75.7001 120.17 75.8061 120.805C75.4411 120.769 75.0791 120.738 74.7161 120.717H74.7231ZM71.2591 120.717C70.8961 120.74 70.5341 120.769 70.1761 120.807C70.2821 120.172 70.4101 119.584 70.5561 119.044C71.0805 119.344 71.5894 119.669 72.0811 120.019C71.8001 120.243 71.5251 120.476 71.2521 120.717H71.2591ZM68.8161 123.162C68.5767 123.433 68.3434 123.707 68.1161 123.984C67.7651 123.492 67.4394 122.983 67.1401 122.457C67.6791 122.311 68.2681 122.183 68.9031 122.077C68.8611 122.438 68.8321 122.798 68.8091 123.162H68.8161ZM68.8161 126.624C68.8391 126.987 68.8681 127.349 68.9061 127.707C68.306 127.609 67.7113 127.48 67.1241 127.322C67.427 126.797 67.7561 126.286 68.1101 125.793C68.3314 126.071 68.5644 126.348 68.8091 126.624H68.8161ZM71.2591 129.067C71.5321 129.308 71.8061 129.542 72.0811 129.767C71.5894 130.118 71.0805 130.443 70.5561 130.742C70.4101 130.202 70.2821 129.614 70.1761 128.979C70.5281 129.015 70.8891 129.044 71.2521 129.067H71.2591ZM74.7221 129.067C75.0861 129.044 75.4471 129.015 75.8051 128.977C75.7084 129.571 75.5819 130.159 75.4261 130.74C74.9014 130.442 74.3924 130.116 73.9011 129.765C74.1691 129.538 74.4431 129.308 74.7151 129.067H74.7221ZM77.1661 126.624C77.4101 126.348 77.6454 126.071 77.8721 125.793C78.2261 126.286 78.5551 126.797 78.8581 127.322C78.3131 127.47 77.7181 127.6 77.0761 127.707C77.1071 127.349 77.1361 126.987 77.1591 126.624H77.1661ZM77.1661 123.162C77.1431 122.798 77.1141 122.436 77.0761 122.077C77.7111 122.183 78.2991 122.311 78.8391 122.457C78.5398 122.983 78.2141 123.492 77.8631 123.984C77.6311 123.707 77.4001 123.438 77.1591 123.162H77.1661ZM72.9911 115.374C73.7221 115.374 74.4911 116.327 75.0911 117.961C74.3623 118.364 73.6607 118.815 72.9911 119.31C72.3213 118.815 71.6198 118.365 70.8911 117.961C71.4811 116.327 72.2531 115.374 72.9841 115.374H72.9911ZM66.6131 121.474C65.8861 119.908 65.7551 118.674 66.2611 118.165C66.5221 117.945 66.8597 117.837 67.2001 117.865C68.0265 117.918 68.833 118.142 69.5691 118.521V118.521C69.3445 119.322 69.1708 120.136 69.0491 120.958C68.2263 121.081 67.4121 121.254 66.6111 121.478L66.6131 121.474ZM63.4741 124.895C63.4741 124.164 64.4261 123.395 66.0601 122.795C66.465 123.524 66.9173 124.226 67.4141 124.895C66.9191 125.564 66.4665 126.262 66.0591 126.987C64.4191 126.394 63.4671 125.623 63.4671 124.892L63.4741 124.895ZM69.5691 131.273C68.0041 132 66.7691 132.132 66.2611 131.625C65.7531 131.118 65.8721 129.889 66.6061 128.313C67.4093 128.539 68.2259 128.713 69.0511 128.835C69.1731 129.658 69.3468 130.472 69.5711 131.272L69.5691 131.273ZM72.9911 134.413C72.2601 134.413 71.4911 133.46 70.8911 131.826C71.6199 131.423 72.3214 130.973 72.9911 130.477C73.6609 130.972 74.3624 131.423 75.0911 131.826C74.4861 133.457 73.7151 134.41 72.9841 134.41L72.9911 134.413ZM79.7211 131.625C79.2151 132.13 77.9781 132 76.4111 131.273C76.6353 130.472 76.809 129.658 76.9311 128.835C77.756 128.713 78.5723 128.539 79.3751 128.313C80.1001 129.886 80.2311 131.105 79.7141 131.622L79.7211 131.625ZM79.9211 126.993C79.5143 126.268 79.0621 125.569 78.5671 124.901C79.0638 124.232 79.5161 123.53 79.9211 122.801C81.5551 123.401 82.5071 124.168 82.5071 124.901C82.5071 125.634 81.5491 126.394 79.9151 126.99L79.9211 126.993Z" fill="#7FC6DB"/>
<path d="M72.8001 123.957C72.6152 123.957 72.4344 124.012 72.2807 124.115C72.1269 124.217 72.0071 124.363 71.9363 124.534C71.8655 124.705 71.847 124.893 71.8831 125.074C71.9192 125.256 72.0082 125.422 72.139 125.553C72.2697 125.684 72.4363 125.773 72.6177 125.809C72.7991 125.845 72.9871 125.827 73.1579 125.756C73.3288 125.685 73.4748 125.565 73.5775 125.411C73.6803 125.258 73.7351 125.077 73.7351 124.892C73.7351 124.644 73.6366 124.406 73.4613 124.231C73.2859 124.056 73.0481 123.957 72.8001 123.957Z" fill="#7FC6DB"/>
<path d="M81.5345 136.313L63.2047 156.847L68.2761 161.374L86.6059 140.84L81.5345 136.313Z" fill="#7FC6DB"/>
<path d="M82.9934 140.115L82.2682 140.928L84.6383 143.043L85.3635 142.231L82.9934 140.115Z" fill="white"/>
<path d="M78.6278 145.004L77.9026 145.816L80.2727 147.932L80.9978 147.12L78.6278 145.004Z" fill="white"/>
<path d="M74.2639 149.894L73.5387 150.706L75.9088 152.822L76.634 152.009L74.2639 149.894Z" fill="white"/>
<path d="M69.9077 154.775L69.1825 155.587L71.5526 157.703L72.2778 156.89L69.9077 154.775Z" fill="white"/>
<path d="M69.5131 157.534L69.1282 157.965L70.3464 159.052L70.7313 158.621L69.5131 157.534Z" fill="white"/>
<path d="M68.4483 158.728L68.056 159.167L69.2743 160.254L69.6665 159.815L68.4483 158.728Z" fill="white"/>
<path d="M73.6182 152.936L73.226 153.375L74.4442 154.462L74.8364 154.023L73.6182 152.936Z" fill="white"/>
<path d="M72.546 154.137L72.1611 154.568L73.3794 155.656L73.7643 155.225L72.546 154.137Z" fill="white"/>
<path d="M77.8563 148.187L77.4641 148.626L78.6823 149.713L79.0746 149.274L77.8563 148.187Z" fill="white"/>
<path d="M76.7842 149.389L76.392 149.828L77.6102 150.916L78.0024 150.476L76.7842 149.389Z" fill="white"/>
<path d="M82.3097 143.199L81.9175 143.639L83.1357 144.726L83.5279 144.287L82.3097 143.199Z" fill="white"/>
<path d="M81.2377 144.399L80.8455 144.839L82.0637 145.926L82.4559 145.487L81.2377 144.399Z" fill="white"/>
<path d="M516.52 19.3236C515.262 11.2496 510.885 6.75689 503.388 5.84556V5.83456C503.188 5.80922 502.985 5.78722 502.778 5.76855H502.4L385.518 6.48856L327.681 6.84556C324.733 6.92619 321.887 7.94487 319.558 9.75356C317.885 11.0525 316.516 12.7008 315.546 14.5833C314.575 16.4659 314.027 18.5375 313.94 20.6536L314.567 125.48C315.935 133.786 320.574 138.265 328.483 138.915L399.647 138.478L396.778 154.267C396.765 155.16 396.99 158.31 399.044 158.712C399.68 159.358 401.335 158.967 402.22 158.975C402.667 158.94 403.106 158.834 403.52 158.66C404.203 158.557 404.831 158.227 405.304 157.725L422.5 138.339L503.21 137.839C506.172 137.798 509.043 136.81 511.403 135.019C513.093 133.734 514.482 132.096 515.473 130.218C516.463 128.34 517.031 126.269 517.136 124.149L516.52 19.3236Z" fill="#52AAC4"/>
<path d="M514.185 19.1326C512.927 11.1726 508.55 6.74323 501.053 5.84456V5.83356C500.853 5.80956 500.65 5.78789 500.443 5.76855H500.066L383.184 6.47855L325.346 6.83056C322.404 6.90796 319.562 7.91122 317.224 9.69756C315.559 10.9674 314.193 12.5876 313.223 14.4437C312.253 16.2998 311.703 18.3463 311.611 20.4386L312.238 123.788C313.607 131.979 318.246 136.394 326.154 137.034L397.318 136.604L396.702 153.528C396.692 153.954 396.767 154.379 396.922 154.777C397.078 155.174 397.311 155.537 397.608 155.844C397.904 156.15 398.259 156.394 398.651 156.561C399.044 156.727 399.466 156.812 399.892 156.811C400.339 156.777 400.778 156.672 401.192 156.501C401.872 156.4 402.5 156.075 402.976 155.579L420.166 136.466L500.876 135.977C503.832 135.939 506.7 134.966 509.069 133.197C510.753 131.941 512.14 130.33 513.131 128.478C514.122 126.625 514.693 124.577 514.802 122.48L514.185 19.1326Z" fill="#E8FAFF"/>
<path d="M437.967 84.6484L327.143 85.4164C326.313 85.452 325.53 85.8103 324.961 86.415C324.392 87.0197 324.082 87.8228 324.097 88.653C324.111 89.4833 324.45 90.2749 325.04 90.859C325.63 91.4431 326.426 91.7734 327.256 91.7794L438.249 91.0024C439.059 90.9287 439.809 90.5479 440.347 89.9383C440.885 89.3287 441.17 88.5364 441.142 87.7239C441.115 86.9113 440.777 86.1401 440.2 85.5683C439.622 84.9964 438.847 84.6673 438.034 84.6484" fill="#BBE0ED"/>
<path d="M437.845 96.6025L327.021 97.3715C326.192 97.407 325.409 97.7653 324.84 98.3698C324.27 98.9744 323.96 99.7775 323.975 100.608C323.989 101.438 324.328 102.229 324.918 102.814C325.508 103.398 326.303 103.728 327.133 103.735L438.126 102.957C438.937 102.885 439.69 102.505 440.23 101.895C440.769 101.286 441.055 100.492 441.027 99.6782C441 98.8644 440.661 98.092 440.082 97.5201C439.502 96.9482 438.725 96.6202 437.911 96.6035" fill="#BBE0ED"/>
<path d="M439.119 109.769L328.295 110.538C327.465 110.573 326.683 110.931 326.113 111.536C325.544 112.141 325.234 112.944 325.249 113.774C325.264 114.604 325.602 115.396 326.192 115.98C326.783 116.564 327.578 116.895 328.408 116.901L439.401 116.124C440.211 116.05 440.962 115.669 441.499 115.059C442.037 114.45 442.322 113.658 442.294 112.845C442.267 112.032 441.93 111.261 441.352 110.689C440.774 110.118 439.999 109.788 439.186 109.77" fill="#BBE0ED"/>
<path d="M438.712 121.538L327.887 122.306C327.061 122.346 326.282 122.706 325.717 123.31C325.152 123.914 324.844 124.715 324.859 125.542C324.873 126.369 325.209 127.158 325.796 127.742C326.382 128.325 327.173 128.657 328 128.668L438.993 127.891C439.803 127.817 440.553 127.437 441.091 126.827C441.629 126.217 441.914 125.425 441.886 124.613C441.859 123.8 441.521 123.029 440.943 122.457C440.366 121.885 439.591 121.556 438.778 121.537" fill="#BBE0ED"/>
<path d="M468.187 55.9189L380.487 56.7329C379.667 56.7855 378.899 57.1532 378.344 57.759C377.789 58.3649 377.489 59.162 377.508 59.9835C377.528 60.805 377.864 61.5873 378.446 62.1667C379.029 62.7461 379.813 63.0776 380.635 63.0919L467.273 62.2919C468.085 62.2879 468.487 62.2806 468.479 62.2699C469.283 62.1957 470.03 61.8183 470.566 61.2143C471.103 60.6103 471.389 59.8248 471.368 59.0172C471.347 58.2096 471.02 57.4403 470.452 56.8651C469.885 56.29 469.12 55.9521 468.313 55.92" fill="#BBE0ED"/>
<path d="M469.082 81.0195C468.773 81.0193 468.474 81.1209 468.229 81.3085L459.04 88.8455L454.429 84.2225C454.15 84.0304 453.812 83.9451 453.475 83.9823C453.139 84.0195 452.827 84.1767 452.598 84.425C452.368 84.6734 452.235 84.9963 452.224 85.3345C452.213 85.6727 452.324 86.0036 452.537 86.2665L457.988 91.7925C458.233 92.0171 458.551 92.1469 458.883 92.1588C459.215 92.1708 459.541 92.0639 459.802 91.8575L470.128 83.3675C470.31 83.1659 470.43 82.9158 470.473 82.6476C470.515 82.3794 470.48 82.1045 470.37 81.8561C470.26 81.6078 470.08 81.3966 469.853 81.2481C469.625 81.0996 469.36 81.0203 469.088 81.0195" fill="#52AAC4"/>
<path d="M468.932 93.7021C468.624 93.7019 468.324 93.8035 468.079 93.9912L458.89 101.528L454.279 96.9052C454 96.7123 453.661 96.6266 453.325 96.6636C452.988 96.7006 452.676 96.8579 452.446 97.1066C452.215 97.3554 452.083 97.6788 452.072 98.0174C452.061 98.3561 452.173 98.6873 452.387 98.9502L457.838 104.476C458.084 104.699 458.401 104.828 458.733 104.84C459.065 104.852 459.391 104.746 459.652 104.541L469.978 96.0501C470.16 95.8484 470.28 95.5983 470.323 95.33C470.365 95.0617 470.33 94.7867 470.219 94.5383C470.109 94.2899 469.93 94.0787 469.702 93.9303C469.474 93.7819 469.209 93.7027 468.937 93.7021" fill="#52AAC4"/>
<path d="M469.372 104.612C469.063 104.611 468.763 104.713 468.519 104.901L459.33 112.438L454.719 107.815C454.44 107.623 454.102 107.538 453.766 107.575C453.429 107.612 453.118 107.769 452.888 108.018C452.658 108.266 452.525 108.589 452.514 108.927C452.503 109.265 452.614 109.596 452.827 109.859L458.278 115.385C458.523 115.61 458.841 115.74 459.173 115.752C459.505 115.764 459.831 115.657 460.092 115.45L470.418 106.96C470.6 106.759 470.72 106.508 470.763 106.24C470.805 105.972 470.77 105.697 470.66 105.448C470.549 105.2 470.37 104.989 470.142 104.841C469.914 104.692 469.649 104.613 469.377 104.612" fill="#52AAC4"/>
<path d="M469.482 116.776C469.174 116.776 468.874 116.878 468.629 117.065L459.44 124.602L454.829 119.979C454.55 119.787 454.211 119.701 453.875 119.738C453.538 119.775 453.226 119.932 452.996 120.181C452.765 120.43 452.633 120.753 452.622 121.092C452.611 121.43 452.723 121.762 452.937 122.024L458.388 127.55C458.634 127.774 458.951 127.903 459.283 127.915C459.615 127.926 459.941 127.82 460.202 127.615L470.528 119.124C470.71 118.923 470.83 118.673 470.873 118.404C470.915 118.136 470.88 117.861 470.77 117.613C470.659 117.364 470.48 117.153 470.252 117.005C470.024 116.856 469.759 116.777 469.487 116.776" fill="#52AAC4"/>
<path d="M500.072 5.76367L325.352 6.82567C322.41 6.90307 319.568 7.90634 317.23 9.69267C315.563 10.9624 314.195 12.5832 313.224 14.4402C312.253 16.2973 311.703 18.3451 311.611 20.4387L311.667 29.6097L514.235 27.5987L514.185 19.1297C512.893 10.9543 508.314 6.49967 500.449 5.76567L500.072 5.76367Z" fill="#7FC6DB"/>
<path d="M476.491 14.9385C475.649 14.939 474.833 15.2315 474.183 15.7662C473.532 16.3009 473.088 17.0446 472.924 17.8706C472.761 18.6965 472.889 19.5536 473.287 20.2956C473.685 21.0377 474.328 21.6187 475.106 21.9397C475.885 22.2607 476.75 22.3018 477.555 22.0559C478.361 21.81 479.056 21.2925 479.522 20.5914C479.988 19.8904 480.197 19.0493 480.113 18.2116C480.028 17.3738 479.656 16.5913 479.059 15.9975C478.376 15.3193 477.453 14.9386 476.491 14.9385" fill="#52AAC4"/>
<path d="M487.773 15.1123C486.932 15.113 486.116 15.4055 485.466 15.9399C484.817 16.4744 484.372 17.2177 484.209 18.0432C484.046 18.8687 484.174 19.7252 484.572 20.4667C484.969 21.2082 485.612 21.7889 486.39 22.1097C487.168 22.4305 488.033 22.4716 488.837 22.2259C489.642 21.9802 490.337 21.463 490.803 20.7625C491.269 20.0619 491.478 19.2214 491.394 18.3842C491.309 17.547 490.937 16.7649 490.341 16.1713C489.658 15.4933 488.735 15.1126 487.773 15.1123Z" fill="#52AAC4"/>
<path d="M499.194 15.124C498.353 15.1247 497.537 15.4172 496.887 15.9517C496.238 16.4861 495.793 17.2294 495.63 18.0549C495.467 18.8804 495.595 19.7369 495.993 20.4784C496.39 21.22 497.033 21.8006 497.811 22.1214C498.589 22.4422 499.454 22.4833 500.258 22.2376C501.063 21.9919 501.758 21.4747 502.224 20.7742C502.69 20.0737 502.899 19.2331 502.815 18.3959C502.73 17.5587 502.358 16.7766 501.762 16.183C501.079 15.5052 500.156 15.1246 499.194 15.124Z" fill="#52AAC4"/>
<path d="M405.061 34.5059V46.9179C405.105 47.6376 405.003 48.3588 404.761 49.0379C404.518 49.7171 404.141 50.3403 403.652 50.8699C403.131 51.3559 402.516 51.7313 401.846 51.9733C401.176 52.2153 400.463 52.3189 399.752 52.2779C398.974 52.3188 398.196 52.2031 397.464 51.9375C396.731 51.672 396.06 51.2619 395.489 50.7319C394.941 50.1423 394.518 49.447 394.249 48.6885C393.979 47.93 393.866 47.1243 393.919 46.3209H397.384C397.337 47.0532 397.534 47.7805 397.944 48.3889C398.142 48.6333 398.397 48.8266 398.685 48.9524C398.974 49.0782 399.289 49.1329 399.603 49.1119C399.876 49.1342 400.151 49.093 400.406 48.9913C400.661 48.8896 400.889 48.7303 401.072 48.5259C401.412 48.0612 401.58 47.4926 401.546 46.9179V34.5059H405.061Z" fill="#7FC6DB"/>
<path d="M420.851 35.403C422.18 36.1585 423.275 37.2657 424.016 38.603C424.777 40.0366 425.175 41.6349 425.175 43.258C425.175 44.8811 424.777 46.4794 424.016 47.913C423.278 49.2564 422.183 50.3691 420.851 51.128C419.48 51.8806 417.941 52.2752 416.377 52.2752C414.812 52.2752 413.273 51.8806 411.902 51.128C410.57 50.3695 409.475 49.2567 408.737 47.913C407.976 46.4794 407.578 44.8811 407.578 43.258C407.578 41.6349 407.976 40.0366 408.737 38.603C409.478 37.2655 410.573 36.1582 411.902 35.403C413.273 34.6504 414.812 34.2559 416.377 34.2559C417.941 34.2559 419.48 34.6504 420.851 35.403V35.403ZM413.66 38.194C412.868 38.6714 412.231 39.3687 411.828 40.201C411.392 41.1599 411.167 42.2008 411.167 43.254C411.167 44.3072 411.392 45.3482 411.828 46.307C412.232 47.1392 412.868 47.8363 413.66 48.314C414.493 48.7713 415.427 49.011 416.377 49.011C417.327 49.011 418.261 48.7713 419.094 48.314C419.885 47.8357 420.521 47.1387 420.925 46.307C421.361 45.3482 421.586 44.3072 421.586 43.254C421.586 42.2008 421.361 41.1599 420.925 40.201C420.521 39.3692 419.885 38.6721 419.094 38.194C418.261 37.7367 417.327 37.497 416.377 37.497C415.427 37.497 414.493 37.7367 413.66 38.194Z" fill="#7FC6DB"/>
<path d="M440.192 44.5388C440.83 45.3229 441.169 46.3073 441.151 47.3178C441.181 47.9749 441.064 48.6304 440.807 49.2361C440.551 49.8418 440.162 50.3823 439.669 50.8178C438.438 51.751 436.91 52.2067 435.369 52.1008H427.816V34.5008H435.216C436.677 34.4053 438.126 34.8191 439.316 35.6718C439.794 36.0711 440.173 36.5763 440.422 37.1474C440.67 37.7185 440.783 38.3397 440.75 38.9618C440.791 39.9329 440.486 40.8871 439.89 41.6548C439.315 42.3537 438.52 42.8371 437.635 43.0258C438.641 43.2076 439.548 43.7445 440.192 44.5388ZM431.331 41.8838H434.5C435.217 41.9344 435.929 41.7265 436.506 41.2978C436.739 41.0871 436.922 40.8264 437.041 40.5351C437.159 40.2439 437.211 39.9296 437.191 39.6158C437.21 39.3005 437.16 38.9847 437.044 38.6909C436.928 38.3971 436.749 38.1325 436.519 37.9158C435.925 37.4709 435.19 37.2577 434.45 37.3158H431.334L431.331 41.8838ZM436.814 48.6258C437.068 48.407 437.268 48.1322 437.398 47.823C437.528 47.5137 437.585 47.1785 437.563 46.8438C437.583 46.5045 437.524 46.1651 437.392 45.8519C437.26 45.5386 437.058 45.2598 436.802 45.0368C436.181 44.5768 435.417 44.3514 434.646 44.4008H431.331V49.2388H434.671C435.435 49.2892 436.192 49.0725 436.814 48.6258V48.6258Z" fill="#7FC6DB"/>
<path d="M455.034 49.7724C454.556 50.556 453.864 51.187 453.04 51.5914C452.039 52.0753 450.936 52.3106 449.825 52.2774C448.68 52.2971 447.543 52.0806 446.485 51.6414C445.55 51.2534 444.736 50.6206 444.13 49.8094C443.534 48.9944 443.183 48.0255 443.12 47.0174H446.858C446.923 47.6951 447.229 48.3271 447.719 48.7994C447.982 49.0416 448.29 49.2291 448.626 49.3512C448.962 49.4732 449.319 49.5274 449.676 49.5104C449.981 49.5309 450.287 49.4895 450.576 49.3888C450.865 49.2882 451.131 49.1302 451.357 48.9244C451.552 48.7264 451.705 48.4904 451.806 48.2311C451.907 47.9717 451.953 47.6945 451.943 47.4164C451.961 46.9205 451.792 46.4357 451.47 46.0584C451.136 45.6888 450.727 45.3955 450.27 45.1984C449.788 44.9824 449.123 44.7331 448.276 44.4504C447.354 44.1555 446.454 43.7932 445.585 43.3664C444.874 42.9984 444.263 42.4639 443.803 41.8084C443.281 41.02 443.023 40.086 443.067 39.1414C443.038 38.4588 443.171 37.7791 443.455 37.1576C443.738 36.5361 444.165 35.9905 444.7 35.5654C445.946 34.6417 447.475 34.179 449.024 34.2564C450.619 34.173 452.193 34.6491 453.474 35.6024C454.017 36.0396 454.464 36.5839 454.788 37.2013C455.111 37.8187 455.304 38.4962 455.355 39.1914H451.566C451.485 38.5961 451.202 38.0464 450.766 37.6334C450.279 37.2064 449.643 36.9874 448.996 37.0234C448.428 36.9966 447.87 37.1783 447.426 37.5344C447.068 37.8984 446.856 38.3813 446.831 38.8913C446.805 39.4014 446.969 39.9029 447.289 40.3004C447.618 40.6566 448.017 40.9409 448.461 41.1354C449.091 41.4108 449.736 41.6522 450.392 41.8584C451.331 42.178 452.251 42.5527 453.146 42.9804C453.87 43.3445 454.491 43.8843 454.953 44.5504C455.485 45.3626 455.746 46.3218 455.701 47.2914C455.709 48.1638 455.479 49.0218 455.034 49.7724Z" fill="#7FC6DB"/>
<path d="M330.859 79.512C330.654 79.8492 330.356 80.1209 330.002 80.295C329.571 80.505 329.096 80.6079 328.617 80.595C328.124 80.6033 327.635 80.5104 327.18 80.322C326.777 80.1546 326.427 79.8821 326.166 79.533C325.91 79.1825 325.759 78.7662 325.731 78.333H327.341C327.369 78.6243 327.5 78.8959 327.711 79.099C327.824 79.2035 327.957 79.2844 328.102 79.3371C328.246 79.3898 328.4 79.4132 328.554 79.406C328.685 79.4148 328.817 79.397 328.941 79.3535C329.066 79.31 329.18 79.2418 329.277 79.153C329.361 79.0677 329.427 78.9662 329.47 78.8545C329.513 78.7429 329.533 78.6236 329.529 78.504C329.538 78.2911 329.467 78.0824 329.329 77.92C329.187 77.7606 329.011 77.634 328.815 77.549C328.608 77.457 328.321 77.349 327.956 77.227C327.559 77.1005 327.172 76.9447 326.798 76.761C326.492 76.6023 326.228 76.3722 326.03 76.09C325.806 75.7509 325.695 75.3492 325.714 74.943C325.701 74.6493 325.758 74.3568 325.88 74.0892C326.001 73.8216 326.184 73.5865 326.414 73.403C326.951 73.0058 327.608 72.8065 328.275 72.839C328.962 72.803 329.639 73.0086 330.19 73.42C330.424 73.6077 330.617 73.8418 330.756 74.1074C330.896 74.3731 330.979 74.6647 331 74.964H329.369C329.335 74.708 329.214 74.4716 329.026 74.294C328.816 74.1103 328.543 74.0159 328.265 74.031C328.02 74.0191 327.78 74.0973 327.589 74.251C327.435 74.4074 327.343 74.6151 327.332 74.8346C327.321 75.054 327.391 75.2699 327.529 75.441C327.669 75.5939 327.839 75.7162 328.029 75.8C328.3 75.9196 328.577 76.0237 328.86 76.112C329.264 76.2502 329.66 76.4112 330.046 76.594C330.357 76.7511 330.624 76.9835 330.823 77.27C331.052 77.6199 331.165 78.0332 331.145 78.451C331.148 78.8241 331.049 79.1911 330.859 79.512Z" fill="#52AAC4"/>
<path d="M335.2 76.6645L338.408 80.5155H336.573L333.773 77.0505V80.5155H332.261V72.9385H333.773V76.3385L336.584 72.9385H338.408L335.2 76.6645Z" fill="#52AAC4"/>
<path d="M340.762 72.9385V80.5125H339.249V72.9385H340.762Z" fill="#52AAC4"/>
<path d="M343.647 79.3575H346.19V80.5155H342.135V72.9385H343.647V79.3575Z" fill="#52AAC4"/>
<path d="M348.6 79.3575H351.142V80.5155H347.087V72.9385H348.6V79.3575Z" fill="#52AAC4"/>
<path d="M356.96 79.512C356.754 79.849 356.457 80.1205 356.103 80.295C355.672 80.505 355.197 80.6079 354.718 80.595C354.225 80.6034 353.736 80.5105 353.28 80.322C352.878 80.1546 352.528 79.8821 352.267 79.533C352.01 79.1827 351.859 78.7663 351.832 78.333H353.441C353.47 78.6242 353.601 78.8957 353.812 79.099C353.925 79.2034 354.058 79.2844 354.202 79.3371C354.347 79.3898 354.5 79.4132 354.654 79.406C354.786 79.4149 354.918 79.397 355.042 79.3536C355.166 79.3101 355.281 79.2418 355.378 79.153C355.462 79.0677 355.528 78.9661 355.571 78.8545C355.615 78.7429 355.635 78.6236 355.63 78.504C355.64 78.291 355.568 78.0824 355.43 77.92C355.287 77.7606 355.111 77.634 354.915 77.549C354.708 77.457 354.422 77.349 354.057 77.227C353.66 77.1006 353.273 76.9448 352.899 76.761C352.593 76.6023 352.329 76.3721 352.131 76.09C351.907 75.7508 351.796 75.3491 351.815 74.943C351.802 74.6493 351.859 74.3567 351.981 74.0891C352.102 73.8215 352.285 73.5864 352.515 73.403C353.052 73.0056 353.709 72.8063 354.376 72.839C355.063 72.8032 355.74 73.0087 356.291 73.42C356.525 73.6079 356.718 73.8419 356.857 74.1076C356.996 74.3732 357.079 74.6648 357.101 74.964H355.47C355.436 74.708 355.315 74.4715 355.127 74.294C354.917 74.1102 354.644 74.0158 354.365 74.031C354.12 74.019 353.88 74.0973 353.689 74.251C353.536 74.408 353.445 74.6157 353.434 74.8348C353.424 75.0539 353.493 75.2695 353.63 75.441C353.77 75.5939 353.94 75.7161 354.13 75.8C354.401 75.9197 354.678 76.0239 354.961 76.112C355.365 76.2502 355.76 76.4111 356.146 76.594C356.458 76.7512 356.725 76.9835 356.924 77.27C357.153 77.6199 357.266 78.0332 357.246 78.451C357.249 78.824 357.15 79.1909 356.96 79.512Z" fill="#52AAC4"/>
<path d="M364.652 80.5156L362.882 77.5656H362.217V80.5156H360.7V72.9386H363.586C364.314 72.8878 365.034 73.1179 365.598 73.5816C365.828 73.7989 366.009 74.0632 366.128 74.3564C366.247 74.6497 366.302 74.9652 366.289 75.2816C366.306 75.8021 366.137 76.3118 365.812 76.7186C365.455 77.1273 364.969 77.4004 364.434 77.4916L366.321 80.5166L364.652 80.5156ZM362.217 76.5246H363.461C364.328 76.5246 364.761 76.1419 364.761 75.3766C364.77 75.2203 364.746 75.0638 364.692 74.9171C364.637 74.7704 364.552 74.6367 364.443 74.5246C364.168 74.2989 363.816 74.1891 363.462 74.2186H362.218L362.217 76.5246Z" fill="#52AAC4"/>
<path d="M368.825 74.1435V76.1065H371.507V77.2645H368.825V79.3035H371.825V80.5155H367.309V72.9385H371.825V74.1385L368.825 74.1435Z" fill="#52AAC4"/>
<path d="M378.619 81.8991L377.439 80.4831C377.13 80.5569 376.813 80.5929 376.495 80.5901C375.821 80.5988 375.156 80.4287 374.569 80.0971C373.996 79.7699 373.524 79.2905 373.207 78.7121C372.879 78.0953 372.708 77.4075 372.708 76.7091C372.708 76.0106 372.879 75.3229 373.207 74.7061C373.526 74.1305 373.997 73.6537 374.569 73.3281C375.159 73.0033 375.821 72.833 376.495 72.833C377.168 72.833 377.831 73.0033 378.421 73.3281C378.993 73.6531 379.465 74.13 379.783 74.7061C380.122 75.3176 380.294 76.0072 380.283 76.7061C380.293 77.3586 380.146 78.004 379.855 78.5881C379.581 79.1355 379.17 79.6031 378.663 79.9461L380.455 81.8981L378.619 81.8991ZM374.537 78.0211C374.711 78.3789 374.985 78.6786 375.326 78.8841C375.684 79.0816 376.086 79.1851 376.495 79.1851C376.904 79.1851 377.307 79.0816 377.665 78.8841C378.006 78.6789 378.28 78.3791 378.453 78.0211C378.64 77.6081 378.737 77.16 378.737 76.7066C378.737 76.2532 378.64 75.805 378.453 75.3921C378.28 75.0341 378.006 74.7342 377.665 74.5291C377.307 74.3323 376.904 74.2291 376.495 74.2291C376.087 74.2291 375.684 74.3323 375.326 74.5291C374.985 74.7345 374.711 75.0342 374.537 75.3921C374.35 75.805 374.253 76.2532 374.253 76.7066C374.253 77.16 374.35 77.6081 374.537 78.0211V78.0211Z" fill="#52AAC4"/>
<path d="M382.879 72.9385V77.3795C382.843 77.8577 382.982 78.3326 383.271 78.7155C383.576 79.0021 383.979 79.1616 384.397 79.1616C384.815 79.1616 385.218 79.0021 385.523 78.7155C385.812 78.3326 385.951 77.8577 385.915 77.3795V72.9385H387.415V77.3795C387.434 77.9949 387.299 78.6053 387.023 79.1555C386.782 79.6187 386.404 79.9955 385.939 80.2335C385.451 80.4756 384.912 80.597 384.368 80.5875C383.969 80.6067 383.57 80.5443 383.195 80.4042C382.821 80.2641 382.479 80.0491 382.19 79.7725C381.901 79.4486 381.679 79.0698 381.539 78.6588C381.399 78.2477 381.344 77.8126 381.375 77.3795V72.9385H382.879Z" fill="#52AAC4"/>
<path d="M390.26 72.9385V80.5125H388.747V72.9385H390.26Z" fill="#52AAC4"/>
<path d="M395.581 80.5155L393.811 77.5655H393.146V80.5155H391.633V72.9385H394.519C395.247 72.8879 395.967 73.118 396.53 73.5815C396.76 73.7988 396.941 74.063 397.061 74.3563C397.18 74.6496 397.235 74.9651 397.222 75.2815C397.24 75.8021 397.07 76.3118 396.745 76.7185C396.388 77.1275 395.901 77.4006 395.366 77.4915L397.254 80.5165L395.581 80.5155ZM393.146 76.5245H394.39C395.257 76.5245 395.69 76.1419 395.69 75.3765C395.699 75.2203 395.676 75.0638 395.621 74.9171C395.567 74.7705 395.482 74.6367 395.373 74.5245C395.098 74.2988 394.746 74.189 394.392 74.2185H393.148L393.146 76.5245Z" fill="#52AAC4"/>
<path d="M399.754 74.1435V76.1065H402.436V77.2645H399.754V79.3035H402.754V80.5155H398.237V72.9385H402.754V74.1385L399.754 74.1435Z" fill="#52AAC4"/>
<path d="M412.037 73.0273V80.5153H410.537V75.2903L408.617 80.5153H407.308L405.388 75.3153V80.5153H403.875V73.0273H405.71L407.983 78.6603L410.215 73.0273H412.037Z" fill="#52AAC4"/>
<path d="M414.923 74.1435V76.1065H417.6V77.2645H414.919V79.3035H417.919V80.5155H413.41V72.9385H417.927V74.1385L414.923 74.1435Z" fill="#52AAC4"/>
<path d="M425.457 80.5155H423.944L420.555 75.3665V80.5155H419.042V72.9385H420.555L423.944 78.1305V72.9385H425.457V80.5155Z" fill="#52AAC4"/>
<path d="M431.98 72.9385V74.1385H429.889V80.5105H428.376V74.1385H426.295V72.9385H431.98Z" fill="#52AAC4"/>
<path d="M437.73 79.5119C437.525 79.8491 437.227 80.1208 436.873 80.2949C436.442 80.5049 435.967 80.6078 435.488 80.5949C434.995 80.6032 434.506 80.5103 434.051 80.3219C433.648 80.1546 433.298 79.8821 433.037 79.5329C432.781 79.1826 432.63 78.7662 432.603 78.3329H434.212C434.24 78.6242 434.371 78.8959 434.582 79.0989C434.695 79.2034 434.828 79.2844 434.973 79.3371C435.117 79.3898 435.271 79.4132 435.425 79.4059C435.556 79.4147 435.688 79.3969 435.812 79.3534C435.937 79.3099 436.051 79.2417 436.148 79.1529C436.232 79.0676 436.298 78.9661 436.341 78.8545C436.384 78.7429 436.404 78.6236 436.4 78.5039C436.409 78.291 436.338 78.0824 436.2 77.9199C436.058 77.7603 435.882 77.6337 435.686 77.5489C435.479 77.4569 435.192 77.3489 434.827 77.2269C434.43 77.1002 434.043 76.9444 433.669 76.7609C433.363 76.6022 433.099 76.3721 432.901 76.0899C432.677 75.7506 432.567 75.349 432.585 74.9429C432.572 74.6493 432.629 74.3567 432.751 74.0891C432.872 73.8215 433.055 73.5864 433.285 73.4029C433.822 73.0056 434.48 72.8063 435.147 72.8389C435.834 72.8033 436.511 73.0088 437.062 73.4199C437.296 73.6079 437.488 73.842 437.627 74.1076C437.767 74.3733 437.849 74.6648 437.871 74.9639H436.24C436.206 74.708 436.084 74.4715 435.897 74.2939C435.687 74.1102 435.414 74.0158 435.136 74.0309C434.891 74.019 434.651 74.0973 434.46 74.2509C434.306 74.4073 434.214 74.615 434.203 74.8345C434.192 75.0539 434.262 75.2698 434.4 75.4409C434.54 75.5939 434.71 75.7161 434.9 75.7999C435.171 75.9195 435.448 76.0237 435.731 76.1119C436.135 76.2502 436.531 76.4111 436.917 76.5939C437.228 76.751 437.495 76.9834 437.694 77.2699C437.923 77.6197 438.036 78.0331 438.017 78.4509C438.02 78.8242 437.921 79.1911 437.73 79.5119Z" fill="#52AAC4"/>
<path d="M440.616 74.4746V76.0516H438.985V74.4746H440.616ZM440.616 78.9376V80.5146H438.985V78.9376H440.616Z" fill="#52AAC4"/>
<path d="M375.511 44.5084C379.038 41.0938 381.519 36.7448 382.663 31.9708C383.807 27.1968 383.567 22.1956 381.971 17.5532C380.374 12.9109 377.488 8.81968 373.649 5.75902C369.811 2.69835 365.18 0.795003 360.299 0.272001C355.418 -0.251002 350.488 0.628 346.089 2.80602C341.689 4.98404 338.002 8.37085 335.458 12.5696C332.914 16.7683 331.62 21.6051 331.726 26.5131C331.833 31.4211 333.336 36.1971 336.06 40.2814L316.449 59.2714L315.46 58.2504L299.729 73.4844L308.029 82.0504L323.76 66.8174L322.772 65.7964L342.35 46.8384C347.267 50.4157 353.289 52.1433 359.355 51.7171C365.421 51.2909 371.142 48.7382 375.511 44.5084V44.5084ZM344.768 12.7594C347.378 10.2325 350.678 8.53612 354.252 7.88491C357.826 7.2337 361.512 7.65685 364.846 9.10085C368.179 10.5449 371.009 12.9448 372.978 15.9974C374.948 19.0499 375.968 22.6178 375.909 26.2499C375.851 29.8821 374.716 33.4153 372.65 36.4029C370.583 39.3904 367.677 41.6981 364.299 43.0341C360.921 44.3701 357.223 44.6744 353.672 43.9085C350.121 43.1426 346.877 41.341 344.35 38.7314C342.672 36.9987 341.352 34.9524 340.464 32.7094C339.577 30.4664 339.141 28.0706 339.179 25.6588C339.218 23.247 339.732 20.8665 340.691 18.6532C341.65 16.4399 343.035 14.4372 344.768 12.7594V12.7594Z" fill="#54A0BD"/>
<path d="M359.605 13.9963L359.362 9.7963C359.362 9.7963 350.58 8.6143 345.833 15.7843L347.441 18.2633C347.441 18.2633 353.577 11.5443 359.605 13.9963Z" fill="white"/>
<path d="M448.108 245.962H337.942C337.467 245.966 336.995 245.876 336.555 245.698C336.114 245.519 335.713 245.255 335.375 244.921C335.037 244.587 334.767 244.19 334.583 243.752C334.399 243.314 334.302 242.844 334.3 242.368L334.57 170.23C334.582 169.275 334.972 168.363 335.654 167.695C336.337 167.026 337.257 166.655 338.212 166.663H448.378C448.853 166.659 449.325 166.749 449.765 166.927C450.206 167.106 450.607 167.37 450.945 167.703C451.283 168.037 451.553 168.435 451.737 168.873C451.922 169.311 452.018 169.781 452.02 170.256L451.75 242.395C451.738 243.351 451.348 244.262 450.666 244.931C449.983 245.599 449.063 245.97 448.108 245.962V245.962Z" fill="#02445E"/>
<path d="M452.626 245.962H342.46C341.985 245.966 341.513 245.876 341.073 245.698C340.632 245.519 340.231 245.256 339.893 244.922C339.554 244.588 339.285 244.19 339.101 243.752C338.916 243.314 338.82 242.844 338.818 242.368L339.088 170.23C339.1 169.275 339.49 168.363 340.172 167.694C340.855 167.026 341.775 166.655 342.73 166.663H452.9C453.375 166.659 453.847 166.749 454.287 166.927C454.728 167.106 455.129 167.37 455.467 167.704C455.805 168.037 456.074 168.435 456.258 168.873C456.443 169.311 456.539 169.781 456.541 170.256L456.271 242.395C456.26 243.351 455.869 244.264 455.186 244.932C454.503 245.601 453.582 245.971 452.626 245.962V245.962Z" fill="#035E82"/>
<path d="M410.178 267.497H389.226L389.391 222.417H410.344L410.178 267.497Z" fill="#02445E"/>
<path d="M412.967 267.497H392.014L392.18 222.417H413.132L412.967 267.497Z" fill="#036991"/>
<path d="M431.738 269.419H369.496L369.389 264.306H430.741L431.738 269.419Z" fill="#035E82"/>
<path d="M372.945 264.218H294.912V269.356H372.945V264.218Z" fill="#02445E"/>
</svg>
