<svg width="522" height="544" viewBox="0 0 522 544" fill="none" xmlns="http://www.w3.org/2000/svg">
<path d="M239.815 187.452C239.815 187.452 152.354 182.502 118.524 250.16C84.694 317.818 81.4001 356.598 30.2391 392.903C-20.9219 429.208 -0.289932 510.892 47.5661 533.995C95.4221 557.098 217.537 494.395 257.142 494.395C296.747 494.395 419.687 540.601 460.942 477.068C502.197 413.535 471.668 357.428 413.911 325.249C356.154 293.07 327.275 178.376 239.815 187.452Z" fill="#C9EEFF"/>
<path d="M198.006 197.005V169.266L173.984 155.397L149.962 169.266V197.005L173.984 210.874L198.006 197.005Z" fill="#2789BA"/>
<path d="M195.936 168.04V195.777L171.98 209.613L149.691 196.735V168.998L173.634 155.176L195.936 168.04Z" fill="#48ADE0"/>
<path d="M322.147 197.005V169.266L298.124 155.397L274.102 169.266V197.005L298.124 210.874L322.147 197.005Z" fill="#2789BA"/>
<path d="M320.077 168.04V195.777L296.121 209.613L273.831 196.735V168.998L297.775 155.176L320.077 168.04Z" fill="#48ADE0"/>
<path d="M227.048 146.325V118.586L203.026 104.717L179.004 118.586V146.325L203.026 160.194L227.048 146.325Z" fill="#2789BA"/>
<path d="M224.979 117.359V145.096L201.022 158.931L178.733 146.054V118.317L202.676 104.495L224.979 117.359Z" fill="#48ADE0"/>
<path d="M168.395 146.325V118.586L144.372 104.717L120.35 118.586V146.325L144.372 160.194L168.395 146.325Z" fill="#2789BA"/>
<path d="M166.325 117.359V145.096L142.369 158.931L120.079 146.054V118.317L144.023 104.495L166.325 117.359Z" fill="#48ADE0"/>
<path d="M291.396 146.325V118.586L267.374 104.717L243.352 118.586V146.325L267.374 160.194L291.396 146.325Z" fill="#2789BA"/>
<path d="M289.327 117.359V145.096L265.37 158.931L243.081 146.054V118.317L267.024 104.495L289.327 117.359Z" fill="#48ADE0"/>
<path d="M350.05 146.325V118.586L326.028 104.717L302.005 118.586V146.325L326.028 160.194L350.05 146.325Z" fill="#2789BA"/>
<path d="M347.98 117.359V145.096L324.024 158.931L301.734 146.054V118.317L325.678 104.495L347.98 117.359Z" fill="#48ADE0"/>
<path d="M260.897 93.3658V65.6268L236.875 51.7578L212.853 65.6268V93.3658L236.875 107.235L260.897 93.3658Z" fill="#2789BA"/>
<path d="M258.827 64.4001V92.1371L234.871 105.972L212.582 93.0951V65.3581L236.525 51.5361L258.827 64.4001Z" fill="#48ADE0"/>
<path d="M202.244 93.3658V65.6268L178.221 51.7578L154.199 65.6268V93.3658L178.221 107.235L202.244 93.3658Z" fill="#2789BA"/>
<path d="M200.174 64.4001V92.1371L176.218 105.972L153.928 93.0951V65.3581L177.872 51.5361L200.174 64.4001Z" fill="#48ADE0"/>
<path d="M290.483 41.8297V14.0917L266.46 0.22168L242.438 14.0917V41.8297L266.46 55.6997L290.483 41.8297Z" fill="#2789BA"/>
<path d="M288.413 12.864V40.601L264.456 54.437L242.167 41.56V13.823L266.11 0L288.413 12.864Z" fill="#48ADE0"/>
<path d="M231.829 41.8297V14.0917L207.807 0.22168L183.784 14.0917V41.8297L207.807 55.6997L231.829 41.8297Z" fill="#2789BA"/>
<path d="M229.759 12.864V40.601L205.803 54.437L183.514 41.56V13.823L207.457 0L229.759 12.864Z" fill="#48ADE0"/>
<path d="M320.315 94.1607V66.4217L296.292 52.5527L272.27 66.4217V94.1607L296.292 108.03L320.315 94.1607Z" fill="#2789BA"/>
<path d="M318.245 65.1951V92.9321L294.288 106.768L271.999 93.8901V66.1531L295.942 52.3311L318.245 65.1951Z" fill="#48ADE0"/>
<path d="M216.188 200.271C215.825 200.269 215.467 200.18 215.145 200.013C214.822 199.846 214.544 199.604 214.334 199.308C214.123 199.012 213.985 198.671 213.932 198.311C213.879 197.952 213.912 197.585 214.029 197.241C213.656 196.968 213.34 196.624 213.1 196.229C212.86 195.834 212.7 195.395 212.63 194.938C212.56 194.481 212.581 194.014 212.692 193.565C212.803 193.117 213.001 192.694 213.276 192.322C211.903 191.791 211.526 190.668 211.294 189.138C211.26 188.386 211.419 187.637 211.756 186.964C212.093 186.29 212.596 185.714 213.218 185.29C211.575 184.636 211.003 182.669 211.093 180.812C211.183 178.955 211.928 177.355 213.625 176.89C212.479 175.937 213.206 174.109 214.203 172.99C214.599 172.461 215.117 172.033 215.711 171.744C216.306 171.455 216.961 171.311 217.622 171.326C217.723 170.622 217.982 169.95 218.38 169.361C218.778 168.772 219.305 168.281 219.921 167.926C220.537 167.57 221.225 167.359 221.934 167.308C222.644 167.258 223.355 167.369 224.015 167.634C224.17 166.946 224.492 166.307 224.951 165.773C225.41 165.238 225.994 164.825 226.65 164.568C227.543 164.217 228.509 164.096 229.461 164.215C229.947 164.299 230.392 164.538 230.731 164.895C231.07 165.253 231.285 165.711 231.343 166.2C232.148 164.912 233.383 163.951 234.83 163.489C235.557 163.3 236.328 163.378 237.002 163.711C237.676 164.043 238.208 164.607 238.501 165.299C239.419 164.264 240.639 163.545 241.988 163.243C243.335 163.103 244.873 164.262 244.648 165.677C245.148 165.131 245.76 164.699 246.442 164.411C247.124 164.123 247.86 163.986 248.6 164.009C249.351 164.089 250.046 164.442 250.554 165.002C251.062 165.561 251.347 166.287 251.355 167.042C251.955 166.652 252.66 166.457 253.375 166.483C254.09 166.51 254.78 166.756 255.349 167.189C255.923 167.663 256.354 168.287 256.593 168.993C256.832 169.698 256.869 170.456 256.7 171.181C257.327 171.085 257.968 171.186 258.535 171.47C259.102 171.754 259.567 172.207 259.865 172.767C260.163 173.351 260.289 174.009 260.228 174.662C260.167 175.316 259.921 175.938 259.519 176.457C261.052 176.476 261.972 177.866 262.454 179.411C262.936 180.956 262.946 182.541 261.725 183.522C263.093 183.911 263.56 185.883 262.982 187.252C262.291 188.542 261.243 189.606 259.963 190.316C260.277 190.95 260.412 191.658 260.352 192.363C260.292 193.069 260.04 193.744 259.623 194.316C258.787 195.41 257.741 196.325 256.547 197.01C255.414 197.761 253.89 198.5 252.847 197.61" fill="#1F1A1A"/>
<path d="M224.027 452.299L221.077 451.929L222.187 457.639L219.977 485.859C219.977 485.859 213.517 495.079 207.437 494.709C206.401 494.646 205.393 494.344 204.493 493.827C203.593 493.31 202.824 492.592 202.247 491.729C201.236 490.239 200.551 488.552 200.237 486.779L200.607 463.179L199.277 444.719L198.947 440.119C198.947 440.119 202.457 436.069 203.187 435.879C203.187 435.879 204.667 433.489 211.857 431.269C219.047 429.049 225.317 440.859 225.317 440.859L224.027 452.299Z" fill="#EDECEA"/>
<path d="M224.027 452.299L221.077 451.929L222.187 457.639L219.977 485.859C219.977 485.859 213.517 495.079 207.437 494.709C206.401 494.646 205.393 494.344 204.493 493.827C203.593 493.31 202.824 492.592 202.247 491.729C209.737 494.309 215.927 487.209 217.327 486.269C218.878 485.239 219.517 460.259 219.517 460.259L217.207 450.859L220.167 448.159C220.167 448.159 221.447 445.969 220.677 441.209C219.907 436.449 214.628 434.379 206.128 438.249C201.878 440.179 200.047 442.689 199.277 444.719L198.947 440.119C198.947 440.119 202.457 436.069 203.187 435.879C203.187 435.879 204.667 433.489 211.857 431.269C219.047 429.049 225.317 440.859 225.317 440.859L224.027 452.299Z" fill="#CFCECC"/>
<path d="M386 539.209C385.97 539.379 385.92 539.549 385.881 539.709C385.605 540.596 385.103 541.397 384.424 542.032C383.745 542.666 382.912 543.113 382.008 543.328C381.103 543.543 380.159 543.519 379.267 543.258C378.375 542.996 377.566 542.507 376.92 541.839L348.4 512.279L348.9 499.909L356.569 492.739C358.318 492.567 360.083 492.838 361.699 493.529C363.173 494.226 364.34 495.439 364.979 496.939C367.199 501.889 383.279 523.659 385.259 525.389C386.527 526.499 387.187 533.299 386 539.209Z" fill="#EDECEA"/>
<path d="M198.692 427.931L202.273 439.488C203.164 440.747 204.439 441.681 205.908 442.15C207.376 442.619 208.957 442.597 210.412 442.088C215.62 440.298 215.62 432.973 215.62 432.973C215.62 432.973 214.155 420.44 213.667 420.44C213.179 420.44 198.692 427.931 198.692 427.931Z" fill="#824B45"/>
<path d="M150.011 346.881C150.011 346.881 168.56 321.201 188.546 330.881C208.532 340.561 246.768 353.556 268 341.69C289.232 329.824 312.4 334.003 325.624 339.542C325.624 339.542 318.547 315.727 295.751 308.542C272.955 301.357 184.893 307.917 184.893 307.917C184.893 307.917 149.164 319.953 150.011 346.881Z" fill="#031B30"/>
<path d="M355.88 480.278L343.87 488.808L340.86 490.948L340.85 490.938C335.088 478.944 328.658 467.282 321.59 456.008C314.261 443.922 309.268 430.567 306.87 416.638L244.54 342.288L209.79 342.688C211.108 352.997 211.72 363.385 211.62 373.778C211.32 389.318 214.06 420.408 214.06 420.408C214.06 420.408 213.27 427.708 207.86 430.488C207.405 430.726 206.93 430.924 206.44 431.078C199.73 433.208 197.6 428.028 197.6 428.028L195.59 419.618L177.26 343.098C174.06 330.588 182.32 316.748 182.32 316.748L208.68 307.688C217.61 302.308 274.45 305.168 274.45 305.168L332.16 409.128L355.88 480.278Z" fill="#042440"/>
<path d="M353.963 480.449L359.062 494.125L349.095 501.542L341.678 487.866L354.89 480.217" fill="#824B45"/>
<path d="M343.87 488.808L340.86 490.948L340.85 490.938C335.088 478.944 328.658 467.282 321.59 456.008C314.261 443.923 309.268 430.568 306.87 416.638L244.54 342.288L209.79 342.688C211.108 352.998 211.72 363.385 211.62 373.778C211.32 389.318 214.06 420.408 214.06 420.408C214.06 420.408 213.27 427.708 207.86 430.488C207.44 413.128 206.69 376.958 207.44 369.688C208.43 360.048 205.78 334.118 205.78 334.118C205.78 334.118 211.43 337.108 224.39 337.778C237.35 338.448 239.68 338.108 239.68 338.108L233.81 323.408C234.73 325.388 241.19 338.618 253.16 345.368C253.16 345.368 281.89 380.988 309.81 410.898C309.81 410.898 309.81 425.858 323.1 451.778C331.86 468.858 339.61 481.888 343.87 488.808Z" fill="#00172B"/>
<path d="M195.583 419.622L194.067 422.86L196.506 431.678C196.506 431.678 201.571 436.369 207.388 434.117C213.205 431.865 215.831 421.547 215.831 421.547L214.455 413.941L213.474 412.96C213.474 412.96 207.606 431.206 195.583 419.622Z" fill="#3E6080"/>
<path d="M334.956 486.244C335.883 485.317 355.356 473.264 355.356 473.264L357.674 480.217L340.055 493.198L334.956 486.244Z" fill="#3E6080"/>
<path d="M385.878 539.709C385.602 540.596 385.1 541.397 384.421 542.032C383.742 542.666 382.909 543.113 382.005 543.328C381.1 543.543 380.156 543.519 379.264 543.258C378.372 542.996 377.563 542.507 376.917 541.839L348.4 512.279L348.9 499.909L356.569 492.739C358.318 492.567 360.083 492.838 361.699 493.529C359.159 495.159 352.199 500.129 351.709 506.069C351.099 513.349 361.659 520.759 369.789 529.129C376.067 535.599 381.917 540.699 385.878 539.709Z" fill="#CFCECC"/>
<path d="M277.637 305.559C277.637 305.559 250.207 321.269 233.967 311.949C217.727 302.629 206.277 307.159 206.277 307.159C228.107 293.849 219.857 264.289 216.398 246.989C214.447 237.219 217.237 230.249 220.047 226.029C221.233 224.191 222.697 222.548 224.387 221.159L248.387 216.999C250.993 220.695 253.31 224.587 255.317 228.639C259.997 238.019 264.687 251.479 260.857 262.959C254.207 282.929 277.637 305.559 277.637 305.559Z" fill="#F26835"/>
<path d="M224.971 265.697C224.971 265.697 228.419 291.367 236.465 298.072C236.465 298.072 225.546 293.857 222.289 286.961C219.032 280.065 223.822 269.72 223.822 269.72" fill="#E05724"/>
<path d="M254.089 259.759C254.089 259.759 251.215 281.405 245.277 286.769C245.277 286.769 252.939 283.13 255.429 278.34C257.919 273.55 257.154 264.356 257.154 264.356L255.046 260.142" fill="#E05724"/>
<path d="M255.317 228.638C250.904 234.06 245.054 238.132 238.437 240.388C227.487 239.678 221.597 229.218 220.047 226.028C222.217 222.778 225.2 218.594 225.2 218.594L248.387 216.994C250.993 220.692 253.31 224.584 255.317 228.638V228.638Z" fill="white"/>
<path d="M194.907 311.479C154.027 310.749 150.007 346.879 150.007 346.879C150.007 312.209 181.398 307.099 198.187 299.799C199.099 299.405 199.978 298.94 200.817 298.409C214.047 290.039 206.587 270.239 206.587 270.239L181.4 293.229L135.779 297.609C135.779 297.609 122.469 301.209 116.929 286.629C116.88 286.519 116.839 286.409 116.799 286.299C111.329 271.329 123.369 267.679 123.369 267.679L170.089 269.509L198.189 235.199L225.559 219.139C217.529 227.529 221.179 256.369 224.099 262.209C227.019 268.049 235.777 312.209 194.907 311.479Z" fill="#00315C"/>
<path d="M118.471 274.138L124.85 272.906C124.85 272.906 135.582 283.497 127.25 290.84L121.789 289.72C121.789 289.72 128.5 278.23 118.471 274.138Z" fill="#FFBE01"/>
<path d="M323.227 333.899C324.131 335.69 324.919 337.538 325.587 339.429C325.387 338.938 324.527 336.819 323.227 333.899Z" fill="#00315C"/>
<path d="M365.637 263.369C365.633 265.194 365.367 267.009 364.847 268.759L312 287.649L277.32 261.349C277.32 261.349 268.48 273.779 279.48 290.039C280.884 292.125 282.477 294.076 284.24 295.869C294.39 306.099 303.427 306.309 310.064 313.369C315.319 318.955 320.664 328.124 323.22 333.869C318.81 324.999 308 308.979 287.85 310.369C260.11 312.279 255.32 288.849 252.45 272.819C249.58 256.789 258.67 228.109 249.35 218.299L280.19 230.979L316.54 259.909L358.631 251.539C360.745 252.71 362.508 254.424 363.739 256.503C364.97 258.583 365.626 260.952 365.637 263.369Z" fill="#00315C"/>
<path d="M228.748 216.091C228.748 216.091 215.654 216.091 211.835 231.549C208.016 247.007 213.29 254.463 213.29 254.463C213.29 254.463 215.472 243.734 221.655 247.553C221.655 247.553 219.109 223.729 228.748 216.091Z" fill="#FFBE01"/>
<path d="M248.388 217C248.388 217 260.755 217.546 263.119 233C265.483 248.454 263.665 250.458 263.665 250.458C263.665 250.458 262.028 237.91 252.753 246.276C252.753 246.28 256.39 227.912 248.388 217Z" fill="#FFBE01"/>
<path d="M367.688 254.945C367.715 254.878 367.749 254.76 367.795 254.597C368.222 253.076 369.632 247.697 374.88 244.572C378.985 242.129 380.48 237.72 381.006 235.345C381.105 234.913 381.368 234.536 381.739 234.294C382.111 234.051 382.561 233.962 382.997 234.045L383.41 234.121C383.866 234.204 384.279 234.444 384.576 234.8C384.874 235.155 385.038 235.604 385.039 236.067C385.039 238.672 384.856 243.586 383.454 244.988C383.454 244.988 393.135 237.52 395.348 232.956C395.348 232.956 397.561 231.02 399.497 232.679C399.497 232.679 398.081 238.919 394.812 241.962C394.812 241.962 401.575 233.962 402.252 231.929C402.252 231.929 405.295 231.029 405.972 233.729C405.972 233.729 402.472 241.507 399.884 243.536C399.884 243.536 405.859 239.027 406.648 237.224C406.648 237.224 408.564 237.449 408.677 240.154C406.591 242.999 404.082 245.508 401.237 247.594L387.71 255.711L368.772 262.587L367.688 254.945Z" fill="#78433D"/>
<path d="M368.547 260.786C368.547 260.786 374.521 252.67 378.579 250.641C382.637 248.612 391.543 249.063 391.543 249.063L400.11 247.034L405.859 242.863C405.859 242.863 408.677 242.074 409.353 244.216L399.772 251.316L385.906 257.967C385.906 257.967 375.085 262.251 368.772 262.589L368.547 260.786Z" fill="#824B45"/>
<path d="M211.648 286.779C209.577 291.847 205.725 295.983 200.817 298.409C214.047 290.039 206.587 270.239 206.587 270.239L181.4 293.229L135.779 297.609C135.779 297.609 122.469 301.209 116.929 286.629C118.65 289.069 123.079 292.999 138.039 291.999C159.639 290.559 178.9 288.399 178.9 288.399C178.9 288.399 171.88 285.879 172.059 279.219C172.059 279.219 177.459 285.699 182.679 284.979C187.899 284.259 207.329 264.289 207.329 264.289C207.329 264.289 215.247 277.419 211.648 286.779Z" fill="#042440"/>
<path d="M365.637 263.369C365.633 265.195 365.367 267.01 364.847 268.759L312 287.649L277.32 261.349C277.32 261.349 268.48 273.779 279.48 290.039C280.884 292.125 282.477 294.077 284.24 295.869C278.58 292.169 272.91 286.679 271.36 279.039C267.99 262.469 279.08 251.029 279.08 251.029C279.08 251.029 306.32 281.889 313.31 281.109C319.148 280.469 353.887 267.989 365.637 263.369Z" fill="#042440"/>
<path d="M79.1871 241.969L78.3781 251.429L77.0001 267.438C77.0001 267.438 68.2101 272.268 54.6001 261.728C40.3811 250.718 29.7901 260.858 29.3601 261.278L31.8401 253.878L38.3501 234.498C38.3501 234.498 56.1401 229.228 63.6001 236.038C65.6728 238.014 68.1191 239.556 70.7957 240.575C73.4722 241.593 76.3251 242.067 79.1871 241.969V241.969Z" fill="#F0F0F0"/>
<path d="M44.6691 235.855L40.7407 253.05L41.7156 253.273L45.644 236.078L44.6691 235.855Z" fill="#CFCECC"/>
<path d="M50.3657 235.867L48.8955 243.138L49.8757 243.336L51.3458 236.065L50.3657 235.867Z" fill="#CFCECC"/>
<path d="M47.808 247.96L46.9243 252.774L47.9089 252.955L48.7925 248.141L47.808 247.96Z" fill="#CFCECC"/>
<path d="M56.36 238.813L53.4095 253.551L54.3901 253.747L57.3406 239.01L56.36 238.813Z" fill="#CFCECC"/>
<path d="M58.3187 248.176L57.4348 254.366L58.4248 254.508L59.3086 248.317L58.3187 248.176Z" fill="#CFCECC"/>
<path d="M411.256 149.207L407.361 148.75L406.839 153.206C406.67 153.206 406.501 153.193 406.33 153.193C404.936 153.194 403.547 153.356 402.191 153.677L400.574 149.41L396.907 150.8L398.494 154.986C397.088 155.67 395.777 156.534 394.594 157.557L391.194 154.513L388.58 157.437L391.92 160.422C390.984 161.676 390.217 163.046 389.636 164.499L385.216 163.368L384.244 167.168L388.585 168.279C388.277 170.159 388.269 172.076 388.562 173.958L384.185 175.24L385.285 179.003L389.585 177.744C390.156 179.2 390.914 180.575 391.841 181.835L388.541 184.993L391.254 187.825L394.493 184.725C395.669 185.757 396.975 186.631 398.377 187.325L396.908 191.644L400.621 192.907L402.063 188.665C403.46 189.006 404.893 189.178 406.331 189.179C406.458 189.179 406.582 189.172 406.707 189.169L407.395 193.685L411.272 193.095L410.598 188.665C412.118 188.296 413.583 187.729 414.956 186.979L417.643 190.664L420.812 188.353L418.169 184.729C419.347 183.701 420.387 182.525 421.262 181.229L425.345 183.261L427.091 179.738L423.08 177.738C423.651 176.282 424.028 174.757 424.203 173.203L428.767 173.124L428.699 169.203L424.22 169.28C424.057 167.724 423.69 166.196 423.128 164.736L427.14 162.564L425.273 159.115L421.332 161.249C420.467 159.946 419.437 158.761 418.268 157.722L420.83 153.943L417.583 151.743L415.07 155.452C413.703 154.693 412.242 154.117 410.725 153.738L411.256 149.207ZM394.762 171.182C394.762 168.894 395.441 166.657 396.712 164.755C397.983 162.852 399.79 161.369 401.904 160.494C404.018 159.618 406.344 159.389 408.588 159.835C410.833 160.282 412.894 161.384 414.512 163.002C416.13 164.62 417.232 166.681 417.678 168.926C418.124 171.17 417.895 173.496 417.019 175.61C416.143 177.724 414.66 179.531 412.758 180.802C410.855 182.073 408.618 182.751 406.33 182.751C403.262 182.751 400.32 181.532 398.15 179.362C395.981 177.193 394.762 174.25 394.762 171.182V171.182Z" fill="#58A4D6"/>
<path d="M483.1 152.859L481.379 152.659L481.148 154.628C481.074 154.628 480.999 154.622 480.924 154.622C480.308 154.623 479.695 154.695 479.095 154.836L478.38 152.951L476.76 153.565L477.46 155.415C476.839 155.717 476.259 156.099 475.736 156.55L474.236 155.206L473.081 156.497L474.557 157.816C474.144 158.369 473.804 158.975 473.548 159.616L471.594 159.116L471.165 160.795L473.083 161.285C472.947 162.116 472.943 162.963 473.073 163.794L471.139 164.361L471.626 166.024L473.526 165.467C473.779 166.111 474.115 166.719 474.526 167.275L473.069 168.67L474.269 169.921L475.7 168.551C476.22 169.006 476.797 169.392 477.416 169.698L476.767 171.606L478.407 172.164L479.045 170.29C479.663 170.441 480.296 170.517 480.931 170.517C480.986 170.517 481.041 170.517 481.097 170.517L481.397 172.517L483.11 172.256L482.81 170.299C483.482 170.136 484.129 169.886 484.735 169.554L485.923 171.182L487.323 170.161L486.155 168.561C486.676 168.107 487.135 167.587 487.521 167.014L489.321 167.914L490.093 166.363L488.32 165.481C488.573 164.839 488.741 164.167 488.82 163.481L490.836 163.447L490.806 161.714L488.827 161.748C488.755 161.061 488.593 160.386 488.345 159.741L490.117 158.781L489.292 157.257L487.551 158.2C487.169 157.624 486.714 157.101 486.197 156.642L487.329 154.972L485.895 154L484.784 155.638C484.18 155.302 483.535 155.046 482.865 154.877L483.1 152.859ZM475.812 162.569C475.812 161.558 476.112 160.57 476.673 159.729C477.235 158.888 478.033 158.233 478.967 157.846C479.901 157.459 480.929 157.357 481.921 157.554C482.913 157.751 483.824 158.238 484.539 158.953C485.254 159.668 485.741 160.579 485.938 161.571C486.135 162.562 486.034 163.59 485.647 164.524C485.26 165.458 484.605 166.257 483.764 166.819C482.924 167.38 481.935 167.68 480.924 167.68C480.253 167.68 479.588 167.548 478.968 167.292C478.347 167.035 477.783 166.659 477.309 166.184C476.834 165.709 476.457 165.146 476.2 164.526C475.943 163.905 475.81 163.241 475.81 162.569H475.812Z" fill="#7BC5E3"/>
<path d="M414.928 196.56L412.449 196.27L412.117 199.105C412.009 199.105 411.902 199.097 411.793 199.097C410.906 199.097 410.023 199.201 409.16 199.405L408.13 196.689L405.796 197.574L406.806 200.238C405.911 200.673 405.077 201.223 404.324 201.874L402.157 199.937L400.493 201.798L402.619 203.698C402.024 204.496 401.535 205.368 401.165 206.293L398.352 205.573L397.734 207.991L400.496 208.698C400.301 209.894 400.296 211.113 400.481 212.311L397.696 213.127L398.396 215.522L401.132 214.722C401.495 215.647 401.978 216.521 402.568 217.322L400.468 219.332L402.195 221.132L404.256 219.157C405.004 219.813 405.835 220.368 406.727 220.81L405.792 223.558L408.155 224.358L409.073 221.658C409.962 221.874 410.874 221.984 411.789 221.985C411.87 221.985 411.949 221.985 412.029 221.979L412.466 224.852L414.933 224.477L414.504 221.658C415.472 221.423 416.404 221.062 417.278 220.585L418.988 222.929L421.004 221.459L419.322 219.153C420.072 218.498 420.734 217.749 421.29 216.924L423.89 218.217L425.002 215.983L422.449 214.713C422.812 213.786 423.053 212.816 423.164 211.827L426.064 211.777L426.021 209.277L423.171 209.327C423.065 208.336 422.83 207.364 422.471 206.435L425.024 205.053L423.836 202.858L421.328 204.216C420.778 203.386 420.123 202.632 419.378 201.972L421.008 199.566L418.942 198.166L417.342 200.527C416.473 200.04 415.543 199.67 414.577 199.427L414.928 196.56ZM404.428 210.545C404.428 209.088 404.86 207.665 405.669 206.454C406.478 205.244 407.627 204.3 408.973 203.743C410.318 203.186 411.798 203.04 413.226 203.324C414.654 203.608 415.966 204.309 416.996 205.339C418.025 206.368 418.727 207.68 419.011 209.108C419.295 210.536 419.149 212.017 418.592 213.362C418.034 214.707 417.091 215.857 415.88 216.666C414.67 217.475 413.246 217.907 411.79 217.907C409.838 217.905 407.966 217.129 406.587 215.749C405.207 214.368 404.431 212.496 404.431 210.545H404.428Z" fill="#58A4D6"/>
<path d="M385.671 188.881L382.832 187.591L381.356 190.839C381.229 190.794 381.104 190.747 380.975 190.706C379.919 190.369 378.828 190.155 377.723 190.069L377.532 186.445L374.418 186.609L374.605 190.164C373.374 190.341 372.171 190.677 371.027 191.164L369.187 188.033L366.498 189.614L368.304 192.684C367.291 193.407 366.378 194.259 365.586 195.218L362.513 193.29L360.855 195.931L363.874 197.825C363.522 198.514 363.227 199.231 362.99 199.967C362.766 200.671 362.595 201.39 362.479 202.119L358.854 202.029L358.777 205.147L362.339 205.235C362.417 206.477 362.658 207.702 363.055 208.881L359.793 210.473L361.161 213.273L364.366 211.709C365.007 212.775 365.784 213.752 366.678 214.617L364.518 217.531L367.024 219.388L369.145 216.525C370.121 217.122 371.164 217.6 372.253 217.949C372.348 217.98 372.444 218.004 372.539 218.033L371.965 221.62L375.045 222.112L375.608 218.594C376.849 218.684 378.096 218.61 379.317 218.374L380.459 221.816L383.419 220.834L382.296 217.449C383.437 216.956 384.51 216.318 385.487 215.549L388.087 218.077L390.261 215.842L387.707 213.358C388.493 212.394 389.148 211.331 389.657 210.196L393.132 211.242L394.032 208.256L390.621 207.229C390.873 206.013 390.966 204.769 390.895 203.529L394.46 202.856L393.882 199.792L390.382 200.452C390.044 199.256 389.551 198.109 388.917 197.039L391.773 194.797L389.848 192.344L387.048 194.544C386.198 193.636 385.233 192.843 384.176 192.186L385.671 188.881ZM367.853 201.524C368.408 199.791 369.464 198.262 370.888 197.129C372.312 195.996 374.04 195.311 375.854 195.16C377.667 195.01 379.484 195.4 381.076 196.282C382.667 197.165 383.961 198.499 384.794 200.117C385.628 201.735 385.962 203.563 385.756 205.371C385.55 207.179 384.812 208.885 383.636 210.274C382.46 211.663 380.899 212.671 379.15 213.173C377.401 213.674 375.542 213.645 373.809 213.09C371.486 212.346 369.553 210.71 368.436 208.541C367.319 206.372 367.109 203.848 367.853 201.524V201.524Z" fill="#58A4D6"/>
<path d="M440.223 194.917H425.725V193.917H439.579L453.513 163.164H467.049V164.164H454.158L440.223 194.917Z" fill="#7BC5E3"/>
<path d="M459.657 427.892C459.591 427.617 459.519 427.344 459.443 427.076L461.367 426.529C461.451 426.825 461.529 427.123 461.602 427.423L459.657 427.892ZM458.473 424.403C458.084 423.534 457.636 422.693 457.132 421.885L458.832 420.827C459.384 421.712 459.875 422.634 460.301 423.586L458.473 424.403ZM455.461 419.552C454.852 418.807 454.203 418.096 453.517 417.42L454.917 415.997C455.655 416.723 456.353 417.488 457.008 418.289L455.461 419.552ZM451.354 415.479C450.632 414.884 449.854 414.289 449.026 413.71L450.178 412.075C451.042 412.682 451.865 413.308 452.626 413.934L451.354 415.479ZM446.573 412.09C445.758 411.59 444.901 411.09 444.023 410.6L444.994 408.85C445.894 409.35 446.783 409.87 447.624 410.389L446.573 412.09ZM441.404 409.213C440.529 408.77 439.639 408.336 438.732 407.913L439.582 406.102C440.504 406.535 441.412 406.977 442.306 407.428L441.404 409.213ZM436.021 406.677C435.114 406.277 434.2 405.882 433.279 405.492L434.06 403.65C434.993 404.044 435.917 404.444 436.83 404.85L436.021 406.677ZM430.521 404.341C429.598 403.962 428.672 403.584 427.743 403.209L428.495 401.355C429.425 401.733 430.356 402.111 431.281 402.492L430.521 404.341ZM424.96 402.081C424.027 401.704 423.099 401.326 422.177 400.947L422.937 399.097C423.858 399.475 424.783 399.852 425.71 400.227L424.96 402.081ZM419.396 399.789C418.463 399.395 417.539 398.995 416.626 398.589L417.434 396.761C418.339 397.161 419.252 397.556 420.175 397.945L419.396 399.789ZM413.873 397.339C412.949 396.904 412.041 396.461 411.148 396.01L412.048 394.227C412.922 394.669 413.813 395.102 414.72 395.527L413.873 397.339ZM408.462 394.586C407.918 394.286 407.381 393.974 406.856 393.661C406.506 393.453 406.162 393.239 405.823 393.018L406.915 391.342C407.23 391.547 407.551 391.748 407.879 391.942C408.389 392.247 408.908 392.547 409.436 392.842L408.462 394.586ZM403.313 391.205C402.513 390.559 401.73 389.866 400.997 389.145L402.397 387.719C403.085 388.398 403.807 389.04 404.561 389.644L403.313 391.205ZM398.902 386.867C398.25 386.082 397.624 385.25 397.042 384.394L398.696 383.269C399.242 384.069 399.828 384.852 400.439 385.587L398.902 386.867ZM395.429 381.755C394.94 380.867 394.481 379.934 394.064 378.983L395.896 378.183C396.289 379.083 396.721 379.958 397.181 380.794L395.429 381.755ZM392.948 376.105C392.624 375.147 392.331 374.153 392.079 373.15L394.018 372.662C394.257 373.614 394.535 374.555 394.842 375.462L392.948 376.105ZM391.448 370.137C391.277 369.137 391.142 368.113 391.048 367.087L393.038 366.9C393.131 367.876 393.26 368.851 393.421 369.8L391.448 370.137ZM390.864 364.023C390.855 363.666 390.85 363.308 390.851 362.95C390.851 362.283 390.866 361.617 390.895 360.95L392.895 361.036C392.868 361.675 392.854 362.313 392.853 362.948C392.853 363.289 392.857 363.63 392.866 363.97L390.864 364.023ZM393.121 358.114L391.133 357.893C391.244 356.885 391.39 355.865 391.566 354.86L393.537 355.206C393.362 356.169 393.222 357.147 393.116 358.114H393.121ZM394.134 352.33L392.191 351.861C392.428 350.873 392.702 349.879 393.001 348.907L394.913 349.495C394.62 350.428 394.358 351.382 394.129 352.33H394.134ZM395.864 346.712L393.991 346.012C394.344 345.071 394.736 344.119 395.155 343.18L396.981 343.997C396.574 344.894 396.2 345.809 395.859 346.712H395.864ZM398.264 341.347L396.491 340.421C396.962 339.521 397.466 338.621 397.991 337.752L399.706 338.782C399.192 339.618 398.709 340.481 398.256 341.347H398.264ZM401.294 336.308L399.645 335.177C399.858 334.866 400.075 334.557 400.295 334.252C400.666 333.737 401.08 333.215 401.524 332.701L403.038 334.007C402.631 334.478 402.254 334.954 401.918 335.421C401.702 335.714 401.491 336.01 401.286 336.308H401.294ZM405.046 331.935L403.682 330.472C404.392 329.811 405.182 329.137 406.02 328.472L407.262 330.039C406.455 330.671 405.709 331.31 405.038 331.938L405.046 331.935ZM409.623 328.281L408.474 326.644C409.256 326.096 410.108 325.527 411.009 324.953L412.083 326.64C411.2 327.198 410.372 327.75 409.615 328.281H409.623ZM414.615 325.088L413.597 323.368C414.451 322.862 415.327 322.36 416.226 321.861L417.199 323.609C416.312 324.099 415.448 324.592 414.607 325.088H414.615ZM419.815 322.188L418.878 320.422C419.756 319.955 420.648 319.489 421.553 319.022L422.467 320.801C421.568 321.262 420.682 321.724 419.811 322.185L419.815 322.188ZM425.138 319.454L424.244 317.665C425.133 317.219 426.033 316.773 426.944 316.328L427.827 318.128C426.919 318.567 426.021 319.008 425.134 319.451L425.138 319.454ZM430.52 316.804L429.643 315.004L432.267 313.729L433.22 315.489L430.52 316.804ZM435.92 314.176L435.043 312.376C435.939 311.937 436.836 311.496 437.735 311.054L438.622 312.847C437.719 313.294 436.818 313.736 435.919 314.173L435.92 314.176ZM441.32 311.507L440.42 309.72C441.312 309.272 442.202 308.82 443.089 308.364L444.005 310.141C443.115 310.599 442.221 311.053 441.322 311.504L441.32 311.507ZM446.674 308.749L445.737 306.983C446.619 306.516 447.495 306.043 448.366 305.562L449.331 307.314C448.454 307.797 447.569 308.274 446.676 308.746L446.674 308.749ZM451.965 305.831L450.965 304.098C451.832 303.598 452.688 303.093 453.534 302.584L454.569 304.295C453.715 304.811 452.848 305.322 451.967 305.828L451.965 305.831ZM457.142 302.693L456.06 301.01C456.902 300.47 457.728 299.922 458.537 299.367L459.669 301.015C458.844 301.581 458.003 302.139 457.144 302.69L457.142 302.693ZM462.142 299.248L460.947 297.648C461.747 297.052 462.526 296.447 463.284 295.832L464.545 297.384C463.769 298.012 462.969 298.632 462.145 299.245L462.142 299.248ZM466.864 295.396L465.524 293.912C466.269 293.239 466.983 292.555 467.647 291.88L469.075 293.28C468.385 293.982 467.641 294.694 466.867 295.393L466.864 295.396ZM471.148 291.019L469.625 289.719C470.267 288.964 470.873 288.194 471.425 287.426L473.05 288.594C472.468 289.405 471.829 290.22 471.151 291.016L471.148 291.019ZM474.732 286.008L473.005 285.001C473.491 284.17 473.932 283.314 474.328 282.437L476.152 283.257C475.728 284.197 475.255 285.114 474.735 286.005L474.732 286.008ZM477.257 280.365L475.351 279.765C475.639 278.854 475.873 277.927 476.051 276.988L478.016 277.359C477.825 278.374 477.572 279.377 477.26 280.362L477.257 280.365ZM478.411 274.276L476.411 274.145C476.447 273.598 476.465 273.045 476.465 272.486V272.186C476.465 271.877 476.454 271.567 476.442 271.258L478.442 271.178C478.456 271.505 478.463 271.834 478.467 272.165V272.487C478.47 273.088 478.453 273.684 478.414 274.273L478.411 274.276ZM476.2 268.362C476.076 267.411 475.907 266.448 475.7 265.503L477.653 265.07C477.876 266.07 478.053 267.094 478.185 268.104L476.2 268.362ZM474.943 262.7C474.651 261.782 474.316 260.862 473.943 259.967L475.79 259.203C476.182 260.15 476.538 261.123 476.846 262.095L474.943 262.7ZM472.723 257.322C472.288 256.472 471.807 255.616 471.295 254.777L473.002 253.735C473.54 254.616 474.044 255.516 474.502 256.411L472.723 257.322ZM469.683 252.334C469.126 251.55 468.528 250.764 467.906 249.997L469.461 248.738C470.111 249.538 470.735 250.359 471.317 251.177L469.683 252.334ZM465.983 247.767C465.334 247.057 464.646 246.342 463.937 245.643L465.337 244.219C466.072 244.943 466.785 245.683 467.455 246.419L465.983 247.767ZM461.783 243.623C461.05 242.964 460.302 242.324 459.539 241.703L460.807 240.155C461.596 240.802 462.373 241.467 463.117 242.132L461.783 243.623ZM457.208 239.873C456.413 239.273 455.613 238.693 454.808 238.132L455.953 236.491C456.778 237.067 457.598 237.662 458.413 238.275L457.208 239.873ZM452.341 236.473C451.5 235.928 450.66 235.403 449.821 234.898L450.854 233.185C451.709 233.701 452.567 234.237 453.429 234.794L452.341 236.473ZM447.25 233.399C446.368 232.899 445.494 232.428 444.635 231.976L445.567 230.206C446.442 230.667 447.33 231.15 448.231 231.656L447.25 233.399ZM441.98 230.624C441.06 230.167 440.167 229.738 439.3 229.338L440.136 227.521C441.019 227.928 441.932 228.363 442.877 228.827L441.98 230.624ZM436.564 228.124C435.578 227.7 434.655 227.324 433.808 226.982L434.548 225.124C435.411 225.468 436.348 225.855 437.348 226.286L436.564 228.124ZM431.023 225.916C429.271 225.276 428.223 224.954 428.212 224.95L428.798 223.038C428.842 223.051 429.898 223.377 431.71 224.038L431.023 225.916Z" fill="#7BC5E3"/>
<path d="M456.583 241.615C458.45 241.615 459.964 240.101 459.964 238.234C459.964 236.366 458.45 234.853 456.583 234.853C454.716 234.853 453.202 236.366 453.202 238.234C453.202 240.101 454.716 241.615 456.583 241.615Z" fill="#7BC5E3"/>
<path d="M393.607 354.014C395.474 354.014 396.988 352.5 396.988 350.633C396.988 348.766 395.474 347.252 393.607 347.252C391.74 347.252 390.226 348.766 390.226 350.633C390.226 352.5 391.74 354.014 393.607 354.014Z" fill="#7BC5E3"/>
<path d="M460.948 431.532C462.815 431.532 464.329 430.018 464.329 428.151C464.329 426.283 462.815 424.77 460.948 424.77C459.081 424.77 457.567 426.283 457.567 428.151C457.567 430.018 459.081 431.532 460.948 431.532Z" fill="#7BC5E3"/>
<path d="M510.254 428.185H466.955V429.336H510.254V428.185Z" fill="#7BC5E3"/>
<path d="M510.254 434.062H487.275V435.214H510.254V434.062Z" fill="#7BC5E3"/>
<path d="M510.254 439.939H487.275V441.09H510.254V439.939Z" fill="#7BC5E3"/>
<path d="M510.254 445.816H487.275V446.967H510.254V445.816Z" fill="#7BC5E3"/>
<path d="M521.796 237.676H467.405V238.827H521.796V237.676Z" fill="#7BC5E3"/>
<path d="M521.796 243.553H492.931V244.704H521.796V243.553Z" fill="#7BC5E3"/>
<path d="M521.796 249.43H492.931V250.581H521.796V249.43Z" fill="#7BC5E3"/>
<path d="M521.796 255.307H492.931V256.458H521.796V255.307Z" fill="#7BC5E3"/>
<path d="M329.172 351.904H384.602V350.753H329.172V351.904Z" fill="#7BC5E3"/>
<path d="M329.172 357.781H358.589V356.63H329.172V357.781Z" fill="#7BC5E3"/>
<path d="M329.172 363.658H358.589V362.507H329.172V363.658Z" fill="#7BC5E3"/>
<path d="M329.172 369.535H358.589V368.384H329.172V369.535Z" fill="#7BC5E3"/>
<path d="M487.946 174.585H474.696C474.164 174.585 473.733 175.016 473.733 175.547C473.733 176.079 474.164 176.51 474.696 176.51H487.946C488.478 176.51 488.909 176.079 488.909 175.547C488.909 175.016 488.478 174.585 487.946 174.585Z" fill="#7BC5E3"/>
<path d="M487.946 179.229H474.696C474.164 179.229 473.733 179.659 473.733 180.191C473.733 180.723 474.164 181.154 474.696 181.154H487.946C488.478 181.154 488.909 180.723 488.909 180.191C488.909 179.659 488.478 179.229 487.946 179.229Z" fill="#7BC5E3"/>
<path d="M487.946 183.872H474.696C474.164 183.872 473.733 184.303 473.733 184.835C473.733 185.366 474.164 185.797 474.696 185.797H487.946C488.478 185.797 488.909 185.366 488.909 184.835C488.909 184.303 488.478 183.872 487.946 183.872Z" fill="#7BC5E3"/>
<path d="M126.954 66.8181L126.112 66.3301L114.351 73.1161V86.6961L126.112 93.4891L126.144 93.4691L137.873 86.6961V73.1161L126.954 66.8181Z" fill="#B1E0F5"/>
<path d="M344.872 76.3162L344.03 75.8271L332.269 82.6142V96.1932L344.03 102.986L344.062 102.967L355.791 96.1932V82.6142L344.872 76.3162Z" fill="#B1E0F5"/>
<path d="M106.244 53.825L105.903 53.627L101.143 56.374V61.87L105.903 64.6189L105.916 64.612L110.664 61.87V56.374L106.244 53.825Z" fill="#B1E0F5"/>
<path d="M110.993 198.928L110.652 198.73L105.892 201.477V206.973L110.652 209.722L110.665 209.715L115.412 206.973V201.477L110.993 198.928Z" fill="#B1E0F5"/>
<path d="M348.434 21.1111L348.093 20.9131L343.333 23.6601V29.1561L348.093 31.9051L348.106 31.8981L352.854 29.1561V23.6601L348.434 21.1111Z" fill="#B1E0F5"/>
<path d="M338.409 198.928L338.068 198.73L333.308 201.477V206.973L338.068 209.722L338.081 209.715L342.828 206.973V201.477L338.409 198.928Z" fill="#B1E0F5"/>
<path d="M126.725 30.9287L126.079 30.5537L117.063 35.7567V46.1677L126.079 51.3747L126.104 51.3607L135.096 46.1677V35.7567L126.725 30.9287Z" fill="#B1E0F5"/>
<path d="M351.503 41.4824L350.857 41.1074L341.841 46.3104V56.7214L350.857 61.9284L350.882 61.9144L359.873 56.7214V46.3104L351.503 41.4824Z" fill="#B1E0F5"/>
<path d="M344.643 166.006L343.998 165.632L334.982 170.835V181.245L343.998 186.453L344.022 186.438L353.014 181.245V170.835L344.643 166.006Z" fill="#B1E0F5"/>
<path d="M128.308 164.951L127.662 164.577L118.646 169.779V180.19L127.662 185.398L127.687 185.383L136.679 180.19V169.779L128.308 164.951Z" fill="#B1E0F5"/>
<path d="M140.444 203.469L139.798 203.095L130.782 208.298V218.708L139.798 223.916L139.823 223.901L148.815 218.708V208.298L140.444 203.469Z" fill="#B1E0F5"/>
<path d="M156.165 16.2056L155.335 15.7236L143.741 22.4146V35.8016L155.335 42.4976L155.366 42.4786L166.929 35.8016V22.4146L156.165 16.2056Z" fill="#B1E0F5"/>
<path d="M318.152 21.482L317.322 21.001L305.729 27.691V41.078L317.322 47.775L317.354 47.756L328.916 41.078V27.691L318.152 21.482Z" fill="#B1E0F5"/>
<path d="M219.954 75.6654L220.438 75.4554L235.303 68.6094L253.178 75.6654L236.888 82.1164" fill="#C2EAFF"/>
<path d="M225.178 76.6074V88.0444L235.925 93.4664L245.686 88.6354V77.1984L225.178 76.6074Z" fill="#C2EAFF"/>
<path d="M250.517 76.3114V87.0584H252.193V75.8184L250.517 76.3114Z" fill="#C2EAFF"/>
<path d="M250.637 87.9863H251.877V90.3363L250.637 89.4873V87.9863Z" fill="#C2EAFF"/>
<g style="mix-blend-mode:multiply">
<path d="M78.3781 251.429L77.0001 267.438C77.0001 267.438 68.2101 272.268 54.6001 261.728C40.3811 250.718 29.7901 260.858 29.3601 261.278L31.8401 253.878C43.8601 246.468 56.4701 250.838 67.5401 252.708C72.8001 253.599 76.2001 252.729 78.3781 251.429Z" fill="#D1D1D1"/>
</g>
<path d="M177.557 391.279C177.137 390.999 164.727 383.029 152.898 396.649C141.598 409.649 132.047 406.629 132.047 406.629L127.717 391.709L124.917 382.079C127.743 381.615 130.448 380.593 132.874 379.072C135.3 377.55 137.399 375.56 139.047 373.219C145.037 365.089 163.507 366.779 163.507 366.779L171.747 381.139L177.557 391.279Z" fill="#F0F0F0"/>
<path d="M157.579 369.343L156.667 369.752L163.878 385.848L164.791 385.44L157.579 369.343Z" fill="#CFCECC"/>
<path d="M151.995 370.466L151.072 370.852L153.934 377.695L154.857 377.309L151.995 370.466Z" fill="#CFCECC"/>
<path d="M156.868 381.82L155.938 382.189L157.745 386.739L158.675 386.369L156.868 381.82Z" fill="#CFCECC"/>
<path d="M146.693 374.522L145.77 374.906L151.542 388.784L152.466 388.399L146.693 374.522Z" fill="#CFCECC"/>
<path d="M146.598 384.093L145.654 384.425L147.73 390.323L148.674 389.991L146.598 384.093Z" fill="#CFCECC"/>
<g style="mix-blend-mode:multiply">
<path d="M177.557 391.279C177.137 390.999 164.727 383.029 152.898 396.649C141.598 409.649 132.047 406.629 132.047 406.629L127.717 391.709C130.017 393.399 133.517 394.669 138.497 393.459C148.628 390.979 149.837 375.429 171.747 381.139L177.557 391.279Z" fill="#D1D1D1"/>
</g>
<path d="M66.86 395.41C66.86 395.41 56.102 382.017 32.61 401.777L31.51 415.829L67.3 402.875L66.86 395.41Z" fill="#F0F0F0"/>
<path d="M66.8601 395.41C66.8601 395.41 66.8971 395.304 66.9741 395.11C67.9741 392.576 75.8741 375.042 101.55 378.51L104.4 391.238L67.3001 402.215" fill="#F0F0F0"/>
<path d="M101.55 378.505L119.553 397.386L119.114 406.388L104.404 391.239L101.55 378.505Z" fill="#C9C9C9"/>
<path d="M34.9851 404.006L34.3301 403.642C34.4751 403.379 38.0301 397.197 49.2121 395.216L49.3431 395.955C38.5341 397.869 35.0191 403.945 34.9851 404.006Z" fill="#C9C9C9"/>
<path d="M49.3121 399.874L49.0121 399.186C49.3301 399.047 56.8781 395.786 62.9841 398.017L62.7261 398.722C56.9091 396.595 49.3871 399.837 49.3121 399.874Z" fill="#C9C9C9"/>
<path d="M71.517 395.337L70.9 394.911C71.05 394.692 74.669 389.537 80.694 389.063L80.753 389.811C75.089 390.252 71.552 395.283 71.517 395.337Z" fill="#C9C9C9"/>
<path d="M79.675 386.483L79.218 385.889C84.4912 382.383 90.9223 381.067 97.149 382.22L97.02 382.959C91.0001 381.836 84.7795 383.1 79.675 386.483Z" fill="#C9C9C9"/>
<path d="M67.3 402.216C67.3 402.216 73.2281 389.482 105.5 389.702L121.966 407.047C121.966 407.047 97.3761 410.999 87.7161 421.098L67.3 402.216Z" fill="#1B4F7D"/>
<path d="M67.3 402.216C67.3 402.216 53.591 393.43 27.826 416.292L53.468 426.806C53.468 426.806 64.226 417.585 87.718 421.098L67.3 402.216Z" fill="#00315C"/>
<path d="M108.356 313.078L113.845 339.424L107.917 347.548L101.111 326.251L108.356 313.078Z" fill="#C9C9C9"/>
<path d="M36.562 306.491L40.294 291.781C40.294 291.781 65.982 289.366 69.934 305.613L66.2 316.369L36.562 306.491Z" fill="#F0F0F0"/>
<path d="M69.9339 305.613C69.9339 305.613 99.3539 301.88 108.356 313.078L101.111 326.251L66.2 316.369L69.9339 305.613Z" fill="#F0F0F0"/>
<path d="M60.114 301.138C52.573 296.587 43.36 297.247 43.271 297.254L43.212 296.506C43.306 296.496 52.755 295.821 60.501 300.496L60.114 301.138Z" fill="#C9C9C9"/>
<path d="M62.948 307.338C59.867 303.977 52.312 302.946 52.236 302.938L52.336 302.194C52.657 302.237 60.236 303.274 63.503 306.835L62.948 307.338Z" fill="#C9C9C9"/>
<path d="M96.97 312.339C89.621 306.259 74.553 310.039 74.403 310.079L74.215 309.352C74.849 309.189 89.803 305.439 97.449 311.76L96.97 312.339Z" fill="#C9C9C9"/>
<path d="M99.7059 317.697C95.7349 313.443 88.0519 313.174 87.5249 313.284L87.3459 312.555C88.1849 312.348 96.1369 312.774 100.254 317.185L99.7059 317.697Z" fill="#C9C9C9"/>
<path d="M110.327 350.4C110.327 350.4 90.137 346.23 78.937 349.52L78.927 349.51C78.387 348.95 61.137 331.25 46.657 327.79L32.167 305.39C32.167 305.39 53.687 298.59 66.197 316.37C66.197 316.37 91.227 311.1 102.867 325.59L110.327 350.4Z" fill="#042440"/>
<path d="M110.327 350.399C110.327 350.399 90.594 344.118 78.937 349.519L78.927 349.509L66.197 316.369C66.197 316.369 91.227 311.099 102.867 325.589L110.327 350.399Z" fill="#1B4F7D"/>
<path d="M122.243 274.517C124.296 276.218 125.809 278.48 126.596 281.027C127.383 283.575 127.411 286.296 126.676 288.859L111.29 291.206L107.379 294.596L93.8181 293.814L94.2771 289.414L90.9061 291.794L83.9651 289.018L90.1131 271.566C90.1131 271.566 97.4501 268.591 97.6491 267.996C97.8481 267.401 111.537 275.091 122.243 274.517Z" fill="#824B45"/>
<path d="M85.9531 296.809L113.137 258.842L117.39 262.183L90.8131 297.872L82.3081 305.618L85.9531 296.809Z" fill="#042440"/>
<path d="M93.8181 293.814C93.8181 293.814 90.9721 291.914 93.0531 290.065C95.1341 288.216 101.725 288.099 101.725 288.099L102.766 292.84" fill="#824B45"/>
<path d="M361.97 254.103L367.564 252.111C367.564 252.111 371.687 260.238 370.084 264.911L365.747 266.011C365.184 266.154 364.588 266.077 364.08 265.797C363.572 265.516 363.189 265.053 363.01 264.5L360.562 256.964C360.378 256.398 360.422 255.782 360.685 255.248C360.948 254.714 361.409 254.303 361.97 254.103V254.103Z" fill="#FFBE01"/>
<path d="M225.407 217.218L227.296 226.544C227.296 226.544 232.963 232.329 239.574 231.739C246.185 231.149 249.727 223.947 249.727 223.947L250.318 213.44L225.407 217.218Z" fill="#6E403A"/>
<path d="M216.09 197.028L221.671 212.249C222.503 214.518 223.959 216.506 225.871 217.984C229.471 220.767 235.471 225.023 239.02 225.417C242.6 225.817 247.52 220.938 250.349 217.717C251.799 216.058 252.792 214.051 253.231 211.892L257.904 189.223C257.904 189.223 239.191 169.645 218.353 187.889C217.099 189.006 216.211 190.477 215.807 192.108C215.404 193.739 215.502 195.454 216.09 197.028V197.028Z" fill="#824B45"/>
<path d="M218.89 199.338C218.89 199.338 214.696 195.55 213.073 199.609C211.45 203.668 217.537 210.296 218.62 210.702C219.703 211.108 222 208.806 222 208.806L218.89 199.338Z" fill="#824B45"/>
<path d="M255.288 198.904C255.288 198.904 259.482 195.116 261.106 199.175C262.73 203.234 256.641 209.862 255.559 210.268C254.477 210.674 252.177 208.374 252.177 208.374L255.288 198.904Z" fill="#824B45"/>
<path d="M233.167 204.203L233.007 204.321C232.84 204.487 232.633 204.609 232.407 204.677C232.234 204.736 232.051 204.766 231.868 204.765H225.183C225.048 204.764 224.914 204.747 224.783 204.716C224.609 204.677 224.442 204.609 224.29 204.516C224.032 204.37 223.825 204.147 223.7 203.878C223.574 203.609 223.536 203.307 223.59 203.016C223.864 201.735 224.628 200.612 225.718 199.886C226.808 199.159 228.139 198.888 229.426 199.129C229.564 199.139 229.656 199.188 229.77 199.198C230.636 199.359 231.441 199.754 232.098 200.34C232.755 200.926 233.239 201.681 233.497 202.523C233.535 202.636 233.566 202.751 233.589 202.868C233.648 203.107 233.64 203.359 233.566 203.594C233.491 203.83 233.353 204.04 233.167 204.203V204.203Z" fill="white"/>
<path d="M250.76 203.881L250.634 204C250.489 204.166 250.303 204.292 250.095 204.365C249.939 204.416 249.777 204.442 249.613 204.444H243.674C243.428 204.438 243.187 204.369 242.974 204.244C242.941 204.231 242.91 204.215 242.882 204.195C242.646 204.031 242.462 203.802 242.354 203.535C242.246 203.269 242.219 202.977 242.275 202.695C242.619 200.91 244.385 198.137 247.446 198.808C247.561 198.818 247.652 198.867 247.756 198.877C248.556 199.08 249.285 199.497 249.866 200.083C250.447 200.668 250.858 201.401 251.056 202.202C251.09 202.315 251.117 202.43 251.136 202.547C251.192 202.783 251.187 203.029 251.121 203.262C251.055 203.496 250.931 203.709 250.76 203.881V203.881Z" fill="white"/>
<path d="M236.554 212.438C236.762 212.511 241.629 214.167 241.846 210.947C241.927 210.051 241.678 209.156 241.146 208.43C240.639 207.772 239.945 207.283 239.155 207.025L238.92 201.225L238.01 200.874L238.293 207.848L238.832 207.937C239.507 208.062 240.118 208.415 240.563 208.937C240.865 209.391 240.998 209.936 240.937 210.478C240.791 213.263 236.482 211.9 236.482 211.415L236.554 212.438Z" fill="#451A16"/>
<path d="M232.73 196.781C232.73 196.781 227.685 194.407 223.768 197.029C223.989 196 224.525 195.066 225.301 194.356C226.078 193.647 227.057 193.197 228.101 193.071C231.721 192.725 232.73 196.781 232.73 196.781Z" fill="#1F1A1A"/>
<path d="M251.167 196.515C251.167 196.515 246.122 194.141 242.205 196.762C242.426 195.734 242.962 194.8 243.738 194.09C244.515 193.381 245.494 192.932 246.538 192.805C250.158 192.459 251.167 196.515 251.167 196.515Z" fill="#1F1A1A"/>
<path d="M230 203.404C229.999 203.871 229.905 204.334 229.725 204.765H225.184C225.049 204.764 224.915 204.747 224.784 204.716C224.612 204.3 224.522 203.854 224.52 203.404C224.471 203.015 224.506 202.62 224.621 202.246C224.737 201.872 224.93 201.526 225.189 201.232C225.449 200.939 225.767 200.703 226.124 200.542C226.482 200.381 226.869 200.298 227.261 200.298C227.652 200.298 228.04 200.381 228.397 200.542C228.754 200.703 229.072 200.939 229.332 201.232C229.591 201.526 229.785 201.872 229.9 202.246C230.015 202.62 230.05 203.015 230.001 203.404H230Z" fill="#1F1A1A"/>
<path d="M248.249 203.138C248.249 203.583 248.163 204.025 247.996 204.438H243.674C243.428 204.432 243.187 204.363 242.974 204.238C242.845 203.884 242.779 203.51 242.779 203.133C242.73 202.745 242.764 202.35 242.879 201.976C242.993 201.602 243.187 201.257 243.445 200.963C243.704 200.669 244.022 200.434 244.379 200.273C244.736 200.112 245.123 200.028 245.514 200.028C245.905 200.028 246.292 200.112 246.649 200.273C247.006 200.434 247.324 200.669 247.583 200.963C247.842 201.257 248.035 201.602 248.15 201.976C248.265 202.35 248.298 202.745 248.249 203.133V203.138Z" fill="#1F1A1A"/>
<path d="M260.217 192.912C259.226 195.202 257.135 197.052 256.095 199.322C255.375 200.892 254.706 201.762 254.456 203.462C254.137 202.412 253.817 201.352 253.497 200.302C253.375 199.941 253.288 199.569 253.236 199.192C253.212 198.627 253.263 198.062 253.387 197.512C253.717 195.662 254.057 193.812 254.387 191.962C254.09 192.093 253.76 192.133 253.44 192.079C253.119 192.025 252.822 191.879 252.584 191.658C252.345 191.437 252.177 191.151 252.1 190.835C252.022 190.519 252.039 190.188 252.147 189.882C251.016 190.618 249.706 191.033 248.357 191.082C247.685 191.091 247.024 190.913 246.448 190.566C245.872 190.22 245.404 189.72 245.097 189.122C244.626 189.756 244.026 190.284 243.337 190.67C242.647 191.056 241.884 191.292 241.097 191.362C239.827 191.472 238.277 190.852 238.127 189.582C237.556 190.347 236.778 190.933 235.885 191.271C234.993 191.61 234.022 191.686 233.087 191.492C232.603 191.426 232.149 191.221 231.779 190.901C231.41 190.582 231.142 190.161 231.007 189.692C230.656 190.308 230.161 190.831 229.565 191.216C228.969 191.601 228.288 191.836 227.582 191.902C226.875 191.968 226.163 191.862 225.506 191.594C224.849 191.326 224.266 190.903 223.807 190.362C223.768 190.884 223.57 191.382 223.239 191.788C222.908 192.194 222.46 192.489 221.956 192.632C221.514 192.799 221.029 192.809 220.581 192.659C220.133 192.51 219.75 192.211 219.497 191.812C219.497 191.812 221.236 206.102 221.137 206.392C221.038 206.682 218.337 204.172 218.337 204.172L216.217 198.472L214.747 197.552C214.357 190.922 216.837 183.472 218.677 178.972C220.308 178.382 221.992 177.95 223.706 177.682C232.327 176.152 241.257 175.642 249.777 177.612C254.436 178.692 259.467 181.052 260.877 185.622C261.526 188.053 261.292 190.636 260.217 192.912V192.912Z" fill="#1F1A1A"/>
<path d="M237.508 218.282C236.783 218.289 236.059 218.219 235.349 218.073L235.5 217.446C235.747 217.506 241.616 218.846 244.638 213.946L245.187 214.285C244.372 215.568 243.233 216.613 241.884 217.315C240.536 218.017 239.027 218.351 237.508 218.282V218.282Z" fill="#451A16"/>
<path d="M173.6 61.374C171.324 61.3742 169.1 62.0492 167.208 63.3136C165.316 64.578 163.841 66.3751 162.971 68.4776C162.1 70.58 161.872 72.8935 162.316 75.1253C162.76 77.3572 163.856 79.4073 165.465 81.0163C167.075 82.6254 169.125 83.7211 171.357 84.165C173.589 84.6089 175.902 84.381 178.004 83.5101C180.107 82.6392 181.904 81.1644 183.168 79.2723C184.432 77.3802 185.107 75.1556 185.107 72.88C185.107 71.3689 184.809 69.8727 184.231 68.4766C183.653 67.0806 182.805 65.8121 181.737 64.7437C180.668 63.6753 179.4 62.8278 178.003 62.2496C176.607 61.6714 175.111 61.3739 173.6 61.374ZM173.6 81.036C171.987 81.0358 170.41 80.5573 169.069 79.661C167.728 78.7647 166.683 77.4908 166.066 76.0005C165.448 74.5102 165.287 72.8703 165.602 71.2883C165.917 69.7062 166.694 68.253 167.834 67.1125C168.975 65.972 170.428 65.1953 172.01 64.8807C173.592 64.566 175.232 64.7276 176.722 65.345C178.213 65.9623 179.486 67.0077 180.383 68.3489C181.279 69.6901 181.757 71.267 181.757 72.88C181.757 73.9513 181.546 75.0121 181.136 76.0019C180.727 76.9916 180.126 77.891 179.368 78.6485C178.611 79.4061 177.711 80.007 176.722 80.417C175.732 80.827 174.671 81.038 173.6 81.038V81.036Z" fill="#C2EAFF"/>
<path d="M180.277 78.5597L177.508 80.5293L186.947 93.7989L189.716 91.8293L180.277 78.5597Z" fill="#C2EAFF"/>
<path d="M196.016 30.6495H190.98L190.144 33.4495H186.724L191.645 18.2275H195.389L200.311 33.4495H196.852L196.016 30.6495ZM195.18 27.8305L193.508 22.1925L191.816 27.8305H195.18Z" fill="#C2EAFF"/>
<path d="M211.551 26.8988C212.031 27.5922 212.28 28.4189 212.264 29.2618C212.297 29.8268 212.212 30.3923 212.014 30.9225C211.816 31.4526 211.509 31.9357 211.114 32.3408C210.203 33.1306 209.017 33.5282 207.814 33.4468H201.562V18.1158H207.662C208.811 18.042 209.945 18.4065 210.835 19.1358C211.22 19.5098 211.52 19.9626 211.713 20.4631C211.907 20.9636 211.99 21.5001 211.957 22.0358C211.988 22.8545 211.762 23.6622 211.31 24.3458C210.91 24.937 210.309 25.3633 209.619 25.5458C210.407 25.746 211.094 26.2272 211.551 26.8988V26.8988ZM204.814 24.3828H206.943C207.169 24.418 207.4 24.4001 207.618 24.3306C207.836 24.2611 208.035 24.1419 208.199 23.9823C208.363 23.8228 208.488 23.6273 208.563 23.4113C208.639 23.1953 208.663 22.9648 208.634 22.7378C208.634 21.6398 208.058 21.0905 206.905 21.0898H204.814V24.3828ZM208.938 28.7378C208.952 28.5017 208.916 28.2653 208.835 28.0434C208.753 27.8215 208.627 27.6187 208.463 27.4478C208.281 27.2843 208.067 27.1588 207.836 27.0786C207.604 26.9984 207.359 26.9652 207.114 26.9808H204.814V30.4378H207.133C208.336 30.4378 208.938 29.8711 208.938 28.7378Z" fill="#C2EAFF"/>
<path d="M224.359 19.5038C225.525 20.6133 226.29 22.0775 226.535 23.6678H223.1C222.881 23.0093 222.475 22.429 221.931 21.9978C221.394 21.5896 220.734 21.3756 220.059 21.3908C219.607 21.3827 219.16 21.4874 218.758 21.6955C218.357 21.9036 218.013 22.2086 217.759 22.5828C217.134 23.5244 216.828 24.6419 216.885 25.7708C216.826 26.8963 217.133 28.0108 217.759 28.9478C218.015 29.3198 218.359 29.6226 218.76 29.8289C219.161 30.0352 219.608 30.1386 220.059 30.1298C220.734 30.1451 221.394 29.9307 221.931 29.5218C222.471 29.0965 222.877 28.5242 223.1 27.8738H226.539C226.289 29.4594 225.525 30.9187 224.363 32.0268C223.306 32.9214 221.992 33.4578 220.611 33.5592C219.23 33.6605 217.853 33.3215 216.676 32.5908C215.666 31.9056 214.872 30.9464 214.387 29.8258C213.854 28.5404 213.579 27.1624 213.579 25.7708C213.579 24.3791 213.854 23.0012 214.387 21.7158C214.872 20.5953 215.666 19.6362 216.676 18.9508C217.852 18.2216 219.229 17.8825 220.609 17.9818C221.99 18.0811 223.303 18.6137 224.363 19.5038H224.359Z" fill="#C2EAFF"/>
<path d="M283.036 18.9192V35.2022C283.037 35.2649 283.025 35.3271 283.001 35.3852C282.978 35.4432 282.942 35.4959 282.898 35.5403C282.854 35.5846 282.801 35.6197 282.743 35.6433C282.685 35.667 282.623 35.6789 282.56 35.6782H280.86C280.794 35.6782 280.73 35.6919 280.67 35.7184C280.61 35.7449 280.556 35.7836 280.512 35.8321C280.468 35.8806 280.435 35.9378 280.414 36C280.393 36.0622 280.386 36.128 280.392 36.1932L280.812 40.0642C280.822 40.1588 280.803 40.2543 280.758 40.3378C280.712 40.4213 280.642 40.4888 280.557 40.5312C280.472 40.5737 280.375 40.5891 280.281 40.5753C280.187 40.5615 280.099 40.5193 280.03 40.4542C278.781 39.2822 276.53 37.1752 275.073 35.8022C275.032 35.761 274.983 35.7287 274.928 35.7074C274.874 35.6861 274.816 35.6761 274.758 35.6782H260.233C260.171 35.678 260.11 35.6654 260.052 35.6413C259.995 35.6172 259.943 35.582 259.9 35.5377C259.856 35.4935 259.822 35.441 259.799 35.3834C259.776 35.3259 259.764 35.2643 259.765 35.2022V18.9192C259.765 18.7952 259.815 18.6763 259.902 18.5886C259.99 18.5009 260.109 18.4515 260.233 18.4512H282.56C282.622 18.4504 282.684 18.4619 282.741 18.4851C282.799 18.5082 282.851 18.5425 282.896 18.586C282.94 18.6295 282.975 18.6814 282.999 18.7386C283.023 18.7958 283.036 18.8571 283.036 18.9192V18.9192Z" fill="#C2EAFF"/>
<path d="M274.318 18.4512V31.6992C274.319 31.8229 274.271 31.9419 274.184 32.0303C274.098 32.1187 273.98 32.1693 273.856 32.1712H259.765V18.9442C259.765 18.8134 259.817 18.688 259.91 18.5956C260.002 18.5031 260.127 18.4512 260.258 18.4512H274.318Z" fill="#48ADE0"/>
<path d="M272.618 13.3105H250.23C250.172 13.3104 250.115 13.3217 250.061 13.3438C250.008 13.366 249.959 13.3984 249.918 13.4394C249.877 13.4804 249.844 13.5291 249.822 13.5826C249.8 13.6362 249.789 13.6936 249.789 13.7515V30.0955C249.789 30.1535 249.8 30.2109 249.822 30.2645C249.844 30.318 249.877 30.3667 249.918 30.4077C249.959 30.4487 250.008 30.4811 250.061 30.5032C250.115 30.5254 250.172 30.5367 250.23 30.5365H251.249C251.321 30.5362 251.392 30.5536 251.456 30.5873C251.52 30.621 251.575 30.6699 251.615 30.7297C251.656 30.7895 251.681 30.8583 251.689 30.9302C251.696 31.002 251.686 31.0746 251.659 31.1415C251.259 32.1275 250.793 33.2675 250.422 34.1605C250.385 34.2505 250.379 34.3503 250.404 34.4443C250.429 34.5383 250.485 34.6212 250.563 34.6801C250.64 34.739 250.735 34.7706 250.833 34.77C250.93 34.7693 251.024 34.7365 251.101 34.6765L256.301 30.6295C256.379 30.5695 256.474 30.5368 256.572 30.5365H272.615C272.673 30.5367 272.731 30.5254 272.784 30.5033C272.838 30.4812 272.886 30.4487 272.928 30.4077C272.969 30.3668 273.001 30.3181 273.023 30.2645C273.046 30.211 273.057 30.1535 273.057 30.0955V13.7515C273.057 13.6349 273.011 13.5231 272.929 13.4404C272.846 13.3578 272.735 13.3111 272.618 13.3105V13.3105Z" fill="#C2EAFF"/>
<path d="M177.178 167.578L174.685 167.286L174.351 170.137C174.243 170.137 174.135 170.129 174.026 170.129C173.134 170.129 172.245 170.233 171.377 170.439L170.341 167.708L167.994 168.597L169.01 171.277C168.109 171.715 167.268 172.268 166.51 172.922L164.331 170.974L162.658 172.845L164.795 174.756C164.196 175.558 163.705 176.436 163.333 177.365L160.504 176.641L159.882 179.073L162.661 179.784C162.464 180.987 162.458 182.214 162.646 183.419L159.846 184.239L160.552 186.648L163.304 185.842C163.669 186.774 164.155 187.655 164.748 188.461L162.639 190.482L164.375 192.294L166.448 190.308C167.201 190.968 168.037 191.527 168.934 191.97L167.994 194.738L170.371 195.546L171.294 192.831C172.188 193.049 173.106 193.16 174.026 193.16C174.107 193.16 174.186 193.155 174.267 193.154L174.707 196.044L177.188 195.666L176.756 192.831C177.729 192.596 178.667 192.233 179.546 191.752L181.266 194.11L183.294 192.631L181.603 190.312C182.357 189.654 183.022 188.9 183.582 188.07L186.196 189.37L187.314 187.123L184.746 185.845C185.111 184.914 185.353 183.939 185.465 182.945L188.386 182.895L188.343 180.385L185.476 180.435C185.371 179.439 185.136 178.462 184.776 177.527L187.344 176.136L186.144 173.929L183.622 175.295C183.069 174.461 182.41 173.702 181.661 173.038L183.3 170.618L181.222 169.21L179.613 171.584C178.738 171.098 177.804 170.728 176.833 170.484L177.178 167.578ZM166.621 181.643C166.62 180.178 167.054 178.746 167.867 177.528C168.68 176.309 169.836 175.359 171.189 174.798C172.542 174.237 174.031 174.09 175.468 174.375C176.904 174.66 178.224 175.365 179.26 176.4C180.297 177.436 181.002 178.755 181.288 180.192C181.575 181.628 181.428 183.117 180.868 184.471C180.308 185.824 179.358 186.981 178.141 187.795C176.923 188.609 175.491 189.043 174.026 189.043C172.063 189.043 170.18 188.263 168.792 186.876C167.403 185.488 166.623 183.606 166.621 181.643V181.643Z" fill="#C2EAFF"/>
<path d="M144.023 119.038V134.612C144.023 134.612 137.773 125.63 132.03 130.489C126.287 135.348 132.619 144.625 146.902 139.913V124.307C146.902 124.307 151.026 128.136 155.002 125.338C158.978 122.54 158.831 120.332 158.831 120.332C158.831 120.332 156.18 124.013 153.824 120.773C151.468 117.533 146.444 116.131 144.023 119.038Z" fill="#C2EAFF"/>
<path d="M314.59 182.017C314.59 180.017 312.653 178.462 309.79 177.388C311.148 174.372 311.2 172.005 309.915 170.72C308.63 169.435 306.265 169.486 303.247 170.845C302.174 167.977 300.622 166.04 298.618 166.04C296.614 166.04 295.062 167.977 293.989 170.846C290.971 169.484 288.603 169.435 287.321 170.72C286.039 172.005 286.088 174.372 287.446 177.388C284.579 178.462 282.641 180.014 282.641 182.017C282.641 184.02 284.578 185.572 287.441 186.645C286.173 189.432 285.902 191.898 287.318 193.314C287.663 193.635 288.069 193.884 288.512 194.044C288.956 194.205 289.426 194.275 289.897 194.249C291.319 194.181 292.711 193.819 293.986 193.188C295.059 196.057 296.611 197.994 298.615 197.994C300.619 197.994 302.171 196.057 303.244 193.189C304.519 193.82 305.91 194.181 307.331 194.249C307.802 194.275 308.273 194.205 308.717 194.044C309.16 193.884 309.567 193.635 309.912 193.314C311.328 191.898 311.057 189.432 309.789 186.645C312.654 185.572 314.59 184.02 314.59 182.017ZM303.763 172.417C304.871 171.846 306.084 171.509 307.328 171.429C307.842 171.389 308.351 171.553 308.744 171.887C309.506 172.649 309.308 174.511 308.215 176.867C307.01 176.529 305.784 176.268 304.546 176.084C304.362 174.846 304.101 173.62 303.763 172.415V172.417ZM303.336 182.017C303.336 182.67 303.316 183.302 303.287 183.923C302.851 184.403 302.423 184.886 301.952 185.356C301.481 185.826 300.999 186.256 300.519 186.691C299.898 186.72 299.267 186.739 298.619 186.739C297.971 186.739 297.335 186.72 296.714 186.691C296.234 186.255 295.751 185.827 295.281 185.356C294.811 184.885 294.381 184.403 293.946 183.923C293.917 183.302 293.897 182.67 293.897 182.017C293.897 181.364 293.918 180.712 293.947 180.081C294.372 179.615 294.811 179.147 295.281 178.681C295.751 178.215 296.233 177.781 296.713 177.347C297.334 177.318 297.966 177.298 298.619 177.298C299.272 177.298 299.904 177.318 300.525 177.346C301.005 177.782 301.487 178.21 301.957 178.681C302.427 179.152 302.866 179.618 303.291 180.081C303.315 180.712 303.336 181.353 303.336 182.017ZM301.221 175.732C300.81 175.369 300.397 175.019 299.984 174.681C300.724 174.154 301.49 173.664 302.279 173.214C302.499 174.026 302.692 174.914 302.851 175.868C302.312 175.811 301.768 175.768 301.221 175.732ZM296.007 175.732C295.46 175.768 294.916 175.811 294.377 175.868C294.536 174.912 294.729 174.027 294.948 173.215C295.739 173.665 296.507 174.154 297.248 174.682C296.83 175.018 296.417 175.37 296.007 175.732ZM292.329 179.413C291.971 179.821 291.62 180.233 291.281 180.651C290.752 179.91 290.261 179.142 289.811 178.351C290.623 178.132 291.511 177.939 292.465 177.78C292.408 178.32 292.364 178.865 292.329 179.413ZM292.329 184.624C292.363 185.171 292.407 185.715 292.464 186.254C291.561 186.106 290.666 185.913 289.782 185.675C290.238 184.884 290.733 184.116 291.266 183.375C291.607 183.793 291.961 184.209 292.33 184.624H292.329ZM296.007 188.302C296.417 188.665 296.829 189.015 297.243 189.352C296.502 189.88 295.734 190.37 294.943 190.819C294.723 190.007 294.53 189.119 294.371 188.167C294.916 188.224 295.461 188.267 296.008 188.302H296.007ZM301.219 188.302C301.766 188.267 302.311 188.224 302.85 188.167C302.691 189.123 302.498 190.008 302.278 190.82C301.489 190.37 300.723 189.88 299.983 189.352C300.398 189.016 300.81 188.666 301.22 188.302H301.219ZM304.897 184.624C305.264 184.209 305.62 183.792 305.96 183.373C306.493 184.114 306.988 184.882 307.444 185.673C306.56 185.911 305.665 186.104 304.762 186.252C304.82 185.715 304.863 185.171 304.9 184.624H304.897ZM304.897 179.413C304.862 178.865 304.818 178.32 304.761 177.78C305.717 177.939 306.603 178.132 307.415 178.351C306.965 179.142 306.474 179.91 305.945 180.651C305.608 180.238 305.257 179.821 304.9 179.413H304.897ZM298.612 167.69C299.712 167.69 300.873 169.124 301.769 171.584C300.673 172.191 299.619 172.87 298.612 173.615C297.605 172.87 296.55 172.192 295.454 171.584C296.352 169.124 297.514 167.69 298.614 167.69H298.612ZM289.012 176.867C287.919 174.511 287.721 172.649 288.483 171.887C288.875 171.553 289.384 171.388 289.897 171.429C291.141 171.509 292.355 171.845 293.463 172.417C293.126 173.622 292.864 174.847 292.68 176.085C291.442 176.269 290.216 176.53 289.011 176.868L289.012 176.867ZM284.287 182.017C284.287 180.917 285.721 179.755 288.18 178.859C288.79 179.958 289.471 181.016 290.219 182.026C289.474 183.032 288.792 184.083 288.179 185.175C285.722 184.278 284.288 183.117 284.288 182.017H284.287ZM293.463 191.617C291.106 192.711 289.244 192.909 288.483 192.146C287.705 191.368 287.898 189.534 289.003 187.161C290.212 187.501 291.44 187.763 292.682 187.947C292.866 189.185 293.128 190.411 293.465 191.616L293.463 191.617ZM298.613 196.342C297.513 196.342 296.352 194.909 295.455 192.449C296.551 191.841 297.606 191.163 298.613 190.418C299.62 191.163 300.675 191.842 301.77 192.449C300.875 194.91 299.714 196.343 298.614 196.343L298.613 196.342ZM308.743 192.142C307.982 192.902 306.12 192.707 303.762 191.613C304.1 190.408 304.361 189.182 304.545 187.944C305.787 187.76 307.016 187.498 308.224 187.158C309.329 189.538 309.522 191.369 308.744 192.147L308.743 192.142ZM309.043 185.17C308.43 184.079 307.749 183.027 307.003 182.021C307.751 181.011 308.433 179.953 309.042 178.854C311.501 179.754 312.935 180.911 312.935 182.012C312.935 183.113 311.506 184.278 309.048 185.175L309.043 185.17Z" fill="#C2EAFF"/>
<path d="M212.54 115.241L189.337 141.234L195.756 146.965L218.959 120.971L212.54 115.241Z" fill="#C2EAFF"/>
<path d="M214.386 120.056L213.469 121.084L216.468 123.762L217.386 122.734L214.386 120.056Z" fill="#48ADE0"/>
<path d="M208.861 126.244L207.944 127.272L210.943 129.95L211.861 128.922L208.861 126.244Z" fill="#48ADE0"/>
<path d="M203.337 132.433L202.419 133.461L205.419 136.139L206.337 135.111L203.337 132.433Z" fill="#48ADE0"/>
<path d="M197.823 138.612L196.905 139.64L199.905 142.317L200.823 141.289L197.823 138.612Z" fill="#48ADE0"/>
<path d="M197.324 142.106L196.837 142.651L198.379 144.028L198.866 143.482L197.324 142.106Z" fill="#48ADE0"/>
<path d="M195.975 143.616L195.479 144.172L197.021 145.548L197.517 144.993L195.975 143.616Z" fill="#48ADE0"/>
<path d="M202.52 136.284L202.024 136.84L203.566 138.216L204.062 137.661L202.52 136.284Z" fill="#48ADE0"/>
<path d="M201.162 137.805L200.675 138.351L202.217 139.727L202.704 139.182L201.162 137.805Z" fill="#48ADE0"/>
<path d="M207.885 130.274L207.389 130.83L208.931 132.207L209.427 131.651L207.885 130.274Z" fill="#48ADE0"/>
<path d="M206.527 131.795L206.031 132.351L207.573 133.727L208.069 133.171L206.527 131.795Z" fill="#48ADE0"/>
<path d="M213.522 123.959L213.026 124.515L214.568 125.891L215.064 125.335L213.522 123.959Z" fill="#48ADE0"/>
<path d="M212.164 125.479L211.668 126.035L213.21 127.412L213.706 126.856L212.164 125.479Z" fill="#48ADE0"/>
<path d="M306.145 79.6969C305.269 76.7059 301.772 74.0849 296.032 72.1159C293.258 71.1649 291.404 69.6599 290.52 67.6409C289.729 65.4883 289.768 63.1179 290.631 60.9929L289.717 60.5879C288.727 62.965 288.685 65.6309 289.6 68.0379C290.6 70.3279 292.654 72.0199 295.708 73.0679C301.05 74.8989 304.416 77.3549 305.185 79.9829C305.383 80.7183 305.393 81.4918 305.213 82.232C305.034 82.9721 304.67 83.6551 304.157 84.2179C303.244 85.3699 301.393 86.3789 299.434 87.4489C294.95 89.8949 289.37 92.9409 291.044 99.8359L292.016 99.5999C290.522 93.4509 295.516 90.7279 299.916 88.3259C301.967 87.2069 303.904 86.1499 304.943 84.8389C305.555 84.1491 305.985 83.3178 306.195 82.42C306.405 81.5223 306.388 80.5864 306.145 79.6969V79.6969Z" fill="#C2EAFF"/>
<path d="M289.733 81.4029C289.567 83.7599 290.833 86.0409 293.495 88.1829L294.122 87.4039C291.732 85.4809 290.591 83.4869 290.73 81.4769C290.979 77.8859 295.23 75.3069 295.267 75.2769L294.756 74.4189C294.562 74.5379 290.021 77.2899 289.733 81.4029Z" fill="#C2EAFF"/>
<path d="M300.157 70.2699L300.501 71.2089C306.873 68.8719 304.747 60.4649 304.724 60.3809L303.758 60.6349C303.777 60.7099 305.684 68.2429 300.157 70.2699Z" fill="#C2EAFF"/>
<path d="M300.642 91.3096L300.502 92.2996C300.534 92.2996 303.721 92.9086 302.987 100.081L303.981 100.181C304.823 91.9706 300.813 91.3376 300.642 91.3096Z" fill="#C2EAFF"/>
<path d="M301.596 77.2568H294.173V78.4568H301.596V77.2568Z" fill="#C2EAFF"/>
<path d="M301.596 80.1807H294.173V81.3807H301.596V80.1807Z" fill="#C2EAFF"/>
<path d="M301.596 83.1045H294.173V84.3045H301.596V83.1045Z" fill="#C2EAFF"/>
<path d="M301.233 62.3086H293.81V63.5086H301.233V62.3086Z" fill="#C2EAFF"/>
<path d="M301.233 65.2324H293.81V66.4324H301.233V65.2324Z" fill="#C2EAFF"/>
<path d="M301.596 94.3516H294.173V95.5516H301.596V94.3516Z" fill="#C2EAFF"/>
<path d="M300.58 98.2754H293.157V99.4754H300.58V98.2754Z" fill="#C2EAFF"/>
<path d="M336.223 132.919C336.568 130.711 336.325 128.451 335.52 126.365C334.715 124.28 333.375 122.443 331.636 121.039L334.907 118.095L331.954 114.814L315.547 129.578L318.5 132.859L330.122 122.401C331.67 123.589 332.869 125.172 333.593 126.983C334.317 128.794 334.539 130.767 334.236 132.694C334.088 134.452 333.549 136.153 332.659 137.676C331.769 139.198 330.551 140.503 329.093 141.494C328.236 142.037 327.303 142.449 326.325 142.716V140.568H311.532V142.79H319.377L318.857 144.371C320.331 144.866 321.874 145.122 323.429 145.129C324.986 145.133 326.53 144.847 327.982 144.285C327.691 144.775 327.591 145.355 327.702 145.914C327.813 146.473 328.126 146.971 328.582 147.312L321.055 150.091H332.61L331.118 147.514C331.561 147.279 331.917 146.906 332.132 146.452C332.346 145.998 332.409 145.487 332.31 144.995C332.211 144.503 331.956 144.055 331.582 143.72C331.209 143.384 330.737 143.178 330.237 143.131C331.927 141.977 333.341 140.463 334.376 138.697C335.411 136.931 336.042 134.958 336.223 132.919ZM320.635 142.789H326.063C324.28 143.225 322.418 143.225 320.635 142.789V142.789Z" fill="#C2EAFF"/>
<path d="M282.167 128.989C282.167 126.525 281.608 124.093 280.532 121.876C279.457 119.659 277.892 117.715 275.957 116.189L274.757 117.799C277.082 119.645 278.775 122.169 279.601 125.02C280.427 127.871 280.346 130.909 279.367 133.712C278.389 136.514 276.563 138.943 274.142 140.661C271.721 142.379 268.826 143.301 265.857 143.299C265.245 143.3 264.634 143.26 264.027 143.179V145.199C264.295 145.23 264.566 145.251 264.838 145.267V148.025H260.126V149.914H272.205V148.025H267.492V145.216C271.513 144.807 275.238 142.921 277.949 139.924C280.66 136.927 282.163 133.031 282.167 128.989V128.989Z" fill="#C2EAFF"/>
<path d="M261.148 140.399C262.641 141.016 264.242 141.332 265.857 141.329C267.57 141.332 269.264 140.971 270.827 140.269H270.847C271.025 140.2 271.199 140.12 271.367 140.029C273.042 139.19 274.506 137.982 275.647 136.496C276.789 135.01 277.578 133.285 277.957 131.449C278.058 130.921 278.128 130.386 278.167 129.849C278.187 129.569 278.197 129.279 278.197 128.989C278.201 128.217 278.127 127.447 277.977 126.689C277.917 126.339 277.837 125.999 277.747 125.669C277.363 124.29 276.737 122.99 275.898 121.829C275.708 121.553 275.501 121.289 275.277 121.039C273.586 119.02 271.289 117.6 268.727 116.989H268.717C268.387 116.909 268.047 116.839 267.697 116.789C265.849 116.508 263.961 116.652 262.177 117.209C261.837 117.319 261.487 117.439 261.157 117.579C258.928 118.508 257.017 120.064 255.657 122.059V122.069C255.467 122.339 255.287 122.619 255.117 122.919C254.514 123.977 254.076 125.12 253.817 126.309C253.737 126.639 253.677 126.979 253.628 127.319C253.555 127.873 253.518 128.431 253.517 128.989C253.515 130.053 253.653 131.112 253.927 132.139C254.035 132.55 254.165 132.954 254.317 133.349C254.911 134.915 255.817 136.345 256.979 137.551C258.14 138.758 259.535 139.717 261.077 140.369C261.1 140.379 261.128 140.389 261.148 140.399ZM270.497 139.329C269.132 139.945 267.658 140.284 266.161 140.325C264.664 140.366 263.174 140.109 261.777 139.569C260.96 138.113 260.29 136.579 259.777 134.989C261.798 135.453 263.864 135.694 265.937 135.709C267.726 135.723 269.508 135.498 271.237 135.039C271.065 136.481 270.819 137.913 270.5 139.329H270.497ZM271.347 133.979C267.44 134.985 263.338 134.954 259.447 133.889C259.01 132.295 258.775 130.652 258.747 128.999C261.115 129.594 263.546 129.9 265.987 129.909C267.834 129.917 269.676 129.716 271.477 129.309C271.535 130.867 271.492 132.427 271.347 133.979V133.979ZM258.747 127.979C258.795 126.664 258.979 125.357 259.297 124.079C261.119 124.438 262.971 124.622 264.827 124.629C266.82 124.639 268.806 124.394 270.737 123.899C271.091 125.34 271.318 126.809 271.417 128.289C267.23 129.2 262.885 129.093 258.747 127.979V127.979ZM271.647 138.739C271.926 137.329 272.136 135.999 272.276 134.739C273.835 134.224 275.305 133.472 276.636 132.509C275.775 135.117 274.005 137.328 271.648 138.738L271.647 138.739ZM277.196 128.989C277.196 129.643 277.139 130.296 277.026 130.939C275.656 132.11 274.083 133.022 272.386 133.629C272.519 132.107 272.549 130.576 272.476 129.049C274.066 128.611 275.602 127.998 277.056 127.219C277.15 127.805 277.198 128.397 277.2 128.989H277.196ZM275.006 122.309C275.868 123.473 276.493 124.795 276.846 126.199C275.448 126.977 273.965 127.592 272.426 128.029C272.316 126.546 272.082 125.074 271.726 123.629C272.854 123.281 273.952 122.839 275.007 122.309H275.006ZM274.366 121.509C273.431 121.972 272.462 122.359 271.466 122.669C271.033 121.137 270.408 119.665 269.606 118.289C271.443 118.936 273.083 120.045 274.367 121.509H274.366ZM261.776 118.409C263.799 117.629 266.003 117.445 268.127 117.879C269.186 119.428 269.979 121.141 270.476 122.949C266.895 123.804 263.17 123.858 259.566 123.109C260.073 121.445 260.818 119.862 261.777 118.409H261.776ZM260.196 119.179C259.554 120.37 259.035 121.623 258.647 122.919C257.897 122.749 257.226 122.559 256.647 122.389C257.584 121.074 258.797 119.979 260.2 119.179H260.196ZM256.076 123.249C256.736 123.459 257.506 123.679 258.386 123.879C258.072 125.138 257.881 126.424 257.816 127.719C256.656 127.389 255.616 127.029 254.746 126.689C255.003 125.479 255.452 124.317 256.077 123.249H256.076ZM254.516 128.989C254.512 128.558 254.539 128.127 254.596 127.699C255.506 128.049 256.586 128.419 257.786 128.749C257.789 130.39 257.984 132.024 258.366 133.619C257.296 133.329 256.206 132.989 255.096 132.579C254.71 131.422 254.514 130.21 254.517 128.989H254.516ZM255.596 133.809C256.636 134.169 257.656 134.479 258.656 134.729H258.666C259.081 136.15 259.62 137.532 260.276 138.859C258.234 137.699 256.6 135.935 255.6 133.809H255.596Z" fill="#C2EAFF"/>
</svg>
