<svg width="751" height="381" viewBox="0 0 751 381" fill="none" xmlns="http://www.w3.org/2000/svg">
<path d="M733.222 335.963C724.996 361.69 716.887 376.755 716.887 376.755H431.58L385.654 378.782C385.654 378.782 404.205 363.731 412.242 335.963C418.614 313.912 418.351 283.855 396.913 246.957C348.465 163.595 355.232 49.7953 430.719 12.6203C506.206 -24.5547 712.381 26.1383 741.666 151.198C759.618 227.838 746.26 295.245 733.222 335.963Z" fill="#D4F2FF"/>
<path d="M730.016 338.044C721.79 363.77 713.681 378.836 713.681 378.836H428.374L382.448 380.863C382.448 380.863 401 365.812 409.035 338.044H730.016Z" fill="#7CB5DE"/>
<path d="M592.449 238.532C592.449 238.532 591.123 233.892 574.107 235.439C557.091 236.986 555.544 228.588 555.544 228.588V235.88C555.544 235.88 558.417 242.731 574.107 240.742C589.797 238.753 592.449 246.042 592.449 246.042V238.532Z" fill="#548EB8"/>
<path d="M550.234 74.8584V121.138L433.514 139.568L433.134 121.948L432.284 81.8284L536.165 75.6884L550.234 74.8584Z" fill="#9AD3FC"/>
<path d="M555.915 71.0967H548.695V337.124H555.915V71.0967Z" fill="#042440"/>
<path d="M666.764 253.603L666.212 262.492L669.404 267.492C669.671 267.909 670.059 268.236 670.517 268.426C670.975 268.616 671.48 268.661 671.964 268.556L677.884 267.264C678.495 267.131 679.031 266.767 679.38 266.248C679.729 265.729 679.863 265.096 679.755 264.48C679.132 260.98 677.994 254.956 675.445 251.515L666.764 253.603Z" fill="#824B45"/>
<path d="M596.586 336.644L593.686 338.044L491.259 378.838H433.813L433.186 378.779C432.486 377.729 530.156 344.142 546.417 338.046C547.192 337.784 547.952 337.477 548.692 337.127C549.7 336.138 596.586 336.644 596.586 336.644Z" fill="white"/>
<path d="M676.719 251.687L668.157 254.023L665.613 254.723L656.161 232.923C655.798 232.087 655.244 231.348 654.543 230.766C653.842 230.184 653.014 229.775 652.126 229.573L639.62 226.721C639.62 226.721 627.475 256.452 615.12 258.614L631.6 199.575C631.6 199.575 639.453 201.155 642.4 205.633L663.874 218.26C664.769 218.786 665.449 219.612 665.793 220.591L676.719 251.687Z" fill="#00315C"/>
<path opacity="0.53" d="M637.262 209.945C638.383 218.332 637.597 226.863 634.961 234.904C632.325 242.944 627.909 250.285 622.04 256.38L612.814 260.38L617.273 230.089L622.655 218.404L625.269 215.79L637.262 209.945Z" fill="#0B1126"/>
<path opacity="0.53" d="M668.157 254.023L665.613 254.723L656.572 233.874C656.082 232.745 655.333 231.747 654.386 230.961C653.438 230.175 652.32 229.623 651.12 229.349L639.62 226.726L642.855 218.575L657.461 227.492L668.157 254.023Z" fill="#0B1126"/>
<path d="M509.951 311.276C509.951 311.276 503.007 308.876 499.751 311.288L497.785 338.363C499.751 338.009 501.585 337.126 503.088 335.809C504.592 334.493 505.708 332.792 506.319 330.889L510.102 319.723L509.951 311.276Z" fill="#101417"/>
<path d="M602.7 285.739L571.82 330.752L508.776 320.939L509.084 317.795L509.971 308.731C509.971 308.731 525.311 311.387 538.462 311.252C547.281 311.325 556.045 312.65 564.492 315.186C564.492 315.186 568.628 301.309 573.725 285.741C575.161 281.339 576.363 276.864 577.325 272.335C578.487 267.046 579.307 261.689 579.78 256.295C592.189 252.903 602.7 285.739 602.7 285.739Z" fill="#222C30"/>
<path d="M602.7 285.738L571.82 330.751L508.776 320.938L509.084 317.794L568.628 322.294L587.731 285.738C583.646 281.784 580.141 277.273 577.32 272.338C578.482 267.05 579.302 261.692 579.775 256.298C592.189 252.902 602.7 285.738 602.7 285.738Z" fill="#101417"/>
<path d="M616.344 255.787L615.616 260.738C614.386 261.46 613.098 262.078 611.765 262.584C609.783 263.341 607.716 263.852 605.61 264.108C592.129 265.759 579.649 256.619 579.649 256.619L580.27 250.409L616.344 255.787Z" fill="#223266"/>
<path d="M611.765 269.577C609.783 270.333 607.716 270.845 605.61 271.101L605.723 264.818L611.547 264.24C611.547 264.24 611.607 267.348 611.765 269.577Z" fill="#8292C9"/>
<path d="M547.448 230.071L517.633 252.183C517.309 252.424 516.94 252.599 516.549 252.698C516.157 252.796 515.75 252.816 515.35 252.757C514.95 252.698 514.567 252.56 514.22 252.352C513.874 252.143 513.573 251.869 513.333 251.544L508.983 245.672L488.076 217.49C487.589 216.834 487.383 216.013 487.501 215.205C487.619 214.397 488.052 213.67 488.706 213.181L518.521 191.069C519.177 190.584 519.999 190.378 520.807 190.498C521.614 190.618 522.341 191.053 522.829 191.708L542.621 218.386L548.086 225.762C548.327 226.086 548.502 226.456 548.601 226.848C548.699 227.24 548.719 227.648 548.66 228.048C548.601 228.449 548.463 228.833 548.255 229.18C548.047 229.527 547.773 229.83 547.448 230.071Z" fill="#222C30"/>
<path d="M528.275 200.016C528.275 200.016 534.232 194.962 539.437 199.084C544.642 203.206 547.629 212.363 540.753 217.343L539.068 215.357C539.068 215.357 542.13 211.315 540.445 209.329C538.76 207.343 534.623 201.461 534.623 201.461C534.623 201.461 532.863 200.393 530.802 202.995L528.275 200.016Z" fill="#222C30"/>
<path d="M547.935 225.549L522.992 191.921C521.893 190.438 519.799 190.128 518.316 191.228L509.634 197.667C508.151 198.767 507.841 200.861 508.941 202.344L533.883 235.971C534.983 237.454 537.077 237.765 538.56 236.665L547.241 230.226C548.724 229.126 549.035 227.032 547.935 225.549Z" fill="#455B63"/>
<path d="M528.235 220.34L522.392 212.467C521.995 211.932 521.239 211.82 520.704 212.217L517.23 214.796C516.695 215.193 516.583 215.948 516.98 216.483L522.824 224.356C523.221 224.891 523.976 225.003 524.511 224.606L527.986 222.027C528.521 221.63 528.632 220.875 528.235 220.34Z" fill="#627E8A"/>
<path d="M522.269 220.614C523.286 220.614 524.111 219.789 524.111 218.772C524.111 217.754 523.286 216.93 522.269 216.93C521.251 216.93 520.427 217.754 520.427 218.772C520.427 219.789 521.251 220.614 522.269 220.614Z" fill="#7DA1B0"/>
<g style="mix-blend-mode:multiply" opacity="0.31">
<path d="M547.448 230.071L517.633 252.183C517.309 252.424 516.941 252.599 516.549 252.698C516.157 252.796 515.75 252.816 515.35 252.757C514.951 252.698 514.567 252.56 514.22 252.352C513.874 252.143 513.573 251.869 513.333 251.544L508.983 245.672C513.862 244.308 521.789 239.793 531.419 232.656C539.633 226.556 541.994 221.642 542.619 218.386L548.084 225.762C548.325 226.086 548.5 226.455 548.599 226.848C548.698 227.24 548.718 227.648 548.659 228.048C548.6 228.448 548.463 228.833 548.255 229.18C548.047 229.527 547.773 229.83 547.448 230.071Z" fill="#222C30"/>
</g>
<path d="M637.706 214.338L630.643 230.514L617.949 256.468C617.712 256.947 617.374 257.369 616.958 257.704C616.542 258.039 616.058 258.28 615.54 258.409C608.444 260.195 601.01 260.142 593.94 258.256C588.89 257.005 584.128 254.795 579.912 251.748C579.553 251.486 579.301 251.103 579.203 250.67C579.105 250.236 579.168 249.782 579.379 249.391L603.338 204.926L612.238 199.011L615.083 197.12L631.596 199.574C637.2 201.362 637.706 214.338 637.706 214.338Z" fill="white"/>
<path d="M549.011 198.805C546.987 198.793 542.223 198.605 540.611 198.535C540.255 198.52 539.901 198.607 539.593 198.785L535.684 202.519C535.465 202.645 535.274 202.812 535.122 203.013C534.969 203.213 534.857 203.441 534.794 203.685C534.73 203.929 534.715 204.183 534.751 204.432C534.786 204.682 534.871 204.921 535 205.138L537.113 208.708C537.331 209.076 537.666 209.36 538.066 209.513C538.465 209.667 538.904 209.681 539.313 209.554L540.399 209.239C540.829 209.106 541.292 209.129 541.706 209.306C542.12 209.482 542.458 209.8 542.66 210.202L542.953 210.788C543.075 211.031 543.247 211.246 543.46 211.416C543.672 211.587 543.918 211.711 544.182 211.778C544.445 211.845 544.721 211.855 544.989 211.807C545.257 211.758 545.511 211.653 545.735 211.498L549.664 208.765C549.92 208.587 550.128 208.349 550.27 208.071L552.434 203.841C552.597 203.521 552.667 203.162 552.634 202.804C552.602 202.447 552.469 202.106 552.251 201.821L550.511 199.552C550.335 199.321 550.108 199.133 549.848 199.003C549.588 198.874 549.301 198.806 549.011 198.805V198.805Z" fill="#824B45"/>
<path d="M609.711 259.231L608.85 259.285C615.975 250.473 631.678 210.76 631.836 210.361L632.536 210.636C631.889 212.271 616.908 250.33 609.711 259.231Z" fill="#D9D9D9"/>
<path d="M627.873 208.545C623.173 226.612 598.299 233.187 598.299 233.187C590.253 241.834 591.762 251.988 593.938 258.258C588.888 257.006 584.126 254.797 579.91 251.749C579.551 251.487 579.3 251.104 579.202 250.671C579.104 250.238 579.166 249.783 579.377 249.392L603.336 204.927L612.236 199.012C621.973 198.817 629.869 200.859 627.873 208.545Z" fill="#D1D1D1"/>
<path d="M629.581 198.658C629.581 198.658 627.891 221.588 598.911 228.988C580.572 233.678 570.862 229.888 563.001 228.078C558.441 227.038 554.511 226.668 549.862 228.978C550.131 228.448 559.131 211.608 571.211 208.898C571.211 208.898 571.241 208.908 571.291 208.928C571.329 208.938 571.366 208.952 571.402 208.968C576.056 210.516 580.909 211.384 585.811 211.548C585.854 211.558 585.898 211.558 585.941 211.548C591.841 211.658 598.271 210.388 602.641 205.638L583.041 197.848C581.85 197.375 580.538 197.301 579.302 197.638L552.231 204.958L550.061 201.968L547.591 198.558L578.271 184.658C579.503 184.097 580.891 183.977 582.201 184.318C589.391 186.168 613.771 192.558 623.282 196.328C623.561 196.448 623.831 196.548 624.091 196.658L629.581 198.658Z" fill="#00315C"/>
<path opacity="0.53" d="M614.831 202.518L607.461 205.938C607.461 205.938 593.191 222.188 575.241 216.588C569.641 214.848 565.681 221.118 563.001 228.078C558.441 227.038 554.511 226.668 549.862 228.978C550.131 228.448 559.131 211.608 571.211 208.898C571.211 208.898 571.241 208.908 571.291 208.928C571.327 208.945 571.364 208.958 571.402 208.968C576.022 210.646 580.896 211.518 585.811 211.548C585.854 211.558 585.898 211.558 585.941 211.548C591.841 211.658 598.271 210.388 602.641 205.638L583.041 197.848C581.85 197.375 580.538 197.301 579.302 197.638L552.231 204.958L550.061 201.968L584.041 191.208C584.041 191.208 609.3 199.098 614.831 202.518Z" fill="#0B1126"/>
<path d="M631.809 204.656L634.987 205.578C634.987 205.578 635.397 208.961 634.987 208.961C633.922 209.391 632.894 209.905 631.912 210.499L630.272 208.551L631.809 204.656Z" fill="#3495BD"/>
<path d="M630.272 208.552C630.272 208.552 607.923 223.738 589.672 209.407L576.19 212.139L586.939 226.129C586.939 226.129 623.996 223.707 631.912 210.502L630.272 208.552Z" fill="#3495BD"/>
<path d="M632.083 204.656C632.083 204.656 627.212 198.789 628.34 195.201L624.087 196.661C624.087 196.661 621.203 205.305 625.522 212.139L632.083 204.656Z" fill="white"/>
<path d="M666.515 255.639L664.815 263.794L666.554 266.494L670.023 266.174C670.175 266.16 670.321 266.111 670.45 266.03C670.579 265.949 670.688 265.84 670.768 265.71C670.847 265.58 670.895 265.433 670.908 265.281C670.921 265.13 670.898 264.977 670.841 264.836L670.78 264.682C670.541 264.086 670.116 263.584 669.568 263.251L667.907 262.243L668.065 259.47L666.515 255.639Z" fill="#824B45"/>
<path d="M673.024 256.701C673.024 256.701 666.937 257.57 668 261.822C668.77 264.522 670.356 266.918 672.541 268.682C672.541 268.682 678.141 268.295 679.111 266.363L673.024 256.701Z" fill="#824B45"/>
<path d="M634.987 205.578C634.987 205.578 639.659 201.46 639.248 199L640.648 205.164C640.743 205.585 640.753 206.02 640.677 206.445C640.6 206.87 640.44 207.275 640.204 207.636L637.198 212.236L634.123 215.414C634.123 215.414 636.26 208.656 634.987 205.578Z" fill="white"/>
<path d="M652.874 360.278L651.193 360.837L639.62 364.576L627.264 312.504C627.264 312.504 596.964 288.778 587.031 275.723C577.098 262.668 579.818 256.058 579.818 256.058C582.625 253.194 590.808 255.066 598.831 256.622C604.432 257.753 609.973 259.167 615.431 260.859L641.9 305.282L652.874 360.278Z" fill="#222C30"/>
<path d="M652.874 360.278L651.193 360.837L636.414 306.112C630.994 295.467 607.921 268.184 598.831 256.622C604.432 257.753 609.972 259.167 615.431 260.859L641.9 305.282L652.874 360.278Z" fill="#101417"/>
<path d="M644.513 363.06L647.179 372.601L672.949 368.525L672.238 365.693C671.98 364.565 671.374 363.546 670.506 362.781C669.638 362.016 668.551 361.543 667.4 361.429L652.874 360.282L644.513 363.06Z" fill="#101417"/>
<path d="M632.1 242.424C632.1 242.424 631.626 252.372 606.994 247.161C582.362 241.95 493.689 245.301 467.887 284.996C442.085 324.691 429.78 307.622 429.78 307.622V317.943C429.78 317.943 444.48 334.524 472.253 290.553C499.393 247.583 590.964 248.553 608.408 253.24C623.101 257.189 627.859 250.461 627.859 250.461C627.859 250.461 632.155 246.416 632.1 242.424Z" fill="#7CB5DE"/>
<path d="M461.551 116.367C460.894 117.513 459.954 118.471 458.821 119.15C457.48 119.948 455.976 120.429 454.421 120.557C452.887 120.754 451.328 120.623 449.848 120.173C448.581 119.787 447.458 119.033 446.622 118.007C445.795 116.952 445.313 115.669 445.241 114.332L450.36 113.787C450.437 114.682 450.859 115.512 451.536 116.102C451.909 116.399 452.341 116.613 452.803 116.732C453.265 116.85 453.747 116.87 454.217 116.79C455.088 116.742 455.909 116.368 456.517 115.743C457.049 115.155 457.335 114.385 457.317 113.592C457.333 113.265 457.284 112.938 457.173 112.631C457.062 112.323 456.89 112.041 456.668 111.801C456.208 111.343 455.647 111 455.03 110.801C454.132 110.511 453.221 110.266 452.299 110.068C451.043 109.801 449.81 109.435 448.612 108.975C447.645 108.58 446.802 107.933 446.171 107.101C445.447 106.066 445.092 104.817 445.164 103.556C445.14 102.589 445.327 101.628 445.713 100.741C446.1 99.8537 446.675 99.0619 447.4 98.4208C449.061 96.9956 451.138 96.1456 453.322 95.9978C455.431 95.6341 457.6 96.0595 459.415 97.1928C460.164 97.7243 460.785 98.4172 461.231 99.2204C461.676 100.024 461.936 100.917 461.991 101.834L456.804 102.386C456.703 101.601 456.313 100.882 455.711 100.369C455.368 100.111 454.976 99.9271 454.56 99.8276C454.143 99.7282 453.71 99.7156 453.288 99.7908C452.487 99.8485 451.729 100.176 451.138 100.719C450.861 100.995 450.645 101.327 450.504 101.692C450.363 102.057 450.3 102.447 450.319 102.838C450.304 103.148 450.352 103.457 450.461 103.748C450.569 104.039 450.736 104.304 450.95 104.529C451.402 104.97 451.95 105.302 452.55 105.5C453.417 105.787 454.3 106.024 455.195 106.209C456.474 106.509 457.734 106.888 458.967 107.344C459.951 107.731 460.808 108.385 461.443 109.231C462.18 110.298 462.54 111.581 462.466 112.876C462.468 114.099 462.153 115.302 461.551 116.367V116.367Z" fill="white"/>
<path d="M475.373 105.838L485.579 117.005L479.742 117.626L470.834 107.55V118.574L466.022 119.086V94.9863L470.834 94.4733V105.294L479.777 93.5223L485.577 92.9053L475.373 105.838Z" fill="white"/>
<path d="M493.053 92.1084V116.208L488.239 116.72V92.6204L493.053 92.1084Z" fill="white"/>
<path d="M502.235 111.538L510.325 110.677V114.364L497.422 115.738V91.638L502.235 91.126V111.538Z" fill="white"/>
<path d="M530.138 101.9C531.023 102.913 531.492 104.222 531.452 105.566C531.481 106.497 531.315 107.424 530.965 108.287C530.616 109.15 530.09 109.93 529.421 110.578C527.783 112.015 525.708 112.856 523.532 112.963L513.191 114.063V89.9632L523.329 88.8842C525.764 88.6255 527.636 88.9615 528.943 89.8922C529.605 90.3861 530.132 91.0391 530.475 91.7907C530.819 92.5422 530.967 93.3682 530.906 94.1922C530.949 95.5578 530.534 96.8986 529.729 98.0022C528.95 99.0372 527.872 99.8077 526.64 100.209C527.982 100.295 529.237 100.902 530.138 101.9V101.9ZM518 99.5572L522.335 99.0952C523.347 99.047 524.315 98.662 525.083 98.0012C525.398 97.6889 525.645 97.3141 525.807 96.9007C525.968 96.4873 526.042 96.0446 526.022 95.6012C526.055 95.1842 525.988 94.7653 525.828 94.3788C525.668 93.9924 525.418 93.6495 525.1 93.3782C524.257 92.849 523.243 92.6639 522.268 92.8612L518 93.3152V99.5572ZM525.511 107.99C525.854 107.664 526.124 107.267 526.3 106.827C526.477 106.387 526.556 105.915 526.534 105.441C526.569 104.992 526.493 104.541 526.311 104.128C526.129 103.716 525.848 103.355 525.493 103.077C524.612 102.531 523.56 102.333 522.541 102.521L518.001 103.004V109.626L522.575 109.139C523.653 109.085 524.684 108.681 525.513 107.99H525.511Z" fill="white"/>
<path d="M539.642 87.1514V111.251L534.829 111.763V87.6634L539.642 87.1514Z" fill="white"/>
<path d="M630.214 191.738C629.296 192.08 628.743 192.453 627.814 192.146C627.292 191.918 626.859 191.527 626.579 191.032C626.299 190.537 626.186 189.964 626.259 189.4C625.435 189.624 624.859 189.068 624.374 188.315C624.115 188.01 623.961 187.631 623.934 187.233C623.906 186.834 624.007 186.437 624.221 186.1C623.827 186.074 623.455 185.911 623.17 185.639C622.885 185.366 622.704 185.003 622.66 184.611C622.573 184.239 622.622 183.849 622.797 183.511C622.973 183.172 623.264 182.907 623.618 182.764C623.084 182.147 622.786 181.36 622.778 180.544C622.77 179.729 623.051 178.936 623.572 178.308C623.325 177.965 623.15 177.575 623.059 177.162C622.969 176.75 622.963 176.322 623.043 175.907C623.124 175.492 623.288 175.098 623.526 174.749C623.764 174.4 624.071 174.103 624.429 173.877C623.786 173.428 623.906 172.177 624.109 171.39C624.203 171.044 624.385 170.729 624.637 170.474C624.889 170.22 625.203 170.035 625.548 169.937C625.764 169.851 625.903 169.237 625.903 169.042C625.906 168.735 625.972 168.431 626.097 168.15C626.223 167.869 626.405 167.618 626.632 167.41C626.859 167.203 627.127 167.045 627.418 166.945C627.709 166.846 628.017 166.808 628.324 166.833C628.608 165.626 629.959 164.595 631.015 165.121C631.615 163.778 633.436 162.96 634.644 163.706C635.122 163.116 635.795 162.715 636.541 162.573C637.288 162.432 638.06 162.56 638.722 162.934C639.293 162.535 639.984 162.344 640.679 162.393C641.375 162.443 642.032 162.73 642.541 163.207C643.575 162.795 645.03 162.685 645.633 163.679C645.726 163.889 645.844 164.086 645.985 164.268C646.341 164.62 646.901 164.44 647.385 164.421C647.936 164.44 648.459 164.669 648.848 165.061C649.236 165.453 649.46 165.978 649.475 166.53C650.166 166.533 650.845 166.721 651.441 167.073C651.373 167.398 651.385 167.734 651.476 168.054C651.566 168.373 651.733 168.665 651.961 168.907C652.189 169.148 652.472 169.33 652.785 169.438C653.099 169.546 653.434 169.577 653.763 169.527C653.963 169.805 654.083 170.133 654.109 170.475C654.136 170.817 654.068 171.159 653.913 171.465C654.16 171.626 654.366 171.842 654.516 172.095C654.666 172.349 654.755 172.634 654.777 172.928C654.799 173.222 654.752 173.517 654.641 173.79C654.529 174.063 654.357 174.307 654.136 174.502C654.355 174.706 654.526 174.957 654.636 175.236C654.746 175.515 654.793 175.815 654.772 176.114C654.751 176.413 654.664 176.704 654.516 176.965C654.368 177.226 654.164 177.451 653.919 177.623C654.115 177.886 654.249 178.19 654.312 178.512C654.375 178.834 654.365 179.166 654.283 179.484C654.2 179.802 654.047 180.097 653.835 180.347C653.624 180.598 653.358 180.798 653.059 180.932C653.227 181.176 653.334 181.456 653.371 181.75C653.409 182.044 653.376 182.343 653.274 182.621C653.172 182.899 653.006 183.149 652.788 183.35C652.57 183.55 652.307 183.696 652.022 183.774C652.12 183.996 652.17 184.237 652.167 184.481C652.165 184.724 652.11 184.964 652.007 185.184C651.904 185.405 651.754 185.6 651.569 185.758C651.384 185.915 651.167 186.031 650.933 186.098C650.975 186.511 650.86 186.925 650.61 187.257C650.361 187.589 649.995 187.815 649.587 187.889C648.792 187.972 647.994 188.014 647.196 188.016C646.245 188.227 645.339 188.604 644.52 189.13C641.342 190.834 637.813 191.779 634.209 191.89C633.988 191.924 633.763 191.911 633.548 191.853C633.333 191.795 633.132 191.694 632.959 191.554" fill="#1F1A1A"/>
<path d="M651.474 179.887C650.798 183.287 649.535 189.746 648.889 191.835C647.852 195.157 644.997 200.943 639.631 200.597L638.599 203.768C638.42 204.308 638.075 204.779 637.615 205.113C637.154 205.448 636.6 205.63 636.03 205.633C634.29 205.664 632.567 205.287 630.999 204.533C629.431 203.778 628.061 202.667 626.999 201.288C626.798 201.027 626.661 200.723 626.598 200.399C626.535 200.076 626.548 199.742 626.636 199.425L629.287 189.475C629.287 189.475 623.23 187.101 624.628 181.45C626.04 175.769 632.563 179.376 632.563 179.376C632.563 179.376 635.494 179.541 637.447 175.423C637.447 175.423 640.153 172.267 646.406 173.83C652.659 175.393 651.474 179.887 651.474 179.887Z" fill="#824B45"/>
<path d="M633.873 198.551C633.873 198.551 633.425 201.537 638.598 203.76L639.64 200.595L639.325 200.626C638.32 200.69 637.314 200.538 636.374 200.18C635.433 199.822 634.58 199.266 633.873 198.551V198.551Z" fill="#452518"/>
<path d="M640.488 183.99C640.491 184.061 640.486 184.131 640.473 184.2C640.472 184.357 640.429 184.509 640.35 184.644C640.271 184.779 640.158 184.89 640.022 184.967L639.902 185.027C639.784 185.101 639.65 185.147 639.511 185.162C639.406 185.18 639.298 185.175 639.195 185.147H639.18L637.347 184.726L635.423 184.29C635.248 184.24 635.088 184.147 634.957 184.02C634.835 183.886 634.756 183.718 634.732 183.538C634.707 183.358 634.739 183.175 634.821 183.013C635.117 182.357 635.629 181.822 636.272 181.499C636.916 181.176 637.65 181.085 638.353 181.239C638.474 181.284 638.609 181.329 638.745 181.39C638.819 181.405 638.865 181.45 638.925 181.465C639.308 181.654 639.642 181.928 639.902 182.265C640.28 182.762 640.485 183.367 640.488 183.99V183.99Z" fill="white"/>
<path d="M649.836 186.275C649.836 186.35 649.821 186.424 649.821 186.5C649.815 186.656 649.772 186.807 649.696 186.943C649.62 187.078 649.514 187.194 649.385 187.281L649.295 187.341C649.189 187.424 649.066 187.481 648.934 187.508C648.874 187.517 648.812 187.512 648.754 187.492C648.738 187.5 648.72 187.504 648.702 187.504C648.684 187.504 648.666 187.5 648.649 187.492L647.025 187.101L645.297 186.695C645.137 186.659 644.994 186.568 644.891 186.439C644.781 186.292 644.714 186.117 644.698 185.934C644.682 185.751 644.718 185.566 644.801 185.402C645.222 184.441 646.424 183.134 647.822 183.465C648.005 183.5 648.182 183.56 648.348 183.644C648.41 183.662 648.466 183.693 648.514 183.734C649.086 184.065 649.511 184.602 649.701 185.234V185.249C649.802 185.582 649.847 185.928 649.836 186.275Z" fill="white"/>
<path d="M641.452 190.655C641.593 190.67 644.906 191.009 645.487 188.881C645.58 188.63 645.613 188.361 645.583 188.095C645.552 187.828 645.459 187.573 645.311 187.35C645.153 187.168 644.961 187.021 644.744 186.915C644.528 186.81 644.292 186.75 644.052 186.738L644.645 183.002L644.03 182.912L643.318 187.406L643.697 187.382C643.901 187.363 644.107 187.388 644.301 187.455C644.495 187.522 644.672 187.629 644.821 187.77C644.904 187.912 644.953 188.071 644.965 188.235C644.977 188.399 644.952 188.564 644.89 188.716C644.457 190.299 641.564 190.004 641.535 190.001L641.452 190.655Z" fill="#451A16"/>
<path d="M638.278 194.526C638.974 194.696 639.685 194.793 640.402 194.814L640.428 194.158C640.859 194.178 635.91 194.158 635.804 191.621L635.183 191.668C635.255 193.395 636.864 194.175 638.278 194.526Z" fill="#451A16"/>
<path d="M628.243 184.556L628.749 184.156C628.468 183.521 628.283 182.847 628.201 182.156C628.316 181.911 628.481 181.691 628.684 181.512C628.888 181.332 629.126 181.197 629.384 181.113L629.229 180.482C628.87 180.595 628.54 180.785 628.262 181.038C627.983 181.292 627.763 181.603 627.617 181.949C627.506 182.402 627.504 182.875 627.613 183.329C627.722 183.783 627.938 184.204 628.243 184.556Z" fill="#451A16"/>
<path d="M641.116 180.138C641.116 180.138 638.607 178.07 636.023 179.022C636.291 178.468 636.724 178.01 637.263 177.713C637.802 177.416 638.421 177.294 639.032 177.364C641.124 177.672 641.116 180.138 641.116 180.138Z" fill="#1F1A1A"/>
<path d="M650.947 182.645C650.947 182.645 648.438 180.577 645.854 181.529C646.121 180.974 646.554 180.517 647.093 180.22C647.633 179.922 648.251 179.801 648.862 179.871C650.954 180.18 650.947 182.645 650.947 182.645Z" fill="#1F1A1A"/>
<path d="M634.099 178.492C632.916 180.439 632.183 182.626 631.954 184.892L630.654 183.739L630.685 178.439L634.099 178.492Z" fill="#1F1A1A"/>
<path d="M637.132 174.762C637.069 174.934 637.045 175.118 637.061 175.3C637.077 175.482 637.133 175.659 637.225 175.817C637.317 175.975 637.443 176.111 637.593 176.216C637.743 176.32 637.914 176.391 638.095 176.422C638.466 176.446 638.838 176.365 639.166 176.189C639.494 176.012 639.766 175.746 639.95 175.422C639.949 175.693 640.05 175.955 640.232 176.156C640.414 176.357 640.665 176.483 640.935 176.51C641.206 176.521 641.476 176.472 641.725 176.366C641.975 176.259 642.197 176.098 642.377 175.895C642.381 176.232 642.495 176.559 642.701 176.826C642.907 177.093 643.195 177.285 643.521 177.374C643.846 177.463 644.192 177.443 644.505 177.318C644.819 177.193 645.083 176.969 645.258 176.681C645.886 178.681 647.286 177.938 648.041 177.095C648.01 177.365 648.052 177.637 648.163 177.885C648.274 178.133 648.448 178.347 648.67 178.504C648.784 178.572 648.91 178.616 649.042 178.634C649.174 178.651 649.307 178.642 649.435 178.606C649.563 178.57 649.682 178.508 649.785 178.425C649.889 178.341 649.974 178.237 650.036 178.12C650.116 178.334 650.239 178.53 650.398 178.694C650.558 178.859 650.749 178.989 650.96 179.077C651.172 179.164 651.399 179.208 651.628 179.204C651.856 179.2 652.082 179.149 652.291 179.055C652.425 178.993 652.545 178.905 652.645 178.796C652.744 178.687 652.821 178.56 652.872 178.421C652.925 178.183 652.925 177.937 652.872 177.699C652.786 176.885 652.584 176.087 652.272 175.33C651.421 173.509 649.481 172.53 647.611 171.9C645.939 171.305 644.189 170.962 642.417 170.882C641.361 170.825 640.305 170.975 639.307 171.323C638.291 171.686 637.431 172.388 636.872 173.311" fill="#1F1A1A"/>
<path d="M640.112 183.283C640.128 183.646 640.053 184.007 639.892 184.333C639.732 184.658 639.492 184.939 639.195 185.147H639.18L637.347 184.726C637.049 184.305 636.891 183.8 636.896 183.283C636.855 182.825 636.98 182.367 637.247 181.992C637.514 181.617 637.907 181.35 638.353 181.239C638.474 181.284 638.609 181.329 638.745 181.39C638.819 181.405 638.865 181.45 638.925 181.465C639.308 181.654 639.642 181.927 639.902 182.265C640.043 182.586 640.115 182.933 640.112 183.283V183.283Z" fill="#1F1A1A"/>
<path d="M649.717 185.538C649.733 185.919 649.653 186.297 649.485 186.638C649.317 186.98 649.066 187.273 648.755 187.492C648.738 187.5 648.72 187.504 648.702 187.504C648.684 187.504 648.666 187.5 648.65 187.492L647.026 187.101C646.673 186.658 646.488 186.105 646.501 185.538C646.338 185.28 646.267 184.974 646.3 184.67C646.332 184.366 646.466 184.082 646.679 183.864C646.892 183.645 647.173 183.504 647.476 183.465C647.779 183.425 648.086 183.488 648.349 183.644C648.41 183.662 648.466 183.693 648.515 183.734C649.087 184.065 649.511 184.602 649.702 185.234V185.249C649.715 185.345 649.72 185.442 649.717 185.538Z" fill="#1F1A1A"/>
<path d="M613.267 173.676V154.734L596.862 145.262L580.457 154.734V173.676L596.862 183.148L613.267 173.676Z" fill="#2789BA"/>
<path d="M611.853 153.894V172.836L595.494 182.284L580.272 173.49V154.549L596.623 145.109L611.853 153.894Z" fill="#48ADE0"/>
<path d="M698.043 173.676V154.734L681.638 145.262L665.233 154.734V173.676L681.638 183.148L698.043 173.676Z" fill="#2789BA"/>
<path d="M696.629 153.894V172.836L680.269 182.284L665.048 173.49V154.549L681.399 145.109L696.629 153.894Z" fill="#48ADE0"/>
<path d="M633.1 139.066V120.123L616.695 110.652L600.29 120.123V139.066L616.695 148.537L633.1 139.066Z" fill="#2789BA"/>
<path d="M631.686 119.285V138.227L615.326 147.675L600.105 138.881V119.94L616.456 110.5L631.686 119.285Z" fill="#48ADE0"/>
<path d="M593.045 139.066V120.123L576.64 110.652L560.235 120.123V139.066L576.64 148.537L593.045 139.066Z" fill="#2789BA"/>
<path d="M591.632 119.285V138.227L575.272 147.675L560.05 138.881V119.94L576.401 110.5L591.632 119.285Z" fill="#48ADE0"/>
<path d="M677.043 139.066V120.123L660.638 110.652L644.233 120.123V139.066L660.638 148.537L677.043 139.066Z" fill="#2789BA"/>
<path d="M675.63 119.285V138.227L659.27 147.675L644.048 138.881V119.94L660.399 110.5L675.63 119.285Z" fill="#48ADE0"/>
<path d="M717.098 139.066V120.123L700.693 110.652L684.288 120.123V139.066L700.693 148.537L717.098 139.066Z" fill="#2789BA"/>
<path d="M715.684 119.285V138.227L699.324 147.675L684.103 138.881V119.94L700.454 110.5L715.684 119.285Z" fill="#48ADE0"/>
<path d="M656.215 102.9V83.9573L639.81 74.4863L623.405 83.9573V102.9L639.81 112.372L656.215 102.9Z" fill="#2789BA"/>
<path d="M654.802 83.119V102.061L638.442 111.509L623.221 102.715V83.774L639.571 74.334L654.802 83.119Z" fill="#48ADE0"/>
<path d="M616.161 102.9V83.9573L599.756 74.4863L583.351 83.9573V102.9L599.756 112.372L616.161 102.9Z" fill="#2789BA"/>
<path d="M614.747 83.119V102.061L598.387 111.509L583.166 102.715V83.774L599.517 74.334L614.747 83.119Z" fill="#48ADE0"/>
<path d="M676.419 67.706V48.764L660.014 39.292L643.609 48.764V67.706L660.014 77.178L676.419 67.706Z" fill="#2789BA"/>
<path d="M675.006 47.9256V66.8666L658.646 76.3156L643.424 67.5216V48.5796L659.775 39.1406L675.006 47.9256Z" fill="#48ADE0"/>
<path d="M636.365 67.706V48.764L619.96 39.292L603.555 48.764V67.706L619.96 77.178L636.365 67.706Z" fill="#2789BA"/>
<path d="M634.951 47.9256V66.8666L618.591 76.3156L603.37 67.5216V48.5796L619.721 39.1406L634.951 47.9256Z" fill="#48ADE0"/>
<path d="M696.792 103.443V84.5003L680.387 75.0293L663.982 84.5003V103.443L680.387 112.915L696.792 103.443Z" fill="#2789BA"/>
<path d="M695.378 83.662V102.604L679.018 112.052L663.797 103.258V84.317L680.148 74.877L695.378 83.662Z" fill="#48ADE0"/>
<path d="M628.255 90.8112L628.585 90.6682L638.737 85.9932L650.943 90.8112L639.819 95.2172" fill="#C2EAFF"/>
<path d="M631.823 91.4551V99.2661L639.162 102.969L645.827 99.6701V91.8591L631.823 91.4551Z" fill="#C2EAFF"/>
<path d="M649.126 91.253V98.592H650.271V90.917L649.126 91.253Z" fill="#C2EAFF"/>
<path d="M649.209 99.2256H650.056V100.831L649.209 100.251V99.2256Z" fill="#C2EAFF"/>
<path d="M596.6 81.0527C595.045 81.0527 593.526 81.5136 592.234 82.3771C590.942 83.2406 589.935 84.4679 589.34 85.9038C588.745 87.3398 588.589 88.9198 588.893 90.4441C589.196 91.9685 589.945 93.3686 591.044 94.4675C592.143 95.5665 593.543 96.3148 595.067 96.6179C596.592 96.921 598.172 96.7652 599.608 96.1703C601.043 95.5754 602.271 94.5681 603.134 93.2757C603.997 91.9833 604.458 90.464 604.458 88.9097C604.457 86.8258 603.629 84.8274 602.156 83.3539C600.682 81.8805 598.684 81.0527 596.6 81.0527V81.0527ZM596.6 94.4797C595.498 94.4797 594.421 94.1531 593.505 93.541C592.589 92.929 591.875 92.0591 591.454 91.0413C591.032 90.0235 590.922 88.9036 591.137 87.8231C591.352 86.7426 591.882 85.7501 592.661 84.9712C593.44 84.1922 594.433 83.6617 595.513 83.4468C596.594 83.2318 597.713 83.3422 598.731 83.7637C599.749 84.1853 600.619 84.8992 601.231 85.8152C601.843 86.7312 602.17 87.8081 602.17 88.9097C602.17 89.6412 602.026 90.3655 601.746 91.0413C601.466 91.7171 601.055 92.3311 600.538 92.8483C600.021 93.3655 599.407 93.7758 598.731 94.0558C598.055 94.3357 597.331 94.4797 596.6 94.4797Z" fill="#C2EAFF"/>
<path d="M601.16 92.792L599.27 94.1367L605.715 103.198L607.605 101.854L601.16 92.792Z" fill="#C2EAFF"/>
<path d="M611.908 60.0701H608.469L607.898 61.981H605.562L608.923 51.5811H611.48L614.841 61.981H612.479L611.908 60.0701ZM611.337 58.1451L610.195 54.2951L609.04 58.1451H611.337Z" fill="#C2EAFF"/>
<path d="M622.517 57.509C622.844 57.9828 623.014 58.5474 623.003 59.123C623.025 59.5084 622.967 59.8941 622.832 60.2556C622.697 60.6172 622.488 60.9466 622.218 61.223C621.597 61.7614 620.788 62.0327 619.967 61.978H615.7V51.508H619.866C620.651 51.459 621.425 51.7091 622.033 52.208C622.296 52.4641 622.501 52.7741 622.633 53.1167C622.766 53.4593 622.822 53.8265 622.799 54.193C622.82 54.7519 622.665 55.3032 622.357 55.77C622.084 56.1743 621.674 56.466 621.202 56.591C621.737 56.7279 622.204 57.054 622.517 57.509ZM617.917 55.791H619.371C619.526 55.8149 619.684 55.8026 619.833 55.7549C619.982 55.7072 620.118 55.6256 620.23 55.5164C620.342 55.4071 620.427 55.2734 620.478 55.1256C620.53 54.9779 620.546 54.8202 620.526 54.665C620.526 53.915 620.132 53.54 619.345 53.54H617.917V55.791ZM620.733 58.767C620.742 58.6058 620.718 58.4444 620.663 58.2929C620.607 58.1414 620.521 58.0029 620.409 57.886C620.284 57.7745 620.138 57.6889 619.98 57.6343C619.822 57.5797 619.654 57.5572 619.487 57.568H617.917V59.922H619.5C620.322 59.922 620.732 59.537 620.732 58.767H620.733Z" fill="#C2EAFF"/>
<path d="M631.263 52.4593C632.059 53.2167 632.581 54.2165 632.749 55.3023H630.4C630.25 54.8524 629.972 54.4561 629.6 54.1623C629.233 53.8834 628.783 53.7371 628.322 53.7474C628.013 53.7419 627.708 53.8136 627.434 53.9559C627.159 54.0982 626.925 54.3067 626.752 54.5624C626.361 55.2198 626.155 55.9705 626.155 56.7353C626.155 57.5002 626.361 58.2509 626.752 58.9083C626.926 59.1622 627.161 59.3689 627.435 59.5097C627.709 59.6506 628.014 59.7212 628.322 59.7154C628.783 59.7261 629.233 59.5797 629.6 59.3003C629.97 59.0106 630.248 58.6198 630.4 58.1753H632.749C632.578 59.258 632.056 60.2544 631.263 61.0113C630.541 61.6227 629.644 61.9893 628.701 62.0585C627.758 62.1277 626.817 61.8959 626.014 61.3964C625.324 60.9286 624.781 60.2736 624.45 59.5084C624.086 58.6303 623.899 57.6892 623.899 56.7389C623.899 55.7885 624.086 54.8474 624.45 53.9694C624.781 53.2042 625.324 52.5493 626.014 52.0814C626.817 51.5834 627.757 51.3519 628.7 51.4198C629.642 51.4877 630.539 51.8515 631.263 52.4593V52.4593Z" fill="#C2EAFF"/>
<path d="M671.334 52.0602V63.1792C671.334 63.2221 671.326 63.2646 671.31 63.3044C671.294 63.3441 671.27 63.3802 671.24 63.4106C671.21 63.4409 671.174 63.465 671.134 63.4812C671.094 63.4975 671.052 63.5056 671.009 63.5052H669.85C669.805 63.505 669.761 63.5142 669.72 63.5322C669.679 63.5502 669.642 63.5766 669.612 63.6097C669.582 63.6428 669.559 63.6818 669.545 63.7243C669.531 63.7668 669.526 63.8117 669.531 63.8562L669.817 66.5002C669.824 66.5647 669.81 66.6298 669.779 66.6866C669.748 66.7435 669.7 66.7895 669.642 66.8185C669.584 66.8475 669.519 66.8581 669.455 66.8489C669.39 66.8398 669.331 66.8113 669.283 66.7672C668.43 65.9672 666.894 64.5272 665.898 63.5892C665.87 63.5614 665.836 63.5395 665.799 63.5251C665.762 63.5106 665.723 63.5039 665.683 63.5052H655.761C655.718 63.505 655.677 63.4963 655.638 63.4797C655.599 63.4632 655.563 63.4391 655.533 63.4087C655.504 63.3784 655.48 63.3425 655.465 63.3031C655.449 63.2637 655.441 63.2216 655.442 63.1792V52.0602C655.442 51.9757 655.476 51.8947 655.536 51.835C655.595 51.7752 655.676 51.7415 655.761 51.7412H671.009C671.051 51.7407 671.093 51.7486 671.133 51.7643C671.172 51.7801 671.208 51.8035 671.238 51.8331C671.268 51.8628 671.292 51.8981 671.309 51.9371C671.325 51.976 671.334 52.0179 671.334 52.0602V52.0602Z" fill="#C2EAFF"/>
<path d="M665.381 51.7383V60.7843C665.381 60.8689 665.349 60.9503 665.289 61.0108C665.23 61.0713 665.149 61.106 665.065 61.1073H655.442V52.0743C655.442 51.9852 655.478 51.8999 655.541 51.837C655.604 51.774 655.689 51.7385 655.778 51.7383H665.381Z" fill="#48ADE0"/>
<path d="M664.22 48.2295H648.93C648.85 48.2295 648.774 48.2611 648.718 48.3174C648.662 48.3736 648.63 48.4499 648.63 48.5295V59.6905C648.63 59.7701 648.662 59.8464 648.718 59.9026C648.774 59.9589 648.85 59.9905 648.93 59.9905H649.63C649.679 59.9901 649.728 60.002 649.772 60.0249C649.815 60.0479 649.853 60.0813 649.88 60.1221C649.908 60.163 649.925 60.21 649.93 60.2591C649.936 60.3082 649.928 60.3578 649.91 60.4035C649.639 61.0775 649.318 61.8555 649.065 62.4655C649.038 62.527 649.033 62.5956 649.05 62.6603C649.067 62.7251 649.105 62.7823 649.158 62.8229C649.212 62.8635 649.277 62.8851 649.344 62.8843C649.411 62.8835 649.476 62.8604 649.528 62.8185L653.082 60.0545C653.135 60.0131 653.2 59.9905 653.267 59.9905H664.22C664.299 59.9905 664.376 59.9589 664.432 59.9026C664.488 59.8464 664.52 59.7701 664.52 59.6905V48.5315C664.52 48.4919 664.513 48.4527 664.498 48.4161C664.483 48.3794 664.461 48.3461 664.433 48.3181C664.405 48.29 664.372 48.2677 664.335 48.2525C664.299 48.2373 664.259 48.2295 664.22 48.2295V48.2295Z" fill="#C2EAFF"/>
<path d="M599.043 153.58L597.343 153.38L597.115 155.328C597.041 155.328 596.967 155.322 596.893 155.322C596.284 155.322 595.677 155.393 595.084 155.534L594.376 153.668L592.776 154.276L593.469 156.106C592.854 156.405 592.281 156.782 591.764 157.229L590.276 155.899L589.133 157.177L590.593 158.482C590.183 159.03 589.847 159.629 589.593 160.264L587.661 159.764L587.236 161.425L589.136 161.91C589.002 162.732 588.999 163.569 589.126 164.392L587.213 164.953L587.695 166.598L589.574 166.047C589.824 166.683 590.155 167.285 590.56 167.836L589.12 169.216L590.306 170.454L591.721 169.097C592.236 169.548 592.807 169.929 593.421 170.233L592.779 172.12L594.401 172.672L595.032 170.818C595.643 170.967 596.269 171.043 596.898 171.043C596.953 171.043 597.007 171.043 597.062 171.043L597.362 173.017L599.056 172.758L598.761 170.822C599.424 170.661 600.063 170.413 600.661 170.085L601.836 171.696L603.221 170.686L602.066 169.102C602.581 168.652 603.035 168.138 603.417 167.571L605.202 168.459L605.966 166.925L604.212 166.052C604.462 165.416 604.627 164.749 604.704 164.07L606.698 164.036L606.669 162.322L604.711 162.355C604.639 161.675 604.479 161.007 604.234 160.369L605.987 159.42L605.171 157.913L603.449 158.845C603.071 158.275 602.62 157.758 602.109 157.304L603.229 155.652L601.81 154.69L600.71 156.311C600.112 155.978 599.473 155.725 598.81 155.558L599.043 153.58ZM591.834 163.185C591.834 162.185 592.13 161.207 592.686 160.375C593.241 159.543 594.031 158.895 594.955 158.512C595.879 158.129 596.896 158.029 597.877 158.224C598.858 158.419 599.759 158.901 600.466 159.608C601.174 160.315 601.655 161.216 601.851 162.197C602.046 163.178 601.946 164.195 601.563 165.119C601.18 166.043 600.532 166.833 599.701 167.389C598.869 167.944 597.891 168.241 596.891 168.241C595.55 168.241 594.264 167.708 593.315 166.76C592.367 165.812 591.834 164.526 591.834 163.185V163.185Z" fill="#C2EAFF"/>
<path d="M576.4 120.439V131.069C576.4 131.069 572.132 124.935 568.21 128.254C564.288 131.573 568.61 137.907 578.367 134.69V124.03C578.367 124.03 581.183 126.645 583.898 124.73C586.613 122.815 586.512 121.311 586.512 121.311C586.512 121.311 584.702 123.825 583.093 121.611C581.484 119.397 578.055 118.447 576.4 120.439Z" fill="#C2EAFF"/>
<path d="M692.883 163.438C692.883 162.07 691.56 161.01 689.601 160.277C690.529 158.217 690.565 156.601 689.687 155.724C688.809 154.847 687.194 154.881 685.133 155.809C684.401 153.85 683.34 152.527 681.972 152.527C680.604 152.527 679.544 153.851 678.811 155.81C676.75 154.88 675.133 154.846 674.257 155.724C673.381 156.602 673.415 158.217 674.343 160.277C672.385 161.01 671.062 162.07 671.062 163.438C671.062 164.806 672.384 165.866 674.342 166.599C673.476 168.499 673.29 170.186 674.257 171.153C674.493 171.372 674.77 171.542 675.073 171.651C675.376 171.761 675.698 171.809 676.019 171.791C676.99 171.745 677.94 171.498 678.811 171.067C679.544 173.026 680.604 174.349 681.972 174.349C683.34 174.349 684.4 173.026 685.133 171.067C686.003 171.499 686.954 171.745 687.924 171.791C688.246 171.809 688.567 171.761 688.87 171.652C689.173 171.542 689.451 171.373 689.687 171.153C690.654 170.186 690.469 168.502 689.603 166.599C691.56 165.867 692.883 164.807 692.883 163.438ZM685.488 156.882C686.245 156.493 687.074 156.263 687.923 156.208C688.274 156.18 688.622 156.293 688.89 156.521C689.411 157.041 689.275 158.312 688.529 159.921C687.706 159.691 686.869 159.512 686.023 159.386C685.898 158.543 685.719 157.708 685.489 156.886L685.488 156.882ZM685.2 163.438C685.2 163.884 685.187 164.316 685.167 164.738C684.867 165.066 684.577 165.395 684.256 165.717C683.935 166.039 683.605 166.33 683.277 166.628C682.853 166.648 682.422 166.661 681.977 166.661C681.532 166.661 681.1 166.648 680.677 166.628C680.349 166.328 680.02 166.038 679.698 165.717C679.376 165.396 679.085 165.066 678.787 164.738C678.767 164.314 678.754 163.882 678.754 163.438C678.754 162.994 678.768 162.547 678.788 162.117C679.078 161.798 679.378 161.478 679.698 161.158C680.018 160.838 680.349 160.544 680.676 160.247C681.101 160.227 681.532 160.214 681.976 160.214C682.42 160.214 682.854 160.227 683.276 160.247C683.603 160.547 683.933 160.837 684.254 161.158C684.575 161.479 684.874 161.798 685.164 162.117C685.182 162.548 685.2 162.986 685.2 163.438ZM683.757 159.147C683.476 158.899 683.194 158.66 682.912 158.429C683.417 158.07 683.94 157.736 684.479 157.429C684.629 157.984 684.761 158.588 684.869 159.241C684.5 159.201 684.126 159.172 683.753 159.148L683.757 159.147ZM680.196 159.147C679.822 159.171 679.451 159.2 679.083 159.239C679.191 158.586 679.323 157.982 679.473 157.427C680.012 157.734 680.535 158.068 681.04 158.427C680.755 158.659 680.473 158.9 680.192 159.148L680.196 159.147ZM677.684 161.66C677.439 161.939 677.201 162.221 676.968 162.505C676.608 162 676.274 161.476 675.968 160.935C676.565 160.775 677.17 160.645 677.78 160.545C677.734 160.915 677.7 161.287 677.68 161.661L677.684 161.66ZM677.684 165.219C677.707 165.592 677.737 165.964 677.776 166.332C677.159 166.23 676.547 166.097 675.944 165.932C676.232 165.432 676.569 164.904 676.958 164.36C677.187 164.651 677.43 164.938 677.681 165.22L677.684 165.219ZM680.195 167.73C680.476 167.978 680.757 168.218 681.039 168.448C680.534 168.809 680.011 169.142 679.472 169.448C679.312 168.852 679.182 168.247 679.082 167.637C679.447 167.678 679.819 167.708 680.192 167.731L680.195 167.73ZM683.755 167.73C684.129 167.708 684.5 167.677 684.868 167.638C684.76 168.291 684.628 168.895 684.478 169.45C683.939 169.144 683.416 168.81 682.911 168.45C683.191 168.22 683.471 167.98 683.752 167.731L683.755 167.73ZM686.267 165.219C686.517 164.935 686.76 164.65 686.992 164.364C687.381 164.908 687.718 165.434 688.006 165.936C687.402 166.101 686.791 166.234 686.174 166.336C686.21 165.965 686.24 165.593 686.264 165.22L686.267 165.219ZM686.267 161.66C686.243 161.286 686.213 160.914 686.174 160.545C686.827 160.653 687.432 160.785 687.987 160.935C687.681 161.475 687.347 161.999 686.987 162.505C686.749 162.221 686.509 161.938 686.264 161.661L686.267 161.66ZM681.975 153.66C682.726 153.66 683.519 154.639 684.131 156.318C683.383 156.734 682.663 157.197 681.975 157.706C681.287 157.198 680.567 156.734 679.819 156.319C680.428 154.638 681.221 153.656 681.972 153.656L681.975 153.66ZM675.419 159.927C674.672 158.317 674.537 157.046 675.057 156.527C675.325 156.299 675.672 156.187 676.023 156.214C676.872 156.269 677.701 156.498 678.458 156.888C678.227 157.71 678.049 158.545 677.923 159.388C677.077 159.514 676.24 159.693 675.417 159.923L675.419 159.927ZM672.192 163.443C672.192 162.692 673.171 161.899 674.85 161.287C675.267 162.038 675.732 162.76 676.243 163.45C675.734 164.137 675.268 164.855 674.85 165.6C673.168 164.984 672.189 164.191 672.189 163.438L672.192 163.443ZM678.458 170C676.849 170.747 675.577 170.882 675.058 170.361C674.539 169.84 674.658 168.577 675.413 166.961C676.239 167.193 677.078 167.372 677.926 167.498C678.052 168.342 678.23 169.177 678.461 169.998L678.458 170ZM681.975 173.227C681.224 173.227 680.431 172.248 679.819 170.568C680.567 170.153 681.287 169.69 681.975 169.181C682.663 169.69 683.383 170.153 684.131 170.568C683.516 172.244 682.723 173.223 681.972 173.223L681.975 173.227ZM688.893 170.361C688.373 170.88 687.102 170.747 685.493 170C685.724 169.179 685.902 168.344 686.028 167.5C686.876 167.374 687.715 167.195 688.541 166.963C689.29 168.573 689.421 169.826 688.89 170.357L688.893 170.361ZM689.1 165.6C688.682 164.855 688.217 164.137 687.708 163.45C688.219 162.76 688.684 162.038 689.1 161.287C690.779 161.899 691.758 162.687 691.758 163.443C691.758 164.199 690.776 164.984 689.1 165.596V165.6Z" fill="#C2EAFF"/>
<path d="M623.238 117.863L607.391 135.613L611.775 139.527L627.622 121.777L623.238 117.863Z" fill="#C2EAFF"/>
<path d="M624.453 121.128L623.826 121.83L625.875 123.659L626.501 122.957L624.453 121.128Z" fill="#48ADE0"/>
<path d="M620.68 125.355L620.054 126.057L622.102 127.885L622.729 127.183L620.68 125.355Z" fill="#48ADE0"/>
<path d="M616.908 129.579L616.282 130.281L618.33 132.11L618.957 131.408L616.908 129.579Z" fill="#48ADE0"/>
<path d="M613.141 133.799L612.515 134.501L614.563 136.33L615.19 135.628L613.141 133.799Z" fill="#48ADE0"/>
<path d="M612.8 136.185L612.468 136.558L613.52 137.497L613.853 137.125L612.8 136.185Z" fill="#48ADE0"/>
<path d="M611.879 137.216L611.54 137.596L612.593 138.535L612.932 138.156L611.879 137.216Z" fill="#48ADE0"/>
<path d="M616.35 132.209L616.011 132.589L617.063 133.528L617.402 133.149L616.35 132.209Z" fill="#48ADE0"/>
<path d="M615.422 133.249L615.089 133.621L616.142 134.561L616.474 134.188L615.422 133.249Z" fill="#48ADE0"/>
<path d="M620.014 128.105L619.675 128.484L620.728 129.424L621.067 129.044L620.014 128.105Z" fill="#48ADE0"/>
<path d="M619.086 129.143L618.747 129.522L619.799 130.462L620.138 130.082L619.086 129.143Z" fill="#48ADE0"/>
<path d="M623.908 123.816L623.569 124.195L624.621 125.135L624.96 124.755L623.908 123.816Z" fill="#48ADE0"/>
<path d="M622.937 124.831L622.598 125.211L623.65 126.151L623.989 125.771L622.937 124.831Z" fill="#48ADE0"/>
<path d="M687.115 93.5656C686.515 91.5226 684.129 89.7326 680.209 88.3886C679.401 88.1749 678.647 87.792 677.998 87.2651C677.349 86.7383 676.82 86.0796 676.445 85.3326C675.904 83.8627 675.931 82.2439 676.52 80.7926L675.896 80.5156C675.221 82.1381 675.193 83.957 675.817 85.5996C676.227 86.4361 676.811 87.1753 677.53 87.7677C678.25 88.3601 679.087 88.7921 679.987 89.0346C683.635 90.2856 685.934 91.9626 686.46 93.7576C686.595 94.2597 686.602 94.7877 686.479 95.2931C686.357 95.7985 686.11 96.265 685.76 96.6496C684.821 97.5672 683.73 98.3137 682.535 98.8556C679.473 100.527 675.662 102.607 676.805 107.316L677.47 107.154C676.449 102.954 679.856 101.096 682.862 99.4536C684.141 98.8744 685.304 98.0676 686.295 97.0726C686.712 96.6021 687.005 96.0351 687.148 95.4229C687.291 94.8106 687.28 94.1723 687.115 93.5656V93.5656Z" fill="#C2EAFF"/>
<path d="M675.907 94.7309C675.794 96.3399 676.658 97.8979 678.476 99.3609L678.904 98.8289C677.273 97.5149 676.493 96.1539 676.588 94.7809C676.758 92.3289 679.658 90.5679 679.688 90.5499L679.338 89.9639C679.205 90.0389 676.1 91.9219 675.907 94.7309Z" fill="#C2EAFF"/>
<path d="M683.025 87.128L683.26 87.769C687.611 86.174 686.16 80.432 686.144 80.375L685.484 80.548C685.499 80.6 686.799 85.744 683.025 87.128Z" fill="#C2EAFF"/>
<path d="M683.357 101.496L683.257 102.172C683.279 102.172 685.457 102.588 684.957 107.486L685.635 107.555C686.212 101.948 683.474 101.512 683.357 101.496Z" fill="#C2EAFF"/>
<path d="M684.007 91.8994H678.938V92.7184H684.007V91.8994Z" fill="#C2EAFF"/>
<path d="M684.007 93.8965H678.938V94.7155H684.007V93.8965Z" fill="#C2EAFF"/>
<path d="M684.007 95.8926H678.938V96.7116H684.007V95.8926Z" fill="#C2EAFF"/>
<path d="M683.76 81.6914H678.691V82.5104H683.76V81.6914Z" fill="#C2EAFF"/>
<path d="M683.76 83.6885H678.691V84.5075H683.76V83.6885Z" fill="#C2EAFF"/>
<path d="M684.007 103.574H678.938V104.393H684.007V103.574Z" fill="#C2EAFF"/>
<path d="M683.315 106.253H678.246V107.072H683.315V106.253Z" fill="#C2EAFF"/>
<path d="M707.655 129.911C707.89 128.403 707.725 126.859 707.175 125.435C706.625 124.011 705.711 122.757 704.523 121.798L706.757 119.788L704.74 117.547L693.54 127.63L695.556 129.871L703.493 122.728C704.55 123.539 705.368 124.62 705.863 125.857C706.357 127.094 706.509 128.441 706.303 129.757C706.201 130.957 705.833 132.119 705.225 133.159C704.617 134.198 703.785 135.089 702.79 135.767C702.205 136.137 701.568 136.418 700.9 136.601V135.139H690.8V136.656H696.157L695.802 137.736C696.808 138.073 697.862 138.248 698.924 138.254C699.987 138.256 701.042 138.061 702.034 137.677C701.835 138.011 701.766 138.408 701.842 138.789C701.917 139.171 702.131 139.512 702.443 139.745L697.303 141.645H705.194L704.175 139.886C704.478 139.725 704.721 139.471 704.868 139.161C705.015 138.851 705.058 138.502 704.991 138.165C704.924 137.829 704.749 137.523 704.494 137.294C704.239 137.064 703.917 136.923 703.575 136.892C704.729 136.102 705.693 135.067 706.399 133.859C707.104 132.652 707.533 131.304 707.655 129.911V129.911ZM697.01 136.651H700.717C699.499 136.949 698.228 136.949 697.01 136.651V136.651Z" fill="#C2EAFF"/>
<path d="M670.741 127.226C670.741 125.544 670.359 123.883 669.624 122.369C668.89 120.855 667.822 119.527 666.5 118.485L665.68 119.585C667.268 120.846 668.424 122.569 668.989 124.516C669.553 126.463 669.497 128.538 668.829 130.452C668.162 132.366 666.914 134.025 665.261 135.198C663.608 136.371 661.63 137.001 659.603 136.999C659.185 136.999 658.767 136.972 658.353 136.917V138.296C658.536 138.318 658.721 138.332 658.907 138.343V140.226H655.688V141.516H663.937V140.226H660.719V138.308C663.465 138.029 666.009 136.741 667.86 134.694C669.711 132.647 670.738 129.986 670.741 127.226Z" fill="#C2EAFF"/>
<path d="M656.386 135.018C657.406 135.439 658.499 135.655 659.603 135.653C660.773 135.655 661.93 135.408 662.997 134.93H663.01C663.131 134.882 663.25 134.827 663.365 134.766C664.509 134.192 665.508 133.367 666.287 132.352C667.067 131.337 667.606 130.159 667.865 128.906C667.934 128.545 667.981 128.18 668.008 127.814C668.022 127.622 668.029 127.424 668.029 127.226C668.031 126.699 667.981 126.173 667.878 125.656C667.837 125.417 667.778 125.185 667.721 124.956C667.459 124.014 667.031 123.126 666.458 122.334C666.329 122.145 666.188 121.964 666.035 121.794C664.88 120.415 663.311 119.445 661.561 119.029H661.555C661.329 118.974 661.097 118.929 660.855 118.892C659.593 118.699 658.303 118.797 657.085 119.179C656.853 119.254 656.614 119.336 656.385 119.431C654.863 120.065 653.558 121.128 652.629 122.491V122.498C652.496 122.685 652.373 122.878 652.26 123.078C651.848 123.8 651.549 124.581 651.372 125.393C651.318 125.619 651.272 125.851 651.243 126.083C651.194 126.461 651.169 126.842 651.168 127.223C651.166 127.949 651.26 128.673 651.447 129.375C651.521 129.655 651.61 129.931 651.714 130.201C652.12 131.27 652.738 132.246 653.532 133.07C654.325 133.894 655.277 134.549 656.33 134.995C656.352 135.005 656.373 135.011 656.386 135.018ZM662.771 134.288C661.839 134.709 660.832 134.94 659.81 134.968C658.788 134.996 657.77 134.821 656.816 134.452C656.258 133.457 655.8 132.41 655.451 131.324C656.831 131.641 658.241 131.806 659.657 131.816C660.879 131.825 662.096 131.671 663.277 131.358C663.158 132.342 662.989 133.32 662.771 134.288V134.288ZM663.352 130.634C660.684 131.321 657.883 131.3 655.225 130.573C654.927 129.484 654.766 128.362 654.747 127.233C656.364 127.639 658.024 127.848 659.691 127.855C660.952 127.86 662.21 127.723 663.44 127.445C663.48 128.51 663.45 129.577 663.352 130.638V130.634ZM654.747 126.534C654.78 125.635 654.906 124.742 655.123 123.87C656.367 124.115 657.631 124.241 658.899 124.246C660.26 124.252 661.616 124.084 662.935 123.746C663.177 124.73 663.332 125.734 663.399 126.746C660.54 127.369 657.573 127.297 654.747 126.538V126.534ZM663.557 133.882C663.748 132.919 663.891 132.011 663.987 131.15C665.051 130.798 666.056 130.284 666.964 129.627C666.377 131.41 665.168 132.921 663.557 133.885V133.882ZM667.347 127.223C667.347 127.669 667.308 128.115 667.231 128.555C666.295 129.355 665.221 129.977 664.062 130.392C664.153 129.352 664.173 128.307 664.123 127.264C665.209 126.965 666.258 126.546 667.251 126.015C667.314 126.415 667.346 126.82 667.347 127.226V127.223ZM665.847 122.662C666.436 123.456 666.863 124.359 667.104 125.318C666.149 125.849 665.136 126.269 664.085 126.568C664.01 125.556 663.85 124.553 663.607 123.568C664.379 123.329 665.129 123.027 665.851 122.665L665.847 122.662ZM665.41 122.115C664.772 122.431 664.11 122.696 663.43 122.907C663.133 121.861 662.707 120.856 662.16 119.916C663.416 120.358 664.537 121.116 665.414 122.118L665.41 122.115ZM656.81 119.998C658.191 119.465 659.696 119.339 661.147 119.636C661.87 120.693 662.413 121.864 662.752 123.099C660.306 123.682 657.763 123.719 655.301 123.208C655.649 122.072 656.159 120.991 656.816 120.001L656.81 119.998ZM655.731 120.524C655.292 121.337 654.938 122.193 654.673 123.078C654.161 122.962 653.703 122.832 653.307 122.716C653.949 121.819 654.778 121.072 655.737 120.527L655.731 120.524ZM652.918 123.304C653.368 123.447 653.894 123.597 654.495 123.734C654.281 124.593 654.15 125.471 654.106 126.356C653.314 126.131 652.606 125.885 652.006 125.656C652.183 124.829 652.494 124.035 652.924 123.307L652.918 123.304ZM651.852 127.223C651.849 126.928 651.868 126.634 651.907 126.342C652.529 126.581 653.266 126.834 654.086 127.059C654.089 128.179 654.224 129.296 654.486 130.385C653.755 130.185 653.011 129.955 652.253 129.675C651.989 128.885 651.856 128.058 651.858 127.226L651.852 127.223ZM652.59 130.515C653.3 130.761 653.997 130.973 654.68 131.143H654.686C654.97 132.113 655.338 133.057 655.786 133.964C654.394 133.171 653.282 131.967 652.6 130.518L652.59 130.515Z" fill="#C2EAFF"/>
<path d="M435.588 78.0195H428.368V378.838H435.588V78.0195Z" fill="#042440"/>
<path d="M368.358 338.044C360.306 353.17 349.927 366.936 337.6 378.838H57.8339L1.01489 378.196C0.173044 364.829 0.0658834 351.426 0.693894 338.046C5.21489 234.922 51.1839 103.068 176.84 29.2464C264.374 -22.1816 389.3 0.992447 351.484 70.1504C313.668 139.308 349.484 193.414 375.431 257.175C387.667 287.262 379.938 316.051 368.358 338.044Z" fill="#D4F2FF"/>
<path d="M368.362 338.049C360.305 353.171 349.925 366.935 337.6 378.839H57.8311L1.0111 378.199C0.174637 364.831 0.0678119 351.428 0.691096 338.049H368.362Z" fill="#7CB5DE"/>
<path d="M307.284 230.115L309.762 230.998C310.17 231.148 310.522 231.418 310.772 231.774C311.023 232.129 311.159 232.552 311.162 232.986L311.262 239.386C311.272 239.799 311.161 240.207 310.945 240.559C310.729 240.911 310.415 241.193 310.042 241.371L308.422 242.128C308.16 242.251 307.875 242.317 307.585 242.32L295.42 242.467L293.79 235.909L307.284 230.115Z" fill="#784641"/>
<path d="M293.051 235.103L299.871 229.917L306.987 229.617L309.056 231.857C309.258 232.079 309.371 232.369 309.373 232.67C309.374 232.971 309.263 233.261 309.063 233.485L308.157 234.485C308.027 234.629 307.863 234.738 307.68 234.801C307.497 234.863 307.3 234.878 307.11 234.844L303.577 234.195L302.095 236.787L294.533 238.617L293.051 235.103Z" fill="#824B45"/>
<path d="M243.537 350.204L246.635 358.829L255.972 356.065L253.543 346.435L243.537 350.204Z" fill="#824B45"/>
<path d="M148.477 274.39L143.614 269.076L138.66 274.12L143.343 280.604L148.477 274.39Z" fill="#824B45"/>
<path d="M179.691 74.8584V121.138L62.971 139.568L62.671 125.508L61.751 81.8284L173.282 75.2384L179.691 74.8584Z" fill="#9AD3FC"/>
<path d="M65.0467 78.0195H57.8267V378.838H65.0467V78.0195Z" fill="#042440"/>
<path d="M185.374 71.0967H178.154V337.124H185.374V71.0967Z" fill="#042440"/>
<path d="M222.191 337.128L220.341 338.048L117.979 378.838H63.3619L62.641 378.778C61.941 377.728 159.591 344.148 175.871 338.048C176.65 337.79 177.412 337.483 178.152 337.128C179.161 336.128 222.191 337.128 222.191 337.128Z" fill="white"/>
<path d="M89.8569 114.089C89.1991 115.235 88.2593 116.193 87.1269 116.872C85.7864 117.67 84.2815 118.151 82.7269 118.279C81.1922 118.477 79.633 118.346 78.1529 117.894C76.8864 117.509 75.7633 116.756 74.9269 115.729C74.1004 114.675 73.618 113.391 73.5449 112.053L78.6639 111.509C78.7421 112.405 79.1644 113.234 79.8419 113.824C80.215 114.121 80.6467 114.336 81.1085 114.454C81.5703 114.573 82.052 114.592 82.5219 114.511C83.3927 114.464 84.2137 114.09 84.8219 113.465C85.3539 112.877 85.6402 112.107 85.6219 111.314C85.6385 110.988 85.5898 110.661 85.4785 110.354C85.3672 110.046 85.1957 109.764 84.9739 109.523C84.5144 109.065 83.9527 108.722 83.3349 108.523C82.6749 108.298 81.7649 108.053 80.6049 107.789C79.3493 107.523 78.1168 107.158 76.9189 106.697C75.9528 106.302 75.1102 105.655 74.4789 104.823C73.7547 103.788 73.3996 102.54 73.4709 101.278C73.4465 100.311 73.634 99.3502 74.0203 98.4629C74.4066 97.5757 74.9822 96.7837 75.7069 96.1425C77.368 94.7176 79.4453 93.868 81.6289 93.7205C83.7377 93.3568 85.9066 93.7822 87.7219 94.9155C88.4712 95.4467 89.0917 96.1394 89.5376 96.9425C89.9834 97.7456 90.2433 98.6386 90.2979 99.5555L85.1109 100.108C85.0095 99.324 84.6204 98.6052 84.0189 98.0915C83.6764 97.8338 83.2845 97.6495 82.8676 97.5501C82.4507 97.4507 82.0178 97.4382 81.5959 97.5135C80.7944 97.5699 80.0359 97.8971 79.4449 98.4415C79.168 98.7177 78.9521 99.0489 78.811 99.4137C78.67 99.7785 78.6069 100.169 78.6259 100.559C78.6107 100.869 78.6589 101.179 78.7673 101.47C78.8758 101.761 79.0424 102.026 79.2569 102.25C79.711 102.692 80.2599 103.025 80.8619 103.222C81.7286 103.51 82.6115 103.746 83.5059 103.93C84.7855 104.231 86.0456 104.61 87.2789 105.065C88.262 105.453 89.1181 106.107 89.7519 106.952C90.4897 108.02 90.8501 109.302 90.7759 110.597C90.7772 111.821 90.4605 113.025 89.8569 114.089V114.089Z" fill="white"/>
<path d="M110.711 90.9648V94.7878L104.056 95.4958V115.771L99.2431 116.283V96.0089L92.6211 96.7088V92.8888L110.711 90.9648Z" fill="white"/>
<path d="M128.05 108.37L118.391 109.398L116.685 114.426L111.599 114.967L120.473 90.1983L125.968 89.6143L134.809 112.497L129.723 113.038L128.05 108.37ZM126.75 104.855L123.199 95.0623L119.651 105.611L126.75 104.855Z" fill="white"/>
<path d="M149.963 110.885L144.331 102.098L142.214 102.323V111.71L137.402 112.222V88.122L146.583 87.145C149.383 86.847 151.516 87.3027 152.983 88.512C153.723 89.144 154.306 89.9386 154.688 90.8336C155.069 91.7285 155.239 92.6997 155.183 93.671C155.22 95.3748 154.685 97.0418 153.664 98.406C152.544 99.8156 151.01 100.839 149.279 101.331L155.285 110.316L149.963 110.885ZM142.214 99.013L146.174 98.592C148.928 98.2987 150.305 96.9347 150.305 94.5C150.341 94.018 150.27 93.5339 150.095 93.0831C149.921 92.6322 149.648 92.226 149.297 91.894C148.847 91.5807 148.338 91.3623 147.801 91.2523C147.264 91.1422 146.711 91.1428 146.174 91.254L142.214 91.675V99.013Z" fill="white"/>
<path d="M174.811 84.1436V87.9676L168.155 88.6756V108.95L163.342 109.462V89.1876L156.721 89.8876V86.0686L174.811 84.1436Z" fill="white"/>
<path d="M152.961 199.056C151.132 199.045 146.827 198.867 145.372 198.805C145.049 198.792 144.73 198.872 144.452 199.037L135.693 204.2C135.292 204.443 135.002 204.834 134.885 205.288C134.769 205.742 134.835 206.224 135.07 206.63L136.979 209.948C137.169 210.287 137.47 210.551 137.832 210.694C138.193 210.837 138.593 210.852 138.964 210.735L145.173 208.75C145.565 208.628 145.987 208.652 146.363 208.818C146.738 208.983 147.041 209.279 147.216 209.65L147.481 210.194C147.586 210.419 147.739 210.618 147.93 210.777C148.12 210.935 148.343 211.05 148.583 211.113C148.823 211.176 149.074 211.186 149.318 211.141C149.562 211.096 149.793 210.998 149.995 210.854L153.544 208.313C153.777 208.147 153.965 207.926 154.092 207.669L156.047 203.738C156.195 203.44 156.258 203.108 156.229 202.776C156.199 202.445 156.079 202.129 155.882 201.861L154.31 199.752C154.155 199.539 153.952 199.365 153.718 199.244C153.484 199.123 153.224 199.059 152.961 199.056V199.056Z" fill="#824B45"/>
<path d="M204.958 281.399C204.958 281.399 179.64 324.554 176.052 324.291C175.668 324.187 175.317 323.986 175.032 323.708C174.274 323.054 173.562 322.347 172.903 321.593C172.728 321.404 172.552 321.214 172.377 321.01C171.94 320.529 171.488 320.004 171.021 319.449C161.321 307.942 141.955 279.985 141.955 279.985L142.786 279.168L142.976 278.979L149.076 272.853C149.076 272.853 173.752 299.017 174.525 298.769C174.978 298.609 178.142 284.025 180.636 272.169C182.371 264.002 183.771 257.118 183.771 257.118L204.958 281.399Z" fill="#042440"/>
<path d="M144.712 269.5L143.676 270.506L139.009 275.013L128.829 279.373C127.519 279.931 126.111 280.219 124.687 280.219C122.242 280.217 119.873 279.372 117.979 277.827L137.871 261.927C141.707 262.806 144.712 269.5 144.712 269.5Z" fill="#EDECEA"/>
<path d="M204.958 281.399C204.958 281.399 179.64 324.554 176.052 324.291C175.668 324.187 175.317 323.986 175.032 323.708C174.278 323.05 173.566 322.343 172.903 321.593C172.728 321.404 172.552 321.214 172.377 321.01C171.94 320.529 171.488 320.004 171.021 319.449C161.321 307.942 141.955 279.985 141.955 279.985L142.786 279.168C152.032 290.908 172.028 315.599 175.265 313.674C179.509 311.151 192.445 284.637 192.445 284.637C188.14 280.845 184.187 276.671 180.632 272.168C182.367 264.001 183.767 257.117 183.767 257.117L204.958 281.399Z" fill="#00172B"/>
<path d="M253.975 347.699L252.327 348.238L252.006 348.338L242.873 351.192L230.538 309.545C230.538 309.545 200.875 287.071 191.147 274.703C181.419 262.335 183.767 257.115 183.767 257.115C186.524 254.402 194.851 255.146 202.698 256.615C211.083 258.205 218.944 260.626 218.944 260.626L244.86 302.701L253.975 347.699Z" fill="#042440"/>
<path d="M253.975 347.699L252.327 348.238L252.006 348.338L239.493 303.492C234.184 293.415 211.593 267.572 202.693 256.619C211.078 258.209 218.939 260.63 218.939 260.63L244.855 302.705L253.975 347.699Z" fill="#00172B"/>
<path d="M274.631 361.979L247.601 366.349L244.991 357.299L248.152 356.359L254.971 354.179L269.181 355.269C270.293 355.356 271.35 355.791 272.201 356.512C273.052 357.234 273.653 358.205 273.921 359.289L274.201 360.359L274.631 361.979Z" fill="#EDECEA"/>
<path d="M219.659 255.645L219.615 255.98L218.944 260.633C217.746 261.358 216.487 261.977 215.182 262.484C214.196 262.869 213.188 263.196 212.163 263.461C211.842 263.534 211.521 263.592 211.244 263.651C210.895 263.746 210.539 263.813 210.179 263.852C209.756 263.939 209.406 263.997 209.159 264.026C195.959 265.689 183.767 257.113 183.767 257.113L184.336 250.229L219.659 255.645Z" fill="#042440"/>
<path d="M219.615 255.98L218.944 260.632C217.746 261.357 216.487 261.977 215.182 262.484C214.196 262.869 213.187 263.196 212.163 263.461C211.842 263.534 211.521 263.592 211.244 263.651C210.85 263.738 210.5 263.797 210.179 263.851C209.756 263.938 209.406 263.997 209.159 264.026L209.259 257.696L219.615 255.98Z" fill="#00172B"/>
<path d="M293.552 243.569L260.011 251.459C256.201 250.479 238.311 230.599 236.782 228.899C236.751 228.857 236.718 228.817 236.682 228.779L234.382 232.919L234.332 232.999L222.712 253.899L220.632 257.619C219.352 258.009 218.082 258.329 216.842 258.599L218.212 255.909L200.892 256.599L199.842 258.739H199.823C195.431 257.843 191.217 256.228 187.352 253.959C186.185 253.272 185.06 252.517 183.982 251.699C183.769 251.534 183.595 251.326 183.47 251.088C183.346 250.849 183.275 250.587 183.262 250.319C183.253 250.279 183.25 250.239 183.252 250.199C183.252 249.896 183.324 249.598 183.462 249.329L185.113 246.199L205.982 205.339L186.472 196.699L159.162 203.879C158.497 204.076 157.786 204.06 157.13 203.834C156.474 203.608 155.905 203.183 155.502 202.619L154.762 201.569L154.613 201.369C154.336 200.974 154.149 200.523 154.065 200.049C153.98 199.574 154.001 199.087 154.125 198.621C154.249 198.155 154.473 197.722 154.782 197.352C155.091 196.982 155.477 196.684 155.913 196.479L184.253 183.269C197.013 185.569 216.233 192.309 226.853 196.219C228.013 196.659 229.083 197.049 230.034 197.399C232.893 198.479 234.593 199.149 234.593 199.149C237.013 199.949 238.463 202.939 239.324 206.019V206.029C240.003 208.429 241.463 202.299 241.603 203.839C241.693 204.819 241.723 205.429 241.723 205.429L262.464 236.009L291.404 234.199C291.95 234.086 292.518 234.195 292.985 234.5C293.451 234.806 293.778 235.283 293.893 235.829L294.723 239.719L295.013 241.089C295.129 241.61 295.043 242.156 294.772 242.617C294.501 243.077 294.065 243.418 293.552 243.569V243.569Z" fill="#00315C"/>
<path d="M293.552 243.449L260.011 251.339C256.201 250.359 238.311 230.479 236.782 228.779L238.532 225.849C238.532 225.849 258.332 246.239 261.671 246.769C264.461 247.209 285.152 242.159 294.721 239.599L295.011 240.969C295.127 241.49 295.041 242.036 294.77 242.496C294.5 242.957 294.064 243.297 293.552 243.449V243.449Z" fill="#042440"/>
<path d="M218.181 201.998L210.961 205.448C210.961 205.448 189.081 240.618 187.351 253.828C186.183 253.147 185.058 252.396 183.981 251.578C183.584 251.27 183.325 250.817 183.261 250.318C183.252 250.279 183.249 250.239 183.251 250.198C183.251 249.896 183.323 249.598 183.461 249.328L185.112 246.198L205.981 205.338L186.471 196.698L159.161 203.878C158.61 204.047 158.024 204.067 157.462 203.937C156.9 203.807 156.382 203.532 155.961 203.138L154.771 201.448L188.032 190.608C188.032 190.608 212.771 198.558 218.181 201.998Z" fill="#042440"/>
<path d="M140.982 280.087C141.295 279.67 149.003 271.857 149.003 271.857L152.024 274.774L142.753 283.212L140.982 280.087Z" fill="#3E6080"/>
<path d="M241.415 348.773L254.537 344.395L255.239 347.763L242.537 352.632L241.415 348.773Z" fill="#3E6080"/>
<path d="M274.631 361.978L247.601 366.348L244.991 357.298L248.152 356.358C248.461 358.228 249.381 362.898 250.711 363.498C252.091 364.138 268.652 361.338 274.201 360.358L274.631 361.978Z" fill="#C4C4C2"/>
<path d="M144.712 269.5L143.676 270.506C142.655 268.669 140.089 264.454 138.046 264.396C135.961 264.323 124.775 275.129 120.346 279.286C119.498 278.904 118.704 278.413 117.983 277.827L137.875 261.927C141.707 262.806 144.712 269.5 144.712 269.5Z" fill="#C4C4C2"/>
<path d="M154.752 197.726L151.691 198.674C151.691 198.674 151.253 203.485 155.262 205.674L157.668 203.56L154.752 197.726Z" fill="#FFBE01"/>
<path d="M222.707 253.777L220.636 257.496C219.352 257.89 218.083 258.211 216.844 258.473L218.215 255.79L200.889 256.475L199.839 258.619L199.183 258.488C195.021 257.566 191.03 255.996 187.355 253.836C186.187 253.152 185.061 252.397 183.986 251.575C183.636 251.305 183.392 250.92 183.296 250.489C183.2 250.057 183.258 249.605 183.461 249.212L185.109 246.077C188.099 248.833 193.933 252.698 204.433 253.471C210.509 254.016 216.616 254.119 222.707 253.777V253.777Z" fill="#FFBE01"/>
<path d="M239.318 205.898V205.913C239.192 207.489 238.953 209.053 238.604 210.594C238.356 211.732 238.035 212.927 237.685 214.152C233.718 227.964 223.669 246.252 218.215 255.79C211.477 257.219 205.862 257.569 200.889 256.475C209.931 244.619 220.607 220.117 226.338 206.335C226.761 205.3 227.17 204.323 227.538 203.419C228.704 200.56 229.564 198.419 230.031 197.279C232.89 198.358 234.596 199.029 234.596 199.029C237.014 199.831 238.458 202.821 239.318 205.898Z" fill="#F26835"/>
<path d="M239.318 205.898V205.913C239.192 207.489 238.953 209.053 238.604 210.594C236.343 211.411 233.558 211.877 231.618 210.394C229.532 208.794 228.249 205.8 227.535 203.423C228.701 200.564 229.561 198.423 230.028 197.283C232.887 198.362 234.593 199.033 234.593 199.033C237.014 199.831 238.458 202.821 239.318 205.898Z" fill="white"/>
<path d="M229.853 194.869C229.853 194.869 224.431 196.676 222.022 206.315C222.022 206.315 224.631 203.077 225.484 208.193C225.484 208.193 228.819 199.723 231.71 199.085C235.038 198.352 239.372 202.942 239.372 206.556L237.083 215.356C237.083 215.356 239.252 213.79 239.854 217.766C239.854 217.766 244.254 210.123 242.327 204.46C240.4 198.797 236.6 193.664 229.853 194.869Z" fill="#FFBE01"/>
<path d="M291.842 234.6L295.118 233.326C295.118 233.326 298.151 239.453 296.877 242.726L293.602 242.787L291.842 234.6Z" fill="#FFBE01"/>
<path d="M232.815 193.23C231.954 193.551 231.434 193.901 230.56 193.613C230.071 193.399 229.664 193.032 229.401 192.567C229.138 192.102 229.032 191.564 229.1 191.034C228.326 191.245 227.784 190.722 227.33 190.016C227.088 189.73 226.943 189.374 226.917 189C226.892 188.626 226.986 188.253 227.187 187.936C226.817 187.912 226.468 187.758 226.2 187.502C225.932 187.246 225.763 186.905 225.721 186.536C225.641 186.188 225.687 185.821 225.852 185.504C226.017 185.186 226.29 184.937 226.621 184.802C226.12 184.223 225.84 183.485 225.832 182.718C225.824 181.952 226.088 181.208 226.577 180.618C226.345 180.297 226.18 179.93 226.095 179.543C226.009 179.155 226.004 178.754 226.079 178.364C226.155 177.974 226.309 177.604 226.533 177.276C226.757 176.949 227.046 176.67 227.382 176.458C226.782 176.037 226.891 174.865 227.082 174.124C227.17 173.8 227.341 173.503 227.578 173.264C227.815 173.025 228.109 172.852 228.433 172.76C228.633 172.678 228.766 172.104 228.766 171.919C228.769 171.631 228.831 171.345 228.949 171.082C229.066 170.818 229.237 170.582 229.451 170.387C229.664 170.192 229.915 170.044 230.188 169.951C230.462 169.857 230.751 169.822 231.039 169.845C231.305 168.712 232.574 167.745 233.565 168.237C233.7 167.925 233.895 167.643 234.14 167.407C234.385 167.17 234.674 166.985 234.991 166.862C235.308 166.738 235.646 166.679 235.986 166.687C236.326 166.695 236.661 166.771 236.972 166.909C237.422 166.355 238.053 165.978 238.754 165.846C239.455 165.713 240.18 165.833 240.801 166.184C241.338 165.809 241.987 165.63 242.64 165.677C243.293 165.724 243.909 165.994 244.387 166.441C245.358 166.054 246.723 165.95 247.287 166.884C247.375 167.081 247.486 167.266 247.618 167.436C247.953 167.767 248.478 167.598 248.932 167.58C249.45 167.599 249.941 167.814 250.305 168.182C250.67 168.55 250.88 169.043 250.894 169.56C251.544 169.564 252.18 169.741 252.739 170.071C252.677 170.376 252.689 170.691 252.775 170.991C252.86 171.29 253.017 171.564 253.231 171.789C253.445 172.015 253.71 172.186 254.004 172.287C254.298 172.389 254.612 172.417 254.92 172.371C255.108 172.633 255.22 172.941 255.245 173.262C255.27 173.583 255.206 173.904 255.061 174.191C255.292 174.343 255.486 174.546 255.626 174.784C255.767 175.022 255.85 175.29 255.87 175.566C255.89 175.842 255.847 176.118 255.743 176.375C255.639 176.631 255.477 176.86 255.27 177.043C255.476 177.235 255.637 177.47 255.741 177.732C255.844 177.994 255.888 178.275 255.869 178.556C255.85 178.837 255.768 179.11 255.63 179.355C255.492 179.6 255.3 179.812 255.07 179.973C255.254 180.22 255.381 180.506 255.44 180.808C255.499 181.111 255.49 181.423 255.412 181.721C255.334 182.019 255.191 182.296 254.992 182.531C254.793 182.767 254.543 182.954 254.262 183.08C254.42 183.309 254.521 183.573 254.557 183.848C254.592 184.124 254.561 184.405 254.465 184.666C254.37 184.927 254.214 185.162 254.009 185.35C253.804 185.539 253.557 185.675 253.289 185.748C253.381 185.957 253.427 186.183 253.424 186.412C253.422 186.64 253.37 186.865 253.274 187.071C253.177 187.278 253.037 187.462 252.863 187.61C252.69 187.758 252.486 187.867 252.267 187.93C252.308 188.319 252.2 188.709 251.965 189.022C251.73 189.335 251.385 189.547 251 189.616C250.254 189.694 249.504 189.734 248.754 189.735C247.862 189.934 247.012 190.288 246.242 190.781C243.259 192.381 239.945 193.268 236.561 193.372C236.354 193.404 236.143 193.392 235.941 193.338C235.739 193.284 235.55 193.188 235.387 193.057" fill="#1F1A1A"/>
<path d="M227.58 183.562C228.903 178.238 235.023 181.615 235.023 181.615C235.023 181.615 237.781 181.77 239.613 177.915C239.613 177.915 242.146 174.947 248.013 176.406C253.88 177.865 252.776 182.098 252.776 182.098C252.143 185.281 250.949 191.362 250.342 193.315C249.374 196.428 246.696 201.864 241.659 201.541L240.682 204.514L240.099 206.284C240.099 206.284 239.044 210.116 232.458 206.756C228.114 204.541 229.097 201.801 229.097 201.801L231.948 191.096C231.948 191.096 226.26 188.87 227.58 183.562Z" fill="#824B45"/>
<path d="M236.25 199.623C236.25 199.623 235.829 202.423 240.686 204.514L241.665 201.543L241.365 201.571C240.423 201.631 239.479 201.488 238.596 201.152C237.714 200.815 236.914 200.294 236.25 199.623V199.623Z" fill="#452518"/>
<path d="M242.462 185.952C242.465 186.019 242.46 186.086 242.448 186.152C242.447 186.298 242.407 186.442 242.333 186.568C242.258 186.694 242.152 186.798 242.025 186.871L241.912 186.928C241.8 186.997 241.675 187.04 241.544 187.055C241.444 187.072 241.342 187.067 241.244 187.041H241.23L239.509 186.646L237.703 186.236C237.539 186.188 237.388 186.101 237.265 185.982C237.15 185.856 237.076 185.698 237.053 185.529C237.031 185.36 237.06 185.189 237.138 185.037C237.416 184.421 237.897 183.919 238.5 183.615C239.104 183.312 239.794 183.226 240.454 183.372C240.567 183.414 240.694 183.457 240.821 183.513C240.891 183.527 240.934 183.569 240.991 183.584C241.35 183.76 241.663 184.015 241.908 184.331C242.264 184.797 242.458 185.366 242.462 185.952V185.952Z" fill="white"/>
<path d="M251.239 188.097C251.239 188.168 251.225 188.238 251.225 188.309C251.219 188.455 251.178 188.597 251.107 188.724C251.036 188.851 250.937 188.96 250.816 189.042L250.731 189.099C250.632 189.176 250.516 189.229 250.392 189.254C250.336 189.263 250.278 189.259 250.223 189.24C250.208 189.247 250.19 189.251 250.173 189.251C250.156 189.251 250.139 189.247 250.123 189.24L248.599 188.873L246.976 188.492C246.826 188.457 246.691 188.373 246.595 188.252C246.492 188.114 246.429 187.95 246.414 187.778C246.399 187.606 246.432 187.433 246.51 187.279C246.91 186.379 248.035 185.148 249.347 185.458C249.519 185.491 249.685 185.548 249.84 185.628C249.898 185.644 249.951 185.673 249.996 185.712C250.534 186.023 250.933 186.528 251.111 187.123V187.137C251.206 187.448 251.249 187.772 251.239 188.097Z" fill="white"/>
<path d="M243.367 192.21C243.5 192.224 246.61 192.543 247.156 190.545C247.244 190.31 247.274 190.057 247.246 189.807C247.217 189.557 247.13 189.317 246.991 189.107C246.843 188.937 246.662 188.798 246.458 188.699C246.255 188.6 246.034 188.544 245.808 188.532L246.365 185.025L245.788 184.94L245.119 189.16L245.475 189.137C245.667 189.12 245.86 189.143 246.042 189.206C246.224 189.269 246.391 189.369 246.531 189.501C246.608 189.635 246.654 189.784 246.666 189.938C246.677 190.092 246.653 190.246 246.595 190.389C246.189 191.876 243.472 191.599 243.445 191.596L243.367 192.21Z" fill="#451A16"/>
<path d="M242.024 194.902C242.602 195.246 243.142 195.65 243.635 196.108L243.219 196.565C243.519 196.835 240.193 193.592 238.453 195.219L238.069 194.778C239.255 193.668 240.846 194.206 242.024 194.902Z" fill="#451A16"/>
<path d="M230.966 186.484L231.44 186.111C231.175 185.515 231.002 184.882 230.926 184.234C231.034 184.004 231.188 183.798 231.379 183.629C231.57 183.461 231.794 183.334 232.036 183.255L231.891 182.662C231.554 182.768 231.244 182.947 230.983 183.185C230.721 183.423 230.515 183.714 230.378 184.04C230.274 184.465 230.272 184.908 230.375 185.334C230.477 185.759 230.68 186.153 230.966 186.484V186.484Z" fill="#451A16"/>
<path d="M243.052 182.338C243.052 182.338 240.696 180.398 238.27 181.291C238.521 180.77 238.928 180.341 239.434 180.062C239.94 179.783 240.521 179.668 241.095 179.734C243.059 180.021 243.052 182.338 243.052 182.338Z" fill="#1F1A1A"/>
<path d="M252.281 184.69C252.281 184.69 249.925 182.75 247.5 183.643C247.751 183.122 248.157 182.692 248.663 182.413C249.169 182.134 249.75 182.02 250.324 182.086C252.288 182.377 252.281 184.69 252.281 184.69Z" fill="#1F1A1A"/>
<path d="M236.465 180.79C235.353 182.617 234.665 184.67 234.45 186.798L233.227 185.715L233.255 180.74L236.465 180.79Z" fill="#1F1A1A"/>
<path d="M239.31 177.289C239.251 177.45 239.228 177.622 239.243 177.793C239.258 177.964 239.31 178.13 239.396 178.278C239.482 178.427 239.599 178.555 239.74 178.653C239.881 178.751 240.041 178.818 240.21 178.847C240.559 178.87 240.908 178.795 241.216 178.629C241.524 178.463 241.779 178.213 241.952 177.909C241.952 178.164 242.046 178.409 242.217 178.598C242.388 178.787 242.623 178.906 242.876 178.931C243.131 178.942 243.385 178.895 243.619 178.795C243.853 178.695 244.062 178.544 244.231 178.353C244.237 178.668 244.344 178.974 244.538 179.223C244.731 179.472 245 179.651 245.305 179.734C245.609 179.817 245.932 179.8 246.225 179.684C246.518 179.568 246.766 179.36 246.931 179.091C247.522 180.971 248.831 180.271 249.545 179.479C249.516 179.732 249.556 179.989 249.66 180.221C249.763 180.454 249.928 180.655 250.135 180.802C250.242 180.866 250.361 180.908 250.485 180.925C250.608 180.941 250.734 180.933 250.854 180.899C250.974 180.865 251.086 180.807 251.183 180.729C251.28 180.65 251.36 180.553 251.418 180.442C251.493 180.644 251.609 180.827 251.758 180.982C251.908 181.137 252.087 181.259 252.286 181.341C252.484 181.424 252.698 181.464 252.913 181.461C253.128 181.457 253.339 181.409 253.535 181.32C253.661 181.262 253.774 181.18 253.868 181.078C253.961 180.975 254.033 180.856 254.08 180.725C254.131 180.502 254.131 180.27 254.08 180.047C254 179.282 253.809 178.533 253.515 177.822C252.715 176.113 250.895 175.197 249.139 174.603C247.57 174.044 245.926 173.722 244.262 173.647C243.271 173.593 242.279 173.733 241.342 174.061C240.388 174.401 239.581 175.061 239.056 175.927" fill="#1F1A1A"/>
<path d="M242.109 185.289C242.124 185.63 242.053 185.968 241.903 186.274C241.752 186.58 241.527 186.843 241.248 187.039H241.234L239.513 186.644C239.233 186.248 239.085 185.774 239.09 185.289C239.052 184.859 239.169 184.429 239.42 184.077C239.67 183.725 240.039 183.474 240.458 183.37C240.571 183.412 240.698 183.455 240.825 183.511C240.895 183.525 240.938 183.567 240.995 183.582C241.354 183.758 241.667 184.013 241.912 184.329C242.044 184.632 242.112 184.959 242.109 185.289V185.289Z" fill="#1F1A1A"/>
<path d="M251.126 187.405C251.142 187.762 251.068 188.117 250.911 188.437C250.753 188.758 250.518 189.034 250.226 189.24C250.211 189.247 250.194 189.251 250.176 189.251C250.159 189.251 250.142 189.247 250.126 189.24L248.602 188.873C248.271 188.457 248.096 187.937 248.108 187.405C248.07 186.989 248.172 186.572 248.397 186.219C248.621 185.867 248.957 185.599 249.35 185.458C249.522 185.491 249.688 185.548 249.843 185.628C249.901 185.644 249.954 185.673 249.999 185.712C250.537 186.023 250.936 186.528 251.114 187.123V187.137C251.126 187.226 251.13 187.315 251.126 187.405V187.405Z" fill="#1F1A1A"/>
<path d="M264.304 145.868V126.925L247.899 117.453L231.494 126.925V145.868L247.899 155.339L264.304 145.868Z" fill="#2789BA"/>
<path d="M262.891 126.087V145.028L246.531 154.477L231.309 145.683V126.741L247.66 117.302L262.891 126.087Z" fill="#48ADE0"/>
<path d="M284.137 111.257V92.3138L267.732 82.8428L251.327 92.3138V111.257L267.732 120.729L284.137 111.257Z" fill="#2789BA"/>
<path d="M282.723 91.4754V110.417L266.364 119.865L251.142 111.071V92.1304L267.493 82.6904L282.723 91.4754Z" fill="#48ADE0"/>
<path d="M244.082 111.257V92.3138L227.677 82.8428L211.272 92.3138V111.257L227.677 120.729L244.082 111.257Z" fill="#2789BA"/>
<path d="M242.669 91.4754V110.417L226.309 119.865L211.088 111.071V92.1304L227.438 82.6904L242.669 91.4754Z" fill="#48ADE0"/>
<path d="M250.081 125.77L248.381 125.57L248.153 127.518C248.079 127.518 248.005 127.512 247.931 127.512C247.322 127.513 246.715 127.584 246.122 127.724L245.415 125.859L243.815 126.466L244.508 128.296C243.895 128.596 243.324 128.974 242.808 129.42L241.32 128.089L240.177 129.367L241.637 130.672C241.228 131.22 240.891 131.819 240.637 132.454L238.705 131.96L238.28 133.62L240.18 134.106C240.046 134.928 240.043 135.766 240.17 136.588L238.257 137.148L238.739 138.793L240.619 138.243C240.868 138.88 241.199 139.481 241.604 140.031L240.164 141.411L241.35 142.649L242.765 141.293C243.28 141.744 243.851 142.126 244.465 142.428L243.823 144.316L245.446 144.867L246.076 143.013C246.687 143.163 247.313 143.238 247.942 143.238C247.997 143.238 248.051 143.238 248.106 143.238L248.406 145.212L250.1 144.954L249.8 143.018C250.464 142.857 251.105 142.609 251.705 142.281L252.88 143.891L254.265 142.881L253.11 141.297C253.625 140.847 254.079 140.333 254.462 139.766L256.246 140.655L257.01 139.12L255.257 138.247C255.506 137.611 255.671 136.945 255.748 136.265L257.748 136.231L257.718 134.517L255.76 134.551C255.688 133.871 255.528 133.204 255.283 132.565L257.036 131.615L256.22 130.108L254.498 131.041C254.12 130.472 253.67 129.953 253.159 129.499L254.278 127.847L252.859 126.885L251.759 128.507C251.161 128.174 250.522 127.921 249.859 127.754L250.081 125.77ZM242.871 135.37C242.871 134.37 243.167 133.392 243.723 132.561C244.279 131.729 245.069 131.081 245.993 130.698C246.917 130.316 247.933 130.215 248.914 130.41C249.895 130.606 250.796 131.087 251.504 131.794C252.211 132.502 252.693 133.403 252.888 134.384C253.083 135.365 252.983 136.381 252.6 137.306C252.217 138.23 251.569 139.019 250.737 139.575C249.906 140.131 248.928 140.427 247.928 140.427C246.587 140.428 245.302 139.896 244.353 138.948C243.405 138.001 242.872 136.716 242.871 135.375V135.37Z" fill="#C2EAFF"/>
<path d="M227.439 92.624V103.26C227.439 103.26 223.17 97.1259 219.249 100.444C215.328 103.762 219.649 110.098 229.405 106.88V96.221C229.405 96.221 232.221 98.835 234.936 96.921C237.651 95.007 237.55 93.502 237.55 93.502C237.55 93.502 235.74 96.016 234.131 93.802C232.522 91.588 229.092 90.638 227.439 92.624Z" fill="#C2EAFF"/>
<path d="M274.229 90.0297L258.383 107.78L262.768 111.694L278.613 93.9434L274.229 90.0297Z" fill="#C2EAFF"/>
<path d="M275.49 93.3176L274.863 94.0195L276.912 95.8482L277.538 95.1462L275.49 93.3176Z" fill="#48ADE0"/>
<path d="M271.716 97.5441L271.09 98.2461L273.138 100.075L273.765 99.3727L271.716 97.5441Z" fill="#48ADE0"/>
<path d="M267.945 101.77L267.318 102.472L269.366 104.3L269.993 103.598L267.945 101.77Z" fill="#48ADE0"/>
<path d="M264.177 105.989L263.551 106.691L265.599 108.52L266.226 107.818L264.177 105.989Z" fill="#48ADE0"/>
<path d="M263.838 108.376L263.506 108.748L264.558 109.688L264.891 109.315L263.838 108.376Z" fill="#48ADE0"/>
<path d="M262.917 109.407L262.578 109.787L263.631 110.727L263.97 110.347L262.917 109.407Z" fill="#48ADE0"/>
<path d="M267.386 104.399L267.047 104.778L268.099 105.718L268.438 105.338L267.386 104.399Z" fill="#48ADE0"/>
<path d="M266.46 105.438L266.128 105.811L267.181 106.75L267.513 106.378L266.46 105.438Z" fill="#48ADE0"/>
<path d="M271.05 100.295L270.711 100.675L271.764 101.614L272.103 101.235L271.05 100.295Z" fill="#48ADE0"/>
<path d="M270.124 101.333L269.785 101.713L270.838 102.653L271.177 102.273L270.124 101.333Z" fill="#48ADE0"/>
<path d="M274.9 95.9836L274.562 96.3633L275.614 97.3029L275.953 96.9232L274.9 95.9836Z" fill="#48ADE0"/>
<path d="M273.973 97.0207L273.634 97.4004L274.686 98.34L275.025 97.9603L273.973 97.0207Z" fill="#48ADE0"/>
<g style="mix-blend-mode:multiply" opacity="0.4">
<path d="M179.691 74.8584V121.138L62.9709 139.568L62.6709 125.508C82.0209 125.048 118.251 122.628 141.951 111.688C167.201 100.028 172.302 83.0084 173.282 75.2384L179.691 74.8584Z" fill="#9AD3FC"/>
</g>
<g style="mix-blend-mode:multiply" opacity="0.4">
<path d="M552.3 74.8584V121.138L435.58 139.568L435.2 121.948C456.981 127.108 499.03 121.308 516.93 112.918C535.04 104.428 537.901 84.6684 538.23 75.6884L552.3 74.8584Z" fill="#9AD3FC"/>
</g>
</svg>
