<svg width="721" height="513" viewBox="0 0 721 513" fill="none" xmlns="http://www.w3.org/2000/svg">
<path d="M651.812 408.465C625.791 346.67 614.721 310.777 618.6 300.784C616.447 298.384 624.919 263.661 644.018 196.616H644C644.514 194.764 644.949 192.948 645.327 191.162C645.385 191.144 645.444 191.127 645.502 191.108H645.513H645.499C645.551 191.09 645.605 191.078 645.656 191.061H645.667C646.347 187.996 646.753 184.876 646.881 181.739C646.912 181.039 646.908 180.371 646.92 179.688C649.508 139.128 617.672 118.888 617.672 118.888H617.682C615.336 116.421 613.06 114.192 610.854 112.199L609.287 110.87L599.866 104.555C599.603 104.355 599.341 104.149 599.074 103.955C598.807 103.761 598.531 103.567 598.259 103.372C597.67 102.95 597.076 102.534 596.47 102.131C596.149 101.918 595.823 101.709 595.496 101.5C594.912 101.127 594.32 100.764 593.72 100.409C593.535 100.299 593.357 100.179 593.171 100.071L592.652 99.724L592.471 99.678C591.894 99.354 591.303 99.045 590.713 98.737C590.497 98.625 590.29 98.501 590.072 98.39H590.054C580.491 93.542 569.22 90.791 556.242 90.137C503.698 98.0703 466.943 102.037 445.977 102.037C435.548 102.037 429.026 101.055 426.41 99.092C382.691 60.3586 333.517 40.356 278.889 39.084H277.802L254.412 40.021C254.42 40.321 254.418 40.616 254.424 40.915H245.007C203.578 45.7503 169.653 60.168 143.233 84.168H143.239L135.986 91.186C122.598 105.022 111.696 121.062 103.758 138.602C97.4366 157.427 97.5273 179.66 104.03 205.302C146.196 298.072 164.096 345.714 157.73 348.228C158.222 358.66 156.983 369.101 154.062 379.128C133.954 417.479 121.192 455.265 115.777 492.488L634.1 481.75L645.687 458.804C652.722 438.647 654.764 421.868 651.812 408.465Z" fill="#C9EEFF"/>
<path d="M682.9 366.56C682.9 366.56 698.849 356.309 711.729 369.18C724.609 382.051 719.729 409.806 719.729 409.806C719.729 409.806 712.745 401.633 704.097 399.392C695.449 397.151 670.54 376.154 682.9 366.56Z" fill="#88BDD1"/>
<path d="M654.532 435.316C654.532 435.316 655.458 421.306 665.077 417.062C674.696 412.818 691.168 413.881 695.325 411.316C695.325 411.316 693.743 427.2 683.477 433.537C673.211 439.874 658 439.109 654.532 435.316Z" fill="#88BDD1"/>
<path d="M639.4 406.457C639.4 406.457 636.271 412.368 626.512 408.675C616.753 404.982 606.188 393.617 602.073 392.946C602.073 392.946 612.909 387.746 623.679 391.446C634.449 395.146 640.023 401.838 639.4 406.457Z" fill="#88BDD1"/>
<path d="M649.383 390.65C649.383 390.65 638.037 391.456 632.983 384.706C627.929 377.956 626.96 361.734 626.436 361.217C625.912 360.7 648.099 369.181 651.45 380.917C654.801 392.653 649.383 390.65 649.383 390.65Z" fill="#63AAC6"/>
<path d="M645.882 340.026C645.882 340.026 644.111 343.882 635.034 341.753C625.957 339.624 616.297 344.062 610.053 345.778C603.809 347.494 585.76 340.826 585.607 340.591C585.454 340.356 587.289 336.491 595.873 334.254C604.457 332.017 613.273 320.104 625.064 322.809C636.855 325.514 646.471 334.095 645.882 340.026Z" fill="#63AAC6"/>
<path d="M631.13 434.107C631.13 434.107 632.818 417.166 615.019 411.232C597.22 405.298 588.135 413.711 588.135 413.711C588.135 413.711 595.905 423.911 604.86 428.532C613.815 433.153 625.494 435.262 631.13 434.107Z" fill="#63AAC6"/>
<path d="M714.037 393.109C705.261 376.577 695.307 367.409 685.276 366.585C677.509 365.948 669.81 370.395 662.376 379.774C663.927 374.348 664.969 370.748 669.844 366.084C676.188 360.014 680.219 347.648 680.259 347.523L679.793 347.374C679.754 347.496 675.762 359.746 669.506 365.731C664.515 370.505 662.819 374.305 661.293 379.645C660.855 381.179 660.358 382.919 659.724 384.832C659.195 386.432 658.724 388.001 658.261 389.518C656.346 395.85 655.894 398.201 652.288 399.518C657.473 370.395 661.535 344.534 661.268 335.111L659.312 335.167C659.431 339.386 658.535 347.692 657.029 358.258C649.769 341.7 640.929 331.735 630.729 328.663C627.741 327.762 624.599 327.486 621.5 327.853C618.4 328.22 615.41 329.222 612.715 330.796L612.988 331.201C615.624 329.669 618.546 328.695 621.573 328.339C624.601 327.983 627.669 328.253 630.588 329.131C640.795 332.204 649.64 342.324 656.899 359.179C655.693 367.553 654.121 377.279 652.376 387.484C648.093 382.904 643.568 378.557 638.821 374.46L638.503 374.832C643.334 378.997 647.93 383.427 652.271 388.101C650.624 397.713 648.83 407.727 647.048 417.426C643.027 402.734 616.386 393.683 616.094 393.586L615.94 394.049C616.24 394.149 643.957 403.56 646.83 418.612C644.635 430.538 642.471 441.925 640.639 451.425C638.478 440.043 629.192 431.469 621.573 426.199C612.51 419.931 602.985 416.283 600.031 415.581C599.205 415.388 598.997 415.433 598.887 415.6L599.293 415.872C599.27 415.908 599.234 415.934 599.193 415.945C599.969 415.793 611.583 419.583 622.482 427.445C629.798 432.722 638.787 441.388 640.369 452.798C637.64 466.928 635.711 476.546 635.643 476.884L637.562 477.27C637.854 475.816 640.081 464.711 643.062 449.235C654.332 429.635 687.901 414.968 689.108 414.983L689.114 414.494C688.114 414.482 678.561 418.685 668.233 425.235C659.833 430.566 649.149 438.601 643.325 447.869C645.844 434.769 648.862 418.739 651.7 402.821C655.727 401.577 657.322 396.336 659.322 389.721C659.78 388.206 660.253 386.641 660.781 385.046C661.261 383.598 661.662 382.246 662.019 381.016C669.573 371.123 677.383 366.432 685.232 367.075C695.092 367.875 704.906 376.965 713.601 393.341C714.091 394.264 714.12 394.312 714.215 394.367L714.373 394.098L714.514 393.988C714.469 393.922 714.269 393.545 714.037 393.109Z" fill="#273137"/>
<path d="M100.3 439.22C100.3 439.22 88.3729 424.655 100.134 407.808C111.895 390.961 128.049 389.584 132.772 382.922C132.772 382.922 141.052 406.936 131.694 420.803C118.34 440.587 100.3 439.22 100.3 439.22Z" fill="#06628D"/>
<path d="M78.1429 462.495C76.4855 455.659 72.978 449.412 68.0049 444.437C63.0319 439.463 56.7853 435.954 49.9499 434.295C25.8499 428.084 5.19594 451.114 0.835938 451.032C6.31196 455.434 13.2564 457.591 20.2629 457.066C31.8899 456.111 40.3999 472.085 51.9999 473.139C68.2829 474.628 78.1429 462.495 78.1429 462.495Z" fill="#06628D"/>
<path d="M61.617 410.493C61.617 410.493 59.268 398.148 39.157 401.08C26.9095 402.971 15.4776 408.386 6.25696 416.666C15.5561 417.125 24.7473 418.865 33.57 421.839C47.795 426.724 59.375 417.096 61.897 411.615" fill="#06628D"/>
<path d="M69.49 375.407C63.8299 367.733 55.4288 362.538 46.035 360.901C29.964 357.918 20.908 360.729 20.908 360.729C25.5194 367.088 29.5728 373.834 33.023 380.891C38.369 392.015 68.609 393.307 69.49 375.407Z" fill="#06628D"/>
<path d="M128.675 391.015L127.975 390.328C97.4249 421.42 96.6979 449.351 97.8559 460.128C94.1216 453.772 91.1118 447.016 88.8829 439.989C81.7139 417.971 79.7769 407.047 78.2199 398.267C77.4639 393.234 76.3758 388.257 74.9629 383.367C73.9869 380.108 71.8709 375.767 70.7509 372.534C67.2599 362.469 61.4509 357.322 64.9359 347.996L63.9809 348.788C60.9809 355.273 65.2059 363.046 68.8809 373.649C69.2879 374.82 69.6949 376.013 70.0999 377.203C68.0399 377.421 51.8819 378.876 44.4759 371.974L43.8069 372.691C51.9889 380.314 69.5559 378.26 70.4259 378.152C71.0139 379.899 71.5849 381.646 72.0989 383.362C73.5567 388.416 74.6979 393.556 75.5159 398.752C76.4799 404.19 77.5949 410.452 79.9779 419.607C52.1669 399.839 21.2529 409.907 20.9319 410.007L21.2459 410.935C21.5579 410.835 52.7239 400.701 80.3779 421.122C81.8309 426.573 83.7169 433 86.2699 440.842C89.1487 450.122 93.4204 458.91 98.9389 466.906C93.8819 467.294 79.0839 466.969 64.3669 452.642C45.9179 434.682 16.3169 445.401 16.0259 445.516L16.3659 446.433C16.6589 446.327 45.6749 435.814 63.6829 453.343C79.2389 468.488 94.9829 468.281 99.6079 467.829C108.969 480.587 117.959 484.004 118.518 484.205L119.45 481.626C119.309 481.574 109 477.652 99.1049 462.161C97.7509 453.731 95.9999 424.271 128.675 391.015Z" fill="#273137"/>
<path d="M435.638 469.021C357.885 469.008 284.268 471.105 214.789 475.311C145.347 479.711 102.549 484.833 86.396 490.677C72.0573 496.855 87.2326 502.108 131.922 506.437C176.741 510.538 240.13 512.615 322.088 512.669C409.881 512.617 487.168 510.668 553.949 506.823C621.101 502.775 663.095 497.731 679.932 491.692C694.916 485.54 679.142 480.151 632.61 475.526C585.419 471.298 520.221 469.131 437.018 469.026" fill="#90C0D4"/>
<path d="M417.331 184.93C418.252 184.92 419.169 185.066 420.042 185.36C421.232 185.909 422.385 186.535 423.494 187.234C423.871 187.41 424.278 187.512 424.694 187.534C425.31 187.549 425.922 187.439 426.494 187.211L430.242 185.458C430.565 185.398 430.895 185.386 431.222 185.421C432.708 187.605 433.936 189.954 434.881 192.421C435.408 194.214 435.62 196.085 435.507 197.95L430.96 199.917C430.043 202.638 428.96 204.396 427.712 205.188C426.67 205.98 422.56 207.805 415.383 210.663C413.2 208.803 411.577 206.373 410.697 203.643C409.691 200.335 408.897 196.966 408.321 193.557C408.03 191.666 407.923 189.75 408.001 187.838C408.105 186.511 408.591 185.711 409.46 185.438C409.858 185.313 410.27 185.24 410.687 185.222L417.261 184.933" fill="#F7A99F"/>
<path d="M409.721 184.626C409.945 184.635 410.164 184.694 410.362 184.799C411.29 185.428 412.289 185.946 413.339 186.341C413.756 186.488 415.308 186.846 417.996 187.417C418.405 187.52 418.807 187.654 419.196 187.817C419.837 188.076 420.137 188.474 420.096 189.011C419.868 189.927 419.035 190.654 417.596 191.193C417.084 191.345 416.553 191.429 416.019 191.441C413.911 191.344 412.714 191.315 412.428 191.352C411.77 191.432 411.146 191.685 410.619 192.087C409.646 192.843 408.528 195.081 407.267 198.801L422.167 205.335L414.675 209.352L404.5 211.383C402.293 209.586 400.213 207.637 398.277 205.551C397.387 204.572 396.724 203.407 396.336 202.142L390.705 199.917L391.063 197.734C391.347 196.132 391.789 194.563 392.382 193.048C393.215 191.182 394.157 189.366 395.204 187.611L399.972 189.262C400.555 189.457 401.177 189.508 401.784 189.411C402.871 189.14 403.904 188.684 404.838 188.065C406.163 187.162 407.42 186.163 408.599 185.076C408.898 184.838 409.255 184.682 409.634 184.625" fill="#814C46"/>
<path d="M408.72 195.899C409.061 195.898 409.394 196.001 409.676 196.192C409.886 196.34 410.058 196.536 410.176 196.764C410.295 196.992 410.357 197.245 410.357 197.501C410.357 197.809 410.271 198.111 410.109 198.373C409.948 198.635 409.716 198.847 409.44 198.984L395.078 205.084C395.151 204.729 395.308 204.396 395.536 204.114C395.764 203.832 396.056 203.608 396.388 203.462L397.988 202.762H398C397.915 202.591 397.832 202.419 397.753 202.248H397.746C397.688 202.254 397.632 202.259 397.576 202.26C397.21 202.276 396.847 202.195 396.522 202.027C396.198 201.858 395.923 201.607 395.725 201.299H395.717L408.217 195.986C408.379 195.931 408.549 195.902 408.72 195.899V195.899Z" fill="#693531"/>
<path d="M410.677 200.79C411.007 200.79 411.331 200.885 411.609 201.062C411.826 201.207 412.004 201.403 412.129 201.633C412.253 201.862 412.319 202.119 412.322 202.38C412.325 202.687 412.242 202.989 412.083 203.251C411.924 203.514 411.695 203.727 411.422 203.867L398.852 209.658C398.837 209.313 398.905 208.968 399.051 208.655C399.198 208.342 399.417 208.068 399.692 207.858C399.821 207.76 399.96 207.677 400.107 207.61L400.895 207.257H400.903C400.728 207.033 400.555 206.804 400.382 206.571H400.374L398.127 207.554C397.869 207.666 397.592 207.728 397.311 207.737C396.863 207.743 396.422 207.622 396.04 207.388H396.032L410.102 200.906C410.285 200.833 410.48 200.794 410.677 200.79V200.79Z" fill="#693531"/>
<path d="M414.971 204.417C415.32 204.409 415.661 204.515 415.944 204.719C416.227 204.923 416.436 205.214 416.538 205.547C416.64 205.885 416.631 206.246 416.513 206.578C416.395 206.911 416.173 207.196 415.88 207.392C415.798 207.448 415.711 207.495 415.621 207.534L403.573 212.977C403.523 212.614 403.567 212.243 403.699 211.901C403.831 211.558 404.048 211.255 404.329 211.018C404.379 210.975 404.431 210.935 404.485 210.897H404.493C404.326 210.767 404.16 210.632 403.993 210.497H403.985L401.785 211.483C401.526 211.598 401.248 211.659 400.965 211.664C400.483 211.661 400.015 211.502 399.631 211.21H399.623L414.318 204.572C414.521 204.479 414.741 204.428 414.964 204.421L414.971 204.417Z" fill="#693531"/>
<path d="M427.408 191.239C428.585 193.89 429.545 196.633 430.279 199.439C430.424 200.074 430.453 200.731 430.365 201.376C430.365 201.408 430.355 201.441 430.349 201.476C430.363 201.441 430.38 201.407 430.402 201.376H430.41C430.599 200.924 430.781 200.437 430.958 199.913L432.796 199.118H432.804C432.537 198.875 432.287 198.615 432.054 198.339C430.3 196.115 428.749 193.739 427.417 191.239H427.408Z" fill="#F67F71"/>
<path d="M411.719 191.824C411.425 191.825 411.134 191.885 410.864 192.001L396.7 198.123C396.545 198.189 396.398 198.272 396.262 198.371C395.893 198.639 395.617 199.017 395.474 199.45C395.33 199.883 395.326 200.35 395.462 200.785C395.599 201.216 395.869 201.592 396.235 201.858C396.6 202.124 397.04 202.266 397.492 202.264C398.554 202.258 399.616 202.193 400.671 202.07L412.902 197.554C413.056 197.484 412.828 195.803 412.946 195.716C413.311 195.45 413.584 195.076 413.728 194.647C413.871 194.218 413.877 193.755 413.746 193.322C413.615 192.892 413.35 192.515 412.991 192.246C412.631 191.976 412.195 191.828 411.746 191.822" fill="#F7A99F"/>
<path d="M423.933 199.253C424.263 198.967 424.664 198.776 425.094 198.7C425.524 198.623 425.967 198.664 426.375 198.818C426.611 198.909 426.832 199.038 427.027 199.199L429.515 201.412C429.738 201.646 429.91 201.923 430.021 202.227C430.133 202.53 430.181 202.853 430.163 203.175C430.142 203.557 430.032 203.928 429.841 204.259C429.65 204.591 429.384 204.872 429.064 205.081C428.744 205.29 428.379 205.421 427.999 205.462C427.619 205.504 427.235 205.456 426.877 205.321C426.641 205.23 426.421 205.102 426.225 204.941L423.747 202.741C423.522 202.507 423.347 202.228 423.234 201.923C423.121 201.618 423.072 201.293 423.091 200.968C423.109 200.643 423.192 200.326 423.335 200.034C423.479 199.742 423.679 199.481 423.925 199.268" fill="#814C46"/>
<path d="M415.877 203.255L418.739 202.631C419.345 204.309 419.714 205.389 419.845 205.872L418.145 206.129L416.611 204.739L415.878 203.255" fill="#F7A99F"/>
<path d="M409.126 194.881L411.471 194.839L415.952 200.592L415.62 202.239L415.276 205.439C413.852 204.38 412.642 203.059 411.713 201.547C410.614 199.427 409.747 197.195 409.128 194.889" fill="#F7A99F"/>
<path d="M416.645 200.377C417.086 200.381 417.515 200.526 417.869 200.79C418.223 201.054 418.484 201.423 418.614 201.845C418.744 202.273 418.736 202.731 418.593 203.154C418.45 203.577 418.177 203.945 417.814 204.206C417.7 204.289 417.97 205.781 417.826 205.846L406.326 210.722C406.021 210.849 401.182 211.667 400.904 211.66C400.462 211.656 400.033 211.512 399.679 211.249C399.324 210.985 399.063 210.616 398.932 210.194C398.802 209.766 398.809 209.308 398.953 208.885C399.096 208.461 399.369 208.093 399.732 207.832C399.853 207.745 399.982 207.67 400.118 207.609L415.165 200.056C415.452 199.925 416.32 200.375 416.637 200.376" fill="#F7A99F"/>
<path d="M419.39 204.247C419.782 204.251 420.164 204.378 420.479 204.612C420.795 204.845 421.028 205.173 421.146 205.547C421.263 205.928 421.259 206.335 421.134 206.713C421.008 207.091 420.768 207.421 420.446 207.655C420.345 207.729 420.237 207.793 420.123 207.845L406.023 214.438C405.777 214.55 405.511 214.609 405.241 214.61C404.842 214.613 404.452 214.488 404.13 214.253C403.808 214.018 403.57 213.685 403.451 213.304C403.334 212.923 403.34 212.515 403.467 212.137C403.593 211.759 403.834 211.43 404.157 211.196C404.258 211.123 404.366 211.059 404.48 211.006L418.58 204.413C418.825 204.301 419.092 204.243 419.362 204.242" fill="#F7A99F"/>
<path d="M413.883 196.001C414.357 195.992 414.821 196.135 415.207 196.41C415.593 196.686 415.879 197.078 416.024 197.529C416.168 197.987 416.162 198.479 416.008 198.934C415.854 199.388 415.558 199.781 415.165 200.056C415.033 200.147 415.815 201.818 415.694 201.871L402.317 207.285C402.091 207.385 397.625 207.724 397.339 207.741C396.857 207.765 396.38 207.63 395.983 207.356C395.585 207.082 395.289 206.685 395.139 206.226C394.993 205.77 394.996 205.279 395.147 204.824C395.299 204.37 395.591 203.975 395.982 203.697C396.11 203.606 396.248 203.528 396.392 203.464L413.036 196.185C413.291 196.075 413.565 196.013 413.843 196.002" fill="#F7A99F"/>
<path d="M412.2 208.017C412.465 207.826 412.781 207.72 413.108 207.711C413.434 207.703 413.755 207.793 414.03 207.969C414.14 208.04 414.241 208.125 414.33 208.221L416.911 211.077C417.049 211.25 417.15 211.451 417.207 211.665C417.264 211.879 417.276 212.103 417.243 212.323C417.21 212.544 417.133 212.756 417.016 212.946C416.899 213.136 416.744 213.301 416.562 213.43C416.296 213.619 415.979 213.724 415.653 213.732C415.327 213.74 415.005 213.649 414.731 213.473C414.621 213.401 414.52 213.316 414.431 213.22L411.858 210.373C411.719 210.2 411.617 210.001 411.558 209.787C411.5 209.573 411.486 209.349 411.518 209.13C411.55 208.908 411.626 208.696 411.743 208.505C411.859 208.314 412.013 208.149 412.195 208.02" fill="#814C46"/>
<path d="M414.872 204.831C415.102 204.608 415.375 204.433 415.674 204.315C415.972 204.198 416.291 204.142 416.612 204.149C416.928 204.155 417.241 204.225 417.53 204.354C417.819 204.484 418.079 204.67 418.294 204.902L421.415 208.372C421.567 208.549 421.691 208.749 421.784 208.963C421.942 209.337 422.005 209.744 421.965 210.148C421.926 210.551 421.787 210.939 421.56 211.275C421.332 211.611 421.025 211.885 420.665 212.072C420.305 212.259 419.904 212.353 419.498 212.345C419.181 212.339 418.869 212.27 418.58 212.141C418.29 212.012 418.03 211.826 417.814 211.594L414.694 208.124C414.542 207.947 414.417 207.748 414.323 207.534C414.128 207.082 414.076 206.581 414.173 206.099C414.27 205.617 414.512 205.175 414.867 204.834" fill="#814C46"/>
<path d="M419.647 202.398C420.107 201.952 420.725 201.707 421.366 201.716C421.679 201.719 421.989 201.785 422.276 201.909C422.564 202.034 422.824 202.214 423.041 202.44L426.041 205.556C426.206 205.74 426.341 205.949 426.441 206.176C426.602 206.548 426.668 206.955 426.632 207.359C426.597 207.763 426.46 208.152 426.236 208.49C426.011 208.828 425.706 209.104 425.348 209.294C424.989 209.484 424.589 209.581 424.183 209.576C423.867 209.573 423.555 209.506 423.265 209.38C422.975 209.254 422.714 209.071 422.496 208.842L419.51 205.742C419.343 205.558 419.206 205.349 419.105 205.122C418.904 204.669 418.848 204.164 418.944 203.678C419.04 203.192 419.283 202.746 419.641 202.403" fill="#814C46"/>
<path d="M294.935 437.515L293.635 461.284L294.374 469.698L313.2 467.539L312.749 442.492L294.968 437.524" fill="#814C46"/>
<path d="M248.389 441.763L246.706 474.198L266.431 477.011L268.482 448.357L268.475 448.302L248.4 441.766" fill="#814C46"/>
<path d="M254.667 211.607C253.339 229.906 252.446 243.908 251.989 253.613C251.882 255.892 251.799 257.934 251.739 259.738C251.539 265.015 251.442 270.015 251.447 274.738C251.752 294.444 251.868 305.288 251.796 307.271C251.773 312.861 251.664 318.797 251.467 325.078C251.467 330.945 249.788 364.208 246.431 424.868C245.922 435.819 245.664 445.888 245.656 455.076C246.372 455.961 249.426 457.05 254.819 458.343C255.752 458.585 256.711 458.706 257.675 458.701C261.669 458.701 266.423 456.799 271.936 452.994C273.694 438.973 275.778 420.94 278.187 398.894C279.992 382.382 281.98 363.618 284.152 342.604V342.997C283.673 356.331 283.573 366.756 283.852 374.273C283.992 378.747 284.23 383.108 284.566 387.358C285.189 393.97 285.713 399.645 286.139 404.381C287.133 415.41 287.596 421.354 287.527 422.214C287.869 426.205 287.706 433.716 287.038 444.746C287.038 445.089 287.038 445.42 287.044 445.746C287.059 446.868 287.21 447.985 287.493 449.07C288.252 451.7 290.566 453.015 294.434 453.015H294.629C298.606 452.26 302.535 451.27 306.396 450.052H306.403C309.834 447.607 312.914 444.704 315.558 441.423C315.583 441.141 315.609 440.814 315.635 440.442H315.642L315.635 440.436C315.845 437.446 316.102 431.56 316.406 422.777C316.636 406.726 316.836 396.004 317.006 390.611C316.974 389.652 317.913 360.424 319.822 302.928C320.114 292.975 320.257 284.901 320.252 278.706C320.324 267.91 319.831 257.117 318.776 246.372C318.069 238.781 317.112 230.738 315.903 222.244L254.772 211.629L254.667 211.607Z" fill="#052440"/>
<path d="M244.067 285.839C243.548 287.82 242.56 288.065 241.09 286.56C240.087 285.478 239.233 284.267 238.549 282.96C238.254 282.407 237.971 281.816 237.702 281.198L236.038 277.224C235.816 276.824 235.626 276.812 235.458 277.159C234.982 279.287 234.965 281.493 235.408 283.629C235.602 284.62 235.868 285.596 236.203 286.549L238.289 291.99C238.539 292.732 238.678 293.507 238.7 294.29C238.72 294.865 238.563 295.433 238.249 295.916C237.935 296.399 237.48 296.774 236.946 296.99C236.532 297.214 236.097 297.395 235.646 297.53C235.708 297.608 235.758 297.672 235.807 297.736H235.82C236.093 298.084 236.341 298.405 236.552 298.714C236.663 298.868 236.762 299.022 236.861 299.151C237.047 299.401 237.216 299.664 237.369 299.936L237.569 300.27C237.656 300.437 237.729 300.592 237.803 300.759C237.813 300.789 237.825 300.82 237.839 300.849C237.839 300.862 237.852 300.862 237.949 301.149C237.986 301.239 238.01 301.329 238.034 301.406C238.197 301.852 238.186 302.343 238.003 302.782C237.791 303.345 237.41 303.83 236.913 304.17C236.416 304.51 235.826 304.688 235.224 304.682C234.149 304.566 233.156 304.052 232.44 303.241C230.68 301.521 229.05 299.672 227.564 297.711C225.597 294.911 224.201 291.751 223.458 288.411C222.353 283.881 221.809 279.233 221.839 274.571C222.006 269.366 222.646 264.187 223.751 259.098H223.79L237.99 259.316C239.602 262.506 240.915 265.839 241.91 269.272C242.173 270.337 242.357 271.42 242.46 272.513C242.542 272.963 242.634 274.613 242.747 277.452C242.766 277.915 242.823 278.378 242.88 278.829C242.937 279.28 243.032 279.716 243.14 280.14C243.556 281.4 243.876 282.69 244.099 283.999C244.184 284.61 244.173 285.231 244.067 285.839Z" fill="#814C46"/>
<path d="M268.877 102.594L268.499 112.894C270.009 114.868 271.794 116.616 273.799 118.085C275.232 119.079 276.936 119.611 278.681 119.607C281.575 119.52 284.408 118.751 286.949 117.361C287.913 116.861 288.811 116.241 289.62 115.516C289.894 115.268 290.185 114.974 290.494 114.634L292.638 112.177C292.915 111.74 293.083 111.243 293.128 110.728C293.172 110.212 293.093 109.694 292.895 109.216C292.12 106.999 291.138 104.86 289.963 102.828L268.897 102.593" fill="white"/>
<path d="M292.173 106.257C290.66 111.841 287.201 114.981 281.796 115.678C277.713 116.63 272.218 114.761 265.311 110.072L285.222 239.393C287.757 239.217 290.264 238.748 292.691 237.993C292.869 238.165 294.952 236.882 298.941 234.145L305.751 231.716L308.451 163.566L305.606 147.9L304.2 131.209L292.188 106.294" fill="#F16834"/>
<path d="M395.619 186.661L392.9 202.328L382.664 201.916C380.64 203.074 377.987 203.464 374.704 203.087C370.265 202.623 363.732 201.178 355.104 198.752C347.652 196.885 342.485 194.377 339.604 191.228C331.466 183.049 324.21 174.039 317.954 164.345C316.705 201.839 317.976 228.839 321.765 245.345C314.847 247.929 308.855 248.663 303.79 247.545L303.982 237.937L301.964 237.77L299.9 173.876C299.686 167.226 299.738 158.629 300.057 148.087C300.069 146.09 299.978 144.093 299.784 142.106C299.53 139.486 298.984 136.904 298.157 134.406L292.857 120.806C292.413 118.779 292.292 116.696 292.498 114.632L292.083 112.651C291.092 109.871 289.847 107.189 288.364 104.638L298.313 106.67C306.555 111.724 312.978 116.822 317.581 121.964L325.081 130.749L343.853 154.801C347.025 158.655 350.498 162.25 354.24 165.554C357.446 168.32 360.982 170.678 364.767 172.577L382.875 180.177C384.77 181.155 386.303 182.714 387.248 184.627L395.619 186.661Z" fill="#00315C"/>
<path d="M293.052 247.501C284.444 250.883 277.484 252.885 272.172 253.507C266.731 254.267 258.687 254.203 248.041 253.315C247.802 250.986 247.689 248.646 247.705 246.304C247.837 243.557 248.14 240.821 248.611 238.111C248.846 229.133 248.991 221.523 249.044 215.28C249.153 204.438 249.09 188.789 248.855 168.333C247.219 175.498 246.104 182.771 245.519 190.096L245.131 199.189C244.946 217.687 244.708 230.725 244.416 238.304C244.188 244.928 243.791 249.083 243.216 250.793C242.875 252.011 242.205 253.11 241.279 253.971C241.23 255.393 240.902 256.791 240.315 258.086C239.721 259.289 239.018 260.434 238.215 261.508C228.44 265.302 222.8 266.138 221.297 264.016C220.473 263.309 220.006 261.366 219.886 258.164C218.614 256.229 217.485 254.204 216.507 252.105C216.079 251.076 215.887 249.964 215.944 248.851C216.268 205.969 217.311 176.938 219.073 161.76C220.696 145.294 224.094 133.636 229.267 126.787C233.758 120.587 242.661 113.727 255.976 106.207L267.95 103.197C268.648 105.873 269.503 108.506 270.509 111.082C274.148 118.465 275.903 122.234 275.775 122.349C276.46 124.188 276.972 126.088 277.303 128.022C277.585 129.578 277.813 131.405 278.003 133.488C278.345 141.822 279.697 157.707 282.06 181.143C283.358 194.495 284.647 205.986 285.928 215.615C287.373 226.482 288.539 233.813 289.428 237.609L290.135 240.452L293.052 247.501Z" fill="#00315C"/>
<path d="M298.079 68.7559C297.468 68.7735 296.866 68.9128 296.31 69.1655C295.753 69.4183 295.252 69.7794 294.837 70.2279C294.412 70.6007 294.08 71.0682 293.869 71.5925C293.658 72.1169 293.572 72.6836 293.62 73.2469C293.666 73.606 293.814 73.9444 294.045 74.2227C294.277 74.5011 294.582 74.7079 294.927 74.8189C295.298 74.9462 295.682 75.0278 296.073 75.0619C297.083 75.1875 298.098 75.2616 299.116 75.2839C299.576 75.334 300.042 75.2889 300.485 75.1513C300.927 75.0136 301.336 74.7865 301.687 74.4839C302.01 74.1525 302.252 73.7506 302.393 73.3098C302.535 72.8691 302.572 72.4016 302.503 71.9439C302.418 71.4974 302.245 71.0725 301.992 70.6945C301.74 70.3165 301.414 69.9932 301.034 69.7439C300.175 69.1212 299.147 68.7755 298.086 68.7529" fill="#FEFDFD"/>
<path d="M237.943 253.303C235.148 253.305 232.36 253.585 229.62 254.138C227.131 254.58 223.597 255.466 219.02 256.798H219.026C219.289 257.23 219.57 257.684 219.868 258.16C219.949 260.726 220.292 262.503 220.899 263.491C221.241 264.033 221.723 264.474 222.294 264.766C222.865 265.058 223.505 265.19 224.145 265.15H224.217C224.292 265.15 224.368 265.15 224.445 265.15C227.462 265.15 232.049 263.934 238.206 261.502C240.269 258.828 241.293 256.317 241.28 253.971C241.442 253.802 241.592 253.637 241.732 253.471H241.738C240.475 253.359 239.21 253.303 237.943 253.303Z" fill="#FFBE02"/>
<path d="M288.768 234.517C278.731 237.795 271.373 239.628 266.693 240.017C265.272 240.179 263.842 240.258 262.412 240.254C257.745 240.176 253.097 239.627 248.541 238.613H248.534C248.095 241.161 247.819 243.734 247.71 246.318C247.691 248.655 247.801 250.992 248.041 253.318C253.841 253.798 258.845 254.038 263.052 254.038C266.05 254.072 269.047 253.9 272.021 253.524C277.288 252.942 283.152 251.38 291.903 247.95L290.128 240.45L289.418 237.602C289.218 236.751 289.004 235.724 288.775 234.52L288.768 234.517Z" fill="#FFBE02"/>
<path d="M320.226 237.284L301.96 237.764L302.71 247.343L303.947 247.561C305.501 247.89 307.085 248.053 308.673 248.046C309.81 248.044 310.945 247.972 312.073 247.833H312.08L312.18 247.82C315.455 247.369 318.667 246.539 321.751 245.347L321.714 245.186C321.166 242.774 320.672 240.141 320.231 237.286L320.226 237.284Z" fill="#FFBE02"/>
<path d="M386.923 184.599C385.668 189.631 384.725 193.828 384.092 197.189C383.814 198.597 383.528 200.178 383.234 201.932H383.242L392.769 202.924L395.679 186.357L386.931 184.599H386.923Z" fill="#FFBE02"/>
<path d="M238.036 301.407C238.086 301.603 238.113 301.805 238.116 302.007C237.018 300.678 236.003 299.282 235.078 297.827C234.073 296.268 233.336 294.551 232.899 292.747C232.49 291.203 230.014 281.891 235.458 277.157C234.982 279.286 234.965 281.491 235.408 283.627C235.602 284.619 235.868 285.594 236.203 286.547L238.289 291.988C238.539 292.73 238.678 293.505 238.7 294.288C238.72 294.864 238.563 295.432 238.249 295.915C237.935 296.398 237.48 296.773 236.946 296.988C236.532 297.213 236.097 297.393 235.646 297.528C235.7 297.6 235.758 297.669 235.82 297.734H235.807C236.08 298.082 236.328 298.416 236.552 298.712C236.663 298.866 236.762 299.02 236.861 299.149C237.061 299.432 237.221 299.689 237.369 299.934L237.569 300.268C237.656 300.435 237.729 300.59 237.803 300.757C237.813 300.788 237.825 300.818 237.839 300.847C237.839 300.86 237.852 300.86 237.949 301.147C237.988 301.239 238.012 301.33 238.036 301.407Z" fill="#693531"/>
<path d="M291.778 256.755C288.662 277.21 286.395 293.41 284.978 305.355C283.378 318.555 282.104 331.722 281.157 344.855C280.202 357.406 279.213 375.416 278.191 398.887C279.996 382.374 281.984 363.611 284.156 342.597V342.99C283.677 356.323 283.577 366.749 283.856 374.266C283.996 378.739 284.234 383.101 284.57 387.351C285.193 393.964 285.717 399.638 286.144 404.374C287.624 383.416 288.691 364.697 289.344 348.217C290.133 329.759 290.95 299.269 291.797 256.748L291.778 256.755Z" fill="#00162B"/>
<path d="M314.266 440.438C313.975 440.439 313.685 440.473 313.402 440.538C305.363 442.478 299.959 443.72 297.189 444.262C294.432 444.847 291.635 445.217 288.821 445.369C288.393 445.436 287.979 445.573 287.596 445.774C286.798 446.197 286.162 446.87 285.784 447.69C285.406 448.51 285.309 449.432 285.506 450.312C285.694 451.18 286.171 451.957 286.858 452.518C287.546 453.078 288.404 453.388 289.291 453.397C292.4 453.248 295.491 452.847 298.535 452.197C300.964 451.714 304.536 450.914 309.251 449.797L315.136 448.391C315.424 448.317 315.703 448.211 315.967 448.074C316.763 447.657 317.401 446.99 317.783 446.176C318.165 445.362 318.27 444.445 318.082 443.565C317.902 442.694 317.431 441.911 316.747 441.343C316.062 440.775 315.205 440.457 314.316 440.441" fill="#3D6080"/>
<path d="M270.946 449.052C270.677 449.052 270.409 449.08 270.146 449.135C268.233 449.63 266.826 449.953 265.927 450.103C264.918 450.284 263.9 450.412 262.877 450.486C261.072 450.598 259.263 450.612 257.457 450.526C256.484 450.49 255.363 450.433 254.094 450.355L248 449.939C247.079 449.962 246.195 450.306 245.5 450.911C245.001 451.344 244.613 451.89 244.369 452.504C244.126 453.118 244.033 453.782 244.1 454.439C244.161 455.087 244.38 455.71 244.738 456.253C245.097 456.796 245.583 457.243 246.154 457.555C246.618 457.804 247.129 457.956 247.654 458.001C253.293 458.449 257.36 458.667 259.854 458.657C262.393 458.687 264.929 458.474 267.427 458.019C268.667 457.793 270.193 457.438 272.005 456.954C272.534 456.79 273.024 456.518 273.442 456.154C274.063 455.614 274.507 454.901 274.719 454.106C274.931 453.311 274.9 452.471 274.631 451.694C274.368 450.929 273.875 450.265 273.218 449.793C272.562 449.32 271.775 449.063 270.967 449.057" fill="#3D6080"/>
<path d="M293.873 457.589C289.932 458.027 287.591 459.731 286.85 462.702C285.886 465.558 285.738 471.925 286.407 481.802L342.726 480.967C342.94 477.163 342.14 474.134 340.326 471.879C338.36 469.375 334.893 466.817 329.926 464.205C325.864 461.998 321.461 460.485 316.9 459.729C315.952 459.572 314.549 459.397 312.691 459.206C312.418 461.989 310.647 463.767 307.379 464.538C303.343 465.556 300.248 465.764 298.094 465.163C296.928 464.986 295.442 463.693 293.637 461.284L293.879 457.598" fill="#EDECEA"/>
<path d="M293.873 457.589C289.932 458.027 287.591 459.731 286.85 462.702C285.886 465.558 285.738 471.925 286.407 481.802L342.726 480.967C342.794 479.854 342.76 478.737 342.626 477.63H342.619L295.869 478.03C292.789 472.942 291.264 469.347 291.293 467.245C290.989 465.691 291.813 463.763 293.764 461.462H293.771L293.635 461.282L293.877 457.596L293.873 457.589Z" fill="black" fill-opacity="0.243"/>
<path d="M293.553 486.887C293.287 487.926 292.943 488.942 292.523 489.929L237.484 487.882C237.501 487.018 237.527 486.193 237.551 485.395V485.278C237.818 477.626 238.518 472.572 239.651 470.117C240.674 467.295 243.251 465.479 247.351 464.668L247.362 464.695C246.901 467.201 247.157 468.941 248.106 469.91C249.138 471.081 251.106 471.876 254.031 472.285C256.36 472.647 258.743 472.431 260.969 471.656C261.971 471.271 262.923 470.767 263.806 470.156L265.128 469.156L267.428 467.214C268.801 468.168 270.242 469.021 271.739 469.766L274.444 471.061C279.678 473.366 282.799 474.774 283.808 475.283C285.655 476.158 287.447 477.147 289.171 478.244C292.178 480.107 293.721 482.185 293.826 484.468C293.865 485.284 293.773 486.1 293.553 486.887V486.887Z" fill="#EDECEA"/>
<path d="M293.553 486.887C293.287 487.925 292.943 488.942 292.523 489.929L237.484 487.882C237.501 487.018 237.527 486.193 237.551 485.395V485.278L237.586 484.764C245.044 484.953 251.452 486.618 256.97 486.686C260.728 486.738 265.657 486.782 271.756 486.82C277.847 486.845 285.112 486.867 293.553 486.887Z" fill="black" fill-opacity="0.247"/>
<path d="M308.205 110.22C306.891 111.064 305.853 112.274 305.219 113.701C304.512 115.257 304.431 116.386 304.974 117.089C305.118 117.255 305.298 117.387 305.501 117.473C305.703 117.56 305.923 117.599 306.143 117.589C306.963 117.523 307.775 117.377 308.567 117.153C308.983 117.1 309.405 117.107 309.819 117.176C310.626 117.331 311.374 117.707 311.979 118.263C312.949 119.155 313.813 120.155 314.555 121.244L315.983 123.327C319.196 128.377 321.205 131.454 322.009 132.559C323.243 134.381 324.601 136.117 326.074 137.753C327.046 138.911 328.241 139.861 329.589 140.547C330.936 141.233 332.408 141.639 333.917 141.743L336.35 127.319C333.198 125.63 330.156 123.746 327.241 121.676L324.179 119.276L317.247 113.368C316.246 112.542 315.192 111.78 314.094 111.089C311.666 109.591 309.719 109.293 308.252 110.196" fill="#F7A99F"/>
<path d="M444.4 194.73C444.345 194.616 444.25 194.526 444.133 194.478C444.016 194.43 443.886 194.428 443.767 194.471L430.295 199.671C430.229 199.697 430.169 199.736 430.119 199.785C430.068 199.835 430.029 199.894 430.002 199.96C429.975 200.025 429.962 200.095 429.964 200.166C429.965 200.237 429.981 200.307 430.01 200.371C430.063 200.485 430.156 200.575 430.271 200.624C430.387 200.674 430.516 200.679 430.635 200.638L444.109 195.438C444.176 195.413 444.237 195.375 444.288 195.326C444.34 195.277 444.38 195.217 444.408 195.152C444.436 195.086 444.449 195.016 444.449 194.945C444.448 194.873 444.433 194.803 444.404 194.738" fill="#F7A99F"/>
<path d="M439.553 180.517C439.466 180.516 439.379 180.538 439.303 180.581L426.111 187.681C426.017 187.74 425.945 187.828 425.905 187.931C425.865 188.035 425.858 188.148 425.887 188.256C425.915 188.36 425.976 188.452 426.06 188.519C426.145 188.586 426.248 188.624 426.356 188.629C426.452 188.632 426.548 188.609 426.632 188.563L439.805 181.476C439.901 181.419 439.976 181.333 440.02 181.23C440.063 181.127 440.073 181.013 440.047 180.905C440.02 180.797 439.959 180.701 439.873 180.631C439.787 180.561 439.68 180.522 439.569 180.519" fill="#F7A99F"/>
<path d="M437.244 182.464L428.189 187.184C428.164 187.188 428.158 187.2 428.171 187.22L433.219 198.499L440.786 196.28L437.251 182.493" fill="#F7A99F"/>
<path d="M533.751 455.069L512.418 458.099L513.728 456.606C511.594 458.189 509.311 459.559 506.912 460.699C505.88 461.195 504.76 461.692 503.553 462.191C497.962 464.391 494.721 465.701 493.829 466.121C492.06 466.878 490.333 467.728 488.654 468.666C485.274 470.533 483.084 472.651 482.084 475.02C481.022 477.164 480.732 480.506 481.214 485.045C499.414 484.916 511.592 484.644 517.747 484.228C524.261 483.846 528.484 483.096 530.415 481.977C531.723 481.318 532.51 479.974 532.777 477.944L533.758 455.113" fill="#162026"/>
<path d="M452.973 454.869C450.797 456.489 448.463 457.886 446.007 459.039C445.052 459.495 443.952 459.981 442.707 460.498L433.992 463.998C432.343 464.699 430.913 465.358 429.702 465.973C427.735 466.914 425.892 468.093 424.214 469.484C420.846 472.174 419.596 476.77 420.464 483.273C442.964 483.039 457.257 482.616 463.342 482.004C468.727 481.587 471.91 480.345 472.892 478.278C474.592 476.085 475.203 468.885 474.724 456.678L451.64 456.368L452.959 454.902" fill="#162026"/>
<path d="M444.372 196.604C444.705 246.871 445.796 333.333 447.644 455.99C447.883 456.78 450.768 458.071 456.298 459.863C460.831 461.155 467.698 460.481 476.898 457.839C476.777 412.809 479.114 381.77 479.998 363.508C480.833 342.508 481.133 316.616 484.812 287.05L506.912 460.699C510.142 461.69 513.504 462.182 516.882 462.16C521.731 462.035 526.455 460.602 530.557 458.013C531.636 457.407 532.517 456.503 533.095 455.409C533.672 454.315 533.921 453.077 533.812 451.844C527.497 351.523 522.114 273.514 517.663 217.817L444.584 196.664" fill="#324047"/>
<path d="M522.681 127.319L521.34 131.139L491.1 169.405L442.82 184.424C442.953 204.694 443.137 219.93 443.37 230.132C450.575 235.532 455.396 238.666 457.832 239.532C458.704 239.944 459.653 240.166 460.617 240.184C461.56 240.147 462.483 239.896 463.315 239.449C464.147 239.002 464.866 238.371 465.417 237.604C465.751 238.714 466.442 239.683 467.381 240.362C468.321 241.041 469.458 241.391 470.617 241.359C470.817 241.359 494.467 242.359 507.822 237.082C509.196 236.582 514.076 233.909 518.033 231.696C519.629 230.805 520.913 229.446 521.715 227.803C522.516 226.16 522.795 224.311 522.515 222.504C519.982 206.389 518.724 193.069 518.743 182.544C518.535 171.011 519.851 152.608 522.692 127.334L522.681 127.319Z" fill="#03658C"/>
<path d="M467.66 199.597L465.046 200.57C465.172 217.061 464.939 228.153 464.346 233.845C464.17 235.755 463.939 237.577 463.653 239.311C464.319 238.848 464.895 238.268 465.353 237.599C465.614 238.343 466.015 239.031 466.534 239.626C466.232 237.8 466.059 235.955 466.014 234.105C465.887 230.532 465.973 225.608 466.271 219.333C466.793 209.473 467.254 202.908 467.653 199.639L467.66 199.597Z" fill="#00315C"/>
<path d="M486.545 75.2324L462.369 88.5894L460.431 121.969L463.378 166.487L492.853 140.029L504.104 110.729L504.996 93.1294L486.606 75.2974" fill="#F3F3F3"/>
<path d="M472.21 67.291C472.108 67.311 471.914 67.509 471.628 67.885C470.169 69.811 469.04 71.323 468.241 72.421C466.811 74.385 465.673 76.06 464.826 77.446C463.165 80.224 461.766 83.1502 460.646 86.187L461.957 100.503L469.94 85.416L475.64 85.185C474.398 83.8668 473.272 82.4438 472.274 80.932C471.641 79.9238 471.207 78.8036 470.995 77.632C470.839 76.7472 470.735 75.854 470.685 74.957C470.662 74.5058 470.678 74.0533 470.735 73.605" fill="#F3F3F3"/>
<path d="M468.534 88.1797L471.124 99.9798L468.035 123.739L465.143 148.339L467.663 172.261L481.022 149.55C479.375 136.861 478.224 127.569 477.57 121.674C476.941 116.102 476.267 109.205 475.547 100.985L478.547 89.8338L472.331 88.3047L468.543 88.1768" fill="#03658C"/>
<path d="M498.286 82.0029L497.231 84.5169C497.739 88.4196 497.661 92.3763 497 96.2559C496.344 99.7381 495.38 103.155 494.12 106.467C493.09 109.308 491.479 113.196 489.286 118.131L468.886 162.931C469.066 157.337 466.337 131.512 460.699 85.4569C457.49 85.8458 454.337 86.599 451.299 87.7019L437.979 94.7889C433.312 96.1396 417.965 102.471 391.938 113.783C388.075 115.336 384.775 116.534 382.038 117.378C378.436 118.495 374.751 119.327 371.018 119.867L332.456 125.049L331.437 141.968C341.623 142.995 350.293 143.545 357.448 143.616C358.09 143.629 358.737 143.635 359.388 143.635C369.03 143.526 378.635 142.42 388.049 140.335C396.962 138.547 414.381 133.741 440.304 125.917L442.352 178.308L435.212 182.691L438.612 202.316C465.185 199.735 483.005 195.28 492.071 188.949C501.504 183.126 511.026 170.146 520.638 150.007C530.027 131.288 533.146 117.258 529.996 107.915C525.03 92.1389 514.63 83.5229 498.796 82.0669L498.286 82.0029Z" fill="#03658C"/>
<path d="M491.654 70.4639L483.566 82.6389L477.746 88.5389L477.768 88.5739C479.161 90.0148 480.423 91.5773 481.538 93.2429C482.848 95.37 484.037 97.5699 485.098 99.8319C488.036 96.932 490.794 93.8545 493.356 90.6169C494.79 88.7715 496.718 85.9745 499.141 82.2259L491.658 70.4739" fill="#F3F3F3"/>
<path d="M497.924 83.8389C496.194 87.7023 494.162 91.4235 491.847 94.9679C489.802 97.7584 487.367 100.241 484.617 102.341C487.292 100.989 489.833 99.3843 492.204 97.5499C494.509 95.5331 496.581 93.2642 498.381 90.7859L500.838 84.3329L497.949 83.8429" fill="black" fill-opacity="0.145"/>
<path d="M478.411 89.7148L476.791 96.2719C477.295 95.3704 477.915 94.5395 478.637 93.8008C478.776 93.6232 478.978 93.5055 479.201 93.4719C479.424 93.4382 479.652 93.4912 479.837 93.6198C480.238 93.9471 480.571 94.3496 480.817 94.8048C483.017 98.4048 484.406 100.732 484.983 101.786C483.399 98.0198 482.232 95.4672 481.483 94.1279C480.621 92.5502 479.59 91.0705 478.409 89.7148" fill="black" fill-opacity="0.141"/>
<path d="M468.61 88.0674C467.551 89.1326 466.615 90.3129 465.819 91.5864C464.88 93.2482 464.061 94.9753 463.369 96.7544C464.735 94.5404 465.694 93.0784 466.247 92.3684C466.814 91.6036 467.488 90.9234 468.247 90.3484L470.377 96.3904L468.608 88.0674" fill="black" fill-opacity="0.141"/>
<path d="M520.3 150.881L505.32 178.872C503.999 181.55 502.213 183.971 500.044 186.023C497.949 188.045 493.642 189.987 487.123 191.85C481.163 193.65 469.827 196.301 453.114 199.804C471.257 198.156 483.524 196.538 489.914 194.949C496.663 193.453 501.924 190.986 505.695 187.549C507.832 185.855 512.225 180.763 518.874 172.272H518.883C519.114 166.242 519.589 159.112 520.308 150.883L520.3 150.881Z" fill="#005270"/>
<path d="M511.4 117.999L488.135 156.014L470.326 169.131L489.99 159.117C496.39 147.984 500.736 140.174 503.027 135.688C505.448 131.046 508.214 125.202 511.327 118.155" fill="#005270"/>
<path d="M460.7 85.4531C458.841 85.7035 456.996 86.0507 455.173 86.4931H455.181L450.094 99.3331L456.519 104.561L449.4 121.477L469.012 163.392L460.89 85.5921H460.881C460.839 85.6981 460.798 85.8051 460.756 85.9121C460.735 85.7571 460.717 85.6051 460.7 85.4531Z" fill="#00315C"/>
<path d="M499.142 82.0948L497.304 85.1948C497.843 88.3721 497.906 91.6119 497.491 94.8078C497.101 97.4471 496.469 100.045 495.604 102.569C494.459 106.035 492.687 110.479 490.289 115.901C485.391 126.321 478.295 141.938 469 162.751L478.878 150.881L505.072 120.23L502.93 107.763L514.06 102.739L506.511 83.4568H506.52C504.109 82.7863 501.643 82.3299 499.151 82.0928L499.142 82.0948Z" fill="#00315C"/>
<path d="M387.937 115.339C385.741 116.162 383.774 116.842 382.037 117.379C381.844 117.443 381.648 117.505 381.448 117.568H381.456C383.811 119.426 386.403 120.96 389.165 122.131C393.784 123.941 398.556 125.331 403.425 126.283L403.471 126.293C397.156 122.635 392.872 119.827 390.619 117.87C389.672 117.088 388.779 116.242 387.947 115.339H387.937Z" fill="#005270"/>
<path d="M339.131 124.148L331.937 124.773L331.437 141.964C333.606 142.182 335.706 142.379 337.737 142.555L339.131 124.148Z" fill="#F3F3F3"/>
<path d="M442.347 178.25V178.301L434.869 182.583L438.263 202.343C438.908 202.281 439.892 202.183 440.527 202.118H440.535L445.421 201.55C444.673 195.745 443.65 187.979 442.353 178.25H442.347Z" fill="#F3F3F3"/>
<path d="M477.164 145.393L467.941 164.493L468.341 168.856L477.157 145.414" fill="#00315C"/>
<path d="M500.861 238.739C500.681 238.692 500.265 239.556 499.613 241.331C499.282 242.178 499.058 243.062 498.946 243.964C498.792 245.478 499.114 247.002 499.866 248.324C500.985 250.193 502.368 251.891 503.972 253.365C505.645 255.044 508.606 257.641 512.853 261.158L503.529 250.339C503.26 250.016 503.025 249.665 502.829 249.293C502.288 248.21 501.915 247.051 501.723 245.855C501.386 243.731 501.186 241.588 501.123 239.439C501.076 239.002 500.995 238.768 500.882 238.739" fill="#162026"/>
<path d="M481.441 256.046L482.119 310.266C482.91 302.846 483.807 295.107 484.81 287.05L487.353 308.059L488.028 303.037L481.444 256.068L481.441 256.046Z" fill="#162026"/>
<path d="M464.028 169.897L442.268 176.221L442.347 178.25V178.301L464.026 169.901L464.028 169.897Z" fill="#005270"/>
<path d="M430.658 197.019L430.315 198.579L430.291 199.674L430.27 200.632H430.279C430.336 200.655 430.397 200.666 430.459 200.666C430.517 200.665 430.576 200.657 430.632 200.641L433.266 199.624L432.472 198.832L430.662 197.024L430.658 197.019Z" fill="#F67F71"/>
<path d="M268.715 96.7871C268.715 96.7871 260.499 97.2651 255.967 106.207C255.007 112.839 255.964 119.607 258.725 125.713C258.725 125.713 264.364 117.308 275.766 122.349C275.766 122.349 265.8 98.5591 268.715 96.7871Z" fill="#FFBE02"/>
<path d="M286.157 96.7871C291.307 98.4383 295.648 101.966 298.317 106.67C302.682 114.505 301.837 124.148 301.837 124.148C301.837 124.148 298.118 117.624 292.603 119.608L286.157 96.7871Z" fill="#FFBE02"/>
<path d="M271.044 81.1332C269.55 82.1512 268.72 83.0622 266.932 82.9272C265.144 82.7922 262.908 80.6172 263.013 78.7142C261.637 79.4802 260.376 78.7432 259.2 77.6142C258.024 76.4852 257.437 75.2732 258 73.7282C257.292 73.857 256.562 73.73 255.939 73.3698C255.316 73.0097 254.841 72.4399 254.6 71.7622C254.293 71.1309 254.219 70.4116 254.39 69.7309C254.562 69.0502 254.968 68.4519 255.537 68.0412C253.188 66.2412 251.995 62.6062 253.593 60.1062C251.134 58.2252 250.961 53.8062 253.271 51.8172C251.938 51.3012 251.63 49.0172 251.663 47.5172C251.688 46.8564 251.88 46.2129 252.223 45.6473C252.565 45.0818 253.047 44.613 253.621 44.2852C253.969 44.0352 253.962 42.8852 253.881 42.5292C253.759 41.9759 253.751 41.4036 253.858 40.8472C253.964 40.2907 254.183 39.7618 254.5 39.2925C254.818 38.8233 255.227 38.4235 255.704 38.1176C256.181 37.8117 256.715 37.6061 257.274 37.5132C257.274 35.2322 259.255 32.7932 261.356 33.2632C261.868 30.5982 264.77 28.3312 267.235 29.1282C267.834 27.8653 268.859 26.8537 270.129 26.2708C271.4 25.6879 272.835 25.5708 274.183 25.9402C275.783 23.8092 278.713 23.6342 281.105 24.7342C282.777 23.5342 285.323 22.6982 286.814 24.2052C287.068 24.5376 287.361 24.8378 287.688 25.0992C288.469 25.5712 289.388 24.9992 290.246 24.7522C291.231 24.5397 292.261 24.7163 293.119 25.2449C293.977 25.7736 294.598 26.6135 294.852 27.5892C296.082 27.2899 297.37 27.3245 298.583 27.6892C299.203 27.9176 299.724 28.3541 300.058 28.924C300.391 29.4939 300.517 30.162 300.413 30.8142C300.923 30.5009 301.519 30.3542 302.116 30.3945C302.714 30.4348 303.284 30.6602 303.748 31.0392C304.222 31.4509 304.573 31.9853 304.763 32.5838C304.953 33.1823 304.974 33.8215 304.824 34.4312C306.908 34.8922 307.916 38.1142 306.49 39.7542C306.967 40.0277 307.378 40.4045 307.691 40.857C308.004 41.3096 308.212 41.8264 308.3 42.3697C308.388 42.913 308.353 43.469 308.199 43.9972C308.044 44.5253 307.773 45.0122 307.406 45.4222C309.375 46.8392 309.287 50.4922 307.254 51.7102C309.009 53.0642 308.6 56.4842 306.592 57.2432C306.858 57.6023 307.045 58.0137 307.141 58.4504C307.237 58.8871 307.239 59.3391 307.147 59.7766C307.056 60.2142 306.872 60.6274 306.609 60.9889C306.347 61.3505 306.01 61.6522 305.622 61.8742C306.322 63.2672 305.281 64.9842 303.97 65.6682C302.659 66.3522 301.128 66.4102 299.76 66.9552C298.151 67.7559 296.694 68.8306 295.454 70.1312C290.514 74.5746 284.62 77.8247 278.226 79.6312C277.849 79.7888 277.444 79.8663 277.036 79.8587C276.628 79.8512 276.226 79.7587 275.856 79.5872" fill="#1F1A1A"/>
<path d="M256.8 65.2257C256.944 54.4777 270.068 58.0077 270.068 58.0077C270.068 58.0077 275.374 56.9987 277.138 48.8077C277.138 48.8077 280.627 41.9697 292.424 41.9697C304.221 41.9697 304 50.5387 304 50.5387C304.215 56.8897 304.652 69.0157 304.367 73.0157C303.913 79.3917 301.245 90.9917 291.539 92.7567L291.005 98.8717L290.686 102.512C290.686 102.512 290.386 110.297 276.386 107.019C267.154 104.86 267.801 99.1867 267.801 99.1867L268.454 77.4867C268.454 77.4867 256.659 75.9387 256.8 65.2257Z" fill="#824B45"/>
<path d="M280.409 91.666C280.409 91.666 280.857 97.196 291.009 98.866L291.546 92.754L290.998 92.948C289.245 93.5088 287.391 93.6846 285.563 93.4633C283.736 93.2421 281.978 92.629 280.409 91.666V91.666Z" fill="#452518"/>
<path d="M285.685 64.6866L285.506 64.8156C285.334 65.0128 285.115 65.1632 284.869 65.2526C284.686 65.3158 284.493 65.3463 284.3 65.3426H277.177C276.842 65.3438 276.513 65.2453 276.234 65.0596C275.954 64.8629 275.737 64.5895 275.609 64.2722C275.481 63.9549 275.448 63.6074 275.513 63.2716C275.913 61.3946 277.621 58.6156 280.552 58.5516C280.967 58.5407 281.382 58.5797 281.788 58.6676C281.927 58.6806 282.027 58.7316 282.153 58.7446C282.965 58.94 283.718 59.3268 284.35 59.8727C284.982 60.4186 285.475 61.1077 285.786 61.8826C285.903 62.144 285.997 62.4154 286.065 62.6936C286.108 62.8269 286.136 62.9648 286.148 63.1046C286.21 63.3859 286.2 63.6783 286.119 63.9548C286.038 64.2313 285.889 64.483 285.685 64.6866V64.6866Z" fill="white"/>
<path d="M303.365 64.6867L303.224 64.8157C303.068 65.0081 302.867 65.1584 302.638 65.2527C302.476 65.3149 302.304 65.3454 302.131 65.3427H295.8C295.496 65.3396 295.202 65.2405 294.958 65.0597C294.705 64.8439 294.514 64.5644 294.405 64.25C294.296 63.9357 294.273 63.5979 294.338 63.2717C294.651 61.5867 295.921 59.1817 298.038 58.6547C298.652 58.504 299.295 58.5085 299.907 58.6677C300.021 58.6807 300.133 58.7317 300.234 58.7447C300.959 58.9633 301.623 59.3484 302.173 59.8693C302.723 60.3902 303.144 61.0324 303.402 61.7447C303.536 62.0504 303.636 62.3696 303.702 62.6967C303.737 62.8507 303.748 62.9797 303.784 63.1077C303.835 63.3855 303.824 63.6711 303.751 63.9441C303.679 64.2171 303.547 64.4707 303.365 64.6867V64.6867Z" fill="white"/>
<path d="M290.626 74.2078C290.884 74.1738 296.932 73.3078 297.079 69.2528C297.141 68.7665 297.088 68.2722 296.922 67.8107C296.756 67.3491 296.484 66.9335 296.126 66.5978C295.768 66.3435 295.361 66.165 294.931 66.0732C294.501 65.9813 294.057 65.9782 293.626 66.0638L293.126 59.1318L291.994 59.2428L292.6 67.5818L293.266 67.3708C293.62 67.2464 293.996 67.1992 294.37 67.2325C294.744 67.2658 295.106 67.3788 295.432 67.5638C295.639 67.7822 295.794 68.0452 295.883 68.3327C295.973 68.6202 295.995 68.9244 295.948 69.2218C295.839 72.2408 290.558 72.9978 290.505 73.0048L290.626 74.2078Z" fill="#451A16"/>
<path d="M286.583 82.5265C287.896 82.521 289.205 82.3779 290.489 82.0995L290.261 80.9155C291.038 80.7615 282.205 82.9155 280.961 78.4375L279.874 78.7975C280.72 81.8495 283.915 82.5265 286.583 82.5265Z" fill="#451A16"/>
<path d="M264.532 69.1815L265.267 68.2485C264.499 67.2374 263.889 66.1161 263.456 64.9225C263.559 64.4323 263.76 63.968 264.048 63.5579C264.335 63.1478 264.703 62.8003 265.129 62.5365L264.589 61.4775C263.995 61.8391 263.487 62.3238 263.097 62.899C262.707 63.4742 262.445 64.1264 262.329 64.8115C262.183 66.2725 262.924 67.7385 264.532 69.1815Z" fill="#451A16"/>
<path d="M285.635 55.5817C285.635 55.5817 280.299 53.0047 276.091 55.8497C276.091 55.8497 276.902 51.9307 280.761 51.5497C284.62 51.1687 285.635 55.5817 285.635 55.5817Z" fill="#1F1A1A"/>
<path d="M304.207 55.6992C304.207 55.6992 298.871 53.1222 294.662 55.9672C294.662 55.9672 295.473 52.0482 299.333 51.6722C303.193 51.2962 304.207 55.6992 304.207 55.6992Z" fill="#1F1A1A"/>
<path d="M272.442 55.7578C271.145 59.7457 270.751 63.9719 271.288 68.1308L268.483 66.6498L266.325 57.1778L272.442 55.7578Z" fill="#1F1A1A"/>
<path d="M285.786 61.8827V61.9477C285.791 62.6012 285.647 63.2472 285.363 63.8359C285.079 64.4245 284.664 64.9401 284.149 65.3427H280.46C279.955 64.937 279.552 64.4185 279.284 63.8289C279.015 63.2393 278.889 62.595 278.915 61.9477C278.907 61.2931 279.051 60.6455 279.335 60.0556C279.619 59.4658 280.035 58.9496 280.552 58.5477C280.967 58.5368 281.382 58.5758 281.788 58.6637C281.927 58.6767 282.027 58.7277 282.153 58.7407C282.965 58.9365 283.719 59.3239 284.351 59.8705C284.983 60.4171 285.475 61.1071 285.786 61.8827V61.8827Z" fill="#1F1A1A"/>
<path d="M303.415 61.9477C303.42 62.6012 303.275 63.2471 302.992 63.8357C302.708 64.4244 302.293 64.9399 301.778 65.3427H298.09C297.585 64.9372 297.182 64.4187 296.913 63.8291C296.645 63.2395 296.518 62.5951 296.544 61.9477C296.54 61.3228 296.672 60.7045 296.931 60.1357C297.19 59.567 297.57 59.0616 298.044 58.6547C298.658 58.504 299.301 58.5085 299.913 58.6677C300.027 58.6807 300.139 58.7317 300.24 58.7447C300.965 58.9633 301.629 59.3484 302.179 59.8693C302.729 60.3902 303.15 61.0324 303.408 61.7447C303.417 61.812 303.419 61.88 303.415 61.9477Z" fill="#1F1A1A"/>
<path d="M276.287 47.7558C276.245 48.0878 276.277 48.425 276.382 48.7431C276.486 49.0611 276.66 49.3519 276.89 49.5945C277.121 49.8371 277.402 50.0255 277.715 50.1459C278.027 50.2663 278.362 50.3158 278.696 50.2908C279.372 50.1679 280.001 49.8591 280.512 49.399C281.022 48.9389 281.395 48.3456 281.587 47.6858C281.698 48.1686 281.987 48.5917 282.397 48.8708C282.806 49.15 283.306 49.2645 283.796 49.1918C284.286 49.0903 284.748 48.8818 285.148 48.5812C285.549 48.2806 285.878 47.8953 286.112 47.4528C286.275 48.0424 286.62 48.5656 287.097 48.9484C287.574 49.3313 288.16 49.5542 288.771 49.5858C289.387 49.5793 289.987 49.3831 290.488 49.0238C290.989 48.6645 291.367 48.1596 291.571 47.5778C293.528 50.8778 295.712 48.9228 296.706 47.0778C296.763 47.5701 296.951 48.0379 297.252 48.4317C297.553 48.8255 297.955 49.1306 298.415 49.3148C298.649 49.3848 298.895 49.4068 299.138 49.3793C299.381 49.3519 299.616 49.2755 299.828 49.1549C300.041 49.0343 300.227 48.8719 300.375 48.6775C300.524 48.4831 300.631 48.2607 300.691 48.0238C300.926 48.3709 301.23 48.6656 301.584 48.8893C301.938 49.113 302.335 49.2609 302.75 49.3237C303.164 49.3864 303.587 49.3627 303.991 49.2539C304.396 49.1452 304.774 48.9538 305.101 48.6918C305.531 48.3488 305.808 47.8501 305.873 47.3038C305.87 46.8569 305.767 46.4163 305.573 46.0138C305.081 44.6002 304.386 43.2657 303.51 42.0518C301.232 39.1788 297.367 38.2968 293.769 37.9968C290.534 37.6767 287.27 37.8408 284.084 38.4838C282.174 38.8513 280.353 39.5873 278.724 40.6508C277.063 41.7507 275.825 43.3826 275.213 45.2788" fill="#1F1A1A"/>
<path d="M489.894 59.9497C489.894 59.9497 506.863 56.0977 507.103 38.2147C507.343 20.3317 498.503 19.5068 498.503 19.5068C498.503 19.5068 502.614 4.09975 475.327 1.07375C448.04 -1.95225 440.117 21.9027 455.139 27.4047C459.44 29.044 464.025 29.8056 468.625 29.6447C473.224 29.4838 477.745 28.4036 481.921 26.4677C481.921 26.4677 482.327 31.6767 485.891 32.9387L489.894 59.9497Z" fill="#949494"/>
<path d="M502.667 42.1063C502.528 52.4263 491.331 52.9553 491.331 52.9553L491.831 71.0913C491.831 71.0913 491.648 83.7843 482.212 85.8613C467.912 89.0093 467.269 77.9903 467.269 77.9903L467.04 74.4903L466.657 68.6073C456.857 66.9073 452.918 54.3193 453.569 48.8553C454.195 43.4163 455.383 23.6883 455.383 23.6883C465.13 26.1773 475.842 21.9883 475.842 21.9883C477.085 25.5603 482.449 26.3083 482.449 26.3083C484.027 34.1993 489.388 35.1563 489.388 35.1563C489.388 35.1563 502.806 31.7643 502.667 42.1063Z" fill="#FFCBC4"/>
<path d="M477.992 67.5547C477.992 67.5547 477.392 72.8777 467.035 74.4887L466.652 68.6057L467.203 68.7927C468.991 69.3312 470.87 69.4992 472.725 69.2863C474.58 69.0735 476.372 68.4842 477.992 67.5547Z" fill="#F79085"/>
<path d="M473.368 41.547L473.522 41.683C473.74 41.9318 474.029 42.1065 474.351 42.183C474.479 42.2108 474.609 42.2239 474.74 42.222H481.975C482.32 42.2102 482.656 42.1096 482.951 41.93C483.236 41.7291 483.459 41.452 483.593 41.1305C483.728 40.8091 483.77 40.4561 483.714 40.112C483.325 37.934 481.231 34.569 477.477 35.386C477.356 35.4243 477.232 35.4534 477.106 35.473C476.127 35.719 475.232 36.2233 474.514 36.9333C473.797 37.6432 473.283 38.5327 473.026 39.509C472.979 39.6424 472.942 39.7787 472.913 39.917C472.846 40.205 472.852 40.5053 472.932 40.7902C473.011 41.0751 473.161 41.3353 473.368 41.547V41.547Z" fill="white"/>
<path d="M455.4 41.5472L455.544 41.6832C455.647 41.8195 455.778 41.9323 455.928 42.0142C456.133 42.1461 456.372 42.2156 456.616 42.2142H463.053C463.362 42.2045 463.662 42.1028 463.913 41.9222C464.176 41.7055 464.378 41.4236 464.498 41.1047C464.619 40.7857 464.653 40.4407 464.599 40.1042C464.258 37.9262 462.399 34.5612 459.071 35.3782C458.962 35.4129 458.851 35.4419 458.739 35.4652C457.831 35.7571 457.016 36.2844 456.378 36.9933C455.74 37.7022 455.301 38.5675 455.106 39.5012C454.996 39.8414 454.965 40.2023 455.016 40.5563C455.067 40.9103 455.198 41.2479 455.4 41.5432V41.5472Z" fill="white"/>
<path d="M468.078 50.7503C467.817 50.7173 461.697 49.8843 461.655 45.9803C461.609 45.502 461.68 45.0198 461.861 44.5748C462.042 44.1297 462.328 43.735 462.694 43.4243C463.447 42.9287 464.362 42.7445 465.248 42.9103L465.948 36.2383L467.095 36.3453L466.257 44.3713L465.587 44.1713C465.226 44.0511 464.844 44.0056 464.465 44.0374C464.086 44.0692 463.717 44.1777 463.381 44.3563C463.167 44.5597 463.005 44.8105 462.906 45.0885C462.807 45.3664 462.775 45.6637 462.812 45.9563C462.843 48.8623 468.187 49.5913 468.241 49.5973L468.078 50.7503Z" fill="#F79085"/>
<path d="M471.963 58.7583C470.634 58.7538 469.309 58.6157 468.007 58.3463L468.27 57.2063C467.485 57.0593 476.4 59.1293 477.785 54.8223L478.879 55.1683C477.937 58.1063 474.673 58.7583 471.963 58.7583Z" fill="#F79085"/>
<path d="M494.717 45.9131L493.995 45.0131C494.796 44.0504 495.446 42.9714 495.923 41.8131C495.827 41.3363 495.632 40.885 495.35 40.4887C495.068 40.0924 494.706 39.76 494.287 39.5131L494.864 38.4941C495.447 38.8313 495.948 39.2943 496.33 39.8494C496.712 40.4045 496.965 41.0378 497.071 41.7031C497.18 43.1131 496.389 44.5271 494.717 45.9131Z" fill="#F79085"/>
<path d="M473.643 32.8208C473.643 32.8208 479.131 30.3408 483.331 33.0798C483.096 31.9895 482.521 31.002 481.689 30.2592C480.857 29.5163 479.811 29.0565 478.701 28.9458C474.791 28.5838 473.643 32.8208 473.643 32.8208Z" fill="#949494"/>
<path d="M454.775 32.9341C454.775 32.9341 460.264 30.4531 464.463 33.1921C464.228 32.102 463.653 31.1146 462.821 30.3717C461.989 29.6289 460.944 29.169 459.834 29.0581C455.923 28.6961 454.775 32.9341 454.775 32.9341Z" fill="#949494"/>
<path d="M473.852 40.263C473.839 40.9355 474.012 41.5985 474.352 42.179C474.48 42.2068 474.61 42.2199 474.741 42.218H479.574C479.955 41.6366 480.159 40.9578 480.164 40.263C480.192 39.8307 480.134 39.3973 479.992 38.9878C479.851 38.5783 479.63 38.201 479.341 37.878C479.053 37.5549 478.703 37.2925 478.312 37.1061C477.921 36.9196 477.497 36.8129 477.064 36.792C476.18 36.8338 475.349 37.2211 474.748 37.8703C474.147 38.5195 473.825 39.3788 473.852 40.263V40.263Z" fill="#3F5B73"/>
<path d="M455.607 40.4389C455.6 40.9809 455.709 41.5181 455.926 42.0149C456.131 42.1468 456.37 42.2162 456.614 42.2149H461.456C461.763 41.6718 461.926 41.0588 461.928 40.4349C461.954 40.0019 461.894 39.5681 461.751 39.1586C461.608 38.749 461.385 38.3719 461.096 38.049C460.806 37.7262 460.455 37.464 460.064 37.2777C459.672 37.0915 459.247 36.9848 458.814 36.9639C457.932 37.01 457.102 37.3993 456.503 38.0485C455.904 38.6978 455.582 39.5557 455.607 40.4389V40.4389Z" fill="#3F5B73"/>
<path d="M490.406 32.8985L489.825 43.2075L486.378 47.0915L485.117 31.1055L490.406 32.8985Z" fill="#949494"/>
<path d="M469.906 52.0383C469.606 52.1563 470.149 55.0383 470.149 55.0383L478.915 53.3853C478.915 53.3853 474.443 50.2773 469.906 52.0383Z" fill="#949494"/>
<path d="M466.724 52.1557C467.007 52.2737 466.417 55.1557 466.417 55.1557L458.2 53.5057C458.2 53.5057 462.5 50.3907 466.724 52.1557Z" fill="#949494"/>
<path d="M455.3 27.9037C455.3 27.9037 466.983 29.7457 482.439 26.3037L478.319 17.3037L457.611 17.9037L452.335 19.8537C452.335 19.8537 451.413 21.5037 451.998 22.5537L455.3 27.9037Z" fill="#949494"/>
</svg>
